<svg width="17" height="17" viewBox="0 0 17 17" fill="none" xmlns="http://www.w3.org/2000/svg">
<path d="M8.50003 11.3333H8.5057M8.50003 5.66667V9.20833M2.28795 5.60504L5.60295 2.28792C5.7092 2.18167 5.85087 2.125 6.0067 2.125H11.0004C11.1492 2.125 11.2979 2.18167 11.4042 2.28792L14.7121 5.59796C14.8184 5.70421 14.875 5.84587 14.875 6.00171V10.9983C14.875 11.147 14.8184 11.2958 14.7121 11.402L11.4042 14.7121C11.2979 14.8183 11.1563 14.875 11.0004 14.875H5.99962C5.9249 14.8758 5.85076 14.8618 5.78147 14.8339C5.71218 14.8059 5.6491 14.7645 5.59587 14.7121L2.28795 11.402C2.23552 11.3488 2.19413 11.2857 2.16617 11.2164C2.13821 11.1471 2.12423 11.073 2.12503 10.9983V6.00171C2.12503 5.85296 2.1817 5.70421 2.28795 5.59796V5.60504Z" stroke="#455A64" stroke-width="1.0625" stroke-miterlimit="10" stroke-linecap="round" stroke-linejoin="round"/>
</svg>
