<svg width="34" height="35" viewBox="0 0 34 35" fill="none" xmlns="http://www.w3.org/2000/svg">
<path d="M26.9355 5.87755C24.0738 3.01274 20.2684 1.43481 16.2202 1.43481C12.1715 1.43481 8.36615 3.01274 5.50497 5.87703C2.64017 8.73846 1.0625 12.5439 1.0625 16.5923C1.0625 20.5527 2.57551 24.2778 5.32275 27.1165C5.34272 27.143 5.36555 27.1648 5.39006 27.1871C5.42897 27.2268 5.46555 27.2682 5.50497 27.3076C8.3978 30.2004 12.2535 31.7539 16.2073 31.7539C17.5687 31.7539 18.9408 31.5594 20.2901 31.1823L20.298 31.196C20.5169 31.5731 21.002 31.7028 21.3802 31.4849L22.4604 30.8613C22.8157 31.1267 23.2012 31.349 23.61 31.5244V32.7729C23.61 33.2097 23.9654 33.5651 24.4027 33.5651H27.2847C27.722 33.5651 28.0774 33.2094 28.0774 32.7721V31.5244C28.4862 31.349 28.8717 31.1267 29.2271 30.8613L30.3082 31.4855C30.4919 31.591 30.7061 31.619 30.9106 31.5638C31.1144 31.5088 31.2851 31.3775 31.3904 31.1947L32.8301 28.7C32.937 28.5166 32.9655 28.3029 32.9105 28.098C32.856 27.893 32.7248 27.7218 32.5411 27.6157L31.4626 26.9929C31.4895 26.768 31.5035 26.5455 31.5035 26.3286C31.5035 26.112 31.4901 25.8897 31.4626 25.664L32.5417 25.0409C32.7253 24.9348 32.8566 24.7634 32.911 24.5585C32.9655 24.3538 32.9365 24.14 32.8311 23.9582L31.3904 21.4625C31.2846 21.2789 31.1134 21.1476 30.9085 21.0929C30.8388 21.0745 30.7684 21.0691 30.6982 21.0695C32.3573 15.7253 30.9475 9.88329 26.9355 5.87755ZM6.25671 6.62825C8.91711 3.96448 12.4558 2.49731 16.2202 2.49731C19.9841 2.49731 23.5229 3.96448 26.1843 6.62877C30.1611 10.5997 31.3875 16.509 29.34 21.7304L29.2271 21.7956C28.8722 21.5305 28.4867 21.3082 28.0774 21.1326V19.8841C28.0774 19.4473 27.722 19.0919 27.2847 19.0919H24.4027C23.9689 19.0919 23.6166 19.4421 23.6111 19.8747C22.3464 18.8712 20.8656 18.2153 19.2779 17.9501C20.79 16.9528 21.7911 15.2412 21.7911 13.2984C21.7911 10.2266 19.2921 7.72758 16.2197 7.72758C13.1479 7.72758 10.6489 10.2266 10.6489 13.2984C10.6489 15.2419 11.6507 16.9538 13.1635 17.951C9.25479 18.6161 6.12027 21.664 5.37048 25.584C3.26986 23.0615 2.125 19.9155 2.125 16.5923C2.125 12.8279 3.59216 9.28943 6.25671 6.62825ZM16.2197 17.8071C13.7336 17.8071 11.7114 15.7845 11.7114 13.2984C11.7114 10.8126 13.7336 8.79008 16.2197 8.79008C18.7058 8.79008 20.7286 10.8126 20.7286 13.2984C20.7286 15.7845 18.7058 17.8071 16.2197 17.8071ZM6.29874 26.5958C6.70139 22.2457 10.3699 18.8701 14.7645 18.8701H17.6755C19.8673 18.8701 21.919 19.6954 23.5027 21.1863C23.1346 21.3535 22.7837 21.5542 22.4604 21.7956L21.3797 21.1715C21.002 20.9533 20.5169 21.0838 20.297 21.4623L18.8563 23.9585C18.7504 24.1419 18.7224 24.3553 18.7769 24.5598C18.8319 24.7644 18.9631 24.9356 19.1468 25.0415L20.2249 25.664C20.1979 25.8881 20.1839 26.111 20.1839 26.3286C20.1839 26.5462 20.1979 26.7691 20.2249 26.9929L19.1478 27.6152C18.9642 27.7208 18.8324 27.8915 18.7774 28.0961C18.7224 28.3008 18.7504 28.5148 18.8563 28.6987L19.7419 30.2327C14.9395 31.4762 9.84862 30.1174 6.29874 26.5958ZM31.7764 24.256L30.7705 24.8365C30.4862 25.0002 30.3357 25.3167 30.3871 25.6402C30.4229 25.8744 30.441 26.106 30.441 26.3286C30.441 26.5509 30.4229 26.7825 30.3876 27.0142C30.3357 27.3403 30.4862 27.6567 30.77 27.8201L31.7759 28.4009L30.605 30.43L29.5954 29.8468C29.3132 29.6842 28.9671 29.7127 28.7124 29.9166C28.3513 30.2053 27.9492 30.437 27.5171 30.6061C27.212 30.7254 27.0149 31.0123 27.0149 31.3366V32.5026H24.6725V31.3355C24.6725 31.0118 24.4759 30.7254 24.1703 30.6058C23.7382 30.4372 23.3361 30.2053 22.975 29.9166C22.7192 29.7127 22.3737 29.685 22.0915 29.8474L21.0824 30.43L19.9115 28.4012L20.9169 27.8204C21.2002 27.6572 21.3506 27.3421 21.3008 27.0157C21.2645 26.7831 21.2464 26.5517 21.2464 26.3286C21.2464 26.1053 21.2645 25.8739 21.3008 25.6402C21.3506 25.3151 21.2002 24.9997 20.9174 24.8368L19.9115 24.256L21.0824 22.227L22.092 22.8101C22.3737 22.9725 22.7192 22.944 22.9755 22.7403C23.3361 22.4516 23.7382 22.2197 24.1708 22.0508C24.4759 21.9315 24.6725 21.6449 24.6725 21.3204V20.1544H27.0149V21.3214C27.0149 21.6451 27.212 21.9315 27.5171 22.0508C27.9498 22.2202 28.3518 22.4521 28.7124 22.7403C28.9677 22.944 29.3132 22.9717 29.5959 22.8096L30.605 22.227L31.7764 24.256Z" fill="#090707"/>
<path d="M25.844 23.2153C24.1273 23.2153 22.7307 24.6119 22.7307 26.3286C22.7307 28.0451 24.1273 29.4417 25.844 29.4417C27.5602 29.4417 28.9568 28.0451 28.9568 26.3286C28.9568 24.6119 27.5602 23.2153 25.844 23.2153ZM25.844 28.3792C24.713 28.3792 23.7932 27.4594 23.7932 26.3286C23.7932 25.1979 24.713 24.2778 25.844 24.2778C26.9744 24.2778 27.8943 25.1979 27.8943 26.3286C27.8943 27.4594 26.9744 28.3792 25.844 28.3792Z" fill="#090707"/>
</svg>
