<svg width="15" height="15" viewBox="0 0 15 15" fill="none" xmlns="http://www.w3.org/2000/svg">
<path d="M8.46093 8.45573L13.2526 8.45573C13.5241 8.45573 13.7516 8.36373 13.9349 8.17973C14.1183 7.99573 14.2103 7.76829 14.2109 7.4974C14.2116 7.22651 14.1196 6.99907 13.9349 6.81507C13.7503 6.63107 13.5229 6.53907 13.2526 6.53907L8.46093 6.53907L8.46093 1.7474C8.46093 1.47587 8.36893 1.24843 8.18493 1.06507C8.00093 0.881705 7.77349 0.789705 7.5026 0.789066C7.23171 0.788427 7.00395 0.880427 6.81931 1.06507C6.63467 1.2497 6.54299 1.47715 6.54427 1.7474L6.54427 6.53907L1.7526 6.53907C1.48107 6.53907 1.25331 6.63107 1.06931 6.81507C0.885309 6.99907 0.793628 7.22651 0.794267 7.4974C0.794906 7.76829 0.886906 7.99605 1.07027 8.18069C1.25363 8.36533 1.48107 8.45701 1.7526 8.45573L6.54427 8.45573L6.54427 13.2474C6.54427 13.5189 6.63627 13.7467 6.82027 13.9307C7.00427 14.1147 7.23171 14.2064 7.5026 14.2057C7.77349 14.2051 8.00093 14.1131 8.18493 13.9297C8.36893 13.7464 8.46093 13.5189 8.46093 13.2474L8.46093 8.45573Z" fill="white"/>
</svg>
