<svg width="24" height="24" viewBox="0 0 24 24" fill="none" xmlns="http://www.w3.org/2000/svg">
<path d="M5 11.5C5 11.2411 5.10287 10.9927 5.28597 10.8096C5.46908 10.6265 5.71742 10.5236 5.97637 10.5236H10.5236V5.97637C10.5236 5.71742 10.6265 5.46908 10.8096 5.28597C10.9927 5.10287 11.2411 5 11.5 5C11.7589 5 12.0073 5.10287 12.1904 5.28597C12.3735 5.46908 12.4764 5.71742 12.4764 5.97637V10.5236H17.0236C17.2826 10.5236 17.5309 10.6265 17.714 10.8096C17.8971 10.9927 18 11.2411 18 11.5C18 11.7589 17.8971 12.0073 17.714 12.1904C17.5309 12.3735 17.2826 12.4764 17.0236 12.4764H12.4764V17.0236C12.4764 17.2826 12.3735 17.5309 12.1904 17.714C12.0073 17.8971 11.7589 18 11.5 18C11.2411 18 10.9927 17.8971 10.8096 17.714C10.6265 17.5309 10.5236 17.2826 10.5236 17.0236V12.4764H5.97637C5.71742 12.4764 5.46908 12.3735 5.28597 12.1904C5.10287 12.0073 5 11.7589 5 11.5Z" fill="#414042"/>
<path fill-rule="evenodd" clip-rule="evenodd" d="M5.80974 1.32767C9.7573 0.890776 13.7411 0.890776 17.6887 1.32767C20.0059 1.58597 21.8766 3.40796 22.148 5.73388C22.6173 9.73112 22.6173 13.7689 22.148 17.7661C21.8754 20.092 20.0046 21.9128 17.6887 22.1723C13.7411 22.6092 9.7573 22.6092 5.80974 22.1723C3.49255 21.9128 1.6218 20.092 1.35038 17.7661C0.883207 13.7689 0.883207 9.73107 1.35038 5.73388C1.6218 3.40796 3.49381 1.58597 5.80974 1.32767ZM17.4781 3.21424C13.6705 2.7929 9.82791 2.7929 6.02028 3.21424C5.31541 3.2923 4.65749 3.60532 4.1528 4.10272C3.64811 4.60012 3.32613 5.25284 3.23888 5.95546C2.78779 9.80578 2.78779 13.6955 3.23888 17.5458C3.3264 18.2482 3.64849 18.9006 4.15316 19.3978C4.65782 19.8949 5.3156 20.2078 6.02028 20.2858C9.79602 20.7061 13.7024 20.7061 17.4781 20.2858C18.1826 20.2075 18.8401 19.8945 19.3445 19.3974C19.8489 18.9003 20.1708 18.248 20.2583 17.5458C20.7094 13.6955 20.7094 9.80578 20.2583 5.95546C20.1705 5.25349 19.8485 4.60149 19.3441 4.10462C18.8398 3.60776 18.1824 3.29499 17.4781 3.21677" fill="#414042"/>
</svg>
