<svg width="34" height="34" viewBox="0 0 34 34" fill="none" xmlns="http://www.w3.org/2000/svg">
<path d="M17 30.75C24.5939 30.75 30.75 24.5939 30.75 17C30.75 9.40608 24.5939 3.25 17 3.25C9.40608 3.25 3.25 9.40608 3.25 17C3.25 24.5939 9.40608 30.75 17 30.75Z" stroke="#25BAFF" stroke-width="2.0625" stroke-linecap="round" stroke-linejoin="round"/>
<path d="M11.5 23.8749C12.1404 23.021 12.9708 22.328 13.9254 21.8507C14.88 21.3734 15.9327 21.1249 17 21.1249C19.2495 21.1249 21.246 22.2056 22.5 23.8749M10.125 12.8886C10.125 12.8886 12.0638 12.714 13.1445 13.5734M13.1445 13.5734L12.7829 14.7215C12.6399 15.1739 13.0125 15.6249 13.5295 15.6249C14.074 15.6249 14.4329 15.134 14.1524 14.7105C13.8769 14.2818 13.537 13.8983 13.1445 13.5734ZM23.875 12.89C23.875 12.89 21.9362 12.714 20.8555 13.5734M20.8555 13.5734L21.2171 14.7215C21.3601 15.1739 20.9875 15.6249 20.4705 15.6249C19.926 15.6249 19.5671 15.134 19.8476 14.7105C20.1231 14.2818 20.463 13.8983 20.8555 13.5734Z" stroke="#25BAFF" stroke-width="2.0625" stroke-linecap="round" stroke-linejoin="round"/>
</svg>
