<svg width="200" height="105" viewBox="0 0 200 105" fill="none" xmlns="http://www.w3.org/2000/svg">
<path d="M20.1895 61H9.25195C7.67318 61 6.54199 60.6501 5.8584 59.9502C5.19108 59.234 4.85742 58.1029 4.85742 56.5566V29.6523C4.85742 28.0736 5.19922 26.9424 5.88281 26.2588C6.58268 25.5589 7.70573 25.209 9.25195 25.209H20.8486C22.5576 25.209 24.0387 25.3148 25.292 25.5264C26.5452 25.738 27.6683 26.1449 28.6611 26.7471C29.5075 27.2516 30.2562 27.8945 30.9072 28.6758C31.5583 29.4408 32.0547 30.2952 32.3965 31.2393C32.7383 32.167 32.9092 33.1517 32.9092 34.1934C32.9092 37.7741 31.1188 40.3945 27.5381 42.0547C32.2419 43.5521 34.5938 46.4655 34.5938 50.7949C34.5938 52.7969 34.0811 54.6035 33.0557 56.2148C32.0303 57.8099 30.6468 58.9899 28.9053 59.7549C27.8148 60.2106 26.5615 60.5361 25.1455 60.7314C23.7295 60.9105 22.0775 61 20.1895 61ZM19.6523 45.1064H12.1084V55.5557H19.8965C24.7956 55.5557 27.2451 53.7897 27.2451 50.2578C27.2451 48.4512 26.6104 47.141 25.3408 46.3271C24.0713 45.5133 22.1751 45.1064 19.6523 45.1064ZM12.1084 30.6533V39.9062H18.749C20.5557 39.9062 21.9473 39.7354 22.9238 39.3936C23.9167 39.0518 24.6735 38.4007 25.1943 37.4404C25.6012 36.7568 25.8047 35.9919 25.8047 35.1455C25.8047 33.3389 25.1618 32.1426 23.876 31.5566C22.5902 30.9544 20.6289 30.6533 17.9922 30.6533H12.1084ZM40.4287 57.5576V28.6514C40.4287 27.3167 40.7217 26.3076 41.3076 25.624C41.9098 24.9404 42.7155 24.5986 43.7246 24.5986C44.7337 24.5986 45.5475 24.9404 46.166 25.624C46.7845 26.2913 47.0938 27.3005 47.0938 28.6514V57.5576C47.0938 58.9085 46.7764 59.9258 46.1416 60.6094C45.5231 61.2767 44.7174 61.6104 43.7246 61.6104C42.748 61.6104 41.9505 61.2604 41.332 60.5605C40.7298 59.8607 40.4287 58.8597 40.4287 57.5576ZM71.3125 57.8506V56.9961C70.515 58.0052 69.6768 58.8516 68.7979 59.5352C67.9189 60.2188 66.9587 60.7233 65.917 61.0488C64.8753 61.3906 63.6872 61.5615 62.3525 61.5615C60.7412 61.5615 59.2926 61.2279 58.0068 60.5605C56.7373 59.8932 55.7526 58.9736 55.0527 57.8018C54.2227 56.3857 53.8076 54.3512 53.8076 51.6982V38.4902C53.8076 37.1556 54.1087 36.1628 54.7109 35.5117C55.3132 34.8444 56.1107 34.5107 57.1035 34.5107C58.1126 34.5107 58.9264 34.8444 59.5449 35.5117C60.1634 36.179 60.4727 37.1719 60.4727 38.4902V49.1592C60.4727 50.7054 60.6029 52.0075 60.8633 53.0654C61.1237 54.1071 61.5876 54.929 62.2549 55.5312C62.9385 56.1172 63.8581 56.4102 65.0137 56.4102C66.1367 56.4102 67.1947 56.0765 68.1875 55.4092C69.1803 54.7419 69.9046 53.8711 70.3604 52.7969C70.7347 51.8529 70.9219 49.7858 70.9219 46.5957V38.4902C70.9219 37.1719 71.2311 36.179 71.8496 35.5117C72.4681 34.8444 73.2738 34.5107 74.2666 34.5107C75.2594 34.5107 76.057 34.8444 76.6592 35.5117C77.2614 36.1628 77.5625 37.1556 77.5625 38.4902V57.8018C77.5625 59.0713 77.2695 60.0234 76.6836 60.6582C76.1139 61.293 75.3734 61.6104 74.4619 61.6104C73.5505 61.6104 72.7936 61.2848 72.1914 60.6338C71.6055 59.9665 71.3125 59.0387 71.3125 57.8506Z" fill="#000080"/>
<path d="M143.49 32.7744H127.157V41.5635H142.196C143.303 41.5635 144.125 41.8158 144.662 42.3203C145.215 42.8086 145.492 43.4596 145.492 44.2734C145.492 45.0872 145.224 45.7546 144.687 46.2754C144.149 46.7799 143.319 47.0322 142.196 47.0322H127.157V57.2129H144.052C145.191 57.2129 146.046 57.4814 146.615 58.0186C147.201 58.5394 147.494 59.2393 147.494 60.1182C147.494 60.9645 147.201 61.6562 146.615 62.1934C146.046 62.7142 145.191 62.9746 144.052 62.9746H124.35C122.771 62.9746 121.632 62.6247 120.932 61.9248C120.248 61.2249 119.906 60.0938 119.906 58.5312V31.627C119.906 30.5853 120.061 29.7389 120.37 29.0879C120.679 28.4206 121.16 27.9404 121.811 27.6475C122.478 27.3382 123.324 27.1836 124.35 27.1836H143.49C144.646 27.1836 145.5 27.444 146.054 27.9648C146.623 28.4694 146.908 29.1367 146.908 29.9668C146.908 30.8132 146.623 31.4967 146.054 32.0176C145.5 32.5221 144.646 32.7744 143.49 32.7744ZM159.408 53.9658V59.5322C159.408 60.8831 159.091 61.9004 158.456 62.584C157.821 63.2513 157.016 63.585 156.039 63.585C155.079 63.585 154.289 63.2432 153.671 62.5596C153.052 61.876 152.743 60.8669 152.743 59.5322V40.9775C152.743 37.9827 153.826 36.4854 155.99 36.4854C157.097 36.4854 157.895 36.8353 158.383 37.5352C158.871 38.235 159.14 39.2686 159.188 40.6357C159.986 39.2686 160.8 38.235 161.63 37.5352C162.476 36.8353 163.599 36.4854 164.999 36.4854C166.399 36.4854 167.758 36.8353 169.076 37.5352C170.395 38.235 171.054 39.1628 171.054 40.3184C171.054 41.1322 170.769 41.8076 170.199 42.3447C169.646 42.8656 169.044 43.126 168.393 43.126C168.148 43.126 167.554 42.9795 166.61 42.6865C165.683 42.3773 164.861 42.2227 164.145 42.2227C163.168 42.2227 162.37 42.4831 161.752 43.0039C161.133 43.5085 160.653 44.2653 160.312 45.2744C159.97 46.2835 159.734 47.488 159.604 48.8877C159.473 50.2712 159.408 51.9639 159.408 53.9658ZM190.292 59.8252C188.681 61.0785 187.118 62.0225 185.604 62.6572C184.107 63.2757 182.423 63.585 180.551 63.585C178.842 63.585 177.336 63.2513 176.034 62.584C174.748 61.9004 173.756 60.9808 173.056 59.8252C172.356 58.6696 172.006 57.4163 172.006 56.0654C172.006 54.2425 172.584 52.6882 173.739 51.4023C174.895 50.1165 176.482 49.2539 178.5 48.8145C178.923 48.7168 179.973 48.4971 181.649 48.1553C183.326 47.8135 184.758 47.5042 185.946 47.2275C187.151 46.9346 188.453 46.5846 189.853 46.1777C189.771 44.4199 189.413 43.1341 188.778 42.3203C188.16 41.4902 186.866 41.0752 184.896 41.0752C183.204 41.0752 181.926 41.3112 181.063 41.7832C180.217 42.2552 179.485 42.9632 178.866 43.9072C178.264 44.8512 177.833 45.4779 177.572 45.7871C177.328 46.0801 176.791 46.2266 175.961 46.2266C175.212 46.2266 174.561 45.9906 174.008 45.5186C173.471 45.0303 173.202 44.4118 173.202 43.6631C173.202 42.4912 173.617 41.3519 174.447 40.2451C175.277 39.1383 176.571 38.2269 178.329 37.5107C180.087 36.7946 182.276 36.4365 184.896 36.4365C187.826 36.4365 190.129 36.7865 191.806 37.4863C193.482 38.1699 194.662 39.2604 195.346 40.7578C196.046 42.2552 196.396 44.2409 196.396 46.7148C196.396 48.2773 196.387 49.6038 196.371 50.6943C196.371 51.7848 196.363 52.9974 196.347 54.332C196.347 55.5853 196.55 56.8955 196.957 58.2627C197.38 59.6136 197.592 60.4844 197.592 60.875C197.592 61.5586 197.266 62.1852 196.615 62.7549C195.98 63.3083 195.256 63.585 194.442 63.585C193.759 63.585 193.083 63.2676 192.416 62.6328C191.749 61.9818 191.041 61.0459 190.292 59.8252ZM189.853 50.1816C188.876 50.5397 187.452 50.9222 185.58 51.3291C183.725 51.7197 182.439 52.0127 181.723 52.208C181.007 52.387 180.323 52.7533 179.672 53.3066C179.021 53.8438 178.695 54.6006 178.695 55.5771C178.695 56.5863 179.078 57.4489 179.843 58.165C180.608 58.8649 181.609 59.2148 182.846 59.2148C184.164 59.2148 185.377 58.93 186.483 58.3604C187.606 57.7744 188.428 57.0257 188.949 56.1143C189.551 55.1051 189.853 53.445 189.853 51.1338V50.1816Z" fill="#25BAFF"/>
<g filter="url(#filter0_d_3479_5140)">
<path d="M9.20898 94H5.92773C5.4541 94 5.11475 93.895 4.90967 93.6851C4.70947 93.4702 4.60938 93.1309 4.60938 92.667V84.5957C4.60938 84.1221 4.71191 83.7827 4.91699 83.5776C5.12695 83.3677 5.46387 83.2627 5.92773 83.2627H9.40674C9.91943 83.2627 10.3638 83.2944 10.7397 83.3579C11.1157 83.4214 11.4526 83.5435 11.7505 83.7241C12.0044 83.8755 12.229 84.0684 12.4243 84.3027C12.6196 84.5322 12.7686 84.7886 12.8711 85.0718C12.9736 85.3501 13.0249 85.6455 13.0249 85.958C13.0249 87.0322 12.4878 87.8184 11.4136 88.3164C12.8247 88.7656 13.5303 89.6396 13.5303 90.9385C13.5303 91.5391 13.3765 92.0811 13.0688 92.5645C12.7612 93.043 12.3462 93.397 11.8237 93.6265C11.4966 93.7632 11.1206 93.8608 10.6958 93.9194C10.271 93.9731 9.77539 94 9.20898 94ZM9.04785 89.2319H6.78467V92.3667H9.12109C10.5908 92.3667 11.3257 91.8369 11.3257 90.7773C11.3257 90.2354 11.1353 89.8423 10.7544 89.5981C10.3735 89.354 9.80469 89.2319 9.04785 89.2319ZM6.78467 84.896V87.6719H8.77686C9.31885 87.6719 9.73633 87.6206 10.0293 87.5181C10.3271 87.4155 10.5542 87.2202 10.7104 86.9321C10.8325 86.7271 10.8936 86.4976 10.8936 86.2437C10.8936 85.7017 10.7007 85.3428 10.3149 85.167C9.9292 84.9863 9.34082 84.896 8.5498 84.896H6.78467ZM14.8633 89.5615V84.3979C14.8633 83.9585 14.9609 83.6289 15.1562 83.4092C15.3564 83.1895 15.6177 83.0796 15.9399 83.0796C16.2769 83.0796 16.543 83.1895 16.7383 83.4092C16.9385 83.6289 17.0386 83.9585 17.0386 84.3979V89.6787C17.0386 90.2793 17.1045 90.7822 17.2363 91.1875C17.373 91.5879 17.6123 91.9004 17.9541 92.125C18.2959 92.3447 18.7744 92.4546 19.3896 92.4546C20.2393 92.4546 20.8398 92.23 21.1914 91.7808C21.543 91.3267 21.7188 90.6406 21.7188 89.7227V84.3979C21.7188 83.9536 21.8164 83.624 22.0117 83.4092C22.207 83.1895 22.4683 83.0796 22.7954 83.0796C23.1226 83.0796 23.3862 83.1895 23.5864 83.4092C23.7915 83.624 23.894 83.9536 23.894 84.3979V89.5615C23.894 90.4014 23.811 91.1021 23.645 91.6636C23.4839 92.2251 23.1763 92.7183 22.7222 93.1431C22.3315 93.5044 21.8774 93.7681 21.3599 93.9341C20.8423 94.1001 20.2368 94.1831 19.5435 94.1831C18.7183 94.1831 18.0078 94.0952 17.4121 93.9194C16.8164 93.7388 16.3306 93.4629 15.9546 93.0918C15.5786 92.7158 15.3027 92.2373 15.127 91.6562C14.9512 91.0703 14.8633 90.3721 14.8633 89.5615ZM34.4043 90.7773C34.4043 91.4268 34.2358 92.0103 33.8989 92.5278C33.5669 93.0454 33.0786 93.4507 32.4341 93.7437C31.7896 94.0366 31.0254 94.1831 30.1416 94.1831C29.082 94.1831 28.208 93.9829 27.5195 93.5825C27.0312 93.2944 26.6333 92.9111 26.3257 92.4326C26.0229 91.9492 25.8716 91.4805 25.8716 91.0264C25.8716 90.7627 25.9619 90.5381 26.1426 90.3525C26.3281 90.1621 26.5625 90.0669 26.8457 90.0669C27.0752 90.0669 27.2681 90.1401 27.4243 90.2866C27.5854 90.4331 27.7222 90.6504 27.8345 90.9385C27.9712 91.2803 28.1177 91.5659 28.2739 91.7954C28.4351 92.0249 28.6597 92.2153 28.9478 92.3667C29.2358 92.5132 29.6143 92.5864 30.083 92.5864C30.7275 92.5864 31.25 92.4375 31.6504 92.1396C32.0557 91.8369 32.2583 91.4609 32.2583 91.0117C32.2583 90.6553 32.1484 90.3672 31.9287 90.1475C31.7139 89.9229 31.4331 89.752 31.0864 89.6348C30.7446 89.5176 30.2856 89.3931 29.7095 89.2612C28.938 89.0806 28.291 88.8706 27.7686 88.6313C27.251 88.3872 26.8384 88.0576 26.5308 87.6426C26.228 87.2227 26.0767 86.7026 26.0767 86.0825C26.0767 85.4917 26.2378 84.9668 26.5601 84.5078C26.8823 84.0488 27.3486 83.6973 27.959 83.4531C28.5693 83.2041 29.2871 83.0796 30.1123 83.0796C30.7715 83.0796 31.3403 83.1626 31.8188 83.3286C32.3022 83.4897 32.7026 83.707 33.02 83.9805C33.3374 84.249 33.5693 84.5322 33.7158 84.8301C33.8623 85.1279 33.9355 85.4185 33.9355 85.7017C33.9355 85.9604 33.8428 86.1948 33.6572 86.4048C33.4766 86.6099 33.2495 86.7124 32.9761 86.7124C32.7271 86.7124 32.5366 86.6514 32.4048 86.5293C32.2778 86.4023 32.1387 86.1973 31.9873 85.9141C31.792 85.5088 31.5576 85.1938 31.2842 84.9692C31.0107 84.7397 30.5713 84.625 29.9658 84.625C29.4043 84.625 28.9502 84.7495 28.6035 84.9985C28.2617 85.2427 28.0908 85.5381 28.0908 85.8848C28.0908 86.0996 28.1494 86.2852 28.2666 86.4414C28.3838 86.5977 28.5449 86.7319 28.75 86.8442C28.9551 86.9565 29.1626 87.0444 29.3726 87.1079C29.5825 87.1714 29.9292 87.2642 30.4126 87.3862C31.0181 87.5278 31.5649 87.6841 32.0532 87.855C32.5464 88.0259 32.9639 88.2334 33.3057 88.4775C33.6523 88.7217 33.9209 89.0317 34.1113 89.4077C34.3066 89.7788 34.4043 90.2354 34.4043 90.7773ZM36.3379 92.8574V84.3979C36.3379 83.9585 36.438 83.6289 36.6382 83.4092C36.8384 83.1895 37.0972 83.0796 37.4146 83.0796C37.7417 83.0796 38.0054 83.1895 38.2056 83.4092C38.4106 83.624 38.5132 83.9536 38.5132 84.3979V92.8574C38.5132 93.3018 38.4106 93.6338 38.2056 93.8535C38.0054 94.0732 37.7417 94.1831 37.4146 94.1831C37.1021 94.1831 36.8433 94.0732 36.6382 93.8535C36.438 93.6289 36.3379 93.2969 36.3379 92.8574ZM43.7866 84.3833L47.9688 90.7114V84.3247C47.9688 83.9097 48.0566 83.5996 48.2324 83.3945C48.4131 83.1846 48.6548 83.0796 48.9575 83.0796C49.27 83.0796 49.5166 83.1846 49.6973 83.3945C49.8779 83.5996 49.9683 83.9097 49.9683 84.3247V92.7695C49.9683 93.7119 49.5776 94.1831 48.7964 94.1831C48.6011 94.1831 48.4253 94.1538 48.269 94.0952C48.1128 94.0415 47.9663 93.9536 47.8296 93.8315C47.6929 93.7095 47.5659 93.5679 47.4487 93.4067C47.3315 93.2407 47.2144 93.0723 47.0972 92.9014L43.0176 86.6465V92.938C43.0176 93.3481 42.9224 93.6582 42.7319 93.8682C42.5415 94.0781 42.2974 94.1831 41.9995 94.1831C41.6919 94.1831 41.4453 94.0781 41.2598 93.8682C41.0742 93.6533 40.9814 93.3433 40.9814 92.938V84.6543C40.9814 84.3027 41.0205 84.0269 41.0986 83.8267C41.1914 83.6069 41.3452 83.4287 41.5601 83.292C41.7749 83.1504 42.0068 83.0796 42.2559 83.0796C42.4512 83.0796 42.6172 83.1113 42.7539 83.1748C42.8955 83.2383 43.0176 83.3237 43.1201 83.4312C43.2275 83.5386 43.335 83.6777 43.4424 83.8486C43.5547 84.0195 43.6694 84.1978 43.7866 84.3833ZM59.4238 84.9399H54.5239V87.5767H59.0356C59.3677 87.5767 59.6143 87.6523 59.7754 87.8037C59.9414 87.9502 60.0244 88.1455 60.0244 88.3896C60.0244 88.6338 59.9438 88.834 59.7827 88.9902C59.6216 89.1416 59.3726 89.2173 59.0356 89.2173H54.5239V92.2715H59.5923C59.9341 92.2715 60.1904 92.3521 60.3613 92.5132C60.5371 92.6694 60.625 92.8794 60.625 93.1431C60.625 93.397 60.5371 93.6045 60.3613 93.7656C60.1904 93.9219 59.9341 94 59.5923 94H53.6816C53.208 94 52.8662 93.895 52.6562 93.6851C52.4512 93.4751 52.3486 93.1357 52.3486 92.667V84.5957C52.3486 84.2832 52.395 84.0293 52.4878 83.834C52.5806 83.6338 52.7246 83.4897 52.9199 83.4019C53.1201 83.3091 53.374 83.2627 53.6816 83.2627H59.4238C59.7705 83.2627 60.0269 83.3408 60.1929 83.4971C60.3638 83.6484 60.4492 83.8486 60.4492 84.0977C60.4492 84.3516 60.3638 84.5566 60.1929 84.7129C60.0269 84.8643 59.7705 84.9399 59.4238 84.9399ZM70.5127 90.7773C70.5127 91.4268 70.3442 92.0103 70.0073 92.5278C69.6753 93.0454 69.187 93.4507 68.5425 93.7437C67.8979 94.0366 67.1338 94.1831 66.25 94.1831C65.1904 94.1831 64.3164 93.9829 63.6279 93.5825C63.1396 93.2944 62.7417 92.9111 62.4341 92.4326C62.1313 91.9492 61.98 91.4805 61.98 91.0264C61.98 90.7627 62.0703 90.5381 62.251 90.3525C62.4365 90.1621 62.6709 90.0669 62.9541 90.0669C63.1836 90.0669 63.3765 90.1401 63.5327 90.2866C63.6938 90.4331 63.8306 90.6504 63.9429 90.9385C64.0796 91.2803 64.2261 91.5659 64.3823 91.7954C64.5435 92.0249 64.7681 92.2153 65.0562 92.3667C65.3442 92.5132 65.7227 92.5864 66.1914 92.5864C66.8359 92.5864 67.3584 92.4375 67.7588 92.1396C68.1641 91.8369 68.3667 91.4609 68.3667 91.0117C68.3667 90.6553 68.2568 90.3672 68.0371 90.1475C67.8223 89.9229 67.5415 89.752 67.1948 89.6348C66.853 89.5176 66.394 89.3931 65.8179 89.2612C65.0464 89.0806 64.3994 88.8706 63.877 88.6313C63.3594 88.3872 62.9468 88.0576 62.6392 87.6426C62.3364 87.2227 62.1851 86.7026 62.1851 86.0825C62.1851 85.4917 62.3462 84.9668 62.6685 84.5078C62.9907 84.0488 63.457 83.6973 64.0674 83.4531C64.6777 83.2041 65.3955 83.0796 66.2207 83.0796C66.8799 83.0796 67.4487 83.1626 67.9272 83.3286C68.4106 83.4897 68.811 83.707 69.1284 83.9805C69.4458 84.249 69.6777 84.5322 69.8242 84.8301C69.9707 85.1279 70.0439 85.4185 70.0439 85.7017C70.0439 85.9604 69.9512 86.1948 69.7656 86.4048C69.585 86.6099 69.3579 86.7124 69.0845 86.7124C68.8354 86.7124 68.645 86.6514 68.5132 86.5293C68.3862 86.4023 68.2471 86.1973 68.0957 85.9141C67.9004 85.5088 67.666 85.1938 67.3926 84.9692C67.1191 84.7397 66.6797 84.625 66.0742 84.625C65.5127 84.625 65.0586 84.7495 64.7119 84.9985C64.3701 85.2427 64.1992 85.5381 64.1992 85.8848C64.1992 86.0996 64.2578 86.2852 64.375 86.4414C64.4922 86.5977 64.6533 86.7319 64.8584 86.8442C65.0635 86.9565 65.271 87.0444 65.481 87.1079C65.6909 87.1714 66.0376 87.2642 66.521 87.3862C67.1265 87.5278 67.6733 87.6841 68.1616 87.855C68.6548 88.0259 69.0723 88.2334 69.4141 88.4775C69.7607 88.7217 70.0293 89.0317 70.2197 89.4077C70.415 89.7788 70.5127 90.2354 70.5127 90.7773ZM80.5176 90.7773C80.5176 91.4268 80.3491 92.0103 80.0122 92.5278C79.6802 93.0454 79.1919 93.4507 78.5474 93.7437C77.9028 94.0366 77.1387 94.1831 76.2549 94.1831C75.1953 94.1831 74.3213 93.9829 73.6328 93.5825C73.1445 93.2944 72.7466 92.9111 72.439 92.4326C72.1362 91.9492 71.9849 91.4805 71.9849 91.0264C71.9849 90.7627 72.0752 90.5381 72.2559 90.3525C72.4414 90.1621 72.6758 90.0669 72.959 90.0669C73.1885 90.0669 73.3813 90.1401 73.5376 90.2866C73.6987 90.4331 73.8354 90.6504 73.9478 90.9385C74.0845 91.2803 74.231 91.5659 74.3872 91.7954C74.5483 92.0249 74.7729 92.2153 75.061 92.3667C75.3491 92.5132 75.7275 92.5864 76.1963 92.5864C76.8408 92.5864 77.3633 92.4375 77.7637 92.1396C78.1689 91.8369 78.3716 91.4609 78.3716 91.0117C78.3716 90.6553 78.2617 90.3672 78.042 90.1475C77.8271 89.9229 77.5464 89.752 77.1997 89.6348C76.8579 89.5176 76.3989 89.3931 75.8228 89.2612C75.0513 89.0806 74.4043 88.8706 73.8818 88.6313C73.3643 88.3872 72.9517 88.0576 72.644 87.6426C72.3413 87.2227 72.1899 86.7026 72.1899 86.0825C72.1899 85.4917 72.3511 84.9668 72.6733 84.5078C72.9956 84.0488 73.4619 83.6973 74.0723 83.4531C74.6826 83.2041 75.4004 83.0796 76.2256 83.0796C76.8848 83.0796 77.4536 83.1626 77.9321 83.3286C78.4155 83.4897 78.8159 83.707 79.1333 83.9805C79.4507 84.249 79.6826 84.5322 79.8291 84.8301C79.9756 85.1279 80.0488 85.4185 80.0488 85.7017C80.0488 85.9604 79.9561 86.1948 79.7705 86.4048C79.5898 86.6099 79.3628 86.7124 79.0894 86.7124C78.8403 86.7124 78.6499 86.6514 78.5181 86.5293C78.3911 86.4023 78.252 86.1973 78.1006 85.9141C77.9053 85.5088 77.6709 85.1938 77.3975 84.9692C77.124 84.7397 76.6846 84.625 76.0791 84.625C75.5176 84.625 75.0635 84.7495 74.7168 84.9985C74.375 85.2427 74.2041 85.5381 74.2041 85.8848C74.2041 86.0996 74.2627 86.2852 74.3799 86.4414C74.4971 86.5977 74.6582 86.7319 74.8633 86.8442C75.0684 86.9565 75.2759 87.0444 75.4858 87.1079C75.6958 87.1714 76.0425 87.2642 76.5259 87.3862C77.1313 87.5278 77.6782 87.6841 78.1665 87.855C78.6597 88.0259 79.0771 88.2334 79.4189 88.4775C79.7656 88.7217 80.0342 89.0317 80.2246 89.4077C80.4199 89.7788 80.5176 90.2354 80.5176 90.7773ZM83.1982 94.1978C82.876 94.1978 82.5977 94.1001 82.3633 93.9048C82.1289 93.7046 82.0117 93.4263 82.0117 93.0698C82.0117 92.7622 82.1265 92.5034 82.356 92.2935C82.5854 92.0835 82.8564 91.9785 83.1689 91.9785C83.4033 91.9785 83.6157 92.042 83.8062 92.1689C83.9966 92.2959 84.1455 92.4839 84.2529 92.7329C84.3604 92.9771 84.4141 93.2798 84.4141 93.6411C84.4141 94.1245 84.3115 94.5762 84.1064 94.9961C83.9014 95.4209 83.6499 95.7554 83.3521 95.9995C83.0591 96.2485 82.793 96.373 82.5537 96.373C82.4023 96.373 82.2778 96.3218 82.1802 96.2192C82.0874 96.1216 82.041 96.0068 82.041 95.875C82.041 95.6748 82.1411 95.5137 82.3413 95.3916C82.9126 95.0742 83.1982 94.6763 83.1982 94.1978ZM162.681 84.3979V90.0229C162.681 90.5112 162.659 90.9263 162.615 91.2681C162.576 91.6099 162.483 91.9565 162.336 92.3081C162.092 92.8989 161.689 93.3604 161.128 93.6924C160.566 94.0195 159.883 94.1831 159.077 94.1831C158.35 94.1831 157.742 94.0684 157.253 93.8389C156.77 93.6094 156.379 93.2383 156.082 92.7256C155.925 92.4521 155.798 92.1372 155.701 91.7808C155.603 91.4243 155.554 91.085 155.554 90.7627C155.554 90.4209 155.649 90.1597 155.84 89.979C156.03 89.7983 156.274 89.708 156.572 89.708C156.86 89.708 157.078 89.791 157.224 89.957C157.371 90.123 157.483 90.3818 157.561 90.7334C157.644 91.1094 157.727 91.4097 157.81 91.6343C157.893 91.8589 158.032 92.0518 158.228 92.2129C158.423 92.374 158.701 92.4546 159.062 92.4546C160.024 92.4546 160.505 91.749 160.505 90.3379V84.3979C160.505 83.9585 160.601 83.6289 160.791 83.4092C160.986 83.1895 161.25 83.0796 161.582 83.0796C161.919 83.0796 162.185 83.1895 162.38 83.4092C162.581 83.6289 162.681 83.9585 162.681 84.3979ZM169.763 83.0796C170.876 83.0796 171.831 83.3066 172.627 83.7607C173.428 84.21 174.033 84.8521 174.443 85.687C174.854 86.5171 175.059 87.4937 175.059 88.6167C175.059 89.4468 174.946 90.2012 174.722 90.8799C174.497 91.5586 174.16 92.147 173.711 92.645C173.262 93.1431 172.71 93.5239 172.056 93.7876C171.401 94.0513 170.652 94.1831 169.807 94.1831C168.967 94.1831 168.215 94.0488 167.551 93.7803C166.887 93.5068 166.333 93.1235 165.889 92.6304C165.444 92.1372 165.107 91.5439 164.878 90.8506C164.653 90.1572 164.541 89.4077 164.541 88.6021C164.541 87.7769 164.658 87.02 164.893 86.3315C165.132 85.6431 165.476 85.0571 165.925 84.5737C166.375 84.0903 166.921 83.7217 167.566 83.4678C168.21 83.209 168.943 83.0796 169.763 83.0796ZM172.854 88.6021C172.854 87.8159 172.727 87.1348 172.473 86.5586C172.219 85.9824 171.855 85.5479 171.382 85.2549C170.913 84.957 170.374 84.8081 169.763 84.8081C169.329 84.8081 168.926 84.8911 168.555 85.0571C168.188 85.2183 167.871 85.4551 167.603 85.7676C167.339 86.0801 167.129 86.4805 166.973 86.9688C166.821 87.4521 166.746 87.9966 166.746 88.6021C166.746 89.2124 166.821 89.7642 166.973 90.2573C167.129 90.7505 167.346 91.1606 167.625 91.4878C167.908 91.8101 168.23 92.0518 168.591 92.2129C168.958 92.374 169.358 92.4546 169.792 92.4546C170.349 92.4546 170.859 92.3154 171.323 92.0371C171.792 91.7588 172.163 91.3291 172.437 90.748C172.715 90.167 172.854 89.4517 172.854 88.6021ZM181.504 94H178.223C177.749 94 177.41 93.895 177.205 93.6851C177.004 93.4702 176.904 93.1309 176.904 92.667V84.5957C176.904 84.1221 177.007 83.7827 177.212 83.5776C177.422 83.3677 177.759 83.2627 178.223 83.2627H181.702C182.214 83.2627 182.659 83.2944 183.035 83.3579C183.411 83.4214 183.748 83.5435 184.045 83.7241C184.299 83.8755 184.524 84.0684 184.719 84.3027C184.915 84.5322 185.063 84.7886 185.166 85.0718C185.269 85.3501 185.32 85.6455 185.32 85.958C185.32 87.0322 184.783 87.8184 183.708 88.3164C185.12 88.7656 185.825 89.6396 185.825 90.9385C185.825 91.5391 185.671 92.0811 185.364 92.5645C185.056 93.043 184.641 93.397 184.119 93.6265C183.792 93.7632 183.416 93.8608 182.991 93.9194C182.566 93.9731 182.07 94 181.504 94ZM181.343 89.2319H179.08V92.3667H181.416C182.886 92.3667 183.621 91.8369 183.621 90.7773C183.621 90.2354 183.43 89.8423 183.049 89.5981C182.668 89.354 182.1 89.2319 181.343 89.2319ZM179.08 84.896V87.6719H181.072C181.614 87.6719 182.031 87.6206 182.324 87.5181C182.622 87.4155 182.849 87.2202 183.005 86.9321C183.127 86.7271 183.188 86.4976 183.188 86.2437C183.188 85.7017 182.996 85.3428 182.61 85.167C182.224 84.9863 181.636 84.896 180.845 84.896H179.08ZM195.874 90.7773C195.874 91.4268 195.706 92.0103 195.369 92.5278C195.037 93.0454 194.548 93.4507 193.904 93.7437C193.259 94.0366 192.495 94.1831 191.611 94.1831C190.552 94.1831 189.678 93.9829 188.989 93.5825C188.501 93.2944 188.103 92.9111 187.795 92.4326C187.493 91.9492 187.341 91.4805 187.341 91.0264C187.341 90.7627 187.432 90.5381 187.612 90.3525C187.798 90.1621 188.032 90.0669 188.315 90.0669C188.545 90.0669 188.738 90.1401 188.894 90.2866C189.055 90.4331 189.192 90.6504 189.304 90.9385C189.441 91.2803 189.587 91.5659 189.744 91.7954C189.905 92.0249 190.129 92.2153 190.417 92.3667C190.706 92.5132 191.084 92.5864 191.553 92.5864C192.197 92.5864 192.72 92.4375 193.12 92.1396C193.525 91.8369 193.728 91.4609 193.728 91.0117C193.728 90.6553 193.618 90.3672 193.398 90.1475C193.184 89.9229 192.903 89.752 192.556 89.6348C192.214 89.5176 191.755 89.3931 191.179 89.2612C190.408 89.0806 189.761 88.8706 189.238 88.6313C188.721 88.3872 188.308 88.0576 188 87.6426C187.698 87.2227 187.546 86.7026 187.546 86.0825C187.546 85.4917 187.708 84.9668 188.03 84.5078C188.352 84.0488 188.818 83.6973 189.429 83.4531C190.039 83.2041 190.757 83.0796 191.582 83.0796C192.241 83.0796 192.81 83.1626 193.289 83.3286C193.772 83.4897 194.172 83.707 194.49 83.9805C194.807 84.249 195.039 84.5322 195.186 84.8301C195.332 85.1279 195.405 85.4185 195.405 85.7017C195.405 85.9604 195.312 86.1948 195.127 86.4048C194.946 86.6099 194.719 86.7124 194.446 86.7124C194.197 86.7124 194.006 86.6514 193.875 86.5293C193.748 86.4023 193.608 86.1973 193.457 85.9141C193.262 85.5088 193.027 85.1938 192.754 84.9692C192.48 84.7397 192.041 84.625 191.436 84.625C190.874 84.625 190.42 84.7495 190.073 84.9985C189.731 85.2427 189.561 85.5381 189.561 85.8848C189.561 86.0996 189.619 86.2852 189.736 86.4414C189.854 86.5977 190.015 86.7319 190.22 86.8442C190.425 86.9565 190.632 87.0444 190.842 87.1079C191.052 87.1714 191.399 87.2642 191.882 87.3862C192.488 87.5278 193.035 87.6841 193.523 87.855C194.016 88.0259 194.434 88.2334 194.775 88.4775C195.122 88.7217 195.391 89.0317 195.581 89.4077C195.776 89.7788 195.874 90.2354 195.874 90.7773Z" fill="#545454"/>
<path d="M98.5938 90.7773C98.5938 91.4268 98.4253 92.0103 98.0884 92.5278C97.7563 93.0454 97.2681 93.4507 96.6235 93.7437C95.979 94.0366 95.2148 94.1831 94.3311 94.1831C93.2715 94.1831 92.3975 93.9829 91.709 93.5825C91.2207 93.2944 90.8228 92.9111 90.5151 92.4326C90.2124 91.9492 90.061 91.4805 90.061 91.0264C90.061 90.7627 90.1514 90.5381 90.332 90.3525C90.5176 90.1621 90.752 90.0669 91.0352 90.0669C91.2646 90.0669 91.4575 90.1401 91.6138 90.2866C91.7749 90.4331 91.9116 90.6504 92.0239 90.9385C92.1606 91.2803 92.3071 91.5659 92.4634 91.7954C92.6245 92.0249 92.8491 92.2153 93.1372 92.3667C93.4253 92.5132 93.8037 92.5864 94.2725 92.5864C94.917 92.5864 95.4395 92.4375 95.8398 92.1396C96.2451 91.8369 96.4478 91.4609 96.4478 91.0117C96.4478 90.6553 96.3379 90.3672 96.1182 90.1475C95.9033 89.9229 95.6226 89.752 95.2759 89.6348C94.9341 89.5176 94.4751 89.3931 93.8989 89.2612C93.1274 89.0806 92.4805 88.8706 91.958 88.6313C91.4404 88.3872 91.0278 88.0576 90.7202 87.6426C90.4175 87.2227 90.2661 86.7026 90.2661 86.0825C90.2661 85.4917 90.4272 84.9668 90.7495 84.5078C91.0718 84.0488 91.5381 83.6973 92.1484 83.4531C92.7588 83.2041 93.4766 83.0796 94.3018 83.0796C94.9609 83.0796 95.5298 83.1626 96.0083 83.3286C96.4917 83.4897 96.8921 83.707 97.2095 83.9805C97.5269 84.249 97.7588 84.5322 97.9053 84.8301C98.0518 85.1279 98.125 85.4185 98.125 85.7017C98.125 85.9604 98.0322 86.1948 97.8467 86.4048C97.666 86.6099 97.439 86.7124 97.1655 86.7124C96.9165 86.7124 96.7261 86.6514 96.5942 86.5293C96.4673 86.4023 96.3281 86.1973 96.1768 85.9141C95.9814 85.5088 95.7471 85.1938 95.4736 84.9692C95.2002 84.7397 94.7607 84.625 94.1553 84.625C93.5938 84.625 93.1396 84.7495 92.793 84.9985C92.4512 85.2427 92.2803 85.5381 92.2803 85.8848C92.2803 86.0996 92.3389 86.2852 92.4561 86.4414C92.5732 86.5977 92.7344 86.7319 92.9395 86.8442C93.1445 86.9565 93.3521 87.0444 93.562 87.1079C93.772 87.1714 94.1187 87.2642 94.6021 87.3862C95.2075 87.5278 95.7544 87.6841 96.2427 87.855C96.7358 88.0259 97.1533 88.2334 97.4951 88.4775C97.8418 88.7217 98.1104 89.0317 98.3008 89.4077C98.4961 89.7788 98.5938 90.2354 98.5938 90.7773ZM105.164 83.0796C106.277 83.0796 107.231 83.3066 108.027 83.7607C108.828 84.21 109.434 84.8521 109.844 85.687C110.254 86.5171 110.459 87.4937 110.459 88.6167C110.459 89.4468 110.347 90.2012 110.122 90.8799C109.897 91.5586 109.561 92.147 109.111 92.645C108.662 93.1431 108.11 93.5239 107.456 93.7876C106.802 94.0513 106.052 94.1831 105.208 94.1831C104.368 94.1831 103.616 94.0488 102.952 93.7803C102.288 93.5068 101.733 93.1235 101.289 92.6304C100.845 92.1372 100.508 91.5439 100.278 90.8506C100.054 90.1572 99.9414 89.4077 99.9414 88.6021C99.9414 87.7769 100.059 87.02 100.293 86.3315C100.532 85.6431 100.876 85.0571 101.326 84.5737C101.775 84.0903 102.322 83.7217 102.966 83.4678C103.611 83.209 104.343 83.0796 105.164 83.0796ZM108.254 88.6021C108.254 87.8159 108.127 87.1348 107.874 86.5586C107.62 85.9824 107.256 85.5479 106.782 85.2549C106.313 84.957 105.774 84.8081 105.164 84.8081C104.729 84.8081 104.326 84.8911 103.955 85.0571C103.589 85.2183 103.271 85.4551 103.003 85.7676C102.739 86.0801 102.529 86.4805 102.373 86.9688C102.222 87.4521 102.146 87.9966 102.146 88.6021C102.146 89.2124 102.222 89.7642 102.373 90.2573C102.529 90.7505 102.747 91.1606 103.025 91.4878C103.308 91.8101 103.63 92.0518 103.992 92.2129C104.358 92.374 104.758 92.4546 105.193 92.4546C105.75 92.4546 106.26 92.3154 106.724 92.0371C107.192 91.7588 107.563 91.3291 107.837 90.748C108.115 90.167 108.254 89.4517 108.254 88.6021ZM121.467 90.6089C121.467 90.9507 121.382 91.3218 121.211 91.7222C121.045 92.1177 120.781 92.5083 120.42 92.894C120.059 93.2749 119.597 93.585 119.036 93.8242C118.474 94.0635 117.82 94.1831 117.073 94.1831C116.506 94.1831 115.991 94.1294 115.527 94.022C115.063 93.9146 114.641 93.7485 114.26 93.5239C113.884 93.2944 113.538 92.9941 113.22 92.623C112.937 92.2861 112.695 91.9102 112.495 91.4951C112.295 91.0752 112.144 90.6284 112.041 90.1548C111.943 89.6812 111.895 89.1782 111.895 88.646C111.895 87.7817 112.019 87.0078 112.268 86.3242C112.522 85.6406 112.883 85.0571 113.352 84.5737C113.821 84.0854 114.37 83.7144 115 83.4604C115.63 83.2065 116.301 83.0796 117.014 83.0796C117.883 83.0796 118.657 83.2529 119.336 83.5996C120.015 83.9463 120.535 84.376 120.896 84.8887C121.257 85.3965 121.438 85.8774 121.438 86.3315C121.438 86.5806 121.35 86.8003 121.174 86.9907C120.999 87.1812 120.786 87.2764 120.537 87.2764C120.259 87.2764 120.049 87.2104 119.907 87.0786C119.771 86.9468 119.617 86.7197 119.446 86.3975C119.163 85.8652 118.828 85.4673 118.442 85.2036C118.062 84.9399 117.59 84.8081 117.029 84.8081C116.135 84.8081 115.422 85.1475 114.89 85.8262C114.363 86.5049 114.099 87.4692 114.099 88.7192C114.099 89.5542 114.216 90.25 114.451 90.8066C114.685 91.3584 115.017 91.771 115.447 92.0444C115.876 92.3179 116.379 92.4546 116.956 92.4546C117.581 92.4546 118.108 92.3008 118.538 91.9932C118.972 91.6807 119.299 91.2241 119.519 90.6235C119.612 90.3403 119.727 90.1108 119.863 89.9351C120 89.7544 120.22 89.6641 120.522 89.6641C120.781 89.6641 121.003 89.7544 121.189 89.9351C121.375 90.1157 121.467 90.3403 121.467 90.6089ZM123.511 92.8574V84.3979C123.511 83.9585 123.611 83.6289 123.811 83.4092C124.011 83.1895 124.27 83.0796 124.587 83.0796C124.915 83.0796 125.178 83.1895 125.378 83.4092C125.583 83.624 125.686 83.9536 125.686 84.3979V92.8574C125.686 93.3018 125.583 93.6338 125.378 93.8535C125.178 94.0732 124.915 94.1831 124.587 94.1831C124.275 94.1831 124.016 94.0732 123.811 93.8535C123.611 93.6289 123.511 93.2969 123.511 92.8574ZM134.995 92.7842L134.482 91.4365H130.117L129.604 92.8135C129.404 93.3506 129.233 93.7144 129.092 93.9048C128.95 94.0903 128.718 94.1831 128.396 94.1831C128.123 94.1831 127.881 94.083 127.671 93.8828C127.461 93.6826 127.356 93.4556 127.356 93.2017C127.356 93.0552 127.38 92.9038 127.429 92.7476C127.478 92.5913 127.559 92.374 127.671 92.0957L130.417 85.123C130.496 84.9229 130.588 84.6836 130.696 84.4053C130.808 84.1221 130.925 83.8877 131.047 83.7021C131.174 83.5166 131.338 83.3677 131.538 83.2554C131.743 83.1382 131.995 83.0796 132.292 83.0796C132.595 83.0796 132.847 83.1382 133.047 83.2554C133.252 83.3677 133.416 83.5142 133.538 83.6948C133.665 83.8755 133.77 84.0708 133.853 84.2808C133.94 84.4858 134.05 84.7617 134.182 85.1084L136.987 92.0371C137.207 92.5645 137.317 92.9478 137.317 93.187C137.317 93.436 137.212 93.6655 137.002 93.8755C136.797 94.0806 136.548 94.1831 136.255 94.1831C136.084 94.1831 135.938 94.1514 135.815 94.0879C135.693 94.0293 135.591 93.9487 135.508 93.8462C135.425 93.7388 135.334 93.5776 135.237 93.3628C135.144 93.1431 135.063 92.9502 134.995 92.7842ZM130.688 89.8032H133.896L132.278 85.3721L130.688 89.8032ZM141.052 84.3979V92.2129H145.461C145.813 92.2129 146.082 92.2983 146.267 92.4692C146.458 92.6401 146.553 92.855 146.553 93.1138C146.553 93.3774 146.46 93.5923 146.274 93.7583C146.089 93.9194 145.818 94 145.461 94H140.21C139.736 94 139.395 93.895 139.185 93.6851C138.979 93.4751 138.877 93.1357 138.877 92.667V84.3979C138.877 83.9585 138.975 83.6289 139.17 83.4092C139.37 83.1895 139.631 83.0796 139.954 83.0796C140.281 83.0796 140.544 83.1895 140.745 83.4092C140.95 83.624 141.052 83.9536 141.052 84.3979ZM149.204 94.1978C148.882 94.1978 148.604 94.1001 148.369 93.9048C148.135 93.7046 148.018 93.4263 148.018 93.0698C148.018 92.7622 148.132 92.5034 148.362 92.2935C148.591 92.0835 148.862 91.9785 149.175 91.9785C149.409 91.9785 149.622 92.042 149.812 92.1689C150.002 92.2959 150.151 92.4839 150.259 92.7329C150.366 92.9771 150.42 93.2798 150.42 93.6411C150.42 94.1245 150.317 94.5762 150.112 94.9961C149.907 95.4209 149.656 95.7554 149.358 95.9995C149.065 96.2485 148.799 96.373 148.56 96.373C148.408 96.373 148.284 96.3218 148.186 96.2192C148.093 96.1216 148.047 96.0068 148.047 95.875C148.047 95.6748 148.147 95.5137 148.347 95.3916C148.918 95.0742 149.204 94.6763 149.204 94.1978Z" fill="#25BAFF"/>
</g>
<path d="M101.733 47.3051L89.0125 50.159C89.3597 51.6324 89.9457 52.8687 90.7703 53.868C91.6109 54.8638 92.5718 55.5406 93.6529 55.8986C94.75 56.253 95.8781 56.3001 97.0375 56.04C97.8156 55.8654 98.5028 55.6195 99.0988 55.3023C99.7072 54.9657 100.27 54.5391 100.788 54.0225C101.303 53.4901 101.764 52.9445 102.173 52.3859C102.581 51.8272 103.105 51.0758 103.744 50.1318C104.013 49.7711 104.457 49.5213 105.077 49.3823C105.744 49.2327 106.325 49.2942 106.82 49.5668C107.314 49.8395 107.637 50.3093 107.786 50.9763C107.918 51.5639 107.843 52.3064 107.56 53.2038C107.275 54.0853 106.745 54.9964 105.972 55.9372C105.211 56.8585 104.177 57.7159 102.871 58.5095C101.58 59.2994 100.022 59.8993 98.1954 60.309C94.0186 61.2461 90.5037 60.7836 87.6506 58.9216C84.7974 57.0596 82.9131 54.0879 81.9974 50.0064C81.5663 48.0847 81.4531 46.2419 81.6578 44.4779C81.859 42.6979 82.3757 41.0975 83.2078 39.6764C84.04 38.2553 85.1886 37.0552 86.6536 36.076C88.1151 35.0809 89.8225 34.3642 91.7759 33.9259C94.3169 33.3559 96.6138 33.4077 98.6666 34.0815C100.732 34.7358 102.407 35.811 103.694 37.3072C104.98 38.8034 105.821 40.433 106.217 42.1958C106.584 43.8316 106.354 45.0007 105.527 45.7032C104.697 46.3899 103.433 46.9238 101.733 47.3051ZM88.1841 46.4666L99.9759 43.8211C99.3183 41.6334 98.3425 40.1092 97.0485 39.2485C95.7668 38.3684 94.2763 38.119 92.577 38.5002C90.9571 38.8636 89.7496 39.7267 88.9544 41.0894C88.1715 42.4327 87.9147 44.2251 88.1841 46.4666Z" fill="#000080"/>
<path d="M89 65.9814L112 61.2966" stroke="#000080" stroke-width="3" stroke-linecap="round"/>
<defs>
<filter id="filter0_d_3479_5140" x="0.609375" y="83.0801" width="199.266" height="21.293" filterUnits="userSpaceOnUse" color-interpolation-filters="sRGB">
<feFlood flood-opacity="0" result="BackgroundImageFix"/>
<feColorMatrix in="SourceAlpha" type="matrix" values="0 0 0 0 0 0 0 0 0 0 0 0 0 0 0 0 0 0 127 0" result="hardAlpha"/>
<feOffset dy="4"/>
<feGaussianBlur stdDeviation="2"/>
<feComposite in2="hardAlpha" operator="out"/>
<feColorMatrix type="matrix" values="0 0 0 0 0 0 0 0 0 0 0 0 0 0 0 0 0 0 0.1 0"/>
<feBlend mode="normal" in2="BackgroundImageFix" result="effect1_dropShadow_3479_5140"/>
<feBlend mode="normal" in="SourceGraphic" in2="effect1_dropShadow_3479_5140" result="shape"/>
</filter>
</defs>
</svg>
