<svg width="17" height="17" viewBox="0 0 17 17" fill="none" xmlns="http://www.w3.org/2000/svg">
<path d="M4.06456 4.62734L4.49656 6.46734L4.06456 8.29934L5.67256 9.29134L6.65656 10.8993L8.49656 10.4673L10.3366 10.8993L11.3206 9.29134L12.9286 8.29934L12.4966 6.46734L12.9286 4.62734L11.3286 3.63534L10.3366 2.02734L8.49656 2.46734L6.66456 2.03534L5.66456 3.63534L4.06456 4.62734ZM8.50456 9.69934C7.65587 9.69934 6.84194 9.3622 6.24182 8.76209C5.6417 8.16197 5.30456 7.34804 5.30456 6.49934C5.30456 5.65065 5.6417 4.83672 6.24182 4.2366C6.84194 3.63649 7.65587 3.29934 8.50456 3.29934C10.2646 3.29934 11.6966 4.73134 11.6966 6.49134C11.6966 8.26734 10.2646 9.69934 8.50456 9.69934ZM8.48856 8.89934C7.16056 8.89934 6.09656 7.82734 6.09656 6.49934C6.09656 5.17934 7.16056 4.09934 8.48856 4.09934C9.81656 4.09934 10.8966 5.17934 10.8966 6.49934C10.8966 7.82734 9.81656 8.89934 8.48856 8.89934ZM11.5606 9.77934L10.5366 11.5713L8.87256 11.1953L10.8966 15.8593L12.0166 14.0993H14.0166L11.5606 9.77934ZM5.40056 9.83534L6.40056 11.6353L8.10456 11.2273L6.09656 15.8593L4.97656 14.0993H2.97656L5.40056 9.83534Z" fill="#25BAFF"/>
</svg>
