<svg width="21" height="21" viewBox="0 0 21 21" fill="none" xmlns="http://www.w3.org/2000/svg">
<mask id="mask0_416_7445" style="mask-type:luminance" maskUnits="userSpaceOnUse" x="0" y="0" width="21" height="21">
<path d="M0.5 0.777346H20.5V20.7773H0.5V0.777346Z" fill="white"/>
</mask>
<g mask="url(#mask0_416_7445)">
<path d="M18 6.15234H4V14.0673C4 15.0117 4.76561 15.7773 5.71006 15.7773H16.2899C17.2344 15.7773 18 15.0117 18 14.0673V6.15234Z" stroke="#161F28" stroke-width="1.17187" stroke-miterlimit="10" stroke-linecap="round" stroke-linejoin="round"/>
<path d="M13.625 6.15234H8.375V4.85087C8.375 4.1199 8.96756 3.52734 9.69852 3.52734H12.3015C13.0324 3.52734 13.625 4.1199 13.625 4.85087V6.15234Z" stroke="#161F28" stroke-width="1.17187" stroke-miterlimit="10" stroke-linecap="round" stroke-linejoin="round"/>
<path d="M4 6.1516C4 8.68525 6.39278 10.7995 9.57589 11.293" stroke="#161F28" stroke-width="1.17187" stroke-miterlimit="10" stroke-linecap="round" stroke-linejoin="round"/>
<path d="M12.4241 11.293C15.6072 10.7995 18 8.68525 18 6.1516" stroke="#161F28" stroke-width="1.17187" stroke-miterlimit="10" stroke-linecap="round" stroke-linejoin="round"/>
<path d="M12.4241 9.97991V11.404C12.4241 12.1906 11.7866 12.8281 11 12.8281C10.2135 12.8281 9.57593 12.1906 9.57593 11.404V9.97991H12.4241Z" stroke="#161F28" stroke-width="1.17187" stroke-miterlimit="10" stroke-linecap="round" stroke-linejoin="round"/>
</g>
</svg>
