<svg width="25" height="25" viewBox="0 0 25 25" fill="none" xmlns="http://www.w3.org/2000/svg">
<g clip-path="url(#clip0_416_7482)">
<path d="M19.702 13.3065L19.6931 13.3124C19.6673 13.2884 19.6378 13.2687 19.6058 13.254L17.1406 12.0141V10.0586H18.0541C18.1059 10.0582 18.1566 10.0436 18.2007 10.0164C18.2447 9.98925 18.2805 9.9505 18.3041 9.90439C18.3277 9.85828 18.3382 9.80659 18.3345 9.75493C18.3308 9.70327 18.3129 9.65362 18.2829 9.61139L16.3252 6.87024C16.2992 6.8338 16.2649 6.80409 16.2251 6.78359C16.1853 6.76308 16.1412 6.75237 16.0965 6.75235C16.0517 6.75232 16.0076 6.76297 15.9678 6.78343C15.928 6.80389 15.8936 6.83355 15.8676 6.86996L13.9099 9.6106C13.8798 9.65286 13.8619 9.70257 13.8582 9.7543C13.8544 9.80603 13.8648 9.85781 13.8884 9.90401C13.912 9.9502 13.9479 9.98904 13.992 10.0163C14.0361 10.0435 14.0869 10.0582 14.1388 10.0586H15.0312V10.9391L13.25 10.0367V5.60546H14.1388C14.1905 5.60526 14.2412 5.59086 14.2853 5.56381C14.3294 5.53676 14.3652 5.4981 14.3888 5.45207C14.4124 5.40604 14.423 5.35441 14.4192 5.30281C14.4155 5.25121 14.3976 5.20163 14.3676 5.15949L12.41 2.41856C12.3839 2.38213 12.3496 2.35244 12.3098 2.33195C12.27 2.31147 12.2259 2.30078 12.1811 2.30078C12.1363 2.30078 12.0922 2.31147 12.0524 2.33195C12.0126 2.35244 11.9782 2.38213 11.9522 2.41856L9.99459 5.15911C9.96454 5.20127 9.94665 5.25088 9.94289 5.30251C9.93913 5.35414 9.94963 5.40582 9.97325 5.45189C9.99687 5.49796 10.0327 5.53665 10.0768 5.56373C10.1209 5.59081 10.1717 5.60525 10.2234 5.60546H11.0937V10.0367L9.69885 10.747L8.48887 9.045C8.46331 9.00862 8.42937 8.97892 8.38991 8.95842C8.35045 8.93792 8.30664 8.92722 8.26218 8.92722C8.21771 8.92722 8.1739 8.93792 8.13445 8.95842C8.09499 8.97892 8.06105 9.00862 8.03549 9.045L6.07855 11.7857C6.04858 11.8263 6.03072 11.8746 6.02703 11.9249C6.02334 11.9752 6.03397 12.0256 6.0577 12.0701C6.08184 12.1151 6.11807 12.1525 6.1623 12.1781C6.20654 12.2037 6.25703 12.2164 6.3081 12.2148H6.77305L4.74632 13.2461C4.71643 13.2627 4.68968 13.2845 4.66729 13.3103L4.65871 13.3067L2.59152 16.5036C2.56924 16.5381 2.55475 16.5771 2.54908 16.6178C2.54342 16.6585 2.5467 16.6999 2.55871 16.7392C2.57186 16.7787 2.59334 16.815 2.62171 16.8454C2.65008 16.8759 2.68468 16.9 2.72315 16.9159L4.62496 17.7226V20.2745C4.62386 20.3238 4.63596 20.3725 4.66001 20.4155C4.68406 20.4585 4.71919 20.4943 4.76174 20.5192L12.0453 24.6532C12.0872 24.6772 12.1347 24.6898 12.183 24.6898C12.2313 24.6898 12.2788 24.6772 12.3208 24.6532L19.6151 20.5192C19.6593 20.495 19.6965 20.4598 19.7229 20.4168C19.7493 20.3739 19.764 20.3249 19.7656 20.2745V17.7414L21.6965 16.9161C21.7339 16.8998 21.7672 16.8754 21.794 16.8447C21.8209 16.8139 21.8405 16.7776 21.8515 16.7383C21.863 16.6986 21.8657 16.6569 21.8594 16.6162C21.853 16.5754 21.8378 16.5365 21.8148 16.5022L19.702 13.3065ZM18.8071 13.4859L17.1406 14.2097V12.6441L18.8071 13.4859ZM14.6853 9.49608L16.0962 7.52049L17.5075 9.49608H16.8794C16.7241 9.49608 16.578 9.61871 16.578 9.774V14.454L15.5937 14.8899V9.774C15.5937 9.73729 15.5865 9.70094 15.5723 9.66705C15.5582 9.63316 15.5376 9.60241 15.5115 9.57656C15.4854 9.55072 15.4545 9.5303 15.4205 9.51648C15.3865 9.50267 15.3501 9.49573 15.3134 9.49608H14.6853ZM15.0312 11.5692V15.1342L13.25 15.9102V10.6669L15.0312 11.5692ZM10.7699 5.04296L12.1812 3.06736L13.5921 5.04296H12.964C12.9274 5.04288 12.8912 5.05008 12.8574 5.06414C12.8236 5.0782 12.793 5.09883 12.7672 5.12485C12.7415 5.15086 12.7212 5.18174 12.7075 5.21567C12.6938 5.24961 12.687 5.28593 12.6875 5.32252V16.1544L12.1718 16.3724L11.6562 16.1544V5.32252C11.6562 5.16722 11.5534 5.04296 11.398 5.04296H10.7699ZM11.0937 10.6669V15.9102L9.31246 15.1342V12.2148H10.2234C10.2745 12.2166 10.3251 12.204 10.3693 12.1784C10.4135 12.1528 10.4497 12.1152 10.4736 12.07C10.4974 12.0248 10.5081 11.9738 10.5043 11.9229C10.5006 11.8719 10.4825 11.823 10.4523 11.7818L10.0296 11.2082L11.0937 10.6669ZM8.26579 9.67674L9.67691 11.6523H9.04879C8.97078 11.6552 8.89671 11.6873 8.84133 11.7423C8.78595 11.7973 8.75333 11.8712 8.74996 11.9492V14.8898L7.76559 14.4539V11.9492C7.76579 11.8728 7.73648 11.7993 7.68378 11.744C7.63108 11.6886 7.55906 11.6558 7.48274 11.6523H6.85462L8.26579 9.67674ZM7.20309 12.6443V14.2099L5.53659 13.4861L7.20309 12.6443ZM4.97479 13.8559L11.7492 16.7981L10.0095 19.4076L3.24543 16.5295L4.97479 13.8559ZM5.18746 17.9622L10.0096 20.0166C10.0434 20.0314 10.0799 20.0391 10.1168 20.0391C10.1623 20.039 10.207 20.0275 10.2469 20.0056C10.2867 19.9837 10.3204 19.9522 10.3449 19.9138L11.8906 17.5861V23.9257L5.18746 20.1107V17.9622ZM19.2031 20.1107L12.4531 23.9257V17.5211L14.053 19.914C14.0791 19.9526 14.1144 19.9842 14.1556 20.0061C14.1968 20.0279 14.2428 20.0393 14.2894 20.0393C14.3304 20.0393 14.3709 20.0317 14.4091 20.0168L19.2031 17.9807V20.1107ZM14.3962 19.4076L12.6467 16.7835L19.39 13.8548L21.1572 16.5306L14.3962 19.4076Z" fill="#2399F5"/>
<path d="M19.1272 0.871113H19.1252C18.2426 0.870858 17.3959 1.22125 16.7716 1.84522C16.1473 2.46918 15.7964 3.3156 15.7961 4.19828C15.7959 5.08095 16.1463 5.92757 16.7702 6.5519C17.3942 7.17622 18.2406 7.52711 19.1233 7.52736H19.1253C19.7835 7.52702 20.4269 7.33162 20.9741 6.96584C21.5213 6.60006 21.9478 6.08032 22.1997 5.47225C22.4517 4.86419 22.5178 4.1951 22.3897 3.54949C22.2616 2.90388 21.945 2.31072 21.4799 1.84494C21.1718 1.53497 20.8051 1.28928 20.4012 1.12211C19.9973 0.954947 19.5643 0.86963 19.1272 0.871113ZM21.0797 6.15285C20.8237 6.41055 20.5192 6.61498 20.1837 6.75436C19.8483 6.89373 19.4886 6.96527 19.1253 6.96486H19.1234C18.39 6.96465 17.6866 6.67307 17.1681 6.15427C16.6496 5.63546 16.3584 4.93193 16.3586 4.19844C16.3588 3.46495 16.6504 2.76159 17.1692 2.24308C17.688 1.72458 18.3916 1.4334 19.125 1.43361H19.1267C19.6735 1.4335 20.2081 1.59562 20.6627 1.89945C21.1173 2.20328 21.4716 2.63516 21.6807 3.14042C21.8898 3.64569 21.9442 4.20162 21.8372 4.73786C21.7302 5.27411 21.4665 5.76654 21.0795 6.15285H21.0797Z" fill="#2399F5"/>
<path d="M20.1536 2.9323H20.1567C20.2325 2.93269 20.3054 2.90294 20.3593 2.84959C20.4132 2.79625 20.4437 2.72367 20.4441 2.64784C20.4445 2.572 20.4147 2.49912 20.3614 2.44522C20.308 2.39131 20.2354 2.36081 20.1596 2.36042L18.7007 2.34317L18.1157 2.33595C18.0412 2.33516 17.9694 2.36399 17.9162 2.41611C17.863 2.46823 17.8326 2.53937 17.8318 2.61388C17.831 2.68838 17.8598 2.76015 17.912 2.8134C17.9641 2.86664 18.0352 2.897 18.1097 2.8978L18.6945 2.90398C18.7727 2.90461 18.8501 2.92075 18.922 2.95146C18.994 2.98217 19.0592 3.02685 19.1138 3.08291C19.1547 3.12466 19.1893 3.17218 19.2164 3.22395L18.1063 3.21205C18.0318 3.21125 17.9599 3.24011 17.9066 3.29229C17.8533 3.34446 17.8229 3.41568 17.8221 3.49027C17.8213 3.56487 17.8501 3.63672 17.9023 3.69003C17.9545 3.74334 18.0257 3.77375 18.1003 3.77455L19.2104 3.78645C19.1822 3.83766 19.1466 3.88444 19.1047 3.9253C18.9925 4.03775 18.8406 4.10153 18.6817 4.10286L18.097 4.10417H18.0939C18.0385 4.10241 17.9838 4.11759 17.9372 4.14769C17.8905 4.17779 17.8542 4.22139 17.833 4.27266C17.8118 4.32393 17.8067 4.38046 17.8184 4.43469C17.8301 4.48893 17.8581 4.53831 17.8986 4.57625L19.3454 5.9712C19.3995 6.02203 19.4714 6.04949 19.5456 6.04762C19.6198 6.04575 19.6902 6.01471 19.7417 5.96122C19.7931 5.90773 19.8214 5.83612 19.8203 5.76192C19.8193 5.68772 19.7891 5.61692 19.7361 5.56489L18.7921 4.65322C19.0583 4.62997 19.3081 4.51471 19.4985 4.32725C19.6492 4.17697 19.7566 3.98883 19.8093 3.78266L20.1441 3.77605H20.1472C20.1834 3.77719 20.2194 3.77113 20.2531 3.75823C20.2869 3.74533 20.3178 3.72584 20.344 3.7009C20.3701 3.67596 20.3911 3.64606 20.4056 3.61295C20.4201 3.57983 20.4279 3.54417 20.4285 3.50802C20.4288 3.47135 20.4218 3.43499 20.4079 3.40104C20.3941 3.3671 20.3736 3.33624 20.3477 3.31027C20.3219 3.2843 20.2911 3.26372 20.2572 3.24974C20.2233 3.23576 20.1869 3.22865 20.1503 3.22883L19.8148 3.2278C19.7882 3.11922 19.7453 3.01531 19.6875 2.91964L20.1536 2.9323Z" fill="#2399F5"/>
<path d="M6.00024 9.07031C6.65848 9.07031 7.30194 8.87512 7.84925 8.50942C8.39656 8.14372 8.82313 7.62394 9.07503 7.01581C9.32693 6.40767 9.39284 5.7385 9.26442 5.0929C9.136 4.44731 8.81903 3.8543 8.35358 3.38885C7.88814 2.9234 7.29512 2.60643 6.64953 2.47801C6.00394 2.3496 5.33476 2.4155 4.72663 2.6674C4.11849 2.9193 3.59871 3.34587 3.23301 3.89318C2.86731 4.44049 2.67212 5.08395 2.67212 5.74219C2.67311 6.62456 3.02407 7.4705 3.648 8.09443C4.27193 8.71836 5.11787 9.06932 6.00024 9.07031ZM6.00024 2.97656C6.54723 2.97656 7.08194 3.13876 7.53674 3.44266C7.99155 3.74655 8.34602 4.17848 8.55535 4.68383C8.76467 5.18918 8.81944 5.74526 8.71273 6.28174C8.60602 6.81821 8.34262 7.311 7.95584 7.69778C7.56906 8.08456 7.07627 8.34796 6.53979 8.45467C6.00331 8.56139 5.44724 8.50662 4.94188 8.29729C4.43653 8.08797 4.0046 7.73349 3.70071 7.27869C3.39682 6.82388 3.23462 6.28918 3.23462 5.74219C3.23544 5.00895 3.52708 4.30598 4.04556 3.7875C4.56403 3.26902 5.26701 2.97738 6.00024 2.97656Z" fill="#2399F5"/>
<path d="M5.55673 5.642L4.97178 5.63572C4.91539 5.63472 4.86002 5.65087 4.81301 5.68203C4.766 5.7132 4.72956 5.7579 4.70853 5.81024C4.68717 5.86232 4.68193 5.91962 4.6935 5.97472C4.70507 6.02982 4.7329 6.08018 4.7734 6.11928L6.22025 7.51616C6.27391 7.56797 6.34596 7.59634 6.42054 7.59503C6.49512 7.59372 6.56612 7.56284 6.61794 7.50917C6.66975 7.45551 6.69812 7.38346 6.69681 7.30888C6.6955 7.2343 6.66461 7.1633 6.61095 7.11149L5.66694 6.2C5.93309 6.17675 6.18283 6.06148 6.3732 5.87403C6.52389 5.72378 6.63124 5.53565 6.68393 5.32948L7.01895 5.32292H7.02204C7.05818 5.32406 7.09418 5.31801 7.12796 5.30511C7.16173 5.29221 7.1926 5.27272 7.21877 5.24778C7.24495 5.22284 7.2659 5.19294 7.28041 5.15982C7.29492 5.12671 7.3027 5.09104 7.30329 5.05489C7.3036 5.01823 7.29662 4.98187 7.28276 4.94792C7.2689 4.91397 7.24843 4.88312 7.22255 4.85715C7.19667 4.83117 7.16589 4.8106 7.13199 4.79662C7.09809 4.78264 7.06176 4.77553 7.02509 4.7757L6.68956 4.77467C6.66301 4.6661 6.62009 4.56219 6.56229 4.46652L7.02847 4.47917H7.03156C7.10739 4.47956 7.18028 4.44981 7.23418 4.39647C7.28808 4.34312 7.31858 4.27055 7.31897 4.19471C7.31937 4.11888 7.28962 4.04599 7.23627 3.99209C7.18292 3.93819 7.11035 3.90769 7.03451 3.9073L5.57562 3.89005L4.99053 3.88283C4.91602 3.88203 4.84425 3.91087 4.79101 3.96299C4.73776 4.01511 4.7074 4.08625 4.70661 4.16075C4.70581 4.23526 4.73465 4.30703 4.78677 4.36027C4.83889 4.41352 4.91002 4.44388 4.98453 4.44467L5.56929 4.45086C5.64754 4.45149 5.72489 4.46763 5.79686 4.49834C5.86883 4.52905 5.934 4.57372 5.98859 4.62978C6.02951 4.67153 6.0641 4.71905 6.09125 4.77083L4.98115 4.75892C4.94422 4.75853 4.90757 4.76541 4.87329 4.77917C4.83902 4.79294 4.80779 4.81332 4.78139 4.83916C4.755 4.865 4.73395 4.89578 4.71945 4.92975C4.70495 4.96372 4.69728 5.00021 4.69688 5.03715C4.69648 5.07408 4.70336 5.11073 4.71713 5.14501C4.7309 5.17928 4.75128 5.21051 4.77712 5.23691C4.80295 5.26331 4.83374 5.28436 4.86771 5.29886C4.90168 5.31336 4.93817 5.32103 4.97511 5.32142L6.0852 5.33333C6.03316 5.42772 5.95654 5.50627 5.86346 5.56063C5.77038 5.61499 5.66433 5.64314 5.55654 5.64209L5.55673 5.642Z" fill="#2399F5"/>
</g>
<defs>
<clipPath id="clip0_416_7482">
<rect width="24" height="24" fill="white" transform="translate(0.5 0.777344)"/>
</clipPath>
</defs>
</svg>
