<svg width="21" height="20" viewBox="0 0 21 20" fill="none" xmlns="http://www.w3.org/2000/svg">
<path d="M16.7547 2.5H5.08805C4.16758 2.5 3.42139 3.24619 3.42139 4.16667V15.8333C3.42139 16.7538 4.16758 17.5 5.08805 17.5H16.7547C17.6752 17.5 18.4214 16.7538 18.4214 15.8333V4.16667C18.4214 3.24619 17.6752 2.5 16.7547 2.5Z" stroke="#161F28" stroke-width="1.66667" stroke-linecap="round" stroke-linejoin="round"/>
<path d="M8.42155 9.16659C9.34202 9.16659 10.0882 8.42039 10.0882 7.49992C10.0882 6.57944 9.34202 5.83325 8.42155 5.83325C7.50107 5.83325 6.75488 6.57944 6.75488 7.49992C6.75488 8.42039 7.50107 9.16659 8.42155 9.16659Z" stroke="#161F28" stroke-width="1.66667" stroke-linecap="round" stroke-linejoin="round"/>
<path d="M18.4214 12.5001L15.8497 9.92841C15.5372 9.61595 15.1133 9.44043 14.6714 9.44043C14.2294 9.44043 13.8056 9.61595 13.4931 9.92841L5.92139 17.5001" stroke="#161F28" stroke-width="1.66667" stroke-linecap="round" stroke-linejoin="round"/>
</svg>
