<svg width="20" height="20" viewBox="0 0 20 20" fill="none" xmlns="http://www.w3.org/2000/svg">
<path d="M14 9.99998C11.794 9.99998 10 11.794 10 14C10 16.206 11.794 18 14 18C16.206 18 18 16.206 18 14C18 11.794 16.206 9.99998 14 9.99998ZM17.3333 14C17.3333 14.7987 17.0393 15.5233 16.5687 16.098L11.902 11.4313C12.4767 10.9613 13.2007 10.6673 13.9993 10.6673C15.8373 10.6673 17.3327 12.1627 17.3327 14.0007L17.3333 14ZM10.6667 14C10.6667 13.2013 10.9607 12.4767 11.4313 11.902L16.098 16.5687C15.5233 17.0387 14.7993 17.3327 14.0007 17.3327C12.1627 17.3327 10.6673 15.8373 10.6673 13.9993L10.6667 14ZM8 9.99998C10.206 9.99998 12 8.20599 12 5.99998C12 3.79398 10.206 1.99998 8 1.99998C5.794 1.99998 4 3.79398 4 5.99998C4 8.20599 5.794 9.99998 8 9.99998ZM8 2.66665C9.838 2.66665 11.3333 4.16198 11.3333 5.99998C11.3333 7.83799 9.838 9.33332 8 9.33332C6.162 9.33332 4.66667 7.83799 4.66667 5.99998C4.66667 4.16198 6.162 2.66665 8 2.66665ZM9.386 11.3333C9.26267 11.546 9.15667 11.7693 9.064 12H5C3.71333 12 2.66667 13.0467 2.66667 14.3333V18H2V14.3333C2 12.6793 3.346 11.3333 5 11.3333H9.386Z" fill="#505050" stroke="#505050" stroke-width="0.5"/>
</svg>
