<svg width="34" height="35" viewBox="0 0 34 35" fill="none" xmlns="http://www.w3.org/2000/svg">
<path d="M29.6072 5.32236H29.4492V4.19479C29.4492 3.06057 28.5268 2.13818 27.3926 2.13818C26.2584 2.13818 25.336 3.06057 25.336 4.19479V5.32236H22.521V4.19479C22.521 3.06057 21.5986 2.13818 20.4644 2.13818C19.3302 2.13818 18.4078 3.06057 18.4078 4.19479V5.32236H15.5929V4.19479C15.5929 3.06057 14.6705 2.13818 13.5363 2.13818C12.402 2.13818 11.4796 3.06057 11.4796 4.19479V5.32236H8.66469V4.19479C8.66469 3.06057 7.7423 2.13818 6.60809 2.13818C5.47387 2.13818 4.55082 3.06057 4.55082 4.19479V5.32236H4.39277C2.52012 5.32236 0.996094 6.84771 0.996094 8.72236V12.4524V28.9637C0.996094 31.1132 2.74523 32.8624 4.8948 32.8624H29.1052C31.2548 32.8624 33.0039 31.1132 33.0039 28.9637V12.4524V8.72236C33.0039 6.84771 31.4799 5.32236 29.6072 5.32236ZM26.1322 4.19479C26.1322 3.50018 26.6973 2.93506 27.3919 2.93506C28.0865 2.93506 28.6516 3.50018 28.6516 4.19479V7.70104C28.6516 8.39564 28.0865 8.96076 27.3919 8.96076C26.6973 8.96076 26.1322 8.39564 26.1322 7.70104V4.19479ZM19.204 4.19479C19.204 3.50018 19.7691 2.93506 20.4638 2.93506C21.1584 2.93506 21.7235 3.50018 21.7235 4.19479V7.70104C21.7235 8.39564 21.1584 8.96076 20.4638 8.96076C19.7691 8.96076 19.204 8.39564 19.204 7.70104V4.19479ZM12.2759 4.19479C12.2759 3.50018 12.841 2.93506 13.5356 2.93506C14.2302 2.93506 14.7953 3.50018 14.7953 4.19479V7.70104C14.7953 8.39564 14.2302 8.96076 13.5356 8.96076C12.841 8.96076 12.2759 8.39564 12.2759 7.70104V4.19479ZM5.3477 4.19479C5.3477 3.50018 5.91281 2.93506 6.60742 2.93506C7.30203 2.93506 7.86715 3.50018 7.86715 4.19479V7.70104C7.86715 8.39564 7.30203 8.96076 6.60742 8.96076C5.91281 8.96076 5.3477 8.39564 5.3477 7.70104V4.19479ZM32.207 28.963C32.207 30.6729 30.8158 32.0648 29.1052 32.0648H4.8948C3.18484 32.0648 1.79297 30.6736 1.79297 28.963V12.8508H32.207V28.963ZM32.207 12.054H1.79297V8.72236C1.79297 7.28666 2.95906 6.11857 4.39277 6.11857H4.55082V7.70037C4.55082 8.83459 5.4732 9.75697 6.60742 9.75697C7.74164 9.75697 8.66402 8.83459 8.66402 7.70037V6.11924H11.479V7.70104C11.479 8.83525 12.4014 9.75764 13.5356 9.75764C14.6698 9.75764 15.5922 8.83525 15.5922 7.70104V6.11924H18.4071V7.70104C18.4071 8.83525 19.3295 9.75764 20.4638 9.75764C21.598 9.75764 22.5204 8.83525 22.5204 7.70104V6.11924H25.3353V7.70104C25.3353 8.83525 26.2577 9.75764 27.3919 9.75764C28.5261 9.75764 29.4485 8.83525 29.4485 7.70104V6.11924H29.6066C31.0403 6.11924 32.2064 7.28732 32.2064 8.72303V12.054H32.207ZM5.66379 20.9358H10.4523C10.6721 20.9358 10.8508 20.7572 10.8508 20.5374V15.5848C10.8508 15.365 10.6721 15.1863 10.4523 15.1863H5.66379C5.44398 15.1863 5.26535 15.365 5.26535 15.5848V20.5374C5.26535 20.7572 5.44398 20.9358 5.66379 20.9358ZM6.06223 15.9832H10.0539V20.1389H6.06223V15.9832ZM23.1466 20.9358H27.9351C28.1549 20.9358 28.3336 20.7572 28.3336 20.5374V15.5848C28.3336 15.365 28.1549 15.1863 27.9351 15.1863H23.1466C22.9268 15.1863 22.7481 15.365 22.7481 15.5848V20.5374C22.7481 20.7572 22.9268 20.9358 23.1466 20.9358ZM23.545 15.9832H27.5367V20.1389H23.545V15.9832ZM5.66379 29.1675H10.4523C10.6721 29.1675 10.8508 28.9889 10.8508 28.7691V23.8165C10.8508 23.5967 10.6721 23.4181 10.4523 23.4181H5.66379C5.44398 23.4181 5.26535 23.5967 5.26535 23.8165V28.7691C5.26535 28.9889 5.44398 29.1675 5.66379 29.1675ZM6.06223 24.2149H10.0539V28.3706H6.06223V24.2149ZM19.1941 23.4181H14.4055C14.1857 23.4181 14.0071 23.5967 14.0071 23.8165V28.7691C14.0071 28.9889 14.1857 29.1675 14.4055 29.1675H19.1941C19.4139 29.1675 19.5925 28.9889 19.5925 28.7691V23.8165C19.5925 23.5967 19.4139 23.4181 19.1941 23.4181ZM18.7956 28.3706H14.8039V24.2149H18.7956V28.3706ZM23.1466 29.1675H27.9351C28.1549 29.1675 28.3336 28.9889 28.3336 28.7691V23.8165C28.3336 23.5967 28.1549 23.4181 27.9351 23.4181H23.1466C22.9268 23.4181 22.7481 23.5967 22.7481 23.8165V28.7691C22.7481 28.9889 22.9268 29.1675 23.1466 29.1675ZM23.545 24.2149H27.5367V28.3706H23.545V24.2149ZM14.1233 18.0597C13.9679 17.9044 13.9679 17.652 14.1233 17.496C14.2793 17.3406 14.531 17.3406 14.6871 17.496L16.1819 18.9921L19.0646 16.1765C19.222 16.0231 19.4743 16.0257 19.6277 16.1831C19.7818 16.3405 19.7784 16.5928 19.6211 16.7462L16.4561 19.8374C16.3784 19.9131 16.2782 19.951 16.1779 19.951C16.0756 19.951 15.974 19.9118 15.8957 19.8341L14.1233 18.0597Z" fill="#090707"/>
</svg>
