<svg width="32" height="31" viewBox="0 0 32 31" fill="none" xmlns="http://www.w3.org/2000/svg">
<path d="M28.6072 3.32285H28.4492V2.19527C28.4492 1.06105 27.5268 0.138672 26.3926 0.138672C25.2584 0.138672 24.336 1.06105 24.336 2.19527V3.32285H21.521V2.19527C21.521 1.06105 20.5986 0.138672 19.4644 0.138672C18.3302 0.138672 17.4078 1.06105 17.4078 2.19527V3.32285H14.5929V2.19527C14.5929 1.06105 13.6705 0.138672 12.5363 0.138672C11.402 0.138672 10.4796 1.06105 10.4796 2.19527V3.32285H7.66469V2.19527C7.66469 1.06105 6.7423 0.138672 5.60809 0.138672C4.47387 0.138672 3.55082 1.06105 3.55082 2.19527V3.32285H3.39277C1.52012 3.32285 -0.00390625 4.8482 -0.00390625 6.72285V10.4529V26.9641C-0.00390625 29.1137 1.74523 30.8629 3.8948 30.8629H28.1052C30.2548 30.8629 32.0039 29.1137 32.0039 26.9641V10.4529V6.72285C32.0039 4.8482 30.4799 3.32285 28.6072 3.32285ZM25.1322 2.19527C25.1322 1.50066 25.6973 0.935547 26.3919 0.935547C27.0865 0.935547 27.6516 1.50066 27.6516 2.19527V5.70152C27.6516 6.39613 27.0865 6.96125 26.3919 6.96125C25.6973 6.96125 25.1322 6.39613 25.1322 5.70152V2.19527ZM18.204 2.19527C18.204 1.50066 18.7691 0.935547 19.4638 0.935547C20.1584 0.935547 20.7235 1.50066 20.7235 2.19527V5.70152C20.7235 6.39613 20.1584 6.96125 19.4638 6.96125C18.7691 6.96125 18.204 6.39613 18.204 5.70152V2.19527ZM11.2759 2.19527C11.2759 1.50066 11.841 0.935547 12.5356 0.935547C13.2302 0.935547 13.7953 1.50066 13.7953 2.19527V5.70152C13.7953 6.39613 13.2302 6.96125 12.5356 6.96125C11.841 6.96125 11.2759 6.39613 11.2759 5.70152V2.19527ZM4.3477 2.19527C4.3477 1.50066 4.91281 0.935547 5.60742 0.935547C6.30203 0.935547 6.86715 1.50066 6.86715 2.19527V5.70152C6.86715 6.39613 6.30203 6.96125 5.60742 6.96125C4.91281 6.96125 4.3477 6.39613 4.3477 5.70152V2.19527ZM31.207 26.9635C31.207 28.6734 29.8158 30.0653 28.1052 30.0653H3.8948C2.18484 30.0653 0.792969 28.6741 0.792969 26.9635V10.8513H31.207V26.9635ZM31.207 10.0545H0.792969V6.72285C0.792969 5.28715 1.95906 4.11906 3.39277 4.11906H3.55082V5.70086C3.55082 6.83508 4.4732 7.75746 5.60742 7.75746C6.74164 7.75746 7.66402 6.83508 7.66402 5.70086V4.11973H10.479V5.70152C10.479 6.83574 11.4014 7.75813 12.5356 7.75813C13.6698 7.75813 14.5922 6.83574 14.5922 5.70152V4.11973H17.4071V5.70152C17.4071 6.83574 18.3295 7.75813 19.4638 7.75813C20.598 7.75813 21.5204 6.83574 21.5204 5.70152V4.11973H24.3353V5.70152C24.3353 6.83574 25.2577 7.75813 26.3919 7.75813C27.5261 7.75813 28.4485 6.83574 28.4485 5.70152V4.11973H28.6066C30.0403 4.11973 31.2064 5.28781 31.2064 6.72352V10.0545H31.207ZM4.66379 18.9363H9.45234C9.67215 18.9363 9.85078 18.7577 9.85078 18.5378V13.5853C9.85078 13.3655 9.67215 13.1868 9.45234 13.1868H4.66379C4.44398 13.1868 4.26535 13.3655 4.26535 13.5853V18.5378C4.26535 18.7577 4.44398 18.9363 4.66379 18.9363ZM5.06223 13.9837H9.05391V18.1394H5.06223V13.9837ZM22.1466 18.9363H26.9351C27.1549 18.9363 27.3336 18.7577 27.3336 18.5378V13.5853C27.3336 13.3655 27.1549 13.1868 26.9351 13.1868H22.1466C21.9268 13.1868 21.7481 13.3655 21.7481 13.5853V18.5378C21.7481 18.7577 21.9268 18.9363 22.1466 18.9363ZM22.545 13.9837H26.5367V18.1394H22.545V13.9837ZM4.66379 27.168H9.45234C9.67215 27.168 9.85078 26.9894 9.85078 26.7696V21.817C9.85078 21.5972 9.67215 21.4186 9.45234 21.4186H4.66379C4.44398 21.4186 4.26535 21.5972 4.26535 21.817V26.7696C4.26535 26.9894 4.44398 27.168 4.66379 27.168ZM5.06223 22.2154H9.05391V26.3711H5.06223V22.2154ZM18.1941 21.4186H13.4055C13.1857 21.4186 13.0071 21.5972 13.0071 21.817V26.7696C13.0071 26.9894 13.1857 27.168 13.4055 27.168H18.1941C18.4139 27.168 18.5925 26.9894 18.5925 26.7696V21.817C18.5925 21.5972 18.4139 21.4186 18.1941 21.4186ZM17.7956 26.3711H13.8039V22.2154H17.7956V26.3711ZM22.1466 27.168H26.9351C27.1549 27.168 27.3336 26.9894 27.3336 26.7696V21.817C27.3336 21.5972 27.1549 21.4186 26.9351 21.4186H22.1466C21.9268 21.4186 21.7481 21.5972 21.7481 21.817V26.7696C21.7481 26.9894 21.9268 27.168 22.1466 27.168ZM22.545 22.2154H26.5367V26.3711H22.545V22.2154ZM13.1233 16.0602C12.9679 15.9048 12.9679 15.6525 13.1233 15.4964C13.2793 15.3411 13.531 15.3411 13.6871 15.4964L15.1819 16.9926L18.0646 14.177C18.222 14.0236 18.4743 14.0262 18.6277 14.1836C18.7818 14.341 18.7784 14.5933 18.6211 14.7467L15.4561 17.8379C15.3784 17.9136 15.2782 17.9515 15.1779 17.9515C15.0756 17.9515 14.974 17.9123 14.8957 17.8346L13.1233 16.0602Z" fill="#090707"/>
</svg>
