<svg width="21" height="15" viewBox="0 0 21 15" fill="none" xmlns="http://www.w3.org/2000/svg">
<path d="M7.39799 1.69617V6.5287" stroke="#0085FE" stroke-linecap="round" stroke-linejoin="round"/>
<path d="M13.0366 1.69617V6.5287" stroke="#0085FE" stroke-linecap="round" stroke-linejoin="round"/>
<path d="M2.56575 6.52832H18.352" stroke="#0085FE" stroke-linecap="round" stroke-linejoin="round"/>
<path d="M15.4525 11.3612H17.8688C17.8688 11.3612 18.2715 9.99202 18.5131 9.10606C18.5937 8.78389 18.6742 8.46172 18.6742 8.13955C18.6742 7.81738 18.5937 7.49521 18.5131 7.17304L17.3856 3.14593C17.1439 2.34051 16.3385 1.69617 15.4525 1.69617H4.17663C3.7494 1.69617 3.33968 1.86588 3.03759 2.16797C2.73549 2.47006 2.56578 2.87979 2.56578 3.30701V11.3612H4.98205" stroke="#0085FE" stroke-linecap="round" stroke-linejoin="round"/>
<path d="M6.59273 12.9717C7.48238 12.9717 8.20358 12.2505 8.20358 11.3608C8.20358 10.4712 7.48238 9.75 6.59273 9.75C5.70309 9.75 4.98189 10.4712 4.98189 11.3608C4.98189 12.2505 5.70309 12.9717 6.59273 12.9717Z" stroke="#0085FE" stroke-linecap="round" stroke-linejoin="round"/>
<path d="M8.20357 11.3612H12.2307" stroke="#0085FE" stroke-linecap="round" stroke-linejoin="round"/>
<path d="M13.8408 12.9717C14.7304 12.9717 15.4516 12.2505 15.4516 11.3608C15.4516 10.4712 14.7304 9.75 13.8408 9.75C12.9511 9.75 12.2299 10.4712 12.2299 11.3608C12.2299 12.2505 12.9511 12.9717 13.8408 12.9717Z" stroke="#0085FE" stroke-linecap="round" stroke-linejoin="round"/>
</svg>
