<svg width="19" height="19" viewBox="0 0 19 19" fill="none" xmlns="http://www.w3.org/2000/svg">
<rect width="19" height="19" rx="9.5" fill="#00A0E6"/>
<path d="M11.6186 6.84899C11.5712 6.81142 11.5168 6.78363 11.4585 6.7672C11.4003 6.75078 11.3394 6.74605 11.2793 6.7533C11.2192 6.76054 11.1611 6.77961 11.1085 6.80941C11.0558 6.8392 11.0095 6.87914 10.9724 6.9269L7.76405 11.0519L6.19197 9.13607C6.15509 9.08698 6.10873 9.04581 6.05564 9.01498C6.00254 8.98416 5.9438 8.96431 5.88289 8.95663C5.82198 8.94895 5.76014 8.95358 5.70105 8.97025C5.64197 8.98692 5.58683 9.01529 5.53892 9.05368C5.49101 9.09207 5.4513 9.1397 5.42215 9.19373C5.393 9.24776 5.375 9.3071 5.36922 9.36822C5.36344 9.42934 5.37 9.491 5.38851 9.54954C5.40702 9.60807 5.4371 9.6623 5.47697 9.70899L7.38822 12.0832C7.43136 12.1363 7.48586 12.1792 7.54773 12.2085C7.60959 12.2379 7.67725 12.253 7.74572 12.2527C7.8184 12.256 7.89081 12.2419 7.95696 12.2116C8.02311 12.1813 8.0811 12.1357 8.12614 12.0786L11.7149 7.49524C11.7515 7.44666 11.778 7.3913 11.793 7.33236C11.808 7.27342 11.8111 7.2121 11.8021 7.15195C11.7932 7.0918 11.7723 7.03404 11.7408 6.98203C11.7093 6.93001 11.6678 6.88479 11.6186 6.84899ZM13.9103 6.84899C13.8629 6.81142 13.8084 6.78363 13.7502 6.7672C13.6919 6.75078 13.631 6.74605 13.5709 6.7533C13.5109 6.76054 13.4528 6.77961 13.4001 6.80941C13.3475 6.8392 13.3012 6.87914 13.2641 6.9269L10.0557 11.0519L9.77614 10.7082L9.19864 11.4507L9.7028 12.0786C9.74594 12.1317 9.80045 12.1746 9.86231 12.2039C9.92418 12.2333 9.99183 12.2484 10.0603 12.2482C10.1291 12.2478 10.197 12.232 10.2589 12.2019C10.3208 12.1717 10.3751 12.128 10.4178 12.074L14.0066 7.49065C14.0424 7.44222 14.0684 7.38719 14.083 7.32871C14.0976 7.27024 14.1005 7.20946 14.0915 7.14986C14.0826 7.09025 14.062 7.033 14.0309 6.98137C13.9998 6.92975 13.9588 6.88476 13.9103 6.84899Z" fill="white"/>
<path d="M7.99119 9.9879L8.58244 9.2454L8.49077 9.1354C8.45459 9.08527 8.40863 9.04297 8.35567 9.01107C8.30272 8.97916 8.24385 8.95829 8.18262 8.94973C8.12139 8.94117 8.05906 8.94508 7.99938 8.96123C7.9397 8.97739 7.8839 9.00545 7.83535 9.04373C7.78827 9.08155 7.74913 9.12831 7.72017 9.18131C7.69122 9.23431 7.67302 9.29251 7.66663 9.35257C7.66025 9.41262 7.66579 9.47335 7.68294 9.53125C7.7001 9.58916 7.72853 9.6431 7.7666 9.68998L7.99119 9.9879Z" fill="white"/>
</svg>
