<svg width="20" height="21" viewBox="0 0 20 21" fill="none" xmlns="http://www.w3.org/2000/svg">
<path d="M5.33349 4.46688C6.57542 3.24979 8.24749 2.57199 9.98635 2.58077C11.7252 2.58956 13.3903 3.28421 14.6199 4.51378C15.8495 5.74336 16.5442 7.4085 16.5529 9.14735C16.5617 10.8862 15.8839 12.5583 14.6668 13.8002L11.1785 17.2885C10.8659 17.601 10.4421 17.7765 10.0002 17.7765C9.55822 17.7765 9.13437 17.601 8.82183 17.2885L5.33349 13.8002C4.0959 12.5625 3.40063 10.8839 3.40063 9.13355C3.40063 7.38324 4.0959 5.7046 5.33349 4.46688Z" stroke="#090707" stroke-width="1.25" stroke-linejoin="round"/>
<path d="M10 11.6335C11.3807 11.6335 12.5 10.5143 12.5 9.13354C12.5 7.75283 11.3807 6.63354 10 6.63354C8.61929 6.63354 7.5 7.75283 7.5 9.13354C7.5 10.5143 8.61929 11.6335 10 11.6335Z" stroke="#090707" stroke-width="1.25" stroke-linecap="round" stroke-linejoin="round"/>
</svg>
