<svg width="18" height="18" viewBox="0 0 18 18" fill="none" xmlns="http://www.w3.org/2000/svg">
<path d="M12.75 3.16667V1.5M5.25 3.16667V1.5M1.70833 5.66667H16.2917M1.5 7.37C1.5 5.6075 1.5 4.72583 1.86333 4.0525C2.19187 3.45192 2.70166 2.97042 3.32 2.67667C4.03333 2.33333 4.96667 2.33333 6.83333 2.33333H11.1667C13.0333 2.33333 13.9667 2.33333 14.68 2.67667C15.3075 2.97833 15.8167 3.46 16.1367 4.05167C16.5 4.72667 16.5 5.60833 16.5 7.37083V11.4642C16.5 13.2267 16.5 14.1083 16.1367 14.7817C15.8081 15.3822 15.2983 15.8637 14.68 16.1575C13.9667 16.5 13.0333 16.5 11.1667 16.5H6.83333C4.96667 16.5 4.03333 16.5 3.32 16.1567C2.70179 15.8631 2.19201 15.3819 1.86333 14.7817C1.5 14.1067 1.5 13.225 1.5 11.4625V7.37Z" stroke="#090707" stroke-width="1.5" stroke-linecap="round" stroke-linejoin="round"/>
</svg>
