<svg width="15" height="16" viewBox="0 0 15 16" fill="none" xmlns="http://www.w3.org/2000/svg">
<path fill-rule="evenodd" clip-rule="evenodd" d="M0.859375 4.07162L7.61937 0.168945L14.3794 4.07162V11.8779L7.61937 15.7801L0.859375 11.8779V4.07162Z" fill="url(#paint0_linear_5317_9538)"/>
<path d="M10.6843 11.7444C9.85987 11.7444 9.04531 11.5647 8.24064 11.2054C7.43597 10.8461 6.70386 10.3365 6.04429 9.67665C5.38473 9.01682 4.87528 8.2847 4.51595 7.4803C4.15662 6.6759 3.97683 5.86134 3.97656 5.03662C3.97656 4.9179 4.01614 4.81896 4.09528 4.73982C4.17443 4.66067 4.27337 4.62109 4.39209 4.62109H5.99483C6.08717 4.62109 6.16961 4.65249 6.24216 4.71528C6.31472 4.77807 6.35759 4.8522 6.37078 4.93768L6.62801 6.32277C6.6412 6.4283 6.6379 6.51734 6.61811 6.58989C6.59833 6.66244 6.56205 6.7251 6.50929 6.77787L5.54962 7.74742C5.68153 7.99146 5.83811 8.22719 6.01936 8.45461C6.20061 8.68203 6.40019 8.9014 6.61811 9.11272C6.82258 9.31719 7.03694 9.50688 7.26119 9.68179C7.48544 9.85671 7.72288 10.0166 7.97352 10.1614L8.9035 9.23144C8.96286 9.17208 9.04043 9.12763 9.1362 9.09808C9.23196 9.06853 9.32589 9.06022 9.41796 9.07315L10.7833 9.35016C10.8756 9.37655 10.9514 9.42443 11.0108 9.49382C11.0702 9.5632 11.0998 9.64064 11.0998 9.72611V11.3289C11.0998 11.4476 11.0603 11.5465 10.9811 11.6257C10.902 11.7048 10.803 11.7444 10.6843 11.7444Z" fill="white"/>
<defs>
<linearGradient id="paint0_linear_5317_9538" x1="11.6754" y1="0.168945" x2="5.25338" y2="15.7169" gradientUnits="userSpaceOnUse">
<stop stop-color="#2BC7CF"/>
<stop offset="1" stop-color="#3F60F3"/>
</linearGradient>
</defs>
</svg>
