<svg width="14" height="14" viewBox="0 0 14 14" fill="none" xmlns="http://www.w3.org/2000/svg">
<path d="M12.3322 9.91374C11.898 9.47624 10.8463 8.83777 10.3361 8.58046C9.67164 8.24577 9.61695 8.21843 9.09469 8.60644C8.74633 8.86538 8.51473 9.09671 8.10703 9.00976C7.69934 8.92281 6.8134 8.43253 6.03766 7.65925C5.26191 6.88597 4.7432 5.97433 4.65598 5.568C4.56875 5.16167 4.80391 4.93281 5.06039 4.58363C5.42188 4.09144 5.39453 4.00941 5.08555 3.34495C4.84465 2.82816 4.18758 1.78636 3.74844 1.35433C3.27867 0.890305 3.27867 0.972336 2.97598 1.09812C2.72954 1.20178 2.49312 1.32782 2.26969 1.47464C1.83219 1.76531 1.58938 2.00675 1.41957 2.3696C1.24977 2.73245 1.17348 3.58312 2.05039 5.17616C2.92731 6.76921 3.54254 7.58378 4.81594 8.85363C6.08934 10.1235 7.06852 10.8062 8.49996 11.6091C10.2707 12.6008 10.95 12.4075 11.3139 12.238C11.6779 12.0684 11.9204 11.8278 12.2116 11.3903C12.3588 11.1672 12.4851 10.9311 12.5889 10.6848C12.715 10.3832 12.797 10.3832 12.3322 9.91374Z" stroke="white" stroke-width="0.8" stroke-miterlimit="10"/>
</svg>
