<svg width="25" height="25" viewBox="0 0 25 25" fill="none" xmlns="http://www.w3.org/2000/svg">
<path d="M20.8192 20.4262H3.94922C3.55139 20.4262 3.16986 20.2681 2.88856 19.9868C2.60725 19.7055 2.44922 19.324 2.44922 18.9262V9.78616C2.44922 9.38834 2.60725 9.00681 2.88856 8.7255C3.16986 8.4442 3.55139 8.28616 3.94922 8.28616H6.60722C6.73223 8.28669 6.8529 8.24037 6.94545 8.15634C7.03801 8.0723 7.09572 7.95664 7.10722 7.83216L7.27322 6.03216C7.28265 5.64152 7.44516 5.27023 7.72573 4.99826C8.0063 4.72629 8.38248 4.57543 8.77322 4.57816H16.0032C16.401 4.57816 16.7826 4.7362 17.0639 5.0175C17.3452 5.29881 17.5032 5.68034 17.5032 6.07816L17.6672 7.83416C17.6787 7.95864 17.7364 8.0743 17.829 8.15834C17.9215 8.24237 18.0422 8.28869 18.1672 8.28816H20.8252C21.223 8.28816 21.6046 8.4462 21.8859 8.7275C22.1672 9.00881 22.3252 9.39034 22.3252 9.78816V18.9282C22.325 19.1255 22.2858 19.3208 22.2099 19.503C22.134 19.6851 22.0229 19.8505 21.8831 19.9897C21.7432 20.1288 21.5772 20.239 21.3946 20.3139C21.2121 20.3888 21.0165 20.427 20.8192 20.4262ZM3.94922 9.28616C3.81661 9.28616 3.68943 9.33884 3.59567 9.43261C3.5019 9.52638 3.44922 9.65355 3.44922 9.78616V18.9262C3.44922 19.0588 3.5019 19.1859 3.59567 19.2797C3.68943 19.3735 3.81661 19.4262 3.94922 19.4262H20.8192C20.9518 19.4262 21.079 19.3735 21.1728 19.2797C21.2665 19.1859 21.3192 19.0588 21.3192 18.9262V9.78616C21.3192 9.65355 21.2665 9.52638 21.1728 9.43261C21.079 9.33884 20.9518 9.28616 20.8192 9.28616H18.1612C17.7872 9.28625 17.4267 9.14663 17.1503 8.89466C16.8739 8.6427 16.7016 8.29657 16.6672 7.92416L16.5012 6.12416C16.5054 6.05521 16.4957 5.98613 16.4726 5.92102C16.4495 5.85591 16.4136 5.7961 16.367 5.74516C16.3203 5.69422 16.2639 5.65318 16.2011 5.62449C16.1382 5.5958 16.0703 5.58005 16.0012 5.57816H8.76922C8.63661 5.57816 8.50943 5.63084 8.41567 5.72461C8.3219 5.81838 8.26922 5.94555 8.26922 6.07816L8.10122 7.92416C8.06681 8.29657 7.89452 8.6427 7.61814 8.89466C7.34176 9.14663 6.98122 9.28625 6.60722 9.28616H3.94922Z" fill="white"/>
<path d="M12.3828 17.7813C11.5917 17.7813 10.8183 17.5467 10.1605 17.1071C9.50274 16.6676 8.99005 16.0429 8.6873 15.312C8.38455 14.5811 8.30533 13.7768 8.45967 13.0009C8.61401 12.225 8.99498 11.5122 9.55439 10.9528C10.1138 10.3934 10.8265 10.0125 11.6025 9.85811C12.3784 9.70377 13.1826 9.78298 13.9135 10.0857C14.6445 10.3885 15.2692 10.9012 15.7087 11.559C16.1482 12.2168 16.3828 12.9901 16.3828 13.7813C16.3828 14.8421 15.9614 15.8595 15.2112 16.6097C14.4611 17.3598 13.4437 17.7813 12.3828 17.7813ZM12.3828 10.7813C11.7895 10.7813 11.2095 10.9572 10.7161 11.2868C10.2228 11.6165 9.83824 12.085 9.61118 12.6332C9.38411 13.1814 9.3247 13.7846 9.44046 14.3665C9.55621 14.9485 9.84194 15.483 10.2615 15.9026C10.6811 16.3221 11.2156 16.6079 11.7975 16.7236C12.3795 16.8394 12.9827 16.78 13.5309 16.5529C14.079 16.3258 14.5476 15.9413 14.8772 15.448C15.2069 14.9546 15.3828 14.3746 15.3828 13.7813C15.3828 12.9856 15.0667 12.2225 14.5041 11.6599C13.9415 11.0973 13.1785 10.7813 12.3828 10.7813Z" fill="white"/>
</svg>
