<svg width="6" height="6" viewBox="0 0 6 6" fill="none" xmlns="http://www.w3.org/2000/svg">
<path d="M3 6C2.40666 6 1.82664 5.82405 1.33329 5.49441C0.839944 5.16476 0.455426 4.69623 0.228363 4.14805C0.00129984 3.59987 -0.0581101 2.99667 0.0576455 2.41473C0.173401 1.83279 0.459123 1.29824 0.878681 0.878681C1.29824 0.459124 1.83279 0.173401 2.41473 0.0576455C2.99667 -0.0581101 3.59987 0.00129984 4.14805 0.228363C4.69623 0.455426 5.16476 0.839943 5.49441 1.33329C5.82405 1.82664 6 2.40666 6 3C6 3.79565 5.68393 4.55871 5.12132 5.12132C4.55871 5.68393 3.79565 6 3 6ZM3 0.750001C2.55499 0.750001 2.11998 0.881961 1.74997 1.12919C1.37996 1.37643 1.09157 1.72783 0.921272 2.13896C0.750975 2.5501 0.706418 3.0025 0.793234 3.43895C0.880051 3.87541 1.09434 4.27632 1.40901 4.59099C1.72368 4.90566 2.12459 5.11995 2.56105 5.20677C2.9975 5.29358 3.4499 5.24903 3.86104 5.07873C4.27217 4.90843 4.62357 4.62004 4.87081 4.25003C5.11804 3.88002 5.25 3.44501 5.25 3C5.25 2.40326 5.01295 1.83097 4.59099 1.40901C4.16903 0.987054 3.59674 0.750001 3 0.750001Z" fill="white"/>
</svg>
