<svg width="26" height="26" viewBox="0 0 26 26" fill="none" xmlns="http://www.w3.org/2000/svg">
<path d="M10.6136 2.80737C10.2593 2.80738 9.91206 2.90582 9.6105 3.0917C9.30895 3.27759 9.06498 3.5436 8.90581 3.86006L8.15389 5.35626H6.00008C5.15507 5.35626 4.34467 5.69194 3.74716 6.28945C3.14964 6.88696 2.81396 7.69736 2.81396 8.54237V18.7379C2.81396 19.5829 3.14964 20.3933 3.74716 20.9909C4.34467 21.5884 5.15507 21.924 6.00008 21.924H12.4946C12.2865 21.5166 12.1187 21.0897 11.9938 20.6496H6.00135C5.49434 20.6496 5.0081 20.4482 4.6496 20.0897C4.29109 19.7312 4.08968 19.2449 4.08968 18.7379V8.54237C4.08968 8.03537 4.29109 7.54913 4.6496 7.19062C5.0081 6.83211 5.49434 6.63071 6.00135 6.63071H8.54769C8.66571 6.63047 8.78135 6.59745 8.88171 6.53535C8.98208 6.47324 9.06322 6.38448 9.11609 6.27896L10.0439 4.43229C10.097 4.32682 10.1785 4.23819 10.279 4.1763C10.3796 4.11442 10.4955 4.0817 10.6136 4.08182H15.4106C15.529 4.08158 15.6452 4.11438 15.7461 4.17651C15.8469 4.23864 15.9285 4.32766 15.9815 4.43356L16.9029 6.27769C16.9559 6.3834 17.0373 6.47228 17.1379 6.5344C17.2385 6.59653 17.3544 6.62943 17.4726 6.62943H20.0202C20.5272 6.62943 21.0135 6.83084 21.372 7.18935C21.7305 7.54785 21.9319 8.03409 21.9319 8.5411V12.4957C22.389 12.7302 22.8138 13.0101 23.2063 13.3356V8.5411C23.2063 7.69609 22.8707 6.88569 22.2732 6.28818C21.6756 5.69067 20.8652 5.35499 20.0202 5.35499H17.8664L17.1209 3.86389C16.962 3.54632 16.7179 3.27927 16.4158 3.09266C16.1137 2.90605 15.7656 2.80727 15.4106 2.80737H10.6136ZM13.0044 7.90515C14.1425 7.90475 15.2481 8.28522 16.1449 8.98596C17.0417 9.68669 17.6782 10.6674 17.9531 11.7718C17.5294 11.8194 17.1109 11.9056 16.7029 12.0293C16.5316 11.3786 16.1918 10.7847 15.7176 10.3073C15.2435 9.83001 14.6518 9.48621 14.0023 9.31064C13.3528 9.13506 12.6685 9.13392 12.0184 9.30734C11.3684 9.48075 10.7755 9.82257 10.2998 10.2983C9.82407 10.7741 9.48224 11.3669 9.30883 12.0169C9.13542 12.667 9.13656 13.3513 9.31213 14.0008C9.48771 14.6503 9.83151 15.242 10.3088 15.7161C10.7862 16.1903 11.3801 16.5301 12.0307 16.7014C11.9072 17.109 11.821 17.527 11.7733 17.9503C10.5691 17.646 9.51733 16.9127 8.81534 15.8881C8.11334 14.8634 7.80937 13.6178 7.96047 12.385C8.11156 11.1522 8.70733 10.0168 9.63599 9.19204C10.5647 8.36724 11.7624 7.90965 13.0044 7.90515ZM24.4744 18.7379C24.4744 20.2589 23.8702 21.7177 22.7947 22.7932C21.7192 23.8687 20.2604 24.4729 18.7394 24.4729C17.2184 24.4729 15.7597 23.8687 14.6842 22.7932C13.6086 21.7177 13.0044 20.2589 13.0044 18.7379C13.0044 17.2169 13.6086 15.7582 14.6842 14.6827C15.7597 13.6072 17.2184 13.0029 18.7394 13.0029C20.2604 13.0029 21.7192 13.6072 22.7947 14.6827C23.8702 15.7582 24.4744 17.2169 24.4744 18.7379ZM19.3766 16.189C19.3766 16.02 19.3095 15.858 19.19 15.7385C19.0705 15.619 18.9084 15.5518 18.7394 15.5518C18.5704 15.5518 18.4083 15.619 18.2888 15.7385C18.1693 15.858 18.1022 16.02 18.1022 16.189V18.1007H16.1905C16.0215 18.1007 15.8595 18.1678 15.7399 18.2873C15.6204 18.4068 15.5533 18.5689 15.5533 18.7379C15.5533 18.9069 15.6204 19.069 15.7399 19.1885C15.8595 19.308 16.0215 19.3752 16.1905 19.3752H18.1022V21.2868C18.1022 21.4558 18.1693 21.6179 18.2888 21.7374C18.4083 21.8569 18.5704 21.924 18.7394 21.924C18.9084 21.924 19.0705 21.8569 19.19 21.7374C19.3095 21.6179 19.3766 21.4558 19.3766 21.2868V19.3752H21.2883C21.4573 19.3752 21.6194 19.308 21.7389 19.1885C21.8584 19.069 21.9255 18.9069 21.9255 18.7379C21.9255 18.5689 21.8584 18.4068 21.7389 18.2873C21.6194 18.1678 21.4573 18.1007 21.2883 18.1007H19.3766V16.189Z" fill="black"/>
</svg>
