<svg width="18" height="14" viewBox="0 0 18 14" fill="none" xmlns="http://www.w3.org/2000/svg">
<path d="M16.6361 14H1.35842C0.998146 14 0.652626 13.8604 0.397873 13.6119C0.143119 13.3634 0 13.0263 0 12.6749V4.60073C0 4.24929 0.143119 3.91225 0.397873 3.66375C0.652626 3.41525 0.998146 3.27564 1.35842 3.27564H3.76555C3.87876 3.27611 3.98804 3.23519 4.07186 3.16096C4.15567 3.08672 4.20794 2.98455 4.21835 2.87458L4.36869 1.28448C4.37723 0.939396 4.5244 0.611395 4.77849 0.371142C5.03257 0.130889 5.37325 -0.00238492 5.72711 3.23163e-05H12.2747C12.635 3.23163e-05 12.9805 0.139639 13.2353 0.38814C13.49 0.636642 13.6331 0.973682 13.6331 1.32512L13.7816 2.87635C13.7921 2.98631 13.8443 3.08849 13.9281 3.16272C14.012 3.23696 14.1212 3.27788 14.2345 3.27741H16.6416C17.0019 3.27741 17.3474 3.41701 17.6021 3.66552C17.8569 3.91402 18 4.25106 18 4.60249V12.6767C17.9998 12.851 17.9643 13.0235 17.8956 13.1844C17.8268 13.3454 17.7263 13.4915 17.5996 13.6144C17.4729 13.7373 17.3226 13.8346 17.1572 13.9008C16.9919 13.967 16.8148 14.0007 16.6361 14ZM1.35842 4.15903C1.23833 4.15903 1.12316 4.20557 1.03824 4.2884C0.953321 4.37123 0.905615 4.48358 0.905615 4.60073V12.6749C0.905615 12.7921 0.953321 12.9044 1.03824 12.9872C1.12316 13.0701 1.23833 13.1166 1.35842 13.1166H16.6361C16.7562 13.1166 16.8714 13.0701 16.9563 12.9872C17.0412 12.9044 17.089 12.7921 17.089 12.6749V4.60073C17.089 4.48358 17.0412 4.37123 16.9563 4.2884C16.8714 4.20557 16.7562 4.15903 16.6361 4.15903H14.229C13.8903 4.15911 13.5638 4.03577 13.3135 3.81318C13.0632 3.5906 12.9072 3.28484 12.876 2.95585L12.7257 1.36575C12.7295 1.30484 12.7207 1.24382 12.6998 1.1863C12.6789 1.12878 12.6464 1.07595 12.6041 1.03095C12.5619 0.985946 12.5108 0.949694 12.4539 0.92435C12.397 0.899006 12.3354 0.885087 12.2729 0.883422H5.72349C5.60339 0.883422 5.48822 0.929958 5.4033 1.01279C5.31838 1.09563 5.27068 1.20797 5.27068 1.32512L5.11854 2.95585C5.08738 3.28484 4.93135 3.5906 4.68105 3.81318C4.43075 4.03577 4.10424 4.15911 3.76555 4.15903H1.35842Z" fill="white"/>
</svg>
