<svg width="26" height="26" viewBox="0 0 26 26" fill="none" xmlns="http://www.w3.org/2000/svg">
<path d="M10.6133 2.80859C10.2591 2.8086 9.91181 2.90704 9.61026 3.09292C9.30871 3.27881 9.06474 3.54482 8.90556 3.86128L8.15364 5.35748H5.99983C5.15482 5.35748 4.34442 5.69316 3.74691 6.29067C3.1494 6.88818 2.81372 7.69858 2.81372 8.54359V18.7391C2.81372 19.5842 3.1494 20.3946 3.74691 20.9921C4.34442 21.5896 5.15482 21.9253 5.99983 21.9253H12.4944C12.2863 21.5178 12.1185 21.091 11.9935 20.6508H6.00111C5.4941 20.6508 5.00786 20.4494 4.64935 20.0909C4.29085 19.7324 4.08944 19.2462 4.08944 18.7391V8.54359C4.08944 8.03659 4.29085 7.55035 4.64935 7.19184C5.00786 6.83333 5.4941 6.63193 6.00111 6.63193H8.54745C8.66547 6.63169 8.78111 6.59867 8.88147 6.53657C8.98183 6.47446 9.06297 6.3857 9.11585 6.28018L10.0436 4.43351C10.0968 4.32804 10.1782 4.23941 10.2788 4.17752C10.3794 4.11564 10.4952 4.08292 10.6133 4.08304H15.4103C15.5288 4.08281 15.645 4.1156 15.7458 4.17773C15.8467 4.23986 15.9282 4.32888 15.9813 4.43479L16.9027 6.27891C16.9557 6.38462 17.037 6.47351 17.1376 6.53563C17.2382 6.59775 17.3541 6.63065 17.4724 6.63065H20.02C20.527 6.63065 21.0132 6.83206 21.3717 7.19057C21.7303 7.54907 21.9317 8.03531 21.9317 8.54232V12.4969C22.3888 12.7314 22.8136 13.0114 23.2061 13.3368V8.54232C23.2061 7.69731 22.8704 6.88691 22.2729 6.2894C21.6754 5.69189 20.865 5.35621 20.02 5.35621H17.8662L17.1206 3.86511C16.9618 3.54754 16.7177 3.28049 16.4156 3.09388C16.1135 2.90727 15.7654 2.80849 15.4103 2.80859H10.6133ZM13.0042 7.90637C14.1423 7.90597 15.2478 8.28645 16.1446 8.98718C17.0415 9.68791 17.678 10.6686 17.9528 11.773C17.5291 11.8206 17.1107 11.9068 16.7026 12.0305C16.5314 11.3798 16.1915 10.7859 15.7174 10.3086C15.2432 9.83123 14.6515 9.48744 14.0021 9.31186C13.3526 9.13628 12.6683 9.13514 12.0182 9.30856C11.3681 9.48197 10.7753 9.82379 10.2996 10.2995C9.82382 10.7753 9.482 11.3681 9.30859 12.0182C9.13517 12.6682 9.13631 13.3525 9.31189 14.002C9.48746 14.6515 9.83126 15.2432 10.3086 15.7173C10.7859 16.1915 11.3799 16.5313 12.0305 16.7026C11.9069 17.1102 11.8208 17.5283 11.7731 17.9515C10.5689 17.6472 9.51709 16.914 8.81509 15.8893C8.1131 14.8647 7.80913 13.6191 7.96022 12.3862C8.11132 11.1534 8.70709 10.0181 9.63575 9.19326C10.5644 8.36846 11.7621 7.91087 13.0042 7.90637ZM24.4742 18.7391C24.4742 20.2602 23.87 21.7189 22.7944 22.7944C21.7189 23.8699 20.2602 24.4741 18.7392 24.4741C17.2182 24.4741 15.7594 23.8699 14.6839 22.7944C13.6084 21.7189 13.0042 20.2602 13.0042 18.7391C13.0042 17.2181 13.6084 15.7594 14.6839 14.6839C15.7594 13.6084 17.2182 13.0041 18.7392 13.0041C20.2602 13.0041 21.7189 13.6084 22.7944 14.6839C23.87 15.7594 24.4742 17.2181 24.4742 18.7391ZM19.3764 16.1903C19.3764 16.0213 19.3093 15.8592 19.1898 15.7397C19.0703 15.6202 18.9082 15.553 18.7392 15.553C18.5702 15.553 18.4081 15.6202 18.2886 15.7397C18.1691 15.8592 18.102 16.0213 18.102 16.1903V18.1019H16.1903C16.0213 18.1019 15.8592 18.1691 15.7397 18.2886C15.6202 18.4081 15.5531 18.5701 15.5531 18.7391C15.5531 18.9082 15.6202 19.0702 15.7397 19.1897C15.8592 19.3092 16.0213 19.3764 16.1903 19.3764H18.102V21.288C18.102 21.457 18.1691 21.6191 18.2886 21.7386C18.4081 21.8581 18.5702 21.9253 18.7392 21.9253C18.9082 21.9253 19.0703 21.8581 19.1898 21.7386C19.3093 21.6191 19.3764 21.457 19.3764 21.288V19.3764H21.2881C21.4571 19.3764 21.6191 19.3092 21.7387 19.1897C21.8582 19.0702 21.9253 18.9082 21.9253 18.7391C21.9253 18.5701 21.8582 18.4081 21.7387 18.2886C21.6191 18.1691 21.4571 18.1019 21.2881 18.1019H19.3764V16.1903Z" fill="white"/>
</svg>
