<svg width="35" height="33" viewBox="0 0 35 33" fill="none" xmlns="http://www.w3.org/2000/svg">
<path d="M17.5001 23.167C20.2615 23.167 22.5001 20.9284 22.5001 18.167C22.5001 15.4056 20.2615 13.167 17.5001 13.167C14.7386 13.167 12.5001 15.4056 12.5001 18.167C12.5001 20.9284 14.7386 23.167 17.5001 23.167Z" stroke="#2399F5" stroke-width="1.5"/>
<path d="M13.7966 31.5001H21.2033C26.405 31.5001 29.0066 31.5001 30.875 30.2751C31.6814 29.747 32.3757 29.0651 32.9183 28.2684C34.1666 26.4351 34.1666 23.8801 34.1666 18.7734C34.1666 13.6667 34.1666 11.1117 32.9183 9.27841C32.3757 8.48173 31.6814 7.79984 30.875 7.27174C29.675 6.48341 28.1716 6.20174 25.87 6.10174C24.7716 6.10174 23.8266 5.28508 23.6116 4.22674C23.4473 3.45153 23.0204 2.7568 22.4031 2.26C21.7857 1.76319 21.0157 1.49476 20.2233 1.50008H14.7766C13.13 1.50008 11.7116 2.64174 11.3883 4.22674C11.1733 5.28508 10.2283 6.10174 9.12998 6.10174C6.82998 6.20174 5.32665 6.48508 4.12498 7.27174C3.31921 7.80001 2.62544 8.48189 2.08331 9.27841C0.833313 11.1117 0.833313 13.6651 0.833313 18.7734C0.833313 23.8817 0.833313 26.4334 2.08165 28.2684C2.62165 29.0617 3.31498 29.7434 4.12498 30.2751C5.99331 31.5001 8.59498 31.5001 13.7966 31.5001Z" stroke="#2399F5" stroke-width="1.5"/>
<path d="M29.1667 13.167H27.5001" stroke="#2399F5" stroke-width="1.5" stroke-linecap="round"/>
</svg>
