<svg width="21" height="12" viewBox="0 0 21 12" fill="none" xmlns="http://www.w3.org/2000/svg">
<g clip-path="url(#clip0_1357_703)">
<path d="M16.2572 9.23788H17.868C18.3513 9.23788 18.6735 8.91571 18.6735 8.43246V6.01619C18.6735 5.29131 18.1097 4.64697 17.4653 4.48589C16.0156 4.08318 13.8409 3.59992 13.8409 3.59992C13.8409 3.59992 12.7939 2.47233 12.069 1.74745C11.6663 1.42528 11.183 1.18365 10.6192 1.18365H4.98129C4.49803 1.18365 4.09532 1.50582 3.85369 1.90854L2.7261 4.24426C2.61945 4.55534 2.56502 4.88192 2.56502 5.21077V8.43246C2.56502 8.91571 2.88719 9.23788 3.37044 9.23788H4.98129" stroke="#0085FE" stroke-linecap="round" stroke-linejoin="round"/>
<path d="M6.59273 10.8487C7.48238 10.8487 8.20358 10.1275 8.20358 9.23786C8.20358 8.34821 7.48238 7.62701 6.59273 7.62701C5.70309 7.62701 4.98189 8.34821 4.98189 9.23786C4.98189 10.1275 5.70309 10.8487 6.59273 10.8487Z" stroke="#0085FE" stroke-linecap="round" stroke-linejoin="round"/>
<path d="M8.20357 9.23737H13.0361" stroke="#0085FE" stroke-linecap="round" stroke-linejoin="round"/>
<path d="M14.6463 10.8487C15.536 10.8487 16.2572 10.1275 16.2572 9.23786C16.2572 8.34821 15.536 7.62701 14.6463 7.62701C13.7567 7.62701 13.0355 8.34821 13.0355 9.23786C13.0355 10.1275 13.7567 10.8487 14.6463 10.8487Z" stroke="#0085FE" stroke-linecap="round" stroke-linejoin="round"/>
</g>
<defs>
<clipPath id="clip0_1357_703">
<rect width="19.0909" height="11.8182" fill="white" transform="translate(0.954544 0.0908813)"/>
</clipPath>
</defs>
</svg>
