<svg width="26" height="26" viewBox="0 0 26 26" fill="none" xmlns="http://www.w3.org/2000/svg">
<path d="M3.625 13H13V14.5625H3.625V13ZM2.0625 9.09375H9.875V10.6562H2.0625V9.09375Z" fill="#2399F5"/>
<path d="M23.8742 13.4734L21.5305 8.00469C21.4702 7.86418 21.3701 7.74444 21.2425 7.66028C21.1149 7.57613 20.9654 7.53127 20.8125 7.53125H18.4687V5.96875C18.4687 5.76155 18.3864 5.56284 18.2399 5.41632C18.0934 5.26981 17.8947 5.1875 17.6875 5.1875H5.18749V6.75H16.9062V16.5594C16.5505 16.7664 16.2391 17.0416 15.99 17.3693C15.7409 17.6969 15.559 18.0706 15.4547 18.4688H10.5453C10.3551 17.7323 9.90293 17.0905 9.27342 16.6636C8.6439 16.2367 7.88031 16.0541 7.12577 16.1499C6.37123 16.2457 5.67754 16.6135 5.17474 17.1842C4.67193 17.7549 4.39453 18.4894 4.39453 19.25C4.39453 20.0106 4.67193 20.7451 5.17474 21.3158C5.67754 21.8865 6.37123 22.2543 7.12577 22.3501C7.88031 22.4459 8.6439 22.2633 9.27342 21.8364C9.90293 21.4095 10.3551 20.7677 10.5453 20.0312H15.4547C15.6246 20.7017 16.0133 21.2964 16.5592 21.7212C17.1051 22.146 17.777 22.3767 18.4687 22.3767C19.1604 22.3767 19.8324 22.146 20.3783 21.7212C20.9242 21.2964 21.3129 20.7017 21.4828 20.0312H23.1562C23.3634 20.0312 23.5622 19.9489 23.7087 19.8024C23.8552 19.6559 23.9375 19.4572 23.9375 19.25V13.7812C23.9375 13.6754 23.9159 13.5707 23.8742 13.4734ZM7.53124 20.8125C7.2222 20.8125 6.92011 20.7209 6.66316 20.5492C6.40621 20.3775 6.20594 20.1335 6.08768 19.8479C5.96941 19.5624 5.93847 19.2483 5.99876 18.9452C6.05905 18.6421 6.20786 18.3637 6.42638 18.1451C6.6449 17.9266 6.92331 17.7778 7.22641 17.7175C7.5295 17.6572 7.84367 17.6882 8.12918 17.8064C8.41469 17.9247 8.65872 18.125 8.83041 18.3819C9.0021 18.6389 9.09374 18.941 9.09374 19.25C9.09374 19.6644 8.92912 20.0618 8.63609 20.3549C8.34307 20.6479 7.94564 20.8125 7.53124 20.8125ZM18.4687 9.09375H20.2969L21.9719 13H18.4687V9.09375ZM18.4687 20.8125C18.1597 20.8125 17.8576 20.7209 17.6007 20.5492C17.3437 20.3775 17.1434 20.1335 17.0252 19.8479C16.9069 19.5624 16.876 19.2483 16.9363 18.9452C16.9966 18.6421 17.1454 18.3637 17.3639 18.1451C17.5824 17.9266 17.8608 17.7778 18.1639 17.7175C18.467 17.6572 18.7812 17.6882 19.0667 17.8064C19.3522 17.9247 19.5962 18.125 19.7679 18.3819C19.9396 18.6389 20.0312 18.941 20.0312 19.25C20.0312 19.6644 19.8666 20.0618 19.5736 20.3549C19.2806 20.6479 18.8831 20.8125 18.4687 20.8125ZM22.375 18.4688H21.4828C21.3107 17.7996 20.9214 17.2064 20.376 16.7822C19.8305 16.3581 19.1597 16.1269 18.4687 16.125V14.5625H22.375V18.4688Z" fill="#2399F5"/>
</svg>
