<svg width="338" height="192" viewBox="0 0 338 192" fill="none" xmlns="http://www.w3.org/2000/svg">
<rect width="338" height="192" rx="10" fill="white"/>
<g clip-path="url(#clip0_17_3966)">
<path d="M328.942 174.238H320.254V182.926H328.942V174.238Z" fill="#4AB7C3"/>
<path fill-rule="evenodd" clip-rule="evenodd" d="M331.618 186.038H322.462L327.04 190.616L331.618 186.038Z" fill="#BADA85"/>
<path fill-rule="evenodd" clip-rule="evenodd" d="M314.934 162.437L308.453 168.918V162.437H314.934Z" fill="#388D9B"/>
<path fill-rule="evenodd" clip-rule="evenodd" d="M317.142 180.718L309.098 172.674L318.69 163.082L326.734 171.11H317.142V180.718Z" fill="#98C73A"/>
<path fill-rule="evenodd" clip-rule="evenodd" d="M280.598 184.49L286.74 190.632L296.976 180.379V174.238H290.834L280.598 184.49Z" fill="#86D0DA"/>
<path fill-rule="evenodd" clip-rule="evenodd" d="M300.103 180.379L310.356 190.632L316.497 184.49L306.245 174.238H300.103V180.379Z" fill="#4AB7C3"/>
<path fill-rule="evenodd" clip-rule="evenodd" d="M330.506 170.481L336.648 164.34L326.395 154.087H320.254V160.229L330.506 170.481Z" fill="#86D0DA"/>
<path fill-rule="evenodd" clip-rule="evenodd" d="M326.395 150.96L336.648 140.724L330.506 134.582L320.254 144.818V150.96H326.395Z" fill="#4AB7C3"/>
<path fill-rule="evenodd" clip-rule="evenodd" d="M332.07 176.446V185.602L336.648 181.024L332.07 176.446Z" fill="#98C73A"/>
<path d="M298.539 183.231L294.846 186.925L298.54 190.617L302.233 186.924L298.539 183.231Z" fill="#98C73A"/>
<path d="M332.944 148.833L329.251 152.526L332.945 156.22L336.638 152.526L332.944 148.833Z" fill="#98C73A"/>
<path fill-rule="evenodd" clip-rule="evenodd" d="M318.69 186.699L322.624 190.616H314.773L318.69 186.699Z" fill="#388D9B"/>
<path fill-rule="evenodd" clip-rule="evenodd" d="M332.715 172.674L336.648 176.607V168.74L332.715 172.674Z" fill="#388D9B"/>
<path fill-rule="evenodd" clip-rule="evenodd" d="M278.389 186.699L274.456 190.616H282.323L278.389 186.699Z" fill="#388D9B"/>
<path fill-rule="evenodd" clip-rule="evenodd" d="M332.715 132.373L336.648 128.44V136.307L332.715 132.373Z" fill="#388D9B"/>
</g>
<g clip-path="url(#clip1_17_3966)">
<path d="M328.942 17.7467H320.254V9.05788H328.942V17.7467Z" fill="#4AB7C3"/>
<path fill-rule="evenodd" clip-rule="evenodd" d="M331.618 5.94641H322.462L327.04 1.36825L331.618 5.94641Z" fill="#BADA85"/>
<path fill-rule="evenodd" clip-rule="evenodd" d="M314.934 29.547L308.453 23.0666V29.547H314.934Z" fill="#388D9B"/>
<path fill-rule="evenodd" clip-rule="evenodd" d="M317.142 11.2665L309.098 19.3105L318.69 28.9021L326.734 20.8742H317.142V11.2665Z" fill="#98C73A"/>
<path fill-rule="evenodd" clip-rule="evenodd" d="M280.598 7.49421L286.74 1.35239L296.976 11.6049V17.7467H290.834L280.598 7.49421Z" fill="#86D0DA"/>
<path fill-rule="evenodd" clip-rule="evenodd" d="M300.103 11.6049L310.356 1.35239L316.497 7.49421L306.245 17.7467H300.103V11.6049Z" fill="#4AB7C3"/>
<path fill-rule="evenodd" clip-rule="evenodd" d="M330.506 21.503L336.648 27.6448L326.395 37.8973H320.254V31.7555L330.506 21.503Z" fill="#86D0DA"/>
<path fill-rule="evenodd" clip-rule="evenodd" d="M326.395 41.0242L336.648 51.2605L330.506 57.4023L320.254 47.166V41.0242H326.395Z" fill="#4AB7C3"/>
<path fill-rule="evenodd" clip-rule="evenodd" d="M332.07 15.5386V6.38226L336.648 10.9604L332.07 15.5386Z" fill="#98C73A"/>
<path d="M298.539 8.7535L294.846 5.05981L298.54 1.36718L302.233 5.06086L298.539 8.7535Z" fill="#98C73A"/>
<path d="M332.944 43.1517L329.251 39.458L332.945 35.7648L336.638 39.4585L332.944 43.1517Z" fill="#98C73A"/>
<path fill-rule="evenodd" clip-rule="evenodd" d="M318.69 5.28564L322.624 1.36842H314.773L318.69 5.28564Z" fill="#388D9B"/>
<path fill-rule="evenodd" clip-rule="evenodd" d="M332.715 19.3106L336.648 15.3772V23.2439L332.715 19.3106Z" fill="#388D9B"/>
<path fill-rule="evenodd" clip-rule="evenodd" d="M278.389 5.28564L274.456 1.36842H282.323L278.389 5.28564Z" fill="#388D9B"/>
<path fill-rule="evenodd" clip-rule="evenodd" d="M332.715 59.6111L336.648 63.5444V55.6777L332.715 59.6111Z" fill="#388D9B"/>
</g>
<g clip-path="url(#clip2_17_3966)">
<path d="M9.05754 174.238H17.7464V182.926H9.05754V174.238Z" fill="#4AB7C3"/>
<path fill-rule="evenodd" clip-rule="evenodd" d="M6.38183 186.038H15.5381L10.96 190.616L6.38183 186.038Z" fill="#BADA85"/>
<path fill-rule="evenodd" clip-rule="evenodd" d="M23.0663 162.437L29.5467 168.918V162.437H23.0663Z" fill="#388D9B"/>
<path fill-rule="evenodd" clip-rule="evenodd" d="M20.8577 180.718L28.9017 172.674L19.3101 163.082L11.2661 171.11H20.8577V180.718Z" fill="#98C73A"/>
<path fill-rule="evenodd" clip-rule="evenodd" d="M57.402 184.49L51.2601 190.632L41.0238 180.379V174.238H47.1656L57.402 184.49Z" fill="#86D0DA"/>
<path fill-rule="evenodd" clip-rule="evenodd" d="M37.897 180.379L27.6445 190.632L21.5027 184.49L31.7552 174.238H37.897V180.379Z" fill="#4AB7C3"/>
<path fill-rule="evenodd" clip-rule="evenodd" d="M7.49388 170.481L1.35206 164.34L11.6045 154.087H17.7464V160.229L7.49388 170.481Z" fill="#86D0DA"/>
<path fill-rule="evenodd" clip-rule="evenodd" d="M11.6045 150.96L1.35206 140.724L7.49388 134.582L17.7464 144.818V150.96H11.6045Z" fill="#4AB7C3"/>
<path fill-rule="evenodd" clip-rule="evenodd" d="M5.93024 176.446V185.602L1.35208 181.024L5.93024 176.446Z" fill="#98C73A"/>
<path d="M39.4612 183.231L43.1538 186.925L39.4601 190.617L35.7675 186.924L39.4612 183.231Z" fill="#98C73A"/>
<path d="M5.05594 148.833L8.7491 152.526L5.05542 156.22L1.36226 152.526L5.05594 148.833Z" fill="#98C73A"/>
<path fill-rule="evenodd" clip-rule="evenodd" d="M19.3098 186.699L15.3764 190.616H23.227L19.3098 186.699Z" fill="#388D9B"/>
<path fill-rule="evenodd" clip-rule="evenodd" d="M5.28526 172.674L1.35192 176.607V168.74L5.28526 172.674Z" fill="#388D9B"/>
<path fill-rule="evenodd" clip-rule="evenodd" d="M59.6107 186.699L63.5441 190.616H55.6774L59.6107 186.699Z" fill="#388D9B"/>
<path fill-rule="evenodd" clip-rule="evenodd" d="M5.28526 132.373L1.35192 128.44V136.307L5.28526 132.373Z" fill="#388D9B"/>
</g>
<g clip-path="url(#clip3_17_3966)">
<path d="M9.05754 17.7467H17.7464V9.05788H9.05754V17.7467Z" fill="#4AB7C3"/>
<path fill-rule="evenodd" clip-rule="evenodd" d="M6.38183 5.94641H15.5381L10.96 1.36825L6.38183 5.94641Z" fill="#BADA85"/>
<path fill-rule="evenodd" clip-rule="evenodd" d="M23.0663 29.547L29.5467 23.0666V29.547H23.0663Z" fill="#388D9B"/>
<path fill-rule="evenodd" clip-rule="evenodd" d="M20.8577 11.2665L28.9017 19.3105L19.3101 28.9021L11.2661 20.8742H20.8577V11.2665Z" fill="#98C73A"/>
<path fill-rule="evenodd" clip-rule="evenodd" d="M57.402 7.49421L51.2601 1.35239L41.0238 11.6049V17.7467H47.1656L57.402 7.49421Z" fill="#86D0DA"/>
<path fill-rule="evenodd" clip-rule="evenodd" d="M37.897 11.6049L27.6445 1.35239L21.5027 7.49421L31.7552 17.7467H37.897V11.6049Z" fill="#4AB7C3"/>
<path fill-rule="evenodd" clip-rule="evenodd" d="M7.49388 21.503L1.35206 27.6448L11.6045 37.8973H17.7464V31.7555L7.49388 21.503Z" fill="#86D0DA"/>
<path fill-rule="evenodd" clip-rule="evenodd" d="M11.6045 41.0242L1.35206 51.2605L7.49388 57.4023L17.7464 47.166V41.0242H11.6045Z" fill="#4AB7C3"/>
<path fill-rule="evenodd" clip-rule="evenodd" d="M5.93024 15.5386V6.38226L1.35208 10.9604L5.93024 15.5386Z" fill="#98C73A"/>
<path d="M39.4612 8.7535L43.1538 5.05981L39.4601 1.36718L35.7675 5.06086L39.4612 8.7535Z" fill="#98C73A"/>
<path d="M5.05594 43.1517L8.7491 39.458L5.05542 35.7648L1.36226 39.4585L5.05594 43.1517Z" fill="#98C73A"/>
<path fill-rule="evenodd" clip-rule="evenodd" d="M19.3098 5.28564L15.3764 1.36842H23.227L19.3098 5.28564Z" fill="#388D9B"/>
<path fill-rule="evenodd" clip-rule="evenodd" d="M5.28526 19.3106L1.35192 15.3772V23.2439L5.28526 19.3106Z" fill="#388D9B"/>
<path fill-rule="evenodd" clip-rule="evenodd" d="M59.6107 5.28564L63.5441 1.36842H55.6774L59.6107 5.28564Z" fill="#388D9B"/>
<path fill-rule="evenodd" clip-rule="evenodd" d="M5.28526 59.6111L1.35192 63.5444V55.6777L5.28526 59.6111Z" fill="#388D9B"/>
</g>
<defs>
<clipPath id="clip0_17_3966">
<rect width="62.192" height="62.192" fill="white" transform="translate(274.456 128.44)"/>
</clipPath>
<clipPath id="clip1_17_3966">
<rect width="62.192" height="62.192" fill="white" transform="matrix(1 0 0 -1 274.456 63.5442)"/>
</clipPath>
<clipPath id="clip2_17_3966">
<rect width="62.192" height="62.192" fill="white" transform="matrix(-1 0 0 1 63.544 128.44)"/>
</clipPath>
<clipPath id="clip3_17_3966">
<rect width="62.192" height="62.192" fill="white" transform="matrix(-1 0 0 -1 63.544 63.5442)"/>
</clipPath>
</defs>
</svg>
