<svg width="15" height="17" viewBox="0 0 15 17" fill="none" xmlns="http://www.w3.org/2000/svg">
<path fill-rule="evenodd" clip-rule="evenodd" d="M0.859375 4.38064L7.61937 0.477539L14.3794 4.38064V12.186L7.61937 16.0891L0.859375 12.186V4.38064Z" fill="#090707"/>
<path fill-rule="evenodd" clip-rule="evenodd" d="M0.859375 4.38064L7.61937 0.477539L14.3794 4.38064V12.186L7.61937 16.0891L0.859375 12.186V4.38064Z" fill="url(#paint0_linear_5317_9555)"/>
<path fill-rule="evenodd" clip-rule="evenodd" d="M9.87107 8.74987L9.87285 8.75075L8.07423 11.8663L8.06354 11.8743C7.9558 12.1317 7.70159 12.3124 7.40598 12.3124C7.10947 12.3124 6.85571 12.1317 6.74841 11.8743L6.73727 11.8663L4.93776 8.75075C4.15108 7.38798 4.61811 5.64545 5.98088 4.85877C7.34365 4.07209 9.08617 4.53867 9.87285 5.90144C10.4009 6.81456 10.3626 7.89686 9.87107 8.74987ZM7.40598 6.2576C6.81563 6.2576 6.33749 6.73576 6.33749 7.32566C6.33749 7.91555 6.81563 8.3937 7.40598 8.3937C7.99543 8.3937 8.47402 7.91555 8.47402 7.32566C8.47402 6.73576 7.99543 6.2576 7.40598 6.2576Z" fill="white"/>
<defs>
<linearGradient id="paint0_linear_5317_9555" x1="11.6754" y1="0.477539" x2="5.25307" y2="16.0258" gradientUnits="userSpaceOnUse">
<stop stop-color="#2BC7CF"/>
<stop offset="1" stop-color="#3F60F3"/>
</linearGradient>
</defs>
</svg>
