<svg width="14" height="13" viewBox="0 0 14 13" fill="none" xmlns="http://www.w3.org/2000/svg">
<path fill-rule="evenodd" clip-rule="evenodd" d="M4.4399 2.11909H8.38893C8.64607 2.11911 8.89423 2.21365 9.08618 2.38474C9.27814 2.55583 9.4005 2.79152 9.42999 3.04696L9.99454 7.93783C10.0115 8.08462 9.99719 8.23333 9.95261 8.37421C9.90802 8.51509 9.83415 8.64495 9.73584 8.75527C9.63753 8.86559 9.51701 8.95387 9.38217 9.01433C9.24734 9.07478 9.10125 9.10604 8.95348 9.10605H3.87536C3.72759 9.10604 3.5815 9.07478 3.44666 9.01433C3.31183 8.95387 3.1913 8.86559 3.09299 8.75527C2.99468 8.64495 2.92081 8.51509 2.87623 8.37421C2.83165 8.23333 2.81736 8.08462 2.8343 7.93783L3.39885 3.04696C3.42833 2.79152 3.5507 2.55583 3.74265 2.38474C3.93461 2.21365 4.18277 2.11911 4.4399 2.11909ZM2.35779 2.92678C2.41676 2.4159 2.66149 1.94453 3.0454 1.60235C3.42932 1.26018 3.92563 1.07108 4.4399 1.07104H8.38893C8.90321 1.07108 9.39952 1.26018 9.78343 1.60235C10.1674 1.94453 10.4121 2.4159 10.471 2.92678L11.0356 7.81765C11.0695 8.11123 11.0409 8.40867 10.9517 8.69043C10.8626 8.97219 10.7148 9.2319 10.5182 9.45254C10.3216 9.67318 10.0805 9.84974 9.81087 9.97065C9.5412 10.0916 9.24901 10.1541 8.95348 10.1541H3.87536C3.57983 10.1541 3.28764 10.0916 3.01797 9.97065C2.7483 9.84974 2.50725 9.67318 2.31063 9.45254C2.11401 9.2319 1.96627 8.97219 1.8771 8.69043C1.78793 8.40867 1.75936 8.11123 1.79324 7.81765L2.35779 2.92678ZM4.31833 3.69115C4.31833 3.55217 4.37354 3.41889 4.47181 3.32061C4.57009 3.22234 4.70337 3.16713 4.84235 3.16713C4.98133 3.16713 5.11462 3.22234 5.21289 3.32061C5.31117 3.41889 5.36637 3.55217 5.36637 3.69115V3.86583C5.36637 4.14379 5.47679 4.41036 5.67334 4.60691C5.86989 4.80345 6.13646 4.91387 6.41442 4.91387C6.69238 4.91387 6.95895 4.80345 7.1555 4.60691C7.35204 4.41036 7.46246 4.14379 7.46246 3.86583V3.69115C7.46246 3.55217 7.51767 3.41889 7.61594 3.32061C7.71422 3.22234 7.84751 3.16713 7.98648 3.16713C8.12546 3.16713 8.25875 3.22234 8.35702 3.32061C8.4553 3.41889 8.51051 3.55217 8.51051 3.69115V3.86583C8.51051 4.42175 8.28967 4.95489 7.89658 5.34799C7.50348 5.74108 6.97034 5.96192 6.41442 5.96192C5.8585 5.96192 5.32535 5.74108 4.93226 5.34799C4.53917 4.95489 4.31833 4.42175 4.31833 3.86583V3.69115Z" fill="#191A33"/>
</svg>
