<svg width="19" height="19" viewBox="0 0 19 19" fill="none" xmlns="http://www.w3.org/2000/svg">
<path d="M9.5 13.25C9.7125 13.25 9.89075 13.178 10.0348 13.034C10.1788 12.89 10.2505 12.712 10.25 12.5C10.2495 12.288 10.1775 12.11 10.034 11.966C9.8905 11.822 9.7125 11.75 9.5 11.75C9.2875 11.75 9.1095 11.822 8.966 11.966C8.8225 12.11 8.7505 12.288 8.75 12.5C8.7495 12.712 8.8215 12.8902 8.966 13.0347C9.1105 13.1792 9.2885 13.251 9.5 13.25ZM8.75 10.25H10.25V5.75H8.75V10.25ZM9.5 17C8.4625 17 7.4875 16.803 6.575 16.409C5.6625 16.015 4.86875 15.4808 4.19375 14.8063C3.51875 14.1318 2.9845 13.338 2.591 12.425C2.1975 11.512 2.0005 10.537 2 9.5C1.9995 8.463 2.1965 7.488 2.591 6.575C2.9855 5.662 3.51975 4.86825 4.19375 4.19375C4.86775 3.51925 5.6615 2.985 6.575 2.591C7.4885 2.197 8.4635 2 9.5 2C10.5365 2 11.5115 2.197 12.425 2.591C13.3385 2.985 14.1323 3.51925 14.8063 4.19375C15.4803 4.86825 16.0148 5.662 16.4098 6.575C16.8048 7.488 17.0015 8.463 17 9.5C16.9985 10.537 16.8015 11.512 16.409 12.425C16.0165 13.338 15.4823 14.1318 14.8063 14.8063C14.1303 15.4808 13.3365 16.0152 12.425 16.4097C11.5135 16.8042 10.5385 17.001 9.5 17ZM9.5 15.5C11.175 15.5 12.5938 14.9187 13.7563 13.7562C14.9187 12.5937 15.5 11.175 15.5 9.5C15.5 7.825 14.9187 6.40625 13.7563 5.24375C12.5938 4.08125 11.175 3.5 9.5 3.5C7.825 3.5 6.40625 4.08125 5.24375 5.24375C4.08125 6.40625 3.5 7.825 3.5 9.5C3.5 11.175 4.08125 12.5937 5.24375 13.7562C6.40625 14.9187 7.825 15.5 9.5 15.5Z" fill="white"/>
</svg>
