<svg width="24" height="24" viewBox="0 0 24 24" fill="none" xmlns="http://www.w3.org/2000/svg">
<circle cx="12" cy="12" r="11.5" fill="#6DAE4F" stroke="#165209"/>
<g clip-path="url(#clip0_1604_11481)">
<path d="M15.75 12.8749C15.6719 12.2906 15.6219 10.5406 15.3531 10.2562C14.7 9.56557 14.1531 9.14682 13.8781 8.19682C13.7063 7.60932 13.5844 7.39995 13.0562 7.39057C12.9503 7.4007 12.8474 7.43179 12.7535 7.48204C12.6597 7.53229 12.5768 7.6007 12.5096 7.68328C12.4424 7.76586 12.3924 7.86097 12.3623 7.96308C12.3322 8.06519 12.3227 8.17227 12.3344 8.27807C12.3427 8.54488 12.3667 8.81096 12.4062 9.07495C12.5548 9.81172 12.7639 10.535 13.0312 11.2374L8.00313 7.43745C7.64375 7.1687 7.125 7.04682 6.775 7.51557C6.425 7.98432 6.70625 8.41557 7.06563 8.68745L9.56563 10.5624L10.3125 11.1249L6.31562 8.12807C5.95625 7.85932 5.4375 7.73745 5.08438 8.2062C4.73125 8.67495 5.01875 9.1062 5.375 9.37807L7.875 11.2531L9.375 12.3812L6.125 9.93745C5.76562 9.6687 5.24687 9.54682 4.89375 10.0156C4.54062 10.4843 4.82813 10.9187 5.1875 11.1874L7.6875 13.0624L8.9375 13.9999L6.4375 12.1249C6.07812 11.8562 5.56875 11.7218 5.23125 12.1718C4.89375 12.6218 5.14063 13.1093 5.5 13.3749L10.0406 16.7124C10.3692 16.9567 10.7435 17.1323 11.1413 17.2289C11.5391 17.3256 11.9523 17.3412 12.3562 17.2749" fill="white"/>
<path d="M15.75 12.8749C15.6719 12.2906 15.6219 10.5406 15.3531 10.2562C14.7 9.56557 14.1531 9.14682 13.8781 8.19682C13.7063 7.60932 13.5844 7.39995 13.0562 7.39057C12.9503 7.4007 12.8474 7.43179 12.7535 7.48204C12.6597 7.53229 12.5768 7.6007 12.5096 7.68328C12.4424 7.76586 12.3924 7.86097 12.3623 7.96308C12.3322 8.06519 12.3227 8.17227 12.3344 8.27807C12.3427 8.54488 12.3667 8.81096 12.4062 9.07495C12.5548 9.81172 12.7639 10.535 13.0312 11.2374L8.00313 7.43745C7.64375 7.1687 7.125 7.04682 6.775 7.51557C6.425 7.98432 6.70625 8.41557 7.06563 8.68745L9.56562 10.5624L10.3125 11.1249L6.31562 8.12807C5.95625 7.85932 5.4375 7.73745 5.08438 8.2062C4.73125 8.67495 5.01875 9.1062 5.375 9.37807L7.875 11.2531L9.375 12.3812L6.125 9.93745C5.76563 9.6687 5.24687 9.54682 4.89375 10.0156C4.54062 10.4843 4.82813 10.9187 5.1875 11.1874L7.6875 13.0624L8.9375 13.9999L6.4375 12.1249C6.07813 11.8562 5.56875 11.7218 5.23125 12.1718C4.89375 12.6218 5.14063 13.1093 5.5 13.3749L10.0406 16.7124C10.3692 16.9567 10.7435 17.1323 11.1413 17.2289C11.5391 17.3256 11.9523 17.3412 12.3563 17.2749" stroke="#165209" stroke-width="0.625" stroke-linecap="round" stroke-linejoin="round"/>
<path d="M18.3032 13.9625C18.0781 13.7239 17.9057 13.4407 17.7969 13.1312C17.7407 12.8969 17.7251 12.6531 17.6813 12.4156C17.6126 12.05 17.5532 11.5 17.2844 11.2156C16.6407 10.4484 16.181 9.5441 15.9407 8.57186C15.7688 7.98436 15.6469 7.77498 15.1188 7.76561C15.013 7.77535 14.9101 7.80607 14.8163 7.856C14.7225 7.90592 14.6396 7.97404 14.5724 8.05637C14.5052 8.1387 14.455 8.2336 14.4249 8.33552C14.3948 8.43744 14.3853 8.54435 14.3969 8.64998C14.4052 8.91679 14.4292 9.18287 14.4688 9.44686C14.6657 10.4781 14.8782 11.3219 14.9032 11.3719L10.1407 7.80936C9.78131 7.53748 9.26256 7.41561 8.90944 7.88436C8.55631 8.35311 8.84068 8.78748 9.20006 9.05623L11.7001 10.9312L12.4376 11.5L8.45006 8.49373C8.09069 8.22498 7.57194 8.10311 7.22194 8.57186C6.87194 9.04061 7.15319 9.47186 7.51256 9.74373L10.0126 11.6187L11.5001 12.75L8.26256 10.3062C7.90319 10.0344 7.38131 9.91561 7.03131 10.3812C6.68131 10.8469 6.96256 11.2844 7.32194 11.5562L9.82193 13.4312L11.0719 14.3687L8.57194 12.4937C8.21256 12.225 7.70006 12.0906 7.36256 12.5406C7.02506 12.9906 7.27194 13.4781 7.63131 13.7437L12.1032 17.0875C12.4726 17.3629 12.9002 17.55 13.3532 17.6344C13.5532 17.6719 13.7657 17.6906 14.0001 17.7344C14.3358 17.7852 14.661 17.8907 14.9626 18.0469C15.1722 18.1472 15.4116 18.1662 15.6344 18.1C16.4153 17.8282 17.0967 17.3286 17.5907 16.6656C18.0604 16.0295 18.3301 15.268 18.3657 14.4781C18.3952 14.3038 18.3735 14.1247 18.3032 13.9625Z" fill="white" stroke="#165209" stroke-width="0.625" stroke-linecap="round" stroke-linejoin="round"/>
<path d="M7.75 4.51562L7.99687 5.61563M11.25 5.875L10.3313 6.5M9.8375 4.3125L9.16563 6.0625" stroke="#165209" stroke-width="0.625" stroke-linecap="round" stroke-linejoin="round"/>
</g>
<defs>
<clipPath id="clip0_1604_11481">
<rect width="15" height="15" fill="white" transform="translate(4 4)"/>
</clipPath>
</defs>
</svg>
