<svg width="19" height="19" viewBox="0 0 19 19" fill="none" xmlns="http://www.w3.org/2000/svg">
<path d="M14 10.0625L15.0755 12.1454L17.375 12.4796L15.6875 14L16.1212 16.25L14 14.9844L11.8788 16.25L12.3125 14L10.625 12.4796L12.9875 12.1454L14 10.0625ZM3.875 9.5H7.25V10.625H3.875V9.5ZM3.875 7.25H9.5V8.375H3.875V7.25ZM3.875 5H9.5V6.125H3.875V5Z" fill="#25BAFF"/>
<path d="M9.5 15.125H2.75V3.875H16.25V9.5H17.375V3.875C17.375 3.57663 17.2565 3.29048 17.0455 3.0795C16.8345 2.86853 16.5484 2.75 16.25 2.75H2.75C2.45163 2.75 2.16548 2.86853 1.9545 3.0795C1.74353 3.29048 1.625 3.57663 1.625 3.875V15.125C1.625 15.4234 1.74353 15.7095 1.9545 15.9205C2.16548 16.1315 2.45163 16.25 2.75 16.25H9.5V15.125Z" fill="#25BAFF"/>
</svg>
