<svg width="20" height="20" viewBox="0 0 20 20" fill="none" xmlns="http://www.w3.org/2000/svg">
<path d="M3.92889 1C3.13964 1 2.38272 1.31782 1.82463 1.88353C1.26655 2.44925 0.953024 3.21653 0.953024 4.01657V9.50432C1.31233 9.15439 1.71201 8.84973 2.14337 8.59693V4.01657C2.14337 3.53654 2.33149 3.07618 2.66634 2.73675C3.00119 2.39732 3.45534 2.20663 3.92889 2.20663H11.309C11.7826 2.20663 12.2367 2.39732 12.5716 2.73675C12.9064 3.07618 13.0946 3.53654 13.0946 4.01657V11.4977C13.0945 11.964 12.9169 12.4122 12.5988 12.7491C12.2807 13.0859 11.8467 13.2853 11.3871 13.3057C11.433 13.7062 11.4406 14.1103 11.41 14.5123C12.1813 14.4858 12.9122 14.1565 13.4486 13.5941C13.985 13.0316 14.2849 12.28 14.2849 11.4977V10.9663L17.5736 13.268C18.6002 13.9862 20 13.2415 20 11.9769V3.53682C20 2.27227 18.6002 1.52754 17.5736 2.24572L14.2849 4.54797V4.01657C14.2849 3.21653 13.9714 2.44925 13.4133 1.88353C12.8552 1.31782 12.0983 1 11.309 1H3.92889ZM14.2849 6.01378L18.2497 3.23854C18.3033 3.20102 18.3661 3.1791 18.4311 3.17513C18.4961 3.17116 18.561 3.1853 18.6187 3.21603C18.6763 3.24675 18.7246 3.29288 18.7583 3.34943C18.792 3.40597 18.8097 3.47077 18.8097 3.53682V11.9769C18.8096 12.0429 18.7918 12.1077 18.7581 12.1642C18.7244 12.2206 18.6761 12.2667 18.6185 12.2974C18.5608 12.328 18.496 12.3421 18.431 12.3381C18.366 12.3341 18.3033 12.3122 18.2497 12.2747L14.2849 9.49949V6.01378ZM2.33097 11.5136C2.36942 11.6404 2.38167 11.7739 2.36694 11.9058C2.35221 12.0376 2.31083 12.165 2.24537 12.2799C2.17991 12.3948 2.09179 12.4948 1.9865 12.5736C1.88121 12.6525 1.76102 12.7084 1.63343 12.7381L0.0812137 13.0991C-0.0197022 13.6732 -0.0266194 14.2603 0.0607398 14.8366L1.71008 15.2556C1.83398 15.2871 1.95035 15.3435 2.05229 15.4216C2.15422 15.4996 2.23962 15.5976 2.30342 15.7098C2.36721 15.822 2.40809 15.946 2.42362 16.0745C2.43915 16.203 2.42902 16.3334 2.39382 16.4579L1.91911 18.1385C2.35942 18.5047 2.85573 18.7957 3.38847 19L4.58739 17.7417C4.67616 17.6486 4.78252 17.5745 4.90013 17.5239C5.01775 17.4732 5.1442 17.4471 5.27198 17.4471C5.39975 17.447 5.52623 17.4731 5.64387 17.5236C5.76152 17.5741 5.86793 17.6482 5.95677 17.7412L7.13949 18.9802C7.67553 18.7681 8.17342 18.4679 8.61314 18.0916L8.14605 16.5496C8.10759 16.4228 8.09533 16.2893 8.11003 16.1575C8.12473 16.0257 8.16607 15.8983 8.23148 15.7834C8.29689 15.6685 8.38496 15.5685 8.4902 15.4897C8.59543 15.4108 8.71557 15.3548 8.84312 15.3251L10.3953 14.9641C10.4962 14.39 10.5032 13.8029 10.4158 13.2265L8.76694 12.8076C8.643 12.7761 8.52657 12.7197 8.42459 12.6417C8.3226 12.5637 8.23715 12.4657 8.1733 12.3535C8.10946 12.2413 8.06854 12.1173 8.05298 11.9887C8.03742 11.8602 8.04754 11.7298 8.08273 11.6053L8.55791 9.92471C8.11745 9.5584 7.62098 9.2674 7.08807 9.06317L5.88915 10.3214C5.80035 10.4146 5.69397 10.4886 5.57634 10.5392C5.45871 10.5898 5.33224 10.6159 5.20447 10.6159C5.07669 10.6159 4.95023 10.5898 4.8326 10.5392C4.71497 10.4886 4.60858 10.4146 4.51978 10.3214L3.33705 9.08296C2.80105 9.29493 2.30316 9.59498 1.8634 9.97104L2.33097 11.5136ZM5.23827 15.4795C4.85943 15.4795 4.49611 15.327 4.22823 15.0554C3.96035 14.7839 3.80986 14.4156 3.80986 14.0316C3.80986 13.6476 3.96035 13.2793 4.22823 13.0077C4.49611 12.7362 4.85943 12.5836 5.23827 12.5836C5.61711 12.5836 5.98043 12.7362 6.24831 13.0077C6.51619 13.2793 6.66669 13.6476 6.66669 14.0316C6.66669 14.4156 6.51619 14.7839 6.24831 15.0554C5.98043 15.327 5.61711 15.4795 5.23827 15.4795Z" fill="#161F28"/>
</svg>
