<svg width="34" height="35" viewBox="0 0 34 35" fill="none" xmlns="http://www.w3.org/2000/svg">
<path fill-rule="evenodd" clip-rule="evenodd" d="M28.4378 19.166C28.4113 18.9365 28.2412 18.7506 28.0128 18.7054C27.0566 18.5147 26.0684 18.5147 25.1122 18.7054C24.8838 18.7506 24.7137 18.9365 24.6872 19.166L24.5119 20.6923C24.4269 20.7252 24.3419 20.7608 24.2569 20.798L23.0563 19.8417C22.8756 19.6983 22.6206 19.6877 22.4294 19.8157C21.6165 20.3587 20.9206 21.0556 20.3787 21.8679C20.2512 22.0597 20.2619 22.3131 20.4053 22.4937L21.3615 23.696C21.3244 23.7799 21.2872 23.8649 21.2553 23.9504L19.7306 24.1247C19.4969 24.1513 19.3109 24.3223 19.2684 24.5492C19.0772 25.507 19.0772 26.493 19.2684 27.4508C19.3109 27.6777 19.4969 27.8487 19.7306 27.8753L21.2553 28.0496C21.2872 28.1351 21.3244 28.2201 21.3615 28.304L20.4053 29.5063C20.2619 29.6869 20.2512 29.9403 20.3787 30.1321C20.9206 30.9444 21.6165 31.6413 22.4294 32.1843C22.6206 32.3123 22.8756 32.3017 23.0563 32.1583L24.2569 31.2025C24.3419 31.2392 24.4269 31.2748 24.5119 31.3077L24.6872 32.834C24.7137 33.0635 24.8838 33.2494 25.1122 33.2946C26.0684 33.4853 27.0566 33.4853 28.0128 33.2946C28.2412 33.2494 28.4113 33.0635 28.4378 32.834L28.6131 31.3077C28.6981 31.2748 28.7831 31.2392 28.8681 31.202L30.0687 32.1583C30.2494 32.3017 30.5044 32.3123 30.6956 32.1843C31.5085 31.6413 32.2044 30.9444 32.7463 30.1321C32.8738 29.9403 32.8631 29.6869 32.7197 29.5063L31.7635 28.304C31.8006 28.2201 31.8378 28.1351 31.8697 28.0496L33.3944 27.8753C33.6281 27.8487 33.8141 27.6777 33.8566 27.4508C34.0478 26.493 34.0478 25.507 33.8566 24.5492C33.8141 24.3223 33.6281 24.1513 33.3944 24.1247L31.8697 23.9504C31.8378 23.8649 31.8006 23.7799 31.7635 23.696L32.7197 22.4937C32.8631 22.3131 32.8738 22.0597 32.7463 21.8679C32.2044 21.0556 31.5085 20.3587 30.6956 19.8157C30.5044 19.6877 30.2494 19.6983 30.0687 19.8417L28.8681 20.7975C28.7831 20.7608 28.6981 20.7252 28.6131 20.6923L28.4378 19.166ZM27.4284 19.684L27.5931 21.1433C27.6197 21.3516 27.7631 21.5263 27.9597 21.5896C28.2147 21.6692 28.4591 21.7707 28.6928 21.8924C28.8788 21.9885 29.1019 21.9667 29.2665 21.8366L30.4194 20.9223C30.8763 21.2724 31.2907 21.6841 31.6413 22.1452L30.7275 23.2954C30.5947 23.459 30.5734 23.6843 30.6691 23.8702C30.7912 24.105 30.8922 24.3494 30.9719 24.6012C31.0357 24.801 31.2109 24.9444 31.4181 24.9683L32.8791 25.1351C32.9588 25.7089 32.9588 26.2911 32.8791 26.8649L31.4181 27.0317C31.2109 27.0556 31.0357 27.199 30.9719 27.3988C30.8922 27.6506 30.7912 27.895 30.6691 28.1298C30.5734 28.3157 30.5947 28.541 30.7275 28.7046L31.6413 29.8548C31.2907 30.3159 30.8763 30.7276 30.4194 31.0777L29.2665 30.1634C29.1019 30.0333 28.8788 30.0115 28.6928 30.1076C28.4591 30.2293 28.2147 30.3308 27.9597 30.4104C27.7631 30.4737 27.6197 30.6484 27.5931 30.8567L27.4284 32.316C26.8547 32.3947 26.2703 32.3947 25.6966 32.316L25.5319 30.8567C25.5053 30.6484 25.3619 30.4737 25.1653 30.4104C24.9103 30.3308 24.6659 30.2293 24.4322 30.1076C24.2462 30.0115 24.0231 30.0333 23.8585 30.1634L22.7056 31.0777C22.2487 30.7276 21.8343 30.3159 21.4837 29.8548L22.3975 28.7046C22.5303 28.541 22.5516 28.3157 22.4559 28.1298C22.3338 27.895 22.2328 27.6506 22.1531 27.3988C22.0893 27.199 21.9141 27.0556 21.7069 27.0317L20.2459 26.8649C20.1662 26.2911 20.1662 25.7089 20.2459 25.1351L21.7069 24.9683C21.9141 24.9444 22.0893 24.801 22.1531 24.6012C22.2328 24.3494 22.3338 24.105 22.4559 23.8702C22.5516 23.6843 22.5303 23.459 22.3975 23.2954L21.4837 22.1452C21.8343 21.6841 22.2487 21.2724 22.7056 20.9223L23.8585 21.8366C24.0231 21.9667 24.2462 21.9885 24.4322 21.8924C24.6659 21.7707 24.9103 21.6692 25.1653 21.5896C25.3619 21.5263 25.5053 21.3516 25.5319 21.1433L25.6966 19.684C26.2703 19.6053 26.8547 19.6053 27.4284 19.684ZM26.5625 22.8125C24.8041 22.8125 23.375 24.241 23.375 26C23.375 27.759 24.8041 29.1875 26.5625 29.1875C28.3209 29.1875 29.75 27.759 29.75 26C29.75 24.241 28.3209 22.8125 26.5625 22.8125ZM26.5625 23.875C27.7366 23.875 28.6875 24.827 28.6875 26C28.6875 27.173 27.7366 28.125 26.5625 28.125C25.3884 28.125 24.4375 27.173 24.4375 26C24.4375 24.827 25.3884 23.875 26.5625 23.875ZM26.0312 1.5625H3.71875C1.66281 1.5625 0 3.22744 0 5.28125V24.4062C0 26.4601 1.66281 28.125 3.71875 28.125H18.0625C18.3547 28.125 18.5938 27.887 18.5938 27.5938C18.5938 27.3005 18.3547 27.0625 18.0625 27.0625H15.4062V23.875H18.5938C18.8859 23.875 19.125 23.637 19.125 23.3438C19.125 23.0505 18.8859 22.8125 18.5938 22.8125H1.0625V6.875H28.6875V18.0312C28.6875 18.3245 28.9266 18.5625 29.2188 18.5625C29.5109 18.5625 29.75 18.3245 29.75 18.0312V5.28125C29.75 3.22744 28.0872 1.5625 26.0312 1.5625ZM10.625 23.875V27.0625H14.3438V23.875H10.625ZM5.84375 23.875V27.0625H9.5625V23.875H5.84375ZM1.0625 23.875V24.4062C1.0625 25.873 2.2525 27.0625 3.71875 27.0625H4.78125V23.875H1.0625ZM10.8853 9.06694C10.7206 8.97557 10.5187 8.97769 10.3541 9.07331C10.1947 9.16894 10.0938 9.34319 10.0938 9.53125V20.1562C10.0938 20.3443 10.1947 20.5186 10.3541 20.6142C10.5187 20.7098 10.7206 20.7119 10.8853 20.6206L20.4478 15.3081C20.6125 15.2146 20.7188 15.0366 20.7188 14.8438C20.7188 14.6509 20.6125 14.4729 20.4478 14.3794L10.8853 9.06694ZM11.1562 10.4344L19.0931 14.8438L11.1562 19.2531V10.4344ZM28.6875 5.8125V5.28125C28.6875 3.81447 27.4975 2.625 26.0312 2.625H24.9688V5.8125H28.6875ZM4.78125 2.625H3.71875C2.2525 2.625 1.0625 3.81447 1.0625 5.28125V5.8125H4.78125V2.625ZM5.84375 2.625V5.8125H9.5625V2.625H5.84375ZM10.625 2.625V5.8125H14.3438V2.625H10.625ZM15.4062 2.625V5.8125H19.125V2.625H15.4062ZM20.1875 2.625V5.8125H23.9062V2.625H20.1875Z" fill="#090707"/>
</svg>
