<svg width="24" height="24" viewBox="0 0 24 24" fill="none" xmlns="http://www.w3.org/2000/svg">
<path d="M21.0574 12.0023H19.0574C18.7922 12.0023 18.5379 12.1077 18.3503 12.2952C18.1628 12.4828 18.0574 12.7371 18.0574 13.0023C18.0574 13.2675 18.1628 13.5219 18.3503 13.7094C18.5379 13.897 18.7922 14.0023 19.0574 14.0023V16.0023H17.8714C17.9896 15.6819 18.0521 15.3438 18.0564 15.0023C18.0564 14.3419 17.8385 13.7 17.4364 13.1761C17.0344 12.6522 16.4708 12.2756 15.8329 12.1047C15.195 11.9338 14.5186 11.9781 13.9084 12.2308C13.2983 12.4835 12.7886 12.9304 12.4584 13.5023C12.3917 13.6161 12.3482 13.7419 12.3303 13.8726C12.3125 14.0033 12.3206 14.1362 12.3543 14.2637C12.388 14.3912 12.4466 14.5107 12.5267 14.6155C12.6068 14.7203 12.7069 14.8081 12.8211 14.8741C12.9353 14.94 13.0614 14.9827 13.1922 14.9997C13.323 15.0167 13.4558 15.0077 13.5831 14.9731C13.7104 14.9386 13.8296 14.8792 13.9338 14.7984C14.038 14.7176 14.1252 14.617 14.1904 14.5023C14.2782 14.3503 14.4044 14.2241 14.5564 14.1363C14.7085 14.0485 14.8809 14.0023 15.0564 14.0023C15.3216 14.0023 15.576 14.1077 15.7635 14.2952C15.9511 14.4828 16.0564 14.7371 16.0564 15.0023C16.0564 15.2675 15.9511 15.5219 15.7635 15.7094C15.576 15.897 15.3216 16.0023 15.0564 16.0023C14.7912 16.0023 14.5369 16.1077 14.3493 16.2952C14.1618 16.4828 14.0564 16.7371 14.0564 17.0023C14.0564 17.2675 14.1618 17.5219 14.3493 17.7094C14.5369 17.897 14.7912 18.0023 15.0564 18.0023C15.3216 18.0023 15.576 18.1077 15.7635 18.2952C15.9511 18.4828 16.0564 18.7371 16.0564 19.0023C16.0564 19.2675 15.9511 19.5219 15.7635 19.7094C15.576 19.897 15.3216 20.0023 15.0564 20.0023C14.8809 20.0023 14.7085 19.9561 14.5564 19.8683C14.4044 19.7806 14.2782 19.6543 14.1904 19.5023C14.1252 19.3877 14.038 19.2871 13.9338 19.2063C13.8296 19.1255 13.7104 19.0661 13.5831 19.0315C13.4558 18.997 13.323 18.9879 13.1922 19.0049C13.0614 19.0219 12.9353 19.0646 12.8211 19.1306C12.7069 19.1965 12.6068 19.2844 12.5267 19.3891C12.4466 19.4939 12.388 19.6135 12.3543 19.741C12.3206 19.8685 12.3125 20.0014 12.3303 20.132C12.3482 20.2627 12.3917 20.3886 12.4584 20.5023C12.7886 21.0742 13.2983 21.5212 13.9084 21.7739C14.5186 22.0266 15.195 22.0709 15.8329 21.9C16.4708 21.729 17.0344 21.3524 17.4364 20.8285C17.8385 20.3046 18.0564 19.6627 18.0564 19.0023C18.0521 18.6609 17.9896 18.3227 17.8714 18.0023H19.0564V21.0023C19.0564 21.2675 19.1618 21.5219 19.3493 21.7094C19.5369 21.897 19.7912 22.0023 20.0564 22.0023C20.3216 22.0023 20.576 21.897 20.7635 21.7094C20.9511 21.5219 21.0564 21.2675 21.0564 21.0023V14.0023C21.3216 14.0023 21.576 13.897 21.7635 13.7094C21.9511 13.5219 22.0564 13.2675 22.0564 13.0023C22.0564 12.7371 21.9511 12.4828 21.7635 12.2952C21.576 12.1077 21.3226 12.0023 21.0574 12.0023ZM9.08642 11.2453C9.11757 11.3735 9.17377 11.4943 9.25179 11.6007C9.32981 11.707 9.42811 11.7969 9.54102 11.8652C9.65393 11.9334 9.77923 11.9786 9.90969 11.9982C10.0401 12.0178 10.1732 12.0113 10.3012 11.9793C10.4291 11.9472 10.5495 11.8902 10.6553 11.8114C10.7611 11.7326 10.8503 11.6337 10.9177 11.5203C10.9851 11.4069 11.0295 11.2813 11.0481 11.1507C11.0668 11.0201 11.0594 10.8871 11.0264 10.7593L9.26942 3.72932C9.14652 3.23551 8.86194 2.797 8.461 2.48362C8.06006 2.17024 7.5658 2 7.05692 2C6.54804 2 6.05379 2.17024 5.65285 2.48362C5.25191 2.797 4.96733 3.23551 4.84442 3.72932L3.08642 10.7593C3.05345 10.8871 3.04608 11.0201 3.06474 11.1507C3.08339 11.2813 3.1277 11.4069 3.19511 11.5203C3.26253 11.6337 3.35171 11.7326 3.45753 11.8114C3.56335 11.8902 3.68371 11.9472 3.81168 11.9793C3.93965 12.0113 4.0727 12.0178 4.20316 11.9982C4.33362 11.9786 4.45891 11.9334 4.57183 11.8652C4.68474 11.7969 4.78304 11.707 4.86106 11.6007C4.93908 11.4943 4.99528 11.3735 5.02642 11.2453L5.58642 9.00232H8.52642L9.08642 11.2453ZM6.08742 7.00232L6.78442 4.21532C6.80544 4.15994 6.84282 4.11225 6.89158 4.0786C6.94034 4.04495 6.99818 4.02693 7.05742 4.02693C7.11667 4.02693 7.17451 4.04495 7.22327 4.0786C7.27203 4.11225 7.3094 4.15994 7.33042 4.21532L8.02742 7.00232H6.08742ZM14.0574 7.00232H15.0574C15.3226 7.00232 15.577 7.10768 15.7645 7.29522C15.9521 7.48275 16.0574 7.73711 16.0574 8.00232V9.00232C16.0574 9.26754 16.1628 9.52189 16.3503 9.70943C16.5379 9.89697 16.7922 10.0023 17.0574 10.0023C17.3226 10.0023 17.577 9.89697 17.7645 9.70943C17.9521 9.52189 18.0574 9.26754 18.0574 9.00232V8.00232C18.0566 7.20692 17.7403 6.44432 17.1779 5.88188C16.6154 5.31944 15.8528 5.00312 15.0574 5.00232H14.0574C13.7922 5.00232 13.5379 5.10768 13.3503 5.29522C13.1628 5.48275 13.0574 5.73711 13.0574 6.00232C13.0574 6.26754 13.1628 6.52189 13.3503 6.70943C13.5379 6.89697 13.7922 7.00232 14.0574 7.00232ZM10.0574 16.0023H9.05742C8.79221 16.0023 8.53785 15.897 8.35032 15.7094C8.16278 15.5219 8.05742 15.2675 8.05742 15.0023V14.0023C8.05742 13.7371 7.95207 13.4828 7.76453 13.2952C7.57699 13.1077 7.32264 13.0023 7.05742 13.0023C6.79221 13.0023 6.53785 13.1077 6.35032 13.2952C6.16278 13.4828 6.05742 13.7371 6.05742 14.0023V15.0023C6.05822 15.7977 6.37454 16.5603 6.93698 17.1228C7.49942 17.6852 8.26202 18.0015 9.05742 18.0023H10.0574C10.3226 18.0023 10.577 17.897 10.7645 17.7094C10.9521 17.5219 11.0574 17.2675 11.0574 17.0023C11.0574 16.7371 10.9521 16.4828 10.7645 16.2952C10.577 16.1077 10.3226 16.0023 10.0574 16.0023Z" fill="white"/>
</svg>
