<svg width="20" height="20" viewBox="0 0 20 20" fill="none" xmlns="http://www.w3.org/2000/svg">
<g clip-path="url(#clip0_3299_31682)">
<path d="M10 0C15.523 0 20 4.477 20 10C20 15.523 15.523 20 10 20C4.477 20 0 15.523 0 10C0 4.477 4.477 0 10 0ZM10 1.395C7.71781 1.395 5.5291 2.3016 3.91535 3.91535C2.3016 5.5291 1.395 7.71781 1.395 10C1.395 12.2822 2.3016 14.4709 3.91535 16.0847C5.5291 17.6984 7.71781 18.605 10 18.605C12.2822 18.605 14.4709 17.6984 16.0847 16.0847C17.6984 14.4709 18.605 12.2822 18.605 10C18.605 7.71781 17.6984 5.5291 16.0847 3.91535C14.4709 2.3016 12.2822 1.395 10 1.395ZM7.744 12C7.81166 12.5493 8.07738 13.055 8.49132 13.4223C8.90526 13.7896 9.43898 13.9933 9.99239 13.9951C10.5458 13.9969 11.0809 13.7968 11.4972 13.4323C11.9136 13.0677 12.1827 12.5638 12.254 12.015C12.2642 11.9253 12.2922 11.8385 12.3362 11.7597C12.3803 11.6809 12.4395 11.6116 12.5106 11.5558C12.5816 11.5001 12.663 11.459 12.7501 11.435C12.8371 11.4109 12.928 11.4044 13.0176 11.4158C13.1072 11.4272 13.1936 11.4563 13.2719 11.5013C13.3501 11.5464 13.4186 11.6065 13.4735 11.6782C13.5283 11.75 13.5683 11.8319 13.5913 11.9192C13.6142 12.0066 13.6195 12.0976 13.607 12.187C13.4934 13.0656 13.0631 13.8726 12.3967 14.4564C11.7304 15.0402 10.8738 15.3607 9.98792 15.3577C9.102 15.3548 8.24762 15.0286 7.58517 14.4404C6.92271 13.8521 6.49773 13.0423 6.39 12.163C6.37754 12.0733 6.38309 11.9819 6.40632 11.8944C6.42955 11.8068 6.47 11.7247 6.5253 11.653C6.5806 11.5812 6.64965 11.5212 6.72841 11.4764C6.80716 11.4316 6.89406 11.4029 6.98401 11.3921C7.07396 11.3813 7.16517 11.3885 7.25231 11.4133C7.33944 11.4381 7.42076 11.48 7.49152 11.5366C7.56227 11.5932 7.62104 11.6634 7.66439 11.7429C7.70774 11.8225 7.7348 11.9099 7.744 12ZM5.814 6.28C6.18398 6.28 6.5388 6.42697 6.80041 6.68859C7.06203 6.9502 7.209 7.30502 7.209 7.675C7.209 8.04498 7.06203 8.3998 6.80041 8.66141C6.5388 8.92303 6.18398 9.07 5.814 9.07C5.44402 9.07 5.0892 8.92303 4.82759 8.66141C4.56597 8.3998 4.419 8.04498 4.419 7.675C4.419 7.30502 4.56597 6.9502 4.82759 6.68859C5.0892 6.42697 5.44402 6.28 5.814 6.28ZM14.186 6.28C14.556 6.28 14.9108 6.42697 15.1724 6.68859C15.434 6.9502 15.581 7.30502 15.581 7.675C15.581 8.04498 15.434 8.3998 15.1724 8.66141C14.9108 8.92303 14.556 9.07 14.186 9.07C13.816 9.07 13.4612 8.92303 13.1996 8.66141C12.938 8.3998 12.791 8.04498 12.791 7.675C12.791 7.30502 12.938 6.9502 13.1996 6.68859C13.4612 6.42697 13.816 6.28 14.186 6.28Z" fill="#2399F5"/>
</g>
<defs>
<clipPath id="clip0_3299_31682">
<rect width="20" height="20" fill="white"/>
</clipPath>
</defs>
</svg>
