<svg width="25" height="24" viewBox="0 0 25 24" fill="none" xmlns="http://www.w3.org/2000/svg">
<path d="M21.5002 21.0002L17.1572 16.6572M17.1572 16.6572C17.9001 15.9143 18.4894 15.0324 18.8914 14.0618C19.2935 13.0911 19.5004 12.0508 19.5004 11.0002C19.5004 9.9496 19.2935 8.90929 18.8914 7.93866C18.4894 6.96803 17.9001 6.08609 17.1572 5.34321C16.4143 4.60032 15.5324 4.01103 14.5618 3.60898C13.5911 3.20693 12.5508 3 11.5002 3C10.4496 3 9.40929 3.20693 8.43866 3.60898C7.46803 4.01103 6.58609 4.60032 5.84321 5.34321C4.34288 6.84354 3.5 8.87842 3.5 11.0002C3.5 13.122 4.34288 15.1569 5.84321 16.6572C7.34354 18.1575 9.37842 19.0004 11.5002 19.0004C13.622 19.0004 15.6569 18.1575 17.1572 16.6572Z" stroke="#1D2935" stroke-opacity="0.4" stroke-linecap="round" stroke-linejoin="round"/>
</svg>
