<svg width="28" height="28" viewBox="0 0 28 28" fill="none" xmlns="http://www.w3.org/2000/svg">
<path d="M15.6488 18.1112C15.8347 18.1966 16.0441 18.2161 16.2425 18.1665C16.441 18.1169 16.6166 18.0012 16.7405 17.8385L17.06 17.42C17.2277 17.1964 17.4451 17.015 17.695 16.89C17.945 16.7651 18.2206 16.7 18.5 16.7H21.2C21.6774 16.7 22.1352 16.8896 22.4728 17.2272C22.8104 17.5648 23 18.0226 23 18.5V21.2C23 21.6774 22.8104 22.1352 22.4728 22.4728C22.1352 22.8104 21.6774 23 21.2 23C16.9035 23 12.783 21.2932 9.74487 18.2551C6.70678 15.217 5 11.0965 5 6.8C5 6.32261 5.18964 5.86477 5.52721 5.52721C5.86477 5.18964 6.32261 5 6.8 5H9.5C9.97739 5 10.4352 5.18964 10.7728 5.52721C11.1104 5.86477 11.3 6.32261 11.3 6.8V9.5C11.3 9.77944 11.2349 10.055 11.11 10.305C10.985 10.5549 10.8036 10.7723 10.58 10.94L10.1588 11.2559C9.99357 11.3821 9.87712 11.5615 9.82921 11.7638C9.78131 11.9661 9.8049 12.1787 9.896 12.3656C11.126 14.8639 13.149 16.8843 15.6488 18.1112Z" stroke="#1A1A1A" stroke-width="1.33333" stroke-linecap="round" stroke-linejoin="round"/>
</svg>
