<svg width="50" height="50" viewBox="0 0 50 50" fill="none" xmlns="http://www.w3.org/2000/svg">
<path d="M12.8862 10.0323C16.0147 6.81016 20.2578 5 24.682 5C29.1063 5 33.3494 6.81016 36.4779 10.0323C39.6063 13.2544 41.3638 17.6245 41.3638 22.1813C41.3638 26.738 39.6063 31.1081 36.4779 34.3302L34.2038 36.6468C32.528 38.3411 30.3529 40.5195 27.6784 43.182C26.8746 43.9825 25.8002 44.43 24.682 44.43C23.5639 44.43 22.4895 43.9825 21.6857 43.182L14.9994 36.481C14.1564 35.6312 13.452 34.9143 12.8862 34.3302C11.3371 32.7349 10.1083 30.8408 9.2699 28.7563C8.43151 26.6718 8 24.4376 8 22.1813C8 19.925 8.43151 17.6908 9.2699 15.6062C10.1083 13.5217 11.3371 11.6277 12.8862 10.0323ZM34.4471 12.1278C33.165 10.8072 31.6428 9.75958 29.9676 9.04481C28.2924 8.33005 26.4969 7.96211 24.6837 7.96202C21.0216 7.96184 17.5095 9.45996 14.9199 12.1268C12.3303 14.7937 10.8754 18.4108 10.8752 22.1825C10.875 25.9542 12.3296 29.5715 14.9189 32.2387L17.7678 35.1333C19.3362 36.7145 21.3083 38.6877 23.6839 41.0529C23.9516 41.3202 24.3097 41.4699 24.6826 41.4702C25.0555 41.4706 25.4139 41.3217 25.6821 41.0549L32.1864 34.5394C33.0843 33.6317 33.8378 32.8648 34.4471 32.2387C35.7294 30.9181 36.7467 29.3503 37.4407 27.6248C38.1347 25.8993 38.4919 24.0499 38.4919 22.1822C38.4919 20.3146 38.1347 18.4652 37.4407 16.7397C36.7467 15.0142 35.7294 13.4484 34.4471 12.1278ZM24.682 16.8023C25.446 16.788 26.2051 16.9305 26.915 17.2217C27.6249 17.5129 28.2713 17.9469 28.8165 18.4982C29.3618 19.0496 29.7948 19.7074 30.0905 20.4331C30.3861 21.1588 30.5384 21.9379 30.5384 22.7249C30.5384 23.5119 30.3861 24.291 30.0905 25.0167C29.7948 25.7424 29.3618 26.4001 28.8165 26.9515C28.2713 27.5029 27.6249 27.9368 26.915 28.228C26.2051 28.5192 25.446 28.6618 24.682 28.6474C23.1751 28.6191 21.7392 27.9827 20.6833 26.8751C19.6273 25.7674 19.0357 24.2772 19.0357 22.7249C19.0357 21.1726 19.6273 19.6823 20.6833 18.5747C21.7392 17.4671 23.1751 16.8306 24.682 16.8023ZM24.682 19.7621C24.298 19.7519 23.9159 19.821 23.5582 19.9653C23.2006 20.1096 22.8746 20.3262 22.5995 20.6023C22.3244 20.8785 22.1057 21.2085 21.9564 21.5731C21.8071 21.9376 21.7302 22.3292 21.7302 22.7249C21.7302 23.1205 21.8071 23.5122 21.9564 23.8767C22.1057 24.2412 22.3244 24.5713 22.5995 24.8474C22.8746 25.1235 23.2006 25.3401 23.5582 25.4845C23.9159 25.6288 24.298 25.6978 24.682 25.6876C25.4266 25.6596 26.1315 25.3353 26.6486 24.783C27.1657 24.2306 27.4546 23.4932 27.4546 22.7259C27.4546 21.9585 27.1657 21.2211 26.6486 20.6688C26.1315 20.1164 25.4266 19.7921 24.682 19.7641" fill="#0085FE"/>
<path d="M24.682 19.7621C24.298 19.7519 23.9159 19.821 23.5582 19.9653C23.2006 20.1096 22.8746 20.3262 22.5995 20.6023C22.3244 20.8785 22.1057 21.2085 21.9564 21.5731C21.8071 21.9376 21.7302 22.3292 21.7302 22.7249C21.7302 23.1205 21.8071 23.5122 21.9564 23.8767C22.1057 24.2412 22.3244 24.5713 22.5995 24.8474C22.8746 25.1235 23.2006 25.3401 23.5582 25.4845C23.9159 25.6288 24.298 25.6978 24.682 25.6876C25.4266 25.6596 26.1315 25.3353 26.6486 24.783C27.1657 24.2306 27.4546 23.4932 27.4546 22.7259C27.4546 21.9586 27.1657 21.2211 26.6486 20.6688C26.1315 20.1164 25.4266 19.7921 24.682 19.7641M12.8862 10.0323C16.0147 6.81016 20.2578 5 24.682 5C29.1063 5 33.3494 6.81016 36.4779 10.0323C39.6063 13.2544 41.3638 17.6245 41.3638 22.1813C41.3638 26.738 39.6063 31.1081 36.4779 34.3302L34.2038 36.6468C32.528 38.3411 30.3529 40.5195 27.6784 43.182C26.8746 43.9825 25.8002 44.43 24.682 44.43C23.5639 44.43 22.4895 43.9825 21.6857 43.182L14.9994 36.481C14.1564 35.6312 13.452 34.9143 12.8862 34.3302C11.3371 32.7349 10.1083 30.8408 9.2699 28.7563C8.43151 26.6718 8 24.4376 8 22.1813C8 19.925 8.43151 17.6908 9.2699 15.6062C10.1083 13.5217 11.3371 11.6277 12.8862 10.0323ZM34.4471 12.1278C33.165 10.8072 31.6428 9.75958 29.9676 9.04481C28.2924 8.33005 26.4969 7.96211 24.6837 7.96202C21.0216 7.96184 17.5095 9.45996 14.9199 12.1268C12.3303 14.7937 10.8754 18.4108 10.8752 22.1825C10.875 25.9542 12.3296 29.5715 14.9189 32.2387L17.7678 35.1333C19.3362 36.7145 21.3083 38.6877 23.6839 41.0529C23.9516 41.3202 24.3097 41.4699 24.6826 41.4702C25.0555 41.4706 25.4139 41.3217 25.6821 41.0549L32.1864 34.5394C33.0843 33.6317 33.8378 32.8648 34.4471 32.2387C35.7294 30.9181 36.7467 29.3503 37.4407 27.6248C38.1347 25.8993 38.4919 24.0499 38.4919 22.1822C38.4919 20.3146 38.1347 18.4652 37.4407 16.7397C36.7467 15.0142 35.7294 13.4484 34.4471 12.1278ZM24.682 16.8023C25.446 16.788 26.2051 16.9305 26.915 17.2217C27.6249 17.5129 28.2713 17.9469 28.8165 18.4982C29.3618 19.0496 29.7948 19.7074 30.0905 20.4331C30.3861 21.1588 30.5384 21.9379 30.5384 22.7249C30.5384 23.5119 30.3861 24.291 30.0905 25.0167C29.7948 25.7424 29.3618 26.4001 28.8165 26.9515C28.2713 27.5029 27.6249 27.9368 26.915 28.228C26.2051 28.5192 25.446 28.6618 24.682 28.6474C23.1751 28.6191 21.7392 27.9827 20.6833 26.8751C19.6273 25.7674 19.0357 24.2772 19.0357 22.7249C19.0357 21.1726 19.6273 19.6823 20.6833 18.5747C21.7392 17.4671 23.1751 16.8306 24.682 16.8023Z" stroke="#0085FE" stroke-width="0.3"/>
</svg>
