<svg width="50" height="50" viewBox="0 0 50 50" fill="none" xmlns="http://www.w3.org/2000/svg">
<path d="M32.0833 26.737C32.0833 26.3348 31.9384 25.949 31.6805 25.6646C31.4227 25.3802 31.0729 25.2205 30.7083 25.2205H19.7083C19.3436 25.2205 18.9938 25.3802 18.736 25.6646C18.4781 25.949 18.3333 26.3348 18.3333 26.737C18.3333 27.1392 18.4781 27.5249 18.736 27.8094C18.9938 28.0938 19.3436 28.2535 19.7083 28.2535H30.7083C31.0729 28.2535 31.4227 28.0938 31.6805 27.8094C31.9384 27.5249 32.0833 27.1392 32.0833 26.737ZM32.0833 34.8252C32.0833 34.423 31.9384 34.0373 31.6805 33.7528C31.4227 33.4684 31.0729 33.3087 30.7083 33.3087H19.7083C19.3436 33.3087 18.9938 33.4684 18.736 33.7528C18.4781 34.0373 18.3333 34.423 18.3333 34.8252C18.3333 35.2274 18.4781 35.6132 18.736 35.8976C18.9938 36.182 19.3436 36.3417 19.7083 36.3417H30.7083C31.0729 36.3417 31.4227 36.182 31.6805 35.8976C31.9384 35.6132 32.0833 35.2274 32.0833 34.8252Z" fill="#0085FE"/>
<path fill-rule="evenodd" clip-rule="evenodd" d="M16.0417 5C14.7045 5 13.4222 5.58585 12.4767 6.62867C11.5312 7.6715 11 9.08587 11 10.5606V38.8694C11 40.3441 11.5312 41.7585 12.4767 42.8013C13.4222 43.8442 14.7045 44.43 16.0417 44.43H34.375C35.7121 44.43 36.9945 43.8442 37.94 42.8013C38.8855 41.7585 39.4167 40.3441 39.4167 38.8694V16.5621C39.4167 15.7917 39.1893 15.0435 38.7677 14.4288L33.2713 6.40533C32.9723 5.9688 32.5855 5.6147 32.1414 5.37086C31.6974 5.12702 31.2081 5.00007 30.712 5H16.0417ZM13.75 10.5606C13.75 9.16543 14.7767 8.03308 16.0417 8.03308H29.3333V16.924C29.3333 17.7612 29.9493 18.4406 30.7083 18.4406H36.6667V38.8694C36.6667 40.2646 35.64 41.3969 34.375 41.3969H16.0417C14.7767 41.3969 13.75 40.2646 13.75 38.8694V10.5606Z" fill="#0085FE"/>
</svg>
