<svg width="50" height="50" viewBox="0 0 50 50" fill="none" xmlns="http://www.w3.org/2000/svg">
<path d="M14 32.4783C14 33.2076 14.2897 33.9071 14.8055 34.4228C15.3212 34.9385 16.0207 35.2283 16.75 35.2283C17.4793 35.2283 18.1788 34.9385 18.6945 34.4228C19.2103 33.9071 19.5 33.2076 19.5 32.4783C19.5 31.7489 19.2103 31.0495 18.6945 30.5337C18.1788 30.018 17.4793 29.7283 16.75 29.7283C16.0207 29.7283 15.3212 30.018 14.8055 30.5337C14.2897 31.0495 14 31.7489 14 32.4783ZM27.75 29.7283C27.75 30.4576 28.0397 31.1571 28.5555 31.6728C29.0712 32.1885 29.7707 32.4783 30.5 32.4783C31.2293 32.4783 31.9288 32.1885 32.4445 31.6728C32.9603 31.1571 33.25 30.4576 33.25 29.7283C33.25 28.9989 32.9603 28.2995 32.4445 27.7837C31.9288 27.268 31.2293 26.9783 30.5 26.9783C29.7707 26.9783 29.0712 27.268 28.5555 27.7837C28.0397 28.2995 27.75 28.9989 27.75 29.7283Z" stroke="#0085FE" stroke-width="2.75" stroke-linecap="round" stroke-linejoin="round"/>
<path d="M33.25 29.7281V19.4999C33.25 19.082 33.1547 18.6696 32.9714 18.294C32.788 17.9185 32.5216 17.5896 32.1921 17.3325C31.8627 17.0753 31.479 16.8966 31.0701 16.81C30.6613 16.7234 30.2381 16.731 29.8327 16.8324L21.5827 18.2074C20.9878 18.3562 20.4598 18.6996 20.0824 19.1829C19.7051 19.6662 19.5001 20.2618 19.5 20.8749V32.4781" stroke="#0085FE" stroke-width="2.75" stroke-linecap="round" stroke-linejoin="round"/>
<path d="M44.25 42.875C44.25 43.6043 43.9603 44.3038 43.4445 44.8195C42.9288 45.3353 42.2293 45.625 41.5 45.625H8.5C7.77065 45.625 7.07118 45.3353 6.55546 44.8195C6.03973 44.3038 5.75 43.6043 5.75 42.875V7.125C5.75 6.39565 6.03973 5.69618 6.55546 5.18046C7.07118 4.66473 7.77065 4.375 8.5 4.375H36C36.7172 4.37507 37.406 4.65533 37.9195 5.156L43.4195 10.4415C43.6823 10.6977 43.8912 11.0039 44.0338 11.342C44.1765 11.6802 44.25 12.0435 44.25 12.4105V42.875Z" stroke="#0085FE" stroke-width="2.75" stroke-linecap="round" stroke-linejoin="round"/>
</svg>
