<svg width="50" height="50" viewBox="0 0 50 50" fill="none" xmlns="http://www.w3.org/2000/svg">
<path fill-rule="evenodd" clip-rule="evenodd" d="M37.5036 18.9951H27.9711L33.6536 5.73762C33.7351 5.5474 33.7682 5.33992 33.7497 5.13378C33.7313 4.92765 33.662 4.72932 33.548 4.55659C33.434 4.38385 33.2789 4.24213 33.0966 4.14413C32.9143 4.04614 32.7105 3.99493 32.5036 3.99512H20.0036C19.7588 3.9949 19.5193 4.06657 19.3149 4.20123C19.1104 4.33589 18.95 4.52762 18.8536 4.75262L11.3536 22.2526C11.2721 22.4428 11.239 22.6503 11.2574 22.8565C11.2759 23.0626 11.3452 23.2609 11.4592 23.4336C11.5732 23.6064 11.7283 23.7481 11.9106 23.8461C12.0929 23.9441 12.2966 23.9953 12.5036 23.9951H18.6886L11.3436 42.2801C10.8436 43.5226 12.3861 44.5751 13.3611 43.6551L25.9211 31.7976L38.3161 21.1951C38.5103 21.029 38.6489 20.8074 38.7133 20.5601C38.7777 20.3129 38.7648 20.0518 38.6763 19.8121C38.5877 19.5723 38.4279 19.3655 38.2182 19.2195C38.0085 19.0734 37.7591 18.9951 37.5036 18.9951ZM26.0761 21.4951H34.1186L24.2486 29.9401L15.7861 37.9276L21.6986 23.2101C21.7746 23.0205 21.803 22.8151 21.7812 22.6119C21.7594 22.4088 21.6882 22.214 21.5737 22.0448C21.4592 21.8756 21.305 21.7369 21.1246 21.6411C20.9441 21.5453 20.7429 21.4952 20.5386 21.4951H14.3986L20.8286 6.49512H30.6086L24.9261 19.7526C24.8446 19.9428 24.8115 20.1503 24.8299 20.3565C24.8484 20.5626 24.9177 20.7609 25.0317 20.9336C25.1457 21.1064 25.3008 21.2481 25.4831 21.3461C25.6654 21.4441 25.8691 21.4953 26.0761 21.4951Z" fill="#0085FE"/>
</svg>
