<svg width="50" height="50" viewBox="0 0 50 50" fill="none" xmlns="http://www.w3.org/2000/svg">
<path d="M19.1945 5C18.5499 5.00002 17.9179 5.17917 17.3691 5.51746C16.8203 5.85574 16.3763 6.33986 16.0866 6.9158L14.7182 9.63874H10.7984C9.26059 9.63874 7.78573 10.2496 6.69832 11.3371C5.6109 12.4245 5 13.8993 5 15.4372V33.9921C5 35.53 5.6109 37.0048 6.69832 38.0922C7.78573 39.1796 9.26059 39.7905 10.7984 39.7905H22.6179C22.2391 39.049 21.9338 38.2722 21.7064 37.4712H10.8007C9.87804 37.4712 8.99313 37.1046 8.34068 36.4522C7.68823 35.7997 7.32169 34.9148 7.32169 33.9921V15.4372C7.32169 14.5145 7.68823 13.6295 8.34068 12.9771C8.99313 12.3246 9.87804 11.9581 10.8007 11.9581H15.4348C15.6496 11.9577 15.8601 11.8976 16.0427 11.7846C16.2254 11.6715 16.3731 11.51 16.4693 11.318L18.1578 7.9572C18.2545 7.76524 18.4027 7.60395 18.5857 7.49132C18.7688 7.37869 18.9796 7.31916 19.1945 7.31937H27.9246C28.1402 7.31895 28.3517 7.37862 28.5352 7.4917C28.7187 7.60478 28.8671 7.76678 28.9637 7.95952L30.6406 11.3156C30.737 11.508 30.8851 11.6698 31.0682 11.7828C31.2513 11.8959 31.4622 11.9558 31.6774 11.9558H36.3138C37.2365 11.9558 38.1214 12.3223 38.7739 12.9748C39.4263 13.6272 39.7929 14.5121 39.7929 15.4348V22.6318C40.6247 23.0586 41.3979 23.5681 42.1122 24.1603V15.4348C42.1122 13.897 41.5013 12.4222 40.4139 11.3347C39.3265 10.2473 37.8516 9.63642 36.3138 9.63642H32.3941L31.0372 6.92276C30.7482 6.34482 30.3039 5.85881 29.7541 5.5192C29.2043 5.17959 28.5708 4.99981 27.9246 5H19.1945ZM23.5457 14.2775C25.6169 14.2768 27.6289 14.9692 29.261 16.2444C30.8931 17.5197 32.0516 19.3045 32.5518 21.3144C31.7807 21.4011 31.0191 21.5579 30.2765 21.783C29.9648 20.5989 29.3463 19.5179 28.4834 18.6492C27.6205 17.7805 26.5437 17.1549 25.3617 16.8353C24.1797 16.5158 22.9343 16.5137 21.7513 16.8293C20.5682 17.1449 19.4893 17.767 18.6235 18.6328C17.7577 19.4986 17.1356 20.5775 16.82 21.7605C16.5045 22.9436 16.5065 24.189 16.8261 25.371C17.1456 26.553 17.7713 27.6298 18.6399 28.4927C19.5086 29.3556 20.5896 29.9741 21.7737 30.2858C21.5488 31.0276 21.392 31.7884 21.3052 32.5587C19.1136 32.0049 17.1995 30.6704 15.9219 28.8057C14.6444 26.9409 14.0912 24.674 14.3661 22.4304C14.6411 20.1867 15.7254 18.1205 17.4154 16.6195C19.1055 15.1184 21.2853 14.2857 23.5457 14.2775ZM44.42 33.9921C44.42 36.7602 43.3204 39.415 41.363 41.3723C39.4057 43.3297 36.7509 44.4293 33.9828 44.4293C31.2147 44.4293 28.56 43.3297 26.6026 41.3723C24.6453 39.415 23.5457 36.7602 23.5457 33.9921C23.5457 31.224 24.6453 28.5693 26.6026 26.6119C28.56 24.6546 31.2147 23.555 33.9828 23.555C36.7509 23.555 39.4057 24.6546 41.363 26.6119C43.3204 28.5693 44.42 31.224 44.42 33.9921ZM35.1425 29.3534C35.1425 29.0458 35.0203 28.7508 34.8029 28.5334C34.5854 28.3159 34.2904 28.1937 33.9828 28.1937C33.6753 28.1937 33.3803 28.3159 33.1628 28.5334C32.9453 28.7508 32.8232 29.0458 32.8232 29.3534V32.8324H29.3441C29.0365 32.8324 28.7416 32.9546 28.5241 33.1721C28.3066 33.3896 28.1844 33.6845 28.1844 33.9921C28.1844 34.2997 28.3066 34.5947 28.5241 34.8121C28.7416 35.0296 29.0365 35.1518 29.3441 35.1518H32.8232V38.6309C32.8232 38.9384 32.9453 39.2334 33.1628 39.4509C33.3803 39.6684 33.6753 39.7905 33.9828 39.7905C34.2904 39.7905 34.5854 39.6684 34.8029 39.4509C35.0203 39.2334 35.1425 38.9384 35.1425 38.6309V35.1518H38.6216C38.9291 35.1518 39.2241 35.0296 39.4416 34.8121C39.6591 34.5947 39.7813 34.2997 39.7813 33.9921C39.7813 33.6845 39.6591 33.3896 39.4416 33.1721C39.2241 32.9546 38.9291 32.8324 38.6216 32.8324H35.1425V29.3534Z" fill="#0085FE"/>
</svg>
