<svg width="24" height="25" viewBox="0 0 24 25" fill="none" xmlns="http://www.w3.org/2000/svg">
<path d="M12 4.59961C16.3561 4.59961 19.9004 8.1439 19.9004 12.5C19.9004 16.8561 16.3561 20.4004 12 20.4004C7.6439 20.4004 4.09961 16.8561 4.09961 12.5C4.09961 8.1439 7.6439 4.59961 12 4.59961ZM12 5.7334C8.25477 5.7334 5.2334 8.75477 5.2334 12.5C5.2334 16.2452 8.25477 19.2666 12 19.2666C15.7452 19.2666 18.7666 16.2452 18.7666 12.5C18.7666 8.75477 15.7452 5.7334 12 5.7334ZM16.4639 15.2002C15.5476 16.7151 13.8957 17.7334 12 17.7334C10.1041 17.7334 8.45133 16.7154 7.53516 15.2002L8.50684 14.6348C8.86245 15.2199 9.35844 15.7075 9.95215 16.0508C10.4969 16.3658 11.1059 16.55 11.7314 16.5908L12 16.5996C12.7191 16.6 13.4254 16.4107 14.0479 16.0508C14.6414 15.7075 15.1366 15.2198 15.4922 14.6348L16.4639 15.2002ZM9 9.93359C9.2387 9.93359 9.46794 10.0285 9.63672 10.1973C9.80522 10.3659 9.9003 10.5946 9.90039 10.833C9.90039 11.0716 9.8054 11.301 9.63672 11.4697C9.46794 11.6385 9.2387 11.7334 9 11.7334C8.76131 11.7334 8.53206 11.6385 8.36328 11.4697C8.1946 11.301 8.09961 11.0716 8.09961 10.833C8.0997 10.5946 8.19478 10.3659 8.36328 10.1973C8.53206 10.0285 8.76131 9.93359 9 9.93359ZM15 9.93359C15.2387 9.93359 15.4679 10.0285 15.6367 10.1973C15.8052 10.3659 15.9003 10.5946 15.9004 10.833C15.9004 11.0716 15.8054 11.301 15.6367 11.4697C15.4679 11.6385 15.2387 11.7334 15 11.7334C14.7613 11.7334 14.5321 11.6385 14.3633 11.4697C14.1946 11.301 14.0996 11.0716 14.0996 10.833C14.0997 10.5946 14.1948 10.3659 14.3633 10.1973C14.5321 10.0285 14.7613 9.93359 15 9.93359Z" fill="#2399F5" stroke="white" stroke-width="0.2"/>
</svg>
