<svg width="46" height="46" viewBox="0 0 46 46" fill="none" xmlns="http://www.w3.org/2000/svg">
<rect x="6.5" y="10.5" width="33" height="24" rx="1.5" stroke="#25BAFF"/>
<g clip-path="url(#clip0_3336_17758)">
<path d="M18.9565 27.5V25.8333C18.9565 23.9583 17.4026 22.5 15.447 22.5H15.4939C13.5374 22.5 12 23.9583 12 25.8333V27.5M21.5652 18.3333H32M21.5652 26.6667H30.2609M21.5652 22.5H27.6522M15.4783 22.5C14.7864 22.5 14.1229 22.2366 13.6336 21.7678C13.1444 21.2989 12.8696 20.663 12.8696 20C12.8696 19.337 13.1444 18.7011 13.6336 18.2322C14.1229 17.7634 14.7864 17.5 15.4783 17.5C16.1701 17.5 16.8337 17.7634 17.3229 18.2322C17.8121 18.7011 18.087 19.337 18.087 20C18.087 20.663 17.8121 21.2989 17.3229 21.7678C16.8337 22.2366 16.1701 22.5 15.4783 22.5Z" stroke="#25BAFF" stroke-width="1.5"/>
</g>
<defs>
<clipPath id="clip0_3336_17758">
<rect width="24" height="12" fill="white" transform="translate(11 16.5)"/>
</clipPath>
</defs>
</svg>
