<svg width="25" height="24" viewBox="0 0 25 24" fill="none" xmlns="http://www.w3.org/2000/svg">
<path d="M12.4968 12.9968C13.0491 12.9968 13.4968 12.5491 13.4968 11.9968C13.4968 11.4445 13.0491 10.9968 12.4968 10.9968C11.9445 10.9968 11.4968 11.4445 11.4968 11.9968C11.4968 12.5491 11.9445 12.9968 12.4968 12.9968Z" stroke="#2399F5" stroke-width="1.66667" stroke-linecap="round" stroke-linejoin="round"/>
<path d="M12.4968 5.99841C13.0491 5.99841 13.4968 5.5507 13.4968 4.99841C13.4968 4.44613 13.0491 3.99841 12.4968 3.99841C11.9445 3.99841 11.4968 4.44613 11.4968 4.99841C11.4968 5.5507 11.9445 5.99841 12.4968 5.99841Z" stroke="#2399F5" stroke-width="1.66667" stroke-linecap="round" stroke-linejoin="round"/>
<path d="M12.4968 20C13.0491 20 13.4968 19.5523 13.4968 19C13.4968 18.4477 13.0491 18 12.4968 18C11.9445 18 11.4968 18.4477 11.4968 19C11.4968 19.5523 11.9445 20 12.4968 20Z" stroke="#2399F5" stroke-width="1.66667" stroke-linecap="round" stroke-linejoin="round"/>
</svg>
