<svg width="24" height="24" viewBox="0 0 24 24" fill="none" xmlns="http://www.w3.org/2000/svg">
<path d="M19.175 11L15.3 7.12505C15.1 6.92505 15 6.68772 15 6.41305C15 6.13838 15.1 5.90072 15.3 5.70005C15.5 5.51672 15.7376 5.42505 16.013 5.42505C16.2883 5.42505 16.5173 5.51672 16.7 5.70005L21.3 10.3C21.4 10.4 21.471 10.5084 21.513 10.625C21.555 10.7417 21.5756 10.8667 21.575 11C21.5743 11.1334 21.5536 11.2584 21.513 11.375C21.4723 11.4917 21.4013 11.6 21.3 11.7L16.7 16.3C16.5 16.5 16.2666 16.596 16 16.588C15.7333 16.58 15.5 16.484 15.3 16.3C15.1 16.1 14.996 15.8667 14.988 15.6C14.98 15.3334 15.0756 15.1 15.275 14.9L19.175 11ZM13.175 12H6.99997C6.16664 12 5.4583 12.2917 4.87497 12.875C4.29164 13.4584 3.99997 14.1667 3.99997 15V18C3.99997 18.2834 3.90397 18.521 3.71197 18.713C3.51997 18.905 3.28264 19.0007 2.99997 19C2.7173 18.9994 2.47997 18.9034 2.28797 18.712C2.09597 18.5207 1.99997 18.2834 1.99997 18V15C1.99997 13.6167 2.48764 12.4377 3.46297 11.463C4.4383 10.4884 5.6173 10.0007 6.99997 10H13.175L10.3 7.12505C10.1 6.92505 9.99997 6.68772 9.99997 6.41305C9.99997 6.13838 10.1 5.90072 10.3 5.70005C10.5 5.51672 10.7376 5.42505 11.013 5.42505C11.2883 5.42505 11.5173 5.51672 11.7 5.70005L16.3 10.3C16.4 10.4 16.471 10.5084 16.513 10.625C16.555 10.7417 16.5756 10.8667 16.575 11C16.5743 11.1334 16.5536 11.2584 16.513 11.375C16.4723 11.4917 16.4013 11.6 16.3 11.7L11.7 16.3C11.5 16.5 11.2666 16.596 11 16.588C10.7333 16.58 10.5 16.484 10.3 16.3C10.1 16.1 9.99597 15.8667 9.98797 15.6C9.97997 15.3334 10.0756 15.1 10.275 14.9L13.175 12Z" fill="#505050"/>
</svg>
