<svg width="28" height="28" viewBox="0 0 28 28" fill="none" xmlns="http://www.w3.org/2000/svg">
<path d="M20.8542 3.55054C21.8079 3.55054 22.7229 3.92892 23.3972 4.60327C24.0715 5.27761 24.45 6.19264 24.45 7.14624V20.8542C24.45 21.8079 24.0716 22.7229 23.3972 23.3972C22.7229 24.0716 21.8079 24.45 20.8542 24.45H7.14624C6.19264 24.45 5.27761 24.0715 4.60327 23.3972C3.92892 22.7229 3.55054 21.8079 3.55054 20.8542V14.0623C3.97995 14.33 4.43404 14.5554 4.90796 14.7332V20.8542L4.91284 20.9968C4.93367 21.3285 5.02847 21.652 5.19116 21.9431L5.22339 22.0007L5.27026 21.9539L12.5916 14.6335C12.7765 14.4486 12.9964 14.302 13.238 14.2019C13.4795 14.1019 13.7384 14.0506 13.9998 14.0505C14.2613 14.0505 14.5208 14.1018 14.7625 14.2019C15.0041 14.302 15.224 14.4486 15.4089 14.6335L22.7771 22.0017L22.8093 21.9441C22.9954 21.6111 23.0922 21.2357 23.0916 20.8542V7.14624C23.0916 6.5529 22.8558 5.98381 22.4363 5.56421C22.0167 5.1446 21.4477 4.90796 20.8542 4.90796H14.7332C14.5548 4.43099 14.3293 3.9767 14.0632 3.55054H20.8542ZM13.9998 15.408C13.8319 15.408 13.6712 15.4749 13.5525 15.5935L6.29663 22.8503L6.24292 22.9041L6.31323 22.9314C6.57103 23.0346 6.8522 23.0916 7.14624 23.0916H20.8542C21.1396 23.0926 21.4225 23.038 21.6873 22.9314L21.7576 22.9031L21.7039 22.8503L14.448 15.5935C14.3292 15.4748 14.1677 15.408 13.9998 15.408ZM7.58374 1.21655C11.0997 1.21673 13.95 4.06771 13.95 7.58374C13.9498 11.0996 11.0996 13.9498 7.58374 13.95C4.06771 13.95 1.21673 11.0997 1.21655 7.58374C1.21655 4.0676 4.0676 1.21655 7.58374 1.21655ZM17.7917 7.63354C18.4745 7.63354 19.1292 7.90475 19.6121 8.38745C20.095 8.87036 20.3669 9.52581 20.3669 10.2087C20.3669 10.8916 20.0949 11.5462 19.6121 12.0291C19.1292 12.5119 18.4746 12.783 17.7917 12.783C17.1089 12.783 16.4543 12.5119 15.9714 12.0291C15.4886 11.5462 15.2166 10.8916 15.2166 10.2087C15.2166 9.52581 15.4885 8.87036 15.9714 8.38745C16.4543 7.90475 17.109 7.63354 17.7917 7.63354ZM7.58374 2.86694C7.41577 2.86694 7.25427 2.93372 7.1355 3.05249C7.0169 3.17117 6.95004 3.33198 6.94995 3.49976V6.94995H3.49976C3.33198 6.95004 3.17117 7.0169 3.05249 7.1355C2.93372 7.25427 2.86694 7.41577 2.86694 7.58374C2.86703 7.75159 2.93379 7.91231 3.05249 8.03101C3.17119 8.1497 3.3319 8.21647 3.49976 8.21655H6.94995V11.6667C6.94995 11.8347 7.01673 11.9962 7.1355 12.115C7.25426 12.2337 7.41585 12.3005 7.58374 12.3005C7.75144 12.3005 7.91234 12.2335 8.03101 12.115C8.14978 11.9962 8.21655 11.8347 8.21655 11.6667V8.21655H11.6667C11.8347 8.21655 11.9962 8.14978 12.115 8.03101C12.2335 7.91234 12.3005 7.75144 12.3005 7.58374C12.3005 7.41585 12.2337 7.25426 12.115 7.1355C11.9962 7.01673 11.8347 6.94995 11.6667 6.94995H8.21655V3.49976C8.21647 3.3319 8.1497 3.17119 8.03101 3.05249C7.91231 2.93379 7.75159 2.86703 7.58374 2.86694ZM17.7917 8.99194C17.4691 8.99194 17.1596 9.12022 16.9314 9.34839C16.7033 9.57654 16.575 9.88614 16.575 10.2087C16.575 10.5313 16.7033 10.841 16.9314 11.0691C17.1596 11.2972 17.4691 11.4255 17.7917 11.4255C18.1143 11.4255 18.4239 11.2972 18.6521 11.0691C18.8802 10.841 19.0085 10.5313 19.0085 10.2087C19.0085 9.88614 18.8802 9.57654 18.6521 9.34839C18.4239 9.12022 18.1144 8.99194 17.7917 8.99194Z" fill="#505050" stroke="white" stroke-width="0.1"/>
</svg>
