<svg width="21" height="22" viewBox="0 0 21 22" fill="none" xmlns="http://www.w3.org/2000/svg">
<path d="M10.4999 2.66669C9.83687 2.66669 9.20099 2.93008 8.73215 3.39892C8.26331 3.86776 7.99992 4.50365 7.99992 5.16669V11C7.99992 11.6631 8.26331 12.2989 8.73215 12.7678C9.20099 13.2366 9.83687 13.5 10.4999 13.5C11.163 13.5 11.7988 13.2366 12.2677 12.7678C12.7365 12.2989 12.9999 11.6631 12.9999 11V5.16669C12.9999 4.50365 12.7365 3.86776 12.2677 3.39892C11.7988 2.93008 11.163 2.66669 10.4999 2.66669Z" stroke="white" stroke-width="1.66667" stroke-linecap="round" stroke-linejoin="round"/>
<path d="M16.3333 9.33331V11C16.3333 12.5471 15.7187 14.0308 14.6248 15.1248C13.5308 16.2187 12.0471 16.8333 10.5 16.8333C8.9529 16.8333 7.46917 16.2187 6.37521 15.1248C5.28125 14.0308 4.66666 12.5471 4.66666 11V9.33331" stroke="white" stroke-width="1.66667" stroke-linecap="round" stroke-linejoin="round"/>
<path d="M10.4999 16.8333V19.3333" stroke="white" stroke-width="1.66667" stroke-linecap="round" stroke-linejoin="round"/>
</svg>
