<svg width="25" height="25" viewBox="0 0 25 25" fill="none" xmlns="http://www.w3.org/2000/svg">
<path d="M5.1543 10.6171C5.1543 9.76914 5.1543 9.16214 5.1943 8.68714C5.2323 8.21814 5.3043 7.92114 5.4263 7.68214L4.5363 7.22814C4.3303 7.63114 4.2403 8.07514 4.1963 8.60614C4.1543 9.13114 4.1543 9.78614 4.1543 10.6171H5.1543ZM5.1543 11.8171V10.6171H4.1543V11.8171H5.1543ZM4.1543 11.8171V16.8171H5.1543V11.8171H4.1543ZM4.1543 16.8171V18.7311H5.1543V16.8171H4.1543ZM4.1543 18.7311C4.1543 19.5771 5.1773 20.0011 5.7763 19.4021L5.0693 18.6951C5.0779 18.6894 5.08735 18.685 5.0973 18.6821L5.1233 18.6841C5.1316 18.6889 5.13865 18.6955 5.14387 18.7035C5.14909 18.7115 5.15232 18.7206 5.1533 18.7301L4.1543 18.7311ZM5.7763 19.4021L7.7153 17.4631L7.0083 16.7561L5.0683 18.6961L5.7763 19.4021ZM14.8543 16.3171H8.0683V17.3171H14.8543V16.3171ZM17.7893 16.0451C17.5503 16.1671 17.2533 16.2391 16.7843 16.2781C16.3083 16.3171 15.7023 16.3171 14.8543 16.3171V17.3171C15.6863 17.3171 16.3403 17.3171 16.8653 17.2741C17.3963 17.2311 17.8403 17.1411 18.2433 16.9361L17.7893 16.0451ZM18.8813 14.9521C18.6417 15.4223 18.2594 15.8055 17.7893 16.0451L18.2433 16.9361C18.9021 16.6005 19.4377 16.0649 19.7733 15.4061L18.8813 14.9521ZM19.1543 12.0171C19.1543 12.8651 19.1543 13.4721 19.1143 13.9471C19.0763 14.4161 19.0043 14.7131 18.8813 14.9521L19.7733 15.4061C19.9783 15.0031 20.0683 14.5591 20.1113 14.0281C20.1543 13.5031 20.1543 12.8481 20.1543 12.0171H19.1543ZM19.1543 10.6171V12.0171H20.1543V10.6171H19.1543ZM18.8813 7.68214C19.0033 7.92114 19.0763 8.21814 19.1153 8.68714C19.1543 9.16214 19.1543 9.76914 19.1543 10.6171H20.1543C20.1543 9.78514 20.1543 9.13114 20.1113 8.60614C20.0683 8.07514 19.9783 7.63114 19.7733 7.22814L18.8813 7.68214ZM17.7893 6.58914C18.2596 6.82903 18.6418 7.21164 18.8813 7.68214L19.7733 7.22814C19.4377 6.56934 18.9021 6.03374 18.2433 5.69814L17.7893 6.58914ZM14.8543 6.31714C15.7023 6.31714 16.3083 6.31714 16.7843 6.35714C17.2533 6.39514 17.5503 6.46714 17.7893 6.58914L18.2433 5.69814C17.8403 5.49214 17.3963 5.40314 16.8653 5.35914C16.3403 5.31714 15.6853 5.31714 14.8543 5.31714V6.31714ZM9.4543 6.31714H14.8543V5.31714H9.4543V6.31714ZM6.5193 6.58914C6.7583 6.46814 7.0553 6.39514 7.5243 6.35614C7.9993 6.31714 8.6063 6.31714 9.4543 6.31714V5.31714C8.6223 5.31714 7.9683 5.31714 7.4433 5.36014C6.9123 5.40314 6.4683 5.49314 6.0653 5.69814L6.5193 6.58914ZM5.4263 7.68214C5.66602 7.21149 6.04865 6.82886 6.5193 6.58914L6.0653 5.69814C5.40665 6.03348 4.87206 6.56971 4.5363 7.22814L5.4263 7.68214ZM7.7153 17.4631C7.809 17.3697 7.93594 17.3172 8.0683 17.3171V16.3171C7.67061 16.3175 7.28933 16.4758 7.0083 16.7571L7.7153 17.4631Z" fill="#2399F5"/>
<path d="M8.6543 9.81714H15.6543M8.6543 12.8171H13.6543" stroke="#2399F5" stroke-linecap="round" stroke-linejoin="round"/>
</svg>
