<svg width="24" height="25" viewBox="0 0 24 25" fill="none" xmlns="http://www.w3.org/2000/svg">
<path d="M9.98999 23.28C9.38999 23.28 8.81999 22.98 8.42999 22.45L7.23001 20.85C7.23001 20.86 7.18 20.83 7.16 20.83H6.79001C3.37001 20.83 1.25 19.9 1.25 15.29V11.29C1.25 7.08001 3.82001 5.98001 5.98001 5.79001C6.22001 5.76001 6.50001 5.75 6.79001 5.75H13.19C16.81 5.75 18.73 7.67001 18.73 11.29V15.29C18.73 15.58 18.72 15.86 18.68 16.13C18.5 18.26 17.4 20.83 13.19 20.83H12.79L11.55 22.45C11.16 22.98 10.59 23.28 9.98999 23.28ZM6.79001 7.25C6.56001 7.25 6.34 7.26 6.13 7.28C3.81 7.48 2.75 8.75001 2.75 11.29V15.29C2.75 18.72 3.81001 19.33 6.79001 19.33H7.19C7.64 19.33 8.14999 19.58 8.42999 19.94L9.63 21.55C9.85001 21.85 10.13 21.85 10.35 21.55L11.55 19.95C11.84 19.56 12.3 19.33 12.79 19.33H13.19C15.73 19.33 17 18.26 17.19 15.98C17.22 15.74 17.23 15.52 17.23 15.29V11.29C17.23 8.50001 15.98 7.25 13.19 7.25H6.79001Z" fill="#F1EEEE"/>
<path d="M9.99219 14.6914C9.43219 14.6914 8.99219 14.2414 8.99219 13.6914C8.99219 13.1414 9.44219 12.6914 9.99219 12.6914C10.5422 12.6914 10.9922 13.1414 10.9922 13.6914C10.9922 14.2414 10.5522 14.6914 9.99219 14.6914Z" fill="#F1EEEE"/>
<path d="M13.1875 14.6914C12.6275 14.6914 12.1875 14.2414 12.1875 13.6914C12.1875 13.1414 12.6375 12.6914 13.1875 12.6914C13.7375 12.6914 14.1875 13.1414 14.1875 13.6914C14.1875 14.2414 13.7375 14.6914 13.1875 14.6914Z" fill="#F1EEEE"/>
<path d="M6.79688 14.6914C6.23687 14.6914 5.79688 14.2414 5.79688 13.6914C5.79688 13.1414 6.24687 12.6914 6.79688 12.6914C7.34687 12.6914 7.79688 13.1414 7.79688 13.6914C7.79688 14.2414 7.34687 14.6914 6.79688 14.6914Z" fill="#F1EEEE"/>
<path d="M17.9396 16.79C17.7396 16.79 17.5396 16.71 17.3996 16.56C17.2396 16.4 17.1697 16.17 17.1997 15.95C17.2297 15.74 17.2396 15.52 17.2396 15.29V11.29C17.2396 8.50001 15.9897 7.25 13.1997 7.25H6.79963C6.56963 7.25 6.34966 7.26 6.13966 7.28C5.91966 7.31 5.68964 7.22999 5.52964 7.07999C5.36964 6.91999 5.27963 6.70001 5.29963 6.48001C5.47963 4.32001 6.58963 1.75 10.7996 1.75H17.1997C20.8197 1.75 22.7396 3.67001 22.7396 7.29001V11.29C22.7396 15.5 20.1697 16.6 18.0097 16.79C17.9797 16.79 17.9596 16.79 17.9396 16.79ZM6.91966 5.75H13.1896C16.8096 5.75 18.7297 7.67001 18.7297 11.29V15.16C20.4297 14.74 21.2297 13.49 21.2297 11.29V7.29001C21.2297 4.50001 19.9796 3.25 17.1896 3.25H10.7897C8.58965 3.25 7.34966 4.05 6.91966 5.75Z" fill="#F1EEEE"/>
</svg>
