<svg width="28" height="28" viewBox="0 0 28 28" fill="none" xmlns="http://www.w3.org/2000/svg">
<path d="M13.9999 15.1666C14.6442 15.1666 15.1665 14.6443 15.1665 14C15.1665 13.3556 14.6442 12.8333 13.9999 12.8333C13.3555 12.8333 12.8332 13.3556 12.8332 14C12.8332 14.6443 13.3555 15.1666 13.9999 15.1666Z" fill="#1A1A1A" stroke="#1A1A1A" stroke-width="1.33333" stroke-linecap="round" stroke-linejoin="round"/>
<path d="M13.9999 7.00002C14.6442 7.00002 15.1665 6.47769 15.1665 5.83335C15.1665 5.18902 14.6442 4.66669 13.9999 4.66669C13.3555 4.66669 12.8332 5.18902 12.8332 5.83335C12.8332 6.47769 13.3555 7.00002 13.9999 7.00002Z" fill="#1A1A1A" stroke="#1A1A1A" stroke-width="1.33333" stroke-linecap="round" stroke-linejoin="round"/>
<path d="M13.9999 23.3333C14.6442 23.3333 15.1665 22.811 15.1665 22.1667C15.1665 21.5223 14.6442 21 13.9999 21C13.3555 21 12.8332 21.5223 12.8332 22.1667C12.8332 22.811 13.3555 23.3333 13.9999 23.3333Z" fill="#1A1A1A" stroke="#1A1A1A" stroke-width="1.33333" stroke-linecap="round" stroke-linejoin="round"/>
</svg>
