<svg width="50" height="50" viewBox="0 0 50 50" fill="none" xmlns="http://www.w3.org/2000/svg">
<path d="M15.4374 8.943V5M33.9926 8.943V5M24.715 44.43C15.4211 44.43 10.7753 44.43 7.88767 41.8316C5 39.2331 5 35.0496 5 26.6865C5 18.3234 5 14.1399 7.88767 11.5414C10.7753 8.943 15.4211 8.943 24.715 8.943C34.0089 8.943 38.6547 8.943 41.5423 11.5414C44.43 14.1399 44.43 18.3234 44.43 26.6865C44.43 35.0496 44.43 39.2331 41.5423 41.8316C38.6547 44.43 34.0089 44.43 24.715 44.43Z" stroke="#0085FE" stroke-width="2.5" stroke-linecap="round" stroke-linejoin="round"/>
<path d="M28.9578 17.943C28.9578 18.9887 28.4691 19.9917 27.5991 20.7311C26.7292 21.4706 25.5493 21.886 24.319 21.886C23.0887 21.886 21.9088 21.4706 21.0389 20.7311C20.1689 19.9917 19.6802 18.9887 19.6802 17.943C19.6802 16.8973 20.1689 15.8943 21.0389 15.1549C21.9088 14.4154 23.0887 14 24.319 14C25.5493 14 26.7292 14.4154 27.5991 15.1549C28.4691 15.8943 28.9578 16.8973 28.9578 17.943ZM15.1457 32.1831C17.5997 28.9696 21.4986 27.767 24.319 27.769C27.1394 27.7709 30.9247 28.9716 33.3786 32.1851C33.5363 32.3921 33.5804 32.6464 33.4366 32.8633C32.8637 33.7288 31.0801 35.446 29.7951 35.5623C28.3153 35.6944 24.4442 35.7141 24.3213 35.7141C24.1984 35.7141 20.2113 35.6944 18.7315 35.5623C17.4419 35.444 15.6606 33.7288 15.0854 32.8613C14.9439 32.6464 14.988 32.3921 15.1457 32.1831Z" stroke="#0085FE" stroke-width="2.5" stroke-linecap="round" stroke-linejoin="round"/>
</svg>
