<svg width="20" height="20" viewBox="0 0 20 20" fill="none" xmlns="http://www.w3.org/2000/svg">
<path d="M11.0281 16.8767L17.4998 10.25" stroke="#2399F5" stroke-width="1.66667" stroke-linecap="round" stroke-linejoin="round"/>
<path d="M13.3331 5.0001L6.32148 12.1551C6.00903 12.4676 5.8335 12.8915 5.8335 13.3334C5.8335 13.7754 6.00903 14.1992 6.32148 14.5118C6.63403 14.8242 7.05787 14.9997 7.49981 14.9997C7.94175 14.9997 8.3656 14.8242 8.67815 14.5118L15.6898 7.35677C16.3147 6.73168 16.6658 5.88398 16.6658 5.0001C16.6658 4.11622 16.3147 3.26853 15.6898 2.64344C15.0647 2.01853 14.217 1.66748 13.3331 1.66748C12.4493 1.66748 11.6016 2.01853 10.9765 2.64344L3.96398 9.7976C3.02622 10.7354 2.49939 12.0072 2.49939 13.3334C2.49939 14.6596 3.02622 15.9315 3.96398 16.8693C4.90174 17.807 6.17362 18.3339 7.49981 18.3339C8.82601 18.3339 10.0979 17.807 11.0356 16.8693" stroke="#2399F5" stroke-width="1.66667" stroke-linecap="round" stroke-linejoin="round"/>
</svg>
