<svg width="25" height="24" viewBox="0 0 25 24" fill="none" xmlns="http://www.w3.org/2000/svg">
<path d="M11.5 17L13.5 19C13.697 19.197 13.9308 19.3532 14.1882 19.4598C14.4456 19.5665 14.7214 19.6213 15 19.6213C15.2786 19.6213 15.5544 19.5665 15.8118 19.4598C16.0692 19.3532 16.303 19.197 16.5 19C16.697 18.803 16.8532 18.5692 16.9598 18.3118C17.0665 18.0544 17.1213 17.7786 17.1213 17.5C17.1213 17.2214 17.0665 16.9456 16.9598 16.6882C16.8532 16.4308 16.697 16.197 16.5 16" stroke="#2399F5" stroke-width="1.75" stroke-linecap="round" stroke-linejoin="round"/>
<path d="M14.5 14L17 16.5C17.3978 16.8978 17.9374 17.1213 18.5 17.1213C19.0626 17.1213 19.6022 16.8978 20 16.5C20.3978 16.1022 20.6213 15.5626 20.6213 15C20.6213 14.4374 20.3978 13.8978 20 13.5L16.12 9.62002C15.5575 9.05821 14.795 8.74265 14 8.74265C13.205 8.74265 12.4425 9.05821 11.88 9.62002L11 10.5C10.6022 10.8978 10.0626 11.1213 9.49998 11.1213C8.93737 11.1213 8.39781 10.8978 7.99998 10.5C7.60216 10.1022 7.37866 9.56262 7.37866 9.00002C7.37866 8.43741 7.60216 7.89784 7.99998 7.50002L10.81 4.69002C11.7222 3.78016 12.9119 3.20057 14.1906 3.04299C15.4694 2.88541 16.7641 3.15885 17.87 3.82002L18.34 4.10002C18.7658 4.357 19.272 4.44613 19.76 4.35002L21.5 4.00002" stroke="#2399F5" stroke-width="1.75" stroke-linecap="round" stroke-linejoin="round"/>
<path d="M21.5 3L22.5 14H20.5M3.5 3L2.5 14L9 20.5C9.39782 20.8978 9.93739 21.1213 10.5 21.1213C11.0626 21.1213 11.6022 20.8978 12 20.5C12.3978 20.1022 12.6213 19.5626 12.6213 19C12.6213 18.4374 12.3978 17.8978 12 17.5M3.5 4H11.5" stroke="#2399F5" stroke-width="1.75" stroke-linecap="round" stroke-linejoin="round"/>
</svg>
