<svg width="50" height="50" viewBox="0 0 50 50" fill="none" xmlns="http://www.w3.org/2000/svg">
<path fill-rule="evenodd" clip-rule="evenodd" d="M32.3333 15.375C31.7255 15.375 31.1426 15.6164 30.7128 16.0462C30.2831 16.476 30.0416 17.0589 30.0416 17.6667C30.0416 18.2745 30.2831 18.8573 30.7128 19.2871C31.1426 19.7169 31.7255 19.9583 32.3333 19.9583C32.9411 19.9583 33.524 19.7169 33.9537 19.2871C34.3835 18.8573 34.625 18.2745 34.625 17.6667C34.625 17.0589 34.3835 16.476 33.9537 16.0462C33.524 15.6164 32.9411 15.375 32.3333 15.375ZM27.2916 17.6667C27.2916 16.3295 27.8228 15.0472 28.7683 14.1017C29.7138 13.1562 30.9962 12.625 32.3333 12.625C33.6704 12.625 34.9528 13.1562 35.8983 14.1017C36.8438 15.0472 37.375 16.3295 37.375 17.6667C37.375 19.0038 36.8438 20.2862 35.8983 21.2317C34.9528 22.1772 33.6704 22.7083 32.3333 22.7083C30.9962 22.7083 29.7138 22.1772 28.7683 21.2317C27.8228 20.2862 27.2916 19.0038 27.2916 17.6667Z" fill="#0085FE"/>
<path fill-rule="evenodd" clip-rule="evenodd" d="M24.8955 5.29175H25.1045C29.3376 5.29175 32.6541 5.29175 35.2428 5.64008C37.8901 5.99575 39.9801 6.74008 41.621 8.37908C43.2618 10.0199 44.0043 12.1099 44.36 14.7591C44.7083 17.3459 44.7083 20.6624 44.7083 24.8956V25.1046C44.7083 29.3377 44.7083 32.6542 44.36 35.2429C44.0043 37.8902 43.26 39.9802 41.621 41.6211C39.9801 43.2619 37.8901 44.0044 35.241 44.3601C32.6541 44.7084 29.3376 44.7084 25.1045 44.7084H24.8955C20.6623 44.7084 17.3458 44.7084 14.7571 44.3601C12.1098 44.0044 10.0198 43.2601 8.37896 41.6211C6.73813 39.9802 5.99563 37.8903 5.63996 35.2411C5.29163 32.6542 5.29163 29.3377 5.29163 25.1046V24.8956C5.29163 20.6624 5.29163 17.3459 5.63996 14.7572C5.99563 12.1099 6.73996 10.0199 8.37896 8.37908C10.0198 6.73825 12.1098 5.99575 14.759 5.64008C17.3458 5.29175 20.6623 5.29175 24.8955 5.29175ZM10.3241 39.6759C9.27913 38.6309 8.67963 37.2192 8.36429 34.8744C8.08379 32.7826 8.04713 30.1132 8.04163 26.5401L10.7825 24.1421C11.3249 23.6671 12.0277 23.416 12.7484 23.4399C13.469 23.4637 14.1537 23.7606 14.6636 24.2704L22.5286 32.1354C23.3677 32.9749 24.4761 33.4914 25.6586 33.594C26.841 33.6967 28.0218 33.3788 28.993 32.6964L29.5393 32.3114C30.3032 31.7743 31.2267 31.5124 32.1589 31.5683C33.091 31.6243 33.9766 31.9948 34.6708 32.6194L40.5796 37.9398C40.6444 37.9972 40.7122 38.0479 40.7831 38.0919C40.5104 38.6811 40.1355 39.2174 39.6758 39.6759C38.6308 40.7209 37.2191 41.3204 34.8743 41.6357C32.491 41.9547 29.3596 41.9584 25 41.9584C20.6403 41.9584 17.509 41.9547 15.1256 41.6357C12.7808 41.3204 11.3691 40.7191 10.3241 39.6759ZM15.1256 8.36441C12.7808 8.67975 11.3673 9.28108 10.3223 10.3242C9.27913 11.3692 8.67963 12.7809 8.36429 15.1257C8.09846 17.1057 8.05263 19.5991 8.04346 22.8862L8.97296 22.0722C10.0406 21.1382 11.4234 20.6449 12.8412 20.6922C14.259 20.7395 15.6058 21.3239 16.6088 22.3271L24.4738 30.1921C24.8554 30.573 25.359 30.8072 25.8962 30.8535C26.4334 30.8998 26.9697 30.7552 27.4108 30.4451L27.9571 30.0601C29.2305 29.1652 30.7699 28.7289 32.3234 28.8225C33.877 28.916 35.3529 29.534 36.5096 30.5752L41.5953 35.1531L41.6356 34.8744C41.9546 32.4911 41.9583 29.3597 41.9583 25.0001C41.9583 20.6404 41.9546 17.5091 41.6356 15.1257C41.3203 12.7809 40.719 11.3674 39.6758 10.3224C38.6308 9.27925 37.2191 8.67975 34.8743 8.36441C32.491 8.04541 29.3596 8.04175 25 8.04175C20.6403 8.04175 17.509 8.04541 15.1256 8.36441Z" fill="#0085FE"/>
</svg>
