<svg width="20" height="20" viewBox="0 0 20 20" fill="none" xmlns="http://www.w3.org/2000/svg">
<g clip-path="url(#clip0_671_5806)">
<path d="M9.58558 13.3393L7.09454 11.0167C7.0184 10.9338 6.97862 10.8271 6.98313 10.7181C6.98765 10.609 7.03614 10.5056 7.11891 10.4284C7.20168 10.3512 7.31263 10.306 7.4296 10.3018C7.54656 10.2976 7.66093 10.3347 7.74983 10.4057L9.58558 12.1L13.601 8.356C13.6899 8.28501 13.8043 8.24791 13.9212 8.25212C14.0382 8.25634 14.1491 8.30155 14.2319 8.37872C14.3147 8.4559 14.3632 8.55935 14.3677 8.66841C14.3722 8.77747 14.3324 8.8841 14.2563 8.967L9.58558 13.3393Z" fill="#303030"/>
<path d="M17.0587 4.73334H15.5483V5.6H16.9425V15.1333H3.92961V5.6H5.32385V4.73334H3.81343C3.70479 4.73503 3.59757 4.75666 3.49789 4.797C3.39822 4.83733 3.30805 4.89558 3.23252 4.96842C3.157 5.04125 3.0976 5.12725 3.05772 5.22149C3.01785 5.31573 2.99827 5.41637 3.00012 5.51767V15.2157C2.99827 15.317 3.01785 15.4176 3.05772 15.5119C3.0976 15.6061 3.157 15.6921 3.23252 15.7649C3.30805 15.8378 3.39822 15.896 3.49789 15.9363C3.59757 15.9767 3.70479 15.9983 3.81343 16H17.0587C17.1673 15.9983 17.2746 15.9767 17.3742 15.9363C17.4739 15.896 17.5641 15.8378 17.6396 15.7649C17.7151 15.6921 17.7745 15.6061 17.8144 15.5119C17.8543 15.4176 17.8739 15.317 17.872 15.2157V5.51767C17.8739 5.41637 17.8543 5.31573 17.8144 5.22149C17.7745 5.12725 17.7151 5.04125 17.6396 4.96842C17.5641 4.89558 17.4739 4.83733 17.3742 4.797C17.2746 4.75666 17.1673 4.73503 17.0587 4.73334Z" fill="#303030"/>
<path d="M6.7181 6.46667C6.84136 6.46667 6.95957 6.42101 7.04673 6.33975C7.13389 6.25848 7.18285 6.14826 7.18285 6.03333V3.43333C7.18285 3.31841 7.13389 3.20819 7.04673 3.12692C6.95957 3.04565 6.84136 3 6.7181 3C6.59484 3 6.47663 3.04565 6.38948 3.12692C6.30232 3.20819 6.25336 3.31841 6.25336 3.43333V6.03333C6.25336 6.14826 6.30232 6.25848 6.38948 6.33975C6.47663 6.42101 6.59484 6.46667 6.7181 6.46667Z" fill="#303030"/>
<path d="M14.154 6.46667C14.2773 6.46667 14.3955 6.42101 14.4827 6.33975C14.5698 6.25848 14.6188 6.14826 14.6188 6.03333V3.43333C14.6188 3.31841 14.5698 3.20819 14.4827 3.12692C14.3955 3.04565 14.2773 3 14.154 3C14.0308 3 13.9126 3.04565 13.8254 3.12692C13.7383 3.20819 13.6893 3.31841 13.6893 3.43333V6.03333C13.6893 6.14826 13.7383 6.25848 13.8254 6.33975C13.9126 6.42101 14.0308 6.46667 14.154 6.46667Z" fill="#303030"/>
<path d="M8.11234 4.73334H12.7598V5.6H8.11234V4.73334Z" fill="#303030"/>
</g>
<defs>
<clipPath id="clip0_671_5806">
<rect width="20" height="20" fill="white"/>
</clipPath>
</defs>
</svg>
