<svg width="10" height="11" viewBox="0 0 10 11" fill="none" xmlns="http://www.w3.org/2000/svg">
<path d="M1 5.5C1 6.02529 1.10346 6.54543 1.30448 7.03073C1.5055 7.51604 1.80014 7.95699 2.17157 8.32843C2.54301 8.69986 2.98396 8.9945 3.46927 9.19552C3.95457 9.39654 4.47471 9.5 5 9.5C5.52529 9.5 6.04543 9.39654 6.53073 9.19552C7.01604 8.9945 7.45699 8.69986 7.82843 8.32843C8.19986 7.95699 8.4945 7.51604 8.69552 7.03073C8.89654 6.54543 9 6.02529 9 5.5C9 4.43913 8.57857 3.42172 7.82843 2.67157C7.07828 1.92143 6.06087 1.5 5 1.5C3.93913 1.5 2.92172 1.92143 2.17157 2.67157C1.42143 3.42172 1 4.43913 1 5.5Z" stroke="#505050" stroke-width="0.75" stroke-linecap="round" stroke-linejoin="round"/>
<path d="M5 3.2776V5.49983L6.33333 6.83316" stroke="#505050" stroke-width="0.75" stroke-linecap="round" stroke-linejoin="round"/>
</svg>
