<svg width="12" height="12" viewBox="0 0 12 12" fill="none" xmlns="http://www.w3.org/2000/svg">
<path d="M10.9998 1.00009C10.8436 0.843866 10.6317 0.756104 10.4107 0.756104C10.1897 0.756104 9.97779 0.843866 9.82152 1.00009L5.99985 4.82176L2.17818 1.00009C2.02191 0.843866 1.80998 0.756104 1.58901 0.756104C1.36804 0.756104 1.15612 0.843866 0.999848 1.00009C0.843622 1.15637 0.755859 1.36829 0.755859 1.58926C0.755859 1.81023 0.843622 2.02215 0.999848 2.17843L4.82152 6.00009L0.999848 9.82176C0.843622 9.97803 0.755859 10.19 0.755859 10.4109C0.755859 10.6319 0.843622 10.8438 0.999848 11.0001C1.15612 11.1563 1.36804 11.2441 1.58901 11.2441C1.80998 11.2441 2.02191 11.1563 2.17818 11.0001L5.99985 7.17843L9.82152 11.0001C9.97779 11.1563 10.1897 11.2441 10.4107 11.2441C10.6317 11.2441 10.8436 11.1563 10.9998 11.0001C11.1561 10.8438 11.2438 10.6319 11.2438 10.4109C11.2438 10.19 11.1561 9.97803 10.9998 9.82176L7.17818 6.00009L10.9998 2.17843C11.1561 2.02215 11.2438 1.81023 11.2438 1.58926C11.2438 1.36829 11.1561 1.15637 10.9998 1.00009Z" fill="#191A33"/>
</svg>
