<svg width="24" height="24" viewBox="0 0 24 24" fill="none" xmlns="http://www.w3.org/2000/svg">
<path fill-rule="evenodd" clip-rule="evenodd" d="M5.46934 5.46934C5.60997 5.32889 5.80059 5.25 5.99934 5.25C6.19809 5.25 6.38871 5.32889 6.52934 5.46934L18.5293 17.4693C18.603 17.538 18.6621 17.6208 18.7031 17.7128C18.7441 17.8048 18.7662 17.9041 18.7679 18.0048C18.7697 18.1055 18.7512 18.2055 18.7135 18.2989C18.6757 18.3923 18.6196 18.4772 18.5484 18.5484C18.4772 18.6196 18.3923 18.6757 18.2989 18.7135C18.2055 18.7512 18.1055 18.7697 18.0048 18.7679C17.9041 18.7662 17.8048 18.7441 17.7128 18.7031C17.6208 18.6621 17.538 18.603 17.4693 18.5293L5.46934 6.52934C5.32889 6.38871 5.25 6.19809 5.25 5.99934C5.25 5.80059 5.32889 5.60997 5.46934 5.46934Z" fill="white"/>
<path fill-rule="evenodd" clip-rule="evenodd" d="M18.5308 5.46934C18.6713 5.60997 18.7502 5.80059 18.7502 5.99934C18.7502 6.19809 18.6713 6.38871 18.5308 6.52934L6.53082 18.5293C6.38865 18.6618 6.2006 18.7339 6.0063 18.7305C5.812 18.7271 5.62661 18.6484 5.4892 18.511C5.35179 18.3735 5.27308 18.1882 5.26965 17.9939C5.26622 17.7996 5.33834 17.6115 5.47082 17.4693L17.4708 5.46934C17.6114 5.32889 17.8021 5.25 18.0008 5.25C18.1996 5.25 18.3902 5.32889 18.5308 5.46934Z" fill="white"/>
</svg>
