<svg width="24" height="24" viewBox="0 0 24 24" fill="none" xmlns="http://www.w3.org/2000/svg">
<path d="M15.3545 9.36654C15.1634 9.41732 14.9916 9.52364 14.8609 9.67205C14.7302 9.82046 14.6464 10.0043 14.6202 10.2003C14.5939 10.3963 14.6264 10.5957 14.7135 10.7733C14.8005 10.9509 14.9383 11.0986 15.1094 11.1979C15.2804 11.2972 15.4771 11.3435 15.6744 11.331C15.8718 11.3185 16.061 11.2478 16.2182 11.1278C16.3754 11.0078 16.4935 10.8438 16.5575 10.6567C16.6215 10.4696 16.6286 10.2677 16.5779 10.0765C16.5442 9.94958 16.4858 9.83051 16.4061 9.72611C16.3264 9.62172 16.2269 9.53405 16.1133 9.46812C15.9997 9.40219 15.8742 9.35928 15.744 9.34185C15.6138 9.32442 15.4815 9.33281 15.3545 9.36654Z" fill="#090707"/>
<path d="M12.0211 7.36654C11.8299 7.41732 11.6581 7.52364 11.5274 7.67205C11.3967 7.82046 11.3129 8.00429 11.2867 8.20031C11.2604 8.39633 11.2929 8.59573 11.38 8.7733C11.4671 8.95086 11.6048 9.09862 11.7759 9.1979C11.9469 9.29717 12.1436 9.34349 12.3409 9.33102C12.5383 9.31854 12.7275 9.24781 12.8847 9.12779C13.0419 9.00777 13.16 8.84383 13.224 8.65671C13.288 8.46959 13.2951 8.26769 13.2444 8.07654C13.2107 7.94958 13.1523 7.83051 13.0726 7.72611C12.9929 7.62172 12.8934 7.53405 12.7798 7.46812C12.6662 7.40219 12.5407 7.35928 12.4105 7.34185C12.2803 7.32442 12.148 7.33281 12.0211 7.36654Z" fill="#090707"/>
<path d="M8.68804 9.36654C8.49691 9.41732 8.32512 9.52364 8.1944 9.67205C8.06369 9.82046 7.97991 10.0043 7.95367 10.2003C7.92743 10.3963 7.95989 10.5957 8.04697 10.7733C8.13404 10.9509 8.27181 11.0986 8.44286 11.1979C8.61391 11.2972 8.81055 11.3435 9.00792 11.331C9.2053 11.3185 9.39454 11.2478 9.55172 11.1278C9.7089 11.0078 9.82697 10.8438 9.89098 10.6567C9.955 10.4696 9.9621 10.2677 9.91138 10.0765C9.87769 9.94958 9.81932 9.83051 9.73961 9.72611C9.65989 9.62172 9.56039 9.53405 9.44679 9.46812C9.33319 9.40219 9.20771 9.35928 9.07752 9.34185C8.94733 9.32442 8.81499 9.33281 8.68804 9.36654Z" fill="#090707"/>
<path d="M8.68804 13.3665C8.49691 13.4173 8.32512 13.5236 8.1944 13.672C8.06369 13.8205 7.97991 14.0043 7.95367 14.2003C7.92743 14.3963 7.95989 14.5957 8.04697 14.7733C8.13404 14.9509 8.27181 15.0986 8.44286 15.1979C8.61391 15.2972 8.81055 15.3435 9.00792 15.331C9.2053 15.3185 9.39454 15.2478 9.55172 15.1278C9.7089 15.0078 9.82697 14.8438 9.89098 14.6567C9.955 14.4696 9.9621 14.2677 9.91138 14.0765C9.87769 13.9496 9.81932 13.8305 9.73961 13.7261C9.65989 13.6217 9.56039 13.5341 9.44679 13.4681C9.33319 13.4022 9.20771 13.3593 9.07752 13.3419C8.94733 13.3244 8.81499 13.3328 8.68804 13.3665Z" fill="#090707"/>
<path d="M12.278 4.00483C11.2047 3.96751 10.1348 4.14669 9.13218 4.53169C8.12957 4.91669 7.21474 5.49963 6.44224 6.24575C5.66974 6.99188 5.05538 7.88591 4.6358 8.87454C4.21621 9.86318 3.99998 10.9262 4 12.0002C4.00247 14.1211 4.84612 16.1545 6.34587 17.6543C7.84563 19.154 9.87903 19.9977 12 20.0002C12.2253 20.0002 12.4467 19.9855 12.6667 19.9668C12.8336 19.9528 12.9891 19.8764 13.1023 19.7528C13.2154 19.6293 13.2779 19.4677 13.2773 19.3002L13.256 16.9082C13.2506 16.4355 13.3862 15.9719 13.6455 15.5767C13.9048 15.1814 14.276 14.8724 14.7117 14.6891C15.1474 14.5058 15.6279 14.4565 16.0918 14.5475C16.5557 14.6386 16.9819 14.8658 17.316 15.2002L17.3827 15.2668C17.534 15.4195 17.7215 15.5314 17.9277 15.5921C18.1339 15.6528 18.3521 15.6604 18.562 15.6142C18.7685 15.5708 18.9608 15.4762 19.1213 15.3391C19.2817 15.202 19.405 15.0268 19.48 14.8295C19.8481 13.863 20.024 12.834 19.998 11.8002C19.923 9.76951 19.0877 7.84115 17.6579 6.39732C16.228 4.95349 14.3078 4.09957 12.278 4.00483ZM18.266 14.2715L18.2567 14.2622C17.7356 13.7419 17.0715 13.3885 16.3489 13.2467C15.6263 13.105 14.8779 13.1814 14.1989 13.4662C13.5199 13.7511 12.941 14.2314 12.5357 14.8463C12.1305 15.4611 11.9173 16.1825 11.9233 16.9188L11.9393 18.6668C10.1712 18.6589 8.47869 17.9489 7.23408 16.693C5.98946 15.4371 5.29471 13.7383 5.30267 11.9702C5.31062 10.2021 6.02063 8.50952 7.2765 7.26491C8.53237 6.02029 10.2312 5.32554 11.9993 5.3335C12.0773 5.3335 12.156 5.3335 12.2347 5.3375C13.9256 5.41692 15.525 6.12866 16.7159 7.33168C17.9068 8.53469 18.6023 10.1412 18.6647 11.8328C18.6867 12.6619 18.5521 13.4877 18.268 14.2668L18.266 14.2715Z" fill="#090707"/>
</svg>
