<svg width="10" height="11" viewBox="0 0 10 11" fill="none" xmlns="http://www.w3.org/2000/svg">
<path d="M1.5 4.65C1.5 4.226 1.5 3.9225 1.52 3.685C1.539 3.4505 1.575 3.302 1.636 3.1825L1.191 2.9555C1.088 3.157 1.043 3.379 1.021 3.6445C1 3.907 1 4.2345 1 4.65H1.5ZM1.5 5.25V4.65H1V5.25H1.5ZM1 5.25V7.75H1.5V5.25H1ZM1 7.75V8.707H1.5V7.75H1ZM1 8.707C1 9.13 1.5115 9.342 1.811 9.0425L1.4575 8.689C1.4618 8.68612 1.46652 8.68393 1.4715 8.6825L1.4845 8.6835C1.48865 8.68586 1.49218 8.68918 1.49479 8.69318C1.4974 8.69718 1.49901 8.70175 1.4995 8.7065L1 8.707ZM1.811 9.0425L2.7805 8.073L2.427 7.7195L1.457 8.6895L1.811 9.0425ZM6.35 7.5H2.957V8H6.35V7.5ZM7.8175 7.364C7.698 7.425 7.5495 7.461 7.315 7.4805C7.077 7.5 6.774 7.5 6.35 7.5V8C6.766 8 7.093 8 7.3555 7.9785C7.621 7.957 7.843 7.912 8.0445 7.8095L7.8175 7.364ZM8.3635 6.8175C8.24368 7.05256 8.05256 7.24418 7.8175 7.364L8.0445 7.8095C8.3739 7.6417 8.6417 7.3739 8.8095 7.0445L8.3635 6.8175ZM8.5 5.35C8.5 5.774 8.5 6.0775 8.48 6.315C8.461 6.5495 8.425 6.698 8.3635 6.8175L8.8095 7.0445C8.912 6.843 8.957 6.621 8.9785 6.3555C9 6.093 9 5.7655 9 5.35H8.5ZM8.5 4.65V5.35H9V4.65H8.5ZM8.3635 3.1825C8.4245 3.302 8.461 3.4505 8.4805 3.685C8.5 3.9225 8.5 4.226 8.5 4.65H9C9 4.234 9 3.907 8.9785 3.6445C8.957 3.379 8.912 3.157 8.8095 2.9555L8.3635 3.1825ZM7.8175 2.636C8.05264 2.75595 8.24377 2.94725 8.3635 3.1825L8.8095 2.9555C8.6417 2.6261 8.3739 2.3583 8.0445 2.1905L7.8175 2.636ZM6.35 2.5C6.774 2.5 7.077 2.5 7.315 2.52C7.5495 2.539 7.698 2.575 7.8175 2.636L8.0445 2.1905C7.843 2.0875 7.621 2.043 7.3555 2.021C7.093 2 6.7655 2 6.35 2V2.5ZM3.65 2.5H6.35V2H3.65V2.5ZM2.1825 2.636C2.302 2.5755 2.4505 2.539 2.685 2.5195C2.9225 2.5 3.226 2.5 3.65 2.5V2C3.234 2 2.907 2 2.6445 2.0215C2.379 2.043 2.157 2.088 1.9555 2.1905L2.1825 2.636ZM1.636 3.1825C1.75586 2.94718 1.94718 2.75586 2.1825 2.636L1.9555 2.1905C1.62618 2.35817 1.35888 2.62629 1.191 2.9555L1.636 3.1825ZM2.7805 8.073C2.82735 8.02627 2.89082 8.00001 2.957 8V7.5C2.75815 7.50018 2.56752 7.57931 2.427 7.72L2.7805 8.073Z" fill="#505050"/>
<path d="M1.4135 3.069L1.636 3.1825M1.636 3.1825C1.575 3.302 1.539 3.4505 1.52 3.685C1.5 3.9225 1.5 4.226 1.5 4.65M1.636 3.1825L1.191 2.9555M1.636 3.1825C1.75586 2.94718 1.94718 2.75586 2.1825 2.636M1.634 8.866L1.811 9.0425M1.811 9.0425C1.5115 9.342 1 9.13 1 8.707M1.811 9.0425L1.4575 8.689C1.4618 8.68612 1.46652 8.68393 1.4715 8.6825L1.4845 8.6835C1.48865 8.68586 1.49218 8.68918 1.49479 8.69318C1.4974 8.69718 1.49901 8.70175 1.4995 8.7065L1 8.707M1.811 9.0425L2.7805 8.073M1.811 9.0425L1.457 8.6895L2.427 7.7195L2.7805 8.073M7.931 7.5865L7.8175 7.364M7.8175 7.364C7.698 7.425 7.5495 7.461 7.315 7.4805C7.077 7.5 6.774 7.5 6.35 7.5M7.8175 7.364L8.0445 7.8095M7.8175 7.364C8.05256 7.24418 8.24368 7.05256 8.3635 6.8175M8.5865 6.931L8.364 6.8175M8.5865 3.069L8.364 3.1825M7.931 2.4135L8.0445 2.1905M8.0445 2.1905C8.3739 2.3583 8.6417 2.6261 8.8095 2.9555M8.0445 2.1905L7.8175 2.636M8.0445 2.1905C7.843 2.0875 7.621 2.043 7.3555 2.021C7.093 2 6.7655 2 6.35 2M2.069 2.4135L2.1825 2.636M2.1825 2.636C2.302 2.5755 2.4505 2.539 2.685 2.5195C2.9225 2.5 3.226 2.5 3.65 2.5M2.1825 2.636L1.9555 2.1905M2.604 7.8965L2.7805 8.073M2.7805 8.073C2.82735 8.02627 2.89082 8.00001 2.957 8M2.7805 8.073L2.427 7.72C2.56752 7.57931 2.75815 7.50018 2.957 7.5M1.5 4.65H1M1.5 4.65V5.25M1.191 2.9555C1.088 3.157 1.043 3.379 1.021 3.6445C1 3.907 1 4.2345 1 4.65M1.191 2.9555C1.35888 2.62629 1.62618 2.35817 1.9555 2.1905M1 4.65V5.25M1.5 5.25H1M1.5 5.25V7.75M1 5.25V7.75M1 7.75H1.5M1 7.75V8.707M1.5 7.75V8.707H1M6.35 7.5H2.957M6.35 7.5V8M2.957 7.5V8M2.957 8H6.35M6.35 8C6.766 8 7.093 8 7.3555 7.9785C7.621 7.957 7.843 7.912 8.0445 7.8095M8.0445 7.8095C8.3739 7.6417 8.6417 7.3739 8.8095 7.0445M8.3635 6.8175L8.8095 7.0445M8.3635 6.8175C8.425 6.698 8.461 6.5495 8.48 6.315C8.5 6.0775 8.5 5.774 8.5 5.35M8.8095 7.0445C8.912 6.843 8.957 6.621 8.9785 6.3555C9 6.093 9 5.7655 9 5.35M8.5 5.35H9M8.5 5.35V4.65M9 5.35V4.65M8.5 4.65H9M8.5 4.65C8.5 4.226 8.5 3.9225 8.4805 3.685C8.461 3.4505 8.4245 3.302 8.3635 3.1825M9 4.65C9 4.234 9 3.907 8.9785 3.6445C8.957 3.379 8.912 3.157 8.8095 2.9555M8.3635 3.1825L8.8095 2.9555M8.3635 3.1825C8.24377 2.94725 8.05264 2.75595 7.8175 2.636M7.8175 2.636C7.698 2.575 7.5495 2.539 7.315 2.52C7.077 2.5 6.774 2.5 6.35 2.5M6.35 2.5V2M6.35 2.5H3.65M6.35 2H3.65M3.65 2.5V2M3.65 2C3.234 2 2.907 2 2.6445 2.0215C2.379 2.043 2.157 2.088 1.9555 2.1905" stroke="#505050" stroke-width="0.238095"/>
<path d="M3.25 4.25H6.75H3.25ZM3.25 5.75H5.75H3.25Z" fill="#505050"/>
<path d="M3.25 4.25H6.75M3.25 5.75H5.75" stroke="#505050" stroke-width="0.714286" stroke-linecap="round" stroke-linejoin="round"/>
</svg>
