<svg width="22" height="20" viewBox="0 0 22 20" fill="none" xmlns="http://www.w3.org/2000/svg">
<path fill-rule="evenodd" clip-rule="evenodd" d="M2.16977 13.5531C-0.519732 7.08152 4.33645 0 11.4634 0H11.8474C14.4073 0.00062193 16.8621 0.997911 18.6721 2.77261C20.4822 4.5473 21.4994 6.95413 21.5 9.46393C21.5003 10.8476 21.2226 12.2178 20.6826 13.4963C20.1427 14.7747 19.3512 15.9363 18.3533 16.9147C17.3553 17.8932 16.1706 18.6692 14.8667 19.1986C13.5627 19.728 12.1652 20.0003 10.7539 20H1.3981C1.2122 20.0002 1.03084 19.9437 0.879082 19.8384C0.727322 19.7332 0.612654 19.5843 0.550921 19.4124C0.489189 19.2405 0.48344 19.054 0.53447 18.8787C0.5855 18.7035 0.690789 18.5481 0.835788 18.434L3.19389 16.5771C3.24431 16.5375 3.2803 16.483 3.29647 16.4217C3.31265 16.3604 3.30814 16.2955 3.28362 16.2369L2.16977 13.5531ZM11.4634 1.75953C5.60942 1.75953 1.62182 7.57419 3.83038 12.8892L4.94542 15.5742C5.11531 15.9835 5.14595 16.4356 5.03279 16.8634C4.91962 17.2911 4.6687 17.6717 4.31731 17.9484L3.94762 18.2405H10.7539C11.9296 18.2408 13.0937 18.014 14.1799 17.573C15.2661 17.1321 16.253 16.4856 17.0843 15.6706C17.9156 14.8555 18.5749 13.8879 19.0247 12.8229C19.4744 11.758 19.7057 10.6166 19.7054 9.46393C19.7048 7.42079 18.8767 5.4615 17.4032 4.01678C15.9296 2.57206 13.9313 1.76015 11.8474 1.75953H11.4634Z" fill="#FFC300"/>
</svg>
