<svg width="25" height="24" viewBox="0 0 25 24" fill="none" xmlns="http://www.w3.org/2000/svg">
<path d="M2.68939 9.37879C2.68939 8.19818 2.68939 7.3531 2.74508 6.6918C2.79798 6.03884 2.89822 5.62535 3.06807 5.29261L1.82899 4.66054C1.5422 5.22161 1.4169 5.83976 1.35564 6.57903C1.29716 7.30994 1.29716 8.22185 1.29716 9.37879H2.68939ZM2.68939 11.0495V9.37879H1.29716V11.0495H2.68939ZM1.29716 11.0495V18.0106H2.68939V11.0495H1.29716ZM1.29716 18.0106V20.6753H2.68939V18.0106H1.29716ZM1.29716 20.6753C1.29716 21.8531 2.72141 22.4434 3.55535 21.6095L2.57105 20.6252C2.58303 20.6172 2.59618 20.6111 2.61003 20.6071L2.64623 20.6099C2.65779 20.6164 2.66761 20.6257 2.67487 20.6368C2.68214 20.648 2.68664 20.6607 2.688 20.6739L1.29716 20.6753ZM3.55535 21.6095L6.25488 18.91L5.27057 17.9257L2.56966 20.6266L3.55535 21.6095ZM16.194 17.3145H6.74633V18.7067H16.194V17.3145ZM20.2801 16.9358C19.9474 17.1056 19.5339 17.2059 18.881 17.2602C18.2183 17.3145 17.3746 17.3145 16.194 17.3145V18.7067C17.3523 18.7067 18.2628 18.7067 18.9937 18.6468C19.733 18.587 20.3512 18.4617 20.9122 18.1763L20.2801 16.9358ZM21.8005 15.4141C21.4668 16.0686 20.9347 16.6022 20.2801 16.9358L20.9122 18.1763C21.8294 17.709 22.5751 16.9634 23.0423 16.0462L21.8005 15.4141ZM22.1805 11.3279C22.1805 12.5085 22.1805 13.3536 22.1248 14.0149C22.0719 14.6679 21.9717 15.0813 21.8005 15.4141L23.0423 16.0462C23.3277 15.4851 23.453 14.8669 23.5129 14.1277C23.5728 13.3968 23.5728 12.4848 23.5728 11.3279H22.1805ZM22.1805 9.37879V11.3279H23.5728V9.37879H22.1805ZM21.8005 5.29261C21.9703 5.62535 22.0719 6.03884 22.1262 6.6918C22.1805 7.3531 22.1805 8.19818 22.1805 9.37879H23.5728C23.5728 8.22046 23.5728 7.30994 23.5129 6.57903C23.453 5.83976 23.3277 5.22161 23.0423 4.66054L21.8005 5.29261ZM20.2801 3.77091C20.9349 4.1049 21.4671 4.63758 21.8005 5.29261L23.0423 4.66054C22.5751 3.74334 21.8294 2.99766 20.9122 2.53044L20.2801 3.77091ZM16.194 3.39222C17.3746 3.39222 18.2183 3.39222 18.881 3.44791C19.5339 3.50082 19.9474 3.60106 20.2801 3.77091L20.9122 2.53044C20.3512 2.24364 19.733 2.11973 18.9937 2.05847C18.2628 2 17.3509 2 16.194 2V3.39222ZM8.67596 3.39222H16.194V2H8.67596V3.39222ZM4.58978 3.77091C4.92252 3.60245 5.33601 3.50082 5.98896 3.44652C6.65027 3.39222 7.49535 3.39222 8.67596 3.39222V2C7.51762 2 6.60711 2 5.87619 2.05987C5.13692 2.11973 4.51877 2.24503 3.95771 2.53044L4.58978 3.77091ZM3.06807 5.29261C3.40183 4.63737 3.93453 4.10466 4.58978 3.77091L3.95771 2.53044C3.04072 2.9973 2.29646 3.74386 1.82899 4.66054L3.06807 5.29261ZM6.25488 18.91C6.38534 18.7798 6.56207 18.7067 6.74633 18.7067V17.3145C6.19266 17.315 5.66184 17.5353 5.27057 17.9271L6.25488 18.91Z" fill="#505050"/>
<path d="M2.44853 4.97658L3.06807 5.29261M3.06807 5.29261C2.89822 5.62535 2.79798 6.03884 2.74508 6.6918C2.68939 7.3531 2.68939 8.19818 2.68939 9.37879M3.06807 5.29261L1.82899 4.66054M3.06807 5.29261C3.40183 4.63737 3.93453 4.10466 4.58978 3.77091M3.06251 21.118L3.55535 21.6095M3.55535 21.6095C2.72141 22.4434 1.29716 21.8531 1.29716 20.6753M3.55535 21.6095L2.57105 20.6252C2.58303 20.6172 2.59618 20.6111 2.61003 20.6071L2.64623 20.6099C2.65779 20.6164 2.66761 20.6257 2.67487 20.6368C2.68214 20.648 2.68664 20.6607 2.688 20.6739L1.29716 20.6753M3.55535 21.6095L6.25488 18.91M3.55535 21.6095L2.56966 20.6266L5.27057 17.9257L6.25488 18.91M20.5962 17.5553L20.2801 16.9358M20.2801 16.9358C19.9474 17.1056 19.5339 17.2059 18.881 17.2602C18.2183 17.3145 17.3746 17.3145 16.194 17.3145M20.2801 16.9358L20.9122 18.1763M20.2801 16.9358C20.9347 16.6022 21.4668 16.0686 21.8005 15.4141M22.4214 15.7301L21.8019 15.4141M22.4214 4.97658L21.8019 5.29261M20.5962 3.15137L20.9122 2.53044M20.9122 2.53044C21.8294 2.99766 22.5751 3.74334 23.0423 4.66054M20.9122 2.53044L20.2801 3.77091M20.9122 2.53044C20.3512 2.24364 19.733 2.11973 18.9937 2.05847C18.2628 2 17.3509 2 16.194 2M4.27374 3.15137L4.58978 3.77091M4.58978 3.77091C4.92252 3.60245 5.33601 3.50082 5.98896 3.44652C6.65027 3.39222 7.49535 3.39222 8.67596 3.39222M4.58978 3.77091L3.95771 2.53044M5.76342 18.4185L6.25488 18.91M6.25488 18.91C6.38534 18.7798 6.56207 18.7067 6.74633 18.7067M6.25488 18.91L5.27057 17.9271C5.66184 17.5353 6.19266 17.315 6.74633 17.3145M2.68939 9.37879H1.29716M2.68939 9.37879V11.0495M1.82899 4.66054C1.5422 5.22161 1.4169 5.83975 1.35564 6.57903C1.29716 7.30994 1.29716 8.22185 1.29716 9.37879M1.82899 4.66054C2.29646 3.74386 3.04072 2.9973 3.95771 2.53044M1.29716 9.37879V11.0495M2.68939 11.0495H1.29716M2.68939 11.0495V18.0106M1.29716 11.0495V18.0106M1.29716 18.0106H2.68939M1.29716 18.0106V20.6753M2.68939 18.0106V20.6753H1.29716M16.194 17.3145H6.74633M16.194 17.3145V18.7067M6.74633 17.3145V18.7067M6.74633 18.7067H16.194M16.194 18.7067C17.3523 18.7067 18.2628 18.7067 18.9937 18.6468C19.733 18.587 20.3512 18.4617 20.9122 18.1763M20.9122 18.1763C21.8294 17.709 22.5751 16.9634 23.0423 16.0462M21.8005 15.4141L23.0423 16.0462M21.8005 15.4141C21.9717 15.0813 22.0719 14.6679 22.1248 14.0149C22.1805 13.3536 22.1805 12.5085 22.1805 11.3279M23.0423 16.0462C23.3277 15.4851 23.453 14.8669 23.5129 14.1277C23.5728 13.3968 23.5728 12.4848 23.5728 11.3279M22.1805 11.3279H23.5728M22.1805 11.3279V9.37879M23.5728 11.3279V9.37879M22.1805 9.37879H23.5728M22.1805 9.37879C22.1805 8.19818 22.1805 7.3531 22.1262 6.6918C22.0719 6.03884 21.9703 5.62535 21.8005 5.29261M23.5728 9.37879C23.5728 8.22046 23.5728 7.30994 23.5129 6.57903C23.453 5.83975 23.3277 5.22161 23.0423 4.66054M21.8005 5.29261L23.0423 4.66054M21.8005 5.29261C21.4671 4.63758 20.9349 4.1049 20.2801 3.77091M20.2801 3.77091C19.9474 3.60106 19.5339 3.50082 18.881 3.44791C18.2183 3.39222 17.3746 3.39222 16.194 3.39222M16.194 3.39222V2M16.194 3.39222H8.67596M16.194 2H8.67596M8.67596 3.39222V2M8.67596 2C7.51762 2 6.60711 2 5.87619 2.05987C5.13692 2.11973 4.51877 2.24503 3.95771 2.53044" stroke="#505050" stroke-width="0.3"/>
<path d="M7.56218 8.26501H17.3078M7.56218 12.4417H14.5233" stroke="#505050" stroke-width="1.5" stroke-linecap="round" stroke-linejoin="round"/>
</svg>
