<svg width="20" height="20" viewBox="0 0 20 20" fill="none" xmlns="http://www.w3.org/2000/svg">
<path d="M9.57422 19C11.3542 19 13.0943 18.4722 14.5743 17.4832C16.0544 16.4943 17.2079 15.0887 17.8891 13.4442C18.5703 11.7996 18.7485 9.99002 18.4013 8.24419C18.054 6.49836 17.1968 4.89471 15.9382 3.63604C14.6795 2.37737 13.0759 1.5202 11.33 1.17294C9.5842 0.82567 7.7746 1.0039 6.13007 1.68509C4.48553 2.36628 3.07992 3.51983 2.09099 4.99987C1.10206 6.47991 0.574219 8.21997 0.574219 10C0.574219 11.488 0.934219 12.89 1.57422 14.127L0.574219 19L5.44722 18C6.68322 18.639 8.08722 19 9.57422 19Z" stroke="white" stroke-linecap="round" stroke-linejoin="round"/>
</svg>
