<svg width="21" height="20" viewBox="0 0 21 20" fill="none" xmlns="http://www.w3.org/2000/svg">
<path d="M5.5 18.3334V3.33335C5.5 2.89133 5.67559 2.4674 5.98816 2.15484C6.30072 1.84228 6.72464 1.66669 7.16667 1.66669H13.8333C14.2754 1.66669 14.6993 1.84228 15.0118 2.15484C15.3244 2.4674 15.5 2.89133 15.5 3.33335V18.3334H5.5Z" stroke="white" stroke-width="1.66667" stroke-linecap="round" stroke-linejoin="round"/>
<path d="M5.50008 10H3.83341C3.39139 10 2.96746 10.1756 2.6549 10.4882C2.34234 10.8007 2.16675 11.2246 2.16675 11.6667V16.6667C2.16675 17.1087 2.34234 17.5326 2.6549 17.8452C2.96746 18.1577 3.39139 18.3333 3.83341 18.3333H5.50008" stroke="white" stroke-width="1.66667" stroke-linecap="round" stroke-linejoin="round"/>
<path d="M15.5 7.5H17.1667C17.6087 7.5 18.0326 7.6756 18.3452 7.98816C18.6577 8.30072 18.8333 8.72464 18.8333 9.16667V16.6667C18.8333 17.1087 18.6577 17.5326 18.3452 17.8452C18.0326 18.1577 17.6087 18.3333 17.1667 18.3333H15.5" stroke="white" stroke-width="1.66667" stroke-linecap="round" stroke-linejoin="round"/>
<path d="M8.83325 5H12.1666" stroke="white" stroke-width="1.66667" stroke-linecap="round" stroke-linejoin="round"/>
<path d="M8.83325 8.33331H12.1666" stroke="white" stroke-width="1.66667" stroke-linecap="round" stroke-linejoin="round"/>
<path d="M8.83325 11.6667H12.1666" stroke="white" stroke-width="1.66667" stroke-linecap="round" stroke-linejoin="round"/>
<path d="M8.83325 15H12.1666" stroke="white" stroke-width="1.66667" stroke-linecap="round" stroke-linejoin="round"/>
</svg>
