<svg width="18" height="18" viewBox="0 0 18 18" fill="none" xmlns="http://www.w3.org/2000/svg">
<path fill-rule="evenodd" clip-rule="evenodd" d="M4.05047 7.62499C4.05047 7.62499 4.42447 7.57457 4.96714 7.42973C6.39805 7.04794 9.00047 6.01165 9.00047 3.51924C9.00059 3.15554 8.92904 2.79538 8.78992 2.45935C8.65079 2.12331 8.44682 1.81798 8.18964 1.56081C7.93247 1.30364 7.62714 1.09966 7.29111 0.960536C6.95507 0.821411 6.59492 0.749865 6.23122 0.749985H3.51972C3.15309 0.745268 2.78917 0.813406 2.44908 0.950446C2.10899 1.08749 1.79951 1.2907 1.53857 1.5483C1.27764 1.80589 1.07047 2.11274 0.929062 2.45104C0.787658 2.78933 0.714844 3.15234 0.714844 3.51901C0.714844 3.88567 0.787658 4.24868 0.929062 4.58697C1.07047 4.92527 1.27764 5.23212 1.53857 5.48972C1.79951 5.74731 2.10899 5.95053 2.44908 6.08757C2.78917 6.22461 3.15309 6.29274 3.51972 6.28803H4.05047V7.62499ZM4.96714 5.37136H3.51972C3.27401 5.37523 3.02999 5.33017 2.80187 5.23881C2.57374 5.14746 2.36607 5.01163 2.19095 4.83924C2.01583 4.66685 1.87675 4.46134 1.78182 4.23468C1.68689 4.00802 1.638 3.76474 1.638 3.51901C1.638 3.27327 1.68689 3.02999 1.78182 2.80333C1.87675 2.57667 2.01583 2.37116 2.19095 2.19877C2.36607 2.02638 2.57374 1.89055 2.80187 1.7992C3.02999 1.70784 3.27401 1.66279 3.51972 1.66665H6.23122C6.47454 1.66653 6.71549 1.71437 6.94031 1.80743C7.16513 1.90048 7.36941 2.03694 7.54146 2.20899C7.71351 2.38104 7.84997 2.58532 7.94303 2.81014C8.03609 3.03496 8.08392 3.27592 8.0838 3.51924C8.0838 4.70311 7.25514 5.49144 6.12718 6.03548C5.75288 6.21354 5.36497 6.36144 4.96714 6.47778V5.37136ZM4.6463 12.6667C5.65922 12.6667 6.47964 11.8462 6.47964 10.8333C6.47964 9.8204 5.65922 8.99998 4.6463 8.99998C3.63339 8.99998 2.81297 9.8204 2.81297 10.8333C2.81297 11.8462 3.63339 12.6667 4.6463 12.6667ZM5.56297 10.8333C5.56297 11.0764 5.46639 11.3096 5.29448 11.4815C5.12258 11.6534 4.88942 11.75 4.6463 11.75C4.40319 11.75 4.17003 11.6534 3.99812 11.4815C3.82621 11.3096 3.72964 11.0764 3.72964 10.8333C3.72964 10.5902 3.82621 10.357 3.99812 10.1851C4.17003 10.0132 4.40319 9.91665 4.6463 9.91665C4.88942 9.91665 5.12258 10.0132 5.29448 10.1851C5.46639 10.357 5.56297 10.5902 5.56297 10.8333ZM0.750469 15.539C0.750469 14.2383 3.34601 13.5833 4.6463 13.5833C5.94659 13.5833 8.54214 14.2387 8.54214 15.539V17.25H0.750469V15.539ZM1.66714 16.3333V15.539C1.66714 15.5344 1.66714 15.5253 1.67905 15.5024C1.69372 15.4739 1.72718 15.424 1.79959 15.3571C1.95039 15.2173 2.20293 15.0647 2.55264 14.9239C3.25389 14.6421 4.11097 14.5 4.6463 14.5C5.18164 14.5 6.03918 14.6421 6.73997 14.9239C7.08922 15.0647 7.34222 15.2173 7.49301 15.3571C7.56543 15.424 7.59889 15.4739 7.61355 15.5019C7.62547 15.5248 7.62547 15.5349 7.62547 15.5386V16.3333H1.66714ZM15.188 10.8333C15.188 11.8462 14.3676 12.6667 13.3546 12.6667C12.3417 12.6667 11.5213 11.8462 11.5213 10.8333C11.5213 9.8204 12.3417 8.99998 13.3546 8.99998C14.3676 8.99998 15.188 9.8204 15.188 10.8333ZM13.3546 11.75C13.5978 11.75 13.8309 11.6534 14.0028 11.4815C14.1747 11.3096 14.2713 11.0764 14.2713 10.8333C14.2713 10.5902 14.1747 10.357 14.0028 10.1851C13.8309 10.0132 13.5978 9.91665 13.3546 9.91665C13.1115 9.91665 12.8784 10.0132 12.7065 10.1851C12.5345 10.357 12.438 10.5902 12.438 10.8333C12.438 11.0764 12.5345 11.3096 12.7065 11.4815C12.8784 11.6534 13.1115 11.75 13.3546 11.75ZM9.4588 15.539C9.4588 14.2383 12.0543 13.5833 13.3546 13.5833C14.6549 13.5833 17.2505 14.2387 17.2505 15.539V17.25H9.4588V15.539ZM10.3755 16.3333V15.539C10.3755 15.5344 10.3755 15.5253 10.3874 15.5024C10.4021 15.4739 10.4355 15.424 10.5075 15.3571C10.6587 15.2173 10.9117 15.0647 11.261 14.9239C11.9622 14.6421 12.8193 14.5 13.3546 14.5C13.89 14.5 14.7475 14.6421 15.4483 14.9239C15.7976 15.0647 16.0506 15.2173 16.2018 15.3571C16.2738 15.424 16.3072 15.4739 16.3219 15.5019C16.3338 15.5248 16.3338 15.5349 16.3338 15.5386V16.3333H10.3755ZM13.4005 7.8569C13.9367 8.02557 14.3171 8.08332 14.3171 8.08332V6.74636H14.4812C14.8478 6.75108 15.2118 6.68294 15.5519 6.5459C15.8919 6.40886 16.2014 6.20565 16.4624 5.94805C16.7233 5.69045 16.9305 5.38361 17.0719 5.04531C17.2133 4.70701 17.2861 4.344 17.2861 3.97734C17.2861 3.61068 17.2133 3.24767 17.0719 2.90937C16.9305 2.57107 16.7233 2.26422 16.4624 2.00663C16.2014 1.74903 15.8919 1.54582 15.5519 1.40878C15.2118 1.27174 14.8478 1.2036 14.4812 1.20832H12.6864C12.3227 1.2082 11.9625 1.27974 11.6265 1.41887C11.2905 1.55799 10.9851 1.76197 10.728 2.01914C10.4708 2.27632 10.2668 2.58164 10.1277 2.91768C9.98856 3.25372 9.91702 3.61387 9.91714 3.97757C9.91714 6.4049 12.1112 7.45174 13.4005 7.8569ZM14.4812 5.82969H13.4005V6.88982C13.1095 6.78585 12.8266 6.66022 12.5544 6.51399C11.5992 5.99561 10.8338 5.21782 10.8338 3.97711C10.8337 3.73383 10.8816 3.49292 10.9747 3.26816C11.0678 3.04339 11.2043 2.83917 11.3763 2.66716C11.5484 2.49516 11.7526 2.35874 11.9774 2.26572C12.2022 2.17269 12.4431 2.12486 12.6864 2.12499H14.4812C14.7269 2.12112 14.9709 2.16618 15.1991 2.25753C15.4272 2.34889 15.6349 2.48471 15.81 2.6571C15.9851 2.82949 16.1242 3.035 16.2191 3.26166C16.3141 3.48832 16.3629 3.7316 16.3629 3.97734C16.3629 4.22308 16.3141 4.46636 16.2191 4.69302C16.1242 4.91968 15.9851 5.12519 15.81 5.29758C15.6349 5.46997 15.4272 5.60579 15.1991 5.69715C14.9709 5.7885 14.7269 5.83356 14.4812 5.82969Z" fill="#25BAFF"/>
</svg>
