<svg width="50" height="51" viewBox="0 0 50 51" fill="none" xmlns="http://www.w3.org/2000/svg">
<g clip-path="url(#clip0_1775_6409)">
<g clip-path="url(#clip1_1775_6409)">
<path d="M27.9415 39.9133C27.9282 40.543 26.9954 40.5461 26.9845 39.9133C26.9947 39.2852 27.9298 39.2883 27.9415 39.9133ZM27.4611 43.1258C26.8329 43.136 26.8361 44.0711 27.4611 44.0828C28.09 44.0703 28.0939 43.1375 27.4611 43.1258ZM30.9822 40.3938C31.6118 40.3805 31.615 39.4477 30.9822 39.4367C30.354 39.4469 30.3579 40.3821 30.9822 40.3938ZM30.9822 44.0828C31.6118 44.0696 31.615 43.1367 30.9822 43.1258C30.354 43.136 30.3579 44.0711 30.9822 44.0828ZM27.4611 35.7469C26.8329 35.7571 26.8361 36.6922 27.4611 36.7039C28.09 36.6914 28.0939 35.7586 27.4611 35.7469ZM30.9822 36.7047C31.6118 36.6914 31.615 35.7586 30.9822 35.7477C30.354 35.7571 30.3579 36.6922 30.9822 36.7047ZM42.2548 32.6266V41.2375C43.1986 41.4258 43.9118 42.2594 43.9118 43.2571V43.9953C43.9118 45.1313 42.9876 46.0555 41.8517 46.0555C41.8517 46.0555 40.7673 46.0555 40.7665 46.0555H17.3189C17.0822 46.061 16.8743 45.8367 16.904 45.5992L16.9447 45.175H11.454V45.6391H10.6197V45.175H10.1032V45.6391H9.26965V45.175H8.64543C8.10481 45.175 7.66497 44.7352 7.66497 44.1946V43.2735C7.66497 42.7328 8.10481 42.293 8.64543 42.293H9.5345C7.80715 41.2906 6.61262 39.4774 6.47043 37.3758H5.47122C5.06809 37.3781 5.06731 37.9906 5.47122 37.993C5.70168 37.993 5.8884 38.1797 5.8884 38.4102C5.8884 38.6406 5.70168 38.8274 5.47122 38.8274C4.84075 38.8266 4.32825 38.3141 4.32825 37.6844C4.32825 37.0547 4.84075 36.5414 5.47122 36.5414H17.7736L17.8462 35.793C17.9673 34.4492 18.7579 33.275 19.9595 32.6555L24.3759 30.3782V27.2477C23.7579 26.1711 23.4025 24.9563 23.3376 23.7063C21.6822 23.2594 20.8157 20.4797 22.9392 20.386C22.9462 19.9813 23.0743 19.5961 23.3017 19.2532L22.9165 16.4649C19.7595 14.786 21.2931 10.0211 24.8415 10.4735C26.09 5.76721 32.7712 5.77034 34.0181 10.4735C37.5665 10.0219 39.0993 14.7844 35.9431 16.4641L35.5642 19.2094C35.747 19.4188 36.0204 19.8625 36.0095 20.3852C38.0384 20.5813 37.122 23.2836 35.5212 23.7063C35.4564 24.9555 35.1009 26.1703 34.4829 27.2477V30.3789L38.8978 32.6563C40.0986 33.2758 40.8892 34.4492 41.0118 35.7961L41.422 40.0711V32.6266C40.3572 32.5828 39.5025 31.7094 39.5025 30.6344V28.0164C39.5025 27.5071 39.9165 27.093 40.4251 27.093H43.2493C43.7587 27.093 44.1728 27.5071 44.1728 28.0164V30.6344C44.172 31.7086 43.3181 32.5813 42.2548 32.6266ZM35.1548 20.2094C35.1384 20.1211 35.0697 19.7688 34.9439 19.7688C34.9407 19.7688 33.3431 19.7688 33.3431 19.7688C33.6884 20.3711 34.2353 20.8867 34.9314 21.0321C35.1939 21.0571 35.1681 20.3008 35.1548 20.2094ZM32.1329 17.4266L31.6626 18.9328C32.3142 18.9328 34.0907 18.9352 34.7587 18.9344L35.0556 16.7836C33.9415 17.0227 32.6814 16.5258 31.9892 15.6633C30.4743 16.65 28.3931 16.6555 26.8704 15.6649C26.1282 16.5633 24.9462 16.9891 23.8017 16.7836L24.0986 18.9336C24.7618 18.9344 26.5173 18.9328 27.154 18.9321L26.9579 17.9508C26.8532 17.4149 27.6681 17.2531 27.7759 17.7875L28.0048 18.9321H29.0118V17.2172C29.0118 16.9867 29.1986 16.8 29.429 16.8C29.6595 16.8 29.8462 16.9867 29.8462 17.2172V18.9321H30.79L31.3376 17.1774C31.5017 16.6571 32.2939 16.9055 32.1329 17.4266ZM35.5392 21.65V22.7922C36.0743 22.5438 36.5673 21.5907 36.2478 21.3125C36.1697 21.2344 35.9931 21.1852 35.8868 21.2211C35.7197 21.2938 35.6704 21.5258 35.5392 21.65ZM23.3173 21.6219C23.1892 21.4328 23.1931 21.1766 22.8931 21.218C22.0712 21.2469 22.7173 22.5071 23.3173 22.7914V21.6219ZM23.4618 15.8102C24.4064 16.2375 25.5915 15.9391 26.2376 15.1219C26.422 14.8391 26.6501 14.4938 27.0251 14.7555C28.4001 15.8485 30.4634 15.8446 31.8314 14.7555C31.9251 14.6867 32.0478 14.6571 32.1618 14.675C32.4025 14.7094 32.479 14.9617 32.6236 15.1219C33.9775 16.8563 36.8611 15.8274 36.8306 13.6399C36.8306 12.6797 36.2251 11.7953 35.3329 11.4414C34.5626 11.136 33.3986 11.2008 32.9462 12.0024C32.8501 12.2 32.7259 12.436 32.4728 12.4258C32.1829 12.4313 31.9697 12.1149 32.0876 11.8485C32.2743 11.3508 32.7689 10.8774 33.2126 10.7024C32.1556 6.63752 26.2806 6.87424 25.5728 11.036C25.5048 11.4446 25.5267 11.8477 25.5587 12.2602C25.5892 12.5274 25.4681 12.8047 25.1556 12.8031C24.5134 12.7531 24.7157 11.7516 24.6962 11.2985C21.9923 10.9703 20.965 14.7219 23.4618 15.8102ZM24.0947 20.9875C24.7064 20.7969 25.2025 20.3094 25.5134 19.7688C24.9954 19.7688 24.4689 19.7899 23.954 19.7672C23.722 20.1508 23.7197 20.6383 23.9337 21.0305C23.9884 21.018 24.0423 21.0039 24.0947 20.9875ZM25.1509 26.9274C26.2939 28.9117 28.879 30.8469 31.1314 29.4797C33.9126 27.9032 34.9572 24.8985 34.7048 21.8383C33.8767 21.6235 33.0501 21.0078 32.6493 20.2258C32.6173 20.1641 32.4782 19.7719 32.4072 19.7696C31.5337 19.7696 27.4017 19.7696 26.4493 19.7696C26.0251 20.7383 25.2111 21.5969 24.1525 21.8391C24.1517 23.5946 24.2204 25.3563 25.1509 26.9274ZM33.5954 28.5C32.6337 29.6196 31.3626 30.5969 29.8454 30.7531V31.7961C29.8454 31.8078 30.9611 31.7211 31.0454 31.711C31.4767 31.6578 31.9048 31.575 32.3197 31.4422C32.7345 31.3094 33.6517 31.086 33.647 30.5141C33.6454 29.8242 33.6486 29.1336 33.6478 28.4438C33.6306 28.4633 33.6118 28.4805 33.5954 28.5ZM28.9392 30.7422C27.4329 30.5688 26.1634 29.55 25.2095 28.4438V30.1563C25.2095 30.393 25.1626 30.6617 25.3212 30.8571C25.6829 31.3039 26.372 31.4102 26.897 31.536C27.5892 31.7008 28.3009 31.7758 29.0111 31.7969V30.7539C28.9868 30.7508 28.9634 30.7453 28.9392 30.7422ZM12.6173 42.2922C14.629 42.2055 16.8157 42.6399 18.7118 41.8117C20.4439 41.0211 21.6697 39.275 21.8189 37.3758C19.3829 37.3758 9.90325 37.375 7.29934 37.375C7.51262 40.1227 9.81653 42.2922 12.6173 42.2922ZM20.7876 44.3406C20.8681 44.343 20.9282 44.2711 20.9345 44.1938V43.2735C20.9345 43.193 20.8689 43.1274 20.7884 43.1274C18.6689 43.1274 10.9001 43.1258 8.64543 43.1266C8.56418 43.1266 8.49856 43.1922 8.49856 43.2735V44.1938C8.49856 44.2742 8.56418 44.3406 8.64543 44.3406H20.7876ZM19.0165 45.1758H18.5001V45.2219H19.0165V45.1758ZM33.0806 35.5672L29.2868 32.6367C27.6978 32.5446 25.7032 32.4992 24.5626 31.2203L20.3415 33.3977C19.3954 33.886 18.7728 34.811 18.6767 35.8719L18.6118 36.5422H23.6486C25.1556 36.5821 25.1556 38.7883 23.6486 38.8274C23.1032 38.825 23.1032 37.9953 23.6486 37.993C24.0525 37.9906 24.0525 37.3781 23.6486 37.3758H22.6501C22.5314 39.4078 21.3392 41.2539 19.6056 42.293H20.7876C21.3282 42.293 21.7681 42.7328 21.7681 43.2735V44.1953C21.7681 44.736 21.3282 45.1758 20.7884 45.1758H19.8509V45.2219H22.0798V41.8821C22.0798 41.6516 22.2665 41.4649 22.497 41.4649C22.7275 41.4649 22.9142 41.6516 22.9142 41.8821V45.2219H33.0806V35.5672ZM40.4353 41.2578C40.5173 41.2274 40.6048 41.2125 40.6915 41.2L40.1806 35.8735C40.0837 34.8102 39.4611 33.8852 38.515 33.3977L34.2939 31.2203C33.4142 32.2703 31.8712 32.4352 30.59 32.5891L33.7532 35.0328C33.8556 35.1117 33.915 35.2336 33.915 35.3633V45.2227H35.9431V41.8828C35.9431 41.6524 36.1298 41.4656 36.3603 41.4656C36.5907 41.4656 36.7775 41.6524 36.7775 41.8828V45.2227H39.7759C39.7657 45.1672 39.7611 45.1102 39.7611 45.0516V42.1992C39.7587 41.7813 40.0447 41.3953 40.4353 41.2578ZM41.8509 42.0305C41.5689 42.0406 40.9728 42.0094 40.7001 42.0438C40.6384 42.0696 40.5954 42.1289 40.5954 42.1977V45.05C40.5954 45.1446 40.672 45.2211 40.7665 45.2211H41.8509C42.5267 45.2211 43.0775 44.6711 43.0775 43.9946V43.2563C43.0775 42.5805 42.5275 42.0305 41.8509 42.0305ZM43.3376 30.6344V28.0164C43.3376 27.9672 43.2978 27.9274 43.2486 27.9274H40.4243C40.3751 27.9274 40.3353 27.9672 40.3353 28.0164V30.6344C40.3353 31.2774 40.8587 31.8008 41.5017 31.8008H42.1712C42.8142 31.8008 43.3376 31.2774 43.3376 30.6344ZM9.03528 35.3266C9.03762 35.8703 9.86731 35.8735 9.86965 35.3266C9.90403 34.6422 10.3595 34.6008 10.3392 33.761C10.3392 33.2539 10.1767 32.9821 10.0454 32.7641C9.81653 32.486 9.81575 31.9071 10.0454 31.6289C10.1767 31.411 10.3392 31.1391 10.3392 30.6328C10.3368 30.0891 9.50715 30.086 9.50481 30.6328C9.50481 30.9078 9.43528 31.0242 9.32981 31.2C9.19856 31.418 9.03606 31.6899 9.03606 32.1961C9.03606 32.7031 9.19934 32.975 9.32981 33.193C9.43528 33.3688 9.50481 33.4852 9.50481 33.7617C9.46965 34.4461 9.01418 34.4852 9.03528 35.3266ZM13.9079 34.3742C13.9103 34.918 14.74 34.9211 14.7423 34.3742C14.7775 33.6899 15.2322 33.6492 15.2118 32.8086C15.2118 32.3016 15.0486 32.0297 14.9181 31.811C14.6884 31.5336 14.6884 30.9539 14.9181 30.6766C15.0493 30.4586 15.2126 30.1867 15.2126 29.6805C15.2103 29.1367 14.3806 29.1336 14.3782 29.6805C14.3782 29.9555 14.3087 30.0719 14.2032 30.2469C14.072 30.4649 13.9087 30.7367 13.9087 31.243C13.9087 31.75 14.072 32.0219 14.2025 32.2399C14.3087 32.4156 14.3782 32.5321 14.3782 32.8078C14.3431 33.4938 13.8876 33.5336 13.9079 34.3742Z" fill="#9F4C0C"/>
</g>
</g>
<defs>
<clipPath id="clip0_1775_6409">
<rect width="50" height="50" fill="white" transform="translate(0 0.5)"/>
</clipPath>
<clipPath id="clip1_1775_6409">
<rect width="40" height="40" fill="white" transform="translate(4.25012 6.5)"/>
</clipPath>
</defs>
</svg>
