<svg width="360" height="134" viewBox="0 0 360 134" fill="none" xmlns="http://www.w3.org/2000/svg">
<rect width="360" height="134" rx="8" fill="#FCFCFE"/>
<path d="M57.5015 58.4686C57.6758 58.569 57.8286 58.7028 57.9511 58.8624C58.0736 59.022 58.1635 59.2042 58.2155 59.3985C58.2675 59.5929 58.2806 59.7956 58.2541 59.995C58.2277 60.1945 58.1621 60.3867 58.0612 60.5608L47.6093 78.6475C47.405 78.9959 47.0713 79.2494 46.6808 79.3526C46.2904 79.4558 45.8749 79.4004 45.5252 79.1985C45.1754 78.9966 44.9197 78.6645 44.8139 78.2747C44.7081 77.885 44.7608 77.4692 44.9604 77.1181L55.4123 59.0283C55.6151 58.6771 55.9492 58.4208 56.341 58.3158C56.7327 58.2108 57.1502 58.2658 57.5015 58.4686Z" fill="#0085FE"/>
<path d="M55.5693 42.9738C54.9378 43.4835 54.3951 44.0944 53.9634 44.7816C53.4954 45.479 52.9846 46.3661 52.3484 47.4611L36.6812 74.5743C35.6886 76.2122 35.1984 78.1052 35.2711 80.019L35.3781 86.4945C35.3996 87.6691 35.4149 88.6571 35.5005 89.434C35.5352 89.7705 35.5933 90.1049 35.6749 90.4373H21.4942C21.0886 90.4373 20.6996 90.5984 20.4128 90.8852C20.126 91.1721 19.9648 91.5611 19.9648 91.9667C19.9648 92.3723 20.126 92.7613 20.4128 93.0481C20.6996 93.335 21.0886 93.4961 21.4942 93.4961H39.8471C39.9739 93.4965 40.1003 93.481 40.2233 93.4502C40.7217 93.3577 41.2067 93.2035 41.667 92.9914C42.3828 92.6763 43.2454 92.1961 44.2731 91.6272L49.9442 88.4827C51.6373 87.5898 53.0315 86.2201 53.9543 84.543L69.6245 57.4297C70.2577 56.3347 70.7716 55.4446 71.1417 54.6921C71.5206 53.9748 71.7779 53.1995 71.9033 52.398C72.0258 51.466 71.9635 50.5189 71.72 49.611C71.4765 48.703 71.0565 47.8519 70.484 47.1063C69.9743 46.4748 69.3635 45.9321 68.6763 45.5004C67.9789 45.0324 67.0888 44.5216 65.9937 43.8884L65.9019 43.8334C64.8008 43.2002 63.9137 42.6894 63.1613 42.3193C62.4429 41.94 61.6667 41.6827 60.8641 41.5576C58.9822 41.3093 57.0756 41.8188 55.5693 42.9738ZM60.4664 44.5889C60.7907 44.6317 61.1822 44.7541 61.8184 45.0661C62.4669 45.3842 63.2683 45.8461 64.4184 46.5098C65.5747 47.1766 66.3761 47.6385 66.9725 48.0392C67.5629 48.4369 67.8626 48.7122 68.0615 48.9691C68.7222 49.8317 69.0158 50.9206 68.872 51.9973C68.8323 52.3185 68.7099 52.71 68.3979 53.3432C67.9421 54.2243 67.4596 55.0914 66.9511 55.9432L66.5535 56.6375C66.37 56.4144 66.176 56.2 65.9723 55.9952C65.0669 55.0775 63.5528 53.8448 61.0232 52.3858C58.5363 50.9481 56.8142 50.1529 55.6825 49.7124C55.3831 49.5948 55.0802 49.4867 54.774 49.3882L54.9728 49.0394C55.6397 47.8863 56.1046 47.0879 56.5053 46.4884C56.9029 45.9011 57.1782 45.6014 57.4352 45.4025C58.2978 44.7418 59.3898 44.4482 60.4695 44.5889M64.8956 59.5128L51.3145 83.0136C50.6698 84.212 49.6769 85.1868 48.4668 85.8093L43.432 88.5989C42.8844 87.7682 42.1424 87.0835 41.2704 86.6044C40.3984 86.1252 39.4226 85.8659 38.4278 85.8491L38.3268 79.967C38.2635 78.6084 38.6133 77.2626 39.3301 76.1068L53.1865 52.1319C53.2619 52.1523 53.3384 52.1696 53.4159 52.1839H53.4251L53.5933 52.2267C53.7707 52.2757 54.0888 52.3735 54.566 52.5632C55.5234 52.9333 57.1048 53.6582 59.4907 55.0347C61.8399 56.3867 63.1184 57.4603 63.7914 58.1424C64.0381 58.3888 64.2595 58.6593 64.4521 58.95C64.5506 59.1691 64.6994 59.3619 64.8864 59.5128" fill="#0085FE"/>
<path d="M101.896 32.0278C101.461 32.0278 101.076 32.1133 100.739 32.2842C100.407 32.4502 100.126 32.6919 99.8965 33.0093C99.6719 33.3267 99.501 33.71 99.3838 34.1592C99.2666 34.6084 99.208 35.1138 99.208 35.6753C99.208 36.4321 99.3008 37.0791 99.4863 37.6162C99.6768 38.1484 99.9697 38.5562 100.365 38.8394C100.761 39.1177 101.271 39.2568 101.896 39.2568C102.331 39.2568 102.765 39.208 103.2 39.1104C103.639 39.0127 104.115 38.8735 104.628 38.6929V40.5972C104.154 40.7925 103.688 40.9316 103.229 41.0146C102.77 41.1025 102.255 41.1465 101.684 41.1465C100.58 41.1465 99.6719 40.9194 98.959 40.4653C98.251 40.0063 97.7261 39.3667 97.3843 38.5464C97.0425 37.7212 96.8716 36.7593 96.8716 35.6606C96.8716 34.8501 96.9814 34.1079 97.2012 33.4341C97.4209 32.7603 97.7432 32.1768 98.168 31.6836C98.5928 31.1904 99.1177 30.8096 99.7427 30.541C100.368 30.2725 101.085 30.1382 101.896 30.1382C102.428 30.1382 102.96 30.2065 103.493 30.3433C104.03 30.4751 104.542 30.6582 105.031 30.8926L104.298 32.7383C103.898 32.5479 103.495 32.3818 103.09 32.2402C102.685 32.0986 102.287 32.0278 101.896 32.0278ZM111.308 32.6577C111.42 32.6577 111.549 32.665 111.696 32.6797C111.847 32.6895 111.969 32.7041 112.062 32.7236L111.894 34.8184C111.82 34.7939 111.715 34.7769 111.579 34.7671C111.447 34.7524 111.332 34.7451 111.234 34.7451C110.946 34.7451 110.666 34.7817 110.392 34.855C110.124 34.9282 109.882 35.0479 109.667 35.2139C109.452 35.375 109.281 35.5898 109.154 35.8584C109.032 36.1221 108.971 36.4468 108.971 36.8325V41H106.737V32.8115H108.429L108.759 34.1885H108.869C109.03 33.9102 109.23 33.6562 109.469 33.4268C109.713 33.1924 109.989 33.0068 110.297 32.8701C110.609 32.7285 110.946 32.6577 111.308 32.6577ZM116.925 32.6577C117.682 32.6577 118.334 32.8042 118.881 33.0972C119.428 33.3853 119.85 33.8052 120.148 34.3569C120.446 34.9087 120.595 35.5825 120.595 36.3784V37.4624H115.314C115.338 38.0923 115.526 38.5879 115.878 38.9492C116.234 39.3057 116.728 39.4839 117.357 39.4839C117.88 39.4839 118.358 39.4302 118.793 39.3228C119.228 39.2153 119.674 39.0542 120.133 38.8394V40.5679C119.728 40.7681 119.303 40.9146 118.859 41.0073C118.419 41.1001 117.885 41.1465 117.255 41.1465C116.435 41.1465 115.707 40.9951 115.072 40.6924C114.442 40.3896 113.947 39.9282 113.585 39.3081C113.229 38.688 113.051 37.9067 113.051 36.9644C113.051 36.0073 113.212 35.2114 113.534 34.5767C113.861 33.937 114.315 33.4585 114.896 33.1411C115.478 32.8188 116.154 32.6577 116.925 32.6577ZM116.94 34.2471C116.505 34.2471 116.144 34.3862 115.856 34.6646C115.573 34.9429 115.409 35.3799 115.365 35.9756H118.5C118.495 35.6436 118.434 35.3481 118.317 35.0894C118.205 34.8306 118.034 34.6255 117.804 34.4741C117.58 34.3228 117.292 34.2471 116.94 34.2471ZM125.766 32.6431C126.864 32.6431 127.707 32.8823 128.292 33.3608C128.878 33.8394 129.171 34.5669 129.171 35.5435V41H127.611L127.179 39.8867H127.121C126.886 40.1797 126.647 40.4189 126.403 40.6045C126.159 40.79 125.878 40.9268 125.561 41.0146C125.243 41.1025 124.857 41.1465 124.403 41.1465C123.92 41.1465 123.485 41.0537 123.1 40.8682C122.719 40.6826 122.418 40.3994 122.199 40.0186C121.979 39.6328 121.869 39.1445 121.869 38.5537C121.869 37.6846 122.174 37.0449 122.785 36.6348C123.395 36.2197 124.311 35.9902 125.531 35.9463L126.952 35.9023V35.5435C126.952 35.1138 126.84 34.7988 126.615 34.5986C126.391 34.3984 126.078 34.2983 125.678 34.2983C125.282 34.2983 124.894 34.3545 124.513 34.4668C124.132 34.5791 123.751 34.7207 123.371 34.8916L122.631 33.3828C123.065 33.1533 123.551 32.9727 124.088 32.8408C124.63 32.709 125.189 32.6431 125.766 32.6431ZM126.952 37.2061L126.088 37.2354C125.365 37.2549 124.862 37.3843 124.579 37.6235C124.301 37.8628 124.162 38.1777 124.162 38.5684C124.162 38.9102 124.262 39.1543 124.462 39.3008C124.662 39.4424 124.923 39.5132 125.246 39.5132C125.724 39.5132 126.127 39.3716 126.454 39.0884C126.786 38.8052 126.952 38.4023 126.952 37.8799V37.2061ZM134.928 39.3667C135.172 39.3667 135.409 39.3423 135.639 39.2935C135.873 39.2446 136.105 39.1836 136.334 39.1104V40.7729C136.095 40.8804 135.797 40.9683 135.441 41.0366C135.089 41.1099 134.704 41.1465 134.284 41.1465C133.795 41.1465 133.356 41.0684 132.965 40.9121C132.58 40.751 132.274 40.4751 132.05 40.0845C131.83 39.689 131.72 39.1396 131.72 38.4365V34.4888H130.651V33.5439L131.881 32.7969L132.526 31.0684H133.954V32.8115H136.247V34.4888H133.954V38.4365C133.954 38.749 134.042 38.9834 134.218 39.1396C134.398 39.291 134.635 39.3667 134.928 39.3667ZM141.374 32.6577C142.13 32.6577 142.782 32.8042 143.329 33.0972C143.876 33.3853 144.298 33.8052 144.596 34.3569C144.894 34.9087 145.043 35.5825 145.043 36.3784V37.4624H139.762C139.787 38.0923 139.975 38.5879 140.326 38.9492C140.683 39.3057 141.176 39.4839 141.806 39.4839C142.328 39.4839 142.807 39.4302 143.241 39.3228C143.676 39.2153 144.123 39.0542 144.582 38.8394V40.5679C144.176 40.7681 143.751 40.9146 143.307 41.0073C142.868 41.1001 142.333 41.1465 141.703 41.1465C140.883 41.1465 140.155 40.9951 139.521 40.6924C138.891 40.3896 138.395 39.9282 138.034 39.3081C137.677 38.688 137.499 37.9067 137.499 36.9644C137.499 36.0073 137.66 35.2114 137.982 34.5767C138.31 33.937 138.764 33.4585 139.345 33.1411C139.926 32.8188 140.602 32.6577 141.374 32.6577ZM141.388 34.2471C140.954 34.2471 140.592 34.3862 140.304 34.6646C140.021 34.9429 139.857 35.3799 139.813 35.9756H142.948C142.943 35.6436 142.882 35.3481 142.765 35.0894C142.653 34.8306 142.482 34.6255 142.252 34.4741C142.028 34.3228 141.74 34.2471 141.388 34.2471ZM160.651 35.6313C160.651 36.4565 160.548 37.2085 160.343 37.8872C160.138 38.561 159.826 39.1421 159.406 39.6304C158.991 40.1187 158.463 40.4946 157.824 40.7583C157.184 41.0171 156.427 41.1465 155.553 41.1465C154.679 41.1465 153.922 41.0171 153.283 40.7583C152.643 40.4946 152.113 40.1187 151.693 39.6304C151.278 39.1421 150.968 38.5586 150.763 37.8799C150.558 37.2012 150.456 36.4468 150.456 35.6167C150.456 34.5083 150.636 33.5439 150.998 32.7236C151.364 31.8984 151.925 31.2588 152.682 30.8047C153.439 30.3506 154.401 30.1235 155.568 30.1235C156.73 30.1235 157.685 30.3506 158.432 30.8047C159.184 31.2588 159.74 31.8984 160.102 32.7236C160.468 33.5488 160.651 34.5181 160.651 35.6313ZM152.836 35.6313C152.836 36.3784 152.929 37.0229 153.114 37.5649C153.305 38.1021 153.6 38.5171 154 38.8101C154.401 39.0981 154.918 39.2422 155.553 39.2422C156.198 39.2422 156.72 39.0981 157.121 38.8101C157.521 38.5171 157.812 38.1021 157.992 37.5649C158.178 37.0229 158.271 36.3784 158.271 35.6313C158.271 34.5083 158.061 33.6245 157.641 32.98C157.221 32.3354 156.53 32.0132 155.568 32.0132C154.928 32.0132 154.406 32.1597 154 32.4526C153.6 32.7407 153.305 33.1558 153.114 33.6978C152.929 34.2349 152.836 34.8794 152.836 35.6313ZM169.425 41L168.795 38.1362C168.761 37.9653 168.705 37.7139 168.627 37.3818C168.549 37.0449 168.463 36.686 168.371 36.3052C168.283 35.9194 168.2 35.563 168.122 35.2358C168.048 34.9087 167.995 34.6694 167.96 34.5181H167.895C167.86 34.6694 167.807 34.9087 167.733 35.2358C167.66 35.563 167.577 35.9194 167.484 36.3052C167.396 36.6909 167.313 37.0547 167.235 37.3965C167.157 37.7334 167.099 37.9897 167.06 38.1655L166.4 41H163.998L161.669 32.8115H163.896L164.84 36.437C164.904 36.6909 164.965 36.9937 165.023 37.3452C165.082 37.6919 165.133 38.0288 165.177 38.356C165.226 38.6782 165.263 38.9346 165.287 39.125H165.346C165.355 38.9834 165.375 38.7954 165.404 38.561C165.438 38.3267 165.475 38.085 165.514 37.8359C165.558 37.582 165.597 37.355 165.631 37.1548C165.67 36.9497 165.7 36.8105 165.719 36.7373L166.73 32.8115H169.191L170.15 36.7373C170.185 36.8789 170.229 37.1035 170.282 37.4111C170.341 37.7188 170.392 38.0361 170.436 38.3633C170.48 38.6855 170.504 38.9395 170.509 39.125H170.568C170.587 38.959 170.622 38.7124 170.67 38.3853C170.719 38.0581 170.775 37.7163 170.839 37.3599C170.907 36.9985 170.976 36.6909 171.044 36.437L172.025 32.8115H174.215L171.857 41H169.425ZM180.192 32.6577C181.066 32.6577 181.769 32.897 182.301 33.3755C182.833 33.8491 183.1 34.6108 183.1 35.6606V41H180.866V36.2173C180.866 35.6313 180.758 35.1895 180.543 34.8916C180.333 34.5938 180.001 34.4448 179.547 34.4448C178.864 34.4448 178.397 34.6768 178.148 35.1406C177.899 35.6045 177.775 36.2734 177.775 37.1475V41H175.541V32.8115H177.248L177.548 33.8589H177.672C177.848 33.5757 178.065 33.3462 178.324 33.1704C178.588 32.9946 178.878 32.8652 179.196 32.7822C179.518 32.6992 179.85 32.6577 180.192 32.6577ZM192.892 30.292C194.274 30.292 195.282 30.5898 195.917 31.1855C196.552 31.7764 196.869 32.5918 196.869 33.6318C196.869 34.1006 196.798 34.5498 196.657 34.9795C196.515 35.4043 196.283 35.7827 195.961 36.1147C195.644 36.4468 195.219 36.7104 194.687 36.9058C194.154 37.0962 193.498 37.1914 192.716 37.1914H191.742V41H189.472V30.292H192.892ZM192.775 32.1523H191.742V35.3311H192.489C192.914 35.3311 193.283 35.2749 193.595 35.1626C193.908 35.0503 194.149 34.8745 194.32 34.6353C194.491 34.396 194.577 34.0884 194.577 33.7124C194.577 33.1851 194.43 32.7944 194.137 32.5405C193.844 32.2817 193.39 32.1523 192.775 32.1523ZM203.285 32.6577C203.397 32.6577 203.527 32.665 203.673 32.6797C203.825 32.6895 203.947 32.7041 204.04 32.7236L203.871 34.8184C203.798 34.7939 203.693 34.7769 203.556 34.7671C203.424 34.7524 203.31 34.7451 203.212 34.7451C202.924 34.7451 202.643 34.7817 202.37 34.855C202.101 34.9282 201.859 35.0479 201.645 35.2139C201.43 35.375 201.259 35.5898 201.132 35.8584C201.01 36.1221 200.949 36.4468 200.949 36.8325V41H198.715V32.8115H200.407L200.736 34.1885H200.846C201.007 33.9102 201.208 33.6562 201.447 33.4268C201.691 33.1924 201.967 33.0068 202.274 32.8701C202.587 32.7285 202.924 32.6577 203.285 32.6577ZM212.968 36.8911C212.968 37.5747 212.875 38.1802 212.689 38.7075C212.509 39.2349 212.243 39.6816 211.891 40.0479C211.544 40.4092 211.125 40.6826 210.631 40.8682C210.143 41.0537 209.591 41.1465 208.976 41.1465C208.4 41.1465 207.87 41.0537 207.387 40.8682C206.908 40.6826 206.491 40.4092 206.134 40.0479C205.783 39.6816 205.509 39.2349 205.314 38.7075C205.124 38.1802 205.028 37.5747 205.028 36.8911C205.028 35.9829 205.189 35.2139 205.512 34.584C205.834 33.9541 206.293 33.4756 206.889 33.1484C207.484 32.8213 208.195 32.6577 209.02 32.6577C209.787 32.6577 210.465 32.8213 211.056 33.1484C211.652 33.4756 212.118 33.9541 212.455 34.584C212.797 35.2139 212.968 35.9829 212.968 36.8911ZM207.306 36.8911C207.306 37.4282 207.365 37.8799 207.482 38.2461C207.599 38.6123 207.782 38.8882 208.031 39.0737C208.28 39.2593 208.605 39.3521 209.005 39.3521C209.401 39.3521 209.721 39.2593 209.965 39.0737C210.214 38.8882 210.395 38.6123 210.507 38.2461C210.624 37.8799 210.683 37.4282 210.683 36.8911C210.683 36.3491 210.624 35.8999 210.507 35.5435C210.395 35.1821 210.214 34.9111 209.965 34.7305C209.716 34.5498 209.391 34.4595 208.991 34.4595C208.4 34.4595 207.97 34.6621 207.702 35.0674C207.438 35.4727 207.306 36.0806 207.306 36.8911ZM217.406 41.1465C216.493 41.1465 215.749 40.79 215.172 40.0771C214.601 39.3594 214.315 38.3071 214.315 36.9204C214.315 35.519 214.606 34.4595 215.187 33.7417C215.768 33.019 216.527 32.6577 217.465 32.6577C217.855 32.6577 218.2 32.7114 218.498 32.8188C218.795 32.9263 219.052 33.0703 219.267 33.251C219.486 33.4316 219.672 33.6343 219.823 33.8589H219.896C219.867 33.7026 219.831 33.4731 219.787 33.1704C219.748 32.8628 219.728 32.5479 219.728 32.2256V29.6035H221.969V41H220.255L219.823 39.938H219.728C219.586 40.1626 219.408 40.3677 219.193 40.5532C218.983 40.7339 218.732 40.8779 218.439 40.9854C218.146 41.0928 217.802 41.1465 217.406 41.1465ZM218.19 39.3667C218.8 39.3667 219.23 39.186 219.479 38.8247C219.733 38.4585 219.867 37.9092 219.882 37.1768V36.9351C219.882 36.1392 219.76 35.5312 219.516 35.1113C219.271 34.6865 218.817 34.4741 218.153 34.4741C217.66 34.4741 217.274 34.6865 216.996 35.1113C216.718 35.5361 216.579 36.1489 216.579 36.9497C216.579 37.7505 216.718 38.3535 216.996 38.7588C217.279 39.1641 217.677 39.3667 218.19 39.3667ZM231.82 32.8115V41H230.106L229.806 39.9526H229.689C229.513 40.231 229.293 40.458 229.03 40.6338C228.766 40.8096 228.476 40.939 228.158 41.022C227.841 41.105 227.511 41.1465 227.169 41.1465C226.583 41.1465 226.073 41.0439 225.639 40.8389C225.204 40.6289 224.865 40.3042 224.621 39.8647C224.381 39.4253 224.262 38.854 224.262 38.1509V32.8115H226.496V37.5942C226.496 38.1802 226.601 38.6221 226.811 38.9199C227.021 39.2178 227.355 39.3667 227.814 39.3667C228.268 39.3667 228.625 39.2642 228.883 39.0591C229.142 38.8491 229.323 38.5439 229.425 38.1436C229.533 37.7383 229.586 37.2451 229.586 36.6641V32.8115H231.82ZM237.489 41.1465C236.679 41.1465 235.988 41 235.417 40.707C234.845 40.4092 234.411 39.9502 234.113 39.3301C233.815 38.71 233.666 37.9165 233.666 36.9497C233.666 35.9487 233.834 35.1333 234.171 34.5034C234.513 33.8687 234.984 33.4023 235.585 33.1045C236.19 32.8066 236.891 32.6577 237.687 32.6577C238.253 32.6577 238.742 32.7139 239.152 32.8262C239.567 32.9336 239.928 33.063 240.236 33.2144L239.577 34.9429C239.225 34.8013 238.898 34.6865 238.595 34.5986C238.292 34.5059 237.99 34.4595 237.687 34.4595C237.296 34.4595 236.972 34.5522 236.713 34.7378C236.454 34.9185 236.261 35.1919 236.134 35.5581C236.007 35.9243 235.944 36.3833 235.944 36.9351C235.944 37.4771 236.012 37.9263 236.149 38.2827C236.286 38.6392 236.483 38.9053 236.742 39.0811C237.001 39.252 237.316 39.3374 237.687 39.3374C238.151 39.3374 238.563 39.2764 238.925 39.1543C239.286 39.0273 239.638 38.8516 239.979 38.627V40.5386C239.638 40.7534 239.279 40.9072 238.903 41C238.532 41.0977 238.061 41.1465 237.489 41.1465ZM245.333 39.3667C245.578 39.3667 245.814 39.3423 246.044 39.2935C246.278 39.2446 246.51 39.1836 246.74 39.1104V40.7729C246.5 40.8804 246.203 40.9683 245.846 41.0366C245.495 41.1099 245.109 41.1465 244.689 41.1465C244.201 41.1465 243.761 41.0684 243.371 40.9121C242.985 40.751 242.68 40.4751 242.455 40.0845C242.235 39.689 242.125 39.1396 242.125 38.4365V34.4888H241.056V33.5439L242.287 32.7969L242.931 31.0684H244.359V32.8115H246.652V34.4888H244.359V38.4365C244.359 38.749 244.447 38.9834 244.623 39.1396C244.804 39.291 245.041 39.3667 245.333 39.3667ZM257.008 41L254.43 32.5991H254.364C254.374 32.7993 254.389 33.1021 254.408 33.5073C254.433 33.9077 254.455 34.335 254.474 34.7891C254.494 35.2432 254.503 35.6533 254.503 36.0195V41H252.475V30.292H255.565L258.1 38.4805H258.144L260.832 30.292H263.922V41H261.806V35.9316C261.806 35.5947 261.811 35.2065 261.82 34.7671C261.835 34.3276 261.852 33.9102 261.872 33.5146C261.891 33.1143 261.906 32.814 261.916 32.6138H261.85L259.088 41H257.008ZM269.804 32.6431C270.902 32.6431 271.745 32.8823 272.331 33.3608C272.917 33.8394 273.209 34.5669 273.209 35.5435V41H271.649L271.217 39.8867H271.159C270.924 40.1797 270.685 40.4189 270.441 40.6045C270.197 40.79 269.916 40.9268 269.599 41.0146C269.281 41.1025 268.896 41.1465 268.441 41.1465C267.958 41.1465 267.523 41.0537 267.138 40.8682C266.757 40.6826 266.457 40.3994 266.237 40.0186C266.017 39.6328 265.907 39.1445 265.907 38.5537C265.907 37.6846 266.212 37.0449 266.823 36.6348C267.433 36.2197 268.349 35.9902 269.569 35.9463L270.99 35.9023V35.5435C270.99 35.1138 270.878 34.7988 270.653 34.5986C270.429 34.3984 270.116 34.2983 269.716 34.2983C269.32 34.2983 268.932 34.3545 268.551 34.4668C268.17 34.5791 267.79 34.7207 267.409 34.8916L266.669 33.3828C267.104 33.1533 267.589 32.9727 268.126 32.8408C268.668 32.709 269.228 32.6431 269.804 32.6431ZM270.99 37.2061L270.126 37.2354C269.403 37.2549 268.9 37.3843 268.617 37.6235C268.339 37.8628 268.2 38.1777 268.2 38.5684C268.2 38.9102 268.3 39.1543 268.5 39.3008C268.7 39.4424 268.961 39.5132 269.284 39.5132C269.762 39.5132 270.165 39.3716 270.492 39.0884C270.824 38.8052 270.99 38.4023 270.99 37.8799V37.2061ZM280.167 32.6577C281.042 32.6577 281.745 32.897 282.277 33.3755C282.809 33.8491 283.075 34.6108 283.075 35.6606V41H280.841V36.2173C280.841 35.6313 280.734 35.1895 280.519 34.8916C280.309 34.5938 279.977 34.4448 279.523 34.4448C278.839 34.4448 278.373 34.6768 278.124 35.1406C277.875 35.6045 277.75 36.2734 277.75 37.1475V41H275.517V32.8115H277.223L277.523 33.8589H277.648C277.824 33.5757 278.041 33.3462 278.3 33.1704C278.563 32.9946 278.854 32.8652 279.171 32.7822C279.494 32.6992 279.826 32.6577 280.167 32.6577ZM292.89 32.8115V41H291.176L290.875 39.9526H290.758C290.583 40.231 290.363 40.458 290.099 40.6338C289.835 40.8096 289.545 40.939 289.228 41.022C288.91 41.105 288.581 41.1465 288.239 41.1465C287.653 41.1465 287.143 41.0439 286.708 40.8389C286.273 40.6289 285.934 40.3042 285.69 39.8647C285.451 39.4253 285.331 38.854 285.331 38.1509V32.8115H287.565V37.5942C287.565 38.1802 287.67 38.6221 287.88 38.9199C288.09 39.2178 288.424 39.3667 288.883 39.3667C289.337 39.3667 289.694 39.2642 289.953 39.0591C290.211 38.8491 290.392 38.5439 290.495 38.1436C290.602 37.7383 290.656 37.2451 290.656 36.6641V32.8115H292.89ZM298.588 32.6431C299.687 32.6431 300.529 32.8823 301.115 33.3608C301.701 33.8394 301.994 34.5669 301.994 35.5435V41H300.434L300.001 39.8867H299.943C299.708 40.1797 299.469 40.4189 299.225 40.6045C298.981 40.79 298.7 40.9268 298.383 41.0146C298.065 41.1025 297.68 41.1465 297.226 41.1465C296.742 41.1465 296.308 41.0537 295.922 40.8682C295.541 40.6826 295.241 40.3994 295.021 40.0186C294.801 39.6328 294.691 39.1445 294.691 38.5537C294.691 37.6846 294.997 37.0449 295.607 36.6348C296.217 36.2197 297.133 35.9902 298.354 35.9463L299.774 35.9023V35.5435C299.774 35.1138 299.662 34.7988 299.438 34.5986C299.213 34.3984 298.9 34.2983 298.5 34.2983C298.104 34.2983 297.716 34.3545 297.335 34.4668C296.955 34.5791 296.574 34.7207 296.193 34.8916L295.453 33.3828C295.888 33.1533 296.374 32.9727 296.911 32.8408C297.453 32.709 298.012 32.6431 298.588 32.6431ZM299.774 37.2061L298.91 37.2354C298.188 37.2549 297.685 37.3843 297.401 37.6235C297.123 37.8628 296.984 38.1777 296.984 38.5684C296.984 38.9102 297.084 39.1543 297.284 39.3008C297.484 39.4424 297.746 39.5132 298.068 39.5132C298.546 39.5132 298.949 39.3716 299.276 39.0884C299.608 38.8052 299.774 38.4023 299.774 37.8799V37.2061ZM306.535 41H304.301V29.6035H306.535V41ZM311.12 41H308.886V29.6035H311.12V41ZM312.299 32.8115H314.745L316.291 37.4185C316.339 37.5649 316.381 37.7139 316.415 37.8652C316.449 38.0166 316.479 38.1729 316.503 38.334C316.527 38.4951 316.547 38.6636 316.562 38.8394H316.605C316.635 38.5757 316.674 38.3291 316.723 38.0996C316.776 37.8701 316.842 37.6431 316.92 37.4185L318.437 32.8115H320.832L317.367 42.0474C317.157 42.6138 316.884 43.085 316.547 43.4609C316.21 43.8418 315.822 44.1274 315.382 44.3179C314.948 44.5083 314.469 44.6035 313.947 44.6035C313.693 44.6035 313.473 44.5889 313.288 44.5596C313.102 44.5352 312.943 44.5083 312.812 44.479V42.7065C312.914 42.731 313.043 42.7529 313.2 42.7725C313.356 42.792 313.52 42.8018 313.69 42.8018C314.003 42.8018 314.271 42.7358 314.496 42.604C314.721 42.4722 314.909 42.2939 315.06 42.0693C315.211 41.8496 315.331 41.6079 315.419 41.3442L315.551 40.9414L312.299 32.8115Z" fill="#090707"/>
<path d="M106.186 61.9893C106.186 62.7594 106.088 63.4613 105.892 64.0947C105.7 64.7236 105.411 65.266 105.023 65.7217C104.636 66.1729 104.151 66.5215 103.567 66.7676C102.984 67.0137 102.3 67.1367 101.517 67.1367C100.719 67.1367 100.026 67.0137 99.4385 66.7676C98.8551 66.5215 98.3698 66.1706 97.9824 65.7148C97.5996 65.2591 97.3125 64.7145 97.1211 64.0811C96.9297 63.4476 96.834 62.7458 96.834 61.9756C96.834 60.9456 97.0026 60.0479 97.3398 59.2822C97.6816 58.512 98.1989 57.915 98.8916 57.4912C99.5889 57.0628 100.468 56.8486 101.53 56.8486C102.569 56.8486 103.433 57.0605 104.121 57.4844C104.809 57.9082 105.324 58.5052 105.666 59.2754C106.012 60.041 106.186 60.9456 106.186 61.9893ZM98.5566 61.9893C98.5566 62.7594 98.6615 63.4271 98.8711 63.9922C99.0807 64.5527 99.402 64.9857 99.835 65.291C100.272 65.5918 100.833 65.7422 101.517 65.7422C102.205 65.7422 102.765 65.5918 103.198 65.291C103.631 64.9857 103.95 64.5527 104.155 63.9922C104.36 63.4271 104.463 62.7594 104.463 61.9893C104.463 60.818 104.228 59.902 103.759 59.2412C103.294 58.5758 102.551 58.2432 101.53 58.2432C100.847 58.2432 100.284 58.3936 99.8418 58.6943C99.4043 58.9951 99.0807 59.4258 98.8711 59.9863C98.6615 60.5423 98.5566 61.21 98.5566 61.9893ZM112.051 59.2891C112.949 59.2891 113.669 59.6172 114.211 60.2734C114.758 60.9297 115.031 61.9049 115.031 63.1992C115.031 64.056 114.904 64.7783 114.648 65.3662C114.398 65.9495 114.045 66.3916 113.589 66.6924C113.138 66.9886 112.611 67.1367 112.01 67.1367C111.627 67.1367 111.294 67.0866 111.012 66.9863C110.729 66.8861 110.488 66.7562 110.287 66.5967C110.087 66.4326 109.918 66.2549 109.781 66.0635H109.686C109.708 66.2458 109.729 66.4486 109.747 66.6719C109.77 66.8906 109.781 67.0911 109.781 67.2734V70.3564H108.168V59.4326H109.48L109.706 60.4785H109.781C109.923 60.2643 110.093 60.0661 110.294 59.8838C110.499 59.7015 110.745 59.5579 111.032 59.4531C111.324 59.3438 111.663 59.2891 112.051 59.2891ZM111.62 60.6016C111.178 60.6016 110.823 60.6904 110.554 60.8682C110.289 61.0413 110.096 61.3034 109.973 61.6543C109.854 62.0052 109.79 62.445 109.781 62.9736V63.1992C109.781 63.7598 109.838 64.236 109.952 64.6279C110.071 65.0153 110.264 65.3115 110.533 65.5166C110.807 65.7171 111.176 65.8174 111.641 65.8174C112.033 65.8174 112.356 65.7103 112.611 65.4961C112.871 65.2819 113.065 64.9766 113.192 64.5801C113.32 64.1836 113.384 63.7165 113.384 63.1787C113.384 62.363 113.238 61.7295 112.946 61.2783C112.659 60.8271 112.217 60.6016 111.62 60.6016ZM119.905 59.2891C120.58 59.2891 121.159 59.4281 121.642 59.7061C122.125 59.984 122.496 60.3783 122.756 60.8887C123.016 61.3991 123.146 62.0098 123.146 62.7207V63.582H118.094C118.112 64.3158 118.308 64.8809 118.682 65.2773C119.06 65.6738 119.589 65.8721 120.268 65.8721C120.751 65.8721 121.184 65.8265 121.566 65.7354C121.954 65.6396 122.353 65.5007 122.763 65.3184V66.624C122.384 66.8018 121.999 66.9316 121.607 67.0137C121.215 67.0957 120.746 67.1367 120.199 67.1367C119.456 67.1367 118.802 66.9932 118.237 66.7061C117.677 66.4144 117.237 65.9814 116.918 65.4072C116.604 64.833 116.446 64.1198 116.446 63.2676C116.446 62.4199 116.59 61.6999 116.877 61.1074C117.164 60.515 117.567 60.0638 118.087 59.7539C118.606 59.444 119.213 59.2891 119.905 59.2891ZM119.905 60.499C119.399 60.499 118.989 60.6631 118.675 60.9912C118.365 61.3193 118.183 61.8001 118.128 62.4336H121.573C121.569 62.0553 121.505 61.7204 121.382 61.4287C121.263 61.137 121.081 60.9092 120.835 60.7451C120.593 60.5811 120.284 60.499 119.905 60.499ZM128.901 59.2891C129.754 59.2891 130.417 59.5101 130.891 59.9521C131.369 60.3896 131.608 61.0938 131.608 62.0645V67H130.002V62.3652C130.002 61.7773 129.881 61.3376 129.64 61.0459C129.398 60.7497 129.024 60.6016 128.519 60.6016C127.785 60.6016 127.274 60.8271 126.987 61.2783C126.705 61.7295 126.563 62.3835 126.563 63.2402V67H124.957V59.4326H126.208L126.434 60.458H126.522C126.687 60.1937 126.889 59.9772 127.131 59.8086C127.377 59.6354 127.65 59.5055 127.951 59.4189C128.257 59.3324 128.573 59.2891 128.901 59.2891ZM140.311 65.8379C140.52 65.8379 140.728 65.8197 140.933 65.7832C141.138 65.7422 141.325 65.6943 141.493 65.6396V66.8564C141.315 66.9339 141.085 67 140.803 67.0547C140.52 67.1094 140.226 67.1367 139.921 67.1367C139.493 67.1367 139.107 67.0661 138.766 66.9248C138.424 66.779 138.153 66.5306 137.952 66.1797C137.752 65.8288 137.651 65.3434 137.651 64.7236V60.6562H136.619V59.9385L137.727 59.3711L138.253 57.751H139.265V59.4326H141.432V60.6562H139.265V64.7031C139.265 65.0859 139.36 65.3708 139.552 65.5576C139.743 65.7445 139.996 65.8379 140.311 65.8379ZM144.638 56.3633V59.0361C144.638 59.3141 144.629 59.5853 144.61 59.8496C144.597 60.1139 144.581 60.319 144.562 60.4648H144.651C144.811 60.2005 145.007 59.984 145.239 59.8154C145.472 59.6423 145.731 59.5124 146.019 59.4258C146.31 59.3392 146.62 59.2959 146.948 59.2959C147.527 59.2959 148.019 59.3939 148.425 59.5898C148.83 59.7812 149.14 60.0798 149.354 60.4854C149.573 60.891 149.683 61.4173 149.683 62.0645V67H148.076V62.3652C148.076 61.7773 147.955 61.3376 147.714 61.0459C147.472 60.7497 147.099 60.6016 146.593 60.6016C146.105 60.6016 145.718 60.7041 145.431 60.9092C145.148 61.1097 144.945 61.4082 144.822 61.8047C144.699 62.1966 144.638 62.6751 144.638 63.2402V67H143.031V56.3633H144.638ZM154.946 59.2891C155.621 59.2891 156.2 59.4281 156.683 59.7061C157.166 59.984 157.537 60.3783 157.797 60.8887C158.057 61.3991 158.187 62.0098 158.187 62.7207V63.582H153.135C153.153 64.3158 153.349 64.8809 153.723 65.2773C154.101 65.6738 154.63 65.8721 155.309 65.8721C155.792 65.8721 156.225 65.8265 156.607 65.7354C156.995 65.6396 157.394 65.5007 157.804 65.3184V66.624C157.425 66.8018 157.04 66.9316 156.648 67.0137C156.257 67.0957 155.787 67.1367 155.24 67.1367C154.497 67.1367 153.843 66.9932 153.278 66.7061C152.718 66.4144 152.278 65.9814 151.959 65.4072C151.645 64.833 151.487 64.1198 151.487 63.2676C151.487 62.4199 151.631 61.6999 151.918 61.1074C152.205 60.515 152.608 60.0638 153.128 59.7539C153.647 59.444 154.254 59.2891 154.946 59.2891ZM154.946 60.499C154.44 60.499 154.03 60.6631 153.716 60.9912C153.406 61.3193 153.224 61.8001 153.169 62.4336H156.614C156.61 62.0553 156.546 61.7204 156.423 61.4287C156.304 61.137 156.122 60.9092 155.876 60.7451C155.634 60.5811 155.325 60.499 154.946 60.499ZM167.415 60.6562H165.576V67H163.97V60.6562H162.732V59.8838L163.97 59.4121V58.8857C163.97 58.2432 164.07 57.7327 164.271 57.3545C164.476 56.9762 164.767 56.7051 165.146 56.541C165.528 56.3724 165.984 56.2881 166.513 56.2881C166.859 56.2881 167.176 56.3177 167.463 56.377C167.75 56.4316 167.992 56.4954 168.188 56.5684L167.771 57.7852C167.616 57.735 167.442 57.6895 167.251 57.6484C167.06 57.6029 166.854 57.5801 166.636 57.5801C166.271 57.5801 166.002 57.694 165.829 57.9219C165.66 58.1497 165.576 58.4824 165.576 58.9199V59.4326H167.415V60.6562ZM175.304 59.4326V67H174.039L173.82 65.9814H173.731C173.572 66.2412 173.369 66.4577 173.123 66.6309C172.877 66.7995 172.604 66.9248 172.303 67.0068C172.002 67.0934 171.685 67.1367 171.353 67.1367C170.783 67.1367 170.295 67.041 169.89 66.8496C169.489 66.6536 169.181 66.3529 168.967 65.9473C168.753 65.5417 168.646 65.0176 168.646 64.375V59.4326H170.259V64.0742C170.259 64.6621 170.377 65.1019 170.614 65.3936C170.856 65.6852 171.229 65.8311 171.735 65.8311C172.223 65.8311 172.61 65.7308 172.897 65.5303C173.185 65.3298 173.387 65.0335 173.506 64.6416C173.629 64.2497 173.69 63.7689 173.69 63.1992V59.4326H175.304ZM179.221 67H177.607V56.3633H179.221V67ZM183.131 67H181.518V56.3633H183.131V67ZM197.616 59.2891C198.464 59.2891 199.102 59.5078 199.53 59.9453C199.963 60.3828 200.18 61.0846 200.18 62.0508V67H198.573V62.3379C198.573 61.7637 198.462 61.3307 198.238 61.0391C198.015 60.7474 197.675 60.6016 197.22 60.6016C196.582 60.6016 196.121 60.8066 195.839 61.2168C195.561 61.6224 195.422 62.2126 195.422 62.9873V67H193.815V62.3379C193.815 61.9551 193.765 61.6361 193.665 61.3809C193.569 61.1211 193.421 60.9274 193.221 60.7998C193.02 60.6676 192.767 60.6016 192.462 60.6016C192.02 60.6016 191.667 60.7018 191.402 60.9023C191.143 61.1029 190.956 61.3991 190.842 61.791C190.728 62.1784 190.671 62.6546 190.671 63.2197V67H189.064V59.4326H190.315L190.541 60.4512H190.63C190.785 60.1868 190.976 59.9704 191.204 59.8018C191.437 59.6286 191.694 59.501 191.977 59.4189C192.259 59.3324 192.553 59.2891 192.858 59.2891C193.424 59.2891 193.9 59.3893 194.287 59.5898C194.674 59.7858 194.964 60.0866 195.155 60.4922H195.278C195.515 60.082 195.846 59.779 196.27 59.583C196.693 59.387 197.142 59.2891 197.616 59.2891ZM205.389 59.2891C206.346 59.2891 207.068 59.501 207.556 59.9248C208.048 60.3486 208.294 61.0094 208.294 61.9072V67H207.152L206.845 65.9268H206.79C206.576 66.2002 206.355 66.4258 206.127 66.6035C205.899 66.7812 205.635 66.9134 205.334 67C205.038 67.0911 204.675 67.1367 204.247 67.1367C203.796 67.1367 203.393 67.0547 203.037 66.8906C202.682 66.722 202.401 66.4668 202.196 66.125C201.991 65.7832 201.889 65.3503 201.889 64.8262C201.889 64.0469 202.178 63.4613 202.757 63.0693C203.34 62.6774 204.22 62.4609 205.396 62.4199L206.708 62.3721V61.9756C206.708 61.4515 206.585 61.0778 206.339 60.8545C206.097 60.6312 205.756 60.5195 205.313 60.5195C204.935 60.5195 204.568 60.5742 204.213 60.6836C203.857 60.793 203.511 60.9274 203.174 61.0869L202.654 59.9521C203.023 59.7562 203.443 59.5967 203.912 59.4736C204.386 59.3506 204.878 59.2891 205.389 59.2891ZM206.701 63.3838L205.724 63.418C204.922 63.4453 204.359 63.582 204.035 63.8281C203.712 64.0742 203.55 64.4115 203.55 64.8398C203.55 65.2135 203.661 65.487 203.885 65.6602C204.108 65.8288 204.402 65.9131 204.767 65.9131C205.323 65.9131 205.783 65.7559 206.147 65.4414C206.517 65.1224 206.701 64.6553 206.701 64.04V63.3838ZM214.487 59.2891C215.34 59.2891 216.003 59.5101 216.477 59.9521C216.955 60.3896 217.194 61.0938 217.194 62.0645V67H215.588V62.3652C215.588 61.7773 215.467 61.3376 215.226 61.0459C214.984 60.7497 214.61 60.6016 214.104 60.6016C213.371 60.6016 212.86 60.8271 212.573 61.2783C212.291 61.7295 212.149 62.3835 212.149 63.2402V67H210.543V59.4326H211.794L212.02 60.458H212.108C212.272 60.1937 212.475 59.9772 212.717 59.8086C212.963 59.6354 213.236 59.5055 213.537 59.4189C213.842 59.3324 214.159 59.2891 214.487 59.2891ZM226.04 59.4326V67H224.775L224.557 65.9814H224.468C224.308 66.2412 224.105 66.4577 223.859 66.6309C223.613 66.7995 223.34 66.9248 223.039 67.0068C222.738 67.0934 222.422 67.1367 222.089 67.1367C221.519 67.1367 221.032 67.041 220.626 66.8496C220.225 66.6536 219.917 66.3529 219.703 65.9473C219.489 65.5417 219.382 65.0176 219.382 64.375V59.4326H220.995V64.0742C220.995 64.6621 221.114 65.1019 221.351 65.3936C221.592 65.6852 221.966 65.8311 222.472 65.8311C222.959 65.8311 223.347 65.7308 223.634 65.5303C223.921 65.3298 224.124 65.0335 224.242 64.6416C224.365 64.2497 224.427 63.7689 224.427 63.1992V59.4326H226.04ZM231.311 59.2891C232.268 59.2891 232.99 59.501 233.478 59.9248C233.97 60.3486 234.216 61.0094 234.216 61.9072V67H233.074L232.767 65.9268H232.712C232.498 66.2002 232.277 66.4258 232.049 66.6035C231.821 66.7812 231.557 66.9134 231.256 67C230.96 67.0911 230.597 67.1367 230.169 67.1367C229.718 67.1367 229.314 67.0547 228.959 66.8906C228.604 66.722 228.323 66.4668 228.118 66.125C227.913 65.7832 227.811 65.3503 227.811 64.8262C227.811 64.0469 228.1 63.4613 228.679 63.0693C229.262 62.6774 230.142 62.4609 231.317 62.4199L232.63 62.3721V61.9756C232.63 61.4515 232.507 61.0778 232.261 60.8545C232.019 60.6312 231.677 60.5195 231.235 60.5195C230.857 60.5195 230.49 60.5742 230.135 60.6836C229.779 60.793 229.433 60.9274 229.096 61.0869L228.576 59.9521C228.945 59.7562 229.365 59.5967 229.834 59.4736C230.308 59.3506 230.8 59.2891 231.311 59.2891ZM232.623 63.3838L231.646 63.418C230.843 63.4453 230.281 63.582 229.957 63.8281C229.633 64.0742 229.472 64.4115 229.472 64.8398C229.472 65.2135 229.583 65.487 229.807 65.6602C230.03 65.8288 230.324 65.9131 230.688 65.9131C231.244 65.9131 231.705 65.7559 232.069 65.4414C232.438 65.1224 232.623 64.6553 232.623 64.04V63.3838ZM238.078 67H236.465V56.3633H238.078V67ZM247.792 60.6562H245.953V67H244.347V60.6562H243.109V59.8838L244.347 59.4121V58.8857C244.347 58.2432 244.447 57.7327 244.647 57.3545C244.853 56.9762 245.144 56.7051 245.522 56.541C245.905 56.3724 246.361 56.2881 246.89 56.2881C247.236 56.2881 247.553 56.3177 247.84 56.377C248.127 56.4316 248.368 56.4954 248.564 56.5684L248.147 57.7852C247.993 57.735 247.819 57.6895 247.628 57.6484C247.437 57.6029 247.231 57.5801 247.013 57.5801C246.648 57.5801 246.379 57.694 246.206 57.9219C246.037 58.1497 245.953 58.4824 245.953 58.9199V59.4326H247.792V60.6562ZM255.783 63.1992C255.783 63.8281 255.701 64.3864 255.537 64.874C255.373 65.3617 255.134 65.7741 254.819 66.1113C254.505 66.444 254.127 66.6992 253.685 66.877C253.243 67.0501 252.743 67.1367 252.188 67.1367C251.668 67.1367 251.192 67.0501 250.759 66.877C250.326 66.6992 249.95 66.444 249.631 66.1113C249.316 65.7741 249.073 65.3617 248.899 64.874C248.726 64.3864 248.64 63.8281 248.64 63.1992C248.64 62.3652 248.783 61.6589 249.07 61.0801C249.362 60.4967 249.777 60.0524 250.314 59.7471C250.852 59.4417 251.493 59.2891 252.235 59.2891C252.933 59.2891 253.548 59.4417 254.081 59.7471C254.614 60.0524 255.031 60.4967 255.332 61.0801C255.633 61.6634 255.783 62.3698 255.783 63.1992ZM250.294 63.1992C250.294 63.7507 250.36 64.2223 250.492 64.6143C250.629 65.0062 250.839 65.307 251.121 65.5166C251.404 65.7217 251.768 65.8242 252.215 65.8242C252.661 65.8242 253.026 65.7217 253.309 65.5166C253.591 65.307 253.799 65.0062 253.931 64.6143C254.063 64.2223 254.129 63.7507 254.129 63.1992C254.129 62.6478 254.063 62.1807 253.931 61.7979C253.799 61.4105 253.591 61.1165 253.309 60.916C253.026 60.7109 252.659 60.6084 252.208 60.6084C251.543 60.6084 251.057 60.8317 250.752 61.2783C250.447 61.7249 250.294 62.3652 250.294 63.1992ZM261.464 59.2891C261.591 59.2891 261.73 59.2959 261.881 59.3096C262.031 59.3232 262.161 59.3415 262.271 59.3643L262.12 60.8682C262.024 60.8408 261.906 60.8203 261.765 60.8066C261.628 60.793 261.505 60.7861 261.396 60.7861C261.108 60.7861 260.835 60.834 260.575 60.9297C260.315 61.0208 260.085 61.1621 259.885 61.3535C259.684 61.5404 259.527 61.7751 259.413 62.0576C259.299 62.3402 259.242 62.6683 259.242 63.042V67H257.629V59.4326H258.887L259.105 60.7656H259.181C259.331 60.4967 259.518 60.2507 259.741 60.0273C259.965 59.804 260.22 59.6263 260.507 59.4941C260.799 59.3574 261.118 59.2891 261.464 59.2891ZM272.224 59.2891C273.071 59.2891 273.709 59.5078 274.138 59.9453C274.571 60.3828 274.787 61.0846 274.787 62.0508V67H273.181V62.3379C273.181 61.7637 273.069 61.3307 272.846 61.0391C272.622 60.7474 272.283 60.6016 271.827 60.6016C271.189 60.6016 270.729 60.8066 270.446 61.2168C270.168 61.6224 270.029 62.2126 270.029 62.9873V67H268.423V62.3379C268.423 61.9551 268.373 61.6361 268.272 61.3809C268.177 61.1211 268.029 60.9274 267.828 60.7998C267.628 60.6676 267.375 60.6016 267.069 60.6016C266.627 60.6016 266.274 60.7018 266.01 60.9023C265.75 61.1029 265.563 61.3991 265.449 61.791C265.335 62.1784 265.278 62.6546 265.278 63.2197V67H263.672V59.4326H264.923L265.148 60.4512H265.237C265.392 60.1868 265.584 59.9704 265.812 59.8018C266.044 59.6286 266.301 59.501 266.584 59.4189C266.867 59.3324 267.16 59.2891 267.466 59.2891C268.031 59.2891 268.507 59.3893 268.895 59.5898C269.282 59.7858 269.571 60.0866 269.763 60.4922H269.886C270.123 60.082 270.453 59.779 270.877 59.583C271.301 59.387 271.75 59.2891 272.224 59.2891ZM99.9648 83.8379C100.174 83.8379 100.382 83.8197 100.587 83.7832C100.792 83.7422 100.979 83.6943 101.147 83.6396V84.8564C100.97 84.9339 100.74 85 100.457 85.0547C100.174 85.1094 99.8805 85.1367 99.5752 85.1367C99.1468 85.1367 98.7617 85.0661 98.4199 84.9248C98.0781 84.779 97.807 84.5306 97.6064 84.1797C97.4059 83.8288 97.3057 83.3434 97.3057 82.7236V78.6562H96.2734V77.9385L97.3809 77.3711L97.9072 75.751H98.9189V77.4326H101.086V78.6562H98.9189V82.7031C98.9189 83.0859 99.0146 83.3708 99.2061 83.5576C99.3975 83.7445 99.6504 83.8379 99.9648 83.8379ZM109.385 81.1992C109.385 81.8281 109.303 82.3864 109.139 82.874C108.975 83.3617 108.735 83.7741 108.421 84.1113C108.106 84.444 107.728 84.6992 107.286 84.877C106.844 85.0501 106.345 85.1367 105.789 85.1367C105.27 85.1367 104.793 85.0501 104.36 84.877C103.927 84.6992 103.551 84.444 103.232 84.1113C102.918 83.7741 102.674 83.3617 102.501 82.874C102.328 82.3864 102.241 81.8281 102.241 81.1992C102.241 80.3652 102.385 79.6589 102.672 79.0801C102.964 78.4967 103.378 78.0524 103.916 77.7471C104.454 77.4417 105.094 77.2891 105.837 77.2891C106.534 77.2891 107.149 77.4417 107.683 77.7471C108.216 78.0524 108.633 78.4967 108.934 79.0801C109.234 79.6634 109.385 80.3698 109.385 81.1992ZM103.896 81.1992C103.896 81.7507 103.962 82.2223 104.094 82.6143C104.23 83.0062 104.44 83.307 104.723 83.5166C105.005 83.7217 105.37 83.8242 105.816 83.8242C106.263 83.8242 106.628 83.7217 106.91 83.5166C107.193 83.307 107.4 83.0062 107.532 82.6143C107.664 82.2223 107.73 81.7507 107.73 81.1992C107.73 80.6478 107.664 80.1807 107.532 79.7979C107.4 79.4105 107.193 79.1165 106.91 78.916C106.628 78.7109 106.261 78.6084 105.81 78.6084C105.144 78.6084 104.659 78.8317 104.354 79.2783C104.048 79.7249 103.896 80.3652 103.896 81.1992ZM117.834 77.2891C118.791 77.2891 119.513 77.501 120.001 77.9248C120.493 78.3486 120.739 79.0094 120.739 79.9072V85H119.598L119.29 83.9268H119.235C119.021 84.2002 118.8 84.4258 118.572 84.6035C118.344 84.7812 118.08 84.9134 117.779 85C117.483 85.0911 117.121 85.1367 116.692 85.1367C116.241 85.1367 115.838 85.0547 115.482 84.8906C115.127 84.722 114.847 84.4668 114.642 84.125C114.437 83.7832 114.334 83.3503 114.334 82.8262C114.334 82.0469 114.623 81.4613 115.202 81.0693C115.785 80.6774 116.665 80.4609 117.841 80.4199L119.153 80.3721V79.9756C119.153 79.4515 119.03 79.0778 118.784 78.8545C118.543 78.6312 118.201 78.5195 117.759 78.5195C117.381 78.5195 117.014 78.5742 116.658 78.6836C116.303 78.793 115.956 78.9274 115.619 79.0869L115.1 77.9521C115.469 77.7562 115.888 77.5967 116.357 77.4736C116.831 77.3506 117.324 77.2891 117.834 77.2891ZM119.146 81.3838L118.169 81.418C117.367 81.4453 116.804 81.582 116.48 81.8281C116.157 82.0742 115.995 82.4115 115.995 82.8398C115.995 83.2135 116.107 83.487 116.33 83.6602C116.553 83.8288 116.847 83.9131 117.212 83.9131C117.768 83.9131 118.228 83.7559 118.593 83.4414C118.962 83.1224 119.146 82.6553 119.146 82.04V81.3838ZM125.531 85.1367C124.629 85.1367 123.904 84.8086 123.357 84.1523C122.815 83.4915 122.544 82.5186 122.544 81.2334C122.544 79.9346 122.82 78.9525 123.371 78.2871C123.927 77.6217 124.659 77.2891 125.565 77.2891C125.948 77.2891 126.283 77.3415 126.57 77.4463C126.857 77.5465 127.104 77.6833 127.309 77.8564C127.518 78.0296 127.696 78.2233 127.842 78.4375H127.917C127.894 78.2962 127.867 78.0934 127.835 77.8291C127.808 77.5602 127.794 77.3118 127.794 77.084V74.3633H129.407V85H128.149L127.862 83.9678H127.794C127.657 84.1865 127.484 84.3848 127.274 84.5625C127.069 84.7357 126.823 84.8747 126.536 84.9795C126.254 85.0843 125.919 85.1367 125.531 85.1367ZM125.982 83.8311C126.671 83.8311 127.156 83.6328 127.438 83.2363C127.721 82.8398 127.867 82.2451 127.876 81.4521V81.2402C127.876 80.3926 127.739 79.7432 127.466 79.292C127.192 78.8363 126.693 78.6084 125.969 78.6084C125.39 78.6084 124.948 78.8431 124.643 79.3125C124.342 79.7773 124.191 80.4268 124.191 81.2607C124.191 82.0947 124.342 82.7327 124.643 83.1748C124.948 83.6123 125.395 83.8311 125.982 83.8311ZM134.254 85.1367C133.352 85.1367 132.627 84.8086 132.08 84.1523C131.538 83.4915 131.267 82.5186 131.267 81.2334C131.267 79.9346 131.542 78.9525 132.094 78.2871C132.65 77.6217 133.381 77.2891 134.288 77.2891C134.671 77.2891 135.006 77.3415 135.293 77.4463C135.58 77.5465 135.826 77.6833 136.031 77.8564C136.241 78.0296 136.419 78.2233 136.564 78.4375H136.64C136.617 78.2962 136.59 78.0934 136.558 77.8291C136.53 77.5602 136.517 77.3118 136.517 77.084V74.3633H138.13V85H136.872L136.585 83.9678H136.517C136.38 84.1865 136.207 84.3848 135.997 84.5625C135.792 84.7357 135.546 84.8747 135.259 84.9795C134.976 85.0843 134.641 85.1367 134.254 85.1367ZM134.705 83.8311C135.393 83.8311 135.879 83.6328 136.161 83.2363C136.444 82.8398 136.59 82.2451 136.599 81.4521V81.2402C136.599 80.3926 136.462 79.7432 136.188 79.292C135.915 78.8363 135.416 78.6084 134.691 78.6084C134.113 78.6084 133.671 78.8431 133.365 79.3125C133.064 79.7773 132.914 80.4268 132.914 81.2607C132.914 82.0947 133.064 82.7327 133.365 83.1748C133.671 83.6123 134.117 83.8311 134.705 83.8311ZM146.613 85.1367C145.711 85.1367 144.986 84.8086 144.439 84.1523C143.897 83.4915 143.626 82.5186 143.626 81.2334C143.626 79.9346 143.902 78.9525 144.453 78.2871C145.009 77.6217 145.741 77.2891 146.647 77.2891C147.03 77.2891 147.365 77.3415 147.652 77.4463C147.939 77.5465 148.186 77.6833 148.391 77.8564C148.6 78.0296 148.778 78.2233 148.924 78.4375H148.999C148.976 78.2962 148.949 78.0934 148.917 77.8291C148.89 77.5602 148.876 77.3118 148.876 77.084V74.3633H150.489V85H149.231L148.944 83.9678H148.876C148.739 84.1865 148.566 84.3848 148.356 84.5625C148.151 84.7357 147.905 84.8747 147.618 84.9795C147.336 85.0843 147.001 85.1367 146.613 85.1367ZM147.064 83.8311C147.753 83.8311 148.238 83.6328 148.521 83.2363C148.803 82.8398 148.949 82.2451 148.958 81.4521V81.2402C148.958 80.3926 148.821 79.7432 148.548 79.292C148.274 78.8363 147.775 78.6084 147.051 78.6084C146.472 78.6084 146.03 78.8431 145.725 79.3125C145.424 79.7773 145.273 80.4268 145.273 81.2607C145.273 82.0947 145.424 82.7327 145.725 83.1748C146.03 83.6123 146.477 83.8311 147.064 83.8311ZM155.808 77.2891C156.482 77.2891 157.061 77.4281 157.544 77.7061C158.027 77.984 158.398 78.3783 158.658 78.8887C158.918 79.3991 159.048 80.0098 159.048 80.7207V81.582H153.996C154.014 82.3158 154.21 82.8809 154.584 83.2773C154.962 83.6738 155.491 83.8721 156.17 83.8721C156.653 83.8721 157.086 83.8265 157.469 83.7354C157.856 83.6396 158.255 83.5007 158.665 83.3184V84.624C158.287 84.8018 157.902 84.9316 157.51 85.0137C157.118 85.0957 156.648 85.1367 156.102 85.1367C155.359 85.1367 154.705 84.9932 154.14 84.7061C153.579 84.4144 153.139 83.9814 152.82 83.4072C152.506 82.833 152.349 82.1198 152.349 81.2676C152.349 80.4199 152.492 79.6999 152.779 79.1074C153.066 78.515 153.47 78.0638 153.989 77.7539C154.509 77.444 155.115 77.2891 155.808 77.2891ZM155.808 78.499C155.302 78.499 154.892 78.6631 154.577 78.9912C154.267 79.3193 154.085 79.8001 154.03 80.4336H157.476C157.471 80.0553 157.407 79.7204 157.284 79.4287C157.166 79.137 156.983 78.9092 156.737 78.7451C156.496 78.5811 156.186 78.499 155.808 78.499ZM163.676 83.8379C163.885 83.8379 164.093 83.8197 164.298 83.7832C164.503 83.7422 164.69 83.6943 164.858 83.6396V84.8564C164.681 84.9339 164.451 85 164.168 85.0547C163.885 85.1094 163.591 85.1367 163.286 85.1367C162.858 85.1367 162.473 85.0661 162.131 84.9248C161.789 84.779 161.518 84.5306 161.317 84.1797C161.117 83.8288 161.017 83.3434 161.017 82.7236V78.6562H159.984V77.9385L161.092 77.3711L161.618 75.751H162.63V77.4326H164.797V78.6562H162.63V82.7031C162.63 83.0859 162.726 83.3708 162.917 83.5576C163.108 83.7445 163.361 83.8379 163.676 83.8379ZM169.363 77.2891C170.32 77.2891 171.043 77.501 171.53 77.9248C172.022 78.3486 172.269 79.0094 172.269 79.9072V85H171.127L170.819 83.9268H170.765C170.55 84.2002 170.329 84.4258 170.102 84.6035C169.874 84.7812 169.609 84.9134 169.309 85C169.012 85.0911 168.65 85.1367 168.222 85.1367C167.771 85.1367 167.367 85.0547 167.012 84.8906C166.656 84.722 166.376 84.4668 166.171 84.125C165.966 83.7832 165.863 83.3503 165.863 82.8262C165.863 82.0469 166.153 81.4613 166.731 81.0693C167.315 80.6774 168.194 80.4609 169.37 80.4199L170.683 80.3721V79.9756C170.683 79.4515 170.56 79.0778 170.313 78.8545C170.072 78.6312 169.73 78.5195 169.288 78.5195C168.91 78.5195 168.543 78.5742 168.188 78.6836C167.832 78.793 167.486 78.9274 167.148 79.0869L166.629 77.9521C166.998 77.7562 167.417 77.5967 167.887 77.4736C168.361 77.3506 168.853 77.2891 169.363 77.2891ZM170.676 81.3838L169.698 81.418C168.896 81.4453 168.333 81.582 168.01 81.8281C167.686 82.0742 167.524 82.4115 167.524 82.8398C167.524 83.2135 167.636 83.487 167.859 83.6602C168.083 83.8288 168.377 83.9131 168.741 83.9131C169.297 83.9131 169.757 83.7559 170.122 83.4414C170.491 83.1224 170.676 82.6553 170.676 82.04V81.3838ZM176.124 77.4326V85H174.518V77.4326H176.124ZM175.331 74.5342C175.577 74.5342 175.789 74.6003 175.967 74.7324C176.149 74.8646 176.24 75.0924 176.24 75.416C176.24 75.735 176.149 75.9629 175.967 76.0996C175.789 76.2318 175.577 76.2979 175.331 76.2979C175.076 76.2979 174.859 76.2318 174.682 76.0996C174.508 75.9629 174.422 75.735 174.422 75.416C174.422 75.0924 174.508 74.8646 174.682 74.7324C174.859 74.6003 175.076 74.5342 175.331 74.5342ZM180.041 85H178.428V74.3633H180.041V85ZM185.353 77.2891C186.027 77.2891 186.606 77.4281 187.089 77.7061C187.572 77.984 187.943 78.3783 188.203 78.8887C188.463 79.3991 188.593 80.0098 188.593 80.7207V81.582H183.541C183.559 82.3158 183.755 82.8809 184.129 83.2773C184.507 83.6738 185.036 83.8721 185.715 83.8721C186.198 83.8721 186.631 83.8265 187.014 83.7354C187.401 83.6396 187.8 83.5007 188.21 83.3184V84.624C187.832 84.8018 187.447 84.9316 187.055 85.0137C186.663 85.0957 186.193 85.1367 185.646 85.1367C184.904 85.1367 184.25 84.9932 183.685 84.7061C183.124 84.4144 182.684 83.9814 182.365 83.4072C182.051 82.833 181.894 82.1198 181.894 81.2676C181.894 80.4199 182.037 79.6999 182.324 79.1074C182.611 78.515 183.015 78.0638 183.534 77.7539C184.054 77.444 184.66 77.2891 185.353 77.2891ZM185.353 78.499C184.847 78.499 184.437 78.6631 184.122 78.9912C183.812 79.3193 183.63 79.8001 183.575 80.4336H187.021C187.016 80.0553 186.952 79.7204 186.829 79.4287C186.711 79.137 186.528 78.9092 186.282 78.7451C186.041 78.5811 185.731 78.499 185.353 78.499ZM192.947 85.1367C192.045 85.1367 191.32 84.8086 190.773 84.1523C190.231 83.4915 189.96 82.5186 189.96 81.2334C189.96 79.9346 190.236 78.9525 190.787 78.2871C191.343 77.6217 192.075 77.2891 192.981 77.2891C193.364 77.2891 193.699 77.3415 193.986 77.4463C194.273 77.5465 194.52 77.6833 194.725 77.8564C194.934 78.0296 195.112 78.2233 195.258 78.4375H195.333C195.31 78.2962 195.283 78.0934 195.251 77.8291C195.224 77.5602 195.21 77.3118 195.21 77.084V74.3633H196.823V85H195.565L195.278 83.9678H195.21C195.073 84.1865 194.9 84.3848 194.69 84.5625C194.485 84.7357 194.239 84.8747 193.952 84.9795C193.67 85.0843 193.335 85.1367 192.947 85.1367ZM193.398 83.8311C194.087 83.8311 194.572 83.6328 194.854 83.2363C195.137 82.8398 195.283 82.2451 195.292 81.4521V81.2402C195.292 80.3926 195.155 79.7432 194.882 79.292C194.608 78.8363 194.109 78.6084 193.385 78.6084C192.806 78.6084 192.364 78.8431 192.059 79.3125C191.758 79.7773 191.607 80.4268 191.607 81.2607C191.607 82.0947 191.758 82.7327 192.059 83.1748C192.364 83.6123 192.811 83.8311 193.398 83.8311ZM204.37 77.4326V85H202.764V77.4326H204.37ZM203.577 74.5342C203.823 74.5342 204.035 74.6003 204.213 74.7324C204.395 74.8646 204.486 75.0924 204.486 75.416C204.486 75.735 204.395 75.9629 204.213 76.0996C204.035 76.2318 203.823 76.2979 203.577 76.2979C203.322 76.2979 203.105 76.2318 202.928 76.0996C202.755 75.9629 202.668 75.735 202.668 75.416C202.668 75.0924 202.755 74.8646 202.928 74.7324C203.105 74.6003 203.322 74.5342 203.577 74.5342ZM210.618 77.2891C211.47 77.2891 212.133 77.5101 212.607 77.9521C213.086 78.3896 213.325 79.0938 213.325 80.0645V85H211.719V80.3652C211.719 79.7773 211.598 79.3376 211.356 79.0459C211.115 78.7497 210.741 78.6016 210.235 78.6016C209.502 78.6016 208.991 78.8271 208.704 79.2783C208.422 79.7295 208.28 80.3835 208.28 81.2402V85H206.674V77.4326H207.925L208.15 78.458H208.239C208.403 78.1937 208.606 77.9772 208.848 77.8086C209.094 77.6354 209.367 77.5055 209.668 77.4189C209.973 77.3324 210.29 77.2891 210.618 77.2891ZM219.354 78.6562H217.516V85H215.909V78.6562H214.672V77.8838L215.909 77.4121V76.8857C215.909 76.2432 216.009 75.7327 216.21 75.3545C216.415 74.9762 216.707 74.7051 217.085 74.541C217.468 74.3724 217.924 74.2881 218.452 74.2881C218.799 74.2881 219.115 74.3177 219.402 74.377C219.689 74.4316 219.931 74.4954 220.127 74.5684L219.71 75.7852C219.555 75.735 219.382 75.6895 219.19 75.6484C218.999 75.6029 218.794 75.5801 218.575 75.5801C218.211 75.5801 217.942 75.694 217.769 75.9219C217.6 76.1497 217.516 76.4824 217.516 76.9199V77.4326H219.354V78.6562ZM227.346 81.1992C227.346 81.8281 227.264 82.3864 227.1 82.874C226.936 83.3617 226.696 83.7741 226.382 84.1113C226.067 84.444 225.689 84.6992 225.247 84.877C224.805 85.0501 224.306 85.1367 223.75 85.1367C223.23 85.1367 222.754 85.0501 222.321 84.877C221.888 84.6992 221.512 84.444 221.193 84.1113C220.879 83.7741 220.635 83.3617 220.462 82.874C220.289 82.3864 220.202 81.8281 220.202 81.1992C220.202 80.3652 220.346 79.6589 220.633 79.0801C220.924 78.4967 221.339 78.0524 221.877 77.7471C222.415 77.4417 223.055 77.2891 223.798 77.2891C224.495 77.2891 225.11 77.4417 225.644 77.7471C226.177 78.0524 226.594 78.4967 226.895 79.0801C227.195 79.6634 227.346 80.3698 227.346 81.1992ZM221.856 81.1992C221.856 81.7507 221.923 82.2223 222.055 82.6143C222.191 83.0062 222.401 83.307 222.684 83.5166C222.966 83.7217 223.331 83.8242 223.777 83.8242C224.224 83.8242 224.589 83.7217 224.871 83.5166C225.154 83.307 225.361 83.0062 225.493 82.6143C225.625 82.2223 225.691 81.7507 225.691 81.1992C225.691 80.6478 225.625 80.1807 225.493 79.7979C225.361 79.4105 225.154 79.1165 224.871 78.916C224.589 78.7109 224.222 78.6084 223.771 78.6084C223.105 78.6084 222.62 78.8317 222.314 79.2783C222.009 79.7249 221.856 80.3652 221.856 81.1992ZM233.026 77.2891C233.154 77.2891 233.293 77.2959 233.443 77.3096C233.594 77.3232 233.724 77.3415 233.833 77.3643L233.683 78.8682C233.587 78.8408 233.468 78.8203 233.327 78.8066C233.19 78.793 233.067 78.7861 232.958 78.7861C232.671 78.7861 232.397 78.834 232.138 78.9297C231.878 79.0208 231.648 79.1621 231.447 79.3535C231.247 79.5404 231.09 79.7751 230.976 80.0576C230.862 80.3402 230.805 80.6683 230.805 81.042V85H229.191V77.4326H230.449L230.668 78.7656H230.743C230.894 78.4967 231.08 78.2507 231.304 78.0273C231.527 77.804 231.782 77.6263 232.069 77.4941C232.361 77.3574 232.68 77.2891 233.026 77.2891ZM243.786 77.2891C244.634 77.2891 245.272 77.5078 245.7 77.9453C246.133 78.3828 246.35 79.0846 246.35 80.0508V85H244.743V80.3379C244.743 79.7637 244.632 79.3307 244.408 79.0391C244.185 78.7474 243.845 78.6016 243.39 78.6016C242.752 78.6016 242.291 78.8066 242.009 79.2168C241.731 79.6224 241.592 80.2126 241.592 80.9873V85H239.985V80.3379C239.985 79.9551 239.935 79.6361 239.835 79.3809C239.739 79.1211 239.591 78.9274 239.391 78.7998C239.19 78.6676 238.937 78.6016 238.632 78.6016C238.19 78.6016 237.837 78.7018 237.572 78.9023C237.312 79.1029 237.126 79.3991 237.012 79.791C236.898 80.1784 236.841 80.6546 236.841 81.2197V85H235.234V77.4326H236.485L236.711 78.4512H236.8C236.955 78.1868 237.146 77.9704 237.374 77.8018C237.606 77.6286 237.864 77.501 238.146 77.4189C238.429 77.3324 238.723 77.2891 239.028 77.2891C239.593 77.2891 240.07 77.3893 240.457 77.5898C240.844 77.7858 241.134 78.0866 241.325 78.4922H241.448C241.685 78.082 242.016 77.779 242.439 77.583C242.863 77.387 243.312 77.2891 243.786 77.2891ZM251.559 77.2891C252.516 77.2891 253.238 77.501 253.726 77.9248C254.218 78.3486 254.464 79.0094 254.464 79.9072V85H253.322L253.015 83.9268H252.96C252.746 84.2002 252.525 84.4258 252.297 84.6035C252.069 84.7812 251.805 84.9134 251.504 85C251.208 85.0911 250.845 85.1367 250.417 85.1367C249.966 85.1367 249.562 85.0547 249.207 84.8906C248.852 84.722 248.571 84.4668 248.366 84.125C248.161 83.7832 248.059 83.3503 248.059 82.8262C248.059 82.0469 248.348 81.4613 248.927 81.0693C249.51 80.6774 250.39 80.4609 251.565 80.4199L252.878 80.3721V79.9756C252.878 79.4515 252.755 79.0778 252.509 78.8545C252.267 78.6312 251.925 78.5195 251.483 78.5195C251.105 78.5195 250.738 78.5742 250.383 78.6836C250.027 78.793 249.681 78.9274 249.344 79.0869L248.824 77.9521C249.193 77.7562 249.613 77.5967 250.082 77.4736C250.556 77.3506 251.048 77.2891 251.559 77.2891ZM252.871 81.3838L251.894 81.418C251.091 81.4453 250.529 81.582 250.205 81.8281C249.882 82.0742 249.72 82.4115 249.72 82.8398C249.72 83.2135 249.831 83.487 250.055 83.6602C250.278 83.8288 250.572 83.9131 250.937 83.9131C251.493 83.9131 251.953 83.7559 252.317 83.4414C252.687 83.1224 252.871 82.6553 252.871 82.04V81.3838ZM259.529 83.8379C259.739 83.8379 259.946 83.8197 260.151 83.7832C260.356 83.7422 260.543 83.6943 260.712 83.6396V84.8564C260.534 84.9339 260.304 85 260.021 85.0547C259.739 85.1094 259.445 85.1367 259.14 85.1367C258.711 85.1367 258.326 85.0661 257.984 84.9248C257.643 84.779 257.371 84.5306 257.171 84.1797C256.97 83.8288 256.87 83.3434 256.87 82.7236V78.6562H255.838V77.9385L256.945 77.3711L257.472 75.751H258.483V77.4326H260.65V78.6562H258.483V82.7031C258.483 83.0859 258.579 83.3708 258.771 83.5576C258.962 83.7445 259.215 83.8379 259.529 83.8379ZM263.856 77.4326V85H262.25V77.4326H263.856ZM263.063 74.5342C263.31 74.5342 263.521 74.6003 263.699 74.7324C263.882 74.8646 263.973 75.0924 263.973 75.416C263.973 75.735 263.882 75.9629 263.699 76.0996C263.521 76.2318 263.31 76.2979 263.063 76.2979C262.808 76.2979 262.592 76.2318 262.414 76.0996C262.241 75.9629 262.154 75.735 262.154 75.416C262.154 75.0924 262.241 74.8646 262.414 74.7324C262.592 74.6003 262.808 74.5342 263.063 74.5342ZM272.859 81.1992C272.859 81.8281 272.777 82.3864 272.613 82.874C272.449 83.3617 272.21 83.7741 271.896 84.1113C271.581 84.444 271.203 84.6992 270.761 84.877C270.319 85.0501 269.82 85.1367 269.264 85.1367C268.744 85.1367 268.268 85.0501 267.835 84.877C267.402 84.6992 267.026 84.444 266.707 84.1113C266.393 83.7741 266.149 83.3617 265.976 82.874C265.802 82.3864 265.716 81.8281 265.716 81.1992C265.716 80.3652 265.859 79.6589 266.146 79.0801C266.438 78.4967 266.853 78.0524 267.391 77.7471C267.928 77.4417 268.569 77.2891 269.312 77.2891C270.009 77.2891 270.624 77.4417 271.157 77.7471C271.69 78.0524 272.107 78.4967 272.408 79.0801C272.709 79.6634 272.859 80.3698 272.859 81.1992ZM267.37 81.1992C267.37 81.7507 267.436 82.2223 267.568 82.6143C267.705 83.0062 267.915 83.307 268.197 83.5166C268.48 83.7217 268.844 83.8242 269.291 83.8242C269.738 83.8242 270.102 83.7217 270.385 83.5166C270.667 83.307 270.875 83.0062 271.007 82.6143C271.139 82.2223 271.205 81.7507 271.205 81.1992C271.205 80.6478 271.139 80.1807 271.007 79.7979C270.875 79.4105 270.667 79.1165 270.385 78.916C270.102 78.7109 269.735 78.6084 269.284 78.6084C268.619 78.6084 268.133 78.8317 267.828 79.2783C267.523 79.7249 267.37 80.3652 267.37 81.1992ZM278.649 77.2891C279.502 77.2891 280.165 77.5101 280.639 77.9521C281.117 78.3896 281.356 79.0938 281.356 80.0645V85H279.75V80.3652C279.75 79.7773 279.629 79.3376 279.388 79.0459C279.146 78.7497 278.772 78.6016 278.267 78.6016C277.533 78.6016 277.022 78.8271 276.735 79.2783C276.453 79.7295 276.312 80.3835 276.312 81.2402V85H274.705V77.4326H275.956L276.182 78.458H276.271C276.435 78.1937 276.637 77.9772 276.879 77.8086C277.125 77.6354 277.398 77.5055 277.699 77.4189C278.005 77.3324 278.321 77.2891 278.649 77.2891ZM102.234 100.84C102.234 101.337 102.114 101.756 101.872 102.098C101.631 102.439 101.277 102.699 100.812 102.877C100.352 103.05 99.7871 103.137 99.1172 103.137C98.5885 103.137 98.1328 103.098 97.75 103.021C97.3717 102.948 97.014 102.834 96.6768 102.679V101.291C97.0368 101.46 97.4401 101.605 97.8867 101.729C98.3379 101.852 98.764 101.913 99.165 101.913C99.6937 101.913 100.074 101.831 100.307 101.667C100.539 101.498 100.655 101.275 100.655 100.997C100.655 100.833 100.607 100.687 100.512 100.56C100.421 100.427 100.247 100.293 99.9922 100.156C99.7415 100.015 99.3724 99.8464 98.8848 99.6504C98.4062 99.459 98.0029 99.2676 97.6748 99.0762C97.3467 98.8848 97.0983 98.6546 96.9297 98.3857C96.7611 98.1123 96.6768 97.7637 96.6768 97.3398C96.6768 96.6699 96.9411 96.1618 97.4697 95.8154C98.0029 95.4645 98.707 95.2891 99.582 95.2891C100.047 95.2891 100.484 95.3369 100.895 95.4326C101.309 95.5238 101.715 95.6582 102.111 95.8359L101.605 97.0459C101.264 96.8955 100.92 96.7725 100.573 96.6768C100.231 96.5765 99.8828 96.5264 99.5273 96.5264C99.1126 96.5264 98.7959 96.5902 98.5771 96.7178C98.363 96.8454 98.2559 97.0277 98.2559 97.2646C98.2559 97.4424 98.3083 97.5928 98.4131 97.7158C98.5179 97.8389 98.6979 97.9619 98.9531 98.085C99.2129 98.208 99.5729 98.3607 100.033 98.543C100.484 98.7161 100.874 98.8984 101.202 99.0898C101.535 99.2767 101.79 99.5068 101.968 99.7803C102.146 100.054 102.234 100.407 102.234 100.84ZM106.985 95.2891C107.66 95.2891 108.239 95.4281 108.722 95.7061C109.205 95.984 109.576 96.3783 109.836 96.8887C110.096 97.3991 110.226 98.0098 110.226 98.7207V99.582H105.174C105.192 100.316 105.388 100.881 105.762 101.277C106.14 101.674 106.669 101.872 107.348 101.872C107.831 101.872 108.264 101.826 108.646 101.735C109.034 101.64 109.433 101.501 109.843 101.318V102.624C109.465 102.802 109.079 102.932 108.688 103.014C108.296 103.096 107.826 103.137 107.279 103.137C106.536 103.137 105.882 102.993 105.317 102.706C104.757 102.414 104.317 101.981 103.998 101.407C103.684 100.833 103.526 100.12 103.526 99.2676C103.526 98.4199 103.67 97.6999 103.957 97.1074C104.244 96.515 104.647 96.0638 105.167 95.7539C105.687 95.444 106.293 95.2891 106.985 95.2891ZM106.985 96.499C106.479 96.499 106.069 96.6631 105.755 96.9912C105.445 97.3193 105.263 97.8001 105.208 98.4336H108.653C108.649 98.0553 108.585 97.7204 108.462 97.4287C108.343 97.137 108.161 96.9092 107.915 96.7451C107.674 96.5811 107.364 96.499 106.985 96.499ZM115.086 103.137C114.37 103.137 113.751 102.998 113.227 102.72C112.702 102.442 112.299 102.016 112.017 101.441C111.734 100.867 111.593 100.138 111.593 99.2539C111.593 98.3333 111.748 97.5814 112.058 96.998C112.368 96.4147 112.796 95.984 113.343 95.7061C113.894 95.4281 114.525 95.2891 115.236 95.2891C115.688 95.2891 116.095 95.3346 116.46 95.4258C116.829 95.5124 117.141 95.6195 117.396 95.7471L116.918 97.0322C116.64 96.9183 116.355 96.8226 116.063 96.7451C115.772 96.6676 115.492 96.6289 115.223 96.6289C114.781 96.6289 114.411 96.7269 114.115 96.9229C113.824 97.1188 113.605 97.4105 113.459 97.7979C113.318 98.1852 113.247 98.666 113.247 99.2402C113.247 99.7962 113.32 100.266 113.466 100.648C113.612 101.027 113.828 101.314 114.115 101.51C114.402 101.701 114.756 101.797 115.175 101.797C115.59 101.797 115.961 101.747 116.289 101.646C116.617 101.546 116.927 101.416 117.219 101.257V102.651C116.932 102.815 116.624 102.936 116.296 103.014C115.968 103.096 115.564 103.137 115.086 103.137ZM121.812 101.838C122.022 101.838 122.229 101.82 122.435 101.783C122.64 101.742 122.826 101.694 122.995 101.64V102.856C122.817 102.934 122.587 103 122.305 103.055C122.022 103.109 121.728 103.137 121.423 103.137C120.994 103.137 120.609 103.066 120.268 102.925C119.926 102.779 119.655 102.531 119.454 102.18C119.254 101.829 119.153 101.343 119.153 100.724V96.6562H118.121V95.9385L119.229 95.3711L119.755 93.751H120.767V95.4326H122.934V96.6562H120.767V100.703C120.767 101.086 120.862 101.371 121.054 101.558C121.245 101.744 121.498 101.838 121.812 101.838ZM126.14 95.4326V103H124.533V95.4326H126.14ZM125.347 92.5342C125.593 92.5342 125.805 92.6003 125.982 92.7324C126.165 92.8646 126.256 93.0924 126.256 93.416C126.256 93.735 126.165 93.9629 125.982 94.0996C125.805 94.2318 125.593 94.2979 125.347 94.2979C125.091 94.2979 124.875 94.2318 124.697 94.0996C124.524 93.9629 124.438 93.735 124.438 93.416C124.438 93.0924 124.524 92.8646 124.697 92.7324C124.875 92.6003 125.091 92.5342 125.347 92.5342ZM135.143 99.1992C135.143 99.8281 135.061 100.386 134.896 100.874C134.732 101.362 134.493 101.774 134.179 102.111C133.864 102.444 133.486 102.699 133.044 102.877C132.602 103.05 132.103 103.137 131.547 103.137C131.027 103.137 130.551 103.05 130.118 102.877C129.685 102.699 129.309 102.444 128.99 102.111C128.676 101.774 128.432 101.362 128.259 100.874C128.086 100.386 127.999 99.8281 127.999 99.1992C127.999 98.3652 128.143 97.6589 128.43 97.0801C128.721 96.4967 129.136 96.0524 129.674 95.7471C130.212 95.4417 130.852 95.2891 131.595 95.2891C132.292 95.2891 132.907 95.4417 133.44 95.7471C133.974 96.0524 134.391 96.4967 134.691 97.0801C134.992 97.6634 135.143 98.3698 135.143 99.1992ZM129.653 99.1992C129.653 99.7507 129.719 100.222 129.852 100.614C129.988 101.006 130.198 101.307 130.48 101.517C130.763 101.722 131.128 101.824 131.574 101.824C132.021 101.824 132.385 101.722 132.668 101.517C132.951 101.307 133.158 101.006 133.29 100.614C133.422 100.222 133.488 99.7507 133.488 99.1992C133.488 98.6478 133.422 98.1807 133.29 97.7979C133.158 97.4105 132.951 97.1165 132.668 96.916C132.385 96.7109 132.019 96.6084 131.567 96.6084C130.902 96.6084 130.417 96.8317 130.111 97.2783C129.806 97.7249 129.653 98.3652 129.653 99.1992ZM140.933 95.2891C141.785 95.2891 142.448 95.5101 142.922 95.9521C143.4 96.3896 143.64 97.0938 143.64 98.0645V103H142.033V98.3652C142.033 97.7773 141.912 97.3376 141.671 97.0459C141.429 96.7497 141.056 96.6016 140.55 96.6016C139.816 96.6016 139.306 96.8271 139.019 97.2783C138.736 97.7295 138.595 98.3835 138.595 99.2402V103H136.988V95.4326H138.239L138.465 96.458H138.554C138.718 96.1937 138.921 95.9772 139.162 95.8086C139.408 95.6354 139.682 95.5055 139.982 95.4189C140.288 95.3324 140.604 95.2891 140.933 95.2891ZM151.132 92.3633V94.9268C151.132 95.223 151.123 95.5146 151.104 95.8018C151.091 96.0843 151.077 96.3053 151.063 96.4648H151.132C151.337 96.1367 151.622 95.861 151.986 95.6377C152.355 95.4098 152.827 95.2959 153.401 95.2959C154.299 95.2959 155.021 95.6263 155.568 96.2871C156.115 96.9434 156.389 97.9163 156.389 99.2061C156.389 100.063 156.263 100.783 156.013 101.366C155.762 101.95 155.409 102.392 154.953 102.692C154.502 102.989 153.971 103.137 153.36 103.137C152.786 103.137 152.321 103.032 151.966 102.822C151.615 102.608 151.339 102.36 151.139 102.077H151.022L150.729 103H149.525V92.3633H151.132ZM152.978 96.6016C152.522 96.6016 152.16 96.6927 151.891 96.875C151.626 97.0573 151.435 97.3307 151.316 97.6953C151.198 98.0553 151.136 98.5133 151.132 99.0693V99.2129C151.132 100.056 151.264 100.701 151.528 101.147C151.797 101.594 152.285 101.817 152.991 101.817C153.552 101.817 153.982 101.592 154.283 101.141C154.584 100.685 154.734 100.033 154.734 99.1855C154.734 98.3288 154.584 97.6839 154.283 97.251C153.987 96.818 153.552 96.6016 152.978 96.6016ZM157.106 95.4326H158.856L160.408 99.7529C160.477 99.9489 160.538 100.143 160.593 100.334C160.652 100.521 160.702 100.705 160.743 100.888C160.789 101.07 160.825 101.252 160.853 101.435H160.894C160.939 101.198 161.003 100.933 161.085 100.642C161.172 100.345 161.267 100.049 161.372 99.7529L162.862 95.4326H164.592L161.345 104.039C161.158 104.531 160.928 104.951 160.654 105.297C160.385 105.648 160.066 105.912 159.697 106.09C159.328 106.272 158.907 106.363 158.433 106.363C158.205 106.363 158.007 106.35 157.838 106.322C157.669 106.299 157.526 106.274 157.407 106.247V104.962C157.503 104.985 157.624 105.005 157.77 105.023C157.915 105.042 158.066 105.051 158.221 105.051C158.508 105.051 158.756 104.994 158.966 104.88C159.175 104.766 159.353 104.604 159.499 104.395C159.645 104.189 159.766 103.955 159.861 103.69L160.128 102.979L157.106 95.4326ZM174.463 100.84C174.463 101.337 174.342 101.756 174.101 102.098C173.859 102.439 173.506 102.699 173.041 102.877C172.581 103.05 172.016 103.137 171.346 103.137C170.817 103.137 170.361 103.098 169.979 103.021C169.6 102.948 169.243 102.834 168.905 102.679V101.291C169.265 101.46 169.669 101.605 170.115 101.729C170.566 101.852 170.993 101.913 171.394 101.913C171.922 101.913 172.303 101.831 172.535 101.667C172.768 101.498 172.884 101.275 172.884 100.997C172.884 100.833 172.836 100.687 172.74 100.56C172.649 100.427 172.476 100.293 172.221 100.156C171.97 100.015 171.601 99.8464 171.113 99.6504C170.635 99.459 170.231 99.2676 169.903 99.0762C169.575 98.8848 169.327 98.6546 169.158 98.3857C168.99 98.1123 168.905 97.7637 168.905 97.3398C168.905 96.6699 169.17 96.1618 169.698 95.8154C170.231 95.4645 170.936 95.2891 171.811 95.2891C172.275 95.2891 172.713 95.3369 173.123 95.4326C173.538 95.5238 173.943 95.6582 174.34 95.8359L173.834 97.0459C173.492 96.8955 173.148 96.7725 172.802 96.6768C172.46 96.5765 172.111 96.5264 171.756 96.5264C171.341 96.5264 171.024 96.5902 170.806 96.7178C170.591 96.8454 170.484 97.0277 170.484 97.2646C170.484 97.4424 170.537 97.5928 170.642 97.7158C170.746 97.8389 170.926 97.9619 171.182 98.085C171.441 98.208 171.801 98.3607 172.262 98.543C172.713 98.7161 173.103 98.8984 173.431 99.0898C173.763 99.2767 174.019 99.5068 174.196 99.7803C174.374 100.054 174.463 100.407 174.463 100.84ZM179.214 95.2891C179.888 95.2891 180.467 95.4281 180.95 95.7061C181.433 95.984 181.805 96.3783 182.064 96.8887C182.324 97.3991 182.454 98.0098 182.454 98.7207V99.582H177.402C177.421 100.316 177.617 100.881 177.99 101.277C178.368 101.674 178.897 101.872 179.576 101.872C180.059 101.872 180.492 101.826 180.875 101.735C181.262 101.64 181.661 101.501 182.071 101.318V102.624C181.693 102.802 181.308 102.932 180.916 103.014C180.524 103.096 180.055 103.137 179.508 103.137C178.765 103.137 178.111 102.993 177.546 102.706C176.985 102.414 176.546 101.981 176.227 101.407C175.912 100.833 175.755 100.12 175.755 99.2676C175.755 98.4199 175.898 97.6999 176.186 97.1074C176.473 96.515 176.876 96.0638 177.396 95.7539C177.915 95.444 178.521 95.2891 179.214 95.2891ZM179.214 96.499C178.708 96.499 178.298 96.6631 177.983 96.9912C177.674 97.3193 177.491 97.8001 177.437 98.4336H180.882C180.877 98.0553 180.813 97.7204 180.69 97.4287C180.572 97.137 180.39 96.9092 180.144 96.7451C179.902 96.5811 179.592 96.499 179.214 96.499ZM187.314 103.137C186.599 103.137 185.979 102.998 185.455 102.72C184.931 102.442 184.528 102.016 184.245 101.441C183.963 100.867 183.821 100.138 183.821 99.2539C183.821 98.3333 183.976 97.5814 184.286 96.998C184.596 96.4147 185.024 95.984 185.571 95.7061C186.123 95.4281 186.754 95.2891 187.465 95.2891C187.916 95.2891 188.324 95.3346 188.688 95.4258C189.058 95.5124 189.37 95.6195 189.625 95.7471L189.146 97.0322C188.868 96.9183 188.584 96.8226 188.292 96.7451C188 96.6676 187.72 96.6289 187.451 96.6289C187.009 96.6289 186.64 96.7269 186.344 96.9229C186.052 97.1188 185.833 97.4105 185.688 97.7979C185.546 98.1852 185.476 98.666 185.476 99.2402C185.476 99.7962 185.549 100.266 185.694 100.648C185.84 101.027 186.057 101.314 186.344 101.51C186.631 101.701 186.984 101.797 187.403 101.797C187.818 101.797 188.189 101.747 188.518 101.646C188.846 101.546 189.156 101.416 189.447 101.257V102.651C189.16 102.815 188.853 102.936 188.524 103.014C188.196 103.096 187.793 103.137 187.314 103.137ZM194.041 101.838C194.251 101.838 194.458 101.82 194.663 101.783C194.868 101.742 195.055 101.694 195.224 101.64V102.856C195.046 102.934 194.816 103 194.533 103.055C194.251 103.109 193.957 103.137 193.651 103.137C193.223 103.137 192.838 103.066 192.496 102.925C192.154 102.779 191.883 102.531 191.683 102.18C191.482 101.829 191.382 101.343 191.382 100.724V96.6562H190.35V95.9385L191.457 95.3711L191.983 93.751H192.995V95.4326H195.162V96.6562H192.995V100.703C192.995 101.086 193.091 101.371 193.282 101.558C193.474 101.744 193.727 101.838 194.041 101.838ZM198.368 95.4326V103H196.762V95.4326H198.368ZM197.575 92.5342C197.821 92.5342 198.033 92.6003 198.211 92.7324C198.393 92.8646 198.484 93.0924 198.484 93.416C198.484 93.735 198.393 93.9629 198.211 94.0996C198.033 94.2318 197.821 94.2979 197.575 94.2979C197.32 94.2979 197.104 94.2318 196.926 94.0996C196.753 93.9629 196.666 93.735 196.666 93.416C196.666 93.0924 196.753 92.8646 196.926 92.7324C197.104 92.6003 197.32 92.5342 197.575 92.5342ZM207.371 99.1992C207.371 99.8281 207.289 100.386 207.125 100.874C206.961 101.362 206.722 101.774 206.407 102.111C206.093 102.444 205.715 102.699 205.272 102.877C204.83 103.05 204.331 103.137 203.775 103.137C203.256 103.137 202.78 103.05 202.347 102.877C201.914 102.699 201.538 102.444 201.219 102.111C200.904 101.774 200.66 101.362 200.487 100.874C200.314 100.386 200.228 99.8281 200.228 99.1992C200.228 98.3652 200.371 97.6589 200.658 97.0801C200.95 96.4967 201.365 96.0524 201.902 95.7471C202.44 95.4417 203.08 95.2891 203.823 95.2891C204.521 95.2891 205.136 95.4417 205.669 95.7471C206.202 96.0524 206.619 96.4967 206.92 97.0801C207.221 97.6634 207.371 98.3698 207.371 99.1992ZM201.882 99.1992C201.882 99.7507 201.948 100.222 202.08 100.614C202.217 101.006 202.426 101.307 202.709 101.517C202.992 101.722 203.356 101.824 203.803 101.824C204.249 101.824 204.614 101.722 204.896 101.517C205.179 101.307 205.386 101.006 205.519 100.614C205.651 100.222 205.717 99.7507 205.717 99.1992C205.717 98.6478 205.651 98.1807 205.519 97.7979C205.386 97.4105 205.179 97.1165 204.896 96.916C204.614 96.7109 204.247 96.6084 203.796 96.6084C203.131 96.6084 202.645 96.8317 202.34 97.2783C202.035 97.7249 201.882 98.3652 201.882 99.1992ZM213.161 95.2891C214.013 95.2891 214.676 95.5101 215.15 95.9521C215.629 96.3896 215.868 97.0938 215.868 98.0645V103H214.262V98.3652C214.262 97.7773 214.141 97.3376 213.899 97.0459C213.658 96.7497 213.284 96.6016 212.778 96.6016C212.045 96.6016 211.534 96.8271 211.247 97.2783C210.965 97.7295 210.823 98.3835 210.823 99.2402V103H209.217V95.4326H210.468L210.693 96.458H210.782C210.946 96.1937 211.149 95.9772 211.391 95.8086C211.637 95.6354 211.91 95.5055 212.211 95.4189C212.516 95.3324 212.833 95.2891 213.161 95.2891ZM217.885 102.152C217.885 101.779 217.98 101.517 218.172 101.366C218.368 101.211 218.605 101.134 218.883 101.134C219.161 101.134 219.398 101.211 219.594 101.366C219.794 101.517 219.895 101.779 219.895 102.152C219.895 102.517 219.794 102.781 219.594 102.945C219.398 103.105 219.161 103.185 218.883 103.185C218.605 103.185 218.368 103.105 218.172 102.945C217.98 102.781 217.885 102.517 217.885 102.152Z" fill="#505050"/>
</svg>
