<svg width="17" height="22" viewBox="0 0 17 22" fill="none" xmlns="http://www.w3.org/2000/svg">
<path d="M3.0835 3.5H7.25016V4.33333H3.0835V3.5Z" fill="white" stroke="white" stroke-width="0.5"/>
<path d="M3.0835 5.16663H3.91683V5.99996H3.0835V5.16663Z" fill="white" stroke="white" stroke-width="0.5"/>
<path d="M4.75024 5.16663H5.58358V5.99996H4.75024V5.16663Z" fill="white" stroke="white" stroke-width="0.5"/>
<path d="M15.1668 21H1.8335C1.50198 21 1.18403 20.8683 0.949613 20.6339C0.715192 20.3995 0.583496 20.0815 0.583496 19.75V2.25001C0.583496 1.91849 0.715192 1.60054 0.949613 1.36612C1.18403 1.1317 1.50198 1.00001 1.8335 1.00001H12.6668C12.7217 0.99969 12.776 1.0102 12.8268 1.03094C12.8776 1.05167 12.9237 1.08222 12.9627 1.12084L16.296 4.45417C16.3346 4.49311 16.3652 4.53928 16.3859 4.59005C16.4066 4.64081 16.4171 4.69517 16.4168 4.75001V19.75C16.4168 20.0815 16.2851 20.3995 16.0507 20.6339C15.8163 20.8683 15.4984 21 15.1668 21ZM1.8335 1.83334C1.72299 1.83334 1.61701 1.87724 1.53887 1.95538C1.46073 2.03352 1.41683 2.1395 1.41683 2.25001V19.75C1.41683 19.8605 1.46073 19.9665 1.53887 20.0446C1.61701 20.1228 1.72299 20.1667 1.8335 20.1667H15.1668C15.2773 20.1667 15.3833 20.1228 15.4615 20.0446C15.5396 19.9665 15.5835 19.8605 15.5835 19.75V5.33505C15.5835 5.06984 15.4781 4.81548 15.2906 4.62795L12.7889 2.12623C12.6014 1.9387 12.347 1.83334 12.0818 1.83334H1.8335Z" fill="white" stroke="white" stroke-width="0.5"/>
<path d="M14.3336 4.74996C14.3336 4.98008 14.147 5.16663 13.9169 5.16663H13.5002C13.1687 5.16663 12.8508 5.03493 12.6164 4.80051C12.3819 4.56609 12.2502 4.24815 12.2502 3.91663V1.83329C12.2502 1.60317 12.4368 1.41663 12.6669 1.41663C12.897 1.41663 13.0836 1.60317 13.0836 1.83329V3.91663C13.0836 4.02713 13.1275 4.13311 13.2056 4.21125C13.2838 4.28939 13.3897 4.33329 13.5002 4.33329H13.9169C14.147 4.33329 14.3336 4.51984 14.3336 4.74996Z" fill="white" stroke="white" stroke-width="0.5"/>
<path d="M11.8335 12.6667V10.1667H5.16683V12.6667C4.94582 12.6667 4.73385 12.5789 4.57757 12.4226C4.42129 12.2663 4.3335 12.0544 4.3335 11.8334V10.1667C4.3335 9.94569 4.42129 9.73373 4.57757 9.57745C4.73385 9.42117 4.94582 9.33337 5.16683 9.33337H11.8335C12.0545 9.33337 12.2665 9.42117 12.4228 9.57745C12.579 9.73373 12.6668 9.94569 12.6668 10.1667V11.8334C12.6668 12.0544 12.579 12.2663 12.4228 12.4226C12.2665 12.5789 12.0545 12.6667 11.8335 12.6667Z" fill="white" stroke="white" stroke-width="0.5"/>
<path d="M11.8335 15.1667H5.16683C4.94582 15.1667 4.73385 15.0789 4.57757 14.9226C4.42129 14.7664 4.3335 14.5544 4.3335 14.3334V12.6667C4.3335 12.4457 4.42129 12.2337 4.57757 12.0775C4.73385 11.9212 4.94582 11.8334 5.16683 11.8334H10.5835V12.6667H5.16683V14.3334H11.8335V11.8334C12.0545 11.8334 12.2665 11.9212 12.4228 12.0775C12.579 12.2337 12.6668 12.4457 12.6668 12.6667V14.3334C12.6668 14.5544 12.579 14.7664 12.4228 14.9226C12.2665 15.0789 12.0545 15.1667 11.8335 15.1667Z" fill="white" stroke="white" stroke-width="0.5"/>
<path d="M11.0002 8.49996H6.00024V8.08329C6.00024 7.97279 6.04414 7.8668 6.12228 7.78866C6.20042 7.71052 6.3064 7.66663 6.41691 7.66663H10.5836C10.6941 7.66663 10.8001 7.71052 10.8782 7.78866C10.9563 7.8668 11.0002 7.97279 11.0002 8.08329V8.49996Z" fill="white" stroke="white" stroke-width="0.5"/>
<path d="M8.50024 18.0833H4.75024V17.25H8.08358V16H8.91691V17.6667C8.91691 17.7772 8.87301 17.8832 8.79487 17.9613C8.71673 18.0394 8.61075 18.0833 8.50024 18.0833Z" fill="white" stroke="white" stroke-width="0.5"/>
<path d="M8.50024 17.25H12.2502V18.0833H8.50024V17.25Z" fill="white" stroke="white" stroke-width="0.5"/>
</svg>
