<svg width="19" height="19" viewBox="0 0 19 19" fill="none" xmlns="http://www.w3.org/2000/svg">
<g clip-path="url(#clip0_4557_36789)">
<path d="M16.5 3.5H2.5C2.23478 3.5 1.98043 3.60536 1.79289 3.79289C1.60536 3.98043 1.5 4.23478 1.5 4.5V14.5C1.5 14.7652 1.60536 15.0196 1.79289 15.2071C1.98043 15.3946 2.23478 15.5 2.5 15.5H16.5C16.7652 15.5 17.0196 15.3946 17.2071 15.2071C17.3946 15.0196 17.5 14.7652 17.5 14.5V4.5C17.5 4.23478 17.3946 3.98043 17.2071 3.79289C17.0196 3.60536 16.7652 3.5 16.5 3.5ZM16.5 14.5H2.5V4.5H16.5V14.5Z" fill="#25BAFF"/>
<path d="M5 7.5H14C14.1326 7.5 14.2598 7.44732 14.3536 7.35355C14.4473 7.25979 14.5 7.13261 14.5 7C14.5 6.86739 14.4473 6.74021 14.3536 6.64645C14.2598 6.55268 14.1326 6.5 14 6.5H5C4.86739 6.5 4.74021 6.55268 4.64645 6.64645C4.55268 6.74021 4.5 6.86739 4.5 7C4.5 7.13261 4.55268 7.25979 4.64645 7.35355C4.74021 7.44732 4.86739 7.5 5 7.5Z" fill="#25BAFF"/>
<path d="M5 9.5H14C14.1326 9.5 14.2598 9.44732 14.3536 9.35355C14.4473 9.25979 14.5 9.13261 14.5 9C14.5 8.86739 14.4473 8.74021 14.3536 8.64645C14.2598 8.55268 14.1326 8.5 14 8.5H5C4.86739 8.5 4.74021 8.55268 4.64645 8.64645C4.55268 8.74021 4.5 8.86739 4.5 9C4.5 9.13261 4.55268 9.25979 4.64645 9.35355C4.74021 9.44732 4.86739 9.5 5 9.5Z" fill="#25BAFF"/>
<path d="M5 11.5H10C10.1326 11.5 10.2598 11.4473 10.3536 11.3536C10.4473 11.2598 10.5 11.1326 10.5 11C10.5 10.8674 10.4473 10.7402 10.3536 10.6464C10.2598 10.5527 10.1326 10.5 10 10.5H5C4.86739 10.5 4.74021 10.5527 4.64645 10.6464C4.55268 10.7402 4.5 10.8674 4.5 11C4.5 11.1326 4.55268 11.2598 4.64645 11.3536C4.74021 11.4473 4.86739 11.5 5 11.5Z" fill="#25BAFF"/>
</g>
<defs>
<clipPath id="clip0_4557_36789">
<rect width="18" height="18" fill="white" transform="translate(0.5 0.5)"/>
</clipPath>
</defs>
</svg>
