<svg width="19" height="19" viewBox="0 0 19 19" fill="none" xmlns="http://www.w3.org/2000/svg">
<path d="M4.15623 2.375C4.04605 2.375 3.93805 2.40566 3.84431 2.46355C3.75056 2.52143 3.67477 2.60425 3.62541 2.70275L1.25041 7.45275C1.19905 7.55502 1.17834 7.66995 1.19077 7.78372C1.2032 7.89749 1.24824 8.00524 1.32048 8.094L9.03923 17.594C9.0949 17.6625 9.16514 17.7177 9.24485 17.7556C9.32455 17.7936 9.41171 17.8133 9.49998 17.8133C9.58824 17.8133 9.6754 17.7936 9.75511 17.7556C9.83481 17.7177 9.90505 17.6625 9.96073 17.594L17.6795 8.094C17.7519 8.00536 17.7972 7.89767 17.8098 7.7839C17.8224 7.67013 17.8019 7.55513 17.7507 7.45275L15.3757 2.70275C15.3263 2.60407 15.2503 2.52113 15.1563 2.46323C15.0624 2.40534 14.9541 2.37478 14.8437 2.375H4.15623ZM2.74191 7.125L4.52316 3.5625H6.95754L6.06692 7.125H2.74191ZM3.0281 8.3125H6.09541L8.01085 14.4448L3.0281 8.3125ZM7.33873 8.3125H11.6612L9.49998 15.2273L7.33873 8.3125ZM12.9057 8.3125H15.9719L10.9891 14.4448L12.9057 8.3125ZM16.258 7.125H12.933L12.0424 3.5625H14.4768L16.258 7.125ZM11.7087 7.125H7.29123L8.18185 3.5625H10.8181L11.7087 7.125Z" fill="#191A33"/>
</svg>
