<svg width="24" height="24" viewBox="0 0 24 24" fill="none" xmlns="http://www.w3.org/2000/svg">
<path d="M5.25028 3C5.11111 3.00001 4.97469 3.03873 4.85628 3.11185C4.73786 3.18496 4.64213 3.28958 4.57978 3.414L1.57978 9.414C1.5149 9.54318 1.48874 9.68836 1.50444 9.83207C1.52014 9.97577 1.57704 10.1119 1.66828 10.224L11.4183 22.224C11.4886 22.3105 11.5773 22.3803 11.678 22.4282C11.7787 22.4761 11.8888 22.501 12.0003 22.501C12.1118 22.501 12.2219 22.4761 12.3225 22.4282C12.4232 22.3803 12.512 22.3105 12.5823 22.224L22.3323 10.224C22.4238 10.112 22.4809 9.976 22.4969 9.83229C22.5129 9.68858 22.487 9.54332 22.4223 9.414L19.4223 3.414C19.3598 3.28935 19.2638 3.18458 19.1451 3.11145C19.0264 3.03832 18.8897 2.99973 18.7503 3H5.25028ZM3.46378 9L5.71378 4.5H8.78878L7.66378 9H3.46378ZM3.82528 10.5H7.69978L10.1193 18.246L3.82528 10.5ZM9.27028 10.5H14.7303L12.0003 19.2345L9.27028 10.5ZM16.3023 10.5H20.1753L13.8813 18.246L16.3023 10.5ZM20.5368 9H16.3368L15.2118 4.5H18.2868L20.5368 9ZM14.7903 9H9.21028L10.3353 4.5H13.6653L14.7903 9Z" fill="url(#paint0_linear_2532_4785)"/>
<defs>
<linearGradient id="paint0_linear_2532_4785" x1="22.5005" y1="16" x2="40.5005" y2="29" gradientUnits="userSpaceOnUse">
<stop stop-color="#08E5ED"/>
<stop offset="1" stop-color="#048287"/>
</linearGradient>
</defs>
</svg>
