<svg width="12" height="12" viewBox="0 0 12 12" fill="none" xmlns="http://www.w3.org/2000/svg">
<path d="M6 10.1162C5.26056 10.1162 4.65556 10.0219 4.185 9.83342C3.71444 9.64459 3.47917 9.40106 3.47917 9.10284C3.47917 8.96045 3.54639 8.82417 3.68083 8.694C3.81497 8.56384 3.99892 8.45323 4.23267 8.36217L4.59337 8.66834C4.46596 8.71631 4.33411 8.78002 4.19783 8.85946C4.06186 8.93891 3.97676 9.01697 3.94254 9.09367C3.9951 9.24553 4.21693 9.37753 4.60804 9.48967C4.99915 9.60181 5.46176 9.65788 5.99588 9.65788C6.52999 9.65788 6.99428 9.60181 7.38875 9.48967C7.78322 9.37753 8.00689 9.24553 8.05975 9.09367C8.03592 9.01514 7.94807 8.93616 7.79621 8.85671C7.64435 8.77727 7.50104 8.71356 7.36629 8.66559L7.72379 8.35713C7.97893 8.45002 8.17556 8.56154 8.31367 8.69171C8.45178 8.82157 8.52083 8.95724 8.52083 9.09871C8.52083 9.39816 8.28556 9.6426 7.815 9.83204C7.34444 10.0215 6.73944 10.1162 6 10.1162ZM6.01146 8.16829C6.77351 7.57552 7.34414 6.99542 7.72333 6.428C8.10253 5.86059 8.29197 5.30295 8.29167 4.75509C8.29167 3.953 8.04478 3.34739 7.551 2.93825C7.05783 2.52911 6.54236 2.32454 6.00458 2.32454C5.46681 2.32454 4.94965 2.52927 4.45312 2.93871C3.9566 3.34816 3.70833 3.95468 3.70833 4.75829C3.70833 5.28599 3.89701 5.8311 4.27437 6.39363C4.65143 6.95616 5.23046 7.54771 6.01146 8.16829ZM6 8.74121C5.07692 8.04027 4.38789 7.35934 3.93292 6.69842C3.47794 6.0375 3.25031 5.39034 3.25 4.75692C3.25 4.27842 3.33265 3.85981 3.49796 3.50109C3.66357 3.14206 3.87853 2.84124 4.14283 2.59863C4.40714 2.35602 4.70292 2.17329 5.03017 2.05046C5.35742 1.92763 5.68115 1.86621 6.00138 1.86621C6.3216 1.86621 6.64488 1.92763 6.97121 2.05046C7.29754 2.17329 7.59286 2.35602 7.85717 2.59863C8.12147 2.84124 8.33643 3.14221 8.50204 3.50154C8.66765 3.86088 8.75031 4.27888 8.75 4.75554C8.75 5.38927 8.52236 6.03659 8.06708 6.6975C7.61181 7.35842 6.92278 8.03966 6 8.74121ZM6.00458 5.43617C6.20656 5.43617 6.37965 5.36543 6.52387 5.22396C6.6681 5.08249 6.74021 4.90786 6.74021 4.70009C6.74021 4.49231 6.66779 4.31616 6.52296 4.17163C6.37812 4.0271 6.20381 3.95499 6 3.95529C5.80078 3.95529 5.62753 4.02771 5.48025 4.17254C5.33297 4.31738 5.25933 4.4917 5.25933 4.6955C5.25933 4.90634 5.33297 5.08249 5.48025 5.22396C5.62753 5.36543 5.80215 5.43617 6.00412 5.43617" fill="black"/>
</svg>
