<svg width="36" height="34" viewBox="0 0 36 34" fill="none" xmlns="http://www.w3.org/2000/svg">
<g clip-path="url(#clip0_2532_4837)">
<path d="M1.60094 29.75H20.6471C21.5227 29.75 22.2353 29.0349 22.2353 28.1562V7.96875C22.2353 7.94431 22.2247 7.92306 22.2215 7.89969C22.2187 7.8774 22.2141 7.85537 22.2078 7.83381C22.1864 7.74347 22.1419 7.66031 22.0786 7.59262L14.6679 0.156188C14.5842 0.0761331 14.4768 0.025756 14.3619 0.01275C14.3396 0.010625 14.3185 0 14.2941 0H1.59459C0.715765 0 0 0.715062 0 1.59375V28.1562C0 29.0349 0.717882 29.75 1.60094 29.75ZM14.8235 1.81369L20.4279 7.4375H15.3529C15.2125 7.4375 15.0779 7.38153 14.9786 7.2819C14.8793 7.18227 14.8235 7.04715 14.8235 6.90625V1.81369ZM1.05882 1.59375C1.05882 1.3005 1.29918 1.0625 1.59459 1.0625H13.7647V6.90625C13.7647 7.78494 14.4773 8.5 15.3529 8.5H21.1765V28.1562C21.1765 28.2971 21.1207 28.4323 21.0214 28.5319C20.9221 28.6315 20.7875 28.6875 20.6471 28.6875H1.60094C1.53058 28.6883 1.46075 28.6753 1.39542 28.649C1.3301 28.6228 1.27057 28.5839 1.22023 28.5346C1.16989 28.4852 1.12972 28.4264 1.10203 28.3615C1.07433 28.2966 1.05965 28.2269 1.05882 28.1562V1.59375Z" fill="white" stroke="white" stroke-width="0.58"/>
<path d="M4.76476 12.75H17.4706C17.6111 12.75 17.7457 12.694 17.845 12.5944C17.9443 12.4948 18.0001 12.3596 18.0001 12.2188C18.0001 12.0779 17.9443 11.9427 17.845 11.8431C17.7457 11.7435 17.6111 11.6875 17.4706 11.6875H4.76476C4.62435 11.6875 4.4897 11.7435 4.39041 11.8431C4.29113 11.9427 4.23535 12.0779 4.23535 12.2188C4.23535 12.3596 4.29113 12.4948 4.39041 12.5944C4.4897 12.694 4.62435 12.75 4.76476 12.75ZM4.76476 17H17.4706C17.6111 17 17.7457 16.944 17.845 16.8444C17.9443 16.7448 18.0001 16.6096 18.0001 16.4688C18.0001 16.3279 17.9443 16.1927 17.845 16.0931C17.7457 15.9935 17.6111 15.9375 17.4706 15.9375H4.76476C4.62435 15.9375 4.4897 15.9935 4.39041 16.0931C4.29113 16.1927 4.23535 16.3279 4.23535 16.4688C4.23535 16.6096 4.29113 16.7448 4.39041 16.8444C4.4897 16.944 4.62435 17 4.76476 17ZM4.76476 8.5H10.0589C10.1993 8.5 10.3339 8.44403 10.4332 8.3444C10.5325 8.24477 10.5883 8.10965 10.5883 7.96875C10.5883 7.82785 10.5325 7.69273 10.4332 7.5931C10.3339 7.49347 10.1993 7.4375 10.0589 7.4375H4.76476C4.62435 7.4375 4.4897 7.49347 4.39041 7.5931C4.29113 7.69273 4.23535 7.82785 4.23535 7.96875C4.23535 8.10965 4.29113 8.24477 4.39041 8.3444C4.4897 8.44403 4.62435 8.5 4.76476 8.5ZM4.76476 21.25H17.4706C17.6111 21.25 17.7457 21.194 17.845 21.0944C17.9443 20.9948 18.0001 20.8596 18.0001 20.7188C18.0001 20.5779 17.9443 20.4427 17.845 20.3431C17.7457 20.2435 17.6111 20.1875 17.4706 20.1875H4.76476C4.62435 20.1875 4.4897 20.2435 4.39041 20.3431C4.29113 20.4427 4.23535 20.5779 4.23535 20.7188C4.23535 20.8596 4.29113 20.9948 4.39041 21.0944C4.4897 21.194 4.62435 21.25 4.76476 21.25ZM4.76476 25.5H17.4706C17.6111 25.5 17.7457 25.444 17.845 25.3444C17.9443 25.2448 18.0001 25.1096 18.0001 24.9688C18.0001 24.8279 17.9443 24.6927 17.845 24.5931C17.7457 24.4935 17.6111 24.4375 17.4706 24.4375H4.76476C4.62435 24.4375 4.4897 24.4935 4.39041 24.5931C4.29113 24.6927 4.23535 24.8279 4.23535 24.9688C4.23535 25.1096 4.29113 25.2448 4.39041 25.3444C4.4897 25.444 4.62435 25.5 4.76476 25.5Z" fill="white" stroke="white" stroke-width="0.58"/>
<path d="M22.7646 5.3125H27.5294V11.1562C27.5294 12.0349 28.2419 12.75 29.1176 12.75H34.9411V32.4062C34.9411 32.5471 34.8853 32.6823 34.7861 32.7819C34.6868 32.8815 34.5521 32.9375 34.4117 32.9375H15.3656C15.2952 32.9383 15.2254 32.9253 15.1601 32.899C15.0947 32.8728 15.0352 32.8339 14.9849 32.7846C14.9345 32.7352 14.8944 32.6764 14.8667 32.6115C14.839 32.5466 14.8243 32.4769 14.8235 32.4062V31.3438C14.8235 31.2029 14.7677 31.0677 14.6684 30.9681C14.5691 30.8685 14.4345 30.8125 14.2941 30.8125C14.1537 30.8125 14.019 30.8685 13.9197 30.9681C13.8204 31.0677 13.7646 31.2029 13.7646 31.3438V32.4062C13.7646 33.2849 14.4825 34 15.3656 34H34.4117C35.2874 34 35.9999 33.2849 35.9999 32.4062V12.2188C35.9999 12.1943 35.9894 12.1731 35.9862 12.1497C35.9833 12.1274 35.9787 12.1054 35.9724 12.0838C35.9511 11.9935 35.9066 11.9103 35.8432 11.8426L28.4325 4.40619C28.3487 4.32652 28.2413 4.27652 28.1265 4.26381C28.1043 4.26063 28.0831 4.25 28.0588 4.25H22.7646C22.6242 4.25 22.4896 4.30597 22.3903 4.4056C22.291 4.50523 22.2352 4.64035 22.2352 4.78125C22.2352 4.92215 22.291 5.05727 22.3903 5.1569C22.4896 5.25653 22.6242 5.3125 22.7646 5.3125ZM29.1176 11.6875C28.9772 11.6875 28.8425 11.6315 28.7432 11.5319C28.644 11.4323 28.5882 11.2971 28.5882 11.1562V6.06369L34.1925 11.6875H29.1176Z" fill="white" stroke="white" stroke-width="0.58"/>
<path d="M24.882 17H31.2349C31.3753 17 31.51 16.944 31.6092 16.8444C31.7085 16.7448 31.7643 16.6096 31.7643 16.4688C31.7643 16.3279 31.7085 16.1927 31.6092 16.0931C31.51 15.9935 31.3753 15.9375 31.2349 15.9375H24.882C24.7415 15.9375 24.6069 15.9935 24.5076 16.0931C24.4083 16.1927 24.3525 16.3279 24.3525 16.4688C24.3525 16.6096 24.4083 16.7448 24.5076 16.8444C24.6069 16.944 24.7415 17 24.882 17ZM24.882 21.25H31.2349C31.3753 21.25 31.51 21.194 31.6092 21.0944C31.7085 20.9948 31.7643 20.8596 31.7643 20.7188C31.7643 20.5779 31.7085 20.4427 31.6092 20.3431C31.51 20.2435 31.3753 20.1875 31.2349 20.1875H24.882C24.7415 20.1875 24.6069 20.2435 24.5076 20.3431C24.4083 20.4427 24.3525 20.5779 24.3525 20.7188C24.3525 20.8596 24.4083 20.9948 24.5076 21.0944C24.6069 21.194 24.7415 21.25 24.882 21.25ZM24.882 25.5H31.2349C31.3753 25.5 31.51 25.444 31.6092 25.3444C31.7085 25.2448 31.7643 25.1096 31.7643 24.9688C31.7643 24.8279 31.7085 24.6927 31.6092 24.5931C31.51 24.4935 31.3753 24.4375 31.2349 24.4375H24.882C24.7415 24.4375 24.6069 24.4935 24.5076 24.5931C24.4083 24.6927 24.3525 24.8279 24.3525 24.9688C24.3525 25.1096 24.4083 25.2448 24.5076 25.3444C24.6069 25.444 24.7415 25.5 24.882 25.5ZM24.882 29.75H31.2349C31.3753 29.75 31.51 29.694 31.6092 29.5944C31.7085 29.4948 31.7643 29.3596 31.7643 29.2188C31.7643 29.0779 31.7085 28.9427 31.6092 28.8431C31.51 28.7435 31.3753 28.6875 31.2349 28.6875H24.882C24.7415 28.6875 24.6069 28.7435 24.5076 28.8431C24.4083 28.9427 24.3525 29.0779 24.3525 29.2188C24.3525 29.3596 24.4083 29.4948 24.5076 29.5944C24.6069 29.694 24.7415 29.75 24.882 29.75Z" fill="white" stroke="white" stroke-width="0.58"/>
</g>
<defs>
<clipPath id="clip0_2532_4837">
<rect width="36" height="34" fill="white"/>
</clipPath>
</defs>
</svg>
