<svg width="20" height="20" viewBox="0 0 20 20" fill="none" xmlns="http://www.w3.org/2000/svg">
<path d="M12.8 2H5.6C5.17565 2 4.76869 2.16857 4.46863 2.46863C4.16857 2.76869 4 3.17565 4 3.6V16.4C4 16.8243 4.16857 17.2313 4.46863 17.5314C4.76869 17.8314 5.17565 18 5.6 18H15.2C15.6243 18 16.0313 17.8314 16.3314 17.5314C16.6314 17.2313 16.8 16.8243 16.8 16.4V6L12.8 2Z" stroke="#505050" stroke-width="1.5" stroke-linecap="round" stroke-linejoin="round"/>
<path d="M12 2V5.2C12 5.62435 12.1686 6.03131 12.4686 6.33137C12.7687 6.63143 13.1757 6.8 13.6 6.8H16.8" stroke="#505050" stroke-width="1.5" stroke-linecap="round" stroke-linejoin="round"/>
<path d="M10.4004 10V14.8" stroke="#505050" stroke-width="1.5" stroke-linecap="round" stroke-linejoin="round"/>
<path d="M12.8 12.4L10.4 10L8 12.4" stroke="#505050" stroke-width="1.5" stroke-linecap="round" stroke-linejoin="round"/>
</svg>
