<svg width="20" height="20" viewBox="0 0 20 20" fill="none" xmlns="http://www.w3.org/2000/svg">
<path d="M14.1667 7.50391C15.9792 7.51391 16.9609 7.59474 17.6009 8.23474C18.3334 8.96724 18.3334 10.1456 18.3334 12.5022V13.3356C18.3334 15.6931 18.3334 16.8714 17.6009 17.6039C16.8692 18.3356 15.6901 18.3356 13.3334 18.3356H6.66675C4.31008 18.3356 3.13091 18.3356 2.39925 17.6039C1.66675 16.8706 1.66675 15.6931 1.66675 13.3356V12.5022C1.66675 10.1456 1.66675 8.96724 2.39925 8.23474C3.03925 7.59474 4.02091 7.51391 5.83341 7.50391" stroke="#303030" stroke-width="1.25" stroke-linecap="round"/>
<path d="M10 1.66797V12.5013M10 12.5013L7.5 9.58464M10 12.5013L12.5 9.58464" stroke="#303030" stroke-width="1.25" stroke-linecap="round" stroke-linejoin="round"/>
</svg>
