<svg width="50" height="50" viewBox="0 0 50 50" fill="none" xmlns="http://www.w3.org/2000/svg">
<path fill-rule="evenodd" clip-rule="evenodd" d="M13.105 27.1063L13.3044 24.2616C13.4769 21.7948 16.4987 19.9417 20.0835 19.9417C20.4661 19.9417 20.7774 19.6619 20.7774 19.3173C20.7774 18.9726 20.4661 18.6929 20.0835 18.6929C15.685 18.6929 12.1312 21.1567 11.9188 24.1829L11.7199 27.0276C11.6958 27.3715 11.9864 27.6683 12.3689 27.6899C12.7511 27.7116 13.0809 27.4501 13.105 27.1063ZM29.816 19.9417C33.4008 19.9417 36.4226 21.7948 36.5952 24.2616L36.7946 27.1063C36.8186 27.4501 37.1485 27.7116 37.5306 27.6899C37.9132 27.6683 38.2037 27.3715 38.1797 27.0276L37.9807 24.1829C37.7684 21.1567 34.2146 18.6929 29.816 18.6929C29.4334 18.6929 29.1221 18.9726 29.1221 19.3173C29.1221 19.6619 29.4334 19.9417 29.816 19.9417Z" fill="#0C9F4C"/>
<path fill-rule="evenodd" clip-rule="evenodd" d="M38.4404 42.792H11.4616C11.0785 42.792 10.7676 43.0718 10.7676 43.4164C10.7676 43.7611 11.0785 44.0408 11.4616 44.0408H38.4404C38.8234 44.0408 39.1343 43.7611 39.1343 43.4164C39.1343 43.0718 38.8234 42.792 38.4404 42.792ZM9.53476 36.919V33.1098C9.53476 28.65 13.6007 26.2145 18.5567 26.2145C19.6522 26.2145 20.7948 25.8873 21.9564 25.5585C23.9526 26.7648 25.9493 26.7648 27.9455 25.5585C29.1076 25.8873 30.2498 26.2145 31.3452 26.2145C36.3012 26.2145 40.3672 28.65 40.3672 33.1098V36.919C40.3672 37.2637 40.678 37.5434 41.0611 37.5434C41.4441 37.5434 41.755 37.2637 41.755 36.919V33.1098C41.755 27.9128 37.121 24.9657 31.3452 24.9657C30.278 24.9657 29.1672 24.5919 28.032 24.2743C27.821 24.2152 27.592 24.2502 27.4144 24.368C25.7721 25.4573 24.1298 25.4573 22.4875 24.368C22.3099 24.2502 22.0809 24.2152 21.8699 24.2743C20.7347 24.5919 19.6239 24.9657 18.5567 24.9657C12.7809 24.9657 8.14691 27.9128 8.14691 33.1098V36.919C8.14691 37.2637 8.45779 37.5434 8.84083 37.5434C9.22388 37.5434 9.53476 37.2637 9.53476 36.919Z" fill="#0C9F4C"/>
<path fill-rule="evenodd" clip-rule="evenodd" d="M20.1106 41.279L18.6399 39.9557C18.3688 39.7122 17.9294 39.7122 17.6583 39.9557C17.3876 40.1992 17.3876 40.5951 17.6583 40.8386L19.1289 42.1623C19.4 42.4058 19.8395 42.4058 20.1106 42.1623C20.3812 41.9184 20.3812 41.523 20.1106 41.279ZM32.8737 38.5047L29.7904 41.279C29.5197 41.523 29.5197 41.9184 29.7904 42.1623C30.0614 42.4058 30.5009 42.4058 30.772 42.1623L33.8554 39.388C34.126 39.144 34.126 38.7486 33.8554 38.5047C33.5843 38.2611 33.1448 38.2611 32.8737 38.5047ZM28.4488 40.8028L31.9008 37.6967C32.1714 37.4532 32.1714 37.0573 31.9008 36.8138C31.6297 36.5699 31.1902 36.5699 30.9191 36.8138L27.4671 39.9195C27.1965 40.1635 27.1965 40.5589 27.4671 40.8028C27.7382 41.0463 28.1777 41.0463 28.4488 40.8028ZM18.0001 37.6967L21.4522 40.8028C21.7233 41.0463 22.1628 41.0463 22.4338 40.8028C22.7045 40.5589 22.7045 40.1635 22.4338 39.9195L18.9818 36.8138C18.7107 36.5699 18.2712 36.5699 18.0001 36.8138C17.7295 37.0573 17.7295 37.4532 18.0001 37.6967Z" fill="#0C9F4C"/>
<path fill-rule="evenodd" clip-rule="evenodd" d="M26.8841 21.0989C26.8929 22.4088 26.9808 23.7225 27.1358 24.9413C27.1798 25.2839 27.5239 25.5299 27.9042 25.4908C28.2849 25.4513 28.5583 25.1416 28.5149 24.7994C28.365 23.6235 28.2803 22.3551 28.272 21.0914C28.2697 20.7467 27.9569 20.4686 27.5739 20.4707C27.1909 20.4728 26.8818 20.7542 26.8841 21.0989ZM22.765 24.9413C22.8196 24.5097 22.8663 24.0664 22.9038 23.6151C22.9325 23.2713 22.6457 22.9716 22.2635 22.9458C21.8819 22.92 21.5483 23.1781 21.5197 23.5219C21.4836 23.9565 21.4387 24.3836 21.386 24.7994C21.3425 25.1416 21.6159 25.4513 21.9966 25.4908C22.3769 25.5299 22.7211 25.2839 22.765 24.9413Z" fill="#0C9F4C"/>
<path fill-rule="evenodd" clip-rule="evenodd" d="M31.0858 25.1072C31.0858 25.1072 29.1387 26.5408 27.7906 27.5332C27.6333 27.6489 27.4279 27.6968 27.2281 27.6643C27.0282 27.6318 26.8538 27.5224 26.7516 27.3642C26.1918 26.4996 25.5502 25.5093 25.5502 25.5093C25.3572 25.2113 24.9321 25.1106 24.6013 25.2841C24.2701 25.4577 24.1581 25.8403 24.3511 26.1379C24.3511 26.1379 24.9927 27.1286 25.5525 27.9932C25.8596 28.4669 26.3815 28.7957 26.9815 28.8931C27.581 28.9905 28.1977 28.8469 28.6696 28.4997C30.0172 27.5074 31.9643 26.0738 31.9643 26.0738C32.2609 25.8557 32.3048 25.4619 32.0619 25.1951C31.8195 24.9286 31.3819 24.8891 31.0858 25.1072Z" fill="#0C9F4C"/>
<path fill-rule="evenodd" clip-rule="evenodd" d="M24.351 25.5093C24.351 25.5093 23.7094 26.4996 23.1496 27.3642C23.0474 27.5224 22.873 27.6318 22.6731 27.6643C22.4733 27.6968 22.2679 27.6489 22.1106 27.5332L18.8154 25.1072C18.5193 24.8891 18.0817 24.9286 17.8393 25.1951C17.5964 25.4619 17.6403 25.8557 17.9369 26.0738C17.9369 26.0738 19.884 27.5074 21.2316 28.4997C21.7035 28.8469 22.3202 28.9905 22.9197 28.8931C23.5197 28.7957 24.0415 28.4669 24.3487 27.9932C24.9085 27.1286 25.5501 26.1379 25.5501 26.1379C25.743 25.8403 25.6311 25.4577 25.2999 25.2841C24.9691 25.1106 24.5439 25.2113 24.351 25.5093Z" fill="#0C9F4C"/>
<path fill-rule="evenodd" clip-rule="evenodd" d="M30.0192 12.1844V16.4586C30.0192 17.6678 29.4853 18.828 28.5346 19.6834C28.0165 20.1496 26.9765 20.714 26.1124 21.1519C26.1045 21.1557 26.0966 21.1598 26.0892 21.164C25.3861 21.5532 24.4988 21.5524 23.7965 21.1615C23.7891 21.1573 23.7813 21.1532 23.7734 21.149C22.9148 20.7119 21.8831 20.1487 21.3659 19.6834C20.4153 18.828 19.8814 17.6678 19.8814 16.4586V14.4943C19.8814 14.1496 19.5705 13.8699 19.1875 13.8699C18.8044 13.8699 18.4936 14.1496 18.4936 14.4943V16.4586C18.4936 17.9992 19.1736 19.4769 20.3843 20.5663C20.9658 21.0895 22.1121 21.7376 23.0785 22.23C24.2226 22.8615 25.6636 22.8619 26.8086 22.2317C27.7769 21.7409 28.9329 21.0907 29.5163 20.5663C30.727 19.4769 31.407 17.9992 31.407 16.4586V12.1844C31.407 11.8398 31.0961 11.5601 30.7131 11.5601C30.33 11.5601 30.0192 11.8398 30.0192 12.1844Z" fill="#0C9F4C"/>
<path fill-rule="evenodd" clip-rule="evenodd" d="M18.5029 10.0007L16.9707 11.6603C16.7181 11.9334 16.6867 12.3205 16.8916 12.6244C17.0965 12.9278 17.4935 13.081 17.8793 13.0052C22.6003 12.1049 27.325 12.2193 32.0501 13.0252C32.4336 13.0918 32.8236 12.9324 33.0216 12.6273C33.2196 12.3226 33.1826 11.9384 32.9286 11.669L31.3909 10.0465L31.3807 9.94572C31.3062 8.15871 30.0572 6.57485 28.1993 5.91924C25.7757 5.00555 24.1311 4.99014 21.6977 5.89135C19.8301 6.54945 18.5751 8.14331 18.5047 9.94738L18.5029 10.0007ZM31.0375 11.5983C26.9799 11.0113 22.9218 10.9389 18.8633 11.5646L19.6909 10.6679L19.6881 10.6704C19.7927 10.5805 19.8741 10.4486 19.8815 10.2546L19.8917 9.99109C19.943 8.6832 20.8534 7.52808 22.2084 7.05271C22.2121 7.05146 22.2163 7.0498 22.2205 7.04813C24.2611 6.29137 25.6383 6.30677 27.6738 7.07519C27.6793 7.07727 27.6844 7.07935 27.69 7.08102C29.039 7.55555 29.9452 8.70693 29.9947 10.0098L30.0179 10.2721C30.0271 10.4136 30.0909 10.5997 30.2538 10.7716L31.0375 11.5983Z" fill="#0C9F4C"/>
<path fill-rule="evenodd" clip-rule="evenodd" d="M30.8982 9.57766C27.8435 8.81465 24.7884 8.62983 21.7333 9.04318C21.3549 9.09438 21.0935 9.4124 21.1504 9.75332C21.2073 10.0938 21.5608 10.329 21.9396 10.2778C24.8023 9.8911 27.6645 10.0659 30.5272 10.7811C30.8963 10.8731 31.2789 10.6782 31.3816 10.3461C31.4839 10.0143 31.2674 9.66965 30.8982 9.57766Z" fill="#0C9F4C"/>
<path fill-rule="evenodd" clip-rule="evenodd" d="M23.1458 19.4151C24.3454 19.9754 25.5454 19.9592 26.745 19.4193C27.0878 19.2649 27.2266 18.8898 27.0554 18.5814C26.8838 18.2733 26.4665 18.148 26.1242 18.3025C25.3446 18.6534 24.5647 18.6709 23.7852 18.3066C23.4451 18.148 23.026 18.2671 22.8498 18.573C22.673 18.879 22.8058 19.2561 23.1458 19.4151Z" fill="#0C9F4C"/>
<path fill-rule="evenodd" clip-rule="evenodd" d="M36.2988 43.3111C35.3726 38.4267 30.6414 34.7037 24.9508 34.7037C19.2602 34.7037 14.529 38.4267 13.6028 43.3111C13.5385 43.6508 13.793 43.9738 14.1705 44.0317C14.548 44.0895 14.9065 43.861 14.9713 43.5213C15.7855 39.226 19.9467 35.9525 24.9508 35.9525C29.9549 35.9525 34.1161 39.226 34.9303 43.5213C34.9951 43.861 35.3536 44.0895 35.7311 44.0317C36.1086 43.9738 36.3631 43.6508 36.2988 43.3111ZM19.7889 34.5255C21.3683 33.8974 23.1147 33.5486 24.9508 33.5486C29.341 33.5486 33.2173 35.5425 35.5225 38.5774C35.7385 38.8621 36.1711 38.9354 36.487 38.741C36.8035 38.5462 36.8844 38.1574 36.6684 37.8731C34.1134 34.5093 29.8166 32.2998 24.9508 32.2998C22.9148 32.2998 20.9788 32.6869 19.2278 33.3833C18.8776 33.5224 18.7189 33.8916 18.8739 34.2067C19.0289 34.5218 19.4387 34.6646 19.7889 34.5255ZM14.3791 38.5774C15.2345 37.4514 16.3059 36.4686 17.5402 35.6778C17.852 35.4779 17.9251 35.0875 17.703 34.8069C17.4805 34.5264 17.047 34.4606 16.7352 34.6604C15.3682 35.5366 14.1807 36.6256 13.2332 37.8731C13.0172 38.1574 13.0981 38.5462 13.4146 38.741C13.7305 38.9354 14.1631 38.8621 14.3791 38.5774Z" fill="#0C9F4C"/>
<path fill-rule="evenodd" clip-rule="evenodd" d="M37.4956 35.0106C36.7411 35.2753 36.1142 35.6645 35.7367 36.2964C35.233 37.1393 35.164 38.5134 36.1859 40.8694C36.7688 42.2131 37.2939 43.0977 37.7755 43.6675C38.3741 44.3756 38.951 44.6591 39.496 44.7469C40.1686 44.8555 40.8366 44.6349 41.5606 44.3806C42.3383 44.1075 42.9175 43.491 43.2182 42.636C43.6017 41.5442 43.5258 40.0323 42.8703 38.5217C42.2152 37.0107 41.1327 35.8527 40.0284 35.2832C39.1633 34.8378 38.2733 34.7375 37.4956 35.0106ZM38.0003 36.1736C38.4134 36.0287 38.8788 36.1303 39.3387 36.3672C40.2209 36.8217 41.0541 37.7687 41.5777 38.9754C42.1014 40.1826 42.2013 41.3872 41.8946 42.2593C41.735 42.7139 41.469 43.0719 41.0559 43.2171C40.5891 43.3811 40.1751 43.588 39.7416 43.5181C39.4571 43.4719 39.192 43.2804 38.8798 42.9112C38.4514 42.4042 37.9975 41.6112 37.479 40.4153C36.6865 38.5891 36.5685 37.541 36.959 36.8879C37.1769 36.5224 37.5645 36.3268 38.0003 36.1736Z" fill="#0C9F4C"/>
<path fill-rule="evenodd" clip-rule="evenodd" d="M12.4048 35.0106C11.6271 34.7375 10.737 34.8378 9.87196 35.2832C8.76769 35.8527 7.68517 37.0107 7.03011 38.5217C6.37458 40.0323 6.29871 41.5442 6.68222 42.636C6.98292 43.491 7.56212 44.1075 8.33977 44.3806C9.06377 44.6349 9.73178 44.8555 10.4044 44.7469C10.9494 44.6591 11.5263 44.3756 12.1249 43.6675C12.6065 43.0977 13.1315 42.2131 13.7144 40.8694C14.7364 38.5134 14.6674 37.1393 14.1636 36.2964C13.7861 35.6645 13.1593 35.2753 12.4048 35.0106ZM11.9001 36.1736C12.3358 36.3268 12.7235 36.5224 12.9414 36.8879C13.3319 37.541 13.2139 38.5891 12.4214 40.4153C11.9028 41.6112 11.449 42.4042 11.0206 42.9112C10.7084 43.2804 10.4433 43.4719 10.1588 43.5181C9.72531 43.588 9.31127 43.3811 8.84449 43.2171C8.43137 43.0719 8.16537 42.7139 8.00576 42.2593C7.69905 41.3872 7.79898 40.1826 8.32266 38.9754C8.84634 37.7687 9.67951 36.8217 10.5617 36.3672C11.0216 36.1303 11.4869 36.0287 11.9001 36.1736Z" fill="#0C9F4C"/>
<path fill-rule="evenodd" clip-rule="evenodd" d="M18.7552 43.7203C19.9673 41.7659 22.2882 40.4426 24.9506 40.4426C27.6129 40.4426 29.9339 41.7659 31.1459 43.7203C31.3328 44.0212 31.7557 44.1294 32.0901 43.9613C32.4246 43.7935 32.5444 43.4126 32.358 43.1117C30.9091 40.7752 28.1334 39.1938 24.9506 39.1938C21.7678 39.1938 18.9921 40.7752 17.5432 43.1117C17.3568 43.4126 17.4766 43.7935 17.811 43.9613C18.1455 44.1294 18.5683 44.0212 18.7552 43.7203Z" fill="#0C9F4C"/>
</svg>
