<svg width="46" height="46" viewBox="0 0 46 46" fill="none" xmlns="http://www.w3.org/2000/svg">
<path d="M7.88488 38.6452C8.57637 38.6452 9.13694 38.263 9.13694 37.7914C9.13694 37.3198 8.57637 36.9375 7.88488 36.9375C7.19338 36.9375 6.63281 37.3198 6.63281 37.7914C6.63281 38.263 7.19338 38.6452 7.88488 38.6452Z" fill="white"/>
<path d="M44.5625 33.5433L44.0924 33.2673C44.0565 33.2465 40.4649 31.1154 39.5722 28.5293L39.3731 27.9565L39.0051 28.4373C38.9936 28.4524 38.4833 29.0835 37.0552 29.8238C35.9979 23.8057 32.4013 16.6211 27.6748 13.5578C29.026 13.667 30.3816 13.5549 31.6897 13.0791C32.4774 12.793 32.1375 11.5093 31.3425 11.7997C30.2702 12.19 29.1956 12.2964 28.1232 12.2417C30.756 9.82891 32.8232 6.13094 32.8232 3.427C32.8232 2.77725 32.8232 1.56759 31.86 1.56759C31.4733 1.56759 31.1607 1.80909 30.7287 2.14259C30.066 2.65363 29.0655 3.427 27.5957 3.427C27.0358 3.427 26.0108 2.83619 25.1872 2.36181C24.1917 1.78897 23.5556 1.4375 23.0208 1.4375C22.1353 1.4375 20.8337 2.15337 19.6851 2.78516C19.2179 3.04175 18.579 3.39394 18.4467 3.42772C16.7821 3.42772 15.8154 2.66009 15.1742 2.15194C14.8005 1.85437 14.5295 1.63875 14.168 1.63875C13.2207 1.63875 13.2207 2.77509 13.2207 4.09113C13.2207 6.63119 15.1556 9.98416 17.6892 12.2374C16.0928 12.3517 14.5187 12.834 13.4126 13.9057C12.8017 14.4965 13.7274 15.4337 14.3362 14.8443C15.2555 13.9531 16.4608 13.5714 17.7502 13.4974C17.7867 13.6287 17.8319 13.7581 17.8861 13.8855C12.484 17.7675 8.64656 26.9855 8.64656 33.2084C8.64656 33.8222 8.694 34.3778 8.76731 34.9011C7.37437 34.2822 6.86622 33.7396 6.85616 33.7273L6.48528 33.2997L6.30272 33.8388C5.49556 36.2135 1.98662 38.2734 1.95141 38.2943L1.4375 38.5926L1.96003 38.875C2.14331 38.9742 2.32516 39.0612 2.50844 39.1553L2.17781 39.3846L2.35247 41.5696L16.0468 44.5625L21.2391 41.2412C21.7628 41.244 22.2942 41.2455 22.8333 41.2455L28.9024 44.5625L42.6226 40.25V37.9435L42.2596 37.7257C42.4408 37.6107 42.6216 37.4931 42.8023 37.3728L43.2831 37.0516L43.1775 36.9998L43.7891 36.8323L43.8926 34.4346L43.539 34.1838C43.7273 34.0711 43.9154 33.9554 44.1032 33.8366L44.5625 33.5433ZM14.5281 4.09113C14.5281 3.772 14.5324 3.52331 14.5389 3.32997C14.6488 3.41622 14.7768 3.51038 14.9133 3.60741C15.3324 4.61078 16.1252 6.05547 17.4692 6.96541C19.1022 8.07228 18.8852 6.80009 19.7563 5.63859C20.6274 4.47781 21.2168 3.86975 22.6758 6.85544C23.3119 8.15709 24.3721 4.5195 25.3798 3.98834C25.6464 4.13353 25.9124 4.26866 26.1733 4.38366C27.9802 7.32191 28.8176 6.4055 30.4225 3.96319C30.8638 3.70444 31.2261 3.427 31.5143 3.20491C31.5158 3.27151 31.5167 3.34602 31.5172 3.42844C31.5172 5.73562 29.6319 9.04475 27.3233 11.2032C27.2141 10.9262 27.058 10.6702 26.8618 10.4463C25.9296 9.39047 24.4727 10.5613 23.782 11.3297C22.5565 10.9358 20.5598 9.85119 19.2589 10.4722C18.9348 10.6224 18.6373 10.8241 18.3777 11.0695C16.2502 9.13028 14.5281 6.33075 14.5281 4.09113ZM26.1747 11.9787C25.8525 11.9102 25.5321 11.8335 25.2138 11.7487C25.6148 11.403 25.9828 11.2822 26.1373 11.7961C26.1539 11.8522 26.1639 11.9162 26.1747 11.9787ZM20.7122 12.425C20.4746 12.379 20.2299 12.3395 19.9784 12.3064C19.7876 12.187 19.6008 12.0611 19.4185 11.9291C20.0754 11.4885 21.2082 11.7228 22.2906 12.0901C21.7566 12.144 21.2297 12.2604 20.7122 12.425ZM21.0385 14.3225C20.636 14.4232 20.1976 14.3829 19.8188 14.232C19.9726 14.1508 20.1279 14.0803 20.2831 14.0092C20.5347 14.1306 20.7862 14.232 21.0385 14.3225ZM7.74381 40.5224C6.02947 40.026 4.36604 39.3683 2.77581 38.5581C3.75116 37.9169 5.87578 36.3666 6.73972 34.5036C7.33197 34.9686 8.69903 35.8167 11.3613 36.4679C11.316 36.5412 11.2607 36.6196 11.2075 36.6965C8.93478 36.1014 7.64247 35.3488 7.62162 35.3359L7.30825 35.149L7.15803 35.4847C6.96037 35.9246 6.49678 35.9907 6.23875 35.9907C6.16688 35.9907 6.11872 35.9857 6.11225 35.9849L5.85566 35.9476L5.76222 36.1934C5.57103 36.6951 4.78616 37.3506 4.49866 37.5612L4.01853 37.9133L4.56766 38.1383C4.77178 38.2217 4.82712 38.2986 4.83 38.3187C4.83719 38.3683 4.75022 38.4991 4.6575 38.5746L4.23919 38.9117L4.72578 39.1367C5.72269 39.5967 6.85184 39.9776 7.981 40.2917C7.89188 40.3794 7.81281 40.4563 7.74381 40.5224ZM13.5398 37.8443C14.5446 37.9852 15.658 38.0743 16.8741 38.0743H16.8748C17.1273 38.0743 17.3844 38.0703 17.646 38.0621C17.6646 38.1159 17.6894 38.1673 17.7201 38.2152C17.7838 38.3125 17.8703 38.3925 17.9795 38.4553L16.1453 40.0229L16.0403 40.0207C15.2231 40.0207 14.6136 40.3212 14.3211 40.8559C13.2128 40.7142 12.1096 40.5352 11.0134 40.319C11.8949 39.5352 12.738 38.7094 13.5398 37.8443ZM5.38272 38.7047C5.45459 38.5688 5.50131 38.4043 5.47616 38.2246C5.45314 38.0622 5.37528 37.9125 5.2555 37.8005C5.57822 37.5238 6.02313 37.0968 6.2675 36.6548C6.82309 36.6469 7.28166 36.4363 7.57059 36.064C8.05719 36.3184 9.15328 36.8323 10.7726 37.278C10.1107 38.1081 9.21869 39.0497 8.52509 39.7498C7.44409 39.4637 6.35519 39.1187 5.38272 38.7047ZM15.6256 41.7299L15.4783 41.7306C14.8594 41.7306 12.8088 41.6803 10.0999 41.1161C10.1947 41.0356 10.2932 40.9529 10.3845 40.8739C12.5824 41.3332 14.3549 41.5301 14.4878 41.5452L14.7509 41.5732L14.8321 41.3181C15.0097 40.7675 15.6644 40.6863 16.0396 40.6863C16.1424 40.6863 16.2107 40.6927 16.2186 40.6935L16.358 40.7086L19.5443 37.9859L18.6925 37.9579C18.4079 37.9478 18.2879 37.8839 18.2584 37.84L18.4388 37.3678L17.94 37.3887C17.5763 37.4045 17.221 37.4124 16.8741 37.4124C15.8707 37.4124 14.9392 37.3462 14.0789 37.242L14.2787 37.0063C16.0152 37.2384 18.0945 37.3815 20.6051 37.3635C20.0057 38.2044 18.5107 39.992 15.6256 41.7299ZM22.8304 38.6069V39.9187C22.4216 39.9187 22.0227 39.9172 21.6337 39.9143L21.5165 38.438L20.5433 38.5171C21.1988 37.7423 21.4784 37.2255 21.5036 37.1788L21.7673 36.68L21.2103 36.69C15.8786 36.7878 12.4013 36.1524 10.2063 35.4466C10.046 34.7983 9.95325 34.0652 9.95325 33.2091C9.95325 27.3707 13.6843 18.5459 18.6379 14.9694C19.5155 15.8182 20.8466 16.1898 22.1116 15.364C22.3891 15.1829 22.6306 14.9457 22.857 14.6934C22.9109 14.6948 22.9662 14.7071 23.0208 14.7071C23.202 14.7071 23.386 14.692 23.5693 14.669C23.8014 14.7617 24.0285 14.8551 24.2391 14.9478C25.2475 15.392 26.1086 15.116 26.6965 14.5037C31.234 17.2493 34.8694 24.5122 35.8261 30.383C33.7518 31.2124 30.4613 32.0217 25.4114 32.1641C26.4076 31.5948 27.1551 30.6374 26.8863 29.3796C26.6038 28.0499 25.4926 27.6762 24.3419 27.6151C24.3386 26.9912 24.339 26.3671 24.3433 25.7428C24.6962 25.8987 25.0348 26.0784 25.3424 26.2703C25.8858 26.6117 26.3774 25.7269 25.8376 25.3855C25.3696 25.0913 24.87 24.8505 24.3484 24.6675C24.3556 23.9449 24.3592 23.2228 24.3592 22.5012C24.3599 21.8399 23.3773 21.8399 23.3773 22.5012C23.3769 23.1361 23.3735 23.77 23.3673 24.403C22.8443 24.3119 22.3103 24.3029 21.7846 24.3764C21.6988 23.9007 21.5952 23.4284 21.4741 22.9605C21.3117 22.3237 20.3629 22.5932 20.5275 23.2322C20.6482 23.6914 20.7467 24.1486 20.8279 24.6122C20.7863 24.628 20.741 24.6359 20.7 24.6546C19.3689 25.1814 18.5567 26.5247 19.5306 27.7775C19.9841 28.3612 20.5771 28.5969 21.2261 28.6752C21.2613 29.5399 21.2836 30.4053 21.3088 31.2692C20.8739 30.9868 20.4779 30.6245 20.1193 30.2414C19.6751 29.7728 18.9815 30.4966 19.4249 30.9645C20.028 31.6063 20.6612 32.0915 21.3476 32.402C21.3785 33.1401 21.4223 33.8804 21.4942 34.615C21.5575 35.2669 22.5407 35.2705 22.4767 34.615C22.4163 33.9796 22.3714 33.3429 22.3423 32.7053C22.7161 32.77 23.1085 32.7865 23.5254 32.747C23.5721 33.4269 23.6267 34.1068 23.7044 34.7868C23.7489 35.1763 24.1213 35.3294 24.3958 35.2504L24.3347 36.662C23.902 36.7008 23.4607 36.7367 23.0007 36.7669L22.453 36.8029L22.7448 37.2744C22.7743 37.3218 23.1057 37.8458 23.8452 38.6084H22.8304V38.6069ZM40.7186 33.8761C39.8152 34.3009 38.6723 34.6905 37.508 35.0304C36.7921 34.2908 35.8764 33.304 35.1929 32.4286C36.7159 31.9671 37.5683 31.4913 37.9529 31.2347C38.2569 31.5028 38.6594 31.6423 39.1359 31.6415C39.2941 31.6415 39.4342 31.6264 39.542 31.6092C39.887 32.0562 40.4433 32.5723 40.7912 32.8807C40.6264 33.0498 40.5471 33.2357 40.5533 33.4384C40.5591 33.6109 40.6281 33.7575 40.7186 33.8761ZM35.576 36.2379C35.7231 36.3673 35.874 36.4991 36.0288 36.6332C33.115 37.4059 30.9465 37.49 30.4743 37.4979C27.457 35.6572 25.893 33.7094 25.2899 32.8325C27.8149 32.7693 29.9022 32.5407 31.643 32.2259C31.7138 32.3128 31.7854 32.3991 31.8579 32.4846C30.4587 32.7027 29.0485 32.8426 27.6338 32.9037L27.0537 32.9281L27.3729 33.4161C27.3722 33.4168 27.3075 33.5376 26.8791 33.621L26.1826 33.7568L29.6068 36.529L29.7663 36.4859C29.7699 36.4852 30.0718 36.404 30.4369 36.404C30.9638 36.404 31.3238 36.5643 31.505 36.8776L31.62 37.076L31.8435 37.0365C33.0955 36.8083 34.3402 36.542 35.576 36.2379ZM25.4438 34.1255L24.6258 34.081C24.5877 33.6727 24.5496 33.2645 24.5209 32.8562C24.6646 33.0948 24.9593 33.5433 25.4438 34.1255ZM24.4318 31.4942C24.3846 30.5267 24.3561 29.5583 24.3462 28.5897C24.4651 28.5945 24.5801 28.6048 24.6912 28.6206C25.962 28.8132 26.294 30.2263 25.3022 31.0212C25.0434 31.2261 24.7451 31.3763 24.4318 31.4942ZM31.9348 36.3472C31.6128 35.9497 31.1003 35.7413 30.4376 35.7413C30.1609 35.7413 29.9172 35.7787 29.7634 35.8088L27.6108 34.0644C27.789 33.9619 27.911 33.8311 27.9766 33.672C27.9927 33.6322 28.0052 33.5911 28.014 33.5491C29.7203 33.4557 31.1578 33.2853 32.3732 33.0769C32.9626 33.7345 33.8287 34.6416 34.9772 35.696C33.5663 36.0317 32.3897 36.2617 31.9348 36.3472ZM23.363 28.6156C23.3766 29.6571 23.4025 30.7014 23.4578 31.7422C23.3651 31.7565 23.2738 31.7745 23.1826 31.7838C22.8735 31.8191 22.5802 31.7932 22.3014 31.7228C22.2662 30.7165 22.2432 29.7081 22.2051 28.7011C22.5917 28.6832 22.9835 28.6451 23.363 28.6156ZM22.1555 27.7064C22.1108 26.9166 22.0364 26.1288 21.9327 25.3446C22.409 25.2784 22.8936 25.303 23.3608 25.4172C23.3557 26.1519 23.3545 26.8868 23.3572 27.6216C23.0417 27.6388 22.742 27.669 22.4782 27.6927C22.3708 27.7013 22.2632 27.7059 22.1555 27.7064ZM21.1693 27.5806C21.1082 27.5641 21.0479 27.5511 20.9853 27.5303C20.6981 27.4321 20.4379 27.2679 20.2256 27.0509C19.6118 26.478 20.4542 25.916 20.9853 25.6493C21.0687 26.289 21.1262 26.9344 21.1693 27.5806ZM29.1022 41.5718C25.9821 39.9776 24.3081 38.2059 23.6433 37.3851C24.1213 37.3491 24.5733 37.306 25.0211 37.2607L30.1372 40.5813L41.3569 37.4993C35.5709 40.9867 29.8547 41.5179 29.1022 41.5718ZM38.3683 35.9008L38.0362 35.5681C39.3127 35.1814 40.5476 34.7329 41.4683 34.2398L42.0282 33.9387L41.4604 33.6497C41.3332 33.5843 41.2088 33.4643 41.2067 33.419C41.2081 33.4017 41.2584 33.3097 41.4762 33.1847L41.8916 32.9461L41.5222 32.6384C41.5107 32.6291 40.3585 31.6724 39.9539 31.0565L39.8202 30.8552L39.5909 30.9221C39.5887 30.9221 39.3918 30.9788 39.1359 30.9788C38.7406 30.9796 38.4445 30.8502 38.2547 30.5958L38.0449 30.3176L37.7818 30.544C37.7682 30.5555 36.9538 31.2232 34.7695 31.8543C34.6975 31.7507 34.6283 31.6453 34.5618 31.538C37.2104 30.7352 38.5638 29.7634 39.1503 29.2316C40.0919 31.2685 42.3337 32.9094 43.3068 33.5527C41.7434 34.4986 40.0889 35.2853 38.3683 35.9008Z" fill="white"/>
<path d="M31.8979 33.8652C31.1813 33.6704 30.3727 33.8034 30.0895 34.1591C29.8085 34.5164 30.1635 34.9663 30.8794 35.1625C31.5967 35.3573 32.4046 35.2236 32.6878 34.8671C32.9688 34.5099 32.6152 34.0614 31.8979 33.8652Z" fill="white"/>
</svg>
