<svg width="34" height="35" viewBox="0 0 34 35" fill="none" xmlns="http://www.w3.org/2000/svg">
<path d="M15.0384 23.3853C15.144 23.3859 15.2456 23.3445 15.3207 23.2701C15.3958 23.1958 15.4383 23.0947 15.4389 22.989C15.4394 22.8833 15.398 22.7818 15.3237 22.7066C15.2493 22.6315 15.1482 22.589 15.0425 22.5885L11.1657 22.5469C11.1134 22.5463 11.0615 22.5561 11.0129 22.5756C10.9644 22.5951 10.9201 22.624 10.8827 22.6606C10.8454 22.6972 10.8155 22.7408 10.795 22.7889C10.7744 22.837 10.7636 22.8887 10.763 22.9411C10.7625 22.9934 10.7722 23.0453 10.7917 23.0939C10.8112 23.1424 10.8401 23.1866 10.8767 23.224C10.9133 23.2614 10.9569 23.2913 11.005 23.3118C11.0531 23.3323 11.1049 23.3432 11.1572 23.3438L12.2662 23.3557C12.5319 23.3583 12.7901 23.4447 13.0039 23.6026C13.2177 23.7605 13.3762 23.9818 13.4569 24.2351L11.1475 24.2103H11.1432C11.0375 24.2098 10.9359 24.2512 10.8608 24.3255C10.7857 24.3999 10.7432 24.501 10.7426 24.6067C10.7421 24.7123 10.7835 24.8139 10.8579 24.889C10.9322 24.9641 11.0333 25.0066 11.139 25.0072L13.4477 25.032C13.3605 25.2826 13.1971 25.4996 12.9804 25.6527C12.7637 25.8058 12.5045 25.8872 12.2391 25.8856L11.1297 25.8737C11.0499 25.8722 10.9714 25.8951 10.9048 25.9392C10.8382 25.9833 10.7866 26.0467 10.7569 26.1209C10.7266 26.1947 10.7192 26.2759 10.7356 26.3539C10.7519 26.432 10.7914 26.5034 10.8488 26.5588L13.5934 29.2084C13.6309 29.2454 13.6753 29.2746 13.7242 29.2943C13.773 29.314 13.8253 29.3238 13.878 29.3231C13.9307 29.3225 13.9827 29.3114 14.0311 29.2905C14.0794 29.2696 14.1232 29.2394 14.1598 29.2015C14.1964 29.1636 14.2251 29.1188 14.2443 29.0697C14.2634 29.0207 14.2727 28.9683 14.2715 28.9156C14.2703 28.863 14.2587 28.811 14.2373 28.7629C14.2159 28.7148 14.1851 28.6713 14.1468 28.6352L12.1229 26.6811L12.2419 26.6823C12.7168 26.6818 13.1773 26.5186 13.5465 26.2199C13.9158 25.9212 14.1716 25.505 14.2712 25.0406L15.0159 25.0486H15.0203C15.126 25.0491 15.2275 25.0077 15.3026 24.9333C15.3778 24.859 15.4203 24.7579 15.4208 24.6522C15.4214 24.5465 15.3799 24.445 15.3056 24.3699C15.2313 24.2947 15.1301 24.2522 15.0245 24.2517L14.2797 24.2437C14.2208 23.9271 14.0882 23.6288 13.8926 23.3729L15.0338 23.3851L15.0384 23.3853Z" fill="#090707"/>
<path d="M4.95975 5.08403C5.04151 5.15096 5.14651 5.18269 5.25165 5.17221C5.3568 5.16174 5.45347 5.10993 5.52042 5.02818C5.5679 4.97014 5.73086 4.82704 6.04045 4.65863C6.08661 4.63398 6.12746 4.60049 6.16067 4.56006C6.19389 4.51963 6.21881 4.47305 6.23402 4.42298C6.24923 4.37292 6.25444 4.32035 6.24933 4.26827C6.24423 4.21619 6.22892 4.16563 6.20427 4.11948C6.17963 4.07332 6.14613 4.03247 6.1057 3.99925C6.06527 3.96604 6.01869 3.94111 5.96863 3.9259C5.91856 3.91069 5.86599 3.90549 5.81391 3.91059C5.76184 3.9157 5.71128 3.93101 5.66512 3.95565L5.65974 3.95857C5.19928 4.20899 4.98851 4.4199 4.90384 4.52303C4.87067 4.5635 4.8458 4.6101 4.83064 4.66018C4.81548 4.71026 4.81033 4.76284 4.8155 4.81491C4.82066 4.86698 4.83602 4.91752 4.86072 4.96365C4.88541 5.00978 4.91895 5.05059 4.95942 5.08376L4.95975 5.08403Z" fill="#090707"/>
<path d="M7.28921 4.145C7.32618 4.14499 7.36297 4.13983 7.39851 4.12966C8.53081 3.80739 9.94127 3.62988 11.3702 3.62988C11.4759 3.62988 11.5772 3.5879 11.6519 3.51318C11.7267 3.43846 11.7686 3.33712 11.7686 3.23145C11.7686 3.12577 11.7267 3.02443 11.6519 2.94971C11.5772 2.87499 11.4759 2.83301 11.3702 2.83301C9.84784 2.83301 8.39899 3.01636 7.18037 3.3632C7.0878 3.38941 7.00785 3.44822 6.95527 3.52879C6.90269 3.60935 6.88103 3.70621 6.89429 3.8015C6.90756 3.89678 6.95485 3.98405 7.02744 4.04719C7.10003 4.11032 7.193 4.14506 7.28921 4.145Z" fill="#090707"/>
<path d="M13.4358 19.9504C12.5427 19.9082 11.6519 20.0712 10.8316 20.427C10.0113 20.7828 9.28353 21.3218 8.70404 22.0027C8.12454 22.6835 7.70879 23.4881 7.4887 24.3547C7.26861 25.2213 7.25004 26.1268 7.43442 27.0016C7.61879 27.8765 8.00121 28.6975 8.5523 29.4015C9.10339 30.1056 9.8085 30.674 10.6135 31.0631C11.4185 31.4522 12.3019 31.6516 13.196 31.6461C14.09 31.6406 14.971 31.4303 15.7711 31.0312C15.8283 31.0021 15.8776 30.9596 15.9148 30.9074C15.9521 30.8551 15.9761 30.7946 15.985 30.7311C15.9938 30.6675 15.9872 30.6028 15.9656 30.5423C15.9441 30.4819 15.9083 30.4275 15.8612 30.3839C15.801 30.3284 15.7253 30.2926 15.6442 30.2814C15.563 30.2702 15.4804 30.2841 15.4074 30.3212C14.3275 30.8569 13.0917 30.9891 11.9228 30.6939C10.754 30.3988 9.72911 29.6956 9.03306 28.7113C8.33701 27.727 8.01561 26.5264 8.12682 25.326C8.23804 24.1256 8.77455 23.0045 9.63959 22.1648C10.5046 21.3252 11.6412 20.8223 12.8444 20.7469C14.0476 20.6714 15.2381 21.0284 16.2012 21.7535C17.1644 22.4785 17.8367 23.5239 18.0969 24.701C18.3572 25.8781 18.1882 27.1095 17.6206 28.173C17.5792 28.2486 17.564 28.3358 17.5775 28.421C17.591 28.5061 17.6324 28.5844 17.6951 28.6435L17.7128 28.6599C17.7562 28.7003 17.8083 28.7301 17.865 28.7471C17.9217 28.7642 17.9816 28.768 18.04 28.7582C18.0985 28.7485 18.1539 28.7255 18.202 28.691C18.2501 28.6564 18.2897 28.6113 18.3177 28.5591C18.7851 27.6883 19.0242 26.7133 19.0127 25.725C19.0012 24.7368 18.7395 23.7675 18.252 22.9078C17.7644 22.0481 17.067 21.326 16.2248 20.8088C15.3826 20.2916 14.4231 19.9963 13.4358 19.9504Z" fill="#090707"/>
<path d="M28.3156 17.1483C26.7904 16.5383 24.7712 16.2022 22.6297 16.2022C21.6151 16.2003 20.6019 16.2807 19.6003 16.4426V4.704C19.6003 3.6933 18.6967 2.77523 17.0559 2.11894C15.5308 1.50887 13.5115 1.17285 11.3701 1.17285C9.22874 1.17285 7.20952 1.50887 5.68437 2.11894C4.0436 2.77523 3.14001 3.6933 3.14001 4.704V23.5001C3.14001 24.3851 3.84452 25.2099 5.13048 25.84C5.13811 27.3433 5.56773 28.8143 6.3704 30.0854C7.17308 31.3565 8.31655 32.3767 9.67062 33.0298C11.0247 33.6829 12.5349 33.9427 14.0294 33.7795C15.5239 33.6163 16.9425 33.0368 18.1237 32.1069C19.4582 32.4704 21.0107 32.6626 22.6298 32.6626C24.7713 32.6626 26.7905 32.3265 28.3157 31.7165C29.9564 31.0602 30.86 30.1421 30.86 29.1314V19.7334C30.86 18.7227 29.9564 17.8046 28.3156 17.1483ZM5.98028 2.85877C7.41359 2.28549 9.32775 1.96973 11.3702 1.96973C13.4127 1.96973 15.3268 2.28549 16.7601 2.85877C18.0586 3.37827 18.8035 4.05083 18.8035 4.704C18.8035 5.35718 18.0586 6.02974 16.7601 6.5495C15.3268 7.12279 13.4126 7.43855 11.3702 7.43855C9.32782 7.43855 7.41359 7.12252 5.98028 6.5495C4.68164 6.02974 3.93689 5.35724 3.93689 4.704C3.93689 4.05077 4.68164 3.37827 5.98028 2.85877ZM3.93689 9.39567C4.19134 9.62159 4.46968 9.81908 4.76697 9.98463C4.81192 10.0127 4.86202 10.0315 4.91435 10.04C4.96667 10.0484 5.02015 10.0463 5.07165 10.0338C5.12316 10.0213 5.17164 9.99863 5.21426 9.96712C5.25687 9.93561 5.29276 9.89591 5.31982 9.85033C5.34688 9.80476 5.36456 9.75425 5.37183 9.70175C5.37909 9.64925 5.3758 9.59583 5.36213 9.54462C5.34846 9.49341 5.3247 9.44545 5.29224 9.40356C5.25978 9.36166 5.21928 9.32667 5.17311 9.30064C5.16826 9.29779 5.16335 9.295 5.15837 9.29234C4.37271 8.84742 3.93689 8.33662 3.93689 7.83712V6.26329C4.36123 6.64778 4.94832 6.99495 5.6843 7.28933C7.20952 7.89941 9.22874 8.23542 11.3702 8.23542C13.5117 8.23542 15.5308 7.89941 17.056 7.28933C17.792 6.99495 18.3791 6.64778 18.8035 6.26329V7.83712C18.8035 8.49036 18.0586 9.16292 16.7601 9.68235C15.3268 10.2556 13.4126 10.5714 11.3702 10.5714C10.3581 10.5743 9.34763 10.4918 8.34945 10.3246C8.29285 10.3146 8.23473 10.3171 8.17918 10.3319C8.12363 10.3467 8.07199 10.3735 8.02788 10.4103C7.98378 10.4472 7.94828 10.4933 7.92387 10.5453C7.89947 10.5974 7.88674 10.6542 7.8866 10.7116V10.7215C7.88656 10.8144 7.91933 10.9042 7.97913 10.9752C8.03893 11.0462 8.12191 11.0938 8.21339 11.1095C9.25649 11.2846 10.3125 11.3712 11.3702 11.3685C13.5116 11.3685 15.5309 11.0325 17.056 10.4224C17.792 10.128 18.3791 9.78083 18.8035 9.39634V10.9702C18.8035 11.6233 18.0586 12.2959 16.7601 12.8153C15.3268 13.3887 13.4126 13.7044 11.3702 13.7044C9.32782 13.7044 7.41346 13.3887 5.98028 12.8155C4.68164 12.2955 3.93689 11.6232 3.93689 10.9694V9.39567ZM3.93689 12.5285C4.36123 12.9129 4.94832 13.2602 5.6843 13.5546C7.20939 14.1645 9.22867 14.5005 11.3702 14.5005C13.5117 14.5005 15.5308 14.1645 17.056 13.5544C17.792 13.2601 18.3791 12.9128 18.8035 12.5283V14.1021C18.8035 14.7553 18.0586 15.4279 16.7601 15.9473C15.3268 16.5206 13.4126 16.8364 11.3702 16.8364C9.32782 16.8364 7.41359 16.5206 5.98028 15.9473C4.68164 15.428 3.93689 14.7553 3.93689 14.1021V12.5285ZM3.93689 15.661C4.36123 16.0455 4.94832 16.3927 5.6843 16.6871C7.20952 17.2972 9.22874 17.6332 11.3702 17.6332C13.5117 17.6332 15.5308 17.2972 17.056 16.6871C17.792 16.3927 18.3791 16.0455 18.8035 15.661V16.5946C17.328 16.9171 16.1026 17.4239 15.3285 18.0599C14.068 17.7069 12.7401 17.6678 11.4609 17.9458C10.1817 18.2239 8.98999 18.8107 7.98966 19.6551C5.55753 19.1758 3.93689 18.2131 3.93689 17.2347V15.661ZM3.93689 18.7882C4.64525 19.4316 5.79978 19.9656 7.29173 20.3189C6.76476 20.8832 6.32151 21.5201 5.97556 22.2104C4.69219 21.6956 3.93689 21.0188 3.93689 20.3674V18.7882ZM5.17304 24.9618C4.38141 24.5141 3.93702 23.9961 3.93702 23.5001V21.9301C4.35538 22.3078 4.93212 22.6486 5.65469 22.9402C5.40657 23.5902 5.24465 24.2698 5.17304 24.9618ZM18.2338 30.303C18.159 30.2283 18.0577 30.1863 17.952 30.1863C17.8463 30.1863 17.745 30.2283 17.6703 30.303C17.5955 30.3778 17.5536 30.4791 17.5536 30.5848C17.5536 30.6905 17.5956 30.7918 17.6703 30.8665L17.9859 31.1821C16.7634 32.2813 15.2018 32.9295 13.5602 33.019V32.5691C13.5602 32.4635 13.5182 32.3621 13.4435 32.2874C13.3687 32.2127 13.2674 32.1707 13.1617 32.1707C13.056 32.1707 12.9547 32.2127 12.88 32.2874C12.8053 32.3621 12.7633 32.4635 12.7633 32.5691V33.019C11.1218 32.9295 9.56025 32.2815 8.33776 31.1824L8.65339 30.8668C8.72812 30.7921 8.7701 30.6907 8.7701 30.585C8.7701 30.4794 8.72812 30.378 8.65339 30.3033C8.57867 30.2286 8.47731 30.1866 8.37163 30.1866C8.26595 30.1866 8.1646 30.2286 8.08987 30.3033L7.77431 30.6189C6.67522 29.3964 6.02715 27.8349 5.93764 26.1934H6.38761C6.49328 26.1934 6.59463 26.1514 6.66935 26.0767C6.74407 26.002 6.78605 25.9006 6.78605 25.795C6.78605 25.6893 6.74407 25.5879 6.66935 25.5132C6.59463 25.4385 6.49328 25.3965 6.38761 25.3965H5.93791C6.02742 23.755 6.67548 22.1935 7.77457 20.971L8.0902 21.2867C8.16492 21.3614 8.26627 21.4034 8.37194 21.4034C8.47762 21.4034 8.57896 21.3615 8.65369 21.2867C8.72842 21.212 8.77041 21.1107 8.77041 21.005C8.77042 20.8993 8.72844 20.798 8.65373 20.7233L8.33803 20.4076C9.56045 19.3085 11.1219 18.6604 12.7633 18.5708V19.0206C12.7633 19.1263 12.8053 19.2276 12.88 19.3023C12.9547 19.3771 13.056 19.419 13.1617 19.419C13.2674 19.419 13.3687 19.3771 13.4435 19.3023C13.5182 19.2276 13.5602 19.1263 13.5602 19.0206V18.5706C15.2016 18.6601 16.7632 19.3082 17.9857 20.4073L17.67 20.723C17.633 20.76 17.6036 20.8039 17.5836 20.8523C17.5636 20.9006 17.5533 20.9524 17.5533 21.0047C17.5533 21.0571 17.5636 21.1089 17.5836 21.1572C17.6036 21.2056 17.633 21.2495 17.67 21.2865C17.707 21.3235 17.7509 21.3528 17.7993 21.3728C17.8476 21.3929 17.8994 21.4032 17.9518 21.4032C18.0041 21.4032 18.0559 21.3928 18.1042 21.3728C18.1526 21.3528 18.1965 21.3234 18.2335 21.2864L18.5491 20.9707C19.6482 22.1932 20.2963 23.7548 20.3858 25.3963H19.9359C19.8302 25.3963 19.7289 25.4382 19.6541 25.513C19.5794 25.5877 19.5374 25.689 19.5374 25.7947C19.5374 25.9004 19.5794 26.0017 19.6541 26.0764C19.7289 26.1512 19.8302 26.1931 19.9359 26.1931H20.3858C20.2963 27.8346 19.6482 29.3962 18.5491 30.6186L18.2338 30.303ZM30.0631 29.1313C30.0631 29.7845 29.3183 30.4571 28.0197 30.9765C26.5864 31.5498 24.6722 31.8656 22.6298 31.8656C21.3572 31.8729 20.0877 31.7388 18.8446 31.4658C19.4498 30.8595 19.9547 30.1607 20.3402 29.3956C21.0842 29.4846 21.8328 29.5295 22.5821 29.53C24.7235 29.53 26.7905 29.1939 28.3157 28.5838C29.0517 28.2894 29.6388 27.9422 30.0631 27.5577V29.1313ZM30.0631 25.9986C30.0631 26.6518 29.3183 27.3244 28.0197 27.8439C26.5864 28.4171 24.6723 28.7328 22.6275 28.7328C21.9756 28.7359 21.324 28.7022 20.6759 28.6319C20.9539 27.8979 21.122 27.1269 21.1748 26.3437C21.6506 26.3789 22.137 26.3969 22.6049 26.3969C24.7463 26.3969 26.7903 26.0609 28.3159 25.4508C29.0519 25.1564 29.639 24.8092 30.0633 24.4247L30.0631 25.9986ZM30.0631 22.866C30.0631 23.5192 29.3183 24.1917 28.0197 24.7111C26.5864 25.2844 24.6722 25.6001 22.6287 25.6001C22.1506 25.6008 21.6683 25.5823 21.1898 25.5454C21.1656 24.7378 21.019 23.9386 20.755 23.175C21.3643 23.2342 21.9884 23.2645 22.5847 23.2645C24.7261 23.2645 26.7905 22.9284 28.3156 22.3183C29.0515 22.0239 29.6386 21.6767 30.063 21.2922L30.0631 22.866ZM28.0197 21.5786C26.5864 22.1519 24.6722 22.4677 22.6275 22.4677C21.8863 22.4713 21.1456 22.4272 20.41 22.3358C19.5538 20.5521 18.073 19.1445 16.2482 18.3798C17.6 17.5388 20.0308 16.9991 22.6299 16.9991C24.6723 16.9991 26.5865 17.3149 28.0198 17.8882C29.3184 18.4076 30.0632 19.0802 30.0632 19.7334C30.0632 20.3866 29.3184 21.0593 28.0197 21.5786Z" fill="#090707"/>
</svg>
