<svg width="31" height="31" viewBox="0 0 31 31" fill="none" xmlns="http://www.w3.org/2000/svg">
<rect x="0.5" y="0.5" width="30" height="30" rx="15" fill="#25BAFF" fill-opacity="0.1"/>
<rect x="0.5" y="0.5" width="30" height="30" rx="15" stroke="#2399F5"/>
<g clip-path="url(#clip0_20_9524)">
<path d="M20.7618 15.2097C20.3263 13.3946 19.3282 11.749 17.9207 10.5227C18.0392 10.3741 18.1129 10.1883 18.1129 9.98388C18.1129 9.66132 17.9347 9.38232 17.6734 9.23196C18.0235 8.67512 18.5243 8.21584 19.1136 7.92116L19.408 7.77396L19.0077 7.17387C18.7264 6.752 18.2558 6.5 17.7486 6.5C17.35 6.5 16.96 6.66172 16.6782 6.94332L16.6604 6.96104C16.3489 6.66752 15.9288 6.5 15.5 6.5C15.0712 6.5 14.6511 6.66752 14.3393 6.96076L14.3216 6.94304C14.04 6.66172 13.6501 6.5 13.2514 6.5C12.7442 6.5 12.2734 6.752 11.992 7.17412L11.5923 7.77392L11.8864 7.92112C12.476 8.2158 12.9765 8.67508 13.3266 9.23192C13.0654 9.38232 12.8871 9.66132 12.8871 9.98384C12.8871 10.1882 12.9608 10.374 13.079 10.5227C11.6715 11.749 10.6737 13.3946 10.2382 15.2096H6.5V24.5H24.5V15.2097H20.7618ZM16.9516 12.3064C16.9516 12.4664 16.8215 12.5968 16.6613 12.5968C16.501 12.5968 16.371 12.4664 16.371 12.3064C16.371 12.1465 16.501 12.0161 16.6613 12.0161C16.8215 12.0161 16.9516 12.1465 16.9516 12.3064ZM13.7581 10.2742C13.5978 10.2742 13.4678 10.1438 13.4678 9.98388C13.4678 9.82392 13.5978 9.69356 13.7581 9.69356H17.242C17.4022 9.69356 17.5323 9.82392 17.5323 9.98388C17.5323 10.1438 17.4022 10.2742 17.242 10.2742H13.7581ZM12.433 7.55968L12.4754 7.49608C12.6488 7.23596 12.9388 7.08064 13.2515 7.08064C13.4971 7.08064 13.7378 7.18024 13.9111 7.35384L14.3387 7.78176L14.7141 7.40636C14.9211 7.19936 15.2074 7.08061 15.5 7.08061C15.7927 7.08061 16.079 7.19936 16.286 7.40605L16.6614 7.78173L17.089 7.3538C17.2623 7.1802 17.503 7.08061 17.7486 7.08061C18.061 7.08061 18.3513 7.23593 18.5246 7.49577L18.567 7.55964C17.9437 7.9362 17.4243 8.47648 17.0698 9.11288H13.9303C13.5758 8.47652 13.0564 7.93624 12.433 7.55968ZM13.5722 10.8548H13.758H14.4894C14.2072 11.2842 14.0858 11.8733 14.0568 12.3572C13.715 12.4751 13.4677 12.7965 13.4677 13.1774C13.4677 13.6576 13.8584 14.0484 14.3386 14.0484C14.8188 14.0484 15.2096 13.6576 15.2096 13.1774C15.2096 12.8043 14.9727 12.4879 14.642 12.3639C14.6815 11.8907 14.8426 10.8548 15.4999 10.8548C16.0916 10.8548 16.2815 11.2331 16.3422 11.4979C16.0196 11.6257 15.7903 11.9389 15.7903 12.3065C15.7903 12.7867 16.181 13.1774 16.6612 13.1774C17.1414 13.1774 17.5322 12.7867 17.5322 12.3065C17.5322 11.9204 17.2781 11.5961 16.9298 11.4822C16.8967 11.2825 16.8212 11.0575 16.6847 10.8548H17.2419H17.4277C18.7704 11.9816 19.7267 13.5154 20.1631 15.2097H10.8368C11.2732 13.5154 12.2295 11.9816 13.5722 10.8548ZM14.629 13.1774C14.629 13.3374 14.499 13.4677 14.3387 13.4677C14.1785 13.4677 14.0484 13.3374 14.0484 13.1774C14.0484 13.0174 14.1785 12.8871 14.3387 12.8871C14.499 12.8871 14.629 13.0174 14.629 13.1774ZM23.9194 23.9194H7.08064V15.7903H23.9194V23.9194Z" fill="#2399F5"/>
<path d="M23.3395 23.3389V16.3711H7.66211V23.3389H23.3395ZM21.6269 22.7582C21.7428 22.1903 22.191 21.7421 22.7589 21.6263V22.7582H21.6269ZM22.7589 18.0837C22.191 17.9679 21.7428 17.5196 21.6269 16.9517H22.7589V18.0837ZM21.0402 16.9517C21.1682 17.8398 21.8708 18.5424 22.7589 18.6705V21.0395C21.8708 21.1675 21.1682 21.8701 21.0402 22.7582H17.4225C18.3628 22.1337 18.9847 21.0659 18.9847 19.855C18.9847 18.644 18.3628 17.5762 17.4225 16.9517H21.0402ZM15.5008 22.7582C13.9 22.7582 12.5976 21.4558 12.5976 19.855C12.5976 18.2541 13.9 16.9517 15.5008 16.9517C17.1017 16.9517 18.4041 18.2541 18.4041 19.855C18.4041 21.4558 17.1017 22.7582 15.5008 22.7582ZM9.37475 16.9517C9.25891 17.5196 8.81066 17.9679 8.24279 18.0837V16.9517H9.37475ZM8.24275 21.6262C8.81063 21.7421 9.25887 22.1903 9.37471 22.7582H8.24275V21.6262ZM9.96147 22.7582C9.83343 21.8701 9.13087 21.1675 8.24275 21.0395V18.6705C9.13083 18.5424 9.83343 17.8399 9.96147 16.9517H13.5792C12.6388 17.5762 12.0169 18.644 12.0169 19.855C12.0169 21.0659 12.6388 22.1337 13.5792 22.7582H9.96147Z" fill="#2399F5"/>
<path d="M14.3401 18.1122H14.9208C15.2988 18.1122 15.6181 18.3558 15.7383 18.6928H14.3401V19.2735H15.7383C15.6181 19.6106 15.2988 19.8541 14.9208 19.8541H14.3401L14.2832 20.429C15.034 20.5794 15.623 21.1873 15.7488 21.9427L15.7958 22.2243L16.3686 22.1285L16.3216 21.8472C16.2208 21.243 15.8945 20.7103 15.432 20.3416C15.8928 20.1677 16.2394 19.7647 16.3398 19.2732H16.953V18.6925H16.3398C16.296 18.4786 16.2083 18.2806 16.0814 18.1119H16.953V17.5312H14.3401V18.1122H14.3401Z" fill="#2399F5"/>
</g>
<defs>
<clipPath id="clip0_20_9524">
<rect width="18" height="18" fill="white" transform="translate(6.5 6.5)"/>
</clipPath>
</defs>
</svg>
