<svg width="30" height="31" viewBox="0 0 30 31" fill="none" xmlns="http://www.w3.org/2000/svg">
<g opacity="0.6">
<path d="M10.9498 8.05458C10.9106 7.76471 10.8688 7.48042 10.8774 7.18674C10.9376 5.14369 12.5132 3.52708 14.5248 3.26612C16.7244 2.98076 18.8573 4.65487 19.1257 6.85411C19.2039 7.49495 19.0683 7.59848 19.0461 8.05458C20.6854 8.69079 22.5683 10.327 23.5322 11.7417C25.083 13.9578 25.6406 16.6136 25.1834 19.2744C24.7433 22.2722 22.6033 25.0399 19.9815 26.4708C16.9102 28.147 13.1927 28.0775 10.1061 26.5098C9.93493 26.4229 9.65919 26.3021 9.51991 26.1752C9.22062 26.0136 8.78415 25.7104 8.5281 25.4852C6.67149 24.2158 5.14076 21.3426 4.80223 19.1883C4.75812 18.9075 4.72885 18.6247 4.66867 18.3467C4.69499 17.8091 4.64693 17.2681 4.68022 16.7298C4.78289 15.0694 5.4098 13.455 6.24816 12.0351C7.07497 10.7545 9.38351 8.41083 10.9498 8.05458Z" fill="#00F2FF"/>
<path d="M13.5625 15.6133H16.0437C15.7073 16.3823 15.3734 16.6279 16.4612 16.5978C16.6791 16.318 16.8112 15.9828 17.0083 15.6893H17.8074C17.9517 16.0003 18.1287 16.3865 18.1756 16.7277C18.0883 16.657 18.0067 16.5882 17.9022 16.5443C17.6127 16.5724 16.1818 16.7938 15.985 16.8866C15.8946 16.9293 15.8493 17.0191 15.7705 17.0692L15.7698 17.0371C15.9389 16.8112 16.1528 16.814 16.4038 16.7679L17.2955 16.6114C17.4632 16.5834 17.6774 16.5232 17.8412 16.5249C17.9458 16.526 18.0249 16.6073 18.1258 16.6223C18.1182 16.4461 17.9155 15.8522 17.7916 15.7421C17.6242 15.7737 17.4159 15.7652 17.2466 15.7465L17.2492 15.7401C17.369 15.7371 17.5068 15.7529 17.622 15.7236L17.616 15.711C16.7552 15.5924 16.9012 16.1283 16.5341 16.561C16.4355 16.6772 15.7415 16.5947 15.6926 16.511C15.582 16.3223 16.1095 15.7238 15.8106 15.6404C15.6326 15.5907 13.9551 15.637 13.5627 15.6312L13.5625 15.6133Z" fill="#3799E7"/>
<path d="M18.4161 24.0508L18.4235 24.0673C18.529 24.3082 18.5764 25.1451 18.7038 25.2027C18.8402 25.2644 19.1546 25.1837 19.3111 25.1789C19.2381 25.2467 19.1331 25.2024 19.0476 25.2445C18.9745 25.2804 18.7734 25.5592 18.702 25.6376C18.5281 25.8284 17.6448 26.4622 17.6318 26.5005C17.613 26.5563 17.5554 26.706 17.5158 26.7447C17.5079 26.6419 17.7348 26.2061 17.7888 26.0601C18.0346 25.3954 18.2409 24.7374 18.4161 24.0508Z" fill="#00F2FF"/>
<path d="M17.3061 15.0117C17.4674 15.2351 17.6139 15.4947 17.8083 15.6894H17.0092C16.812 15.983 16.6799 16.3181 16.4621 16.5979C15.3742 16.6281 15.7082 16.3824 16.0445 15.6134C16.6083 15.6519 16.9874 15.5139 17.3061 15.0117Z" fill="#46C806"/>
<path d="M12.6307 11.6671C12.2279 12.227 11.5072 12.8015 11.1958 13.2831C11.1069 13.4206 11.1542 13.5909 11.0765 13.7228C10.8961 14.0285 10.1242 13.2545 10.0653 13.0673C9.93215 12.6439 10.1452 12.2438 9.81989 11.8536C9.39303 11.3416 8.60178 11.7833 8.26838 11.5514C7.6818 11.1434 10.4623 10.6791 10.9291 10.6836C11.3187 10.6874 11.705 10.7538 12.0953 10.7351C12.2706 11.0485 12.4469 11.3586 12.6307 11.6671Z" fill="#60FD12"/>
<path d="M13.3223 12.6602C14.0972 13.6181 14.7451 15.1766 15.9013 13.7027L16.4097 13.0571C16.5107 12.9263 16.6042 12.7799 16.7178 12.6602C16.9257 13.0114 17.2314 13.4654 17.4641 13.8181C17.4723 14.0269 17.4743 14.2411 17.4641 14.4498C17.463 14.5176 17.4522 14.5998 17.4641 14.6659C17.411 14.7806 17.3505 14.8944 17.3072 15.013C16.9884 15.5152 16.6094 15.6532 16.0455 15.6147H13.5644C13.1796 15.3566 12.836 15.4751 12.6212 14.7526C12.3848 13.9577 12.9689 13.3093 13.3223 12.6602Z" fill="#9A6321"/>
<path d="M15.7721 17.0679C15.8508 17.0178 15.8962 16.928 15.9865 16.8853C16.1833 16.7925 17.6142 16.5711 17.9037 16.543C18.0082 16.5869 18.0899 16.6557 18.1771 16.7264C18.2541 16.9072 18.3247 17.0974 18.4177 17.2702C18.8202 19.4469 18.985 20.8029 18.6249 23.0659C18.5859 23.3111 18.5321 23.8554 18.4177 24.0509C18.3002 23.7896 18.0429 23.4701 18.0583 23.1754C18.0742 22.8691 18.234 22.583 18.2526 22.2755C18.2604 22.1477 17.511 20.759 17.3819 20.6152C16.982 20.6232 16.0509 20.6142 15.6577 20.5422C15.4093 20.4968 14.8714 19.9641 14.7193 19.7515C14.6961 19.5668 14.6925 18.4454 14.7451 18.2877C14.7913 18.1491 15.6206 17.2498 15.7721 17.0679Z" fill="#60FD12"/>
<path d="M18.418 17.2712C18.6784 17.257 20.0608 17.3327 20.2186 17.4808C20.6773 17.9111 21.2495 19.7765 21.8969 19.7763C22.0412 19.7763 22.4013 19.604 22.5051 19.6866C22.6118 20.2871 21.4863 20.9703 21.2615 21.4968C21.1474 21.7637 21.2735 22.3215 21.2025 22.652C21.0725 23.2563 20.5923 23.7209 20.3558 24.2784C20.2811 24.4547 20.2388 24.8198 20.0954 24.9314C19.8131 25.151 19.5093 25.0839 19.313 25.1801C19.1564 25.185 18.842 25.2656 18.7056 25.2039C18.5783 25.1463 18.5308 24.3095 18.4254 24.0685L18.418 24.052C18.5323 23.8564 18.5861 23.3121 18.6252 23.0669C18.9853 20.804 18.8205 19.4479 18.418 17.2712Z" fill="#46C806" fill-opacity="0.8"/>
<path d="M6.24816 12.0352C7.02048 12.258 8.86683 11.9402 9.16724 12.5032C9.41011 12.9584 8.13394 12.7635 8.49675 13.5961C8.6011 13.8355 8.91388 13.5985 9.09171 13.6553C9.23632 13.7016 9.34401 13.968 9.44151 14.0849C9.71679 14.4151 10.3206 14.6841 10.1159 15.2117C9.99089 15.5338 9.63892 14.7971 9.22607 14.8286C8.59032 14.8771 9.19753 15.3802 9.12235 15.4941C9.01636 15.6547 8.62501 15.7614 8.44982 15.8658C6.99148 16.7355 7.74358 17.1278 7.54108 17.374C7.31825 17.6449 6.9054 17.0777 6.75821 16.9711C6.51523 17.0065 5.77224 17.0878 5.63781 17.2672C5.47708 17.4816 5.47697 18.5456 5.95841 18.4106C6.21657 18.3381 6.42183 17.8339 6.69341 17.9708C7.06126 18.1561 6.40419 18.5505 6.79694 18.8192C6.92028 18.9036 7.09841 18.9175 7.20482 19.0239C7.39355 19.2126 7.23868 19.6798 7.66964 19.5876C7.86499 19.5458 8.39444 19.3091 8.50478 19.304C8.7504 19.2928 9.61941 19.6607 10.0412 19.7417C10.7388 19.8757 10.4181 20.1702 10.7956 20.4248C11.2103 20.7043 12.0384 20.8771 12.4134 21.2246C12.6491 21.443 12.2485 22.1883 12.1597 22.4443C12.0628 22.7237 12.0213 23.1103 11.8464 23.3533C11.6842 23.5787 11.3504 23.57 11.1581 23.7589C10.9044 24.0079 10.7657 24.4886 10.5404 24.7917C10.1648 25.2969 9.63206 25.4993 9.51991 26.1752C9.22062 26.0136 8.78415 25.7104 8.5281 25.4852C6.67149 24.2158 5.14076 21.3426 4.80223 19.1883C4.75812 18.9076 4.72885 18.6247 4.66867 18.3467C4.69499 17.8092 4.64693 17.2681 4.68022 16.7298C4.78289 15.0694 5.4098 13.4551 6.24816 12.0352Z" fill="#60FD12"/>
<path d="M4.66797 18.3477C4.8577 18.3754 5.05013 18.5656 5.22555 18.6532C5.64305 18.8616 6.16179 19.0498 6.54804 19.2618C6.77568 19.3867 6.77451 19.638 6.95867 19.7918C7.15537 19.9559 7.66326 19.8867 7.58257 20.2747C7.5122 20.6131 6.99904 20.968 7.00525 21.2424C7.01375 21.6177 8.3242 22.7306 8.55605 23.2246C8.64253 23.4089 8.53103 25.1275 8.5274 25.4861C6.6708 24.2168 5.14006 21.3436 4.80153 19.1892C4.75742 18.9085 4.72816 18.6256 4.66797 18.3477Z" fill="#00F2FF"/>
<path d="M16.8457 12.4713C17.7839 10.9137 18.4778 9.89553 19.0474 8.05469C20.6867 8.6909 22.5696 10.3271 23.5335 11.7418C25.0843 13.9579 25.6419 16.6137 25.1847 19.2745C24.8107 19.0101 24.5074 18.3007 24.3533 17.8897C23.0997 17.8454 23.4928 17.9328 22.5856 17.1994C22.4306 17.2223 22.2848 17.2513 22.1493 17.3335C22.3257 17.509 22.5845 17.8356 22.7558 17.9635C23.0074 18.1513 23.3063 18.2149 23.5335 18.4482C23.3039 18.5772 22.1118 19.3612 21.9569 19.3174C21.6146 19.2206 20.6836 17.2924 20.4355 16.8618C20.2275 16.5006 19.9121 16.5532 19.5692 16.3878C19.4018 16.307 19.2573 16.1324 19.0742 16.0913C18.8562 16.0424 18.8613 16.5441 18.7246 16.6377C18.3833 16.5858 18.5921 15.9746 17.8103 15.6892C17.6159 15.4945 17.4694 15.2349 17.3081 15.0115C17.3515 14.8929 17.412 14.7791 17.4651 14.6644C17.4532 14.5983 17.464 14.5161 17.4651 14.4483C17.4753 14.2396 17.4733 14.0253 17.4651 13.8166C17.2324 13.4639 16.9266 13.0099 16.7188 12.6586C16.7544 12.5922 16.8016 12.5322 16.8457 12.4713Z" fill="#46C806"/>
<path d="M17.4617 14.6641C17.5459 14.7569 17.8304 15.55 17.8068 15.6889C17.6124 15.4942 17.4659 15.2346 17.3047 15.0112C17.348 14.8926 17.4085 14.7788 17.4617 14.6641Z" fill="#46F2B2"/>
<path d="M16.8457 12.4713C17.7839 10.9137 18.4778 9.89553 19.0474 8.05469C20.6867 8.6909 22.5696 10.3271 23.5335 11.7418C22.8072 12.1357 23.0832 12.2307 22.2024 12.3578C21.6292 12.4405 21.1573 12.7342 20.6141 12.9034C20.2767 12.7643 19.4448 12.3224 19.1885 12.317C18.5189 12.3029 17.0753 13.7304 17.6035 13.8747C17.9689 13.9746 18.3456 13.6314 18.6778 13.5145C18.6448 13.8263 18.6302 14.1346 18.6355 14.4483C18.2687 14.4474 17.822 14.4221 17.4651 14.4483C17.4753 14.2396 17.4733 14.0253 17.4651 13.8166C17.2324 13.4639 16.9266 13.0099 16.7188 12.6586C16.7544 12.5922 16.8016 12.5322 16.8457 12.4713Z" fill="#00F2FF"/>
<path d="M16.7188 12.66C16.7544 12.5937 16.8016 12.5337 16.8457 12.4727C17.1293 12.7638 17.5279 13.3929 17.4651 13.818C17.2324 13.4653 16.9266 13.0113 16.7188 12.66Z" fill="#3799E7"/>
<path d="M10.9485 8.05458C10.9093 7.76471 10.8675 7.48042 10.8761 7.18674C10.9364 5.14369 12.5119 3.52708 14.5235 3.26612C16.7232 2.98076 18.856 4.65487 19.1244 6.85411C19.2026 7.49495 19.0671 7.59848 19.0448 8.05458C18.4752 9.89542 17.7814 10.9135 16.8431 12.4711C16.799 12.5321 16.7518 12.5921 16.7162 12.6585C16.6026 12.7782 16.5091 12.9247 16.4082 13.0554L15.8997 13.7011C14.7435 15.1749 14.0956 13.6165 13.3207 12.6585C13.1022 12.3231 12.8608 11.9944 12.6304 11.6666C12.4467 11.3581 12.2703 11.0481 12.0951 10.7347C11.6671 9.79071 11.2712 9.10381 10.9485 8.05458Z" fill="#FF2E49"/>
<path d="M14.9164 5.37855L14.9315 5.37648C16.4748 5.17922 17.6627 7.23758 16.5977 8.55518C16.2166 9.02674 15.7172 9.23814 15.1283 9.30066C12.4489 9.37988 12.3735 5.45441 14.9164 5.37855Z" fill="white"/>
</g>
</svg>
