<svg width="20" height="21" viewBox="0 0 20 21" fill="none" xmlns="http://www.w3.org/2000/svg">
<path d="M10 17.167H17.5" stroke="#25BAFF" stroke-width="2" stroke-linecap="round" stroke-linejoin="round"/>
<path d="M13.6468 3.51811C13.9786 3.18637 14.4285 3 14.8976 3C15.3668 3 15.8167 3.18637 16.1485 3.51811C16.4802 3.84985 16.6666 4.29979 16.6666 4.76895C16.6666 5.2381 16.4802 5.68804 16.1485 6.01978L6.14014 16.0289C5.94189 16.2272 5.69683 16.3722 5.42764 16.4506L3.03431 17.1489C2.9626 17.1699 2.88659 17.1711 2.81423 17.1526C2.74188 17.134 2.67583 17.0964 2.62302 17.0436C2.5702 16.9908 2.53255 16.9247 2.51401 16.8524C2.49547 16.78 2.49673 16.704 2.51764 16.6323L3.21598 14.2389C3.29449 13.9701 3.43952 13.7253 3.63764 13.5273L13.6468 3.51811Z" stroke="#25BAFF" stroke-width="2" stroke-linecap="round" stroke-linejoin="round"/>
<path d="M12.5 4.66699L15 7.16699" stroke="#25BAFF" stroke-width="2" stroke-linecap="round" stroke-linejoin="round"/>
</svg>
