<svg width="19" height="19" viewBox="0 0 19 19" fill="none" xmlns="http://www.w3.org/2000/svg">
<path d="M5.75 5C5.75 4.80109 5.82902 4.61032 5.96967 4.46967C6.11032 4.32902 6.30109 4.25 6.5 4.25H12.5C12.6989 4.25 12.8897 4.32902 13.0303 4.46967C13.171 4.61032 13.25 4.80109 13.25 5V6.5C13.25 6.69891 13.171 6.88968 13.0303 7.03033C12.8897 7.17098 12.6989 7.25 12.5 7.25H6.5C6.30109 7.25 6.11032 7.17098 5.96967 7.03033C5.82902 6.88968 5.75 6.69891 5.75 6.5V5ZM6.875 6.125H12.125V5.375H6.875V6.125ZM3.5 3.875C3.5 3.37772 3.69754 2.90081 4.04917 2.54917C4.40081 2.19754 4.87772 2 5.375 2H14C14.2462 2 14.49 2.0485 14.7175 2.14273C14.945 2.23695 15.1517 2.37506 15.3258 2.54917C15.4999 2.72328 15.638 2.92998 15.7323 3.15747C15.8265 3.38495 15.875 3.62877 15.875 3.875V14.5625C15.875 14.7117 15.8157 14.8548 15.7102 14.9602C15.6048 15.0657 15.4617 15.125 15.3125 15.125H4.625C4.625 15.3239 4.70402 15.5147 4.84467 15.6553C4.98532 15.796 5.17609 15.875 5.375 15.875H15.3125C15.4617 15.875 15.6048 15.9343 15.7102 16.0398C15.8157 16.1452 15.875 16.2883 15.875 16.4375C15.875 16.5867 15.8157 16.7298 15.7102 16.8352C15.6048 16.9407 15.4617 17 15.3125 17H5.375C4.87772 17 4.40081 16.8025 4.04917 16.4508C3.69754 16.0992 3.5 15.6223 3.5 15.125V3.875ZM4.625 14H14.75V3.875C14.75 3.67609 14.671 3.48532 14.5303 3.34467C14.3897 3.20402 14.1989 3.125 14 3.125H5.375C5.17609 3.125 4.98532 3.20402 4.84467 3.34467C4.70402 3.48532 4.625 3.67609 4.625 3.875V14Z" fill="#25BAFF"/>
</svg>
