<svg width="23" height="20" viewBox="0 0 23 20" fill="none" xmlns="http://www.w3.org/2000/svg">
<path d="M21.6623 5.07813L12.735 1.25208C11.9502 0.915733 11.0495 0.915996 10.2636 1.25274L1.33832 5.07791C0.821245 5.29946 0.5 5.78656 0.5 6.34906C0.5 6.91126 0.821025 7.39809 1.33779 7.61956L2.39283 8.07175C2.39174 8.08264 2.39117 8.0937 2.39117 8.10485V13.0975C1.98335 13.2353 1.6888 13.6212 1.6888 14.075C1.6888 14.338 1.78792 14.5782 1.95056 14.7607C1.77067 14.937 1.65122 15.1761 1.62655 15.447L1.37379 18.2276C1.35654 18.4175 1.42041 18.6072 1.54898 18.748C1.67756 18.8888 1.8607 18.9696 2.0514 18.9696H3.38936C3.58005 18.9696 3.76319 18.8888 3.89177 18.748C4.02039 18.6072 4.08422 18.4175 4.06697 18.2276L3.8142 15.447C3.78958 15.1761 3.67009 14.9371 3.49019 14.7607C3.65283 14.5783 3.75196 14.338 3.75196 14.075C3.75196 13.6213 3.4574 13.2353 3.04959 13.0975V8.35322L4.85107 9.1253C4.84997 9.13618 4.8494 9.1472 4.8494 9.15835V11.6721C4.8494 12.7212 5.56775 13.6917 6.87217 14.405C8.11369 15.0838 9.75723 15.4577 11.4999 15.4577C13.2426 15.4577 14.8862 15.0838 16.1277 14.405C17.4321 13.6917 18.1505 12.7212 18.1505 11.6721V9.15835C18.1505 9.1472 18.1499 9.13618 18.1488 9.12534L21.6617 7.61982C22.1788 7.39822 22.5 6.91109 22.5 6.34862C22.5 5.78642 22.179 5.2996 21.6623 5.07813ZM3.40556 18.304C3.39906 18.3111 3.39199 18.3111 3.38936 18.3111H2.0514C2.04872 18.3111 2.04169 18.3111 2.0352 18.304C2.02866 18.2968 2.02931 18.2898 2.02953 18.2872L2.2823 15.5066C2.30306 15.2786 2.49138 15.1066 2.7204 15.1066C2.94937 15.1066 3.13769 15.2786 3.15846 15.5066L3.41122 18.2871C3.41148 18.2898 3.4121 18.2968 3.40556 18.304ZM2.7204 14.4481C2.51465 14.4481 2.34727 14.2807 2.34727 14.075C2.34727 13.8692 2.51465 13.7018 2.7204 13.7018C2.92615 13.7018 3.09353 13.8692 3.09353 14.075C3.09353 14.2807 2.92615 14.4481 2.7204 14.4481ZM17.492 10.2674C17.492 11.1187 16.7913 11.95 15.5696 12.5479C15.4063 12.6278 15.3387 12.825 15.4187 12.9883C15.4758 13.1051 15.5928 13.1729 15.7146 13.1729C15.7632 13.1729 15.8125 13.1621 15.8591 13.1393C16.5368 12.8076 17.0797 12.4036 17.4668 11.9543C17.3434 12.6486 16.7668 13.3051 15.8119 13.8273C14.6655 14.4541 13.1343 14.7993 11.5 14.7993C9.86579 14.7993 8.3345 14.4541 7.18815 13.8273C6.23666 13.307 5.66072 12.6534 5.53447 11.9618C5.86726 12.3455 6.3163 12.6963 6.87222 13.0003C8.11374 13.6791 9.75728 14.053 11.5 14.053C11.9875 14.053 12.4738 14.0233 12.9452 13.9649C13.1257 13.9425 13.2538 13.7781 13.2314 13.5976C13.2091 13.4172 13.0449 13.289 12.8642 13.3114C12.4195 13.3666 11.9605 13.3945 11.5 13.3945C9.86575 13.3945 8.33446 13.0494 7.18811 12.4226C6.10462 11.8301 5.50792 11.0648 5.50792 10.2674V9.40681L10.265 11.4457C10.6572 11.6137 11.0783 11.6978 11.4996 11.6978C11.9214 11.6978 12.3433 11.6135 12.7364 11.445L17.492 9.4069V10.2674ZM21.4023 7.0146L12.477 10.8397C11.8561 11.1058 11.1444 11.1061 10.5244 10.8404L3.70314 7.91692L9.95328 6.82992C10.2344 7.16262 10.8073 7.38049 11.5 7.38049C12.4885 7.38049 13.2339 6.93699 13.2339 6.34889C13.2339 5.76079 12.4885 5.31729 11.5 5.31729C10.6022 5.31729 9.90499 5.68313 9.78458 6.19086L2.66399 7.42921C2.6431 7.43286 2.62312 7.43852 2.60398 7.44576L1.59723 7.01425C1.32247 6.8966 1.15847 6.64788 1.15847 6.34906C1.15847 6.04994 1.32269 5.80095 1.59771 5.68309L10.523 1.85791C10.8338 1.72477 11.1672 1.65818 11.5005 1.65818C11.8333 1.65818 12.1659 1.72455 12.4756 1.85725L21.4029 5.68331C21.6776 5.80104 21.8416 6.04977 21.8416 6.34858C21.8416 6.64779 21.6774 6.89673 21.4023 7.0146ZM10.4245 6.34893C10.4245 6.25301 10.7943 5.9758 11.5 5.9758C12.2057 5.9758 12.5755 6.25301 12.5755 6.34893C12.5755 6.44485 12.2057 6.72206 11.5 6.72206C10.7943 6.72206 10.4245 6.4448 10.4245 6.34893Z" fill="white" stroke="white" stroke-width="0.550001"/>
<path d="M13.9579 13.7819C13.9825 13.7819 14.0074 13.7791 14.0323 13.7733C14.2808 13.7159 14.5256 13.6493 14.7598 13.5751C14.9332 13.5203 15.0293 13.3353 14.9745 13.162C14.9196 12.9886 14.7347 12.8924 14.5613 12.9473C14.3435 13.0162 14.1157 13.0782 13.8841 13.1317C13.707 13.1726 13.5965 13.3494 13.6374 13.5266C13.6726 13.6789 13.8081 13.7819 13.9579 13.7819Z" fill="white"/>
</svg>
