<svg width="34" height="34" viewBox="0 0 34 34" fill="none" xmlns="http://www.w3.org/2000/svg">
<path d="M17.707 8.5L13.457 14.875H16.2904V19.125L20.5404 12.75H17.707V8.5Z" fill="white"/>
<path fill-rule="evenodd" clip-rule="evenodd" d="M26.8514 13.6543C26.6363 15.4785 25.903 17.2029 24.7384 18.6233C24.057 19.4563 22.3251 21.8334 21.9568 23.3776H12.0401C11.6718 21.832 9.93779 19.4542 9.25638 18.6212C8.09227 17.2001 7.35975 15.4752 7.14554 13.6508C6.93443 11.8302 7.25215 9.98732 8.06071 8.34253C8.87641 6.68488 10.1452 5.29233 11.72 4.32628C13.3078 3.34984 15.1358 2.83387 16.9999 2.83594C18.8685 2.83594 20.6988 3.35303 22.2798 4.3284C23.8541 5.29485 25.1224 6.68764 25.9376 8.34536C26.7458 9.99051 27.0631 11.8336 26.8514 13.6543ZM20.9531 21.9609H13.0431C12.7414 21.2647 12.3383 20.5669 11.9629 19.9741C11.4687 19.1951 10.9315 18.4442 10.3536 17.7251C9.36072 16.5136 8.73586 15.0429 8.553 13.4872C8.3731 11.9367 8.64361 10.3673 9.33217 8.96657C10.0302 7.54897 11.1158 6.35828 12.463 5.53257C13.8275 4.69372 15.3982 4.25058 16.9999 4.25261C18.6078 4.25261 20.1803 4.69815 21.5368 5.53469C22.8835 6.36061 23.9685 7.55129 24.6662 8.96869C25.3544 10.3698 25.6244 11.9395 25.4439 13.49C25.2604 15.0453 24.635 16.5155 23.6419 17.7265C23.0631 18.4448 22.526 19.1956 22.0333 19.9755C21.6579 20.5684 21.2548 21.2647 20.9531 21.9609Z" fill="white"/>
<path d="M12.0391 25.5052C12.0391 25.3173 12.1137 25.1372 12.2465 25.0043C12.3794 24.8715 12.5595 24.7969 12.7474 24.7969H21.2474C21.4353 24.7969 21.6154 24.8715 21.7483 25.0043C21.8811 25.1372 21.9557 25.3173 21.9557 25.5052C21.9557 25.6931 21.8811 25.8732 21.7483 26.0061C21.6154 26.1389 21.4353 26.2135 21.2474 26.2135H12.7474C12.5595 26.2135 12.3794 26.1389 12.2465 26.0061C12.1137 25.8732 12.0391 25.6931 12.0391 25.5052Z" fill="white"/>
<path fill-rule="evenodd" clip-rule="evenodd" d="M12.0391 27.625H21.9557V29.75C21.9557 30.1257 21.8065 30.4861 21.5408 30.7517C21.2751 31.0174 20.9148 31.1667 20.5391 31.1667H13.4557C13.08 31.1667 12.7197 31.0174 12.454 30.7517C12.1883 30.4861 12.0391 30.1257 12.0391 29.75V27.625ZM13.4557 29.0417H20.5391V29.75H13.4557V29.0417Z" fill="white"/>
</svg>
