<svg width="50" height="50" viewBox="0 0 50 50" fill="none" xmlns="http://www.w3.org/2000/svg">
<path d="M8.87099 12.1123C10.1575 12.1123 11.2043 11.0655 11.2043 9.77901C11.2043 8.49251 10.1575 7.44568 8.87099 7.44568C7.58449 7.44568 6.53766 8.49251 6.53766 9.77901C6.53766 11.0655 7.58466 12.1123 8.87099 12.1123ZM8.87099 8.77901C9.42249 8.77901 9.87099 9.22751 9.87099 9.77901C9.87099 10.3305 9.42249 10.779 8.87099 10.779C8.31949 10.779 7.87099 10.3305 7.87099 9.77901C7.87099 9.22751 8.31966 8.77901 8.87099 8.77901Z" fill="#9F0C6E"/>
<path d="M44.871 5.69067C44.4542 5.69067 44.116 6.02867 44.116 6.44567C44.116 6.86251 44.454 7.20051 44.871 7.20051C45.288 7.20051 45.626 6.86251 45.626 6.44567C45.626 6.02867 45.288 5.69067 44.871 5.69067Z" fill="#9F0C6E"/>
<path d="M36.9003 8.14166C37.1607 7.88133 37.1607 7.45933 36.9003 7.199L36.147 6.44566L36.9003 5.69233C37.1607 5.432 37.1607 5.01 36.9003 4.74966C36.64 4.48933 36.218 4.48933 35.9577 4.74966L35.2043 5.503L34.451 4.74966C34.1907 4.48933 33.7687 4.48933 33.5083 4.74966C33.248 5.01 33.248 5.432 33.5083 5.69233L34.2617 6.44566L33.5083 7.199C33.248 7.45933 33.248 7.88133 33.5083 8.14166C33.6385 8.27183 33.8092 8.337 33.9797 8.337C34.1502 8.337 34.3208 8.27183 34.451 8.14166L35.2043 7.38833L35.9577 8.14166C36.0878 8.27183 36.2585 8.337 36.429 8.337C36.5995 8.337 36.7702 8.27183 36.9003 8.14166Z" fill="#9F0C6E"/>
<path d="M31.8508 32.9772L29.234 31.7877L26.5377 30.562V30.005C29.0877 28.7852 31.0263 26.5143 31.813 23.7775C32.2433 23.7942 32.6638 23.6698 33.0668 23.4188C33.6857 23.0335 34.104 22.4052 34.1863 21.7385C34.2683 21.0705 34.062 20.4007 33.6193 19.9003C33.3275 19.5703 32.9505 19.3363 32.5368 19.2128C32.5368 19.2128 32.5257 18.703 32.5242 18.6603C33.3055 18.388 33.871 17.6518 33.871 16.779C33.871 16.1902 33.6105 15.6655 33.2043 15.2992V15.1123C33.2043 9.78235 28.8677 5.44568 23.5377 5.44568H22.871C17.541 5.44568 13.2043 9.78235 13.2043 15.1123V15.2992C12.7982 15.6655 12.5377 16.1902 12.5377 16.779C12.5377 17.8818 13.4348 18.779 14.5377 18.779H14.5835C14.5867 18.9433 14.5885 19.0877 14.5885 19.1937C14.1878 19.3023 13.8225 19.5175 13.5253 19.8252C13.0817 20.2848 12.8498 20.8903 12.8723 21.5305C12.898 22.2437 13.3027 22.9322 13.955 23.3727C14.3675 23.651 14.7903 23.7893 15.2297 23.7792C15.9268 26.3268 17.618 28.4645 19.8742 29.7627C19.874 29.7683 19.8708 29.773 19.8708 29.7788V30.5617L17.1742 31.7877C17.174 31.7877 17.1738 31.788 17.1737 31.788L14.5577 32.9767C12.1157 34.0867 10.5375 36.5665 10.5375 39.295V44.7787C10.5375 45.1468 10.836 45.4453 11.2042 45.4453H35.2042C35.5723 45.4453 35.8708 45.1468 35.8708 44.7787V39.295C35.871 36.5667 34.293 34.0868 31.8508 32.9772ZM26.3212 31.928L28.0912 32.7328L26.388 36.756L24.3467 33.898C25.2612 33.5615 25.983 32.8415 26.3212 31.928ZM31.156 18.779C31.1545 18.8907 31.1533 18.998 31.153 19.0915C28.1355 20.7568 25.0375 19.8177 23.0168 18.779H31.156ZM22.871 6.77901H23.5377C28.0202 6.77901 31.6772 10.3392 31.8542 14.779H14.5547C14.7315 10.339 18.3885 6.77901 22.871 6.77901ZM13.871 16.779C13.871 16.4115 14.1702 16.1123 14.5377 16.1123H31.871C32.2385 16.1123 32.5377 16.4115 32.5377 16.779C32.5377 17.1465 32.2385 17.4457 31.871 17.4457H14.5377C14.1702 17.4457 13.871 17.1465 13.871 16.779ZM16.386 22.8848C16.3477 22.6977 16.231 22.5358 16.0653 22.4408C15.9 22.3455 15.7023 22.3262 15.5203 22.3868C15.2632 22.4737 15.0252 22.4868 14.7007 22.2677C14.4052 22.0678 14.215 21.767 14.2048 21.4832C14.195 21.2082 14.2943 20.9483 14.4845 20.7513C14.675 20.554 14.9305 20.4457 15.2042 20.4457C15.3842 20.4457 15.5642 20.3692 15.6898 20.24C15.739 20.1893 15.7783 20.1395 15.8105 20.0787C15.8465 20.0847 15.8817 20.0968 15.9183 20.0968C15.9753 20.0968 16.0327 20.0897 16.0885 20.0747C16.8215 19.881 17.6025 19.4613 18.4095 18.828C18.427 18.8142 18.4353 18.7943 18.4512 18.7792H20.4702C21.6107 19.6075 24.3863 21.3427 27.6257 21.3427C28.8982 21.3427 30.2418 21.0718 31.584 20.3748C31.6743 20.4177 31.771 20.4458 31.8708 20.4458C32.1573 20.4458 32.4303 20.5688 32.6205 20.7837C32.8128 21.0015 32.8988 21.2827 32.8627 21.576C32.8295 21.8468 32.642 22.1128 32.362 22.2873C32.0813 22.4625 31.8435 22.4902 31.5407 22.383C31.3607 22.3195 31.1615 22.3358 30.9945 22.4292C30.8275 22.5223 30.7083 22.6827 30.6677 22.8697C30.018 25.8502 27.8148 28.285 24.9183 29.2238L24.6218 29.3198C23.8058 29.5842 22.9367 29.5948 22.1752 29.3502C19.2275 28.4007 17.0092 25.9235 16.386 22.8848ZM21.7668 30.6192C22.2717 30.7817 22.7975 30.8627 23.3297 30.8627C23.8955 30.8627 24.4687 30.7708 25.0328 30.5883L25.2043 30.5328V30.7792C25.2043 31.882 24.3072 32.7792 23.2043 32.7792C22.1015 32.7792 21.2043 31.882 21.2043 30.7792V30.3982C21.3922 30.4713 21.5735 30.5568 21.7668 30.6192ZM20.0877 31.9278C20.4258 32.8413 21.1477 33.5615 22.0622 33.8978L20.0208 36.7558L18.3177 32.7327L20.0877 31.9278ZM11.871 39.2952C11.871 37.0885 13.1422 35.0848 15.1093 34.1907L17.1033 33.2843L19.2572 38.372C19.3512 38.5943 19.558 38.7483 19.7978 38.775C19.8225 38.7777 19.847 38.7788 19.871 38.7788C20.0848 38.7788 20.2877 38.676 20.4137 38.4995L22.5377 35.5258V44.1122H16.5377V41.4455C16.5377 41.0773 16.2392 40.7788 15.871 40.7788C15.5028 40.7788 15.2043 41.0773 15.2043 41.4455V44.1122H11.871V39.2952ZM34.5377 44.1123H31.871V41.4457C31.871 41.0775 31.5725 40.779 31.2043 40.779C30.8362 40.779 30.5377 41.0775 30.5377 41.4457V44.1123H23.871V35.526L25.995 38.4997C26.121 38.6762 26.3238 38.779 26.5377 38.779C26.5618 38.779 26.5862 38.7777 26.6108 38.7752C26.8507 38.7485 27.0575 38.5945 27.1515 38.3722L29.3053 33.2847L31.2993 34.1912C33.2665 35.085 34.5377 37.0887 34.5377 39.2953V44.1123Z" fill="#9F0C6E"/>
<path d="M26.871 23.1123C27.2392 23.1123 27.5377 22.8138 27.5377 22.4457C27.5377 22.0775 27.2392 21.779 26.871 21.779C26.5028 21.779 26.2043 22.0775 26.2043 22.4457C26.2043 22.8138 26.5028 23.1123 26.871 23.1123Z" fill="#9F0C6E"/>
<path d="M20.2043 23.1123C20.5725 23.1123 20.871 22.8138 20.871 22.4457C20.871 22.0775 20.5725 21.779 20.2043 21.779C19.8361 21.779 19.5377 22.0775 19.5377 22.4457C19.5377 22.8138 19.8361 23.1123 20.2043 23.1123Z" fill="#9F0C6E"/>
<path d="M22.0147 12.053L22.8242 12.0793L21.9447 12.9768C21.6872 13.2395 21.6913 13.6617 21.9545 13.9195C22.084 14.0465 22.2527 14.11 22.421 14.11C22.5938 14.11 22.7667 14.0433 22.8972 13.9098L24.8385 11.9287C25.0233 11.7398 25.0793 11.4597 24.981 11.2138C24.8823 10.9683 24.6483 10.8043 24.3837 10.7958L23.3902 10.7637L24.3762 9.53416C24.6063 9.24699 24.5603 8.82749 24.273 8.59699C23.9865 8.36716 23.5663 8.41299 23.3358 8.70015L21.5158 10.9697C21.358 11.1667 21.3248 11.4358 21.4302 11.6653C21.5362 11.8948 21.762 12.045 22.0147 12.053Z" fill="#9F0C6E"/>
<path d="M42.7718 13.4202C42.6575 13.1982 42.4287 13.0585 42.179 13.0585H41.057L41.8743 8.562C41.9313 8.24917 41.7592 7.93934 41.4628 7.82267C41.166 7.7045 40.8293 7.81417 40.6575 8.0825L36.3355 14.8055C36.2037 15.0105 36.1942 15.2713 36.3112 15.4852C36.428 15.6993 36.6527 15.8325 36.8965 15.8325H38.3457L36.75 20.2202C36.636 20.5333 36.7712 20.8827 37.066 21.0378C37.1647 21.0898 37.271 21.1147 37.3762 21.1147C37.5855 21.1147 37.7898 21.016 37.9188 20.8353L42.7212 14.1123C42.8665 13.9095 42.886 13.6423 42.7718 13.4202ZM39.6712 16.0888L39.9242 15.3938C39.9983 15.1893 39.9685 14.9615 39.8435 14.7835C39.7188 14.6055 39.515 14.4993 39.2977 14.4993H38.1177L39.9613 11.6315L39.6023 13.6062C39.5668 13.8005 39.6198 14.0007 39.7465 14.1523C39.8732 14.304 40.0607 14.392 40.2582 14.392H40.8835L39.6712 16.0888Z" fill="#9F0C6E"/>
<path d="M10.5377 33.2032C10.6213 33.1043 10.6848 32.9868 10.6995 32.8493L10.8487 31.4398C10.892 31.0333 11.0563 30.6872 11.3108 30.4648C12.1947 29.6943 12.7015 28.5898 12.7015 27.4345C12.7015 25.1917 10.8337 23.3672 8.53784 23.3672C6.24201 23.3672 4.37418 25.1917 4.37418 27.4345C4.37418 28.5898 4.88101 29.6943 5.76484 30.4648C6.01934 30.6872 6.18384 31.0332 6.22668 31.4395L6.37601 32.8493C6.39068 32.9868 6.45401 33.1043 6.53784 33.2032V34.1123C6.53784 35.2152 7.43501 36.1123 8.53784 36.1123C9.64068 36.1123 10.5378 35.2152 10.5378 34.1123L10.5377 33.2032ZM5.70734 27.4345C5.70734 25.927 6.97718 24.7005 8.53768 24.7005C10.0982 24.7005 11.368 25.927 11.368 27.4345C11.368 28.2043 11.0278 28.9427 10.4343 29.4602C9.92551 29.9038 9.60168 30.5568 9.52251 31.2987L9.43651 32.1122H9.20401V29.055L10.342 27.917C10.6023 27.6567 10.6023 27.2347 10.342 26.9743C10.0817 26.714 9.65968 26.714 9.39934 26.9743L8.47834 27.8953L7.70684 27.0082C7.46534 26.7305 7.04468 26.7005 6.76634 26.9427C6.48868 27.1842 6.45901 27.6052 6.70084 27.8832L7.87051 29.2282V32.1123H7.63801L7.55168 31.2985C7.47284 30.557 7.14901 29.904 6.64018 29.4603C6.04751 28.9427 5.70734 28.2045 5.70734 27.4345ZM9.20434 34.1123C9.20434 34.4798 8.90518 34.779 8.53768 34.779C8.17018 34.779 7.87101 34.4798 7.87101 34.1123V33.4457H9.20434V34.1123Z" fill="#9F0C6E"/>
<path d="M43.2043 34.1123H41.871V28.3883L43.6757 26.5837C43.8642 26.3952 43.9223 26.1123 43.8235 25.8647L42.4902 22.5313C42.3887 22.2783 42.1435 22.1123 41.871 22.1123H40.5377C40.2652 22.1123 40.0202 22.2783 39.9185 22.5313L38.5852 25.8647C38.4858 26.1133 38.5448 26.3975 38.7348 26.586L40.5375 28.3723V34.1123H39.2042C38.836 34.1123 38.5375 34.4108 38.5375 34.779V42.779C38.5375 44.2493 39.7338 45.4457 41.2042 45.4457C42.6745 45.4457 43.8708 44.2493 43.8708 42.779V34.779C43.871 34.4108 43.5725 34.1123 43.2043 34.1123ZM40.9892 23.4457H41.4195L42.4222 25.9518L41.2112 27.1625L39.9875 25.95L40.9892 23.4457ZM42.5377 42.779C42.5377 43.5143 41.9397 44.1123 41.2043 44.1123C40.469 44.1123 39.871 43.5143 39.871 42.779V35.4457H42.5377V42.779Z" fill="#9F0C6E"/>
<path d="M29.2043 40.1123H25.871C25.5028 40.1123 25.2043 40.4108 25.2043 40.779C25.2043 41.1472 25.5028 41.4457 25.871 41.4457H29.2043C29.5725 41.4457 29.871 41.1472 29.871 40.779C29.871 40.4108 29.5725 40.1123 29.2043 40.1123Z" fill="#9F0C6E"/>
</svg>
