<svg width="128" height="115" viewBox="0 0 128 115" fill="none" xmlns="http://www.w3.org/2000/svg">
<g clip-path="url(#clip0_509_2140)">
<path d="M126.877 43.9783C126.831 43.9784 126.787 43.9643 126.749 43.938L64.6445 0.650002C64.4555 0.518882 64.2309 0.448809 64.0009 0.449201C63.771 0.449594 63.5466 0.520432 63.3581 0.652197L1.70099 43.9376C1.65222 43.9718 1.59187 43.9853 1.5332 43.975C1.47452 43.9647 1.42234 43.9315 1.38814 43.8827C1.35393 43.8338 1.3405 43.7734 1.35079 43.7147C1.36109 43.656 1.39427 43.6038 1.44304 43.5695L63.1002 0.284121C63.3642 0.0996786 63.6783 0.000531678 64.0002 2.13235e-06C64.3222 -0.000527414 64.6366 0.097585 64.9012 0.281158L127.006 43.5691C127.045 43.5965 127.074 43.6356 127.09 43.6809C127.105 43.7262 127.106 43.7753 127.091 43.8209C127.077 43.8666 127.049 43.9065 127.01 43.9348C126.972 43.9631 126.925 43.9783 126.877 43.9783Z" fill="#3F3D56"/>
<path d="M5.22412 45.5127L64.0619 1.86963L123.346 48.6181L67.0935 81.9938L36.5531 75.0264L5.22412 45.5127Z" fill="#E6E6E6"/>
<path d="M39.1311 102.608H10.0639C9.88537 102.609 9.70859 102.574 9.54363 102.506C9.37867 102.437 9.22876 102.337 9.10247 102.211C8.97618 102.085 8.876 101.935 8.80764 101.77C8.73929 101.605 8.7041 101.428 8.7041 101.249C8.7041 101.071 8.73929 100.894 8.80764 100.729C8.876 100.564 8.97618 100.414 9.10247 100.288C9.22876 100.161 9.37867 100.061 9.54363 99.9931C9.70859 99.9249 9.88537 99.8899 10.0639 99.8901H39.1311C39.3096 99.8899 39.4864 99.9249 39.6514 99.9931C39.8163 100.061 39.9662 100.161 40.0925 100.288C40.2188 100.414 40.319 100.564 40.3874 100.729C40.4557 100.894 40.4909 101.071 40.4909 101.249C40.4909 101.428 40.4557 101.605 40.3874 101.77C40.319 101.935 40.2188 102.085 40.0925 102.211C39.9662 102.337 39.8163 102.437 39.6514 102.506C39.4864 102.574 39.3096 102.609 39.1311 102.608Z" fill="#25BAFF"/>
<path d="M20.4926 96.7652H10.0639C9.88537 96.7654 9.70859 96.7304 9.54363 96.6622C9.37867 96.594 9.22876 96.494 9.10247 96.3677C8.97618 96.2415 8.876 96.0916 8.80764 95.9266C8.73929 95.7616 8.7041 95.5847 8.7041 95.406C8.7041 95.2274 8.73929 95.0505 8.80764 94.8855C8.876 94.7205 8.97618 94.5706 9.10247 94.4443C9.22876 94.3181 9.37867 94.218 9.54363 94.1498C9.70859 94.0816 9.88537 94.0466 10.0639 94.0469H20.4926C20.671 94.0466 20.8478 94.0816 21.0128 94.1498C21.1777 94.218 21.3277 94.3181 21.4539 94.4443C21.5802 94.5706 21.6804 94.7205 21.7488 94.8855C21.8171 95.0505 21.8523 95.2274 21.8523 95.406C21.8523 95.5847 21.8171 95.7616 21.7488 95.9266C21.6804 96.0916 21.5802 96.2415 21.4539 96.3677C21.3277 96.494 21.1777 96.594 21.0128 96.6622C20.8478 96.7304 20.671 96.7654 20.4926 96.7652Z" fill="#25BAFF"/>
<path d="M64.8894 69.8214C64.6684 69.8216 64.4496 69.7787 64.2451 69.6951L27.958 54.6257V7.45608C27.9585 7.03897 28.1243 6.63909 28.4189 6.34415C28.7136 6.04921 29.1132 5.8833 29.5299 5.88281H99.144C99.5607 5.8833 99.9603 6.04921 100.255 6.34415C100.55 6.63909 100.715 7.03897 100.716 7.45608V54.6586L100.648 54.6878L65.5532 69.6877C65.343 69.7761 65.1173 69.8215 64.8894 69.8214Z" fill="white"/>
<path d="M64.8893 69.9337C64.6538 69.934 64.4204 69.8883 64.2023 69.7992L27.8457 54.7008V7.45615C27.8462 7.00924 28.0238 6.58079 28.3396 6.26478C28.6553 5.94877 29.0834 5.77101 29.5299 5.77051H99.1439C99.5905 5.77101 100.019 5.94877 100.334 6.26478C100.65 6.58079 100.828 7.00924 100.828 7.45615V54.7329L65.5972 69.7911C65.3731 69.8854 65.1325 69.9339 64.8893 69.9337ZM28.2948 54.4006L64.3735 69.3836C64.7101 69.5202 65.0869 69.518 65.4218 69.3773L100.379 54.4361V7.45615C100.379 7.12842 100.248 6.81423 100.017 6.5825C99.7853 6.35076 99.4714 6.2204 99.144 6.22001H29.5299C29.2025 6.2204 28.8886 6.35076 28.657 6.5825C28.4255 6.81423 28.2952 7.12842 28.2948 7.45615L28.2948 54.4006Z" fill="#3F3D56"/>
<path d="M126.428 43.5288H126.383L100.604 54.5462L65.3317 69.6203C65.1939 69.6783 65.046 69.7086 64.8965 69.7093C64.7469 69.7101 64.5987 69.6814 64.4603 69.6248L28.0702 54.5147L1.65724 43.5468L1.61689 43.5288H1.57193C1.15517 43.5293 0.755611 43.6952 0.460917 43.9901C0.166223 44.2851 0.000462428 44.685 0 45.1021V113.427C0.000463021 113.844 0.166223 114.244 0.460917 114.539C0.755611 114.834 1.15517 115 1.57193 115H126.428C126.845 115 127.244 114.834 127.539 114.539C127.834 114.244 128 113.844 128 113.427V45.1021C128 44.685 127.834 44.2851 127.539 43.9901C127.244 43.6952 126.845 43.5293 126.428 43.5288ZM127.551 113.427C127.551 113.725 127.432 114.01 127.222 114.221C127.011 114.432 126.726 114.55 126.428 114.55H1.57193C1.27418 114.55 0.98866 114.432 0.778118 114.221C0.567577 114.01 0.449242 113.725 0.449123 113.427V45.1021C0.44953 44.8115 0.562158 44.5323 0.763459 44.3228C0.964761 44.1134 1.23915 43.99 1.52928 43.9783L28.0702 55.0002L64.2875 70.0406C64.6795 70.2002 65.1188 70.1978 65.5091 70.0338L100.604 55.0339L126.473 43.9783C126.763 43.9908 127.036 44.1146 127.237 44.3239C127.438 44.5332 127.55 44.8119 127.551 45.1021V113.427Z" fill="#3F3D56"/>
<path d="M64.5265 56.4459C63.1869 56.4484 61.8828 56.0148 60.8109 55.2106L60.7445 55.1607L46.7518 44.4383C46.1038 43.9414 45.5599 43.3216 45.1512 42.6142C44.7425 41.9069 44.4771 41.126 44.3699 40.316C44.2628 39.506 44.3161 38.6828 44.5269 37.8934C44.7376 37.104 45.1016 36.3639 45.5981 35.7153C46.0946 35.0667 46.7139 34.5224 47.4207 34.1134C48.1274 33.7043 48.9077 33.4386 49.717 33.3314C50.5263 33.2242 51.3488 33.2775 52.1375 33.4885C52.9262 33.6994 53.6657 34.0637 54.3137 34.5606L63.3771 41.5162L84.7953 13.56C85.292 12.9116 85.9115 12.3675 86.6184 11.9587C87.3252 11.5499 88.1056 11.2845 88.915 11.1775C89.7243 11.0706 90.5468 11.1243 91.3354 11.3355C92.1241 11.5467 92.8634 11.9113 93.5113 12.4085L93.3781 12.5895L93.5147 12.4111C94.8215 13.4164 95.6766 14.8993 95.8923 16.5347C96.108 18.1701 95.6667 19.8244 94.6653 21.1346L69.4723 54.0177C68.8897 54.7755 68.1404 55.3887 67.2827 55.8098C66.425 56.2309 65.4818 56.4485 64.5265 56.4459Z" fill="#25BAFF"/>
</g>
<defs>
<clipPath id="clip0_509_2140">
<rect width="128" height="115" fill="white"/>
</clipPath>
</defs>
</svg>
