<svg width="14" height="14" viewBox="0 0 14 14" fill="none" xmlns="http://www.w3.org/2000/svg">
<path d="M6.67852 7.45742L6.70573 7.47507L6.73294 7.45742L11.5613 4.32504C11.5943 4.43296 11.6141 4.5507 11.6141 4.66797V9.91797C11.6141 10.2141 11.4964 10.4982 11.287 10.7076C11.0776 10.917 10.7936 11.0346 10.4974 11.0346H2.91406C2.6179 11.0346 2.33388 10.917 2.12446 10.7076C1.91504 10.4982 1.7974 10.2141 1.7974 9.91797V4.66797C1.7974 4.5507 1.81716 4.43296 1.85016 4.32504L6.67852 7.45742ZM10.4974 2.86797H2.91406C2.43667 2.86797 1.97884 3.05761 1.64127 3.39518C1.3037 3.73274 1.11406 4.19058 1.11406 4.66797V9.91797C1.11406 10.3954 1.3037 10.8532 1.64127 11.1908C1.97884 11.5283 2.43667 11.718 2.91406 11.718H10.4974C10.9748 11.718 11.4326 11.5283 11.7702 11.1908C12.1078 10.8532 12.2974 10.3954 12.2974 9.91797V4.66797C12.2974 4.19058 12.1078 3.73274 11.7702 3.39518C11.4326 3.05761 10.9748 2.86797 10.4974 2.86797ZM10.4974 3.5513C10.7525 3.5513 10.9786 3.63024 11.1597 3.7705L6.70573 6.6501L2.25181 3.7705C2.4329 3.63024 2.65891 3.5513 2.91406 3.5513H10.4974Z" fill="white" stroke="white" stroke-width="0.1"/>
</svg>
