<svg width="163" height="144" viewBox="0 0 163 144" fill="none" xmlns="http://www.w3.org/2000/svg">
<path d="M81.4951 113.276C82.2432 113.276 82.8495 112.669 82.8495 111.922C82.8495 111.174 82.2432 110.567 81.4951 110.567C80.7471 110.567 80.1408 111.174 80.1408 111.922C80.1408 112.669 80.7471 113.276 81.4951 113.276Z" fill="#4A5059"/>
<path d="M42.148 11.3077V17.2506" stroke="#2399F5" stroke-width="2" stroke-linecap="round" stroke-linejoin="round"/>
<path d="M39.1764 14.2791H45.1331" stroke="#2399F5" stroke-width="2" stroke-linecap="round" stroke-linejoin="round"/>
<path d="M109.814 48.8167C98.2319 48.8167 86.4704 48.3469 75.4554 45.2786C64.4403 42.2103 54.7245 36.4611 45.8792 29.7304C40.0747 25.3494 34.8228 21.8526 27.2906 22.3778C19.9392 22.7738 12.9093 25.521 7.23676 30.214C-2.34098 38.5893 -0.889643 54.0823 2.92461 64.9728C8.68784 81.3502 26.1985 92.7524 41.0557 100.174C58.2346 108.757 77.0999 113.746 96.0341 116.607C112.619 119.136 133.916 120.96 148.29 110.125C161.502 100.174 165.123 77.4527 161.889 62.112C161.1 57.5783 158.682 53.4893 155.089 50.6134C145.816 43.8275 131.981 48.3607 121.561 48.5817C117.691 48.6646 113.766 48.8167 109.814 48.8167Z" fill="#25BAFF" fill-opacity="0.3"/>
<path d="M91.0865 3.20884C91.8345 3.20884 92.4409 2.60251 92.4409 1.85448C92.4409 1.10645 91.8345 0.500122 91.0865 0.500122C90.3385 0.500122 89.7322 1.10645 89.7322 1.85448C89.7322 2.60225 90.3385 3.20884 91.0865 3.20884Z" fill="#2399F5"/>
<path d="M20.7259 108.674V114.617" stroke="#2399F5" stroke-width="2" stroke-linecap="round" stroke-linejoin="round"/>
<path d="M17.7407 111.645H23.6973" stroke="#2399F5" stroke-width="2" stroke-linecap="round" stroke-linejoin="round"/>
<path d="M82.0619 143.502C110.082 143.502 132.797 142.085 132.797 140.337C132.797 138.588 110.082 137.172 82.0619 137.172C54.0413 137.172 31.3264 138.588 31.3264 140.337C31.3264 142.085 54.0413 143.502 82.0619 143.502Z" fill="#25BAFF" fill-opacity="0.66"/>
<path d="M122.833 106.435H35.2098C34.6233 106.435 34.044 106.306 33.5118 106.06C32.9795 105.814 32.5071 105.455 32.1272 105.009C31.7474 104.561 31.4692 104.037 31.3116 103.472C31.1543 102.908 31.1216 102.315 31.2157 101.736L42.4104 33.7661C42.5674 32.8202 43.0552 31.9606 43.7866 31.3405C44.518 30.7204 45.4457 30.3801 46.4046 30.3801H134C134.586 30.3806 135.166 30.5083 135.698 30.7547C136.23 31.0012 136.703 31.3603 137.082 31.807C137.462 32.2539 137.741 32.7778 137.897 33.3428C138.055 33.9078 138.088 34.5001 137.994 35.0791L126.799 103.049C126.646 103.991 126.162 104.848 125.436 105.469C124.709 106.088 123.788 106.431 122.833 106.435Z" fill="#97DEFF" stroke="white" stroke-width="2" stroke-miterlimit="10"/>
<path d="M123.901 28.5987L71.8826 5.37313C70.3491 4.68854 68.5512 5.37651 67.8666 6.90975L51.3798 43.8354C50.6952 45.3687 51.3832 47.1668 52.9167 47.8512L104.936 71.077C106.469 71.7616 108.267 71.0736 108.951 69.5401L125.438 32.6145C126.123 31.0812 125.435 29.2833 123.901 28.5987Z" fill="#97DEFF" stroke="white" stroke-width="2" stroke-miterlimit="10"/>
<path d="M79.5187 35.7563C80.9048 33.8765 82.8918 32.5271 85.1499 31.9317C87.4083 31.3362 89.8021 31.5305 91.9349 32.4823C94.0677 33.4342 95.8108 35.0863 96.8758 37.165C97.9408 39.2435 98.2632 41.6235 97.7897 43.9105" stroke="#2399F5" stroke-width="2" stroke-linecap="round" stroke-linejoin="round"/>
<path d="M104.409 33.6691C105.196 33.6691 105.833 33.0319 105.833 32.2456C105.833 31.4596 105.196 30.8221 104.409 30.8221C103.623 30.8221 102.986 31.4596 102.986 32.2456C102.986 33.0319 103.623 33.6691 104.409 33.6691Z" fill="#2399F5"/>
<path d="M83.7894 24.4648C84.5756 24.4648 85.2129 23.8276 85.2129 23.0413C85.2129 22.2553 84.5756 21.6178 83.7894 21.6178C83.0034 21.6178 82.3659 22.2553 82.3659 23.0413C82.3659 23.8276 83.0034 24.4648 83.7894 24.4648Z" fill="#2399F5"/>
<path d="M122.446 106.407H34.3944C33.8622 106.409 33.3349 106.305 32.8427 106.103C32.3505 105.9 31.9036 105.602 31.5271 105.226C31.1509 104.849 30.8524 104.402 30.6496 103.91C30.4468 103.418 30.3433 102.89 30.3451 102.358V40.1656C30.3433 39.6344 30.4463 39.1081 30.6483 38.617C30.8503 38.1258 31.1472 37.6792 31.5222 37.3032C31.8971 36.9272 32.3425 36.6285 32.8331 36.4246C33.3237 36.2211 33.8495 36.1163 34.3806 36.1163H66.4445C67.1912 36.1165 67.9234 36.323 68.5599 36.7132C69.1964 37.1035 69.7127 37.6623 70.0518 38.3276L74.6263 47.2834C74.963 47.9477 75.4768 48.5059 76.1112 48.896C76.7453 49.2862 77.4751 49.4934 78.2198 49.4947H122.446C123.517 49.4947 124.545 49.9193 125.304 50.6759C126.062 51.4325 126.491 52.4588 126.495 53.5305V102.359C126.495 102.891 126.39 103.417 126.187 103.908C125.984 104.4 125.685 104.846 125.31 105.222C124.934 105.598 124.487 105.897 123.995 106.1C123.504 106.302 122.978 106.407 122.446 106.407Z" fill="#97DEFF" stroke="white" stroke-width="2" stroke-miterlimit="10"/>
<path d="M108.929 51.5811C103.842 51.5811 98.8693 53.0896 94.6395 55.9158C90.4098 58.7418 87.1135 62.7589 85.1666 67.4587C83.2199 72.1585 82.7106 77.3297 83.703 82.3189C84.6954 87.3081 87.1449 91.8912 90.7421 95.4881C94.3392 99.085 98.922 101.535 103.911 102.526C108.9 103.519 114.072 103.01 118.772 101.063C123.471 99.1167 127.489 95.8201 130.315 91.5904C133.141 87.3606 134.649 82.3878 134.649 77.3008C134.651 73.9226 133.987 70.5774 132.695 67.4561C131.403 64.3347 129.51 61.4986 127.12 59.11C124.732 56.7213 121.896 54.8269 118.774 53.535C115.653 52.2433 112.307 51.5792 108.929 51.5811Z" fill="#97DEFF" stroke="white" stroke-width="2" stroke-miterlimit="10"/>
<path d="M127.2 95.9862L134.055 102.841" stroke="white" stroke-width="3.6146" stroke-linecap="round" stroke-linejoin="round"/>
<path d="M133.274 99.5269L131.144 101.755C130.189 102.753 130.225 104.337 131.223 105.292L149.706 122.959C150.705 123.914 152.287 123.878 153.242 122.88L155.372 120.652C156.327 119.653 156.291 118.071 155.292 117.116L136.811 99.4476C135.812 98.4929 134.228 98.5282 133.274 99.5269Z" fill="#97DEFF"/>
<path d="M146.95 1.85413V7.8108" stroke="#2399F5" stroke-width="2" stroke-linecap="round" stroke-linejoin="round"/>
<path d="M143.978 4.8396H149.935" stroke="#2399F5" stroke-width="2" stroke-linecap="round" stroke-linejoin="round"/>
</svg>
