<svg width="19" height="19" viewBox="0 0 19 19" fill="none" xmlns="http://www.w3.org/2000/svg">
<path d="M15.6875 5H12.875C12.875 4.10489 12.5194 3.24645 11.8865 2.61351C11.2536 1.98058 10.3951 1.625 9.5 1.625C8.60489 1.625 7.74645 1.98058 7.11351 2.61351C6.48058 3.24645 6.125 4.10489 6.125 5H3.3125C3.01413 5 2.72798 5.11853 2.517 5.3295C2.30603 5.54048 2.1875 5.82663 2.1875 6.125V14.5625C2.1875 14.8609 2.30603 15.147 2.517 15.358C2.72798 15.569 3.01413 15.6875 3.3125 15.6875H15.6875C15.9859 15.6875 16.272 15.569 16.483 15.358C16.694 15.147 16.8125 14.8609 16.8125 14.5625V6.125C16.8125 5.82663 16.694 5.54048 16.483 5.3295C16.272 5.11853 15.9859 5 15.6875 5ZM9.5 2.75C10.0967 2.75 10.669 2.98705 11.091 3.40901C11.5129 3.83097 11.75 4.40326 11.75 5H7.25C7.25 4.40326 7.48705 3.83097 7.90901 3.40901C8.33097 2.98705 8.90326 2.75 9.5 2.75ZM15.6875 14.5625H3.3125V6.125H15.6875V14.5625Z" fill="#25BAFF"/>
</svg>
