<svg width="21" height="20" viewBox="0 0 21 20" fill="none" xmlns="http://www.w3.org/2000/svg">
<g clip-path="url(#clip0_2319_6786)">
<mask id="mask0_2319_6786" style="mask-type:luminance" maskUnits="userSpaceOnUse" x="0" y="-1" width="21" height="21">
<path d="M0.5 -0.000120163H20.5V19.9999H0.5V-0.000120163Z" fill="white"/>
</mask>
<g mask="url(#mask0_2319_6786)">
<path d="M1.3562 2.52869V1.39787C1.3562 0.787397 1.85104 0.292593 2.46159 0.292593H14.6664C15.2769 0.292593 15.7718 0.787397 15.7718 1.39787V1.73505" stroke="white" stroke-miterlimit="10" stroke-linecap="round" stroke-linejoin="round"/>
<path d="M15.7718 12.6933V18.6015C15.7718 19.212 15.2769 19.7068 14.6664 19.7068H2.46159C1.85105 19.7068 1.3562 19.212 1.3562 18.6015V3.81894" stroke="white" stroke-miterlimit="10" stroke-linecap="round" stroke-linejoin="round"/>
<path d="M7.86416 5.77498L7.3328 5.96752C6.90467 6.12275 6.59018 6.49209 6.50428 6.93908L6.3894 7.54088C6.30393 7.98553 6.64506 8.39795 7.09795 8.39795H8.57233H10.0298C10.4792 8.39795 10.8196 7.99178 10.7404 7.54951L10.6333 6.95119C10.5522 6.49717 10.2353 6.12119 9.80202 5.96396L9.2503 5.764" stroke="white" stroke-width="0.585937" stroke-miterlimit="10" stroke-linecap="round" stroke-linejoin="round"/>
<path d="M8.96297 5.03003H9.25039V5.76397V5.95882V5.95925C8.85316 6.30581 8.26109 6.30581 7.86426 5.95882V5.77495V5.03003H8.14227" stroke="white" stroke-width="0.585937" stroke-miterlimit="10" stroke-linecap="round" stroke-linejoin="round"/>
<path d="M9.65836 3.19799V3.98538C9.65836 4.6028 9.15301 5.1228 8.53562 5.11088C7.9373 5.09936 7.45605 4.61084 7.45605 4.00998V3.19799C7.45605 2.58995 7.94906 2.09694 8.55723 2.09694C9.16539 2.09694 9.65836 2.58995 9.65836 3.19799Z" stroke="white" stroke-width="0.585937" stroke-miterlimit="10" stroke-linecap="round" stroke-linejoin="round"/>
<path d="M8.32056 3.35532C8.5156 3.49211 8.91923 3.48594 9.33208 3.32063C9.42251 3.28446 9.50735 3.24297 9.58517 3.19797" stroke="white" stroke-width="0.585937" stroke-miterlimit="10" stroke-linecap="round" stroke-linejoin="round"/>
<path d="M3.948 13.4138H13.0718" stroke="white" stroke-width="0.585937" stroke-miterlimit="10" stroke-linecap="round" stroke-linejoin="round"/>
<path d="M3.948 14.9935H13.0718" stroke="white" stroke-width="0.585937" stroke-miterlimit="10" stroke-linecap="round" stroke-linejoin="round"/>
<path d="M3.948 16.5732H13.0718" stroke="white" stroke-width="0.585937" stroke-miterlimit="10" stroke-linecap="round" stroke-linejoin="round"/>
<path d="M3.948 18.153H13.0718" stroke="white" stroke-width="0.585937" stroke-miterlimit="10" stroke-linecap="round" stroke-linejoin="round"/>
<path d="M3.948 10.2544H13.0718" stroke="white" stroke-width="0.585937" stroke-miterlimit="10" stroke-linecap="round" stroke-linejoin="round"/>
<path d="M3.948 11.8341H13.0718" stroke="white" stroke-width="0.585937" stroke-miterlimit="10" stroke-linecap="round" stroke-linejoin="round"/>
<path d="M3.16022 13.4138C3.16022 13.5762 3.02854 13.7079 2.86612 13.7079C2.70366 13.7079 2.57202 13.5762 2.57202 13.4138C2.57202 13.2514 2.70366 13.1198 2.86612 13.1198C3.02854 13.1198 3.16022 13.2514 3.16022 13.4138Z" fill="white"/>
<path d="M3.16022 10.2544C3.16022 10.4168 3.02854 10.5485 2.86612 10.5485C2.70366 10.5485 2.57202 10.4168 2.57202 10.2544C2.57202 10.092 2.70366 9.96038 2.86612 9.96038C3.02854 9.96038 3.16022 10.092 3.16022 10.2544Z" fill="white"/>
<path d="M3.16022 11.8341C3.16022 11.9965 3.02854 12.1282 2.86612 12.1282C2.70366 12.1282 2.57202 11.9965 2.57202 11.8341C2.57202 11.6717 2.70366 11.5401 2.86612 11.5401C3.02854 11.5401 3.16022 11.6717 3.16022 11.8341Z" fill="white"/>
<path d="M3.16022 14.9936C3.16022 15.156 3.02854 15.2876 2.86612 15.2876C2.70366 15.2876 2.57202 15.156 2.57202 14.9936C2.57202 14.8312 2.70366 14.6995 2.86612 14.6995C3.02854 14.6995 3.16022 14.8312 3.16022 14.9936Z" fill="white"/>
<path d="M3.16022 16.5732C3.16022 16.7357 3.02854 16.8673 2.86612 16.8673C2.70366 16.8673 2.57202 16.7357 2.57202 16.5732C2.57202 16.4109 2.70366 16.2792 2.86612 16.2792C3.02854 16.2792 3.16022 16.4109 3.16022 16.5732Z" fill="white"/>
<path d="M3.16022 18.153C3.16022 18.3153 3.02854 18.447 2.86612 18.447C2.70366 18.447 2.57202 18.3153 2.57202 18.153C2.57202 17.9906 2.70366 17.8589 2.86612 17.8589C3.02854 17.8589 3.16022 17.9906 3.16022 18.153Z" fill="white"/>
<path d="M14.4216 8.73127V13.3856C14.4216 13.5165 14.5722 13.5899 14.6753 13.5091L15.6749 12.7265C15.7031 12.7042 15.7376 12.6932 15.7717 12.6932C15.8058 12.6932 15.8403 12.7042 15.8686 12.7265L16.8681 13.5091C16.9712 13.5899 17.1222 13.5165 17.1222 13.3856V10.1161" stroke="white" stroke-miterlimit="10" stroke-linecap="round" stroke-linejoin="round"/>
<path d="M19.6441 5.60651C19.6441 6.09956 19.0934 6.47959 18.9156 6.90834C18.7313 7.3528 18.845 8.00924 18.51 8.3442C18.175 8.67913 17.5185 8.56542 17.074 8.74971C16.6452 8.92752 16.2651 9.47815 15.772 9.47815C15.2789 9.47815 14.8988 8.92752 14.47 8.74971C14.0255 8.56538 13.369 8.67913 13.034 8.34417C12.699 8.00924 12.8128 7.3528 12.6284 6.90834C12.4506 6.47959 11.8999 6.09956 11.8999 5.60651C11.8999 5.11346 12.4506 4.73342 12.6284 4.30467C12.8128 3.86022 12.699 3.20377 13.034 2.86881C13.369 2.53389 14.0255 2.6476 14.47 2.46331C14.8988 2.28549 15.2789 1.73487 15.772 1.73487C16.2651 1.73487 16.6452 2.28549 17.074 2.46331C17.5185 2.64764 18.1751 2.53389 18.51 2.86885C18.845 3.20378 18.7313 3.86022 18.9156 4.30467C19.0934 4.73342 19.6441 5.11346 19.6441 5.60651Z" stroke="white" stroke-miterlimit="10" stroke-linecap="round" stroke-linejoin="round"/>
<path d="M15.8359 3.69549L16.4565 4.62241C16.4667 4.6376 16.482 4.6487 16.4996 4.6537L17.573 4.95741C17.6258 4.97237 17.6465 5.03612 17.6126 5.07924L16.9227 5.95581C16.9114 5.97022 16.9056 5.98815 16.9063 6.00647L16.9491 7.12104C16.9512 7.17592 16.8969 7.2153 16.8454 7.19635L15.7985 6.81124C15.7813 6.80491 15.7624 6.80491 15.7452 6.81124L14.6983 7.19635C14.6468 7.2153 14.5925 7.17592 14.5947 7.12104L14.6374 6.00647C14.6381 5.98815 14.6323 5.97022 14.6209 5.95581L13.9311 5.07924C13.8972 5.03612 13.9179 4.97237 13.9707 4.95741L15.0441 4.6537C15.0618 4.6487 15.077 4.6376 15.0872 4.62241L15.7078 3.69549C15.7383 3.64991 15.8054 3.64991 15.8359 3.69549Z" stroke="white" stroke-miterlimit="10" stroke-linecap="round" stroke-linejoin="round"/>
</g>
</g>
<defs>
<clipPath id="clip0_2319_6786">
<rect width="20" height="20" fill="white" transform="translate(0.5)"/>
</clipPath>
</defs>
</svg>
