<svg width="25" height="14" viewBox="0 0 25 14" fill="none" xmlns="http://www.w3.org/2000/svg">
<path d="M1.25 8.25C5.75 -1.75 19.25 -1.75 23.75 8.25" stroke="#FFC300" stroke-width="1.5" stroke-linecap="round" stroke-linejoin="round"/>
<path d="M12.5 13.25C12.0075 13.25 11.5199 13.153 11.0649 12.9645C10.61 12.7761 10.1966 12.4999 9.84835 12.1517C9.50013 11.8034 9.22391 11.39 9.03545 10.9351C8.847 10.4801 8.75 9.99246 8.75 9.5C8.75 9.00754 8.847 8.51991 9.03545 8.06494C9.22391 7.60997 9.50013 7.19657 9.84835 6.84835C10.1966 6.50013 10.61 6.22391 11.0649 6.03545C11.5199 5.847 12.0075 5.75 12.5 5.75C13.4946 5.75 14.4484 6.14509 15.1517 6.84835C15.8549 7.55161 16.25 8.50544 16.25 9.5C16.25 10.4946 15.8549 11.4484 15.1517 12.1517C14.4484 12.8549 13.4946 13.25 12.5 13.25Z" stroke="#FFC300" stroke-width="1.5" stroke-linecap="round" stroke-linejoin="round"/>
</svg>
