<svg width="24" height="25" viewBox="0 0 24 25" fill="none" xmlns="http://www.w3.org/2000/svg">
<g clip-path="url(#clip0_2931_3639)">
<path d="M19.875 7.1026C20.575 7.5006 21.005 8.2456 21 9.0506V16.3346C21 17.1436 20.557 17.8896 19.842 18.2826L13.092 22.5526C12.7574 22.7363 12.3818 22.8327 12 22.8327C11.6182 22.8327 11.2426 22.7363 10.908 22.5526L4.158 18.2826C3.80817 18.0914 3.51612 17.8098 3.31241 17.4671C3.1087 17.1244 3.0008 16.7333 3 16.3346V9.0496C3 8.2406 3.443 7.4956 4.158 7.1026L10.908 3.1226C11.2525 2.93263 11.6396 2.83301 12.033 2.83301C12.4264 2.83301 12.8135 2.93263 13.158 3.1226L19.908 7.1026H19.875Z" stroke="#0085FE" stroke-width="1.5" stroke-linecap="round" stroke-linejoin="round"/>
<path d="M12 16.833V16.843" stroke="#0085FE" stroke-width="1.5" stroke-linecap="round" stroke-linejoin="round"/>
<path d="M12 13.8328C12.4498 13.8341 12.8868 13.6838 13.2407 13.4062C13.5945 13.1286 13.8444 12.7398 13.95 12.3026C14.0557 11.8654 14.0109 11.4054 13.8229 10.9968C13.6349 10.5883 13.3147 10.255 12.914 10.0508C12.5162 9.84698 12.0611 9.7838 11.6228 9.87149C11.1845 9.95919 10.7888 10.1926 10.5 10.5338" stroke="#0085FE" stroke-width="1.5" stroke-linecap="round" stroke-linejoin="round"/>
</g>
<defs>
<clipPath id="clip0_2931_3639">
<rect width="24" height="24" fill="white" transform="translate(0 0.833008)"/>
</clipPath>
</defs>
</svg>
