<svg width="39" height="38" viewBox="0 0 39 38" fill="none" xmlns="http://www.w3.org/2000/svg">
<path d="M22.9547 3.43289L26.1814 9.88622C26.6214 10.7846 27.7947 11.6462 28.7847 11.8112L34.633 12.7829C38.373 13.4062 39.253 16.1196 36.558 18.7962L32.0114 23.3429C31.2414 24.1129 30.8197 25.5979 31.058 26.6612L32.3597 32.2896C33.3864 36.7446 31.0214 38.4679 27.0797 36.1396L21.598 32.8946C20.608 32.3079 18.9764 32.3079 17.968 32.8946L12.4864 36.1396C8.56302 38.4679 6.17969 36.7262 7.20635 32.2896L8.50802 26.6612C8.74635 25.5979 8.32469 24.1129 7.55469 23.3429L3.00802 18.7962C0.331354 16.1196 1.19302 13.4062 4.93302 12.7829L10.7814 11.8112C11.753 11.6462 12.9264 10.7846 13.3664 9.88622L16.593 3.43289C18.353 -0.068776 21.213 -0.068776 22.9547 3.43289Z" fill="#2399F5"/>
<path d="M15.6025 18.1174C16.2902 18.1174 16.8477 17.5599 16.8477 16.8722C16.8477 16.1844 16.2902 15.627 15.6025 15.627C14.9148 15.627 14.3573 16.1844 14.3573 16.8722C14.3573 17.5599 14.9148 18.1174 15.6025 18.1174Z" fill="#1C252D"/>
<path d="M24.0576 18.1174C24.7453 18.1174 25.3028 17.5599 25.3028 16.8722C25.3028 16.1844 24.7453 15.627 24.0576 15.627C23.3699 15.627 22.8124 16.1844 22.8124 16.8722C22.8124 17.5599 23.3699 18.1174 24.0576 18.1174Z" fill="#1C252D"/>
<path d="M24.6475 23.356C24.6421 23.3784 24.6408 23.387 24.6385 23.3985L24.6327 23.4297L24.6219 23.4861C24.6143 23.5228 24.6062 23.5565 24.5981 23.5911C24.5819 23.6586 24.5623 23.7242 24.5428 23.7892C24.5017 23.9165 24.4534 24.0413 24.3982 24.1631C24.2876 24.4059 24.1519 24.6364 23.9935 24.8511C23.6702 25.2826 23.2688 25.6495 22.81 25.9327C22.5827 26.0716 22.3449 26.1926 22.0989 26.2947C21.8568 26.3934 21.6079 26.4742 21.354 26.5364C20.8631 26.6558 20.3598 26.7162 19.8546 26.7163C19.3558 26.7215 18.858 26.6702 18.3707 26.5634L18.1843 26.5198C18.1223 26.5056 18.0602 26.4851 17.9986 26.4681C17.937 26.451 17.875 26.4339 17.8136 26.4114L17.6297 26.3471C17.3831 26.2562 17.1439 26.1462 16.9145 26.018C16.6819 25.8882 16.4609 25.7388 16.2539 25.5712C16.0468 25.4014 15.8559 25.2126 15.6838 25.0073C15.6408 24.9561 15.6006 24.9021 15.5597 24.85C15.5188 24.7978 15.4805 24.742 15.4434 24.6865C15.3691 24.5752 15.3009 24.4599 15.2391 24.3412C15.1763 24.2217 15.1211 24.0985 15.0736 23.9722C15.0511 23.9081 15.0275 23.8429 15.0075 23.7753C14.9976 23.7402 14.9879 23.7078 14.9785 23.6698L14.9648 23.6129L14.9574 23.5815C14.9544 23.5691 14.9531 23.5619 14.9461 23.5376C14.886 23.3679 14.8959 23.1812 14.9734 23.0187C15.051 22.8562 15.1899 22.7311 15.3597 22.671C15.5294 22.6109 15.7161 22.6208 15.8786 22.6983C16.0412 22.7759 16.1662 22.9148 16.2263 23.0846C16.224 23.0729 16.2276 23.0779 16.2294 23.0781C16.2312 23.0783 16.2344 23.0812 16.2371 23.0835C16.2398 23.0857 16.2486 23.0931 16.2553 23.0997L16.294 23.1383C16.3216 23.1658 16.3493 23.1943 16.3787 23.2222C16.4361 23.2791 16.4983 23.3346 16.5604 23.3881C16.6845 23.4944 16.8157 23.5921 16.9532 23.6804C17.0885 23.7679 17.2293 23.8468 17.3745 23.9167C17.5204 23.9852 17.6699 24.0458 17.8224 24.0981C17.9773 24.1512 18.1349 24.1963 18.2945 24.233C18.3761 24.2503 18.4564 24.2695 18.5402 24.2827C18.5818 24.2899 18.6221 24.2989 18.6646 24.3052L18.7912 24.3236C19.1403 24.3705 19.4924 24.3925 19.8447 24.3895C20.191 24.3902 20.5368 24.3637 20.8789 24.3104C21.0414 24.2849 21.2025 24.2513 21.3616 24.2096C21.5179 24.1681 21.6692 24.1175 21.8183 24.0617C22.1152 23.9452 22.396 23.7912 22.6537 23.6033C22.786 23.5056 22.9118 23.3995 23.0303 23.2856C23.0892 23.2274 23.1486 23.168 23.2039 23.1071L23.2453 23.0621L23.2848 23.0171L23.3222 22.9749C23.3289 22.9677 23.3343 22.9623 23.3397 22.9569C23.3418 22.9543 23.3444 22.9521 23.3473 22.9504C23.3496 22.9504 23.3527 22.9452 23.3512 22.9553C23.3775 22.8701 23.4203 22.7909 23.4772 22.7223C23.5341 22.6536 23.604 22.5968 23.6829 22.5552C23.7617 22.5135 23.848 22.4878 23.9368 22.4795C24.0256 22.4712 24.1151 22.4805 24.2003 22.5068C24.2855 22.5331 24.3647 22.5759 24.4334 22.6328C24.5021 22.6897 24.5588 22.7596 24.6005 22.8385C24.6421 22.9173 24.6678 23.0036 24.6761 23.0924C24.6845 23.1812 24.6752 23.2708 24.6489 23.356H24.6475Z" fill="#1C252D"/>
</svg>
