<svg width="21" height="22" viewBox="0 0 21 22" fill="none" xmlns="http://www.w3.org/2000/svg">
<path d="M18.5938 11.0011H7.78313M3.96725 11.0011H2.40625M3.96725 11.0011C3.96725 10.4952 4.16822 10.01 4.52594 9.65232C4.88367 9.29459 5.36885 9.09362 5.87475 9.09362C6.38065 9.09362 6.86583 9.29459 7.22356 9.65232C7.58128 10.01 7.78225 10.4952 7.78225 11.0011C7.78225 11.507 7.58128 11.9922 7.22356 12.3499C6.86583 12.7077 6.38065 12.9086 5.87475 12.9086C5.36885 12.9086 4.88367 12.7077 4.52594 12.3499C4.16822 11.9922 3.96725 11.507 3.96725 11.0011ZM18.5938 16.7823H13.5642M13.5642 16.7823C13.5642 17.2883 13.3628 17.774 13.005 18.1318C12.6472 18.4896 12.1619 18.6906 11.6559 18.6906C11.15 18.6906 10.6648 18.4888 10.3071 18.1311C9.94934 17.7733 9.74837 17.2882 9.74837 16.7823M13.5642 16.7823C13.5642 16.2762 13.3628 15.7914 13.005 15.4336C12.6472 15.0758 12.1619 14.8747 11.6559 14.8747C11.15 14.8747 10.6648 15.0757 10.3071 15.4334C9.94934 15.7912 9.74837 16.2763 9.74837 16.7823M9.74837 16.7823H2.40625M18.5938 5.22H15.8769M12.061 5.22H2.40625M12.061 5.22C12.061 4.7141 12.262 4.22892 12.6197 3.87119C12.9774 3.51347 13.4626 3.3125 13.9685 3.3125C14.219 3.3125 14.467 3.36184 14.6985 3.4577C14.9299 3.55356 15.1402 3.69407 15.3173 3.87119C15.4944 4.04832 15.6349 4.2586 15.7308 4.49003C15.8267 4.72146 15.876 4.9695 15.876 5.22C15.876 5.4705 15.8267 5.71854 15.7308 5.94997C15.6349 6.1814 15.4944 6.39168 15.3173 6.56881C15.1402 6.74593 14.9299 6.88644 14.6985 6.9823C14.467 7.07816 14.219 7.1275 13.9685 7.1275C13.4626 7.1275 12.9774 6.92653 12.6197 6.56881C12.262 6.21108 12.061 5.7259 12.061 5.22Z" stroke="#6E6D6D" stroke-width="1.5" stroke-miterlimit="10" stroke-linecap="round"/>
</svg>
