<svg width="15" height="19" viewBox="0 0 15 19" fill="none" xmlns="http://www.w3.org/2000/svg">
<path d="M4 11.5C4.66304 11.5 5.29893 11.2366 5.76777 10.7678C6.23661 10.2989 6.5 9.66304 6.5 9C6.5 7.62 6 7 5.5 6C4.428 3.857 5.276 1.946 7.5 0C8 2.5 9.5 4.9 11.5 6.5C13.5 8.1 14.5 10 14.5 12C14.5 12.9193 14.3189 13.8295 13.9672 14.6788C13.6154 15.5281 13.0998 16.2997 12.4497 16.9497C11.7997 17.5998 11.0281 18.1154 10.1788 18.4672C9.3295 18.8189 8.41925 19 7.5 19C6.58075 19 5.67049 18.8189 4.82122 18.4672C3.97194 18.1154 3.20026 17.5998 2.55025 16.9497C1.90024 16.2997 1.38463 15.5281 1.03284 14.6788C0.68106 13.8295 0.5 12.9193 0.5 12C0.5 10.847 0.933 9.706 1.5 9C1.5 9.66304 1.76339 10.2989 2.23223 10.7678C2.70107 11.2366 3.33696 11.5 4 11.5Z" fill="url(#paint0_linear_2287_5933)"/>
<defs>
<linearGradient id="paint0_linear_2287_5933" x1="7.5" y1="0" x2="7.5" y2="19" gradientUnits="userSpaceOnUse">
<stop stop-color="#F37212"/>
<stop offset="1" stop-color="#F32C12"/>
</linearGradient>
</defs>
</svg>
