<svg width="20" height="20" viewBox="0 0 20 20" fill="none" xmlns="http://www.w3.org/2000/svg">
<path d="M12.5026 1.66797H5.0026C4.56058 1.66797 4.13665 1.84356 3.82409 2.15612C3.51153 2.46868 3.33594 2.89261 3.33594 3.33464V16.668C3.33594 17.11 3.51153 17.5339 3.82409 17.8465C4.13665 18.159 4.56058 18.3346 5.0026 18.3346H15.0026C15.4446 18.3346 15.8686 18.159 16.1811 17.8465C16.4937 17.5339 16.6693 17.11 16.6693 16.668V5.83464L12.5026 1.66797Z" stroke="#25BAFF" stroke-width="2" stroke-linecap="round" stroke-linejoin="round"/>
<path d="M11.6641 1.66797V5.0013C11.6641 5.44333 11.8397 5.86725 12.1522 6.17981C12.4648 6.49237 12.8887 6.66797 13.3307 6.66797H16.6641" stroke="#25BAFF" stroke-width="2" stroke-linecap="round" stroke-linejoin="round"/>
</svg>
