<svg width="17" height="18" viewBox="0 0 17 18" fill="none" xmlns="http://www.w3.org/2000/svg">
<path d="M11.4382 13.2539C11.3289 12.6602 11.1257 12.1133 10.8289 11.6133C10.532 11.1133 10.1648 10.681 9.72729 10.3164C9.28979 9.95182 8.79761 9.66536 8.25073 9.45703C7.70386 9.2487 7.12834 9.14453 6.52417 9.14453C6.06584 9.14453 5.62313 9.20443 5.19604 9.32422C4.76896 9.44401 4.37052 9.61068 4.00073 9.82422C3.63094 10.0378 3.295 10.2982 2.99292 10.6055C2.69084 10.9128 2.43042 11.2513 2.21167 11.6211C1.99292 11.9909 1.82365 12.3893 1.70386 12.8164C1.58407 13.2435 1.52417 13.6862 1.52417 14.1445H0.52417C0.52417 13.5352 0.615316 12.9388 0.797607 12.3555C0.979899 11.7721 1.24292 11.2331 1.58667 10.7383C1.93042 10.2435 2.33927 9.80339 2.81323 9.41797C3.28719 9.03255 3.81584 8.73828 4.39917 8.53516C4.1075 8.34766 3.84709 8.13151 3.61792 7.88672C3.38875 7.64193 3.19084 7.3737 3.02417 7.08203C2.8575 6.79036 2.73511 6.48047 2.65698 6.15234C2.57886 5.82422 2.53459 5.48828 2.52417 5.14453C2.52417 4.59245 2.62834 4.07422 2.83667 3.58984C3.045 3.10547 3.32886 2.68099 3.68823 2.31641C4.04761 1.95182 4.47209 1.66536 4.96167 1.45703C5.45125 1.2487 5.97209 1.14453 6.52417 1.14453C7.07625 1.14453 7.59448 1.2487 8.07886 1.45703C8.56323 1.66536 8.98771 1.94922 9.35229 2.30859C9.71688 2.66797 10.0033 3.09245 10.2117 3.58203C10.42 4.07161 10.5242 4.59245 10.5242 5.14453C10.5242 5.48828 10.4825 5.82422 10.3992 6.15234C10.3158 6.48047 10.1908 6.79036 10.0242 7.08203C9.8575 7.3737 9.66219 7.64193 9.43823 7.88672C9.21427 8.13151 8.95125 8.34766 8.64917 8.53516C9.16479 8.73307 9.64136 8.99349 10.0789 9.31641C10.5164 9.63932 10.8992 10.0117 11.2273 10.4336C11.5554 10.8555 11.8289 11.3164 12.0476 11.8164C12.2664 12.3164 12.407 12.8424 12.4695 13.3945L12.0242 13.8477L11.4382 13.2539ZM3.52417 5.14453C3.52417 5.5612 3.60229 5.94922 3.75854 6.30859C3.91479 6.66797 4.12834 6.98568 4.39917 7.26172C4.67 7.53776 4.98771 7.75391 5.35229 7.91016C5.71688 8.06641 6.1075 8.14453 6.52417 8.14453C6.93563 8.14453 7.32365 8.06641 7.68823 7.91016C8.05282 7.75391 8.37052 7.54036 8.64136 7.26953C8.91219 6.9987 9.12834 6.68099 9.28979 6.31641C9.45125 5.95182 9.52938 5.5612 9.52417 5.14453C9.52417 4.73307 9.44604 4.34505 9.28979 3.98047C9.13354 3.61589 8.92 3.29818 8.64917 3.02734C8.37834 2.75651 8.05802 2.54036 7.68823 2.37891C7.31844 2.21745 6.93042 2.13932 6.52417 2.14453C6.1075 2.14453 5.71948 2.22266 5.36011 2.37891C5.00073 2.53516 4.68302 2.7487 4.40698 3.01953C4.13094 3.29036 3.91479 3.61068 3.75854 3.98047C3.60229 4.35026 3.52417 4.73828 3.52417 5.14453ZM16.3757 12.4961L12.0242 16.8555L9.92261 14.7461L10.6257 14.043L12.0242 15.4336L15.6726 11.793L16.3757 12.4961Z" fill="white" stroke="white" stroke-width="0.5"/>
</svg>
