<svg width="20" height="20" viewBox="0 0 20 20" fill="none" xmlns="http://www.w3.org/2000/svg">
<path d="M13.2 17.2V15.6C13.2 14.7513 12.8628 13.9374 12.2627 13.3373C11.6626 12.7372 10.8487 12.4 9.99999 12.4H5.2C4.35131 12.4 3.53737 12.7372 2.93726 13.3373C2.33714 13.9374 2 14.7513 2 15.6V17.2" stroke="#505050" stroke-width="1.5" stroke-linecap="round" stroke-linejoin="round"/>
<path d="M7.5999 9.20001C9.36721 9.20001 10.7999 7.76733 10.7999 6.00002C10.7999 4.23271 9.36721 2.80002 7.5999 2.80002C5.83259 2.80002 4.3999 4.23271 4.3999 6.00002C4.3999 7.76733 5.83259 9.20001 7.5999 9.20001Z" stroke="#505050" stroke-width="1.5" stroke-linecap="round" stroke-linejoin="round"/>
<path d="M15.6001 6.79999V11.6" stroke="#505050" stroke-width="1.5" stroke-linecap="round" stroke-linejoin="round"/>
<path d="M18.0002 9.2H13.2002" stroke="#505050" stroke-width="1.5" stroke-linecap="round" stroke-linejoin="round"/>
</svg>
