<svg width="23" height="22" viewBox="0 0 23 22" fill="none" xmlns="http://www.w3.org/2000/svg">
<path d="M1 20.0312H8.33301C8.61848 20.0312 8.83301 20.2537 8.83301 20.5156C8.83301 20.7776 8.61848 21 8.33301 21H1C0.714523 21 0.5 20.7776 0.5 20.5156C0.5 20.2537 0.714523 20.0312 1 20.0312ZM20.833 15.4375V19.5312C20.833 20.3346 20.1685 21 19.333 21H14C13.1645 21 12.5 20.3346 12.5 19.5312V15.4375H20.833ZM2 14.125H7.33301C8.16849 14.125 8.83301 14.7904 8.83301 15.5938C8.83301 16.3971 8.16849 17.0625 7.33301 17.0625H6.16699V17.5625C6.16699 18.0049 5.80182 18.375 5.33301 18.375H2.66699C2.19818 18.375 1.83301 18.0049 1.83301 17.5625V14.2812C1.83301 14.2038 1.90202 14.125 2 14.125ZM6.16699 16.75H7.33301C7.96836 16.75 8.5 16.2382 8.5 15.5938C8.5 14.9493 7.96836 14.4375 7.33301 14.4375H6.16699V16.75ZM16.667 10.8438C16.9523 10.8439 17.167 11.0663 17.167 11.3281V12.1562H21.667C21.9523 12.1564 22.167 12.3788 22.167 12.6406C22.167 12.9025 21.9523 13.1248 21.667 13.125H11.667C11.3815 13.125 11.167 12.9026 11.167 12.6406C11.167 12.3787 11.3815 12.1562 11.667 12.1562H16.167V11.3281C16.167 11.0662 16.3815 10.8438 16.667 10.8438ZM6 1C8.62143 1 10.8104 2.80429 11.3623 5.20605L11.4521 5.59375H15.0625L15.2109 5.43066C15.4862 5.12888 15.8871 4.93759 16.333 4.9375H20.667C21.5023 4.93767 22.167 5.60298 22.167 6.40625C22.167 7.20952 21.5023 7.87483 20.667 7.875H16.333C15.8871 7.87491 15.4862 7.68362 15.2109 7.38184L15.0625 7.21875H11.4521L11.3623 7.60645C10.8104 10.0082 8.62143 11.8125 6 11.8125C2.95619 11.8125 0.5 9.38346 0.5 6.40625C0.5 3.42904 2.95619 1 6 1ZM6 1.96875C4.80917 1.96875 3.66576 2.43449 2.82129 3.26562C1.97653 4.09719 1.5 5.22679 1.5 6.40625C1.5 7.58571 1.97653 8.71531 2.82129 9.54688C3.66576 10.378 4.80917 10.8438 6 10.8438C7.19083 10.8437 8.33424 10.378 9.17871 9.54688C10.0235 8.71531 10.5 7.58571 10.5 6.40625C10.5 5.22679 10.0235 4.09719 9.17871 3.26562C8.33424 2.43449 7.19083 1.96875 6 1.96875ZM6 4.28125C6.57715 4.28125 7.12941 4.50684 7.53516 4.90625C7.94059 5.30539 8.16699 5.84526 8.16699 6.40625C8.16699 6.96724 7.94059 7.50711 7.53516 7.90625C7.12941 8.30566 6.57715 8.53125 6 8.53125C5.42285 8.53125 4.87059 8.30566 4.46484 7.90625C4.05941 7.50711 3.83301 6.96724 3.83301 6.40625C3.83301 5.84526 4.05941 5.30539 4.46484 4.90625C4.87059 4.50684 5.42285 4.28125 6 4.28125Z" stroke="#090707"/>
</svg>
