<svg width="24" height="24" viewBox="0 0 24 24" fill="none" xmlns="http://www.w3.org/2000/svg">
<path d="M12.823 18.258L5.71 11.138C5.55667 10.984 5.43867 10.8083 5.356 10.611C5.27267 10.4143 5.231 10.2103 5.231 9.999C5.231 9.78767 5.27267 9.584 5.356 9.388C5.43933 9.192 5.55733 9.01667 5.71 8.862L8.862 5.709C9.016 5.55167 9.19167 5.43367 9.389 5.355C9.58567 5.27567 9.78967 5.236 10.001 5.236C10.2123 5.236 10.416 5.27567 10.612 5.355C10.808 5.43433 10.9837 5.55233 11.139 5.709L18.252 12.823C18.4047 12.9777 18.5227 13.1537 18.606 13.351C18.6893 13.5477 18.731 13.7513 18.731 13.962C18.731 14.1733 18.6893 14.3773 18.606 14.574C18.5227 14.7707 18.4047 14.946 18.252 15.1L15.1 18.258C14.9453 18.4153 14.7697 18.5333 14.573 18.612C14.3757 18.6913 14.1717 18.731 13.961 18.731C13.7503 18.731 13.5467 18.6913 13.35 18.612C13.1533 18.5327 12.9777 18.4147 12.823 18.258ZM13.519 17.538C13.6343 17.6533 13.7817 17.711 13.961 17.711C14.1403 17.711 14.288 17.6533 14.404 17.538L17.538 14.404C17.6533 14.2887 17.711 14.141 17.711 13.961C17.711 13.781 17.6533 13.6337 17.538 13.519L10.442 6.423C10.3273 6.30767 10.18 6.25 10 6.25C9.82 6.25 9.67267 6.30767 9.558 6.423L6.423 9.558C6.30767 9.67267 6.25 9.82 6.25 10C6.25 10.18 6.30767 10.3273 6.423 10.442L13.519 17.538ZM12 23C10.4873 23 9.06267 22.7133 7.726 22.14C6.38933 21.5673 5.22067 20.7807 4.22 19.78C3.21933 18.7793 2.43267 17.6107 1.86 16.274C1.28733 14.9373 1.00067 13.5127 1 12H2C2 13.3373 2.248 14.599 2.744 15.785C3.24 16.9703 3.916 18.0093 4.772 18.902C5.628 19.7947 6.63733 20.513 7.8 21.057C8.96267 21.601 10.2107 21.902 11.544 21.96L8.092 18.508L8.8 17.8L13.816 22.816C13.5107 22.8647 13.2087 22.9073 12.91 22.944C12.6133 22.9813 12.31 23 12 23ZM22 12C22 10.6627 21.752 9.40133 21.256 8.216C20.7593 7.02933 20.0833 5.99 19.228 5.098C18.372 4.206 17.3627 3.48767 16.2 2.943C15.0373 2.39833 13.7893 2.09767 12.456 2.041L15.908 5.492L15.2 6.2L10.185 1.185C10.4763 1.123 10.776 1.07667 11.084 1.046C11.392 1.01533 11.6973 1 12 1C13.522 1 14.948 1.28667 16.278 1.86C17.608 2.434 18.774 3.222 19.776 4.224C20.778 5.226 21.566 6.392 22.14 7.722C22.714 9.052 23.0007 10.478 23 12H22ZM9.417 10.139C9.61033 10.139 9.77167 10.072 9.901 9.938C10.0297 9.804 10.094 9.64767 10.094 9.469C10.094 9.27567 10.0297 9.11433 9.901 8.985C9.77233 8.85567 9.60967 8.79133 9.413 8.792C9.231 8.792 9.07467 8.85633 8.944 8.985C8.81333 9.11367 8.748 9.27667 8.748 9.474C8.748 9.65533 8.815 9.81133 8.949 9.942C9.08233 10.0727 9.23867 10.138 9.418 10.138" fill="white"/>
</svg>
