<svg width="32" height="31" viewBox="0 0 32 31" fill="none" xmlns="http://www.w3.org/2000/svg">
<path d="M1.41675 15.5003C1.41675 8.62574 1.41675 5.18845 3.55175 3.05199C5.68966 0.916992 9.1255 0.916992 16.0001 0.916992C22.8747 0.916992 26.312 0.916992 28.447 3.05199C30.5834 5.18991 30.5834 8.62574 30.5834 15.5003C30.5834 22.3749 30.5834 25.8122 28.447 27.9472C26.3134 30.0837 22.8747 30.0837 16.0001 30.0837C9.1255 30.0837 5.68821 30.0837 3.55175 27.9472C1.41675 25.8137 1.41675 22.3749 1.41675 15.5003Z" stroke="#2399F5" stroke-width="1.5"/>
<path d="M21.8334 12.5833C23.4442 12.5833 24.7501 11.2775 24.7501 9.66667C24.7501 8.05584 23.4442 6.75 21.8334 6.75C20.2226 6.75 18.9167 8.05584 18.9167 9.66667C18.9167 11.2775 20.2226 12.5833 21.8334 12.5833Z" stroke="#2399F5" stroke-width="1.5"/>
<path d="M1.41675 16.2297L3.97175 13.994C4.61216 13.4341 5.44138 13.1385 6.29155 13.1669C7.14173 13.1953 7.94934 13.5457 8.55092 14.1472L14.8072 20.4034C15.2927 20.8888 15.9338 21.1874 16.6178 21.2466C17.3017 21.3058 17.9846 21.1219 18.5463 20.7272L18.9824 20.4209C19.7926 19.8518 20.7719 19.5745 21.7602 19.6341C22.7486 19.6937 23.6874 20.0867 24.4234 20.749L29.1251 24.9797" stroke="#2399F5" stroke-width="1.5" stroke-linecap="round"/>
</svg>
