<svg width="22" height="21" viewBox="0 0 22 21" fill="none" xmlns="http://www.w3.org/2000/svg">
<g clip-path="url(#clip0_440_17274)">
<path d="M13.2012 17.5C13.2012 19.4331 11.6341 21 9.70112 21C7.7681 21 6.20117 19.4331 6.20117 17.5C6.20117 15.567 7.7681 13.9999 9.70112 13.9999C11.6341 13.9999 13.2012 15.567 13.2012 17.5Z" fill="#FFA000"/>
<path d="M15.8331 10.431C12.8669 10.0073 10.5762 7.45668 10.5762 4.37506C10.5762 3.49995 10.7634 2.66971 11.095 1.91621C10.647 1.81126 10.1816 1.75006 9.70112 1.75006C6.32374 1.75006 3.57617 4.49747 3.57617 7.87501V10.3145C3.57617 12.0461 2.81754 13.6806 1.48662 14.8058C1.14632 15.0963 0.951172 15.5207 0.951172 15.9687C0.951172 16.8132 1.63802 17.5001 2.48237 17.5001H16.9199C17.7644 17.5001 18.4512 16.8132 18.4512 15.9687C18.4512 15.5207 18.2561 15.0963 17.907 14.798C16.6155 13.7052 15.8664 12.1187 15.8331 10.431Z" fill="#FFC107"/>
<path d="M21.0763 4.37505C21.0763 6.79129 19.1175 8.74995 16.7012 8.74995C14.285 8.74995 12.3262 6.79129 12.3262 4.37505C12.3262 1.95882 14.285 0 16.7012 0C19.1175 0 21.0763 1.95882 21.0763 4.37505Z" fill="#F44336"/>
</g>
<defs>
<clipPath id="clip0_440_17274">
<rect width="21" height="21" fill="white" transform="translate(0.5)"/>
</clipPath>
</defs>
</svg>
