<svg width="28" height="46" viewBox="0 0 28 46" fill="none" xmlns="http://www.w3.org/2000/svg">
<path d="M19.2217 30.8286C21.6072 33.1914 22.3829 36.7975 21.165 39.977C19.9242 43.2164 16.8732 45.3393 13.4844 45.3393C10.0957 45.3392 7.04449 43.2163 5.80371 39.977C4.58597 36.7974 5.3625 33.1913 7.74805 30.8286H19.2217Z" fill="white" stroke="#3C80B5"/>
<path d="M28 13.7071C28 19.3242 20.265 30.8804 16.31 36.4081C15.7751 37.1435 14.9315 37.5769 14.035 37.5769C13.1385 37.5769 12.2949 37.1435 11.76 36.4081C7.805 30.8804 0 19.3242 0 13.7071C0.073427 9.99036 1.59105 6.45635 4.21778 3.88536C6.84451 1.31438 10.3643 -0.0821225 14 0.00420418C17.6357 -0.0821225 21.1555 1.31438 23.7822 3.88536C26.409 6.45635 27.9266 9.99036 28 13.7071Z" fill="#2399F5"/>
<path d="M13.9561 2.50293H13.9766C16.9754 2.43433 19.8754 3.50313 22.0361 5.46582C24.0609 7.3051 25.2796 9.78657 25.4746 12.418L25.5 12.9463C25.4973 13.9656 25.1156 15.3054 24.4492 16.8477C23.7854 18.3838 22.8604 20.0732 21.8232 21.7715C20.0084 24.743 17.8666 27.711 16.2227 29.8818L15.5527 30.7598C15.1946 31.2203 14.6199 31.5 14 31.5C13.3801 31.5 12.8054 31.2203 12.4473 30.7598H12.4463C10.7492 28.5576 8.25013 25.1664 6.17676 21.7715C5.13959 20.0732 4.21455 18.3838 3.55078 16.8477C2.88436 15.3054 2.50271 13.9656 2.5 12.9463C2.62781 7.09146 7.72829 2.39582 13.9561 2.50293Z" fill="#2399F5" stroke="white"/>
<path d="M14.0428 19.6791C16.9616 19.6791 19.3278 17.2763 19.3278 14.3124C19.3278 11.3485 16.9616 8.94574 14.0428 8.94574C11.124 8.94574 8.75781 11.3485 8.75781 14.3124C8.75781 17.2763 11.124 19.6791 14.0428 19.6791Z" fill="white"/>
</svg>
