<svg width="26" height="25" viewBox="0 0 26 25" fill="none" xmlns="http://www.w3.org/2000/svg">
<path d="M2.68311 13.2334C2.58172 13.132 2.52859 13.0122 2.52373 12.874C2.51887 12.7358 2.57408 12.6097 2.68936 12.4959C2.80394 12.3847 2.92686 12.3285 3.05811 12.3271C3.18936 12.3257 3.31227 12.382 3.42686 12.4959L7.48519 16.5542L8.00602 16.0334C8.08727 16.0084 8.17859 16.0063 8.27998 16.0271C8.38137 16.0479 8.47964 16.1063 8.57477 16.2021C8.68936 16.3167 8.74595 16.4396 8.74457 16.5709C8.74179 16.7014 8.68311 16.824 8.56852 16.9386L8.06852 17.4396C7.89977 17.6042 7.70325 17.6875 7.47894 17.6896C7.25464 17.691 7.05811 17.6077 6.88936 17.4396L2.68311 13.2334ZM13.3644 16.549L22.5789 7.3344C22.6803 7.23232 22.8001 7.17919 22.9383 7.17503C23.0765 7.17086 23.2026 7.22572 23.3164 7.33961C23.4276 7.45489 23.4838 7.5778 23.4852 7.70836C23.4873 7.83961 23.431 7.96253 23.3164 8.07711L13.9539 17.4396C13.7852 17.6084 13.5887 17.6927 13.3644 17.6927C13.1401 17.6927 12.9439 17.6084 12.7758 17.4396L8.56852 13.2334C8.4713 13.1361 8.41922 13.0174 8.41227 12.8771C8.40533 12.7382 8.45741 12.6111 8.56852 12.4959C8.6838 12.3813 8.80776 12.324 8.9404 12.324C9.07304 12.324 9.197 12.3813 9.31227 12.4959L13.3644 16.549ZM17.4248 8.08336L13.0112 12.4959C12.914 12.5931 12.796 12.6452 12.6571 12.6521C12.5168 12.6591 12.3894 12.607 12.2748 12.4959C12.1595 12.3813 12.1019 12.2577 12.1019 12.125C12.1019 11.9917 12.1595 11.8677 12.2748 11.7531L16.6873 7.33961C16.7845 7.24239 16.9032 7.1903 17.0435 7.18336C17.1824 7.17641 17.3095 7.2285 17.4248 7.33961C17.5394 7.45489 17.5966 7.57884 17.5966 7.71148C17.5966 7.84412 17.5394 7.96808 17.4248 8.08336Z" fill="#22C55E"/>
</svg>
