<svg width="38" height="39" viewBox="0 0 38 39" fill="none" xmlns="http://www.w3.org/2000/svg">
<path d="M18.9976 1.80664C19.8719 1.80665 20.8894 2.47718 21.7241 4.15527V4.15625L24.9487 10.6055V10.6064C25.2136 11.1472 25.6801 11.6451 26.1968 12.0264C26.6492 12.3602 27.1754 12.6294 27.6968 12.7578L27.9194 12.8047L33.7681 13.7764C35.5515 14.0737 36.4813 14.8386 36.7495 15.6729C37.0172 16.5061 36.7072 17.6653 35.4224 18.9414L30.8745 23.4893C30.4146 23.9492 30.0817 24.5959 29.8931 25.2549C29.7044 25.914 29.6449 26.6379 29.7866 27.2705L29.7876 27.2734L31.0894 32.9023C31.5928 35.0873 31.2019 36.3467 30.5054 36.8545C29.808 37.3629 28.485 37.3511 26.5513 36.209L21.0688 32.9639C20.478 32.614 19.7287 32.4541 19.0063 32.4541C18.2833 32.4542 17.5311 32.614 16.9331 32.9619L16.9302 32.9639L11.4487 36.209L11.4478 36.21C9.52569 37.3505 8.20195 37.3588 7.50146 36.8477C6.80136 36.3368 6.40771 35.0758 6.91064 32.9023L8.2124 27.2734V27.2705C8.35419 26.6379 8.29556 25.914 8.10693 25.2549C7.9183 24.5959 7.58532 23.9492 7.12549 23.4893L2.57861 18.9424C1.30242 17.6662 0.990997 16.5063 1.25732 15.6719C1.50699 14.89 2.33569 14.1688 3.90771 13.8369L4.23193 13.7764L10.0806 12.8047L10.0815 12.8037C10.6654 12.7046 11.2738 12.4063 11.7876 12.0254C12.3005 11.6451 12.7648 11.1479 13.0298 10.6084L13.0308 10.6094L16.2573 4.15625L16.2563 4.15527C17.1001 2.47752 18.1225 1.80664 18.9976 1.80664Z" fill="#F5F5F5" stroke="#999999" stroke-linecap="round" stroke-linejoin="round"/>
<path d="M14.8193 18.6174C15.507 18.6174 16.0645 18.0599 16.0645 17.3722C16.0645 16.6844 15.507 16.127 14.8193 16.127C14.1316 16.127 13.5741 16.6844 13.5741 17.3722C13.5741 18.0599 14.1316 18.6174 14.8193 18.6174Z" fill="#999999"/>
<path d="M23.2744 18.6174C23.9621 18.6174 24.5196 18.0599 24.5196 17.3722C24.5196 16.6844 23.9621 16.127 23.2744 16.127C22.5867 16.127 22.0292 16.6844 22.0292 17.3722C22.0292 18.0599 22.5867 18.6174 23.2744 18.6174Z" fill="#999999"/>
<path d="M23.8643 23.856C23.8589 23.8784 23.8576 23.887 23.8554 23.8985L23.8495 23.9297L23.8387 23.9861C23.8311 24.0228 23.823 24.0565 23.8149 24.0911C23.7987 24.1586 23.7791 24.2242 23.7596 24.2892C23.7185 24.4165 23.6702 24.5413 23.615 24.6631C23.5044 24.9059 23.3687 25.1364 23.2103 25.3511C22.8871 25.7826 22.4856 26.1495 22.0268 26.4327C21.7995 26.5716 21.5617 26.6926 21.3157 26.7947C21.0736 26.8934 20.8247 26.9742 20.5708 27.0364C20.0799 27.1558 19.5766 27.2162 19.0714 27.2163C18.5726 27.2215 18.0748 27.1702 17.5875 27.0634L17.4011 27.0198C17.3391 27.0056 17.277 26.9851 17.2154 26.9681C17.1538 26.951 17.0918 26.9339 17.0304 26.9114L16.8465 26.8471C16.5999 26.7562 16.3607 26.6462 16.1313 26.518C15.8987 26.3882 15.6778 26.2388 15.4708 26.0712C15.2636 25.9014 15.0727 25.7126 14.9006 25.5073C14.8577 25.4561 14.8174 25.4021 14.7765 25.35C14.7356 25.2978 14.6973 25.242 14.6603 25.1865C14.5859 25.0752 14.5177 24.9599 14.4559 24.8412C14.3931 24.7217 14.3379 24.5985 14.2904 24.4722C14.2679 24.4081 14.2443 24.3429 14.2243 24.2753C14.2144 24.2402 14.2047 24.2078 14.1953 24.1698L14.1816 24.1129L14.1742 24.0815C14.1712 24.0691 14.1699 24.0619 14.1629 24.0376C14.1028 23.8679 14.1127 23.6812 14.1902 23.5187C14.2678 23.3562 14.4067 23.2311 14.5765 23.171C14.7463 23.1109 14.9329 23.1208 15.0955 23.1983C15.258 23.2759 15.383 23.4148 15.4431 23.5846C15.4409 23.5729 15.4445 23.5779 15.4463 23.5781C15.4481 23.5783 15.4512 23.5812 15.4539 23.5835C15.4566 23.5857 15.4654 23.5931 15.4721 23.5997L15.5108 23.6383C15.5384 23.6658 15.5661 23.6943 15.5955 23.7222C15.6529 23.7791 15.7151 23.8346 15.7772 23.8881C15.9013 23.9944 16.0325 24.0921 16.17 24.1804C16.3054 24.2679 16.4461 24.3468 16.5913 24.4167C16.7372 24.4852 16.8867 24.5458 17.0392 24.5981C17.1941 24.6512 17.3517 24.6963 17.5113 24.733C17.5929 24.7503 17.6732 24.7695 17.7571 24.7827C17.7986 24.7899 17.8389 24.7989 17.8814 24.8052L18.008 24.8236C18.3572 24.8705 18.7092 24.8925 19.0615 24.8895C19.4078 24.8902 19.7536 24.8637 20.0957 24.8104C20.2582 24.7849 20.4193 24.7513 20.5785 24.7096C20.7347 24.6681 20.886 24.6175 21.0351 24.5617C21.332 24.4452 21.6128 24.2912 21.8705 24.1033C22.0028 24.0056 22.1286 23.8995 22.2471 23.7856C22.306 23.7274 22.3654 23.668 22.4207 23.6071L22.4621 23.5621L22.5016 23.5171L22.539 23.4749C22.5457 23.4677 22.5511 23.4623 22.5565 23.4569C22.5586 23.4543 22.5612 23.4521 22.5641 23.4504C22.5664 23.4504 22.5695 23.4452 22.568 23.4553C22.5943 23.3701 22.6371 23.2909 22.694 23.2223C22.7509 23.1536 22.8208 23.0968 22.8997 23.0552C22.9785 23.0135 23.0648 22.9878 23.1536 22.9795C23.2424 22.9712 23.3319 22.9805 23.4172 23.0068C23.5024 23.0331 23.5816 23.0759 23.6502 23.1328C23.7189 23.1897 23.7756 23.2596 23.8173 23.3385C23.8589 23.4173 23.8847 23.5036 23.893 23.5924C23.9013 23.6812 23.892 23.7708 23.8657 23.856H23.8643Z" fill="#999999"/>
</svg>
