<svg width="38" height="39" viewBox="0 0 38 39" fill="none" xmlns="http://www.w3.org/2000/svg">
<path d="M18.9976 1.80664C19.8719 1.80665 20.8894 2.47718 21.7241 4.15527V4.15625L24.9487 10.6055V10.6064C25.2136 11.1472 25.6801 11.6451 26.1968 12.0264C26.6492 12.3602 27.1754 12.6294 27.6968 12.7578L27.9194 12.8047L33.7681 13.7764C35.5515 14.0737 36.4813 14.8386 36.7495 15.6729C37.0172 16.5061 36.7072 17.6653 35.4224 18.9414L30.8745 23.4893C30.4146 23.9492 30.0817 24.5959 29.8931 25.2549C29.7044 25.914 29.6449 26.6379 29.7866 27.2705L29.7876 27.2734L31.0894 32.9023C31.5928 35.0873 31.2019 36.3467 30.5054 36.8545C29.808 37.3629 28.485 37.3511 26.5513 36.209L21.0688 32.9639C20.478 32.614 19.7287 32.4541 19.0063 32.4541C18.2833 32.4542 17.5311 32.614 16.9331 32.9619L16.9302 32.9639L11.4487 36.209L11.4478 36.21C9.52569 37.3505 8.20195 37.3588 7.50146 36.8477C6.80136 36.3368 6.40771 35.0758 6.91064 32.9023L8.2124 27.2734V27.2705C8.35419 26.6379 8.29557 25.914 8.10693 25.2549C7.9183 24.5959 7.58533 23.9492 7.12549 23.4893L2.57861 18.9424C1.30242 17.6662 0.990996 16.5063 1.25732 15.6719C1.50699 14.89 2.33569 14.1688 3.90771 13.8369L4.23193 13.7764L10.0806 12.8047L10.0815 12.8037C10.6654 12.7046 11.2738 12.4063 11.7876 12.0254C12.3005 11.6451 12.7648 11.1479 13.0298 10.6084L13.0308 10.6094L16.2573 4.15625L16.2563 4.15527C17.1001 2.47752 18.1225 1.80664 18.9976 1.80664Z" fill="#F5F5F5" stroke="#999999" stroke-linecap="round" stroke-linejoin="round"/>
<path d="M15.1115 18.6174C15.7992 18.6174 16.3567 18.0599 16.3567 17.3722C16.3567 16.6844 15.7992 16.127 15.1115 16.127C14.4238 16.127 13.8663 16.6844 13.8663 17.3722C13.8663 18.0599 14.4238 18.6174 15.1115 18.6174Z" fill="#999999"/>
<path d="M23.0265 18.6174C23.7142 18.6174 24.2716 18.0599 24.2716 17.3722C24.2716 16.6844 23.7142 16.127 23.0265 16.127C22.3388 16.127 21.7812 16.6844 21.7812 17.3722C21.7812 18.0599 22.3388 18.6174 23.0265 18.6174Z" fill="#999999"/>
<path d="M14.4959 23.1113C14.1655 23.1202 13.9717 23.4377 13.9717 24.2932C13.9717 27.1344 18.1387 27.2228 18.9485 27.2131C19.7242 27.2238 23.9388 27.1499 23.9388 24.2934C23.9388 23.4643 23.7567 23.1404 23.4446 23.1132" fill="#999999"/>
</svg>
