<svg width="30" height="30" viewBox="0 0 30 30" fill="none" xmlns="http://www.w3.org/2000/svg">
<path d="M22.0664 27.1914H4.38486C3.32401 27.1914 2.46094 26.3283 2.46094 25.2675V7.19025C2.46094 7.00954 2.60745 6.86249 2.78821 6.86249H10.4804C10.6611 6.86249 10.8076 7.009 10.8076 7.18976C10.8076 7.37047 10.6611 7.51703 10.4804 7.51703H3.11548V25.2674C3.11548 25.9674 3.68494 26.5368 4.38486 26.5368H22.0664C22.7663 26.5368 23.3358 25.9674 23.3358 25.2674V19.9979C23.3358 19.8172 23.4823 19.6706 23.663 19.6706C23.8437 19.6706 23.9903 19.8172 23.9903 19.9979V25.2674C23.9903 26.3283 23.1272 27.1914 22.0664 27.1914Z" fill="#505050" stroke="#505050" stroke-width="0.4"/>
<path d="M23.6617 9.72367C23.481 9.72367 23.3345 9.57711 23.3345 9.3964V7.51703H15.9701C15.7894 7.51703 15.6426 7.37047 15.6426 7.18976C15.6426 7.00905 15.7889 6.86249 15.9696 6.86249H23.6617C23.8425 6.86249 23.989 7.00905 23.989 7.18976V9.3964C23.989 9.57711 23.8425 9.72367 23.6617 9.72367Z" fill="#505050" stroke="#505050" stroke-width="0.4"/>
<path d="M25.4157 7.51739H15.9706C15.7899 7.51739 15.6434 7.37088 15.6434 7.19012C15.6434 7.00941 15.7899 6.86285 15.9706 6.86285H25.0885V3.8797C25.0885 3.65001 24.9016 3.46314 24.6719 3.46314H1.78009C1.5504 3.46314 1.36353 3.65001 1.36353 3.8797V6.86285H10.4802C10.6609 6.86285 10.8075 7.00941 10.8075 7.19012C10.8075 7.37088 10.6609 7.51739 10.4802 7.51739H1.03626C0.855548 7.51739 0.708984 7.37088 0.708984 7.19012V3.8797C0.708984 3.28908 1.18948 2.80859 1.78009 2.80859H24.6719C25.2625 2.80859 25.743 3.28908 25.743 3.8797V7.19012C25.743 7.37088 25.5965 7.51739 25.4157 7.51739Z" fill="#505050" stroke="#505050" stroke-width="0.4"/>
<path d="M15.9724 10.9901C15.8919 10.9901 15.8124 10.9604 15.7508 10.9037L13.2267 8.58322L10.7031 10.9037C10.6075 10.9916 10.469 11.0147 10.35 10.9625C10.2311 10.9102 10.1543 10.7927 10.1543 10.6628V3.13593C10.1543 2.95522 10.3009 2.80865 10.4816 2.80865H15.9723C16.153 2.80865 16.2996 2.95522 16.2996 3.13593V10.6628C16.2996 10.7927 16.2228 10.9103 16.1039 10.9625C16.0616 10.981 16.0168 10.9901 15.9724 10.9901ZM13.2267 7.8114C13.3062 7.8114 13.3856 7.8402 13.4482 7.89775L15.6451 9.9174V3.4632H10.8088V9.91729L13.0052 7.89775C13.0678 7.8402 13.1473 7.8114 13.2267 7.8114Z" fill="#505050" stroke="#505050" stroke-width="0.4"/>
<path d="M21.7608 21.9623H12.3234C12.1426 21.9623 11.9961 21.8157 11.9961 21.635C11.9961 21.4543 12.1426 21.3077 12.3234 21.3077H21.7608C21.9415 21.3077 22.088 21.4543 22.088 21.635C22.088 21.8157 21.9415 21.9623 21.7608 21.9623Z" fill="#505050" stroke="#505050" stroke-width="0.4"/>
<path d="M17.8138 24.4786H12.3234C12.1427 24.4786 11.9961 24.3321 11.9961 24.1514C11.9961 23.9707 12.1427 23.8241 12.3234 23.8241H17.8138C17.9945 23.8241 18.1411 23.9707 18.1411 24.1514C18.1411 24.3321 17.9945 24.4786 17.8138 24.4786Z" fill="#505050" stroke="#505050" stroke-width="0.4"/>
<path d="M19.8865 18.7435H7.61145C7.43074 18.7435 7.28418 18.597 7.28418 18.4163V13.6562C7.28418 13.4754 7.43074 13.3289 7.61145 13.3289H18.4654C18.6461 13.3289 18.7927 13.4754 18.7927 13.6562C18.7927 13.8369 18.6461 13.9835 18.4654 13.9835H7.93873V18.089H19.8865C20.0672 18.089 20.2137 18.2356 20.2137 18.4163C20.2137 18.597 20.0672 18.7435 19.8865 18.7435Z" fill="#505050" stroke="#505050" stroke-width="0.4"/>
<path d="M23.6622 20.3252C20.5589 20.3252 18.0342 17.8005 18.0342 14.6972C18.0342 11.5939 20.5589 9.06915 23.6622 9.06915C26.7655 9.06915 29.2902 11.5939 29.2902 14.6972C29.2902 17.8005 26.7655 20.3252 23.6622 20.3252ZM23.6622 9.7237C20.9199 9.7237 18.6887 11.9548 18.6887 14.6972C18.6887 17.4396 20.9198 19.6707 23.6622 19.6707C26.4046 19.6707 28.6357 17.4396 28.6357 14.6972C28.6357 11.9548 26.4046 9.7237 23.6622 9.7237Z" fill="#505050" stroke="#505050" stroke-width="0.4"/>
<path d="M24.7024 17.7505H22.6231C22.4424 17.7505 22.2959 17.604 22.2959 17.4233V16.0641H20.9366C20.7559 16.0641 20.6094 15.9175 20.6094 15.7368V13.6576C20.6094 13.4769 20.7559 13.3303 20.9366 13.3303H22.2959V11.9711C22.2959 11.7904 22.4424 11.6438 22.6231 11.6438H24.7024C24.8831 11.6438 25.0296 11.7904 25.0296 11.9711V13.3303H26.3888C26.5696 13.3303 26.7161 13.4769 26.7161 13.6576V15.7368C26.7161 15.9175 26.5696 16.0641 26.3888 16.0641H25.0296V17.4233C25.0296 17.604 24.8831 17.7505 24.7024 17.7505ZM22.9504 17.096H24.3751V15.7368C24.3751 15.5561 24.5216 15.4096 24.7024 15.4096H26.0616V13.9848H24.7024C24.5216 13.9848 24.3751 13.8383 24.3751 13.6576V12.2983H22.9504V13.6576C22.9504 13.8383 22.8038 13.9848 22.6231 13.9848H21.2639V15.4096H22.6231C22.8038 15.4096 22.9504 15.5561 22.9504 15.7368V17.096Z" fill="#505050" stroke="#505050" stroke-width="0.4"/>
</svg>
