<svg width="24" height="24" viewBox="0 0 24 24" fill="none" xmlns="http://www.w3.org/2000/svg">
<circle cx="12" cy="12" r="11.5" fill="#DF704D" stroke="#77280C"/>
<g clip-path="url(#clip0_1604_11487)">
<path d="M12.1563 8.65009C11.575 8.08752 10.7961 7.77557 9.98716 7.78133C9.17823 7.78708 8.40387 8.11009 7.83063 8.68087C7.25739 9.25166 6.93106 10.0246 6.92183 10.8335C6.9126 11.6424 7.22121 12.4226 7.78127 13.0063L12.5 17.6876L17.2188 13.0001C17.5634 12.6526 17.8202 12.2279 17.9681 11.7614C18.1159 11.2948 18.1505 10.7998 18.0689 10.3172C17.9874 9.8346 17.7921 9.37838 17.4991 8.98632C17.2062 8.59425 16.8241 8.2776 16.3844 8.06259C15.9642 7.85347 15.5006 7.74641 15.0313 7.75009C14.6244 7.74974 14.2215 7.83022 13.846 7.98687C13.4705 8.14351 13.1298 8.3732 12.8438 8.66259L12.5 9.00009L12.1563 8.65009Z" fill="white" stroke="#77280C" stroke-width="0.625" stroke-linecap="round" stroke-linejoin="round"/>
</g>
<defs>
<clipPath id="clip0_1604_11487">
<rect width="15" height="15" fill="white" transform="translate(5 4)"/>
</clipPath>
</defs>
</svg>
