<svg width="19" height="18" viewBox="0 0 19 18" fill="none" xmlns="http://www.w3.org/2000/svg">
<path d="M13.3668 8.00398C13.3668 7.71565 13.3668 7.57148 13.4101 7.44315C13.536 7.06982 13.8685 6.92565 14.2018 6.77398C14.5751 6.60315 14.7618 6.51815 14.9476 6.50315C15.1576 6.48648 15.3685 6.53148 15.5485 6.63232C15.7868 6.76565 15.9535 7.02065 16.1235 7.22732C16.9093 8.18232 17.3026 8.65982 17.446 9.18565C17.5626 9.61065 17.5626 10.0556 17.446 10.4798C17.2368 11.2481 16.5743 11.8915 16.0835 12.4881C15.8326 12.7923 15.7068 12.9448 15.5485 13.034C15.3654 13.1355 15.1563 13.1805 14.9476 13.1631C14.7618 13.1481 14.5751 13.0631 14.201 12.8923C13.8676 12.7406 13.536 12.5965 13.4101 12.2231C13.3668 12.0948 13.3668 11.9506 13.3668 11.6623V8.00398ZM5.03345 8.00398C5.03345 7.64065 5.02345 7.31482 4.73012 7.05982C4.62345 6.96732 4.48178 6.90315 4.19929 6.77398C3.82512 6.60398 3.63845 6.51815 3.45262 6.50315C2.89679 6.45815 2.59762 6.83815 2.27762 7.22815C1.49095 8.18232 1.09762 8.65982 0.953452 9.18648C0.837456 9.61007 0.837456 10.0571 0.953452 10.4806C1.16345 11.2481 1.82679 11.8923 2.31679 12.4881C2.62595 12.8631 2.92179 13.2056 3.45262 13.1631C3.63845 13.1481 3.82512 13.0631 4.19929 12.8923C4.48262 12.764 4.62345 12.699 4.73012 12.6065C5.02345 12.3515 5.03345 12.0256 5.03345 11.6631V8.00398Z" stroke="#0085FE" stroke-width="1.5" stroke-linecap="round" stroke-linejoin="round"/>
<path d="M3.36678 6.5C3.36678 3.73833 5.97844 1.5 9.20011 1.5C12.4218 1.5 15.0334 3.73833 15.0334 6.5M15.0334 13.1667V13.8333C15.0334 15.3058 13.5418 16.5 11.7001 16.5H10.0334" stroke="#0085FE" stroke-width="1.5" stroke-linecap="round" stroke-linejoin="round"/>
</svg>
