<svg width="16" height="16" viewBox="0 0 16 16" fill="none" xmlns="http://www.w3.org/2000/svg">
<path fill-rule="evenodd" clip-rule="evenodd" d="M14.999 1.85522C15.1077 1.73856 15.1669 1.58427 15.164 1.42484C15.1612 1.26541 15.0967 1.1133 14.9839 1.00055C14.8712 0.887805 14.719 0.823221 14.5596 0.820408C14.4002 0.817595 14.2459 0.876773 14.1292 0.985475L1.00104 14.1137C0.940578 14.17 0.892084 14.238 0.85845 14.3134C0.824815 14.3889 0.806729 14.4704 0.805272 14.553C0.803814 14.6357 0.819013 14.7177 0.849964 14.7944C0.880914 14.871 0.926982 14.9406 0.985418 14.999C1.04385 15.0575 1.11346 15.1035 1.19009 15.1345C1.26671 15.1654 1.34879 15.1806 1.43142 15.1792C1.51404 15.1777 1.59553 15.1596 1.67102 15.126C1.74651 15.0924 1.81444 15.0439 1.87078 14.9834L4.20678 12.6474C5.32842 13.1758 6.61909 13.5229 8.00001 13.5229C10.2023 13.5229 12.1764 12.6392 13.5959 11.5496C14.3073 11.0039 14.8948 10.3951 15.31 9.79696C15.7136 9.21521 16 8.57768 16 7.98445C16 7.39122 15.7128 6.75368 15.31 6.17193C14.8948 5.57378 14.3073 4.96578 13.5967 4.41932C13.3812 4.25358 13.1536 4.09412 12.9141 3.94096L14.999 1.85522ZM12.0205 4.8345L10.5674 6.28763C10.9592 6.87932 11.1344 7.58825 11.0633 8.29433C10.9923 9.0004 10.6794 9.66021 10.1776 10.162C9.67578 10.6638 9.01596 10.9767 8.30989 11.0478C7.60381 11.1188 6.89489 10.9436 6.30319 10.5518L5.14052 11.7137C6.04761 12.0886 7.01852 12.285 8.00001 12.2921C9.87652 12.2921 11.5939 11.5348 12.8468 10.5732C13.472 10.0932 13.966 9.57378 14.2991 9.09542C14.6429 8.59983 14.7692 8.21173 14.7692 7.98445C14.7692 7.75716 14.6429 7.36906 14.2991 6.87347C13.966 6.39511 13.472 5.87573 12.8468 5.39573C12.5897 5.19826 12.3148 5.01118 12.0205 4.8345ZM7.20329 9.65091C7.54779 9.81544 7.93483 9.86912 8.31111 9.80456C8.68738 9.74 9.03439 9.56038 9.30435 9.29042C9.5743 9.02047 9.75393 8.67346 9.81848 8.29718C9.88304 7.92091 9.82936 7.53387 9.66483 7.18937L7.20329 9.65091Z" fill="#505050"/>
<path d="M8 2.44531C8.84676 2.44531 9.66071 2.57659 10.4213 2.79895C10.4546 2.80889 10.4848 2.82736 10.5087 2.85253C10.5327 2.8777 10.5497 2.90869 10.5579 2.94244C10.5662 2.97619 10.5656 3.01152 10.556 3.04493C10.5464 3.07834 10.5283 3.10866 10.5034 3.1329L9.82728 3.80982C9.80237 3.83499 9.77136 3.85329 9.73729 3.86292C9.70321 3.87255 9.66722 3.8732 9.63282 3.8648C9.09726 3.74133 8.5496 3.67803 8 3.67608C6.12348 3.67608 4.40615 4.43341 3.15323 5.39505C2.528 5.87505 2.03405 6.39444 1.70092 6.8728C1.35713 7.36839 1.23077 7.75649 1.23077 7.98377C1.23077 8.21105 1.35713 8.59916 1.70092 9.09474C1.99138 9.51321 2.40492 9.96203 2.92184 10.3887C3.01702 10.4666 3.02605 10.6102 2.93825 10.698L2.35733 11.2798C2.32175 11.3159 2.2739 11.3372 2.22328 11.3397C2.17266 11.3421 2.12298 11.3254 2.0841 11.2929C1.5557 10.8574 1.08698 10.3542 0.690051 9.79628C0.287179 9.21454 0 8.577 0 7.98377C0 7.39054 0.287179 6.753 0.690051 6.17126C1.10523 5.57311 1.69272 4.96511 2.40328 4.41864C3.82359 3.329 5.79774 2.44531 8 2.44531Z" fill="#505050"/>
<path d="M8.00015 4.90625C8.09752 4.90625 8.19352 4.91063 8.28815 4.91938C8.44979 4.93497 8.50805 5.12779 8.394 5.24266L7.39872 6.23712C7.13381 6.32896 6.89318 6.47968 6.69492 6.67794C6.49666 6.8762 6.34595 7.11683 6.2541 7.38174L5.25964 8.37702C5.14477 8.49189 4.95195 8.43281 4.93636 8.27117C4.89626 7.84467 4.94567 7.4145 5.08141 7.00819C5.21715 6.60188 5.43624 6.2284 5.72464 5.91164C6.01305 5.59489 6.36442 5.34185 6.75626 5.16872C7.1481 4.9956 7.57177 4.9062 8.00015 4.90625Z" fill="#505050"/>
</svg>
