<svg width="48" height="48" viewBox="0 0 48 48" fill="none" xmlns="http://www.w3.org/2000/svg">
<rect width="48" height="48" rx="24" fill="#17212A"/>
<path d="M19 25.5C18.6022 25.5 18.2206 25.342 17.9393 25.0607C17.658 24.7794 17.5 24.3978 17.5 24C17.5 23.6022 17.658 23.2206 17.9393 22.9393C18.2206 22.658 18.6022 22.5 19 22.5C19.3978 22.5 19.7794 22.658 20.0607 22.9393C20.342 23.2206 20.5 23.6022 20.5 24C20.5 24.3978 20.342 24.7794 20.0607 25.0607C19.7794 25.342 19.3978 25.5 19 25.5ZM24 25.5C23.6022 25.5 23.2206 25.342 22.9393 25.0607C22.658 24.7794 22.5 24.3978 22.5 24C22.5 23.6022 22.658 23.2206 22.9393 22.9393C23.2206 22.658 23.6022 22.5 24 22.5C24.3978 22.5 24.7794 22.658 25.0607 22.9393C25.342 23.2206 25.5 23.6022 25.5 24C25.5 24.3978 25.342 24.7794 25.0607 25.0607C24.7794 25.342 24.3978 25.5 24 25.5ZM29 25.5C28.6022 25.5 28.2206 25.342 27.9393 25.0607C27.658 24.7794 27.5 24.3978 27.5 24C27.5 23.6022 27.658 23.2206 27.9393 22.9393C28.2206 22.658 28.6022 22.5 29 22.5C29.3978 22.5 29.7794 22.658 30.0607 22.9393C30.342 23.2206 30.5 23.6022 30.5 24C30.5 24.3978 30.342 24.7794 30.0607 25.0607C29.7794 25.342 29.3978 25.5 29 25.5Z" fill="white"/>
</svg>
