<svg width="120" height="118" viewBox="0 0 120 118" fill="none" xmlns="http://www.w3.org/2000/svg">
<path opacity="0.5" d="M112.196 30.0239C109.986 35.6197 106.471 20.651 100.875 18.4406C95.2796 16.2302 81.2957 17.1753 83.5061 11.5795C85.7165 5.98371 102.025 5.50834 107.621 7.71875C113.216 9.92917 114.406 24.4281 112.196 30.0239Z" fill="#03A9F4"/>
<circle opacity="0.5" cx="101.958" cy="113.333" r="4.66881" fill="#03A9F4"/>
<circle opacity="0.5" cx="94.1761" cy="28.5126" r="4.66881" fill="#03A9F4"/>
<circle opacity="0.5" cx="5.46862" cy="58.0829" r="4.66881" fill="#03A9F4"/>
<rect x="66.7407" y="30.5312" width="50.2293" height="66.9724" rx="18" transform="rotate(30 66.7407 30.5312)" fill="#03A9F4" fill-opacity="0.5"/>
<circle opacity="0.5" cx="33.4816" cy="100.88" r="8.55949" fill="#03A9F4"/>
<rect x="31.1471" y="34.7383" width="56.0258" height="74.701" rx="18" fill="#2399F5"/>
<circle opacity="0.1" cx="76.668" cy="46.801" r="13.6174" fill="#301008"/>
<circle cx="79.7806" cy="42.9103" r="13.6174" fill="#FFF6F4"/>
<path d="M84.7741 40.5613L78.8677 46.4677L75.3377 42.9377" stroke="#39B070" stroke-width="2" stroke-linecap="round"/>
<rect x="39.7067" y="46.4102" width="14.7846" height="14.7846" rx="5" fill="white"/>
<path d="M41.2629 72.8672H78.2244" stroke="white" stroke-width="5"/>
<path d="M41.2629 82.9844H78.2244" stroke="white" stroke-width="5"/>
<path d="M41.2629 93.1016L61.4945 93.1016" stroke="white" stroke-width="5"/>
<path d="M93.5694 60.4612C95.0347 59.989 96.4618 61.2801 96.1381 62.7853L96.0363 63.259C95.7126 64.7642 93.8808 65.3545 92.7391 64.3216L92.3798 63.9965C91.2382 62.9636 91.6428 61.0821 93.1082 60.6099L93.5694 60.4612Z" fill="#2399F5"/>
<path d="M21.0185 107.862C21.7512 107.626 22.4648 108.271 22.3029 109.024L22.0652 110.129C21.9034 110.881 20.9875 111.177 20.4167 110.66L19.5785 109.902C19.0077 109.385 19.21 108.445 19.9427 108.208L21.0185 107.862Z" fill="#2399F5"/>
<path d="M35.8031 26.1547C36.5358 25.9185 37.2493 26.5641 37.0874 27.3167L36.8498 28.4218C36.6879 29.1744 35.7721 29.4695 35.2012 28.953L34.3631 28.1947C33.7922 27.6783 33.9946 26.7375 34.7272 26.5014L35.8031 26.1547Z" fill="#2399F5"/>
</svg>
