<svg width="22" height="22" viewBox="0 0 22 22" fill="none" xmlns="http://www.w3.org/2000/svg">
<path d="M0 16.5009C0 17.1492 0.257539 17.7709 0.715961 18.2294C1.17438 18.6878 1.79614 18.9453 2.44444 18.9453H19.5556C20.2039 18.9453 20.8256 18.6878 21.284 18.2294C21.7425 17.7709 22 17.1492 22 16.5009V13.4453H0V16.5009Z" fill="url(#paint0_linear_1283_2172)"/>
<path d="M22 8.55469V5.49913C22 4.85082 21.7425 4.22907 21.284 3.77065C20.8256 3.31223 20.2039 3.05469 19.5556 3.05469H2.44444C1.79614 3.05469 1.17438 3.31223 0.715961 3.77065C0.257539 4.22907 0 4.85082 0 5.49913L0 8.55469H22Z" fill="url(#paint1_linear_1283_2172)"/>
<path d="M0 8.35156H22V13.6481H0V8.35156Z" fill="#F7F7F7"/>
<path d="M10.9991 13.4436C12.3492 13.4436 13.4436 12.3492 13.4436 10.9991C13.4436 9.6491 12.3492 8.55469 10.9991 8.55469C9.6491 8.55469 8.55469 9.6491 8.55469 10.9991C8.55469 12.3492 9.6491 13.4436 10.9991 13.4436Z" fill="url(#paint2_linear_1283_2172)"/>
<path d="M11 13.0625C12.1391 13.0625 13.0625 12.1391 13.0625 11C13.0625 9.86091 12.1391 8.9375 11 8.9375C9.86091 8.9375 8.9375 9.86091 8.9375 11C8.9375 12.1391 9.86091 13.0625 11 13.0625Z" fill="#F7F7F7"/>
<path d="M11.0635 10.2385L11.0024 10.6358L10.9413 10.2385L11.0024 9.04688L11.0635 10.2385ZM10.4964 9.11349L10.7458 10.2801L10.9077 10.648L10.8637 10.2489L10.4964 9.11349ZM10.0247 9.30904L10.5673 10.3712L10.8191 10.6847L10.6737 10.31L10.0247 9.30904ZM9.61949 9.61949L10.4188 10.5056L10.7433 10.7433L10.5056 10.4188L9.61949 9.61949ZM9.30904 10.0247L10.31 10.6737L10.6847 10.8191L10.3712 10.5673L9.30904 10.0247ZM9.11349 10.4964L10.2489 10.8637L10.648 10.9077L10.2801 10.7458L9.11349 10.4964ZM9.04688 11.0024L10.2385 11.0635L10.6358 11.0024L10.2385 10.9413L9.04688 11.0024ZM9.11349 11.5084L10.2801 11.2591L10.648 11.0972L10.2489 11.1412L9.11349 11.5084ZM9.30904 11.9802L10.3712 11.4375L10.6847 11.1858L10.31 11.3312L9.30904 11.9802ZM9.61949 12.3854L10.5056 11.586L10.7433 11.2615L10.4188 11.4993L9.61949 12.3854ZM10.0247 12.6958L10.6737 11.6948L10.8191 11.3202L10.5673 11.6337L10.0247 12.6958ZM10.4964 12.8914L10.8637 11.7559L10.9077 11.3569L10.7458 11.7248L10.4964 12.8914ZM11.0024 12.958L11.0635 11.7663L11.0024 11.3691L10.9413 11.7663L11.0024 12.958ZM11.5084 12.8914L11.2591 11.7248L11.0972 11.3569L11.1412 11.7559L11.5084 12.8914ZM11.9802 12.6958L11.4375 11.6337L11.1858 11.3202L11.3312 11.6948L11.9802 12.6958ZM12.3854 12.3854L11.586 11.4993L11.2615 11.2615L11.4993 11.586L12.3854 12.3854ZM12.6958 11.9802L11.6948 11.3312L11.3202 11.1858L11.6337 11.4375L12.6958 11.9802ZM12.8914 11.5084L11.7559 11.1412L11.3569 11.0972L11.7248 11.2591L12.8914 11.5084ZM12.958 11.0024L11.7663 10.9413L11.3691 11.0024L11.7663 11.0635L12.958 11.0024ZM12.8914 10.4964L11.7248 10.7458L11.3569 10.9077L11.7559 10.8637L12.8914 10.4964ZM12.6958 10.0247L11.6337 10.5673L11.3202 10.8191L11.6948 10.6737L12.6958 10.0247ZM12.3854 9.61949L11.4993 10.4188L11.2615 10.7433L11.586 10.5056L12.3854 9.61949ZM11.9802 9.30904L11.3312 10.31L11.1858 10.6847L11.4375 10.3712L11.9802 9.30904ZM11.5084 9.11349L11.1412 10.2489L11.0972 10.648L11.2591 10.2801L11.5084 9.11349Z" fill="#6666B3"/>
<path d="M10.7316 9.08038C10.7991 9.08038 10.8538 9.02566 10.8538 8.95816C10.8538 8.89066 10.7991 8.83594 10.7316 8.83594C10.6641 8.83594 10.6094 8.89066 10.6094 8.95816C10.6094 9.02566 10.6641 9.08038 10.7316 9.08038Z" fill="url(#paint3_linear_1283_2172)"/>
<path d="M10.2082 9.22101C10.2757 9.22101 10.3304 9.16629 10.3304 9.09878C10.3304 9.03128 10.2757 8.97656 10.2082 8.97656C10.1407 8.97656 10.0859 9.03128 10.0859 9.09878C10.0859 9.16629 10.1407 9.22101 10.2082 9.22101Z" fill="url(#paint4_linear_1283_2172)"/>
<path d="M9.74722 9.48663C9.81472 9.48663 9.86944 9.43191 9.86944 9.36441C9.86944 9.29691 9.81472 9.24219 9.74722 9.24219C9.67972 9.24219 9.625 9.29691 9.625 9.36441C9.625 9.43191 9.67972 9.48663 9.74722 9.48663Z" fill="url(#paint5_linear_1283_2172)"/>
<path d="M9.36441 9.86944C9.43191 9.86944 9.48663 9.81472 9.48663 9.74722C9.48663 9.67972 9.43191 9.625 9.36441 9.625C9.29691 9.625 9.24219 9.67972 9.24219 9.74722C9.24219 9.81472 9.29691 9.86944 9.36441 9.86944Z" fill="url(#paint6_linear_1283_2172)"/>
<path d="M9.09878 10.3343C9.16629 10.3343 9.22101 10.2796 9.22101 10.2121C9.22101 10.1446 9.16629 10.0898 9.09878 10.0898C9.03128 10.0898 8.97656 10.1446 8.97656 10.2121C8.97656 10.2796 9.03128 10.3343 9.09878 10.3343Z" fill="url(#paint7_linear_1283_2172)"/>
<path d="M8.95816 10.8538C9.02566 10.8538 9.08038 10.7991 9.08038 10.7316C9.08038 10.6641 9.02566 10.6094 8.95816 10.6094C8.89066 10.6094 8.83594 10.6641 8.83594 10.7316C8.83594 10.7991 8.89066 10.8538 8.95816 10.8538Z" fill="url(#paint8_linear_1283_2172)"/>
<path d="M8.95816 11.3929C9.02566 11.3929 9.08038 11.3382 9.08038 11.2707C9.08038 11.2032 9.02566 11.1484 8.95816 11.1484C8.89066 11.1484 8.83594 11.2032 8.83594 11.2707C8.83594 11.3382 8.89066 11.3929 8.95816 11.3929Z" fill="url(#paint9_linear_1283_2172)"/>
<path d="M9.09878 11.9085C9.16629 11.9085 9.22101 11.8538 9.22101 11.7863C9.22101 11.7188 9.16629 11.6641 9.09878 11.6641C9.03128 11.6641 8.97656 11.7188 8.97656 11.7863C8.97656 11.8538 9.03128 11.9085 9.09878 11.9085Z" fill="url(#paint10_linear_1283_2172)"/>
<path d="M9.36441 12.3773C9.43191 12.3773 9.48663 12.3225 9.48663 12.255C9.48663 12.1875 9.43191 12.1328 9.36441 12.1328C9.29691 12.1328 9.24219 12.1875 9.24219 12.255C9.24219 12.3225 9.29691 12.3773 9.36441 12.3773Z" fill="url(#paint11_linear_1283_2172)"/>
<path d="M9.74722 12.7562C9.81472 12.7562 9.86944 12.7014 9.86944 12.6339C9.86944 12.5664 9.81472 12.5117 9.74722 12.5117C9.67972 12.5117 9.625 12.5664 9.625 12.6339C9.625 12.7014 9.67972 12.7562 9.74722 12.7562Z" fill="url(#paint12_linear_1283_2172)"/>
<path d="M10.2082 13.0257C10.2757 13.0257 10.3304 12.971 10.3304 12.9035C10.3304 12.836 10.2757 12.7812 10.2082 12.7812C10.1407 12.7812 10.0859 12.836 10.0859 12.9035C10.0859 12.971 10.1407 13.0257 10.2082 13.0257Z" fill="url(#paint13_linear_1283_2172)"/>
<path d="M10.7316 13.1624C10.7991 13.1624 10.8538 13.1077 10.8538 13.0402C10.8538 12.9727 10.7991 12.918 10.7316 12.918C10.6641 12.918 10.6094 12.9727 10.6094 13.0402C10.6094 13.1077 10.6641 13.1624 10.7316 13.1624Z" fill="url(#paint14_linear_1283_2172)"/>
<path d="M11.2707 13.1624C11.3382 13.1624 11.3929 13.1077 11.3929 13.0402C11.3929 12.9727 11.3382 12.918 11.2707 12.918C11.2032 12.918 11.1484 12.9727 11.1484 13.0402C11.1484 13.1077 11.2032 13.1624 11.2707 13.1624Z" fill="url(#paint15_linear_1283_2172)"/>
<path d="M11.7863 13.0257C11.8538 13.0257 11.9085 12.971 11.9085 12.9035C11.9085 12.836 11.8538 12.7812 11.7863 12.7812C11.7188 12.7812 11.6641 12.836 11.6641 12.9035C11.6641 12.971 11.7188 13.0257 11.7863 13.0257Z" fill="url(#paint16_linear_1283_2172)"/>
<path d="M12.255 12.7562C12.3225 12.7562 12.3773 12.7014 12.3773 12.6339C12.3773 12.5664 12.3225 12.5117 12.255 12.5117C12.1875 12.5117 12.1328 12.5664 12.1328 12.6339C12.1328 12.7014 12.1875 12.7562 12.255 12.7562Z" fill="url(#paint17_linear_1283_2172)"/>
<path d="M12.6378 12.3773C12.7053 12.3773 12.7601 12.3225 12.7601 12.255C12.7601 12.1875 12.7053 12.1328 12.6378 12.1328C12.5703 12.1328 12.5156 12.1875 12.5156 12.255C12.5156 12.3225 12.5703 12.3773 12.6378 12.3773Z" fill="url(#paint18_linear_1283_2172)"/>
<path d="M12.9035 11.9085C12.971 11.9085 13.0257 11.8538 13.0257 11.7863C13.0257 11.7188 12.971 11.6641 12.9035 11.6641C12.836 11.6641 12.7812 11.7188 12.7812 11.7863C12.7812 11.8538 12.836 11.9085 12.9035 11.9085Z" fill="url(#paint19_linear_1283_2172)"/>
<path d="M13.0441 11.3929C13.1116 11.3929 13.1663 11.3382 13.1663 11.2707C13.1663 11.2032 13.1116 11.1484 13.0441 11.1484C12.9766 11.1484 12.9219 11.2032 12.9219 11.2707C12.9219 11.3382 12.9766 11.3929 13.0441 11.3929Z" fill="url(#paint20_linear_1283_2172)"/>
<path d="M13.0441 10.8538C13.1116 10.8538 13.1663 10.7991 13.1663 10.7316C13.1663 10.6641 13.1116 10.6094 13.0441 10.6094C12.9766 10.6094 12.9219 10.6641 12.9219 10.7316C12.9219 10.7991 12.9766 10.8538 13.0441 10.8538Z" fill="url(#paint21_linear_1283_2172)"/>
<path d="M12.9035 10.3343C12.971 10.3343 13.0257 10.2796 13.0257 10.2121C13.0257 10.1446 12.971 10.0898 12.9035 10.0898C12.836 10.0898 12.7812 10.1446 12.7812 10.2121C12.7812 10.2796 12.836 10.3343 12.9035 10.3343Z" fill="url(#paint22_linear_1283_2172)"/>
<path d="M12.6378 9.86944C12.7053 9.86944 12.7601 9.81472 12.7601 9.74722C12.7601 9.67972 12.7053 9.625 12.6378 9.625C12.5703 9.625 12.5156 9.67972 12.5156 9.74722C12.5156 9.81472 12.5703 9.86944 12.6378 9.86944Z" fill="url(#paint23_linear_1283_2172)"/>
<path d="M12.255 9.48663C12.3225 9.48663 12.3773 9.43191 12.3773 9.36441C12.3773 9.29691 12.3225 9.24219 12.255 9.24219C12.1875 9.24219 12.1328 9.29691 12.1328 9.36441C12.1328 9.43191 12.1875 9.48663 12.255 9.48663Z" fill="url(#paint24_linear_1283_2172)"/>
<path d="M11.7863 9.22101C11.8538 9.22101 11.9085 9.16629 11.9085 9.09878C11.9085 9.03128 11.8538 8.97656 11.7863 8.97656C11.7188 8.97656 11.6641 9.03128 11.6641 9.09878C11.6641 9.16629 11.7188 9.22101 11.7863 9.22101Z" fill="url(#paint25_linear_1283_2172)"/>
<path d="M11.2707 9.08038C11.3382 9.08038 11.3929 9.02566 11.3929 8.95816C11.3929 8.89066 11.3382 8.83594 11.2707 8.83594C11.2032 8.83594 11.1484 8.89066 11.1484 8.95816C11.1484 9.02566 11.2032 9.08038 11.2707 9.08038Z" fill="url(#paint26_linear_1283_2172)"/>
<path d="M11.0031 11.5492C11.3069 11.5492 11.5531 11.303 11.5531 10.9992C11.5531 10.6955 11.3069 10.4492 11.0031 10.4492C10.6994 10.4492 10.4531 10.6955 10.4531 10.9992C10.4531 11.303 10.6994 11.5492 11.0031 11.5492Z" fill="url(#paint27_linear_1283_2172)"/>
<defs>
<linearGradient id="paint0_linear_1283_2172" x1="11" y1="13.4453" x2="11" y2="18.9453" gradientUnits="userSpaceOnUse">
<stop stop-color="#138808"/>
<stop offset="1" stop-color="#128B07"/>
</linearGradient>
<linearGradient id="paint1_linear_1283_2172" x1="11" y1="3.05469" x2="11" y2="8.55469" gradientUnits="userSpaceOnUse">
<stop stop-color="#FF9933"/>
<stop offset="1" stop-color="#FF9730"/>
</linearGradient>
<linearGradient id="paint2_linear_1283_2172" x1="10.9991" y1="8.55469" x2="10.9991" y2="13.4436" gradientUnits="userSpaceOnUse">
<stop stop-color="#000080"/>
<stop offset="1" stop-color="#00001A"/>
</linearGradient>
<linearGradient id="paint3_linear_1283_2172" x1="10.7316" y1="8.83594" x2="10.7316" y2="9.08038" gradientUnits="userSpaceOnUse">
<stop stop-color="#000080"/>
<stop offset="1" stop-color="#00001A"/>
</linearGradient>
<linearGradient id="paint4_linear_1283_2172" x1="10.2082" y1="8.97656" x2="10.2082" y2="9.22101" gradientUnits="userSpaceOnUse">
<stop stop-color="#000080"/>
<stop offset="1" stop-color="#00001A"/>
</linearGradient>
<linearGradient id="paint5_linear_1283_2172" x1="9.74722" y1="9.24219" x2="9.74722" y2="9.48663" gradientUnits="userSpaceOnUse">
<stop stop-color="#000080"/>
<stop offset="1" stop-color="#00001A"/>
</linearGradient>
<linearGradient id="paint6_linear_1283_2172" x1="9.36441" y1="9.625" x2="9.36441" y2="9.86944" gradientUnits="userSpaceOnUse">
<stop stop-color="#000080"/>
<stop offset="1" stop-color="#00001A"/>
</linearGradient>
<linearGradient id="paint7_linear_1283_2172" x1="9.09878" y1="10.0898" x2="9.09878" y2="10.3343" gradientUnits="userSpaceOnUse">
<stop stop-color="#000080"/>
<stop offset="1" stop-color="#00001A"/>
</linearGradient>
<linearGradient id="paint8_linear_1283_2172" x1="8.95816" y1="10.6094" x2="8.95816" y2="10.8538" gradientUnits="userSpaceOnUse">
<stop stop-color="#000080"/>
<stop offset="1" stop-color="#00001A"/>
</linearGradient>
<linearGradient id="paint9_linear_1283_2172" x1="8.95816" y1="11.1484" x2="8.95816" y2="11.3929" gradientUnits="userSpaceOnUse">
<stop stop-color="#000080"/>
<stop offset="1" stop-color="#00001A"/>
</linearGradient>
<linearGradient id="paint10_linear_1283_2172" x1="9.09878" y1="11.6641" x2="9.09878" y2="11.9085" gradientUnits="userSpaceOnUse">
<stop stop-color="#000080"/>
<stop offset="1" stop-color="#00001A"/>
</linearGradient>
<linearGradient id="paint11_linear_1283_2172" x1="9.36441" y1="12.1328" x2="9.36441" y2="12.3773" gradientUnits="userSpaceOnUse">
<stop stop-color="#000080"/>
<stop offset="1" stop-color="#00001A"/>
</linearGradient>
<linearGradient id="paint12_linear_1283_2172" x1="9.74722" y1="12.5117" x2="9.74722" y2="12.7562" gradientUnits="userSpaceOnUse">
<stop stop-color="#000080"/>
<stop offset="1" stop-color="#00001A"/>
</linearGradient>
<linearGradient id="paint13_linear_1283_2172" x1="10.2082" y1="12.7812" x2="10.2082" y2="13.0257" gradientUnits="userSpaceOnUse">
<stop stop-color="#000080"/>
<stop offset="1" stop-color="#00001A"/>
</linearGradient>
<linearGradient id="paint14_linear_1283_2172" x1="10.7316" y1="12.918" x2="10.7316" y2="13.1624" gradientUnits="userSpaceOnUse">
<stop stop-color="#000080"/>
<stop offset="1" stop-color="#00001A"/>
</linearGradient>
<linearGradient id="paint15_linear_1283_2172" x1="11.2707" y1="12.918" x2="11.2707" y2="13.1624" gradientUnits="userSpaceOnUse">
<stop stop-color="#000080"/>
<stop offset="1" stop-color="#00001A"/>
</linearGradient>
<linearGradient id="paint16_linear_1283_2172" x1="11.7863" y1="12.7812" x2="11.7863" y2="13.0257" gradientUnits="userSpaceOnUse">
<stop stop-color="#000080"/>
<stop offset="1" stop-color="#00001A"/>
</linearGradient>
<linearGradient id="paint17_linear_1283_2172" x1="12.255" y1="12.5117" x2="12.255" y2="12.7562" gradientUnits="userSpaceOnUse">
<stop stop-color="#000080"/>
<stop offset="1" stop-color="#00001A"/>
</linearGradient>
<linearGradient id="paint18_linear_1283_2172" x1="12.6378" y1="12.1328" x2="12.6378" y2="12.3773" gradientUnits="userSpaceOnUse">
<stop stop-color="#000080"/>
<stop offset="1" stop-color="#00001A"/>
</linearGradient>
<linearGradient id="paint19_linear_1283_2172" x1="12.9035" y1="11.6641" x2="12.9035" y2="11.9085" gradientUnits="userSpaceOnUse">
<stop stop-color="#000080"/>
<stop offset="1" stop-color="#00001A"/>
</linearGradient>
<linearGradient id="paint20_linear_1283_2172" x1="13.0441" y1="11.1484" x2="13.0441" y2="11.3929" gradientUnits="userSpaceOnUse">
<stop stop-color="#000080"/>
<stop offset="1" stop-color="#00001A"/>
</linearGradient>
<linearGradient id="paint21_linear_1283_2172" x1="13.0441" y1="10.6094" x2="13.0441" y2="10.8538" gradientUnits="userSpaceOnUse">
<stop stop-color="#000080"/>
<stop offset="1" stop-color="#00001A"/>
</linearGradient>
<linearGradient id="paint22_linear_1283_2172" x1="12.9035" y1="10.0898" x2="12.9035" y2="10.3343" gradientUnits="userSpaceOnUse">
<stop stop-color="#000080"/>
<stop offset="1" stop-color="#00001A"/>
</linearGradient>
<linearGradient id="paint23_linear_1283_2172" x1="12.6378" y1="9.625" x2="12.6378" y2="9.86944" gradientUnits="userSpaceOnUse">
<stop stop-color="#000080"/>
<stop offset="1" stop-color="#00001A"/>
</linearGradient>
<linearGradient id="paint24_linear_1283_2172" x1="12.255" y1="9.24219" x2="12.255" y2="9.48663" gradientUnits="userSpaceOnUse">
<stop stop-color="#000080"/>
<stop offset="1" stop-color="#00001A"/>
</linearGradient>
<linearGradient id="paint25_linear_1283_2172" x1="11.7863" y1="8.97656" x2="11.7863" y2="9.22101" gradientUnits="userSpaceOnUse">
<stop stop-color="#000080"/>
<stop offset="1" stop-color="#00001A"/>
</linearGradient>
<linearGradient id="paint26_linear_1283_2172" x1="11.2707" y1="8.83594" x2="11.2707" y2="9.08038" gradientUnits="userSpaceOnUse">
<stop stop-color="#000080"/>
<stop offset="1" stop-color="#00001A"/>
</linearGradient>
<linearGradient id="paint27_linear_1283_2172" x1="11.0031" y1="10.4492" x2="11.0031" y2="11.5492" gradientUnits="userSpaceOnUse">
<stop stop-color="#000080"/>
<stop offset="1" stop-color="#00001A"/>
</linearGradient>
</defs>
</svg>
