<svg width="24" height="24" viewBox="0 0 24 24" fill="none" xmlns="http://www.w3.org/2000/svg">
<circle cx="12" cy="12" r="11.5" fill="#F5BB5C" stroke="#5D3B01"/>
<path d="M14.0623 15.875C14.0623 14.7406 14.1905 14.4781 14.1905 14.4781C14.2942 14.1158 14.4991 13.7906 14.7811 13.5406C14.9248 13.4069 15.0585 13.2627 15.1811 13.1094C15.4216 12.8036 15.6125 12.462 15.7467 12.0969C15.878 11.7254 15.9466 11.3346 15.9498 10.9406V10.9219C15.954 10.0024 15.593 9.11897 14.946 8.46561C14.2991 7.81225 13.4193 7.44246 12.4998 7.4375C11.5812 7.44493 10.7032 7.81677 10.0586 8.47131C9.41402 9.12584 9.05569 10.0095 9.06235 10.9281V10.9469C9.06559 11.3409 9.13423 11.7316 9.26547 12.1031C9.39971 12.4682 9.59059 12.8099 9.8311 13.1156C9.9537 13.269 10.0874 13.4131 10.2311 13.5469C10.5131 13.7968 10.718 14.1221 10.8217 14.4844C10.8217 14.4844 10.9373 14.7469 10.9373 15.875" fill="white"/>
<path d="M14.0623 15.875C14.0623 14.7406 14.1905 14.4781 14.1905 14.4781C14.2942 14.1158 14.4991 13.7906 14.7811 13.5406C14.9248 13.4069 15.0585 13.2627 15.1811 13.1094C15.4216 12.8036 15.6125 12.462 15.7467 12.0969C15.878 11.7254 15.9466 11.3346 15.9498 10.9406V10.9219C15.954 10.0024 15.593 9.11897 14.946 8.46561C14.2991 7.81225 13.4193 7.44246 12.4998 7.4375C11.5812 7.44493 10.7032 7.81677 10.0586 8.47131C9.41402 9.12584 9.05569 10.0095 9.06235 10.9281V10.9469C9.06559 11.3409 9.13423 11.7316 9.26547 12.1031C9.39971 12.4682 9.59059 12.8099 9.8311 13.1156C9.9537 13.269 10.0874 13.4131 10.2311 13.5469C10.5131 13.7968 10.718 14.1221 10.8217 14.4844C10.8217 14.4844 10.9373 14.7469 10.9373 15.875" stroke="#5D3B01" stroke-width="0.625" stroke-linecap="round" stroke-linejoin="round"/>
<path d="M12.5 4.625V6.11562M8.75 5.81875L9.50625 6.8125L8.75 5.81875ZM16.25 5.81875L15.4938 6.8125L16.25 5.81875Z" stroke="#5D3B01" stroke-width="0.596875" stroke-linecap="round" stroke-linejoin="round"/>
<path d="M13.4375 17.75H11.5625C11.3967 17.7343 11.2422 17.6593 11.1273 17.5387C11.0125 17.4181 10.9451 17.2601 10.9375 17.0938V15.5625H14.0625V17.0938C14.0549 17.2601 13.9875 17.4181 13.8727 17.5387C13.7578 17.6593 13.6033 17.7343 13.4375 17.75Z" fill="#C07800" stroke="#5D3B01" stroke-width="0.625" stroke-linecap="round" stroke-linejoin="round"/>
</svg>
