<svg width="42" height="42" viewBox="0 0 42 42" fill="none" xmlns="http://www.w3.org/2000/svg">
<g filter="url(#filter0_d_2798_3803)">
<path d="M26.8438 10H15.1562C12.3085 10 10 12.3085 10 15.1562V26.8438C10 29.6915 12.3085 32 15.1562 32H26.8438C29.6915 32 32 29.6915 32 26.8438V15.1562C32 12.3085 29.6915 10 26.8438 10Z" fill="url(#paint0_radial_2798_3803)"/>
<path d="M26.8438 10H15.1562C12.3085 10 10 12.3085 10 15.1562V26.8438C10 29.6915 12.3085 32 15.1562 32H26.8438C29.6915 32 32 29.6915 32 26.8438V15.1562C32 12.3085 29.6915 10 26.8438 10Z" fill="url(#paint1_radial_2798_3803)"/>
<path d="M21.0008 12.4062C18.6669 12.4062 18.3739 12.4165 17.4573 12.4582C16.5424 12.5001 15.9179 12.6449 15.3715 12.8574C14.8062 13.0769 14.3268 13.3706 13.8491 13.8484C13.3711 14.3261 13.0774 14.8055 12.8573 15.3706C12.6441 15.9171 12.4991 16.5419 12.458 17.4564C12.417 18.3731 12.4062 18.6661 12.4062 21.0001C12.4062 23.3341 12.4166 23.6261 12.4582 24.5427C12.5003 25.4576 12.6451 26.0821 12.8574 26.6285C13.0771 27.1938 13.3707 27.6732 13.8485 28.1509C14.3261 28.6289 14.8055 28.9233 15.3704 29.1427C15.9172 29.3553 16.5418 29.5001 17.4565 29.542C18.3732 29.5837 18.6659 29.5939 20.9997 29.5939C23.3339 29.5939 23.6259 29.5837 24.5425 29.542C25.4574 29.5001 26.0826 29.3553 26.6294 29.1427C27.1945 28.9233 27.6732 28.6289 28.1507 28.1509C28.6288 27.6732 28.9223 27.1938 29.1426 26.6287C29.3538 26.0821 29.4989 25.4574 29.5418 24.5429C29.583 23.6262 29.5938 23.3341 29.5938 21.0001C29.5938 18.6661 29.583 18.3732 29.5418 17.4565C29.4989 16.5416 29.3538 15.9172 29.1426 15.3708C28.9223 14.8055 28.6288 14.3261 28.1507 13.8484C27.6727 13.3704 27.1946 13.0767 26.6289 12.8575C26.0811 12.6449 25.4562 12.5 24.5413 12.4582C23.6246 12.4165 23.3328 12.4062 20.9981 12.4062H21.0008ZM20.2298 13.9549C20.4587 13.9546 20.714 13.9549 21.0008 13.9549C23.2954 13.9549 23.5673 13.9632 24.4734 14.0043C25.3113 14.0427 25.7661 14.1827 26.069 14.3003C26.4701 14.456 26.756 14.6423 27.0566 14.9431C27.3574 15.2439 27.5435 15.5303 27.6997 15.9314C27.8173 16.2339 27.9575 16.6887 27.9957 17.5266C28.0368 18.4325 28.0458 18.7046 28.0458 20.9981C28.0458 23.2916 28.0368 23.5638 27.9957 24.4696C27.9573 25.3075 27.8173 25.7623 27.6997 26.0649C27.544 26.466 27.3574 26.7515 27.0566 27.0521C26.7558 27.3529 26.4703 27.5391 26.069 27.6949C25.7664 27.813 25.3113 27.9527 24.4734 27.991C23.5675 28.0322 23.2954 28.0411 21.0008 28.0411C18.7061 28.0411 18.4341 28.0322 17.5282 27.991C16.6903 27.9523 16.2355 27.8124 15.9324 27.6947C15.5314 27.5389 15.2449 27.3528 14.9441 27.052C14.6433 26.7512 14.4571 26.4655 14.301 26.0642C14.1834 25.7616 14.0432 25.3068 14.005 24.469C13.9639 23.563 13.9556 23.2909 13.9556 20.996C13.9556 18.701 13.9639 18.4304 14.005 17.5244C14.0434 16.6865 14.1834 16.2318 14.301 15.9288C14.4568 15.5278 14.6433 15.2413 14.9442 14.9405C15.245 14.6398 15.5314 14.4535 15.9324 14.2975C16.2354 14.1793 16.6903 14.0397 17.5282 14.0012C18.321 13.9653 18.6282 13.9546 20.2298 13.9528V13.9549ZM25.5881 15.3818C25.0188 15.3818 24.5569 15.8433 24.5569 16.4127C24.5569 16.9821 25.0188 17.444 25.5881 17.444C26.1575 17.444 26.6194 16.9821 26.6194 16.4127C26.6194 15.8434 26.1575 15.3815 25.5881 15.3815V15.3818ZM21.0008 16.5868C18.5636 16.5868 16.5875 18.5628 16.5875 21.0001C16.5875 23.4374 18.5636 25.4125 21.0008 25.4125C23.438 25.4125 25.4134 23.4374 25.4134 21.0001C25.4134 18.5629 23.4379 16.5868 21.0006 16.5868H21.0008ZM21.0008 18.1354C22.5828 18.1354 23.8654 19.4179 23.8654 21.0001C23.8654 22.5821 22.5828 23.8647 21.0008 23.8647C19.4188 23.8647 18.1362 22.5821 18.1362 21.0001C18.1362 19.4179 19.4187 18.1354 21.0008 18.1354Z" fill="white"/>
</g>
<defs>
<filter id="filter0_d_2798_3803" x="0" y="0" width="42" height="42" filterUnits="userSpaceOnUse" color-interpolation-filters="sRGB">
<feFlood flood-opacity="0" result="BackgroundImageFix"/>
<feColorMatrix in="SourceAlpha" type="matrix" values="0 0 0 0 0 0 0 0 0 0 0 0 0 0 0 0 0 0 127 0" result="hardAlpha"/>
<feOffset/>
<feGaussianBlur stdDeviation="5"/>
<feComposite in2="hardAlpha" operator="out"/>
<feColorMatrix type="matrix" values="0 0 0 0 0.886275 0 0 0 0 0.270588 0 0 0 0 0.466667 0 0 0 1 0"/>
<feBlend mode="normal" in2="BackgroundImageFix" result="effect1_dropShadow_2798_3803"/>
<feBlend mode="normal" in="SourceGraphic" in2="effect1_dropShadow_2798_3803" result="shape"/>
</filter>
<radialGradient id="paint0_radial_2798_3803" cx="0" cy="0" r="1" gradientUnits="userSpaceOnUse" gradientTransform="translate(15.8437 33.6944) rotate(-90) scale(21.8036 20.2791)">
<stop stop-color="#FFDD55"/>
<stop offset="0.1" stop-color="#FFDD55"/>
<stop offset="0.5" stop-color="#FF543E"/>
<stop offset="1" stop-color="#C837AB"/>
</radialGradient>
<radialGradient id="paint1_radial_2798_3803" cx="0" cy="0" r="1" gradientUnits="userSpaceOnUse" gradientTransform="translate(6.31491 11.5848) rotate(78.681) scale(9.74634 40.1747)">
<stop stop-color="#3771C8"/>
<stop offset="0.128" stop-color="#3771C8"/>
<stop offset="1" stop-color="#6600FF" stop-opacity="0"/>
</radialGradient>
</defs>
</svg>
