<svg width="15" height="15" viewBox="0 0 15 15" fill="none" xmlns="http://www.w3.org/2000/svg">
<path d="M7.50906 12.8971C10.4884 12.8971 12.8932 10.4807 12.8932 7.48963C12.8932 4.51026 10.4884 2.10547 7.50906 2.10547M7.50906 12.8971C4.51802 12.8971 2.10156 10.4807 2.10156 7.48963C2.10156 4.51026 4.51802 2.10547 7.50906 2.10547M7.50906 12.8971V2.10547M12.1792 4.80339H2.81906M12.2093 10.1336H2.78902M2.13073 7.5013H12.8641" stroke="white" stroke-width="0.5" stroke-linecap="round" stroke-linejoin="round"/>
<path d="M7.50844 12.8971C8.99827 12.8971 10.2005 10.4807 10.2005 7.48963C10.2005 4.51026 8.99827 2.10547 7.50844 2.10547C6.01277 2.10547 4.80469 4.51026 4.80469 7.48963C4.80469 10.4807 6.01277 12.8971 7.50844 12.8971Z" stroke="white" stroke-width="0.5" stroke-linecap="round" stroke-linejoin="round"/>
</svg>
