<svg width="34" height="35" viewBox="0 0 34 35" fill="none" xmlns="http://www.w3.org/2000/svg">
<path d="M24.084 17.5709C24.0138 17.5713 23.9445 17.5546 23.8822 17.5223L17.1868 14.2942C17.1088 14.2565 17.0429 14.1976 16.9967 14.1243C16.9505 14.051 16.9257 13.9662 16.9253 13.8795V6.65729C16.9256 6.57897 16.9456 6.50199 16.9835 6.43344C17.0214 6.36489 17.0759 6.30696 17.142 6.26498C17.205 6.22834 17.2757 6.20719 17.3485 6.20329C17.4213 6.1994 17.4939 6.21286 17.5604 6.24256L24.2857 9.46696C24.3637 9.5047 24.4296 9.56357 24.4758 9.63689C24.5221 9.7102 24.5468 9.79501 24.5473 9.88168V17.1076C24.5442 17.1828 24.5229 17.2561 24.4851 17.3212C24.4474 17.3863 24.3943 17.4412 24.3306 17.4812C24.2581 17.5332 24.1728 17.5642 24.084 17.5709ZM17.8369 13.5768L23.6207 16.3604V10.1806L17.8369 7.39333V13.5768Z" fill="#090707"/>
<path d="M24.084 10.345C24.0143 10.3448 23.9454 10.3295 23.8822 10.3001L17.1868 7.072C17.1082 7.03398 17.042 6.97453 16.9957 6.90049C16.9494 6.82645 16.925 6.74085 16.9253 6.65354C16.9253 6.56677 16.9498 6.48178 16.9961 6.40839C17.0424 6.33499 17.1085 6.2762 17.1868 6.23882L23.9121 3.01442C23.9746 2.98483 24.0429 2.96948 24.112 2.96948C24.1811 2.96948 24.2494 2.98483 24.3119 3.01442L31.0371 6.24255C31.1157 6.28057 31.182 6.34003 31.2283 6.41407C31.2745 6.4881 31.299 6.57371 31.2987 6.66101C31.2974 6.75091 31.2694 6.83839 31.2181 6.91226C31.1669 6.98614 31.0948 7.04305 31.011 7.07574L24.2857 10.3001C24.2225 10.3295 24.1537 10.3448 24.084 10.345ZM18.4422 6.65354L24.084 9.36981L29.7295 6.66101L24.0877 3.94475L18.4422 6.65354Z" fill="#090707"/>
<path d="M24.084 17.571C23.9969 17.5698 23.9117 17.5453 23.8374 17.5C23.7736 17.46 23.7206 17.4051 23.6828 17.34C23.6451 17.2749 23.6237 17.2015 23.6207 17.1263V9.8892C23.6207 9.80243 23.6452 9.71744 23.6915 9.64404C23.7378 9.57065 23.8039 9.51186 23.8822 9.47447L30.6075 6.24261C30.6774 6.20837 30.7549 6.19246 30.8327 6.19638C30.9105 6.20031 30.986 6.22392 31.0521 6.26502C31.1182 6.307 31.1727 6.36493 31.2106 6.43349C31.2484 6.50204 31.2685 6.57901 31.2688 6.65733V13.8795C31.2684 13.9662 31.2436 14.051 31.1974 14.1243C31.1512 14.1976 31.0853 14.2565 31.0073 14.2943L24.2857 17.5224C24.2234 17.5547 24.1542 17.5713 24.084 17.571ZM24.5473 10.1806V16.3716L30.331 13.5769V7.39338L24.5473 10.1806Z" fill="#090707"/>
<path d="M20.7288 8.71972C20.6303 8.71023 20.5374 8.66945 20.4638 8.60335C20.3902 8.53726 20.3396 8.44933 20.3196 8.35243C20.2995 8.25553 20.311 8.15476 20.3524 8.06488C20.3937 7.97499 20.4628 7.90071 20.5494 7.85291L27.2747 4.62851C27.3805 4.6014 27.4925 4.61255 27.5909 4.65998C27.6893 4.70741 27.7678 4.78808 27.8125 4.88774C27.8571 4.98741 27.8652 5.09966 27.8352 5.20468C27.8051 5.30969 27.739 5.40073 27.6483 5.4617L20.9231 8.6861C20.8612 8.71027 20.7952 8.7217 20.7288 8.71972Z" fill="#090707"/>
<path d="M21.6292 11.8994C21.5596 11.8989 21.4908 11.8836 21.4275 11.8546L19.4473 10.9018C19.388 10.8785 19.3342 10.8432 19.2891 10.7982C19.2441 10.7532 19.2088 10.6994 19.1855 10.6401C19.1623 10.5808 19.1514 10.5174 19.1538 10.4537C19.1561 10.3901 19.1715 10.3276 19.199 10.2702C19.2266 10.2128 19.2657 10.1617 19.3139 10.12C19.3621 10.0784 19.4183 10.0472 19.4791 10.0282C19.5399 10.0093 19.604 10.0031 19.6673 10.0101C19.7306 10.017 19.7918 10.037 19.847 10.0686L21.831 11.0214C21.9241 11.0677 21.9989 11.1441 22.0434 11.2381C22.0879 11.3322 22.0994 11.4385 22.0761 11.5399C22.0528 11.6413 21.996 11.7319 21.915 11.7971C21.8339 11.8623 21.7333 11.8983 21.6292 11.8994Z" fill="#090707"/>
<path d="M14.2725 9.17568H8.66814C8.54885 9.17278 8.43537 9.12359 8.3517 9.03852C8.26803 8.95345 8.22072 8.83918 8.21979 8.71986V4.53151C8.21979 4.40863 8.2686 4.29079 8.35548 4.20391C8.44237 4.11702 8.56021 4.06821 8.68308 4.06821H10.7829C11.1006 3.53802 11.5556 3.10343 12.0998 2.81031C12.644 2.51718 13.2572 2.37639 13.8747 2.40279C14.4923 2.42919 15.0913 2.62181 15.6084 2.96031C16.1256 3.29881 16.5419 3.77064 16.8132 4.32601C16.8614 4.43517 16.8656 4.55873 16.825 4.67093C16.7844 4.78313 16.702 4.87532 16.5951 4.9283C16.4882 4.98128 16.3649 4.99096 16.251 4.95533C16.1371 4.91969 16.0414 4.84148 15.9837 4.737C15.7779 4.31311 15.4569 3.95569 15.0575 3.70563C14.6581 3.45558 14.1964 3.32296 13.7252 3.32296C13.2539 3.32296 12.7922 3.45558 12.3928 3.70563C11.9934 3.95569 11.6724 4.31311 11.4666 4.737C11.429 4.81488 11.3701 4.88048 11.2967 4.92612C11.2232 4.97177 11.1383 4.99559 11.0519 4.9948H9.14638V8.24909H14.2725C14.3954 8.24909 14.5133 8.2979 14.6001 8.38479C14.687 8.47167 14.7358 8.58951 14.7358 8.71239C14.7358 8.83526 14.687 8.9531 14.6001 9.03999C14.5133 9.12687 14.3954 9.17568 14.2725 9.17568Z" fill="#090707"/>
<path d="M23.602 32.6021H3.21319C3.15284 32.6021 3.09308 32.5902 3.03732 32.5671C2.98157 32.544 2.93091 32.5102 2.88823 32.4675C2.84556 32.4248 2.81171 32.3741 2.78861 32.3184C2.76552 32.2626 2.75363 32.2029 2.75363 32.1425V6.20538C2.75163 6.14378 2.76203 6.08241 2.78423 6.02492C2.80642 5.96743 2.83996 5.91498 2.88283 5.87071C2.92571 5.82644 2.97705 5.79125 3.0338 5.76723C3.09056 5.7432 3.15156 5.73084 3.21319 5.73087H8.68308C8.74717 5.7251 8.81175 5.73274 8.87272 5.75331C8.93369 5.77387 8.98971 5.80691 9.03721 5.85032C9.0847 5.89373 9.12263 5.94656 9.14859 6.00544C9.17454 6.06432 9.18794 6.12796 9.18794 6.1923C9.18794 6.25665 9.17454 6.32029 9.14859 6.37916C9.12263 6.43804 9.0847 6.49087 9.03721 6.53428C8.98971 6.57769 8.93369 6.61073 8.87272 6.6313C8.81175 6.65186 8.74717 6.6595 8.68308 6.65373H3.67649V31.6867H23.602C24.1083 31.6867 24.594 31.4855 24.952 31.1275C25.3101 30.7694 25.5112 30.2838 25.5112 29.7775V18.961C25.5054 18.8969 25.5131 18.8323 25.5336 18.7713C25.5542 18.7104 25.5873 18.6544 25.6307 18.6069C25.6741 18.5594 25.7269 18.5214 25.7858 18.4955C25.8447 18.4695 25.9083 18.4561 25.9726 18.4561C26.037 18.4561 26.1006 18.4695 26.1595 18.4955C26.2184 18.5214 26.2712 18.5594 26.3146 18.6069C26.358 18.6544 26.3911 18.7104 26.4116 18.7713C26.4322 18.8323 26.4398 18.8969 26.4341 18.961V29.77C26.4331 30.5208 26.1344 31.2406 25.6035 31.7715C25.0726 32.3024 24.3528 32.6011 23.602 32.6021Z" fill="#090707"/>
<path d="M8.03671 19.3869H8.01802C7.94411 19.3858 7.87156 19.3669 7.80651 19.3318C7.74147 19.2967 7.68586 19.2464 7.6444 19.1852L6.63561 17.7205C6.5876 17.6728 6.55066 17.615 6.52739 17.5514C6.50412 17.4878 6.49508 17.4198 6.50091 17.3523C6.50675 17.2848 6.52731 17.2194 6.56116 17.1608C6.595 17.1021 6.64131 17.0515 6.6968 17.0127C6.7523 16.9738 6.81564 16.9476 6.88237 16.9359C6.94909 16.9242 7.01757 16.9273 7.08298 16.9449C7.14839 16.9625 7.20915 16.9942 7.26096 17.0379C7.31277 17.0815 7.35438 17.136 7.38286 17.1975L8.04044 18.154L10.2187 15.4975C10.2553 15.4451 10.3023 15.4009 10.3568 15.3676C10.4113 15.3342 10.4721 15.3126 10.5354 15.3039C10.5987 15.2952 10.6631 15.2997 10.7246 15.3171C10.7861 15.3345 10.8433 15.3644 10.8926 15.405C10.942 15.4455 10.9824 15.4959 11.0114 15.5528C11.0403 15.6097 11.0572 15.6721 11.0609 15.7358C11.0647 15.7996 11.0552 15.8635 11.033 15.9234C11.0109 15.9833 10.9766 16.038 10.9323 16.0841L8.39539 19.2188C8.35124 19.271 8.29634 19.3131 8.23443 19.3421C8.17252 19.3711 8.10508 19.3864 8.03671 19.3869Z" fill="#090707"/>
<path d="M8.0367 23.9899H8.01802C7.94429 23.9879 7.87206 23.9686 7.80716 23.9335C7.74227 23.8985 7.68651 23.8487 7.64439 23.7881L6.6356 22.3272C6.58846 22.2793 6.55232 22.2217 6.52967 22.1585C6.50702 22.0952 6.4984 22.0277 6.50443 21.9608C6.51045 21.8939 6.53097 21.829 6.56455 21.7708C6.59813 21.7126 6.64398 21.6624 6.69891 21.6237C6.75384 21.5849 6.81654 21.5586 6.88265 21.5466C6.94877 21.5345 7.01672 21.537 7.08179 21.5538C7.14686 21.5706 7.20749 21.6014 7.25948 21.644C7.31147 21.6865 7.35356 21.7399 7.38285 21.8004L8.04043 22.7569L10.2187 20.0967C10.2955 19.9986 10.4081 19.935 10.5318 19.92C10.6554 19.9049 10.78 19.9396 10.8781 20.0164C10.9762 20.0932 11.0398 20.2058 11.0549 20.3295C11.0699 20.4531 11.0353 20.5777 10.9585 20.6758L8.39538 23.8105C8.35266 23.8652 8.29831 23.9096 8.23627 23.9407C8.17422 23.9717 8.10605 23.9885 8.0367 23.9899Z" fill="#090707"/>
<path d="M8.0367 28.593H8.01802C7.94437 28.5926 7.87192 28.5744 7.80685 28.5399C7.74178 28.5054 7.68604 28.4557 7.64439 28.395L6.6356 26.9341C6.58846 26.8862 6.55232 26.8286 6.52967 26.7653C6.50702 26.702 6.4984 26.6346 6.50443 26.5676C6.51045 26.5007 6.53097 26.4359 6.56455 26.3777C6.59813 26.3194 6.64398 26.2692 6.69891 26.2305C6.75384 26.1918 6.81654 26.1655 6.88265 26.1534C6.94877 26.1413 7.01672 26.1438 7.08179 26.1606C7.14686 26.1774 7.20749 26.2082 7.25948 26.2508C7.31147 26.2934 7.35356 26.3468 7.38285 26.4073L8.04043 27.3637L10.2187 24.7035C10.2553 24.6512 10.3023 24.6069 10.3568 24.5736C10.4113 24.5403 10.4721 24.5186 10.5354 24.5099C10.5987 24.5012 10.6631 24.5057 10.7246 24.5231C10.7861 24.5405 10.8433 24.5704 10.8926 24.611C10.942 24.6516 10.9824 24.7019 11.0114 24.7589C11.0403 24.8158 11.0572 24.8781 11.0609 24.9419C11.0647 25.0057 11.0552 25.0695 11.033 25.1294C11.0109 25.1894 10.9766 25.2441 10.9323 25.2901L8.36923 28.4248C8.3283 28.4742 8.27766 28.5146 8.22046 28.5435C8.16325 28.5724 8.1007 28.5893 8.0367 28.593Z" fill="#090707"/>
<path d="M19.2268 19.3867H12.7519C12.6367 19.3763 12.5295 19.3232 12.4515 19.2379C12.3734 19.1525 12.3301 19.041 12.3301 18.9253C12.3301 18.8096 12.3734 18.6981 12.4515 18.6127C12.5295 18.5273 12.6367 18.4742 12.7519 18.4639H19.2268C19.342 18.4742 19.4492 18.5273 19.5272 18.6127C19.6053 18.6981 19.6486 18.8096 19.6486 18.9253C19.6486 19.041 19.6053 19.1525 19.5272 19.2379C19.4492 19.3232 19.342 19.3763 19.2268 19.3867Z" fill="#090707"/>
<path d="M22.3802 23.5714H12.7519C12.629 23.5714 12.5112 23.5226 12.4243 23.4357C12.3374 23.3488 12.2886 23.2309 12.2886 23.1081C12.2886 22.9852 12.3374 22.8674 12.4243 22.7805C12.5112 22.6936 12.629 22.6448 12.7519 22.6448H22.3802C22.5031 22.6448 22.6209 22.6936 22.7078 22.7805C22.7947 22.8674 22.8435 22.9852 22.8435 23.1081C22.8435 23.2309 22.7947 23.3488 22.7078 23.4357C22.6209 23.5226 22.5031 23.5714 22.3802 23.5714Z" fill="#090707"/>
<path d="M22.3802 27.7524H12.7519C12.6367 27.742 12.5295 27.6889 12.4515 27.6035C12.3734 27.5181 12.3301 27.4066 12.3301 27.2909C12.3301 27.1753 12.3734 27.0638 12.4515 26.9784C12.5295 26.893 12.6367 26.8399 12.7519 26.8295H22.3802C22.4443 26.8237 22.5089 26.8314 22.5699 26.8519C22.6308 26.8725 22.6869 26.9055 22.7343 26.949C22.7818 26.9924 22.8198 27.0452 22.8457 27.1041C22.8717 27.1629 22.8851 27.2266 22.8851 27.2909C22.8851 27.3553 22.8717 27.4189 22.8457 27.4778C22.8198 27.5367 22.7818 27.5895 22.7343 27.6329C22.6869 27.6763 22.6308 27.7094 22.5699 27.7299C22.5089 27.7505 22.4443 27.7581 22.3802 27.7524Z" fill="#090707"/>
</svg>
