<svg width="23" height="23" viewBox="0 0 23 23" fill="none" xmlns="http://www.w3.org/2000/svg">
<path d="M10.507 20.5H9.105C5.52 20.5 3.728 20.5 2.614 19.365C1.5 18.23 1.5 16.403 1.5 12.75C1.5 9.097 1.5 7.27 2.614 6.135C3.728 5 5.52 5 9.105 5H12.908C16.493 5 18.286 5 19.4 6.135C20.257 7.008 20.454 8.291 20.5 10.5" stroke="white" stroke-width="1.5" stroke-linecap="round" stroke-linejoin="round"/>
<path d="M19.517 19.523L21.5 21.5M15.5 5L15.4 4.69C14.905 3.15 14.658 2.38 14.069 1.94C13.479 1.5 12.697 1.5 11.13 1.5H10.867C9.302 1.5 8.519 1.5 7.93 1.94C7.34 2.38 7.093 3.15 6.598 4.69L6.5 5M20.553 17.026C20.5609 16.5579 20.4755 16.0929 20.3018 15.6581C20.1281 15.2234 19.8696 14.8276 19.5414 14.4937C19.2131 14.1599 18.8217 13.8948 18.3899 13.7138C17.9582 13.5328 17.4947 13.4396 17.0265 13.4396C16.5583 13.4396 16.0948 13.5328 15.6631 13.7138C15.2313 13.8948 14.8399 14.1599 14.5116 14.4937C14.1834 14.8276 13.9249 15.2234 13.7512 15.6581C13.5775 16.0929 13.4921 16.5579 13.5 17.026C13.5156 17.951 13.894 18.8329 14.5536 19.4815C15.2133 20.1301 16.1014 20.4936 17.0265 20.4936C17.9516 20.4936 18.8397 20.1301 19.4994 19.4815C20.159 18.8329 20.5374 17.951 20.553 17.026Z" stroke="white" stroke-width="1.5" stroke-linecap="round" stroke-linejoin="round"/>
</svg>
