<svg width="34" height="33" viewBox="0 0 34 33" fill="none" xmlns="http://www.w3.org/2000/svg">
<path fill-rule="evenodd" clip-rule="evenodd" d="M9.67777 8.0865V6.24665C9.67799 5.5878 9.90991 4.9509 10.3314 4.45168C10.7529 3.95247 11.3359 3.62408 11.9746 3.52619L13.8553 3.23842C15.9402 2.92053 18.0598 2.92053 20.1447 3.23842L22.0254 3.52619C22.6641 3.62408 23.2471 3.95247 23.6686 4.45168C24.0901 4.9509 24.322 5.5878 24.3222 6.24665V8.0865L26.9644 8.30351C27.9474 8.38452 28.8754 8.79943 29.6001 9.48189C30.3247 10.1644 30.8041 11.075 30.9616 12.0681C31.6795 16.5853 31.6795 21.191 30.9616 25.7082C30.8041 26.7013 30.3247 27.6119 29.6001 28.2944C28.8754 28.9769 27.9474 29.3918 26.9644 29.4728L24.0787 29.7087C19.3672 30.0971 14.6328 30.0971 9.92133 29.7087L7.0356 29.4728C6.05257 29.3918 5.12456 28.9769 4.39994 28.2944C3.67531 27.6119 3.19593 26.7013 3.03844 25.7082C2.32052 21.191 2.32052 16.5853 3.03844 12.0681C3.19624 11.0753 3.67576 10.165 4.40036 9.48285C5.12495 8.8007 6.0528 8.38602 7.0356 8.30508L9.67777 8.0865ZM14.1991 5.57047C16.0561 5.28752 17.9439 5.28752 19.8009 5.57047L21.6816 5.85824C21.7728 5.87217 21.8562 5.91903 21.9164 5.9903C21.9767 6.06158 22.0099 6.15253 22.0099 6.24665V7.92138C18.6727 7.72696 15.3273 7.72696 11.9901 7.92138V6.24508C11.9901 6.15096 12.0233 6.06 12.0836 5.98873C12.1438 5.91745 12.2272 5.87059 12.3184 5.85666L14.1991 5.57047ZM10.1079 10.417C14.6954 10.0396 19.3046 10.0396 23.8921 10.417L26.7779 10.656C27.2455 10.6942 27.6871 10.8912 28.0319 11.2157C28.3768 11.5401 28.605 11.9731 28.6801 12.4455C28.7757 13.0504 28.8579 13.6574 28.9268 14.2665C25.2162 16.1296 21.1357 17.0985 17 17.0985C12.8643 17.0985 8.78383 16.1296 5.07325 14.2665C5.14108 13.6585 5.22329 13.0515 5.31989 12.4455C5.39497 11.9731 5.6232 11.5401 5.96807 11.2157C6.31293 10.8912 6.7545 10.6942 7.22213 10.656L10.1079 10.417ZM4.86668 16.7762C8.67715 18.5432 12.8143 19.4575 17 19.4575C21.1857 19.4575 25.3229 18.5432 29.1333 16.7762C29.281 19.6361 29.129 22.5038 28.6801 25.3308C28.6053 25.8034 28.3772 26.2368 28.0324 26.5616C27.6875 26.8863 27.2457 27.0836 26.7779 27.1219L23.8921 27.3577C19.3046 27.7351 14.6954 27.7351 10.1079 27.3577L7.22213 27.1219C6.75428 27.0836 6.31254 26.8863 5.96765 26.5616C5.62275 26.2368 5.39466 25.8034 5.31989 25.3308C4.87131 22.5002 4.7187 19.6319 4.86668 16.7762Z" fill="#25BAFF"/>
</svg>
