<svg width="21" height="20" viewBox="0 0 21 20" fill="none" xmlns="http://www.w3.org/2000/svg">
<path d="M18.6923 16.7684C18.6922 17.0526 18.4596 17.285 18.1757 17.285H12.1434C11.8597 17.2849 11.6279 17.0525 11.6278 16.7684V15.41C11.7905 15.4619 11.9635 15.4911 12.1434 15.4911H18.1757C18.3558 15.4911 18.5292 15.4612 18.6923 15.4091V16.7684ZM8.4413 11.2274C9.24158 11.4699 9.96567 11.9224 10.5448 12.5516C10.475 12.7374 10.4374 12.9386 10.4374 13.1483V15.1776H7.96669L8.77919 14.4081C8.90892 14.2859 8.97735 14.1134 8.96571 13.9374L8.95595 13.8612L8.4413 11.2274ZM5.15419 13.8622C5.11493 14.0628 5.18218 14.2685 5.32997 14.4081V14.4091L6.14345 15.1776H2.34169C2.57673 13.3052 3.90647 11.7673 5.66786 11.2284L5.15419 13.8622ZM12.1434 12.6327H18.1757C18.4595 12.6327 18.692 12.8642 18.6923 13.1483V13.7831C18.6923 14.0673 18.4596 14.2997 18.1757 14.2997H12.1434C11.8597 14.2996 11.6278 14.0672 11.6278 13.7831V13.1483C11.628 12.8643 11.8598 12.6328 12.1434 12.6327ZM7.18837 11.0253L7.72353 13.7675L7.05458 14.3993L6.38564 13.7675L6.92079 11.0253C7.01032 11.0228 7.09882 11.0228 7.18837 11.0253ZM7.05556 5.80066C8.16618 5.80085 9.07021 6.70491 9.07021 7.81726C9.07008 8.92772 8.16617 9.83093 7.05556 9.83093C5.94313 9.83083 5.04006 8.92763 5.03993 7.81726C5.03993 6.70482 5.94452 5.80066 7.05556 5.80066Z" stroke="white" stroke-width="0.8"/>
</svg>
