<svg width="38" height="39" viewBox="0 0 38 39" fill="none" xmlns="http://www.w3.org/2000/svg">
<path d="M18.9976 1.80664C19.8719 1.80665 20.8894 2.47718 21.7241 4.15527V4.15625L24.9487 10.6055V10.6064C25.2136 11.1472 25.6801 11.6451 26.1968 12.0264C26.6492 12.3602 27.1754 12.6294 27.6968 12.7578L27.9194 12.8047L33.7681 13.7764C35.5515 14.0737 36.4813 14.8386 36.7495 15.6729C37.0172 16.5061 36.7072 17.6653 35.4224 18.9414L30.8745 23.4893C30.4146 23.9492 30.0817 24.5959 29.8931 25.2549C29.7044 25.914 29.6449 26.6379 29.7866 27.2705L29.7876 27.2734L31.0894 32.9023C31.5928 35.0873 31.2019 36.3467 30.5054 36.8545C29.808 37.3629 28.485 37.3511 26.5513 36.209L21.0688 32.9639C20.478 32.614 19.7287 32.4541 19.0063 32.4541C18.2833 32.4542 17.5311 32.614 16.9331 32.9619L16.9302 32.9639L11.4487 36.209L11.4478 36.21C9.52569 37.3505 8.20195 37.3588 7.50146 36.8477C6.80136 36.3368 6.40771 35.0758 6.91064 32.9023L8.2124 27.2734V27.2705C8.35419 26.6379 8.29557 25.914 8.10693 25.2549C7.9183 24.5959 7.58533 23.9492 7.12549 23.4893L2.57861 18.9424C1.30242 17.6662 0.990996 16.5063 1.25732 15.6719C1.50699 14.89 2.33569 14.1688 3.90771 13.8369L4.23193 13.7764L10.0806 12.8047L10.0815 12.8037C10.6654 12.7046 11.2738 12.4063 11.7876 12.0254C12.3005 11.6451 12.7648 11.1479 13.0298 10.6084L13.0308 10.6094L16.2573 4.15625L16.2563 4.15527C17.1001 2.47752 18.1225 1.80664 18.9976 1.80664Z" fill="#F5F5F5" stroke="#999999" stroke-linecap="round" stroke-linejoin="round"/>
<path d="M14.9969 18.3886C15.6214 18.3886 16.1275 17.8823 16.1275 17.2578C16.1275 16.6332 15.6214 16.127 14.9969 16.127C14.3725 16.127 13.8663 16.6332 13.8663 17.2578C13.8663 17.8823 14.3725 18.3886 14.9969 18.3886Z" fill="#999999"/>
<path d="M22.9124 18.3886C23.5368 18.3886 24.043 17.8823 24.043 17.2578C24.043 16.6332 23.5368 16.127 22.9124 16.127C22.288 16.127 21.7818 16.6332 21.7818 17.2578C21.7818 17.8823 22.288 18.3886 22.9124 18.3886Z" fill="#999999"/>
<path d="M14.4959 27.2148C14.1655 27.206 13.9717 26.8884 13.9717 26.0329C13.9717 23.1918 18.1387 23.1034 18.9485 23.1131C19.7242 23.1024 23.9388 23.1762 23.9388 26.0327C23.9388 26.8619 23.7567 27.1858 23.4446 27.213" fill="#999999"/>
</svg>
