<svg width="24" height="24" viewBox="0 0 24 24" fill="none" xmlns="http://www.w3.org/2000/svg">
<circle cx="12" cy="12" r="11.5" fill="#1AAFE3" stroke="#097297"/>
<g clip-path="url(#clip0_1604_11478)">
<path d="M11.3406 11.1875H7.16557C6.54057 11.1875 6.16245 11.5594 6.18745 12.125C6.20511 12.3847 6.32274 12.6275 6.51562 12.8023C6.7085 12.9771 6.96163 13.0704 7.22182 13.0625H7.39995C7.17089 13.069 6.95378 13.1661 6.7962 13.3325C6.63862 13.4989 6.55344 13.7209 6.55932 13.95C6.55944 14.1734 6.6438 14.3885 6.79557 14.5525C6.94733 14.7164 7.15534 14.8171 7.37807 14.8344C7.24521 14.9385 7.14493 15.0786 7.08909 15.2379C7.03326 15.3972 7.02419 15.5692 7.06297 15.7335C7.10175 15.8978 7.18675 16.0476 7.30793 16.1651C7.42911 16.2827 7.5814 16.3631 7.74682 16.3969C7.64265 16.5876 7.61049 16.8094 7.6562 17.0219C7.70994 17.2276 7.832 17.4089 8.00235 17.5361C8.1727 17.6633 8.38121 17.7288 8.5937 17.7219H11.1499C11.4842 17.7199 11.8169 17.6769 12.1406 17.5938L13.7437 17.125C13.8374 17.0969 15.2249 17.125 15.8499 17.125C16.9656 17.0813 17.2656 11.9625 15.8499 11.9625C15.8499 11.9625 15.3343 11.9812 15.2249 11.9625C15.1749 11.9625 15.0624 11.75 14.7843 11.45L14.7593 11.4187C14.3531 10.9781 13.8906 10.4094 13.5656 10.0875C12.7749 9.3125 12.1187 8.65 11.6624 7.6375C11.4374 7.08438 11.4093 6.8125 10.8749 6.8125C10.6564 6.83462 10.4555 6.94237 10.3161 7.11218C10.1767 7.28199 10.1103 7.50007 10.1312 7.71875C10.155 8.01752 10.1946 8.31481 10.2499 8.60938C10.4468 9.66563 11.3218 11.1094 11.3468 11.175L11.3406 11.1875Z" fill="white" stroke="#004182" stroke-width="0.666667" stroke-linecap="round" stroke-linejoin="round"/>
</g>
<defs>
<clipPath id="clip0_1604_11478">
<rect width="15" height="15" fill="white" transform="translate(4 4)"/>
</clipPath>
</defs>
</svg>
