<svg width="11" height="11" viewBox="0 0 11 11" fill="none" xmlns="http://www.w3.org/2000/svg">
<path d="M8.41602 4.04166H6.07768L6.5456 2.63874C6.62977 2.38541 6.58727 2.10457 6.43102 1.88791C6.27477 1.67124 6.02143 1.54166 5.75435 1.54166H5.08268C4.95893 1.54166 4.84185 1.59666 4.76227 1.69166L2.80393 4.04166H1.74935C1.28977 4.04166 0.916016 4.41541 0.916016 4.87499V8.62499C0.916016 9.08457 1.28977 9.45832 1.74935 9.45832H7.29393C7.46347 9.45776 7.62884 9.40576 7.76819 9.30919C7.90754 9.21262 8.01429 9.07603 8.07435 8.91749L9.2231 5.85457C9.24054 5.80779 9.24943 5.75825 9.24935 5.70832V4.87499C9.24935 4.41541 8.8756 4.04166 8.41602 4.04166ZM1.74935 4.87499H2.58268V8.62499H1.74935V4.87499ZM8.41602 5.63291L7.29393 8.62499H3.41602V4.60916L5.27768 2.37499H5.75518L5.10435 4.32624C5.08322 4.38887 5.07733 4.45564 5.08716 4.521C5.09699 4.58636 5.12226 4.64844 5.16087 4.70209C5.19949 4.75574 5.25034 4.7994 5.3092 4.82947C5.36807 4.85954 5.43325 4.87515 5.49935 4.87499H8.41602V5.63291Z" fill="#505050"/>
</svg>
