<svg width="25" height="24" viewBox="0 0 25 24" fill="none" xmlns="http://www.w3.org/2000/svg">
<path d="M3.45754 22H4.51017V8.31579H3.45754C2.89919 8.31579 2.3637 8.53759 1.96889 8.93241C1.57408 9.32722 1.35227 9.8627 1.35227 10.4211V19.8947C1.35227 20.4531 1.57408 20.9886 1.96889 21.3834C2.3637 21.7782 2.89919 22 3.45754 22ZM20.2996 8.31579H12.9312L14.1123 4.77053C14.2177 4.45412 14.2464 4.11721 14.196 3.78753C14.1457 3.45786 14.0178 3.14486 13.8228 2.87431C13.6278 2.60376 13.3713 2.38341 13.0745 2.23141C12.7776 2.0794 12.4489 2.00009 12.1154 2H11.8786L6.61543 7.72421V22H18.1944L22.3123 12.9516L22.4049 12.5263V10.4211C22.4049 9.8627 22.1831 9.32722 21.7883 8.93241C21.3935 8.53759 20.858 8.31579 20.2996 8.31579Z" fill="#0086FF"/>
</svg>
