<svg width="49" height="18" viewBox="0 0 49 18" fill="none" xmlns="http://www.w3.org/2000/svg">
<path fill-rule="evenodd" clip-rule="evenodd" d="M48.5738 8.99998C48.5738 13.95 44.5239 18 39.574 18C34.6241 18 30.5742 13.95 30.5742 8.99998C30.5742 4.04999 34.6241 0 39.574 0C44.5239 0 48.5738 4.04999 48.5738 8.99998Z" fill="url(#paint0_radial_1750_5228)"/>
<path fill-rule="evenodd" clip-rule="evenodd" d="M48.5738 8.99998C48.5738 13.95 44.5239 18 39.574 18C34.6241 18 30.5742 13.95 30.5742 8.99998C30.5742 4.04999 34.6241 0 39.574 0C44.5239 0 48.5738 4.04999 48.5738 8.99998Z" fill="url(#paint1_radial_1750_5228)"/>
<path fill-rule="evenodd" clip-rule="evenodd" d="M41.4879 6.63594C41.3754 6.29844 37.7755 6.29844 37.663 6.63594C37.5505 6.97344 38.338 7.42344 39.5755 7.42344C40.8129 7.42344 41.6004 6.97344 41.4879 6.63594Z" fill="url(#paint2_linear_1750_5228)"/>
<path fill-rule="evenodd" clip-rule="evenodd" d="M41.4868 9.56242C39.1244 8.88742 38.3369 10.4624 38.3369 10.4624C38.3369 10.4624 38.5619 8.66242 36.1995 7.87492C33.9495 7.19992 32.5995 9.33742 32.487 10.5749C32.262 13.3874 34.737 16.5374 35.637 17.6624C35.7495 17.9999 36.087 17.9999 36.4245 17.9999C37.7744 17.6624 41.5993 16.4249 43.0618 13.9499C43.6243 12.7124 43.7368 10.2374 41.4868 9.56242Z" fill="url(#paint3_linear_1750_5228)"/>
<path fill-rule="evenodd" clip-rule="evenodd" d="M41.4868 9.56242C39.1244 8.88742 38.3369 10.4624 38.3369 10.4624C38.3369 10.4624 38.5619 8.66242 36.1995 7.87492C33.9495 7.19992 32.5995 9.33742 32.487 10.5749C32.262 13.3874 34.737 16.5374 35.637 17.6624C35.7495 17.9999 36.087 17.9999 36.4245 17.9999C37.7744 17.6624 41.5993 16.4249 43.0618 13.9499C43.6243 12.7124 43.7368 10.2374 41.4868 9.56242Z" fill="url(#paint4_radial_1750_5228)"/>
<path fill-rule="evenodd" clip-rule="evenodd" d="M41.4868 9.56242C39.1244 8.88742 38.3369 10.4624 38.3369 10.4624C38.3369 10.4624 38.5619 8.66242 36.1995 7.87492C33.9495 7.19992 32.5995 9.33742 32.487 10.5749C32.262 13.3874 34.737 16.5374 35.637 17.6624C35.7495 17.9999 36.087 17.9999 36.4245 17.9999C37.7744 17.6624 41.5993 16.4249 43.0618 13.9499C43.6243 12.7124 43.7368 10.2374 41.4868 9.56242Z" fill="url(#paint5_radial_1750_5228)"/>
<path fill-rule="evenodd" clip-rule="evenodd" d="M41.4868 9.56242C39.1244 8.88742 38.3369 10.4624 38.3369 10.4624C38.3369 10.4624 38.5619 8.66242 36.1995 7.87492C33.9495 7.19992 32.5995 9.33742 32.487 10.5749C32.262 13.3874 34.737 16.5374 35.637 17.6624C35.7495 17.9999 36.087 17.9999 36.4245 17.9999C37.7744 17.6624 41.5993 16.4249 43.0618 13.9499C43.6243 12.7124 43.7368 10.2374 41.4868 9.56242Z" fill="url(#paint6_radial_1750_5228)"/>
<path fill-rule="evenodd" clip-rule="evenodd" d="M41.4868 9.56242C39.1244 8.88742 38.3369 10.4624 38.3369 10.4624C38.3369 10.4624 38.5619 8.66242 36.1995 7.87492C33.9495 7.19992 32.5995 9.33742 32.487 10.5749C32.262 13.3874 34.737 16.5374 35.637 17.6624C35.7495 17.9999 36.087 17.9999 36.4245 17.9999C37.7744 17.6624 41.5993 16.4249 43.0618 13.9499C43.6243 12.7124 43.7368 10.2374 41.4868 9.56242Z" fill="url(#paint7_radial_1750_5228)"/>
<path fill-rule="evenodd" clip-rule="evenodd" d="M41.4868 9.56242C39.1244 8.88742 38.3369 10.4624 38.3369 10.4624C38.3369 10.4624 38.5619 8.66242 36.1995 7.87492C33.9495 7.19992 32.5995 9.33742 32.487 10.5749C32.262 13.3874 34.737 16.5374 35.637 17.6624C35.7495 17.9999 36.087 17.9999 36.4245 17.9999C37.7744 17.6624 41.5993 16.4249 43.0618 13.9499C43.6243 12.7124 43.7368 10.2374 41.4868 9.56242Z" fill="url(#paint8_radial_1750_5228)"/>
<path fill-rule="evenodd" clip-rule="evenodd" d="M41.4868 9.56242C39.1244 8.88742 38.3369 10.4624 38.3369 10.4624C38.3369 10.4624 38.5619 8.66242 36.1995 7.87492C33.9495 7.19992 32.5995 9.33742 32.487 10.5749C32.262 13.3874 34.737 16.5374 35.637 17.6624C35.7495 17.9999 36.087 17.9999 36.4245 17.9999C37.7744 17.6624 41.5993 16.4249 43.0618 13.9499C43.6243 12.7124 43.7368 10.2374 41.4868 9.56242Z" fill="url(#paint9_radial_1750_5228)"/>
<path fill-rule="evenodd" clip-rule="evenodd" d="M35.9744 11.025C35.9744 11.025 35.9744 11.025 35.9744 10.9125C36.0869 10.8 36.3119 10.6875 36.4244 10.575C36.8744 10.2375 36.6494 9.67498 36.0869 9.78748C35.9744 9.78748 34.6245 10.2375 33.7245 9.89998C32.8245 9.56248 32.712 9.22498 32.037 8.66248C31.632 8.25749 30.957 7.96499 30.597 8.36998C30.507 9.62998 30.687 10.8225 31.0695 11.9475C31.2945 12.3075 31.5645 12.645 31.9245 12.9375C35.0744 15.4125 37.8869 14.0625 37.9994 12.2625C38.1119 10.9125 36.4244 11.025 35.9744 11.025Z" fill="url(#paint10_radial_1750_5228)"/>
<path d="M48.5741 8.99887C48.3266 8.43637 47.0891 7.94137 46.6616 8.79637C45.7616 10.4839 45.4241 12.1714 43.2867 12.3964C42.6117 12.5089 41.7117 12.2839 41.0367 12.1714C40.4742 12.0589 40.3617 12.7339 40.8117 13.0714C41.0367 13.1839 41.1492 13.2964 41.3742 13.4089V13.5214C40.8117 13.5214 39.2368 13.7464 39.5743 15.0964C39.9567 16.6714 43.3317 17.2114 45.9191 15.3889C47.5616 13.7464 48.5741 11.4964 48.5741 8.99887Z" fill="url(#paint11_radial_1750_5228)"/>
<path fill-rule="evenodd" clip-rule="evenodd" d="M42.0968 1.41899C41.5568 1.50899 41.5343 2.22899 41.9618 2.22899C43.0868 2.22899 44.0542 2.63399 44.5267 2.99398C44.9092 3.24148 45.0892 2.74649 44.9092 2.49899C44.3242 1.77899 43.0418 1.26149 42.0968 1.41899Z" fill="url(#paint12_radial_1750_5228)"/>
<path fill-rule="evenodd" clip-rule="evenodd" d="M36.9881 1.41899C37.5281 1.50899 37.5506 2.22899 37.1231 2.22899C35.9981 2.22899 35.0306 2.63399 34.5581 2.99398C34.1757 3.24148 33.9957 2.74649 34.1757 2.49899C34.7831 1.77899 36.0431 1.26149 36.9881 1.41899Z" fill="url(#paint13_radial_1750_5228)"/>
<path fill-rule="evenodd" clip-rule="evenodd" d="M41.8945 4.65703C41.8945 5.44453 42.3445 5.66953 43.0195 5.78203C43.6945 5.89453 44.257 5.55703 44.257 4.65703C44.257 3.98203 43.9195 3.08203 43.0195 3.08203C42.232 3.08203 41.8945 3.98203 41.8945 4.65703Z" fill="url(#paint14_radial_1750_5228)"/>
<path d="M42.7244 4.47609C42.9605 4.47609 43.1519 4.28469 43.1519 4.04859C43.1519 3.81249 42.9605 3.62109 42.7244 3.62109C42.4883 3.62109 42.2969 3.81249 42.2969 4.04859C42.2969 4.28469 42.4883 4.47609 42.7244 4.47609Z" fill="#4E506A"/>
<path fill-rule="evenodd" clip-rule="evenodd" d="M41.8945 4.65703C41.8945 5.44453 42.3445 5.66953 43.0195 5.78203C43.6945 5.89453 44.257 5.55703 44.257 4.65703C44.257 3.98203 43.9195 3.08203 43.0195 3.08203C42.232 3.08203 41.8945 3.98203 41.8945 4.65703Z" fill="url(#paint15_radial_1750_5228)"/>
<path d="M42.7244 4.47609C42.9605 4.47609 43.1519 4.28469 43.1519 4.04859C43.1519 3.81249 42.9605 3.62109 42.7244 3.62109C42.4883 3.62109 42.2969 3.81249 42.2969 4.04859C42.2969 4.28469 42.4883 4.47609 42.7244 4.47609Z" fill="#4E506A"/>
<path fill-rule="evenodd" clip-rule="evenodd" d="M37.1906 4.65703C37.1906 5.44453 36.7406 5.66953 36.0656 5.78203C35.3906 5.89453 34.8281 5.55703 34.8281 4.65703C34.8281 3.98203 35.1656 3.08203 36.0656 3.08203C36.8531 3.08203 37.1906 3.98203 37.1906 4.65703Z" fill="url(#paint16_radial_1750_5228)"/>
<path fill-rule="evenodd" clip-rule="evenodd" d="M37.1906 4.65703C37.1906 5.44453 36.7406 5.66953 36.0656 5.78203C35.3906 5.89453 34.8281 5.55703 34.8281 4.65703C34.8281 3.98203 35.1656 3.08203 36.0656 3.08203C36.8531 3.08203 37.1906 3.98203 37.1906 4.65703Z" fill="url(#paint17_radial_1750_5228)"/>
<path d="M35.5251 4.47609C35.7612 4.47609 35.9526 4.28469 35.9526 4.04859C35.9526 3.81249 35.7612 3.62109 35.5251 3.62109C35.289 3.62109 35.0977 3.81249 35.0977 4.04859C35.0977 4.28469 35.289 4.47609 35.5251 4.47609Z" fill="#4E506A"/>
<path d="M24.5742 0C19.6017 0 15.5742 4.02749 15.5742 8.99998C15.5742 13.9725 19.6017 18 24.5742 18C29.5467 18 33.5742 13.9725 33.5742 8.99998C33.5742 4.02749 29.5467 0 24.5742 0Z" fill="url(#paint18_radial_1750_5228)"/>
<path d="M27.3624 4.5C24.8874 4.5 24.5724 6.5475 24.5724 6.5475C24.5724 6.5475 24.2574 4.5 21.7824 4.5C19.3974 4.5 18.6999 6.99749 18.9924 8.34749C19.7574 11.88 24.5499 14.355 24.5499 14.355C24.5499 14.355 29.3424 11.88 30.1074 8.34749C30.4224 6.99749 29.7249 4.5 27.3624 4.5Z" fill="white"/>
<path d="M9.5742 0C4.60171 0 0.574219 4.02749 0.574219 8.99998C0.574219 13.9725 4.60171 18 9.5742 18C14.5467 18 18.5742 13.9725 18.5742 8.99998C18.5742 4.02749 14.5467 0 9.5742 0Z" fill="url(#paint19_radial_1750_5228)"/>
<path d="M14.1208 8.25702C14.7283 8.68452 14.6158 9.58452 13.9633 9.92202C14.3008 10.4845 13.8733 11.227 13.2883 11.3845C13.3783 11.542 13.4233 11.677 13.4008 11.8345C13.3108 12.487 12.5908 12.5995 12.0508 12.5995H9.10327C7.93327 12.5995 7.34827 11.947 7.34827 11.407V8.63952C7.34827 7.17702 8.99077 5.93952 8.99077 4.90453L8.85577 3.64453C8.85577 3.57703 8.85577 3.37453 8.92327 3.32953C9.01327 3.23953 9.28327 3.08203 9.66577 3.08203C9.91327 3.08203 10.0933 3.12703 10.2958 3.23953C10.9708 3.57703 11.0608 4.40953 11.0608 5.08453C11.0608 5.39953 10.6558 6.36702 10.6108 6.70452C11.1283 6.52452 12.3433 6.32202 13.2883 6.45702C14.3908 6.61452 14.7058 7.35702 14.1208 8.25702ZM4.87328 7.19952H5.81828C5.99828 7.19952 6.17828 7.26702 6.31328 7.40202C6.44828 7.53702 6.51578 7.71702 6.51578 7.89702V12.4195C6.51578 12.5995 6.44828 12.7795 6.31328 12.9145C6.17828 13.0495 5.99828 13.117 5.81828 13.117H4.87328C4.69328 13.117 4.51328 13.0495 4.37828 12.9145C4.24328 12.7795 4.17578 12.5995 4.17578 12.4195V7.89702C4.17578 7.71702 4.24328 7.53702 4.37828 7.40202C4.51328 7.26702 4.69328 7.19952 4.87328 7.19952Z" fill="white"/>
<defs>
<radialGradient id="paint0_radial_1750_5228" cx="0" cy="0" r="1" gradientUnits="userSpaceOnUse" gradientTransform="translate(37.728 4.67074) scale(13.4281 13.4284)">
<stop stop-color="#FFED85"/>
<stop offset="0.1898" stop-color="#FFE180"/>
<stop offset="0.5295" stop-color="#FFC273"/>
<stop offset="0.9773" stop-color="#FF915E"/>
<stop offset="1" stop-color="#FF8E5D"/>
</radialGradient>
<radialGradient id="paint1_radial_1750_5228" cx="0" cy="0" r="1" gradientUnits="userSpaceOnUse" gradientTransform="translate(37.7633 5.30628) scale(8.35893 8.35909)">
<stop stop-color="#FFEA84" stop-opacity="0"/>
<stop offset="1" stop-color="#F08423" stop-opacity="0.34"/>
</radialGradient>
<linearGradient id="paint2_linear_1750_5228" x1="39.5755" y1="7.43073" x2="39.5755" y2="6.3901" gradientUnits="userSpaceOnUse">
<stop stop-color="#3F1D04"/>
<stop offset="1" stop-color="#7E2307"/>
</linearGradient>
<linearGradient id="paint3_linear_1750_5228" x1="38.1623" y1="10.9677" x2="35.8778" y2="18.3276" gradientUnits="userSpaceOnUse">
<stop stop-color="#F34462"/>
<stop offset="1" stop-color="#CC0820"/>
</linearGradient>
<radialGradient id="paint4_radial_1750_5228" cx="0" cy="0" r="1" gradientUnits="userSpaceOnUse" gradientTransform="translate(40.5343 12.3138) rotate(20.3932) scale(2.96201 2.96205)">
<stop stop-color="#FF7091" stop-opacity="0.7"/>
<stop offset="1" stop-color="#FE6D8E" stop-opacity="0"/>
</radialGradient>
<radialGradient id="paint5_radial_1750_5228" cx="0" cy="0" r="1" gradientUnits="userSpaceOnUse" gradientTransform="translate(35.3905 10.8217) rotate(20.3932) scale(2.96201 2.96205)">
<stop stop-color="#FF7091" stop-opacity="0.7"/>
<stop offset="1" stop-color="#FE6D8E" stop-opacity="0"/>
</radialGradient>
<radialGradient id="paint6_radial_1750_5228" cx="0" cy="0" r="1" gradientUnits="userSpaceOnUse" gradientTransform="translate(35.07 13.2478) rotate(101.61) scale(2.54325 3.50204)">
<stop stop-color="#9C0600"/>
<stop offset="1" stop-color="#9C0600" stop-opacity="0"/>
</radialGradient>
<radialGradient id="paint7_radial_1750_5228" cx="0" cy="0" r="1" gradientUnits="userSpaceOnUse" gradientTransform="translate(43.4288 13.501) rotate(30.6337) scale(1.53207 1.92282)">
<stop stop-color="#9C0600" stop-opacity="0.5"/>
<stop offset="1" stop-color="#9C0600" stop-opacity="0"/>
</radialGradient>
<radialGradient id="paint8_radial_1750_5228" cx="0" cy="0" r="1" gradientUnits="userSpaceOnUse" gradientTransform="translate(32.8963 10.2601) rotate(-20.1592) scale(1.3278 1.71109)">
<stop stop-color="#9C0600" stop-opacity="0.5"/>
<stop offset="1" stop-color="#9C0600" stop-opacity="0"/>
</radialGradient>
<radialGradient id="paint9_radial_1750_5228" cx="0" cy="0" r="1" gradientUnits="userSpaceOnUse" gradientTransform="translate(40.6413 15.6621) rotate(34.072) scale(1.78741 1.9359)">
<stop stop-color="#9C0600" stop-opacity="0.999"/>
<stop offset="1" stop-color="#9C0600" stop-opacity="0"/>
</radialGradient>
<radialGradient id="paint10_radial_1750_5228" cx="0" cy="0" r="1" gradientUnits="userSpaceOnUse" gradientTransform="translate(30.3954 8.40448) scale(7.98431 7.98447)">
<stop stop-color="#FF9F64"/>
<stop offset="1" stop-color="#FFE682"/>
</radialGradient>
<radialGradient id="paint11_radial_1750_5228" cx="0" cy="0" r="1" gradientUnits="userSpaceOnUse" gradientTransform="translate(47.8965 9.36271) scale(10.2697 10.2699)">
<stop stop-color="#FF9F64"/>
<stop offset="1" stop-color="#FFE682"/>
</radialGradient>
<radialGradient id="paint12_radial_1750_5228" cx="0" cy="0" r="1" gradientUnits="userSpaceOnUse" gradientTransform="translate(43.2293 1.83856) rotate(-81.4376) scale(0.515331 2.42083)">
<stop stop-color="#E38200"/>
<stop offset="1" stop-color="#D16C00"/>
</radialGradient>
<radialGradient id="paint13_radial_1750_5228" cx="0" cy="0" r="1" gradientUnits="userSpaceOnUse" gradientTransform="translate(35.8643 1.83861) rotate(-98.5624) scale(0.515331 2.42083)">
<stop stop-color="#E38200"/>
<stop offset="1" stop-color="#D16C00"/>
</radialGradient>
<radialGradient id="paint14_radial_1750_5228" cx="0" cy="0" r="1" gradientUnits="userSpaceOnUse" gradientTransform="translate(43.0364 4.84894) rotate(-90) scale(2.0921 2.09217)">
<stop stop-color="#3B426A"/>
<stop offset="0.9792" stop-color="#191A33"/>
</radialGradient>
<radialGradient id="paint15_radial_1750_5228" cx="0" cy="0" r="1" gradientUnits="userSpaceOnUse" gradientTransform="translate(43.0364 4.84894) rotate(-90) scale(2.0921 2.09217)">
<stop stop-color="#3B426A"/>
<stop offset="0.9792" stop-color="#191A33"/>
</radialGradient>
<radialGradient id="paint16_radial_1750_5228" cx="0" cy="0" r="1" gradientUnits="userSpaceOnUse" gradientTransform="translate(36.0573 4.84894) rotate(-90) scale(2.0921 2.09217)">
<stop stop-color="#3B426A"/>
<stop offset="0.9792" stop-color="#191A33"/>
</radialGradient>
<radialGradient id="paint17_radial_1750_5228" cx="0" cy="0" r="1" gradientUnits="userSpaceOnUse" gradientTransform="translate(36.0573 4.84894) rotate(-90) scale(2.0921 2.09217)">
<stop stop-color="#3B426A"/>
<stop offset="0.9792" stop-color="#191A33"/>
</radialGradient>
<radialGradient id="paint18_radial_1750_5228" cx="0" cy="0" r="1" gradientUnits="userSpaceOnUse" gradientTransform="translate(23.5896 8.00437) rotate(75.6577) scale(9.83612 9.83599)">
<stop stop-color="#FF8297"/>
<stop offset="0.1592" stop-color="#FD7A90"/>
<stop offset="0.4121" stop-color="#F8637B"/>
<stop offset="0.7251" stop-color="#EF3D5B"/>
<stop offset="1" stop-color="#E61739"/>
</radialGradient>
<radialGradient id="paint19_radial_1750_5228" cx="0" cy="0" r="1" gradientUnits="userSpaceOnUse" gradientTransform="translate(6.85828 5.5977) rotate(77.6772) scale(12.7045 12.7045)">
<stop stop-color="#18AFFF"/>
<stop offset="1" stop-color="#0062DF"/>
</radialGradient>
</defs>
</svg>
