<svg width="6" height="126" viewBox="0 0 6 126" fill="none" xmlns="http://www.w3.org/2000/svg">
<path d="M0.333333 3C0.333333 4.47276 1.52724 5.66667 3 5.66667C4.47276 5.66667 5.66667 4.47276 5.66667 3C5.66667 1.52724 4.47276 0.333333 3 0.333333C1.52724 0.333333 0.333333 1.52724 0.333333 3ZM0.333333 122.5C0.333333 123.973 1.52724 125.167 3 125.167C4.47276 125.167 5.66667 123.973 5.66667 122.5C5.66667 121.027 4.47276 119.833 3 119.833C1.52724 119.833 0.333333 121.027 0.333333 122.5ZM3 3H2.5V122.5H3H3.5V3H3Z" fill="#707070"/>
</svg>
