<svg width="24" height="24" viewBox="0 0 24 24" fill="none" xmlns="http://www.w3.org/2000/svg">
<path d="M5.57596 13.481C4.91955 14.1374 4.55078 15.0277 4.55078 15.956C4.55078 16.8843 4.91955 17.7745 5.57596 18.431C6.23237 19.0874 7.12265 19.4561 8.05096 19.4561C8.97926 19.4561 9.86955 19.0874 10.526 18.431M12.999 11.008C13.324 11.333 13.5818 11.7188 13.7578 12.1435C13.9337 12.5681 14.0242 13.0233 14.0242 13.483C14.0242 13.9426 13.9337 14.3978 13.7578 14.8224C13.5818 15.2471 13.324 15.633 12.999 15.958L10.524 18.433M8.04896 11.008L5.57396 13.483M18.431 10.526C19.0874 9.86955 19.4561 8.97926 19.4561 8.05096C19.4561 7.12265 19.0874 6.23237 18.431 5.57596C17.7745 4.91955 16.8843 4.55078 15.956 4.55078C15.0277 4.55078 14.1374 4.91955 13.481 5.57596M11.01 13C10.6849 12.675 10.4271 12.2891 10.2512 11.8644C10.0752 11.4398 9.98471 10.9846 9.98471 10.525C9.98471 10.0653 10.0752 9.61015 10.2512 9.18549C10.4271 8.76082 10.6849 8.37497 11.01 8.04996L13.484 5.57496M15.958 13L18.433 10.525" stroke="#2399F5" stroke-linecap="round" stroke-linejoin="round"/>
</svg>
