<svg width="31" height="31" viewBox="0 0 31 31" fill="none" xmlns="http://www.w3.org/2000/svg">
<rect x="0.5" y="0.5" width="30" height="30" rx="15" fill="#25BAFF" fill-opacity="0.1"/>
<rect x="0.5" y="0.5" width="30" height="30" rx="15" stroke="#2399F5"/>
<path d="M16.25 11L17.75 9.5C18.5 8.75 20 8.75 20.75 9.5L21.5 10.25C22.25 11 22.25 12.5 21.5 13.25L17.75 17C17 17.75 15.5 17.75 14.75 17M14.75 20L13.25 21.5C12.5 22.25 11 22.25 10.25 21.5L9.5 20.75C8.75 20 8.75 18.5 9.5 17.75L13.25 14C14 13.25 15.5 13.25 16.25 14" stroke="#2399F5" stroke-width="1.5" stroke-linecap="round" stroke-linejoin="round"/>
</svg>
