<svg width="28" height="46" viewBox="0 0 28 46" fill="none" xmlns="http://www.w3.org/2000/svg">
<path d="M7.54346 30.3281C4.89965 32.8277 4.02401 36.7278 5.33701 40.1557C6.65001 43.5836 9.88347 45.839 13.4847 45.839C17.086 45.839 20.3194 43.5836 21.6324 40.1557C22.9454 36.7278 22.0698 32.8277 19.426 30.3281H7.54346Z" fill="#35495E"/>
<path d="M28 13.7067C28 19.3238 20.265 30.88 16.31 36.4077C15.7751 37.143 14.9315 37.5764 14.035 37.5764C13.1385 37.5764 12.2949 37.143 11.76 36.4077C7.805 30.88 0 19.3238 0 13.7067C0.073427 9.98993 1.59105 6.45592 4.21778 3.88494C6.84451 1.31395 10.3643 -0.0825497 14 0.00377694C17.6357 -0.0825497 21.1555 1.31395 23.7822 3.88494C26.409 6.45592 27.9266 9.98993 28 13.7067Z" fill="#C03A2B"/>
<path d="M25.9947 11.7386C25.9947 16.5686 19.3622 26.4612 15.9672 31.2017C15.5119 31.8318 14.791 32.2036 14.0247 32.2036C13.2584 32.2036 12.5375 31.8318 12.0822 31.2017C8.68719 26.4612 2.05469 16.5686 2.05469 11.7386C2.18869 5.13277 7.52714 -0.116275 13.9897 0.00348336C17.1055 -0.0732769 20.1231 1.12126 22.3756 3.3232C24.6282 5.52514 25.9305 8.55326 25.9947 11.7386Z" fill="#E64C3C"/>
<path d="M14.0428 19.6786C16.9616 19.6786 19.3278 17.2759 19.3278 14.312C19.3278 11.3481 16.9616 8.94531 14.0428 8.94531C11.124 8.94531 8.75781 11.3481 8.75781 14.312C8.75781 17.2759 11.124 19.6786 14.0428 19.6786Z" fill="white"/>
</svg>
