<svg width="24" height="25" viewBox="0 0 24 25" fill="none" xmlns="http://www.w3.org/2000/svg">
<rect x="0.5" y="1" width="23" height="23" rx="11.5" fill="white"/>
<rect x="0.5" y="1" width="23" height="23" rx="11.5" stroke="#25BAFF"/>
<path d="M8.2665 7.67302C9.26005 6.69934 10.5977 6.1571 11.9888 6.16413C13.3799 6.17116 14.712 6.72688 15.6956 7.71054C16.6793 8.6942 17.235 10.0263 17.2421 11.4174C17.2491 12.8085 16.7068 14.1461 15.7332 15.1397L12.9425 17.9304C12.6925 18.1803 12.3534 18.3207 11.9998 18.3207C11.6463 18.3207 11.3072 18.1803 11.0572 17.9304L8.2665 15.1397C7.27643 14.1495 6.72021 12.8066 6.72021 11.4064C6.72021 10.0061 7.27643 8.66319 8.2665 7.67302Z" stroke="#25BAFF" stroke-linejoin="round"/>
<path d="M12 13.4062C13.1046 13.4062 14 12.5108 14 11.4062C14 10.3017 13.1046 9.40625 12 9.40625C10.8954 9.40625 10 10.3017 10 11.4062C10 12.5108 10.8954 13.4062 12 13.4062Z" stroke="#25BAFF" stroke-linecap="round" stroke-linejoin="round"/>
</svg>
