<svg width="24" height="24" viewBox="0 0 24 24" fill="none" xmlns="http://www.w3.org/2000/svg">
<path d="M6.4 4.76001C7.89031 3.2995 9.8968 2.48614 11.9834 2.49668C14.0701 2.50722 16.0682 3.34081 17.5437 4.8163C19.0192 6.29179 19.8528 8.28995 19.8633 10.3766C19.8739 12.4632 19.0605 14.4697 17.6 15.96L13.414 20.146C13.0389 20.521 12.5303 20.7316 12 20.7316C11.4697 20.7316 10.9611 20.521 10.586 20.146L6.4 15.96C4.91488 14.4747 4.08057 12.4604 4.08057 10.36C4.08057 8.25964 4.91488 6.24528 6.4 4.76001Z" stroke="#161F28" stroke-linejoin="round"/>
<path d="M12 13.36C13.6569 13.36 15 12.0168 15 10.36C15 8.70313 13.6569 7.35999 12 7.35999C10.3431 7.35999 9 8.70313 9 10.36C9 12.0168 10.3431 13.36 12 13.36Z" stroke="#161F28" stroke-linecap="round" stroke-linejoin="round"/>
</svg>
