<svg width="13" height="16" viewBox="0 0 13 16" fill="none" xmlns="http://www.w3.org/2000/svg">
<path d="M3.49106 3.34569C4.44912 2.40679 5.739 1.88392 7.08041 1.89069C8.42181 1.89746 9.70635 2.43334 10.6549 3.38187C11.6034 4.3304 12.1393 5.61493 12.1461 6.95634C12.1528 8.29774 11.63 9.58763 10.6911 10.5457L8.00006 13.2367C7.75895 13.4777 7.43199 13.6131 7.09106 13.6131C6.75014 13.6131 6.42317 13.4777 6.18206 13.2367L3.49106 10.5457C2.53635 9.59087 2 8.29593 2 6.94569C2 5.59545 2.53635 4.3005 3.49106 3.34569Z" stroke="white" stroke-linejoin="round"/>
<path d="M7.09263 8.87667C8.15775 8.87667 9.02121 8.01322 9.02121 6.9481C9.02121 5.88298 8.15775 5.01953 7.09263 5.01953C6.02751 5.01953 5.16406 5.88298 5.16406 6.9481C5.16406 8.01322 6.02751 8.87667 7.09263 8.87667Z" stroke="white" stroke-linecap="round" stroke-linejoin="round"/>
</svg>
