<svg width="34" height="33" viewBox="0 0 34 33" fill="none" xmlns="http://www.w3.org/2000/svg">
<path d="M17 5.34961C15.4005 5.34961 14.0996 6.65053 14.0996 8.25C14.0996 9.84947 15.4005 11.1504 17 11.1504C18.5995 11.1504 19.9004 9.84947 19.9004 8.25C19.9004 6.65053 18.5995 5.34961 17 5.34961ZM15.7754 13.4385L15.6631 13.4092C13.3602 12.811 11.6504 10.7337 11.6504 8.25C11.6504 5.29959 14.0496 2.90039 17 2.90039C19.9504 2.90039 22.3496 5.29959 22.3496 8.25C22.3496 10.7337 20.6398 12.811 18.3369 13.4092L18.2246 13.4385V20.5908L17 23.04L15.7754 20.5908V13.4385Z" fill="#25BAFF" stroke="#18232D" stroke-width="0.3"/>
<path d="M11.6826 17.0718C9.9514 17.5673 8.51554 18.2772 7.50195 19.1108C6.462 19.9662 5.84961 20.9649 5.84961 22.0005C5.84978 23.3868 7.04406 24.8008 8.99707 25.8579C10.9618 26.9213 13.7374 27.6499 17 27.6499C20.2626 27.6499 23.0382 26.9213 25.0029 25.8579C26.9559 24.8008 28.1502 23.3868 28.1504 22.0005C28.1504 20.9649 27.5378 19.966 26.498 19.1108C25.4846 18.2775 24.0489 17.5685 22.3184 17.0737L22.9707 14.7095C27.7251 16.0627 30.5996 18.8671 30.5996 22.0005C30.5995 24.2412 29.1364 26.2622 26.6885 27.731C24.2423 29.1986 20.833 30.1001 17 30.1001C13.167 30.1001 9.75765 29.1986 7.31152 27.731C4.86362 26.2622 3.40052 24.2412 3.40039 22.0005C3.40039 18.8674 6.27437 16.0632 11.0293 14.7085L11.6826 17.0718Z" fill="#25BAFF" stroke="#18232D" stroke-width="0.3"/>
</svg>
