<svg width="36" height="37" viewBox="0 0 36 37" fill="none" xmlns="http://www.w3.org/2000/svg">
<rect x="0.5" y="1" width="35" height="35" rx="17.5" fill="#1D2935"/>
<rect x="0.5" y="1" width="35" height="35" rx="17.5" stroke="#25BAFF"/>
<path d="M12.1319 11.2595C13.6222 9.79902 15.6287 8.98566 17.7154 8.99619C19.802 9.00673 21.8002 9.84032 23.2756 11.3158C24.7511 12.7913 25.5847 14.7895 25.5953 16.8761C25.6058 18.9627 24.7924 20.9692 23.3319 22.4595L19.1459 26.6455C18.7709 27.0205 18.2623 27.2311 17.7319 27.2311C17.2016 27.2311 16.693 27.0205 16.3179 26.6455L12.1319 22.4595C10.6468 20.9743 9.8125 18.9599 9.8125 16.8595C9.8125 14.7592 10.6468 12.7448 12.1319 11.2595Z" stroke="#25BAFF" stroke-linejoin="round"/>
<path d="M17.7344 19.8594C19.3912 19.8594 20.7344 18.5162 20.7344 16.8594C20.7344 15.2025 19.3912 13.8594 17.7344 13.8594C16.0775 13.8594 14.7344 15.2025 14.7344 16.8594C14.7344 18.5162 16.0775 19.8594 17.7344 19.8594Z" stroke="#25BAFF" stroke-linecap="round" stroke-linejoin="round"/>
</svg>
