<svg width="14" height="18" viewBox="0 0 14 18" fill="none" xmlns="http://www.w3.org/2000/svg">
<path d="M2.21346 3.04201C3.48293 1.73453 5.2047 1 6.99999 1C8.79529 1 10.5171 1.73453 11.7865 3.04201C13.056 4.34948 13.7692 6.1228 13.7692 7.97185C13.7692 9.8209 13.056 11.5942 11.7865 12.9017L10.8637 13.8417C10.1838 14.5292 9.30114 15.4132 8.21587 16.4936C7.88969 16.8184 7.45372 17 6.99999 17C6.54627 17 6.1103 16.8184 5.78412 16.4936L3.07095 13.7744C2.72889 13.4296 2.44306 13.1387 2.21346 12.9017C1.58486 12.2543 1.08622 11.4858 0.746014 10.6399C0.405813 9.79402 0.230713 8.88742 0.230713 7.97185C0.230713 7.05629 0.405813 6.14969 0.746014 5.30382C1.08622 4.45795 1.58486 3.68939 2.21346 3.04201ZM10.9625 3.89234C10.4422 3.35645 9.82456 2.93135 9.1448 2.64131C8.46503 2.35127 7.73645 2.20197 7.00066 2.20194C5.51466 2.20186 4.0895 2.80977 3.03868 3.89194C1.98787 4.97411 1.39749 6.44188 1.39742 7.97237C1.39735 9.50286 1.98759 10.9707 3.0383 12.053L4.19431 13.2276C4.83075 13.8692 5.63097 14.6699 6.59496 15.6296C6.7036 15.7381 6.84892 15.7988 7.00022 15.799C7.15153 15.7991 7.29696 15.7387 7.4058 15.6304L10.0451 12.9866C10.4095 12.6183 10.7153 12.3071 10.9625 12.053C11.4828 11.5171 11.8956 10.8809 12.1772 10.1808C12.4588 9.48058 12.6038 8.73013 12.6038 7.97225C12.6038 7.21438 12.4588 6.46393 12.1772 5.76375C11.8956 5.06358 11.4828 4.4282 10.9625 3.89234ZM6.99999 5.78917C7.31 5.78334 7.61804 5.8412 7.90609 5.95936C8.19415 6.07752 8.45646 6.25361 8.6777 6.47735C8.89894 6.70109 9.07467 6.968 9.19463 7.26247C9.3146 7.55695 9.37638 7.8731 9.37638 8.19244C9.37638 8.51179 9.3146 8.82793 9.19463 9.12241C9.07467 9.41689 8.89894 9.68379 8.6777 9.90753C8.45646 10.1313 8.19415 10.3074 7.90609 10.4255C7.61804 10.5437 7.31 10.6015 6.99999 10.5957C6.38851 10.5842 5.80584 10.326 5.37735 9.87651C4.94886 9.42706 4.70879 8.82234 4.70879 8.19244C4.70879 7.56255 4.94886 6.95782 5.37735 6.50837C5.80584 6.05892 6.38851 5.80067 6.99999 5.78917ZM6.99999 6.99021C6.84417 6.98606 6.68912 7.0141 6.54398 7.07265C6.39884 7.13121 6.26655 7.2191 6.15492 7.33115C6.04328 7.4432 5.95456 7.57713 5.89398 7.72506C5.8334 7.87298 5.80219 8.0319 5.80219 8.19244C5.80219 8.35299 5.8334 8.51191 5.89398 8.65983C5.95456 8.80775 6.04328 8.94169 6.15492 9.05373C6.26655 9.16578 6.39884 9.25367 6.54398 9.31223C6.68912 9.37079 6.84417 9.39882 6.99999 9.39468C7.3021 9.38332 7.58816 9.25172 7.79799 9.02758C8.00782 8.80343 8.12507 8.5042 8.12507 8.19284C8.12507 7.88148 8.00782 7.58225 7.79799 7.35811C7.58816 7.13396 7.3021 7.00237 6.99999 6.99101" fill="#090707"/>
<path d="M6.99999 6.99021C6.84417 6.98606 6.68912 7.0141 6.54398 7.07265C6.39884 7.13121 6.26655 7.2191 6.15492 7.33115C6.04328 7.4432 5.95456 7.57713 5.89398 7.72506C5.8334 7.87298 5.80219 8.0319 5.80219 8.19244C5.80219 8.35299 5.8334 8.51191 5.89398 8.65983C5.95456 8.80775 6.04328 8.94169 6.15492 9.05373C6.26655 9.16578 6.39884 9.25367 6.54398 9.31223C6.68912 9.37079 6.84417 9.39882 6.99999 9.39468C7.3021 9.38332 7.58816 9.25172 7.79799 9.02758C8.00782 8.80343 8.12507 8.5042 8.12507 8.19284C8.12507 7.88148 8.00782 7.58225 7.79799 7.35811C7.58816 7.13396 7.3021 7.00237 6.99999 6.99101M2.21346 3.04201C3.48293 1.73453 5.2047 1 6.99999 1C8.79529 1 10.5171 1.73453 11.7865 3.04201C13.056 4.34948 13.7692 6.1228 13.7692 7.97185C13.7692 9.8209 13.056 11.5942 11.7865 12.9017L10.8637 13.8417C10.1838 14.5292 9.30114 15.4132 8.21587 16.4936C7.88969 16.8184 7.45372 17 6.99999 17C6.54627 17 6.1103 16.8184 5.78412 16.4936L3.07095 13.7744C2.72889 13.4296 2.44306 13.1387 2.21346 12.9017C1.58486 12.2543 1.08622 11.4858 0.746014 10.6399C0.405813 9.79402 0.230713 8.88742 0.230713 7.97185C0.230713 7.05629 0.405813 6.14969 0.746014 5.30382C1.08622 4.45795 1.58486 3.68939 2.21346 3.04201ZM10.9625 3.89234C10.4422 3.35645 9.82456 2.93135 9.1448 2.64131C8.46503 2.35127 7.73645 2.20197 7.00066 2.20194C5.51466 2.20186 4.0895 2.80977 3.03868 3.89194C1.98787 4.97411 1.39749 6.44188 1.39742 7.97237C1.39735 9.50286 1.98759 10.9707 3.0383 12.053L4.19431 13.2276C4.83075 13.8692 5.63097 14.6699 6.59496 15.6296C6.7036 15.7381 6.84892 15.7988 7.00022 15.799C7.15153 15.7991 7.29696 15.7387 7.4058 15.6304L10.0451 12.9866C10.4095 12.6183 10.7153 12.3071 10.9625 12.053C11.4828 11.5171 11.8956 10.8809 12.1772 10.1808C12.4588 9.48058 12.6038 8.73013 12.6038 7.97225C12.6038 7.21438 12.4588 6.46393 12.1772 5.76375C11.8956 5.06358 11.4828 4.4282 10.9625 3.89234ZM6.99999 5.78917C7.31 5.78334 7.61804 5.8412 7.90609 5.95936C8.19415 6.07752 8.45646 6.25361 8.6777 6.47735C8.89894 6.70109 9.07467 6.968 9.19463 7.26247C9.3146 7.55695 9.37638 7.8731 9.37638 8.19244C9.37638 8.51179 9.3146 8.82793 9.19463 9.12241C9.07467 9.41689 8.89894 9.68379 8.6777 9.90753C8.45646 10.1313 8.19415 10.3074 7.90609 10.4255C7.61804 10.5437 7.31 10.6015 6.99999 10.5957C6.38851 10.5842 5.80584 10.326 5.37735 9.87651C4.94886 9.42706 4.70879 8.82234 4.70879 8.19244C4.70879 7.56255 4.94886 6.95782 5.37735 6.50837C5.80584 6.05892 6.38851 5.80067 6.99999 5.78917Z" stroke="#090707" stroke-width="0.3"/>
</svg>
