<svg width="21" height="20" viewBox="0 0 21 20" fill="none" xmlns="http://www.w3.org/2000/svg">
<path d="M17.1666 8.33335C17.1666 12.4942 12.5508 16.8275 11.0008 18.1659C10.8564 18.2744 10.6806 18.3331 10.4999 18.3331C10.3193 18.3331 10.1435 18.2744 9.99909 18.1659C8.44909 16.8275 3.83325 12.4942 3.83325 8.33335C3.83325 6.56524 4.53563 4.86955 5.78587 3.61931C7.03612 2.36907 8.73181 1.66669 10.4999 1.66669C12.268 1.66669 13.9637 2.36907 15.214 3.61931C16.4642 4.86955 17.1666 6.56524 17.1666 8.33335Z" stroke="white" stroke-width="2" stroke-linecap="round" stroke-linejoin="round"/>
<path d="M10.5 10.8333C11.8807 10.8333 13 9.71402 13 8.33331C13 6.9526 11.8807 5.83331 10.5 5.83331C9.11929 5.83331 8 6.9526 8 8.33331C8 9.71402 9.11929 10.8333 10.5 10.8333Z" stroke="white" stroke-width="2" stroke-linecap="round" stroke-linejoin="round"/>
</svg>
