<svg width="20" height="21" viewBox="0 0 20 21" fill="none" xmlns="http://www.w3.org/2000/svg">
<path d="M5.61098 5.65913C6.64242 4.59681 8.04136 4 9.50004 4C10.9587 4 12.3577 4.59681 13.3891 5.65913C14.4205 6.72146 15 8.16228 15 9.66463C15 11.167 14.4205 12.6078 13.3891 13.6701L12.6393 14.4339C12.0869 14.9925 11.3697 15.7107 10.4879 16.5885C10.2229 16.8525 9.86869 17 9.50004 17C9.13139 17 8.77717 16.8525 8.51214 16.5885L6.30769 14.3792C6.02977 14.0991 5.79753 13.8627 5.61098 13.6701C5.10024 13.1441 4.6951 12.5197 4.41868 11.8324C4.14227 11.1451 4 10.4085 4 9.66463C4 8.92073 4.14227 8.18412 4.41868 7.49685C4.6951 6.80959 5.10024 6.18513 5.61098 5.65913ZM12.7196 6.35003C12.2968 5.91462 11.795 5.56923 11.2427 5.33357C10.6904 5.09791 10.0984 4.9766 9.50058 4.97657C8.29321 4.97651 7.13526 5.47044 6.28148 6.3497C5.42769 7.22896 4.94801 8.42153 4.94795 9.66505C4.94789 10.9086 5.42746 12.1012 6.28116 12.9805L7.22042 13.9349C7.73753 14.4562 8.38771 15.1068 9.17095 15.8866C9.25922 15.9747 9.37729 16.024 9.50023 16.0242C9.62316 16.0243 9.74133 15.9752 9.82976 15.8872L11.9742 13.7391C12.2702 13.4398 12.5187 13.187 12.7196 12.9805C13.1423 12.5451 13.4777 12.0283 13.7065 11.4594C13.9354 10.8905 14.0531 10.2807 14.0531 9.66496C14.0531 9.04918 13.9354 8.43944 13.7065 7.87055C13.4777 7.30166 13.1423 6.78541 12.7196 6.35003ZM9.50004 7.8912C9.75192 7.88647 10.0022 7.93348 10.2362 8.02948C10.4703 8.12548 10.6834 8.26856 10.8632 8.45035C11.0429 8.63214 11.1857 8.849 11.2832 9.08826C11.3807 9.32752 11.4309 9.58439 11.4309 9.84386C11.4309 10.1033 11.3807 10.3602 11.2832 10.5995C11.1857 10.8387 11.0429 11.0556 10.8632 11.2374C10.6834 11.4192 10.4703 11.5622 10.2362 11.6582C10.0022 11.7542 9.75192 11.8013 9.50004 11.7965C9.00321 11.7872 8.52979 11.5773 8.18165 11.2122C7.8335 10.847 7.63844 10.3556 7.63844 9.84386C7.63844 9.33207 7.8335 8.84073 8.18165 8.47555C8.52979 8.11038 9.00321 7.90054 9.50004 7.8912ZM9.50004 8.86704C9.37343 8.86368 9.24745 8.88646 9.12953 8.93403C9.0116 8.98161 8.90412 9.05302 8.81342 9.14406C8.72271 9.2351 8.65063 9.34392 8.60141 9.46411C8.55219 9.5843 8.52683 9.71342 8.52683 9.84386C8.52683 9.9743 8.55219 10.1034 8.60141 10.2236C8.65063 10.3438 8.72271 10.4526 8.81342 10.5437C8.90412 10.6347 9.0116 10.7061 9.12953 10.7537C9.24745 10.8013 9.37343 10.824 9.50004 10.8207C9.7455 10.8114 9.97793 10.7045 10.1484 10.5224C10.3189 10.3403 10.4142 10.0972 10.4142 9.84419C10.4142 9.5912 10.3189 9.34808 10.1484 9.16596C9.97793 8.98384 9.7455 8.87692 9.50004 8.86769" fill="#303030"/>
</svg>
