<svg width="359" height="244" viewBox="0 0 359 244" fill="none" xmlns="http://www.w3.org/2000/svg">
<g clip-path="url(#clip0_3538_5983)">
<path d="M358.591 0.201172H0V244H358.591V0.201172Z" fill="white"/>
<path fill-rule="evenodd" clip-rule="evenodd" d="M103.409 62.6551C113.132 62.6551 122.437 64.4419 131.019 67.6968L131.019 67.6811C131.019 30.022 161.548 -0.506348 199.206 -0.506348C230.76 -0.506348 257.304 20.9281 265.082 50.0296C305.9 55.9081 337.268 91.0216 337.268 133.467C337.268 178.543 301.894 215.355 257.392 217.66V218.191H109.581C107.544 218.351 105.486 218.434 103.409 218.434C101.331 218.434 99.2735 218.351 97.2372 218.191H97.2118V218.189C57.0922 215.03 25.5195 181.476 25.5195 140.545C25.5195 97.5278 60.3917 62.6551 103.409 62.6551Z" fill="#EFF3FF"/>
<path fill-rule="evenodd" clip-rule="evenodd" d="M158.014 229.548C167.055 229.502 177.157 229.621 179.833 229.506C176.911 224.088 166.766 222.629 159.334 223.059C157.55 224.278 157.384 227.401 158.014 229.548Z" fill="#F7AAAC"/>
<path fill-rule="evenodd" clip-rule="evenodd" d="M166.837 49.0908H241.309C248.136 49.0908 253.721 54.7348 253.721 61.6331V217.378C253.721 224.276 248.136 229.921 241.309 229.921H166.837C160.011 229.921 154.426 224.276 154.426 217.378V61.6331C154.426 54.7347 160.011 49.0908 166.837 49.0908Z" fill="#8FA7EF"/>
<path fill-rule="evenodd" clip-rule="evenodd" d="M161.427 49.0908H235.899C242.726 49.0908 248.311 54.7348 248.311 61.6331V217.378C248.311 224.276 242.726 229.921 235.899 229.921H161.427C154.601 229.921 149.016 224.276 149.016 217.378V61.6331C149.016 54.7347 154.601 49.0908 161.427 49.0908Z" fill="#AEC2FD"/>
<path fill-rule="evenodd" clip-rule="evenodd" d="M161.67 55.8428C158.133 55.8428 155.219 58.9312 155.219 62.6771V214.611C155.219 218.358 158.133 221.445 161.67 221.445H235.66C239.197 221.445 242.111 218.358 242.111 214.611V62.6771C242.111 58.9301 239.197 55.8428 235.66 55.8428C210.673 55.8428 186.343 55.8428 161.67 55.8428Z" fill="white"/>
<path fill-rule="evenodd" clip-rule="evenodd" d="M198.664 172.955C208.512 172.955 216.496 180.939 216.496 190.788C216.496 200.637 208.512 208.621 198.664 208.621C188.816 208.621 180.832 200.637 180.832 190.788C180.832 180.939 188.816 172.955 198.664 172.955Z" fill="#B7C9FF"/>
<path fill-rule="evenodd" clip-rule="evenodd" d="M273.333 176.054C274.162 175.524 278.744 172.788 279.548 172.214C297.844 159.147 309.405 134.996 307.604 112.622L307.159 107.108L301.695 106.248C292.106 104.739 285.06 101.844 276.637 97.094L273.187 95.1484L269.737 97.094C261.268 101.87 254.242 104.653 244.616 106.258L239.21 107.159L238.77 112.623C236.89 135.979 249.571 161.273 269.276 173.871L273.333 176.054Z" fill="#AEC2FD"/>
<path fill-rule="evenodd" clip-rule="evenodd" d="M273.129 106.613C281.541 111.357 288.304 114.067 297.665 115.54C299.205 134.664 288.44 154.907 273.129 164.631C257.818 154.907 247.052 134.664 248.592 115.54C258.129 113.95 264.717 111.357 273.129 106.613Z" fill="#7183D5"/>
<path fill-rule="evenodd" clip-rule="evenodd" d="M273.131 161.955C265.054 155.93 258.753 147.143 255.031 137.875C252.451 131.45 250.976 124.493 251.058 117.552C254.845 116.784 258.568 115.773 262.201 114.434C265.97 113.046 269.595 111.329 273.131 109.435V161.955Z" fill="#8A9AE2"/>
<path fill-rule="evenodd" clip-rule="evenodd" d="M273.132 120.015C280.235 120.015 285.994 125.774 285.994 132.877C285.994 139.981 280.235 145.74 273.132 145.74C266.028 145.74 260.27 139.981 260.27 132.877C260.27 125.774 266.028 120.015 273.132 120.015Z" fill="#78C044"/>
<path fill-rule="evenodd" clip-rule="evenodd" d="M275.382 134.797L267.622 127.595C266.833 126.862 265.596 126.906 264.862 127.695C264.129 128.483 264.173 129.723 264.962 130.456L274.21 139.04L274.239 139.064C275.046 139.77 276.286 139.687 276.993 138.881L280.818 134.52C281.526 133.713 281.443 132.471 280.635 131.764C279.828 131.058 278.589 131.141 277.882 131.947L275.382 134.797Z" fill="white"/>
<path fill-rule="evenodd" clip-rule="evenodd" d="M273.132 120.015C266.028 120.015 260.27 125.774 260.27 132.877C260.27 139.981 266.028 145.74 273.132 145.74C280.235 145.74 285.994 139.981 285.994 132.877C285.994 125.774 280.235 120.015 273.132 120.015Z" fill="#FBB44A"/>
<path fill-rule="evenodd" clip-rule="evenodd" d="M270.879 134.797L278.638 127.595C279.427 126.862 280.665 126.906 281.398 127.695C282.132 128.483 282.088 129.723 281.298 130.456L272.05 139.04L272.021 139.064C271.214 139.77 269.975 139.687 269.268 138.881L265.442 134.52C264.734 133.713 264.817 132.471 265.625 131.764C266.433 131.058 267.672 131.141 268.379 131.947L270.879 134.797Z" fill="white"/>
<path fill-rule="evenodd" clip-rule="evenodd" d="M199.212 69.1787C208.785 69.1787 216.546 76.9395 216.546 86.513C216.546 96.0865 208.785 103.847 199.212 103.847C189.639 103.847 181.879 96.0865 181.879 86.513C181.879 76.9395 189.639 69.1787 199.212 69.1787Z" fill="#8C9EF3"/>
<path fill-rule="evenodd" clip-rule="evenodd" d="M210.375 92.9234C207.953 96.7445 203.586 99.5409 199.09 99.5409C194.594 99.5409 190.531 97.2075 188.211 93.6458C188.62 89.1393 188.338 87.9874 193.609 84.2324C194.747 86.2342 196.899 87.5848 199.366 87.5848C201.83 87.5848 203.98 86.2377 205.119 84.2401C210.304 88.0727 209.84 88.6629 210.375 92.9234Z" fill="white"/>
<path fill-rule="evenodd" clip-rule="evenodd" d="M199.365 75.9648C202.127 75.9648 204.366 78.2041 204.366 80.9664C204.366 83.7286 202.127 85.9679 199.365 85.9679C196.602 85.9679 194.363 83.7286 194.363 80.9664C194.363 78.2041 196.602 75.9648 199.365 75.9648Z" fill="white"/>
<path fill-rule="evenodd" clip-rule="evenodd" d="M172.206 133.718H227.219C230.811 133.718 233.75 136.657 233.75 140.249C233.75 143.841 230.811 146.779 227.219 146.779H172.206C168.614 146.779 165.676 143.841 165.676 140.249C165.676 136.657 168.614 133.718 172.206 133.718Z" fill="#8C9EF3"/>
<path fill-rule="evenodd" clip-rule="evenodd" d="M172.142 114.104H227.284C230.84 114.104 233.75 117.014 233.75 120.57C233.75 124.127 230.84 127.037 227.284 127.037H172.142C168.586 127.037 165.676 124.127 165.676 120.57C165.676 117.013 168.586 114.104 172.142 114.104Z" fill="#8C9EF3"/>
<path fill-rule="evenodd" clip-rule="evenodd" d="M184.179 157.733H215.247C216.678 157.733 217.848 158.904 217.848 160.334C217.848 161.765 216.678 162.935 215.247 162.935H184.179C182.749 162.935 181.578 161.765 181.578 160.334C181.578 158.904 182.749 157.733 184.179 157.733Z" fill="#FBB44A"/>
<path fill-rule="evenodd" clip-rule="evenodd" d="M198.663 188.961C199.899 188.961 200.901 189.962 200.901 191.198C200.901 192.058 200.417 192.804 199.706 193.179C199.706 194.412 199.706 195.645 199.706 196.878C199.283 197.638 198.068 197.55 197.621 196.878V193.179C196.91 192.804 196.426 192.058 196.426 191.198C196.425 189.962 197.427 188.961 198.663 188.961ZM193.35 186.604V186.575V184.79L193.352 184.745C193.485 181.951 195.832 179.802 198.609 179.802C201.389 179.802 203.73 181.954 203.862 184.745L203.863 184.752C203.866 184.831 203.868 184.911 203.868 184.99C203.868 185.052 203.867 185.115 203.864 185.178V186.574V186.589C204.973 186.713 205.842 187.66 205.842 188.801V196.814C205.842 198.039 204.84 199.041 203.616 199.041H193.71C192.486 199.041 191.484 198.039 191.484 196.814V188.801C191.484 187.699 192.296 186.778 193.35 186.604ZM201.946 186.575V185.138C201.949 185.089 201.95 185.04 201.95 184.99C201.95 184.94 201.949 184.89 201.946 184.841V184.835H201.946C201.864 183.101 200.401 181.72 198.609 181.72C196.856 181.72 195.352 183.064 195.268 184.835V184.99V186.574H201.946V186.575Z" fill="white"/>
<path fill-rule="evenodd" clip-rule="evenodd" d="M186.034 137.136C186.411 137.136 186.72 137.461 186.72 137.859V138.928L187.596 138.393C187.923 138.194 188.344 138.314 188.533 138.658C188.721 139.003 188.608 139.448 188.282 139.647L187.405 140.181L188.282 140.715C188.608 140.914 188.721 141.359 188.533 141.704C188.344 142.049 187.923 142.168 187.596 141.969L186.72 141.435V142.503C186.72 142.901 186.411 143.227 186.034 143.227C185.657 143.227 185.349 142.901 185.349 142.503V141.435L184.472 141.969C184.145 142.168 183.724 142.049 183.535 141.704C183.347 141.359 183.46 140.914 183.786 140.715L184.663 140.181L183.786 139.647C183.46 139.448 183.347 139.003 183.535 138.658H183.535C183.724 138.314 184.145 138.194 184.472 138.393L185.349 138.928V137.859C185.349 137.461 185.657 137.136 186.034 137.136ZM194.579 137.136C194.957 137.136 195.265 137.461 195.265 137.859V138.928L196.142 138.393C196.468 138.194 196.89 138.314 197.078 138.658C197.267 139.003 197.154 139.448 196.827 139.647L195.951 140.181L196.827 140.715C197.154 140.914 197.267 141.359 197.078 141.704C196.89 142.049 196.469 142.168 196.142 141.969L195.265 141.435V142.503C195.265 142.901 194.957 143.227 194.579 143.227C194.203 143.227 193.894 142.901 193.894 142.503V141.435L193.017 141.969C192.691 142.168 192.269 142.049 192.081 141.704C191.892 141.359 192.005 140.914 192.332 140.715L193.209 140.181L192.332 139.647C192.005 139.448 191.892 139.003 192.081 138.658H192.081C192.27 138.314 192.691 138.194 193.017 138.393L193.894 138.928V137.859C193.894 137.461 194.203 137.136 194.579 137.136ZM203.125 137.136C203.502 137.136 203.811 137.461 203.811 137.859V138.928L204.687 138.393C205.014 138.194 205.435 138.314 205.624 138.658C205.813 139.003 205.699 139.448 205.373 139.647L204.496 140.181L205.373 140.715C205.699 140.914 205.813 141.359 205.624 141.704C205.435 142.049 205.014 142.168 204.687 141.969L203.811 141.435V142.503C203.811 142.901 203.502 143.227 203.125 143.227C202.748 143.227 202.44 142.901 202.44 142.503V141.435L201.563 141.969C201.236 142.168 200.815 142.049 200.626 141.704C200.438 141.359 200.551 140.914 200.877 140.715L201.754 140.181L200.877 139.647C200.551 139.448 200.438 139.003 200.626 138.658C200.815 138.314 201.236 138.194 201.563 138.393L202.44 138.928V137.859C202.44 137.461 202.748 137.136 203.125 137.136ZM211.671 137.136C212.048 137.136 212.356 137.461 212.356 137.859V138.928L213.233 138.393C213.56 138.194 213.981 138.314 214.169 138.658C214.358 139.003 214.245 139.448 213.919 139.647L213.042 140.181L213.919 140.715C214.245 140.914 214.358 141.359 214.169 141.704C213.981 142.049 213.56 142.168 213.233 141.969L212.356 141.435V142.503C212.356 142.901 212.048 143.227 211.671 143.227C211.294 143.227 210.985 142.901 210.985 142.503V141.435L210.109 141.969C209.782 142.168 209.361 142.049 209.172 141.704C208.984 141.359 209.097 140.914 209.423 140.715L210.3 140.181L209.423 139.647C209.097 139.448 208.984 139.003 209.172 138.658H209.172C209.361 138.314 209.782 138.194 210.109 138.393L210.985 138.928V137.859C210.985 137.461 211.294 137.136 211.671 137.136ZM220.216 137.136C220.593 137.136 220.902 137.461 220.902 137.859V138.928L221.778 138.393C222.105 138.194 222.526 138.314 222.715 138.658C222.904 139.003 222.79 139.448 222.464 139.647L221.587 140.181L222.464 140.715C222.79 140.914 222.904 141.359 222.715 141.704C222.526 142.049 222.105 142.168 221.778 141.969L220.902 141.435V142.503C220.902 142.901 220.593 143.227 220.216 143.227C219.839 143.227 219.531 142.901 219.531 142.503V141.435L218.654 141.969C218.327 142.168 217.906 142.049 217.718 141.704C217.529 141.359 217.642 140.914 217.969 140.715L218.845 140.181L217.969 139.647C217.642 139.448 217.529 139.003 217.718 138.658H217.718C217.906 138.314 218.328 138.194 218.654 138.393L219.531 138.928V137.859C219.531 137.461 219.839 137.136 220.216 137.136ZM177.488 137.136C177.866 137.136 178.174 137.461 178.174 137.859V138.928L179.051 138.393C179.377 138.194 179.799 138.314 179.987 138.658C180.176 139.003 180.063 139.448 179.736 139.647L178.859 140.181L179.736 140.715C180.063 140.914 180.176 141.359 179.987 141.704C179.799 142.049 179.377 142.168 179.051 141.969L178.174 141.435V142.503C178.174 142.901 177.866 143.227 177.488 143.227C177.111 143.227 176.803 142.901 176.803 142.503V141.435L175.926 141.969C175.6 142.168 175.179 142.049 174.99 141.704C174.801 141.359 174.914 140.914 175.241 140.715L176.117 140.181L175.241 139.647C174.914 139.448 174.801 139.003 174.99 138.658H174.99C175.179 138.314 175.6 138.194 175.926 138.393L176.803 138.928V137.859C176.803 137.461 177.111 137.136 177.488 137.136Z" fill="white"/>
<path fill-rule="evenodd" clip-rule="evenodd" d="M196.359 118.995H224.127C224.825 118.995 225.396 119.566 225.396 120.264V120.265C225.396 120.963 224.825 121.534 224.127 121.534H196.359C195.661 121.534 195.09 120.963 195.09 120.265V120.264C195.09 119.566 195.661 118.995 196.359 118.995Z" fill="white"/>
<path fill-rule="evenodd" clip-rule="evenodd" d="M175.304 118.995H191.218C191.916 118.995 192.487 119.566 192.487 120.264V120.265C192.487 120.963 191.916 121.534 191.218 121.534H175.304C174.606 121.534 174.035 120.963 174.035 120.265V120.264C174.035 119.566 174.606 118.995 175.304 118.995Z" fill="white"/>
<path fill-rule="evenodd" clip-rule="evenodd" d="M123.238 142.899C124.295 153.146 132.614 173.169 135.002 195.493L145.519 192.049C142.512 174.648 140.102 148.66 123.238 142.899Z" fill="#F49123"/>
<path fill-rule="evenodd" clip-rule="evenodd" d="M129.344 163.477C129.63 164.335 129.918 165.211 130.204 166.105L131.136 165.019C131.788 168.071 132.346 171.502 132.825 175.204C134.017 179.93 135.521 188.667 136.119 194.252L139.112 194.148C138.004 181.453 134.465 165.717 133.205 163.511L129.344 163.477Z" fill="#EF7E05"/>
<path fill-rule="evenodd" clip-rule="evenodd" d="M130.093 196.962C132.315 212.111 141.838 229.561 154.851 229.921C158.785 229.785 170.922 230.714 172.465 229.556C168.716 221.856 159.222 224.056 159.222 224.056C150.788 215.352 147.362 205.462 145.383 194.581L133.916 194.887C134.11 196.469 129.839 195.229 130.093 196.962Z" fill="#F7AAAC"/>
<path fill-rule="evenodd" clip-rule="evenodd" d="M133.543 192.794C136.733 193.042 142.865 192.23 146.334 191.082C146.8 192.543 147.114 194.257 147.207 195.757C144.105 196.765 137.297 198.177 133.853 197.572L133.543 192.794Z" fill="white"/>
<path fill-rule="evenodd" clip-rule="evenodd" d="M71.4675 150.138C69.5124 151.973 67.7759 157.966 66.6995 160.27C63.0697 168.038 61.7331 173.751 66.1769 185.724L71.693 179.292C74.4208 192.055 75.5045 211.446 76.0547 229.571H112.064V229.571H137.056C137.064 190.593 137.774 145.978 120.686 141.93C110.915 138.511 99.8509 137.686 86.4529 141.149C81.285 142.485 75.3135 145.642 71.4675 150.138Z" fill="#F49123"/>
<path fill-rule="evenodd" clip-rule="evenodd" d="M100.367 229.571H104.59H112.065L118.979 229.571H119.335H119.69H120.045H120.398H120.752H121.104H121.456H121.806H122.156H122.506H122.854H123.202C123.031 217.303 121.098 143.659 114.435 140.153C113.028 139.413 100.1 138.11 91.9844 139.935C97.9166 155.56 100.727 214.087 100.367 229.571Z" fill="white"/>
<path fill-rule="evenodd" clip-rule="evenodd" d="M107.765 152.04L107.61 152.03C100.795 149.003 97.1534 143.899 95.1837 139.978L95.1836 139.978L95.5057 128.925H113.036C112.929 129.308 112.98 136.948 113.019 141.596C112.539 145.941 109.629 149.954 107.765 152.04Z" fill="#F7AAAC"/>
<path fill-rule="evenodd" clip-rule="evenodd" d="M113.462 97.9434C119.225 97.9434 123.897 102.615 123.897 108.379C123.897 114.142 119.225 118.814 113.462 118.814C107.699 118.814 103.027 114.142 103.027 108.379C103.027 102.615 107.699 97.9434 113.462 97.9434Z" fill="#355298"/>
<path fill-rule="evenodd" clip-rule="evenodd" d="M68.9603 182.476L71.6909 179.291C74.4189 192.055 75.5025 211.446 76.0526 229.571H81.4588C81.3115 214.427 79.5977 181.442 77.4368 177.658L67.832 177.731L68.9603 182.476Z" fill="#EF7E05"/>
<path fill-rule="evenodd" clip-rule="evenodd" d="M113.016 136.106C113.031 136.257 113.063 139.491 113.065 139.665L113.064 139.673C108.321 140.786 101.524 137.508 99.0859 132.011L113.016 136.106Z" fill="#E16E73"/>
<path fill-rule="evenodd" clip-rule="evenodd" d="M92.0323 125.682C90.0857 121.104 88.8653 112.333 94.3282 107.749C97.7271 103.959 104.047 103.952 109.926 104.553C113.644 104.933 117.732 102.34 119.943 110.331C122.608 119.967 121.529 131.242 114.722 136.291C109.684 140.028 99.5265 136.4 95.8013 130.859C94.5217 128.955 93.1204 128.241 92.0323 125.682Z" fill="#F7AAAC"/>
<path fill-rule="evenodd" clip-rule="evenodd" d="M109.385 109.431C103.527 110.457 97.3497 110.326 98.8093 120.981C99.3114 124.646 100.772 127.973 94.8921 123.718C93.5615 122.755 92.3403 123.88 93.1647 126.141C93.8792 128.101 96.4451 130.792 95.4517 130.297C83.3751 124.281 80.0391 99.3284 100.195 93.0055C108.371 90.4408 118.64 90.8098 120.541 98.8918C121.456 102.787 118.147 107.897 109.385 109.431Z" fill="#355298"/>
<path fill-rule="evenodd" clip-rule="evenodd" d="M83.622 164.431C83.1339 154.047 81.9592 142.433 72.6107 149.081C67.8256 152.484 58.1615 164.319 59.1892 198.406C59.1984 198.715 75.9059 196.279 76.8397 195.482C78.5348 194.035 77.6167 178.173 83.622 164.431Z" fill="#F49123"/>
<path d="M58.8711 192.248C61.0873 189.576 74.2424 184.996 78.0196 189.841L78.2137 195.69C76.8415 195.931 71.9661 196.515 66.5864 197.287C62.9984 197.802 60.8537 199.073 59.2341 199.226L58.8711 192.248Z" fill="white"/>
<path fill-rule="evenodd" clip-rule="evenodd" d="M108.207 118.692C108.722 118.638 109.183 119.012 109.237 119.526C109.29 120.041 108.917 120.502 108.402 120.556C107.887 120.61 107.426 120.236 107.372 119.721C107.319 119.206 107.692 118.745 108.207 118.692Z" fill="#0C2B47"/>
<path d="M112.958 118.351C112.879 118.204 112.934 118.021 113.081 117.942C113.227 117.863 113.41 117.918 113.489 118.065C113.497 118.08 116.323 123.305 116.356 123.934C116.395 124.696 114.286 125.675 114.28 125.678C114.129 125.749 113.95 125.684 113.879 125.533C113.809 125.382 113.874 125.203 114.025 125.133C114.03 125.13 115.772 124.319 115.754 123.964C115.728 123.475 112.966 118.365 112.958 118.351Z" fill="#E16E73"/>
<path d="M104.631 117.624C104.524 117.797 104.261 117.881 104.044 117.81C103.576 117.657 103.952 116.856 104.092 116.561C105.017 114.62 107.997 113.928 110.154 115.439C110.334 115.554 110.35 115.767 110.189 115.915C110.028 116.063 109.751 116.089 109.57 115.975C108.071 115.393 106.385 115.789 105.39 116.701C105.112 116.955 104.855 117.261 104.631 117.624Z" fill="#0C2B47"/>
<path fill-rule="evenodd" clip-rule="evenodd" d="M118.238 117.253C118.753 117.199 119.214 117.573 119.268 118.088C119.322 118.603 118.948 119.064 118.433 119.118C117.918 119.171 117.457 118.797 117.404 118.283C117.35 117.768 117.723 117.307 118.238 117.253Z" fill="#0C2B47"/>
<path d="M120.385 114.118C120.537 114.222 120.77 114.192 120.905 114.052C121.039 113.911 121.025 113.713 120.872 113.608C119.524 111.651 116.44 112.046 115.31 114.38C115.222 114.543 115.298 114.726 115.481 114.788C115.664 114.851 115.884 114.769 115.973 114.605C116.863 113.558 118.3 113.253 119.429 113.636C119.744 113.743 120.065 113.901 120.385 114.118Z" fill="#0C2B47"/>
<path fill-rule="evenodd" clip-rule="evenodd" d="M138.171 178.117H127.112C126.254 178.117 125.909 178.897 125.552 179.677L114.493 203.876C114.136 204.657 115.195 205.436 116.053 205.436H127.112C127.97 205.436 128.288 204.644 128.672 203.876L140.433 180.342C140.816 179.574 139.029 178.117 138.171 178.117Z" fill="#1D3A7D"/>
<path fill-rule="evenodd" clip-rule="evenodd" d="M138.956 178.975H127.897C127.039 178.975 126.694 179.754 126.337 180.534L115.278 204.734C114.921 205.514 115.98 206.293 116.838 206.293H127.897C128.755 206.293 129.1 205.514 129.457 204.734L140.516 180.534C140.873 179.754 139.814 178.975 138.956 178.975Z" fill="#355297"/>
<path fill-rule="evenodd" clip-rule="evenodd" d="M104.876 197.156C106.132 196.529 109.304 194.537 110.717 192.72C112.13 190.903 113.913 189.561 117.042 189.179C120.171 188.798 121.315 188.95 121.315 188.95L120.569 190.533L118.818 190.49C123.698 191.102 128.142 191.486 133.027 192.372C133.027 192.372 134.206 193.175 132.826 193.476C131.446 193.777 125.274 193.777 125.274 193.777L122.263 193.752C122.263 193.752 127.306 194.104 128.987 194.053C130.668 194.003 133.159 193.793 133.554 194.104C133.679 194.304 134.401 194.993 133.378 195.534C132.355 196.075 123.191 196.763 123.191 196.763L121.987 196.914C121.987 196.914 126.403 197.466 127.808 197.265C129.213 197.064 132.199 196.638 132.375 196.914C132.55 197.19 132.952 197.993 132.023 198.344C131.095 198.695 126.905 199.699 125.123 200.151C123.342 200.602 121.485 200.904 121.485 200.904C121.485 200.904 124.439 201.374 125.042 201.299C125.644 201.223 127.706 200.482 128.446 200.577C129.186 200.672 129.509 201.165 129.224 201.487C128.94 201.81 123.702 203.945 121.043 204.136C118.383 204.327 113.242 204.247 112.088 204.623C111.169 204.923 90.9501 213.35 80.4132 217.276C71.7132 220.517 64.1253 219.428 61.841 209.215C59.9344 200.691 60.5004 197.895 60.6213 197.752C63.7905 194.013 77.4727 191.77 77.7762 195.205L78.3447 201.638C82.6344 198.843 102.865 198.162 104.876 197.156Z" fill="#F7AAAC"/>
<path fill-rule="evenodd" clip-rule="evenodd" d="M138.21 180.299C138.586 180.488 138.674 181.075 138.405 181.609C138.136 182.143 137.613 182.422 137.237 182.233C136.861 182.044 136.774 181.458 137.043 180.924C137.312 180.39 137.834 180.11 138.21 180.299Z" fill="#7183D5"/>
<path fill-rule="evenodd" clip-rule="evenodd" d="M138.394 180.533C138.77 180.722 138.857 181.308 138.588 181.842C138.32 182.376 137.797 182.656 137.421 182.467C137.045 182.278 136.958 181.691 137.226 181.157C137.495 180.623 138.018 180.344 138.394 180.533Z" fill="#AEC2FD"/>
<path fill-rule="evenodd" clip-rule="evenodd" d="M137.074 181.876C137.055 181.654 137.104 181.4 137.226 181.157C137.407 180.799 137.701 180.555 137.989 180.49C138.218 180.643 138.373 180.934 138.373 181.269C138.373 181.762 138.037 182.161 137.623 182.161C137.406 182.161 137.211 182.051 137.074 181.876Z" fill="#DCE9FF"/>
<path fill-rule="evenodd" clip-rule="evenodd" d="M107.523 127.744C110.937 128.457 113.136 128.447 115.912 128.321C115.912 128.321 114.674 130.595 111.707 130.808C108.538 130.61 107.523 127.744 107.523 127.744Z" fill="#ECF4FF"/>
<path fill-rule="evenodd" clip-rule="evenodd" d="M278.075 200.321V229.932H228.297V200.321L253.721 184.466L278.075 200.321Z" fill="#F9A218"/>
<path fill-rule="evenodd" clip-rule="evenodd" d="M268.091 191.294L268.053 222.52H237.281V191.331L268.091 191.294Z" fill="white"/>
<path fill-rule="evenodd" clip-rule="evenodd" d="M228.297 200.321L252.81 222.148L278.075 200.321V229.932H228.297V200.321Z" fill="#FFBF42"/>
<path fill-rule="evenodd" clip-rule="evenodd" d="M228.297 229.932L253.4 212.337L278.075 229.932H228.297Z" fill="#FFD481"/>
<path fill-rule="evenodd" clip-rule="evenodd" d="M243.371 197.567H251.612C252.192 197.567 252.667 198.042 252.667 198.623C252.667 199.203 252.192 199.678 251.612 199.678H243.371C242.791 199.678 242.316 199.203 242.316 198.623C242.316 198.042 242.791 197.567 243.371 197.567Z" fill="#C6D4FF"/>
<path fill-rule="evenodd" clip-rule="evenodd" d="M243.371 202.515H262.364C262.944 202.515 263.419 202.989 263.419 203.57C263.419 204.15 262.944 204.625 262.364 204.625H243.371C242.791 204.625 242.316 204.15 242.316 203.57C242.316 202.99 242.791 202.515 243.371 202.515Z" fill="#C6D4FF"/>
<path fill-rule="evenodd" clip-rule="evenodd" d="M243.371 207.338H262.364C262.944 207.338 263.419 207.813 263.419 208.393C263.419 208.973 262.944 209.448 262.364 209.448H243.371C242.791 209.448 242.316 208.973 242.316 208.393C242.316 207.813 242.791 207.338 243.371 207.338Z" fill="#C6D4FF"/>
</g>
<defs>
<clipPath id="clip0_3538_5983">
<rect width="358.792" height="244" fill="white"/>
</clipPath>
</defs>
</svg>
