<svg width="21" height="21" viewBox="0 0 21 21" fill="none" xmlns="http://www.w3.org/2000/svg">
<path d="M18.5938 10.4992H7.78313M3.96725 10.4992H2.40625M3.96725 10.4992C3.96725 9.99327 4.16822 9.50809 4.52594 9.15037C4.88367 8.79264 5.36885 8.59167 5.87475 8.59167C6.38065 8.59167 6.86583 8.79264 7.22356 9.15037C7.58128 9.50809 7.78225 9.99327 7.78225 10.4992C7.78225 11.0051 7.58128 11.4903 7.22356 11.848C6.86583 12.2057 6.38065 12.4067 5.87475 12.4067C5.36885 12.4067 4.88367 12.2057 4.52594 11.848C4.16822 11.4903 3.96725 11.0051 3.96725 10.4992ZM18.5938 16.2803H13.5642M13.5642 16.2803C13.5642 16.7863 13.3628 17.272 13.005 17.6298C12.6472 17.9877 12.1619 18.1887 11.6559 18.1887C11.15 18.1887 10.6648 17.9868 10.3071 17.6291C9.94934 17.2714 9.74837 16.7862 9.74837 16.2803M13.5642 16.2803C13.5642 15.7743 13.3628 15.2894 13.005 14.9316C12.6472 14.5738 12.1619 14.3728 11.6559 14.3728C11.15 14.3728 10.6648 14.5738 10.3071 14.9315C9.94934 15.2892 9.74837 15.7744 9.74837 16.2803M9.74837 16.2803H2.40625M18.5938 4.71805H15.8769M12.061 4.71805H2.40625M12.061 4.71805C12.061 4.21215 12.262 3.72697 12.6197 3.36924C12.9774 3.01151 13.4626 2.81055 13.9685 2.81055C14.219 2.81055 14.467 2.85989 14.6985 2.95575C14.9299 3.05161 15.1402 3.19211 15.3173 3.36924C15.4944 3.54637 15.6349 3.75665 15.7308 3.98808C15.8267 4.21951 15.876 4.46755 15.876 4.71805C15.876 4.96854 15.8267 5.21659 15.7308 5.44802C15.6349 5.67944 15.4944 5.88973 15.3173 6.06685C15.1402 6.24398 14.9299 6.38449 14.6985 6.48035C14.467 6.57621 14.219 6.62555 13.9685 6.62555C13.4626 6.62555 12.9774 6.42458 12.6197 6.06685C12.262 5.70913 12.061 5.22395 12.061 4.71805Z" stroke="#444444" stroke-width="1.5" stroke-miterlimit="10" stroke-linecap="round"/>
</svg>
