<svg width="14" height="14" viewBox="0 0 14 14" fill="none" xmlns="http://www.w3.org/2000/svg">
<path d="M3.5 12.396V9.5H1.5C1.23478 9.5 0.98043 9.39464 0.792893 9.20711C0.605357 9.01957 0.5 8.76522 0.5 8.5V1.5C0.5 1.23478 0.605357 0.98043 0.792893 0.792893C0.98043 0.605357 1.23478 0.5 1.5 0.5H12.5C12.7652 0.5 13.0196 0.605357 13.2071 0.792893C13.3946 0.98043 13.5 1.23478 13.5 1.5V8.5C13.5 8.76522 13.3946 9.01957 13.2071 9.20711C13.0196 9.39464 12.7652 9.5 12.5 9.5H7L3.927 12.573C3.89204 12.6081 3.84745 12.6319 3.7989 12.6416C3.75034 12.6513 3.7 12.6464 3.65427 12.6274C3.60853 12.6084 3.56945 12.5763 3.54199 12.5351C3.51453 12.4939 3.49991 12.4455 3.5 12.396Z" stroke="#303030"/>
<path d="M3.5 6.5H10.5M3.5 3.5H10.5" stroke="#303030" stroke-linecap="round"/>
</svg>
