<svg width="34" height="34" viewBox="0 0 34 34" fill="none" xmlns="http://www.w3.org/2000/svg">
<g clip-path="url(#clip0_3010_23385)">
<path d="M32.8578 23.1323C32.5871 22.168 32.1978 21.2411 31.6987 20.3727C30.9446 19.109 29.9337 18.0176 28.7314 17.169C28.9276 16.7464 29.1022 16.3142 29.2553 15.8723C29.5812 14.9621 29.709 13.9927 29.6279 13.0288C29.5807 12.5801 29.4318 12.148 29.1926 11.7653C28.9534 11.3827 28.6301 11.0596 28.2474 10.8206C27.8235 10.5521 27.3225 10.432 26.8229 10.4793C26.3234 10.5266 25.8537 10.7386 25.4878 11.0818C24.7043 11.7711 24.0497 12.5943 23.5545 13.5128C23.1026 14.4103 22.7025 15.3301 22.3542 16.2725C21.5477 16.3752 20.7665 16.623 20.0483 17.004C19.6633 17.2084 19.309 17.4568 18.9854 17.7492C18.6639 18.0589 18.3814 18.4066 18.1439 18.7846L17.7575 19.6412C17.5238 20.6628 17.8675 21.2005 18.4615 21.4218C18.9978 21.6006 19.5808 21.6006 20.1184 21.4218C20.1184 21.4218 18.544 24.6517 18.5303 24.7906C18.3304 25.4069 18.1828 26.0388 18.0889 26.6798C18.0309 27.1382 18.0309 27.602 18.0889 28.0603C18.1315 28.3233 18.1959 28.5822 18.2814 28.8345C18.3625 29.0283 18.5014 29.192 18.6815 29.302C18.9542 29.4558 19.2751 29.5005 19.5794 29.4271C19.9739 29.3214 20.3473 29.1488 20.6835 28.917L21.4838 28.158L22.2428 27.1913C22.3894 27.1602 22.5279 27.1098 22.658 27.0401C22.9459 26.8549 23.2126 26.6432 23.4583 26.4048C23.8185 26.0428 24.1362 25.6468 24.4112 25.2168C24.6405 24.8358 24.8431 24.4393 25.0175 24.0302C25.1046 24.077 25.1967 24.1091 25.2939 24.1265C25.5964 24.209 25.9049 24.2502 26.2193 24.2502H26.7707C26.7074 24.463 26.6614 24.6805 26.6332 24.9006C26.6057 25.1206 26.6057 25.3411 26.6332 25.562C26.6762 25.7801 26.7404 25.9919 26.8257 26.1972C27.0512 26.6867 27.3922 27.113 27.8198 27.4402C27.86 27.4821 27.9082 27.5155 27.9616 27.5383C28.015 27.5611 28.0725 27.5728 28.1305 27.5728C28.1886 27.5728 28.2461 27.5611 28.2995 27.5383C28.3529 27.5155 28.4011 27.4821 28.4413 27.4402C28.5236 27.3577 28.5698 27.246 28.5698 27.1295C28.5698 27.013 28.5236 26.9012 28.4413 26.8187C28.3415 26.6348 28.2631 26.4402 28.2075 26.2385C28.2075 26.0322 28.2075 25.826 28.1237 25.6032C28.0412 25.3832 28.1237 25.1907 28.0274 24.9693C27.8349 23.9752 27.8212 23.7263 27.7648 23.5888C27.777 23.5192 27.7699 23.4475 27.7442 23.3817C27.7185 23.3158 27.6752 23.2582 27.619 23.2152C27.5628 23.1723 27.496 23.1455 27.4257 23.1379C27.3554 23.1304 27.2843 23.1422 27.2203 23.1722C27.1455 23.2073 27.0845 23.2663 27.047 23.34C26.8408 23.3537 26.6336 23.3537 26.4255 23.34C26.1388 23.2995 25.8597 23.216 25.5978 23.0925C25.0344 22.7712 24.5781 22.291 24.286 21.712C24.0935 21.3531 24.011 20.9516 24.4785 20.6903L24.9488 20.4703C25.3379 20.3658 25.7463 20.3658 26.1354 20.4703C26.5745 20.5913 26.9888 20.7701 27.3784 21.0066C27.4259 21.0401 27.4797 21.0635 27.5365 21.0754C27.5934 21.0873 27.6521 21.0874 27.709 21.0758C27.7659 21.0643 27.8198 21.0412 27.8675 21.008C27.9152 20.9748 27.9555 20.9322 27.9862 20.8828C28.0513 20.7874 28.0763 20.6701 28.0557 20.5564C28.0351 20.4427 27.9706 20.3417 27.8762 20.2751C27.6156 20.0752 27.3433 19.8911 27.0608 19.7237C27.1225 19.7115 27.1811 19.6869 27.2331 19.6514C27.285 19.616 27.3293 19.5704 27.3633 19.5175C27.6401 19.0289 27.9165 18.5178 28.1924 17.9843C29.0373 18.8984 29.7441 19.9309 30.2907 21.0492C30.705 21.8788 31.0684 22.7299 31.381 23.6026C31.8742 24.9593 32.2885 26.3393 32.624 27.7427C32.6471 27.8592 32.7148 27.962 32.8127 28.0291C32.9107 28.0962 33.031 28.1222 33.1479 28.1016C33.2631 28.0778 33.3641 28.0092 33.4288 27.911C33.4935 27.8128 33.5166 27.6929 33.493 27.5777C33.3992 26.0819 33.1868 24.5959 32.8578 23.1337M19.0555 20.3741C19.0019 20.355 18.9544 20.3217 18.918 20.2778L19.3305 19.5463C19.6119 19.1412 19.9342 18.7727 20.2972 18.4408C20.5382 18.2062 20.7912 17.9853 21.0562 17.7781C21.3101 17.5957 21.5768 17.4353 21.8564 17.2968C21.8307 17.3674 21.7987 17.4362 21.7602 17.5031L20.5323 20.2627C20.0625 20.349 19.5876 20.4046 19.1105 20.4291L19.0555 20.3741ZM19.523 27.9242C19.523 27.8142 19.248 26.7788 19.2205 26.3375C19.193 25.8947 19.2205 25.606 19.2205 25.2471C19.6266 25.6578 20.0593 26.0396 20.5185 26.3925C20.7165 26.5391 20.9232 26.6721 21.1387 26.7912C21.1387 26.7912 19.7307 27.9242 19.5794 27.9792L19.523 27.9242ZM26.7294 19.0486C26.6917 19.1136 26.6719 19.1873 26.6719 19.2624C26.6719 19.3375 26.6917 19.4113 26.7294 19.4762C26.5882 19.3993 26.4405 19.3349 26.288 19.2837C25.8427 19.1409 25.3712 19.0986 24.9075 19.16L24.0385 19.4212C23.805 19.5041 23.5905 19.633 23.4078 19.8003C23.225 19.9677 23.0778 20.17 22.9747 20.3953C22.8716 20.6206 22.8148 20.8643 22.8076 21.112C22.8004 21.3596 22.8431 21.6062 22.933 21.8371C23.1616 22.5184 23.6081 23.1054 24.2035 23.5077C24.0385 23.7415 23.901 23.9903 23.7209 24.2117C23.3946 24.6288 23.0169 24.9923 22.5879 25.3021C22.4779 25.3846 22.0365 25.6733 22.1067 25.6733C21.7026 25.5939 21.3087 25.4694 20.9324 25.3021C20.4759 25.067 20.0483 24.8043 19.5519 24.5568C19.8544 23.9491 20.1303 23.4106 20.3797 22.9412C21.2074 21.382 21.8427 20.3466 22.9605 18.1933C23.5683 16.9641 24.1073 15.5698 24.7975 14.3007C25.1935 13.5092 25.7207 12.7904 26.3568 12.175C26.4968 12.0284 26.6832 11.9346 26.8844 11.9096C27.0855 11.8845 27.2892 11.9297 27.4609 12.0375C27.6795 12.1512 27.8691 12.3136 28.015 12.5122C28.1609 12.7108 28.2592 12.9402 28.3024 13.1828C28.4082 13.9778 28.3474 14.786 28.1237 15.5561C28.1099 15.8737 26.992 18.4821 26.7294 19.0486Z" fill="#25BAFF"/>
<path d="M22.5859 29.1376C20.8831 30.107 19.1005 30.929 17.2577 31.5947C16.1099 32.034 14.8622 32.144 13.6552 31.9124C13.1177 31.7248 12.6407 31.3956 12.2747 30.9595C11.6582 30.2285 11.1221 29.4333 10.6756 28.5876C9.93035 27.3171 9.2951 26.0342 8.6461 24.7225C7.6946 22.7342 6.85173 20.7199 5.96898 18.6766C5.5153 17.6498 5.10518 16.6044 4.73973 15.543C4.13197 13.9549 3.62185 12.3255 3.0691 10.6975C2.9591 10.3799 2.32247 9.31698 2.01997 8.69548C2.48564 8.66798 2.94581 8.59923 3.40047 8.48923C5.74857 7.88275 8.05397 7.12163 10.3016 6.21085C12.8389 5.25735 15.3023 4.11758 17.6716 2.80085C17.898 2.65877 18.1006 2.48873 18.2794 2.29073C18.6469 2.82606 18.9691 3.38752 19.246 3.9751C19.95 5.5481 20.7502 8.11523 21.5381 10.1585C21.7719 10.725 22.0056 11.2489 22.227 11.6902C22.2642 11.7702 22.3246 11.8371 22.4004 11.8823C22.4761 11.9275 22.5637 11.9489 22.6517 11.9437C22.7397 11.9385 22.8242 11.9069 22.8941 11.8532C22.964 11.7994 23.0161 11.7259 23.0437 11.6421C23.0825 11.5316 23.0771 11.4104 23.0286 11.3039C22.7877 10.8199 22.5756 10.3222 22.3934 9.81335C21.6344 7.78385 20.9029 5.14798 20.2126 3.54748C19.7699 2.62408 19.1718 1.78364 18.4444 1.06285C18.3437 1.00441 18.2294 0.973633 18.113 0.973633C17.9966 0.973633 17.8823 1.00441 17.7816 1.06285C17.4227 1.2966 17.6716 1.4616 16.925 1.90435C14.0818 3.33422 11.139 4.55658 8.11947 5.56185C6.3661 6.20368 4.57244 6.7296 2.7501 7.13623C1.2596 7.35623 1.54835 6.97123 0.955725 7.25998C0.813414 7.33481 0.695168 7.44837 0.614636 7.58753C0.534104 7.7267 0.494571 7.8858 0.5006 8.04648C0.78935 9.12448 1.1771 10.1736 1.6611 11.1801C2.21247 12.8782 2.72397 14.4526 3.2616 16.0531C3.66172 17.1297 4.0756 18.2064 4.5596 19.283C5.49735 21.3111 6.38147 23.3269 7.3206 25.3014C7.97729 26.6463 8.71472 27.9504 9.52885 29.2064C10.0403 30.1139 10.6509 30.9622 11.3507 31.7336C11.8691 32.3015 12.5401 32.7085 13.2826 32.9065C14.6756 33.1618 16.1126 33.0135 17.4241 32.4789C19.2872 31.7323 21.0913 30.8461 22.821 29.8279C22.8654 29.8034 22.9045 29.7705 22.9361 29.731C22.9678 29.6914 22.9913 29.646 23.0053 29.5973C23.0194 29.5486 23.0237 29.4977 23.018 29.4473C23.0123 29.397 22.9968 29.3483 22.9722 29.304C22.9308 29.2422 22.8724 29.1938 22.8041 29.1645C22.7358 29.1353 22.6605 29.1264 22.5872 29.139" fill="#25BAFF"/>
<path d="M11.0445 11.2076C11.7655 11.0884 12.4945 11.024 13.2253 11.0151C14.0519 11.0008 14.8751 10.9036 15.6824 10.725C16.8195 10.4876 17.839 9.86319 18.5671 8.95814C18.6494 8.87565 18.6956 8.7639 18.6956 8.64739C18.6956 8.53088 18.6494 8.41912 18.5671 8.33664C18.5273 8.29418 18.4791 8.26034 18.4257 8.23721C18.3723 8.21408 18.3146 8.20215 18.2564 8.20215C18.1982 8.20215 18.1405 8.21408 18.0871 8.23721C18.0336 8.26034 17.9855 8.29418 17.9456 8.33664C17.4506 8.82614 16.8374 9.17814 16.165 9.35826C15.334 9.52422 14.4847 9.5797 13.6391 9.52326C12.6851 9.50427 11.7318 9.5877 10.7956 9.77214C10.0689 9.9634 9.38519 10.2915 8.78127 10.7388C7.99606 11.356 7.32739 12.1084 6.80677 12.9608C6.77451 13.0402 6.7686 13.1278 6.78991 13.2109C6.81122 13.2939 6.85863 13.3679 6.92515 13.4219C6.99168 13.476 7.07379 13.5072 7.15942 13.5111C7.24504 13.515 7.32965 13.4912 7.40077 13.4434C7.89577 12.8714 8.47327 12.3736 9.11264 11.9666C9.69373 11.5761 10.353 11.3171 11.0445 11.2076ZM19.5475 14.2588C19.6298 14.1763 19.676 14.0645 19.676 13.948C19.676 13.8315 19.6298 13.7197 19.5475 13.6373C19.5077 13.5948 19.4595 13.561 19.4061 13.5378C19.3526 13.5147 19.295 13.5028 19.2368 13.5028C19.1785 13.5028 19.1209 13.5147 19.0675 13.5378C19.014 13.561 18.9659 13.5948 18.926 13.6373C18.3664 14.0113 17.738 14.2698 17.0766 14.3963C16.0413 14.63 14.9509 14.6575 13.8454 14.8101C13.2198 14.9298 12.6079 15.1195 12.0249 15.3766C11.6298 15.5554 11.2572 15.7717 10.907 16.0256C10.0413 16.6039 9.31511 17.3676 8.78127 18.2614C8.7474 18.3156 8.72705 18.3771 8.72194 18.4408C8.71684 18.5045 8.72712 18.5685 8.75192 18.6274C8.77672 18.6864 8.81531 18.7384 8.86445 18.7793C8.91359 18.8202 8.97183 18.8486 9.03427 18.8623C9.1121 18.8793 9.19331 18.8718 9.2667 18.8408C9.34009 18.8098 9.40205 18.7567 9.44402 18.689C9.90465 18.1349 10.4615 17.6674 11.0858 17.3085C11.5624 17.0436 12.0593 16.8273 12.5763 16.6595C13.0884 16.4709 13.6149 16.3237 14.1506 16.2195C15.2548 15.9555 16.3726 15.818 17.4218 15.4591C18.2078 15.2151 18.9326 14.8058 19.5475 14.2588ZM14.1644 20.9385C13.8825 21.0223 13.6094 21.1333 13.349 21.2699C13.0942 21.3955 12.8549 21.5476 12.6313 21.7264C12.1216 22.1618 11.6619 22.6449 11.2521 23.1756C11.1811 23.2499 11.1415 23.3486 11.1415 23.4513C11.1415 23.554 11.1811 23.6528 11.2521 23.727C11.288 23.7638 11.3309 23.7931 11.3782 23.813C11.4256 23.833 11.4764 23.8433 11.5278 23.8433C11.5792 23.8433 11.6301 23.833 11.6774 23.813C11.7248 23.7931 11.7677 23.7638 11.8035 23.727C12.3979 23.3772 13.0107 23.0596 13.6391 22.7755C13.9293 22.638 14.2056 22.4716 14.4958 22.319C14.7845 22.1678 15.0609 21.989 15.3648 21.8501C15.6636 21.7172 15.9721 21.6113 16.2901 21.5325C16.3481 21.5274 16.4046 21.5107 16.4561 21.4836C16.5076 21.4565 16.5532 21.4194 16.5903 21.3745C16.6274 21.3296 16.6552 21.2778 16.6722 21.2221C16.6891 21.1664 16.6948 21.1078 16.6889 21.0499C16.6843 20.9612 16.6522 20.8762 16.597 20.8067C16.5418 20.7372 16.4662 20.6867 16.3809 20.6621C16.3243 20.6451 16.2648 20.6404 16.2063 20.6484C15.5139 20.6247 14.8228 20.7229 14.1644 20.9385Z" fill="#25BAFF"/>
</g>
<defs>
<clipPath id="clip0_3010_23385">
<rect width="33" height="33" fill="white" transform="translate(0.5 0.5)"/>
</clipPath>
</defs>
</svg>
