<svg width="18" height="28" viewBox="0 0 18 28" fill="none" xmlns="http://www.w3.org/2000/svg">
<path d="M9 18.6875C10.2432 18.6875 11.4355 18.1936 12.3146 17.3146C13.1936 16.4355 13.6875 15.2432 13.6875 14V5.5625C13.6875 4.3193 13.1936 3.12701 12.3146 2.24794C11.4355 1.36886 10.2432 0.875 9 0.875C7.7568 0.875 6.56451 1.36886 5.68544 2.24794C4.80636 3.12701 4.3125 4.3193 4.3125 5.5625V14C4.3125 15.2432 4.80636 16.4355 5.68544 17.3146C6.56451 18.1936 7.7568 18.6875 9 18.6875ZM6.1875 5.5625C6.1875 4.81658 6.48382 4.10121 7.01126 3.57376C7.53871 3.04632 8.25408 2.75 9 2.75C9.74592 2.75 10.4613 3.04632 10.9887 3.57376C11.5162 4.10121 11.8125 4.81658 11.8125 5.5625V14C11.8125 14.7459 11.5162 15.4613 10.9887 15.9887C10.4613 16.5162 9.74592 16.8125 9 16.8125C8.25408 16.8125 7.53871 16.5162 7.01126 15.9887C6.48382 15.4613 6.1875 14.7459 6.1875 14V5.5625ZM9.9375 22.385V25.25H13.6875V27.125H4.3125V25.25H8.0625V22.385C5.99996 22.1544 4.09476 21.1717 2.71114 19.6248C1.32753 18.078 0.562563 16.0754 0.5625 14H2.4375C2.4375 15.7405 3.1289 17.4097 4.35961 18.6404C5.59032 19.8711 7.25952 20.5625 9 20.5625C10.7405 20.5625 12.4097 19.8711 13.6404 18.6404C14.8711 17.4097 15.5625 15.7405 15.5625 14H17.4375C17.4374 16.0754 16.6725 18.078 15.2889 19.6248C13.9052 21.1717 12 22.1544 9.9375 22.385Z" fill="#505050"/>
</svg>
