<svg width="37" height="39" viewBox="0 0 37 39" fill="none" xmlns="http://www.w3.org/2000/svg">
<path d="M18.4976 1.80664C19.3719 1.80665 20.3894 2.47718 21.2241 4.15527V4.15625L24.4487 10.6055V10.6064C24.7136 11.1472 25.1801 11.6451 25.6968 12.0264C26.1492 12.3602 26.6754 12.6294 27.1968 12.7578L27.4194 12.8047L33.2681 13.7764C35.0515 14.0737 35.9813 14.8386 36.2495 15.6729C36.5172 16.5061 36.2072 17.6653 34.9224 18.9414L30.3745 23.4893C29.9146 23.9492 29.5817 24.5959 29.3931 25.2549C29.2044 25.914 29.1449 26.6379 29.2866 27.2705L29.2876 27.2734L30.5894 32.9023C31.0928 35.0873 30.7019 36.3467 30.0054 36.8545C29.308 37.3629 27.985 37.3511 26.0513 36.209L20.5688 32.9639C19.978 32.614 19.2287 32.4541 18.5063 32.4541C17.7833 32.4542 17.0311 32.614 16.4331 32.9619L16.4302 32.9639L10.9487 36.209L10.9478 36.21C9.02569 37.3505 7.70195 37.3588 7.00146 36.8477C6.30136 36.3368 5.90771 35.0758 6.41064 32.9023L7.7124 27.2734V27.2705C7.85419 26.6379 7.79557 25.914 7.60693 25.2549C7.4183 24.5959 7.08533 23.9492 6.62549 23.4893L2.07861 18.9424C0.80242 17.6662 0.490996 16.5063 0.757324 15.6719C1.00699 14.89 1.83569 14.1688 3.40771 13.8369L3.73193 13.7764L9.58057 12.8047L9.58154 12.8037C10.1654 12.7046 10.7738 12.4063 11.2876 12.0254C11.8005 11.6451 12.2648 11.1479 12.5298 10.6084L12.5308 10.6094L15.7573 4.15625L15.7563 4.15527C16.6001 2.47752 17.6225 1.80664 18.4976 1.80664Z" fill="#F5F5F5" stroke="#999999" stroke-linecap="round" stroke-linejoin="round"/>
<path d="M13.732 18.6174C14.4197 18.6174 14.9772 18.0599 14.9772 17.3722C14.9772 16.6844 14.4197 16.127 13.732 16.127C13.0443 16.127 12.4868 16.6844 12.4868 17.3722C12.4868 18.0599 13.0443 18.6174 13.732 18.6174Z" fill="#999999"/>
<path d="M23.1964 18.6174C23.8841 18.6174 24.4416 18.0599 24.4416 17.3722C24.4416 16.6844 23.8841 16.127 23.1964 16.127C22.5087 16.127 21.9512 16.6844 21.9512 17.3722C21.9512 18.0599 22.5087 18.6174 23.1964 18.6174Z" fill="#999999"/>
<path d="M13.2457 25.4174C13.4667 25.3605 13.6874 25.3167 13.9083 25.2745C14.1293 25.2322 14.35 25.1977 14.5709 25.1645C15.0126 25.0991 15.4543 25.0502 15.8959 25.0085C16.7795 24.9282 17.6628 24.8909 18.5464 24.8846C19.43 24.8784 20.3133 24.9065 21.1966 24.9765C21.4176 24.9939 21.6383 25.0137 21.8593 25.0382C22.0802 25.0626 22.3009 25.0885 22.5219 25.1179C22.7428 25.1474 22.9635 25.1819 23.1845 25.2214C23.4055 25.2609 23.6262 25.3032 23.8471 25.3583C24.0012 25.3968 24.138 25.4857 24.2358 25.6109C24.3335 25.7361 24.3866 25.8904 24.3866 26.0492C24.3866 26.208 24.3335 26.3623 24.2358 26.4875C24.138 26.6127 24.0012 26.7016 23.8471 26.7401C23.6262 26.7952 23.4052 26.8383 23.1845 26.877C22.9638 26.9158 22.7428 26.9493 22.5219 26.9805C22.3009 27.0117 22.0802 27.0373 21.8593 27.0602C21.6383 27.0831 21.4176 27.1045 21.1966 27.1222C20.3133 27.1919 19.4297 27.2193 18.5464 27.2138C17.6631 27.2082 16.7795 27.1705 15.8959 27.0902C15.4543 27.0484 15.0126 26.9993 14.5709 26.9342C14.35 26.9007 14.129 26.8657 13.9083 26.8239C13.6876 26.7822 13.4667 26.7381 13.2457 26.681C13.1057 26.6448 12.9816 26.5631 12.8931 26.4487C12.8045 26.3344 12.7564 26.1938 12.7564 26.0492C12.7564 25.9046 12.8045 25.764 12.8931 25.6497C12.9816 25.5353 13.1057 25.4536 13.2457 25.4174Z" fill="#999999"/>
</svg>
