<svg width="21" height="20" viewBox="0 0 21 20" fill="none" xmlns="http://www.w3.org/2000/svg">
<path d="M17.1667 5H3.83334C2.91286 5 2.16667 5.74619 2.16667 6.66667V13.3333C2.16667 14.2538 2.91286 15 3.83334 15H17.1667C18.0871 15 18.8333 14.2538 18.8333 13.3333V6.66667C18.8333 5.74619 18.0871 5 17.1667 5Z" stroke="white" stroke-width="1.5" stroke-linecap="round" stroke-linejoin="round"/>
<path d="M10.5 11.6666C11.4205 11.6666 12.1667 10.9205 12.1667 9.99998C12.1667 9.07951 11.4205 8.33331 10.5 8.33331C9.57952 8.33331 8.83333 9.07951 8.83333 9.99998C8.83333 10.9205 9.57952 11.6666 10.5 11.6666Z" stroke="white" stroke-width="2" stroke-linecap="round" stroke-linejoin="round"/>
<path d="M5.5 10H5.50833M15.5 10H15.5083" stroke="white" stroke-width="2" stroke-linecap="round" stroke-linejoin="round"/>
</svg>
