<svg width="36" height="35" viewBox="0 0 36 35" fill="none" xmlns="http://www.w3.org/2000/svg">
<path d="M22.8557 4.5L16.2086 8.76658L16.8824 9.13552L22.7962 5.33952L32.8269 11.0213L27.0734 14.7143L27.3537 14.8677V15.3358L31.8601 12.4431L32.8059 12.9789L27.3536 16.4785V17.2799L31.7719 14.4439L32.8059 15.0297L27.3536 18.5294V19.3308L31.7719 16.4947L32.8059 17.0806L27.3536 20.5802V21.3816L34.1918 16.9923L32.4946 16.031L34.1917 14.9416L32.4945 13.9801L34.1917 12.8907L32.5827 11.9793L34.2125 10.933L22.8557 4.5ZM24.9794 7.5584C23.5413 8.28 21.6257 8.40209 20.277 7.85802L17.6404 9.55039L26.3154 14.2993L28.8161 12.6942C27.831 11.9166 27.9131 10.7563 29.0172 9.8457L24.9794 7.5584ZM16.0524 10.0839L11.2202 13.2348L20.4904 18.5714L20.5813 18.5133C20.7522 18.4032 20.9935 18.2473 21.2814 18.0612C21.857 17.6891 22.6188 17.1958 23.3783 16.7036C24.4722 15.9947 25.0359 15.629 25.5601 15.289L16.0524 10.0839ZM23.9456 10.1638H23.9458C24.1644 10.1652 24.3649 10.212 24.5146 10.2968C24.6017 10.3461 24.6693 10.407 24.7134 10.4759C24.7576 10.5448 24.7775 10.6204 24.7719 10.6983C24.7664 10.7763 24.7356 10.8551 24.6812 10.9303C24.6269 11.0054 24.55 11.0755 24.4551 11.1364C24.3602 11.1973 24.2491 11.2479 24.1281 11.2853C24.0071 11.3227 23.8785 11.3462 23.7499 11.3544C23.6212 11.3626 23.4948 11.3553 23.378 11.333C23.2613 11.3108 23.1563 11.2739 23.0693 11.2246C22.8934 11.125 22.8008 10.9805 22.812 10.8231C22.8231 10.6657 22.9371 10.5081 23.1287 10.3851C23.2376 10.3153 23.3675 10.2591 23.509 10.2207C23.6504 10.1824 23.7997 10.163 23.9456 10.1638ZM9.01436 13.3846L1.80894 18.0095L3.41791 18.9209L1.78809 19.9671L3.48531 20.9285L1.78809 22.018L3.48531 22.9793L1.78809 24.0688L13.145 30.5019L20.0017 26.1005V25.2993L13.2045 29.6623L3.17387 23.9804L4.14833 23.3549L13.145 28.4509L20.0017 24.0497V23.2485L13.2045 27.6115L3.17387 21.9297L4.14833 21.3042L13.145 26.4002L20.0017 21.9989V21.1977L13.2045 25.5607L3.17387 19.8789L4.081 19.2965L13.166 24.4425L20.0017 20.0547V19.7095L19.6271 19.4939L13.2252 23.603L3.19485 17.9212L9.67259 13.7633L9.01429 13.3844L9.01436 13.3846ZM10.413 14.1899L7.20557 16.2485C8.19063 17.026 8.10859 18.1864 7.00445 19.0971L11.0423 21.3844C12.4804 20.6627 14.3958 20.5407 15.7445 21.0847L18.8867 19.0678L10.4129 14.1898L10.413 14.1899ZM26.1231 16.3904C25.5733 16.747 25.0883 17.0618 24.0475 17.7362C23.3485 18.1894 22.6491 18.6422 21.9496 19.0947C21.6613 19.281 21.4195 19.4372 21.247 19.5481C21.2408 19.5522 21.2383 19.5536 21.2323 19.5575V25.4312L26.1232 22.1439L26.1231 16.3904ZM12.3836 17.5853C12.6022 17.5867 12.8027 17.6336 12.9523 17.7184C13.1282 17.818 13.2207 17.9624 13.2096 18.1198C13.1984 18.2773 13.0845 18.4348 12.8929 18.5578C12.7012 18.6808 12.4476 18.7592 12.1877 18.7757C11.9279 18.7923 11.6831 18.7456 11.5072 18.646C11.3313 18.5464 11.2388 18.402 11.25 18.2446C11.2611 18.0871 11.375 17.9296 11.5667 17.8066C11.6755 17.7367 11.8055 17.6805 11.947 17.6422C12.0884 17.6039 12.2377 17.5845 12.3836 17.5854V17.5853Z" fill="#FCBD00"/>
</svg>
