<svg width="25" height="21" viewBox="0 0 25 21" fill="none" xmlns="http://www.w3.org/2000/svg">
<mask id="path-1-inside-1_3744_9676" fill="white">
<path fill-rule="evenodd" clip-rule="evenodd" d="M17.3941 0.84H16.6059L16.1544 2.6446L15.7015 2.7846C15.4376 2.86592 15.1819 2.97185 14.9378 3.101L14.5185 3.3229L12.9225 2.3653L12.3653 2.9232L13.3229 4.5192L13.101 4.9378C12.9716 5.18187 12.8654 5.43756 12.7839 5.7015L12.6446 6.1544L10.84 6.6059V7.3941L12.6446 7.8456L12.7846 8.2985C12.8653 8.56357 12.9708 8.81813 13.101 9.0622L13.3229 9.4815L12.3653 11.0775L12.9232 11.6347L14.5192 10.6771L14.9378 10.899C15.1819 11.0287 15.4364 11.1344 15.7015 11.2161L16.1544 11.3554L16.6059 13.16H17.3941L17.8456 11.3554L18.2985 11.2154C18.5624 11.1341 18.8181 11.0281 19.0622 10.899L19.4815 10.6771L21.0775 11.6347L21.6347 11.0768L20.6771 9.4808L20.899 9.0622C21.0287 8.81813 21.1344 8.56357 21.2161 8.2985L21.3554 7.8456L23.16 7.3941V6.6059L21.3554 6.1544L21.2154 5.7015C21.1341 5.43759 21.0281 5.1819 20.899 4.9378L20.6771 4.5185L21.6347 2.9225L21.0768 2.3653L19.4808 3.3229L19.0622 3.101C18.8181 2.97161 18.5624 2.86545 18.2985 2.7839L17.8456 2.6446L17.3941 0.84ZM19.4556 2.359L20.7387 1.589C20.8725 1.50875 21.0293 1.4755 21.1841 1.49452C21.339 1.51355 21.483 1.58376 21.5934 1.694L22.306 2.4066C22.4162 2.51699 22.4865 2.66105 22.5055 2.81589C22.5245 2.97074 22.4912 3.12751 22.411 3.2613L21.641 4.5444C21.795 4.83373 21.921 5.13707 22.019 5.4544L23.4701 5.8177C23.6215 5.85562 23.7558 5.94303 23.8518 6.06605C23.9478 6.18908 24 6.34065 24 6.4967V7.5033C24 7.65935 23.9478 7.81092 23.8518 7.93395C23.7558 8.05697 23.6215 8.14438 23.4701 8.1823L22.019 8.5456C21.921 8.86293 21.795 9.16627 21.641 9.4556L22.411 10.7387C22.4912 10.8725 22.5245 11.0293 22.5055 11.1841C22.4865 11.339 22.4162 11.483 22.306 11.5934L21.5934 12.306C21.483 12.4162 21.339 12.4865 21.1841 12.5055C21.0293 12.5245 20.8725 12.4912 20.7387 12.411L19.4556 11.641C19.1663 11.795 18.8629 11.921 18.5456 12.019L18.1823 13.4701C18.1444 13.6215 18.057 13.7558 17.9339 13.8518C17.8109 13.9478 17.6593 14 17.5033 14H16.4967C16.3407 14 16.1891 13.9478 16.0661 13.8518C15.943 13.7558 15.8556 13.6215 15.8177 13.4701L15.4544 12.019C15.1399 11.9218 14.8352 11.7953 14.5444 11.641L13.2613 12.411C13.1275 12.4912 12.9707 12.5245 12.8159 12.5055C12.661 12.4865 12.517 12.4162 12.4066 12.306L11.694 11.5934C11.5838 11.483 11.5135 11.339 11.4945 11.1841C11.4755 11.0293 11.5088 10.8725 11.589 10.7387L12.359 9.4556C12.2047 9.16479 12.0782 8.86011 11.981 8.5456L10.5299 8.1823C10.3786 8.14441 10.2444 8.0571 10.1484 7.93422C10.0524 7.81134 10.0002 7.65993 10 7.504V6.4974C10 6.34135 10.0522 6.18978 10.1482 6.06675C10.2442 5.94373 10.3785 5.85632 10.5299 5.8184L11.981 5.4551C12.079 5.13777 12.205 4.83443 12.359 4.5451L11.589 3.262C11.5088 3.12821 11.4755 2.97144 11.4945 2.81659C11.5135 2.66175 11.5838 2.51769 11.694 2.4073L12.4066 1.694C12.517 1.58376 12.661 1.51355 12.8159 1.49452C12.9707 1.4755 13.1275 1.50875 13.2613 1.589L14.5444 2.359C14.8337 2.205 15.1371 2.079 15.4544 1.981L15.8177 0.5299C15.8556 0.378644 15.9429 0.244369 16.0658 0.148374C16.1887 0.0523789 16.3401 0.00016005 16.496 0H17.5026C17.6587 4.1023e-06 17.8102 0.0521515 17.9332 0.148159C18.0563 0.244166 18.1437 0.378527 18.1816 0.5299L18.5449 1.981C18.8622 2.079 19.1663 2.205 19.4556 2.359ZM17 8.96C17.5198 8.96 18.0184 8.7535 18.3859 8.38593C18.7535 8.01836 18.96 7.51982 18.96 7C18.96 6.48018 18.7535 5.98164 18.3859 5.61407C18.0184 5.2465 17.5198 5.04 17 5.04C16.4802 5.04 15.9816 5.2465 15.6141 5.61407C15.2465 5.98164 15.04 6.48018 15.04 7C15.04 7.51982 15.2465 8.01836 15.6141 8.38593C15.9816 8.7535 16.4802 8.96 17 8.96ZM17 9.8C16.2574 9.8 15.5452 9.505 15.0201 8.9799C14.495 8.4548 14.2 7.74261 14.2 7C14.2 6.25739 14.495 5.5452 15.0201 5.0201C15.5452 4.495 16.2574 4.2 17 4.2C17.7426 4.2 18.4548 4.495 18.9799 5.0201C19.505 5.5452 19.8 6.25739 19.8 7C19.8 7.74261 19.505 8.4548 18.9799 8.9799C18.4548 9.505 17.7426 9.8 17 9.8Z"/>
</mask>
<path fill-rule="evenodd" clip-rule="evenodd" d="M17.3941 0.84H16.6059L16.1544 2.6446L15.7015 2.7846C15.4376 2.86592 15.1819 2.97185 14.9378 3.101L14.5185 3.3229L12.9225 2.3653L12.3653 2.9232L13.3229 4.5192L13.101 4.9378C12.9716 5.18187 12.8654 5.43756 12.7839 5.7015L12.6446 6.1544L10.84 6.6059V7.3941L12.6446 7.8456L12.7846 8.2985C12.8653 8.56357 12.9708 8.81813 13.101 9.0622L13.3229 9.4815L12.3653 11.0775L12.9232 11.6347L14.5192 10.6771L14.9378 10.899C15.1819 11.0287 15.4364 11.1344 15.7015 11.2161L16.1544 11.3554L16.6059 13.16H17.3941L17.8456 11.3554L18.2985 11.2154C18.5624 11.1341 18.8181 11.0281 19.0622 10.899L19.4815 10.6771L21.0775 11.6347L21.6347 11.0768L20.6771 9.4808L20.899 9.0622C21.0287 8.81813 21.1344 8.56357 21.2161 8.2985L21.3554 7.8456L23.16 7.3941V6.6059L21.3554 6.1544L21.2154 5.7015C21.1341 5.43759 21.0281 5.1819 20.899 4.9378L20.6771 4.5185L21.6347 2.9225L21.0768 2.3653L19.4808 3.3229L19.0622 3.101C18.8181 2.97161 18.5624 2.86545 18.2985 2.7839L17.8456 2.6446L17.3941 0.84ZM19.4556 2.359L20.7387 1.589C20.8725 1.50875 21.0293 1.4755 21.1841 1.49452C21.339 1.51355 21.483 1.58376 21.5934 1.694L22.306 2.4066C22.4162 2.51699 22.4865 2.66105 22.5055 2.81589C22.5245 2.97074 22.4912 3.12751 22.411 3.2613L21.641 4.5444C21.795 4.83373 21.921 5.13707 22.019 5.4544L23.4701 5.8177C23.6215 5.85562 23.7558 5.94303 23.8518 6.06605C23.9478 6.18908 24 6.34065 24 6.4967V7.5033C24 7.65935 23.9478 7.81092 23.8518 7.93395C23.7558 8.05697 23.6215 8.14438 23.4701 8.1823L22.019 8.5456C21.921 8.86293 21.795 9.16627 21.641 9.4556L22.411 10.7387C22.4912 10.8725 22.5245 11.0293 22.5055 11.1841C22.4865 11.339 22.4162 11.483 22.306 11.5934L21.5934 12.306C21.483 12.4162 21.339 12.4865 21.1841 12.5055C21.0293 12.5245 20.8725 12.4912 20.7387 12.411L19.4556 11.641C19.1663 11.795 18.8629 11.921 18.5456 12.019L18.1823 13.4701C18.1444 13.6215 18.057 13.7558 17.9339 13.8518C17.8109 13.9478 17.6593 14 17.5033 14H16.4967C16.3407 14 16.1891 13.9478 16.0661 13.8518C15.943 13.7558 15.8556 13.6215 15.8177 13.4701L15.4544 12.019C15.1399 11.9218 14.8352 11.7953 14.5444 11.641L13.2613 12.411C13.1275 12.4912 12.9707 12.5245 12.8159 12.5055C12.661 12.4865 12.517 12.4162 12.4066 12.306L11.694 11.5934C11.5838 11.483 11.5135 11.339 11.4945 11.1841C11.4755 11.0293 11.5088 10.8725 11.589 10.7387L12.359 9.4556C12.2047 9.16479 12.0782 8.86011 11.981 8.5456L10.5299 8.1823C10.3786 8.14441 10.2444 8.0571 10.1484 7.93422C10.0524 7.81134 10.0002 7.65993 10 7.504V6.4974C10 6.34135 10.0522 6.18978 10.1482 6.06675C10.2442 5.94373 10.3785 5.85632 10.5299 5.8184L11.981 5.4551C12.079 5.13777 12.205 4.83443 12.359 4.5451L11.589 3.262C11.5088 3.12821 11.4755 2.97144 11.4945 2.81659C11.5135 2.66175 11.5838 2.51769 11.694 2.4073L12.4066 1.694C12.517 1.58376 12.661 1.51355 12.8159 1.49452C12.9707 1.4755 13.1275 1.50875 13.2613 1.589L14.5444 2.359C14.8337 2.205 15.1371 2.079 15.4544 1.981L15.8177 0.5299C15.8556 0.378644 15.9429 0.244369 16.0658 0.148374C16.1887 0.0523789 16.3401 0.00016005 16.496 0H17.5026C17.6587 4.1023e-06 17.8102 0.0521515 17.9332 0.148159C18.0563 0.244166 18.1437 0.378527 18.1816 0.5299L18.5449 1.981C18.8622 2.079 19.1663 2.205 19.4556 2.359ZM17 8.96C17.5198 8.96 18.0184 8.7535 18.3859 8.38593C18.7535 8.01836 18.96 7.51982 18.96 7C18.96 6.48018 18.7535 5.98164 18.3859 5.61407C18.0184 5.2465 17.5198 5.04 17 5.04C16.4802 5.04 15.9816 5.2465 15.6141 5.61407C15.2465 5.98164 15.04 6.48018 15.04 7C15.04 7.51982 15.2465 8.01836 15.6141 8.38593C15.9816 8.7535 16.4802 8.96 17 8.96ZM17 9.8C16.2574 9.8 15.5452 9.505 15.0201 8.9799C14.495 8.4548 14.2 7.74261 14.2 7C14.2 6.25739 14.495 5.5452 15.0201 5.0201C15.5452 4.495 16.2574 4.2 17 4.2C17.7426 4.2 18.4548 4.495 18.9799 5.0201C19.505 5.5452 19.8 6.25739 19.8 7C19.8 7.74261 19.505 8.4548 18.9799 8.9799C18.4548 9.505 17.7426 9.8 17 9.8Z" fill="#090707" stroke="#090707" stroke-width="2" mask="url(#path-1-inside-1_3744_9676)"/>
<path d="M1 2H4H1Z" fill="#090707"/>
<path d="M1 2H4" stroke="#090707" stroke-width="1.5" stroke-linecap="round" stroke-linejoin="round"/>
<path d="M1 8H6H1Z" fill="#090707"/>
<path d="M1 8H6" stroke="#090707" stroke-width="1.5" stroke-linecap="round" stroke-linejoin="round"/>
<path d="M1 14H10H1Z" fill="#090707"/>
<path d="M1 14H10" stroke="#090707" stroke-width="1.5" stroke-linecap="round" stroke-linejoin="round"/>
<path d="M1 20L24 20L1 20Z" fill="#090707"/>
<path d="M1 20L24 20" stroke="#090707" stroke-width="1.5" stroke-linecap="round" stroke-linejoin="round"/>
</svg>
