<svg width="33" height="33" viewBox="0 0 33 33" fill="none" xmlns="http://www.w3.org/2000/svg">
<path d="M21.3125 8.9375C21.3125 9.56949 21.188 10.1953 20.9462 10.7792C20.7043 11.363 20.3498 11.8936 19.903 12.3405C19.4561 12.7873 18.9255 13.1418 18.3417 13.3837C17.7578 13.6255 17.132 13.75 16.5 13.75C15.868 13.75 15.2422 13.6255 14.6583 13.3837C14.0745 13.1418 13.5439 12.7873 13.097 12.3405C12.6502 11.8936 12.2957 11.363 12.0538 10.7792C11.812 10.1953 11.6875 9.56949 11.6875 8.9375C11.6875 7.66115 12.1945 6.43707 13.097 5.53455C13.9996 4.63203 15.2236 4.125 16.5 4.125C17.7764 4.125 19.0004 4.63203 19.903 5.53455C20.8055 6.43707 21.3125 7.66115 21.3125 8.9375ZM30.25 24.0625C30.25 25.3389 29.743 26.5629 28.8405 27.4655C27.9379 28.368 26.7139 28.875 25.4375 28.875C24.1611 28.875 22.9371 28.368 22.0345 27.4655C21.132 26.5629 20.625 25.3389 20.625 24.0625C20.625 22.7861 21.132 21.5621 22.0345 20.6595C22.9371 19.757 24.1611 19.25 25.4375 19.25C26.7139 19.25 27.9379 19.757 28.8405 20.6595C29.743 21.5621 30.25 22.7861 30.25 24.0625ZM12.375 24.0625C12.375 24.6945 12.2505 25.3203 12.0087 25.9042C11.7668 26.488 11.4123 27.0186 10.9655 27.4655C10.5186 27.9123 9.98804 28.2668 9.40416 28.5087C8.82028 28.7505 8.19449 28.875 7.5625 28.875C6.93051 28.875 6.30472 28.7505 5.72084 28.5087C5.13696 28.2668 4.60643 27.9123 4.15955 27.4655C3.71267 27.0186 3.35818 26.488 3.11633 25.9042C2.87448 25.3203 2.75 24.6945 2.75 24.0625C2.75 22.7861 3.25703 21.5621 4.15955 20.6595C5.06207 19.757 6.28615 19.25 7.5625 19.25C8.83885 19.25 10.0629 19.757 10.9655 20.6595C11.868 21.5621 12.375 22.7861 12.375 24.0625Z" stroke="#25BAFF" stroke-width="2.0625" stroke-linecap="round" stroke-linejoin="round"/>
</svg>
