<svg width="40" height="40" viewBox="0 0 40 40" fill="none" xmlns="http://www.w3.org/2000/svg">
<g filter="url(#filter0_d_2798_3824)">
<path fill-rule="evenodd" clip-rule="evenodd" d="M10.25 13.054C10.25 12.3246 10.5397 11.6251 11.0555 11.1094C11.5712 10.5937 12.2707 10.304 13 10.304H27C27.7293 10.304 28.4288 10.5937 28.9445 11.1094C29.4603 11.6251 29.75 12.3246 29.75 13.054V23.054C29.75 23.7833 29.4603 24.4828 28.9445 24.9985C28.4288 25.5142 27.7293 25.804 27 25.804H15.961C15.581 25.804 15.222 25.977 14.985 26.274L12.655 29.187C11.857 30.183 10.25 29.62 10.25 28.344V13.054ZM14.25 20.054C14.25 19.855 14.329 19.6643 14.4697 19.5236C14.6103 19.383 14.8011 19.304 15 19.304H25C25.1989 19.304 25.3897 19.383 25.5303 19.5236C25.671 19.6643 25.75 19.855 25.75 20.054C25.75 20.2529 25.671 20.4436 25.5303 20.5843C25.3897 20.7249 25.1989 20.804 25 20.804H15C14.8011 20.804 14.6103 20.7249 14.4697 20.5843C14.329 20.4436 14.25 20.2529 14.25 20.054ZM15 15.304C14.8011 15.304 14.6103 15.383 14.4697 15.5236C14.329 15.6643 14.25 15.855 14.25 16.054C14.25 16.2529 14.329 16.4436 14.4697 16.5843C14.6103 16.7249 14.8011 16.804 15 16.804H21C21.1989 16.804 21.3897 16.7249 21.5303 16.5843C21.671 16.4436 21.75 16.2529 21.75 16.054C21.75 15.855 21.671 15.6643 21.5303 15.5236C21.3897 15.383 21.1989 15.304 21 15.304H15Z" fill="white"/>
</g>
<defs>
<filter id="filter0_d_2798_3824" x="0.25" y="0.303955" width="39.5" height="39.3922" filterUnits="userSpaceOnUse" color-interpolation-filters="sRGB">
<feFlood flood-opacity="0" result="BackgroundImageFix"/>
<feColorMatrix in="SourceAlpha" type="matrix" values="0 0 0 0 0 0 0 0 0 0 0 0 0 0 0 0 0 0 127 0" result="hardAlpha"/>
<feOffset/>
<feGaussianBlur stdDeviation="5"/>
<feComposite in2="hardAlpha" operator="out"/>
<feColorMatrix type="matrix" values="0 0 0 0 1 0 0 0 0 1 0 0 0 0 1 0 0 0 0.6 0"/>
<feBlend mode="normal" in2="BackgroundImageFix" result="effect1_dropShadow_2798_3824"/>
<feBlend mode="normal" in="SourceGraphic" in2="effect1_dropShadow_2798_3824" result="shape"/>
</filter>
</defs>
</svg>
