<svg width="16" height="16" viewBox="0 0 16 16" fill="none" xmlns="http://www.w3.org/2000/svg">
<path d="M10.6627 13.3114C10.3441 13.3114 10.1316 13.099 10.1316 12.7803V11.7181C10.1316 10.8152 9.44118 10.1247 8.53828 10.1247H4.28936C3.38647 10.1247 2.69602 10.8152 2.69602 11.7181V12.7803C2.69602 13.099 2.48357 13.3114 2.1649 13.3114C1.84623 13.3114 1.63379 13.099 1.63379 12.7803V11.7181C1.63379 10.231 2.80224 9.0625 4.28936 9.0625H8.53828C10.0254 9.0625 11.1939 10.231 11.1939 11.7181V12.7803C11.1939 13.099 10.9814 13.3114 10.6627 13.3114Z" fill="#505050" stroke="#EFF6FE" stroke-width="0.16"/>
<path d="M6.41339 8.0006C4.92627 8.0006 3.75781 6.83215 3.75781 5.34503C3.75781 3.85791 4.92627 2.68945 6.41339 2.68945C7.90051 2.68945 9.06896 3.85791 9.06896 5.34503C9.06896 6.83215 7.90051 8.0006 6.41339 8.0006ZM6.41339 3.75168C5.51049 3.75168 4.82004 4.44213 4.82004 5.34503C4.82004 6.24792 5.51049 6.93837 6.41339 6.93837C7.31628 6.93837 8.00673 6.24792 8.00673 5.34503C8.00673 4.44213 7.31628 3.75168 6.41339 3.75168Z" fill="#505050" stroke="#EFF6FE" stroke-width="0.16"/>
<path d="M13.8493 13.3113C13.5306 13.3113 13.3182 13.0988 13.3182 12.7801V11.7179C13.3182 10.9744 12.8402 10.337 12.1497 10.1777C11.8842 10.1246 11.6717 9.8059 11.7779 9.54034C11.831 9.27478 12.1497 9.06234 12.4153 9.16856C13.5837 9.48723 14.3804 10.5495 14.4335 11.7179V12.7801C14.3804 13.0988 14.168 13.3113 13.8493 13.3113Z" fill="#505050" stroke="#EFF6FE" stroke-width="0.16"/>
<path d="M10.1311 7.94733C9.91869 7.94733 9.65313 7.78799 9.60002 7.52243C9.54691 7.25688 9.70624 6.93821 9.9718 6.8851C10.556 6.72576 10.9809 6.30087 11.1403 5.71664C11.3527 4.86686 10.8216 4.01708 9.9718 3.75152C9.70624 3.75152 9.54691 3.43285 9.60002 3.16729C9.65313 2.90174 9.9718 2.68929 10.2374 2.79551C11.6714 3.16729 12.5212 4.6013 12.1494 6.03531C11.8838 6.99132 11.1934 7.73488 10.2374 7.94733C10.2374 7.94733 10.1842 7.94733 10.1311 7.94733Z" fill="#505050" stroke="#EFF6FE" stroke-width="0.16"/>
</svg>
