<svg width="24" height="24" viewBox="0 0 24 24" fill="none" xmlns="http://www.w3.org/2000/svg">
<path d="M3.90003 10.056V13.944M1.95703 12H5.84503M4.21103 19.285C4.21103 20.0807 4.5271 20.8437 5.08971 21.4064C5.65232 21.969 6.41538 22.285 7.21103 22.285C8.00668 22.285 8.76974 21.969 9.33235 21.4064C9.89496 20.8437 10.211 20.0807 10.211 19.285C10.211 18.4894 9.89496 17.7263 9.33235 17.1637C8.76974 16.6011 8.00668 16.285 7.21103 16.285C6.41538 16.285 5.65232 16.6011 5.08971 17.1637C4.5271 17.7263 4.21103 18.4894 4.21103 19.285ZM16.211 16.285C16.211 17.0807 16.5271 17.8437 17.0897 18.4064C17.6523 18.969 18.4154 19.285 19.211 19.285C20.0067 19.285 20.7697 18.969 21.3324 18.4064C21.895 17.8437 22.211 17.0807 22.211 16.285C22.211 15.4894 21.895 14.7263 21.3324 14.1637C20.7697 13.6011 20.0067 13.285 19.211 13.285C18.4154 13.285 17.6523 13.6011 17.0897 14.1637C16.5271 14.7263 16.211 15.4894 16.211 16.285Z" stroke="#161F28" stroke-width="1.2"/>
<path d="M10.21 19.285V13.411M22.21 16.285V2.78503L16.21 4.78503M22.211 6.28503L14.826 8.74703M6 7.00003V6.00003C6.79565 6.00003 7.55871 5.68396 8.12132 5.12135C8.68393 4.55875 9 3.79568 9 3.00003H10C10 3.79568 10.3161 4.55875 10.8787 5.12135C11.4413 5.68396 12.2044 6.00003 13 6.00003V7.00003C12.2044 7.00003 11.4413 7.3161 10.8787 7.87871C10.3161 8.44132 10 9.20438 10 10H9C9 9.20438 8.68393 8.44132 8.12132 7.87871C7.55871 7.3161 6.79565 7.00003 6 7.00003Z" stroke="#161F28" stroke-width="1.2"/>
</svg>
