<svg width="24" height="24" viewBox="0 0 24 24" fill="none" xmlns="http://www.w3.org/2000/svg">
<path d="M3.90003 10.0547V13.9427M1.95703 11.9987H5.84503M4.21103 19.2837C4.21103 20.0793 4.5271 20.8424 5.08971 21.405C5.65232 21.9676 6.41538 22.2837 7.21103 22.2837C8.00668 22.2837 8.76974 21.9676 9.33235 21.405C9.89496 20.8424 10.211 20.0793 10.211 19.2837C10.211 18.488 9.89496 17.725 9.33235 17.1624C8.76974 16.5998 8.00668 16.2837 7.21103 16.2837C6.41538 16.2837 5.65232 16.5998 5.08971 17.1624C4.5271 17.725 4.21103 18.488 4.21103 19.2837ZM16.211 16.2837C16.211 17.0793 16.5271 17.8424 17.0897 18.405C17.6523 18.9676 18.4154 19.2837 19.211 19.2837C20.0067 19.2837 20.7697 18.9676 21.3324 18.405C21.895 17.8424 22.211 17.0793 22.211 16.2837C22.211 15.488 21.895 14.725 21.3324 14.1624C20.7697 13.5998 20.0067 13.2837 19.211 13.2837C18.4154 13.2837 17.6523 13.5998 17.0897 14.1624C16.5271 14.725 16.211 15.488 16.211 16.2837Z" stroke="white" stroke-width="1.2"/>
<path d="M10.21 19.2852V13.4112M22.21 16.2852V2.78516L16.21 4.78516M22.211 6.28516L14.826 8.74716M6 7.00016V6.00016C6.79565 6.00016 7.55871 5.68409 8.12132 5.12148C8.68393 4.55887 9 3.79581 9 3.00016H10C10 3.79581 10.3161 4.55887 10.8787 5.12148C11.4413 5.68409 12.2044 6.00016 13 6.00016V7.00016C12.2044 7.00016 11.4413 7.31623 10.8787 7.87884C10.3161 8.44144 10 9.20451 10 10.0002H9C9 9.20451 8.68393 8.44144 8.12132 7.87884C7.55871 7.31623 6.79565 7.00016 6 7.00016Z" stroke="white" stroke-width="1.2"/>
</svg>
