<svg width="34" height="35" viewBox="0 0 34 35" fill="none" xmlns="http://www.w3.org/2000/svg">
<g clip-path="url(#clip0_3394_3477)">
<path d="M26.9521 23.7192H10.2283C10.1344 23.7192 10.0443 23.7566 9.97789 23.823C9.91148 23.8894 9.87416 23.9795 9.87416 24.0734C9.87416 24.1673 9.91148 24.2574 9.97789 24.3238C10.0443 24.3903 10.1344 24.4276 10.2283 24.4276H26.9521C27.046 24.4276 27.1361 24.3903 27.2025 24.3238C27.2689 24.2574 27.3062 24.1673 27.3062 24.0734C27.3062 23.9795 27.2689 23.8894 27.2025 23.823C27.1361 23.7566 27.046 23.7192 26.9521 23.7192Z" fill="#090707"/>
<path d="M18.5902 26.209H10.2283C10.1344 26.209 10.0443 26.2463 9.97789 26.3127C9.91148 26.3791 9.87416 26.4692 9.87416 26.5632C9.87416 26.6571 9.91148 26.7472 9.97789 26.8136C10.0443 26.88 10.1344 26.9173 10.2283 26.9173H18.5902C18.6841 26.9173 18.7742 26.88 18.8406 26.8136C18.9071 26.7472 18.9444 26.6571 18.9444 26.5632C18.9444 26.4692 18.9071 26.3791 18.8406 26.3127C18.7742 26.2463 18.6841 26.209 18.5902 26.209Z" fill="#090707"/>
<path d="M30.3202 6.93872C30.2706 6.82893 24.0833 0.666429 24.0515 0.634554C23.8921 0.499971 24.8342 0.538929 8.65229 0.538929C8.16761 0.538929 7.70278 0.731469 7.36006 1.07419C7.01733 1.41691 6.82479 1.88175 6.82479 2.36643V3.7158H5.47542C4.99074 3.7158 4.5259 3.90834 4.18318 4.25107C3.84046 4.59379 3.64792 5.05862 3.64792 5.5433V32.6335C3.64885 33.1179 3.84169 33.5822 4.18421 33.9247C4.52673 34.2672 4.99102 34.4601 5.47542 34.461H25.3477C25.8321 34.4601 26.2964 34.2672 26.6389 33.9247C26.9814 33.5822 27.1743 33.1179 27.1752 32.6335V31.2841H28.5246C29.0096 31.2832 29.4744 31.0899 29.817 30.7466C30.1597 30.4033 30.3521 29.9381 30.3521 29.4531C30.3521 5.53268 30.3698 7.04851 30.3202 6.93872ZM24.1683 1.74664L29.1444 6.72622H25.2875C24.9907 6.72622 24.706 6.60831 24.4961 6.39842C24.2862 6.18854 24.1683 5.90388 24.1683 5.60705V1.74664ZM26.4669 32.6335C26.4659 32.93 26.3477 33.2142 26.138 33.4239C25.9284 33.6335 25.6442 33.7517 25.3477 33.7527H5.47542C5.17888 33.7517 4.89476 33.6335 4.68508 33.4239C4.4754 33.2142 4.35719 32.93 4.35625 32.6335V5.5433C4.35719 5.24677 4.4754 4.96265 4.68508 4.75297C4.89476 4.54328 5.17888 4.42507 5.47542 4.42414H6.82479V29.4531C6.82479 29.9381 7.01722 30.4033 7.35984 30.7466C7.70246 31.0899 8.16728 31.2832 8.65229 31.2841H26.4669V32.6335ZM28.5246 30.5758H8.65229C8.35515 30.5749 8.07049 30.4562 7.86071 30.2457C7.65092 30.0353 7.53313 29.7502 7.53313 29.4531V2.36643C7.53406 2.0699 7.65227 1.78577 7.86196 1.57609C8.07164 1.36641 8.35576 1.2482 8.65229 1.24726H23.46V5.60705C23.4609 6.09145 23.6538 6.55574 23.9963 6.89826C24.3388 7.24078 24.8031 7.43362 25.2875 7.43455H29.6437V29.4531C29.6442 29.6004 29.6156 29.7463 29.5596 29.8825C29.5035 30.0187 29.4212 30.1425 29.3172 30.2468C29.2132 30.3511 29.0897 30.4338 28.9537 30.4903C28.8177 30.5467 28.6719 30.5758 28.5246 30.5758Z" fill="#090707"/>
<path d="M10.625 8.9397H12.8138C13.016 8.9397 13.2101 8.85959 13.3534 8.71689C13.4968 8.57419 13.5778 8.38052 13.5788 8.17824V5.98595C13.5788 5.78306 13.4982 5.58848 13.3547 5.44501C13.2112 5.30155 13.0166 5.22095 12.8138 5.22095H10.625C10.4221 5.22095 10.2275 5.30155 10.0841 5.44501C9.9406 5.58848 9.86 5.78306 9.86 5.98595V8.17824C9.86094 8.38052 9.94195 8.57419 10.0853 8.71689C10.2287 8.85959 10.4227 8.9397 10.625 8.9397ZM10.5683 5.98595C10.5683 5.97092 10.5743 5.9565 10.5849 5.94588C10.5956 5.93525 10.61 5.92928 10.625 5.92928H12.8138C12.8288 5.92928 12.8432 5.93525 12.8538 5.94588C12.8644 5.9565 12.8704 5.97092 12.8704 5.98595V8.17824C12.8695 8.19265 12.8631 8.20617 12.8526 8.21604C12.8421 8.22591 12.8282 8.23139 12.8138 8.23136H10.625C10.6106 8.23139 10.5967 8.22591 10.5861 8.21604C10.5756 8.20617 10.5692 8.19265 10.5683 8.17824V5.98595Z" fill="#090707"/>
<path d="M26.9521 11.2595H10.2283C10.1818 11.2595 10.1358 11.2687 10.0928 11.2865C10.0498 11.3043 10.0108 11.3304 9.97789 11.3633C9.94501 11.3961 9.91892 11.4352 9.90112 11.4782C9.88332 11.5211 9.87416 11.5672 9.87416 11.6137C9.87416 11.6602 9.88332 11.7063 9.90112 11.7492C9.91892 11.7922 9.94501 11.8312 9.97789 11.8641C10.0108 11.897 10.0498 11.9231 10.0928 11.9409C10.1358 11.9587 10.1818 11.9679 10.2283 11.9679H26.9521C27.046 11.9679 27.1361 11.9305 27.2025 11.8641C27.2689 11.7977 27.3062 11.7076 27.3062 11.6137C27.3062 11.5198 27.2689 11.4297 27.2025 11.3633C27.1361 11.2968 27.046 11.2595 26.9521 11.2595Z" fill="#090707"/>
<path d="M26.9521 13.7493H10.2283C10.1344 13.7493 10.0443 13.7866 9.97789 13.853C9.91148 13.9194 9.87416 14.0095 9.87416 14.1034C9.87416 14.1974 9.91148 14.2874 9.97789 14.3539C10.0443 14.4203 10.1344 14.4576 10.2283 14.4576H26.9521C27.046 14.4576 27.1361 14.4203 27.2025 14.3539C27.2689 14.2874 27.3062 14.1974 27.3062 14.1034C27.3062 14.0095 27.2689 13.9194 27.2025 13.853C27.1361 13.7866 27.046 13.7493 26.9521 13.7493Z" fill="#090707"/>
<path d="M26.9521 16.2427H10.2283C10.1344 16.2427 10.0443 16.28 9.97789 16.3464C9.91148 16.4128 9.87416 16.5029 9.87416 16.5968C9.87416 16.6908 9.91148 16.7809 9.97789 16.8473C10.0443 16.9137 10.1344 16.951 10.2283 16.951H26.9521C27.046 16.951 27.1361 16.9137 27.2025 16.8473C27.2689 16.7809 27.3062 16.6908 27.3062 16.5968C27.3062 16.5029 27.2689 16.4128 27.2025 16.3464C27.1361 16.28 27.046 16.2427 26.9521 16.2427Z" fill="#090707"/>
<path d="M26.9521 18.7361H10.2283C10.1344 18.7361 10.0443 18.7734 9.97789 18.8398C9.91148 18.9062 9.87416 18.9963 9.87416 19.0903C9.87416 19.1842 9.91148 19.2743 9.97789 19.3407C10.0443 19.4071 10.1344 19.4444 10.2283 19.4444H26.9521C27.046 19.4444 27.1361 19.4071 27.2025 19.3407C27.2689 19.2743 27.3062 19.1842 27.3062 19.0903C27.3062 18.9963 27.2689 18.9062 27.2025 18.8398C27.1361 18.7734 27.046 18.7361 26.9521 18.7361Z" fill="#090707"/>
<path d="M26.9521 21.2258H10.2283C10.1344 21.2258 10.0443 21.2631 9.97789 21.3296C9.91148 21.396 9.87416 21.4861 9.87416 21.58C9.87416 21.6739 9.91148 21.764 9.97789 21.8304C10.0443 21.8968 10.1344 21.9342 10.2283 21.9342H26.9521C27.046 21.9342 27.1361 21.8968 27.2025 21.8304C27.2689 21.764 27.3062 21.6739 27.3062 21.58C27.3062 21.4861 27.2689 21.396 27.2025 21.3296C27.1361 21.2631 27.046 21.2258 26.9521 21.2258Z" fill="#090707"/>
</g>
<defs>
<clipPath id="clip0_3394_3477">
<rect width="34" height="34" fill="white" transform="translate(0 0.5)"/>
</clipPath>
</defs>
</svg>
