<svg width="18" height="24" viewBox="0 0 18 24" fill="none" xmlns="http://www.w3.org/2000/svg">
<path d="M16.331 15.5774L14.7692 13.8272V11.5086C14.7674 9.90636 14.2356 8.36176 13.2765 7.17348C12.3174 5.9852 10.9993 5.23767 9.57692 5.07543V3.75H8.42308V5.07543C7.00072 5.23767 5.68255 5.9852 4.72348 7.17348C3.76441 8.36176 3.23256 9.90636 3.23077 11.5086V13.8272L1.66904 15.5774C1.56084 15.6986 1.50003 15.863 1.5 16.0345V17.9741C1.5 18.1456 1.56078 18.3101 1.66898 18.4313C1.77717 18.5526 1.92391 18.6207 2.07692 18.6207H6.11538V19.2672C6.11538 20.1246 6.4193 20.9469 6.96027 21.5531C7.50124 22.1594 8.23495 22.5 9 22.5C9.76505 22.5 10.4988 22.1594 11.0397 21.5531C11.5807 20.9469 11.8846 20.1246 11.8846 19.2672V18.6207H15.9231C16.0761 18.6207 16.2228 18.5526 16.331 18.4313C16.4392 18.3101 16.5 18.1456 16.5 17.9741V16.0345C16.5 15.863 16.4392 15.6986 16.331 15.5774ZM10.7308 19.2672C10.7308 19.7817 10.5484 20.275 10.2238 20.6388C9.89926 21.0025 9.45903 21.2069 9 21.2069C8.54097 21.2069 8.10074 21.0025 7.77616 20.6388C7.45158 20.275 7.26923 19.7817 7.26923 19.2672V18.6207H10.7308V19.2672Z" fill="#25BAFF"/>
</svg>
