<svg width="32" height="30" viewBox="0 0 32 30" fill="none" xmlns="http://www.w3.org/2000/svg">
<path d="M24.5977 14.9936C24.5402 14.9872 24.4828 14.9872 24.4317 14.9872C23.7995 14.9872 23.1737 15.0639 22.5671 15.2171C20.3512 15.7854 18.5185 17.3308 17.5798 19.4189H17.5479C17.0434 19.2082 16.7114 19.0805 16.0217 19.0805H13.295V18.1226C14.0868 17.7586 14.8084 17.2605 15.4278 16.6539C16.3346 15.7535 16.9732 14.6169 17.2861 13.378C18.2056 13.3333 18.94 12.5287 18.94 11.5453C18.94 10.6386 18.3397 9.88506 17.5096 9.73819V8.93359C19.1124 9.59132 20.9579 8.98467 21.8519 7.50319C22.7459 6.02171 22.4266 4.11239 21.1111 2.99489C21.0473 2.89911 20.9515 2.82248 20.8429 2.79055C20.7854 2.75223 20.728 2.71392 20.6577 2.66922C19.2656 1.82631 17.4777 2.04981 16.3282 3.212C15.3065 1.66028 13.7229 0.568327 11.9093 0.166028C11.4049 0.0574712 10.894 0 10.3768 0C8.00766 0 5.79821 1.18135 4.47637 3.14815C4.40613 3.212 4.34866 3.29502 4.32312 3.38442C3.86973 4.11239 3.55045 4.92337 3.3908 5.76628H3.38442L3.25671 9.75096C2.49042 9.93614 1.90932 10.6705 1.90932 11.539C1.90932 12.4904 2.58621 13.2759 3.46743 13.3653C4.03576 15.5683 5.61941 17.3755 7.72669 18.2248V19.0868H5.02554C2.25415 19.0868 0 21.3091 0 24.0741V29.4764C0 29.7637 0.229885 29.9936 0.517241 30H24.0485C24.1699 30 24.2976 30 24.4189 30C28.5568 30 31.9221 26.6284 31.9221 22.4904C31.9349 18.4163 28.6782 15.083 24.5977 14.9936ZM2.94381 11.539C2.93742 11.2708 3.05875 11.0217 3.26948 10.8557V11.6156C3.26948 11.8263 3.28225 12.037 3.30141 12.2414C3.07152 12.0817 2.93742 11.8199 2.94381 11.539ZM23.0524 17.6628C23.0524 17.6565 23.0524 17.6501 23.0524 17.6501L23.2567 16.1175C23.5313 16.0664 23.8059 16.0345 24.0868 16.0217V16.539C23.9591 17.2733 24.106 17.8672 24.4636 18.2759C24.802 18.6654 25.2874 18.8314 25.9323 18.8314H25.9387C26.2261 18.8314 26.5453 18.9719 26.8263 19.106C28.327 19.8084 28.9719 21.59 28.2822 23.0907L27.1392 25.3001C26.59 26.3346 25.5364 27.0115 24.3614 27.069H24.3103C23.7101 27.0626 23.1801 26.6922 22.963 26.1367C22.6501 25.3448 21.7497 24.9617 20.9642 25.281C20.4598 25.4853 20.1022 25.9323 20.0128 26.4687L19.9106 27.1456C19.7382 26.9732 19.5722 26.7944 19.4125 26.6028L19.5402 26.1047C19.5466 26.092 19.5466 26.0792 19.553 26.0664C19.7573 24.7382 21.0856 24.6424 21.4879 24.6424H21.5517C21.5645 24.6424 21.5773 24.6296 21.59 24.6296C21.7178 24.6169 21.8455 24.6041 21.9732 24.5977C22.6692 24.553 23.327 24.5147 23.8378 24.1571C24.7893 23.4994 24.9936 22.6948 24.9936 22.1392C24.9936 21.2899 24.5083 20.3831 23.7292 19.7701C23.7165 19.7573 23.6973 19.7446 23.6845 19.7382C23.3716 19.5466 23.2056 19.1635 23.1226 18.8825C23.0077 18.4866 22.9885 18.0715 23.0524 17.6628ZM18.3397 20.2682C18.9911 18.4802 20.3959 17.069 22.1775 16.4112L22.0434 17.516C21.954 18.0651 21.9923 18.6271 22.1392 19.1635C22.3244 19.8084 22.6628 20.2937 23.1162 20.5875C23.6335 21.0026 23.9719 21.6092 23.9719 22.1328C23.9719 22.5862 23.7292 22.9821 23.2567 23.3078C22.9757 23.4994 22.4585 23.5441 21.9157 23.576C21.7944 23.5824 21.6667 23.6143 21.539 23.6143H21.4943C20.4151 23.6143 19.0932 24.0932 18.659 25.4406C17.8353 23.8378 17.7203 21.9668 18.3397 20.2682ZM17.9183 11.539C17.9183 11.8774 17.7395 12.1711 17.4777 12.2925C17.4968 12.069 17.5096 11.8455 17.5096 11.6156V10.7982C17.765 10.9323 17.9183 11.2133 17.9183 11.539ZM20.977 6.97318C20.3959 7.92465 19.2593 8.37803 18.1801 8.09068L21.3155 5.97701C21.2771 6.32822 21.1622 6.66667 20.977 6.97318ZM21.1877 4.83397L17.5096 7.31801V7.11367C17.5096 6.87739 17.4968 6.63474 17.4713 6.39847L20.6386 3.95275C20.8812 4.20817 21.0664 4.50192 21.1877 4.83397ZM19.7446 3.35249L17.2605 5.2682C17.1584 4.89144 17.0243 4.52107 16.8646 4.16347C17.5351 3.28225 18.7101 2.95658 19.7446 3.35249ZM6.07918 2.80971C7.21584 1.66028 8.76756 1.02171 10.3831 1.02171C10.5492 1.02171 10.7152 1.0281 10.8812 1.04087C9.09323 2.76501 7.17114 3.12261 5.8046 3.10345C5.894 3.00128 5.98978 2.89911 6.07918 2.80971ZM5.10856 4.08046C5.38314 4.106 5.66411 4.12516 5.9387 4.12516C7.62452 4.12516 9.98084 3.60153 12.0945 1.26437C12.4904 1.37931 12.8672 1.53257 13.2312 1.72414C11.8199 3.90166 9.89783 5.18518 7.50319 5.54278C6.51341 5.68327 5.50447 5.66411 4.52107 5.47893C4.65517 4.99361 4.85313 4.52107 5.10856 4.08046ZM4.29119 7.11367C4.29119 6.90294 4.30396 6.6986 4.3295 6.48787C4.94253 6.60281 5.56833 6.66028 6.20051 6.66028C6.67305 6.66028 7.14559 6.62835 7.61175 6.55811C9.50192 6.28991 12.1201 5.31928 14.0932 2.27331C14.802 2.80971 15.3831 3.49936 15.7918 4.29119C15.8046 4.33589 15.8301 4.3742 15.8557 4.41252C16.1367 4.96807 16.3282 5.56194 16.4176 6.18135C16.4687 6.48787 16.4943 6.80077 16.4943 7.11367V7.42656C15.645 6.77522 15.0128 5.87484 14.6999 4.85313C14.6296 4.57854 14.3487 4.41252 14.0741 4.48276C13.94 4.51469 13.825 4.60409 13.7548 4.71903C11.258 9.02299 5.82376 8.25671 4.29119 7.95019V7.11367ZM4.29119 11.622V8.99745C5.1341 9.1507 5.9834 9.22733 6.83908 9.22733C9.11877 9.22733 12.1201 8.65262 14.0805 6.07918C14.6169 7.15198 15.4534 8.05236 16.4879 8.659V11.6284C16.4879 14.9936 13.7548 17.7267 10.3895 17.7267C7.02427 17.7267 4.29119 14.9872 4.29119 11.622ZM9.98084 28.9847H9.97446H1.03448V24.0741C1.03448 21.871 2.83525 20.1086 5.03831 20.1086H5.50447V22.1328C5.01916 22.2286 4.57216 22.4649 4.22733 22.8161C3.74202 23.2886 3.46743 23.9336 3.46105 24.6041V27.433C3.46743 27.7203 3.69732 27.9502 3.98467 27.9566H4.79566C5.07663 27.9566 5.30651 27.7267 5.30651 27.4457C5.30651 27.1648 5.07663 26.9349 4.79566 26.9349H4.48276V24.6041C4.48914 23.7803 5.15964 23.1098 5.9834 23.1034H6.00894C6.83908 23.1034 7.54789 23.7676 7.54789 24.6041V26.9413H7.01788C6.73691 26.9413 6.50703 27.1711 6.50703 27.4521C6.50703 27.7331 6.73691 27.963 7.01788 27.963H8.03321C8.32056 27.963 8.56322 27.7331 8.57599 27.4393V24.6105C8.5696 23.4036 7.71392 22.3627 6.53257 22.1264V20.1086H8.06514L9.98084 22.0243V28.9847ZM8.76118 19.3614V18.5504C9.29119 18.6718 9.84036 18.7292 10.3831 18.7356C11.0217 18.7356 11.6539 18.6526 12.2733 18.4866V19.355L10.4662 21.0983L8.76118 19.3614ZM10.9962 28.9847V22.0307L12.9757 20.1086H14.2529V24.0932C13.3333 24.3295 12.6948 25.1533 12.6884 26.0983C12.6948 27.2414 13.6207 28.1673 14.7637 28.1609C15.9068 28.1545 16.8327 27.2286 16.8263 26.0856C16.8263 25.5428 16.6092 25.0192 16.2261 24.636C15.9579 24.3806 15.6322 24.1954 15.2746 24.0932V20.1086H16.0217C16.5006 20.1086 16.6922 20.1724 17.152 20.364L17.2286 20.3895C17.0307 21.0728 16.9285 21.7816 16.9285 22.4968C16.9221 24.0868 17.4266 25.6386 18.3717 26.9221C18.4036 27.0115 18.4674 27.0945 18.5441 27.152C18.8697 27.5734 19.2465 27.9566 19.6552 28.295C19.9553 28.5504 20.281 28.7803 20.6258 28.9847H10.9962ZM14.7573 25.0511C15.3384 25.0511 15.8046 25.5172 15.8046 26.0983C15.8046 26.6794 15.3384 27.1456 14.7573 27.1456C14.1762 27.1456 13.7101 26.6794 13.7101 26.0983C13.7037 25.5236 14.1699 25.0511 14.7573 25.0511ZM24.4317 28.9783C24.3742 28.9783 24.3231 28.9847 24.2656 28.9847C24.2401 28.9847 24.2082 28.9847 24.1826 28.9847H24.0868C22.9183 28.9208 21.788 28.5441 20.8174 27.8863C20.8301 27.8544 20.8365 27.8161 20.8429 27.7778L21.0217 26.622C21.0664 26.341 21.3282 26.143 21.6156 26.1877C21.7944 26.2197 21.9476 26.341 22.0179 26.5134C22.3883 27.4585 23.3014 28.0843 24.3167 28.0843H24.3806C24.387 28.0843 24.3934 28.0779 24.3997 28.0715C25.9451 28.014 27.3372 27.1328 28.0588 25.7663L29.2082 23.5568C29.2146 23.5504 29.2146 23.5441 29.2209 23.5377C30.1596 21.5262 29.2912 19.1315 27.2797 18.1865C26.8966 18.0077 26.4368 17.8225 25.9387 17.8225C25.6066 17.8289 25.3704 17.7586 25.2363 17.6054C25.0766 17.4202 25.0383 17.0817 25.1086 16.6411C25.1149 16.6156 25.1213 16.59 25.1277 16.5645V16.0345C28.4355 16.3729 30.9451 19.1635 30.9387 22.484C30.9195 26.0728 28.0077 28.9783 24.4317 28.9783Z" fill="#505050"/>
<path d="M9.29102 15.1216C10.0635 15.5053 10.8896 15.5053 11.662 15.1216" stroke="#505050" stroke-width="0.935219" stroke-miterlimit="10" stroke-linecap="round" stroke-linejoin="round"/>
<path d="M7.44727 10.9287C7.85614 10.682 8.26502 10.682 8.6739 10.9287" stroke="#505050" stroke-width="0.935219" stroke-miterlimit="10" stroke-linecap="round" stroke-linejoin="round"/>
<path d="M8.06055 11.9927V12.2381" stroke="#505050" stroke-width="0.935219" stroke-miterlimit="10" stroke-linecap="round" stroke-linejoin="round"/>
<path d="M12.2773 10.9287C12.6862 10.682 13.0951 10.682 13.504 10.9287" stroke="#505050" stroke-width="0.935219" stroke-miterlimit="10" stroke-linecap="round" stroke-linejoin="round"/>
<path d="M12.8906 11.9927V12.2381" stroke="#505050" stroke-width="0.935219" stroke-miterlimit="10" stroke-linecap="round" stroke-linejoin="round"/>
</svg>
