<svg width="268" height="227" viewBox="0 0 268 227" fill="none" xmlns="http://www.w3.org/2000/svg">
<path d="M132.183 219.807C205.186 219.807 264.366 216.493 264.366 212.404C264.366 208.315 205.186 205 132.183 205C59.1804 205 0 208.315 0 212.404C0 216.493 59.1804 219.807 132.183 219.807Z" fill="#152039"/>
<path d="M26.2925 178.688L20.919 177.407C19.5677 177.084 18.0952 177.624 17.7591 178.92L16.8755 182.329C16.5394 183.625 17.5934 184.698 18.9446 185.021L21.0628 185.526L21.0662 187.843L22.2007 185.797L24.3188 186.302C25.6701 186.625 27.1256 186.149 27.4617 184.853L28.3452 181.445C28.6813 180.149 27.6444 179.01 26.2925 178.688Z" fill="#407BFF"/>
<path d="M32.3132 166.313C29.5405 165.177 27.9255 168.463 27.9255 168.463C27.9255 168.463 24.5618 166.794 23.0783 169.31C20.9615 172.901 27.0222 176.133 30.5911 176.017C33.5008 174.03 36.2687 167.933 32.3132 166.313Z" fill="#407BFF"/>
<path d="M41.5771 185.569L38.8555 181.968L34.4453 183.344L37.7013 173.745L44.8331 175.97L41.5771 185.569Z" fill="#407BFF"/>
<path d="M51.3757 190.935H8.44141V214.167H51.3757V190.935Z" fill="#162A38"/>
<path opacity="0.4" d="M51.3757 190.935H8.44141V214.167H51.3757V190.935Z" fill="white"/>
<path opacity="0.4" d="M51.3794 190.935H34.2812V214.167H51.3794V190.935Z" fill="white"/>
<path opacity="0.6" d="M26.2925 178.688L20.919 177.407C19.5677 177.084 18.0952 177.624 17.7591 178.92L16.8755 182.329C16.5394 183.625 17.5934 184.698 18.9446 185.021L21.0628 185.526L21.0662 187.843L22.2007 185.797L24.3188 186.302C25.6701 186.625 27.1256 186.149 27.4617 184.853L28.3452 181.445C28.6813 180.149 27.6444 179.01 26.2925 178.688Z" fill="white"/>
<path opacity="0.4" d="M41.5771 185.569L38.8555 181.968L34.4453 183.344L37.7013 173.745L44.8331 175.97L41.5771 185.569Z" fill="white"/>
<path d="M165.06 27.3382C165.017 27.0499 164.777 26.8263 164.475 26.7942L148.444 25.1086C148.243 25.0877 147.467 25.5624 147.501 25.8252L149.366 40.3232C149.405 40.624 149.659 40.8568 149.973 40.8803L166.204 42.0939C166.4 42.1082 167.171 41.6283 167.133 41.3687L165.06 27.3382Z" fill="#162A38"/>
<path opacity="0.2" d="M148.447 25.1104L164.478 26.7961C164.78 26.8274 165.021 27.0517 165.063 27.3401L167.136 41.3712C167.174 41.6308 166.952 41.8577 166.679 41.8374L150.448 40.6239C150.133 40.6003 149.879 40.3675 149.841 40.0668L147.976 25.5688C147.942 25.3059 148.173 25.0816 148.447 25.1104Z" fill="white"/>
<path d="M150.501 39.9716L148.691 25.792L164.404 27.4463L166.417 41.1616L150.501 39.9716Z" fill="#25BAFF"/>
<path opacity="0.6" d="M150.501 39.9716L148.691 25.792L164.404 27.4463L166.417 41.1616L150.501 39.9716Z" fill="white"/>
<path opacity="0.2" d="M153.181 28.4866C153.38 29.4622 152.875 30.3776 152.052 30.5319C151.23 30.6862 150.403 30.0206 150.203 29.045C150.004 28.0695 150.51 27.1541 151.332 26.9997C152.155 26.8454 152.982 27.5117 153.181 28.4866Z" fill="black"/>
<path opacity="0.2" d="M156.039 35.8511L160.327 36.2571L159.843 32.3222L155.5 31.8828L156.039 35.8511Z" fill="black"/>
<path opacity="0.2" d="M160.396 36.8343L156.113 36.4146L156.544 39.5956L160.775 39.9147L160.396 36.8343Z" fill="black"/>
<path opacity="0.2" d="M160.938 36.8896L161.354 39.9602L165.407 40.2655L164.924 37.2807L160.938 36.8896Z" fill="black"/>
<path opacity="0.2" d="M160.862 36.3114L164.831 36.6874L164.196 32.7662L160.328 32.3745L160.862 36.3114Z" fill="black"/>
<path opacity="0.2" d="M155.572 36.3633L151.305 35.9448L151.687 39.2311L155.964 39.5535L155.572 36.3633Z" fill="black"/>
<path opacity="0.2" d="M155.503 35.8015L155.015 31.8352L150.777 31.4062L151.242 35.3974L155.503 35.8015Z" fill="black"/>
<path opacity="0.2" d="M160.981 30.2504L163.179 30.5191L162.942 29.5383L160.781 29.2886L160.981 30.2504Z" fill="black"/>
<path opacity="0.2" d="M156.906 28.8396L154.465 28.5571L154.6 29.4686L157.052 29.7687L156.906 28.8396Z" fill="black"/>
<path opacity="0.2" d="M157.753 29.8546L160.141 30.1475L159.965 29.1942L157.641 28.9248L157.753 29.8546Z" fill="black"/>
<path d="M173.08 35.9894C173.08 35.9894 167.398 32.9261 166.552 32.3147C165.705 31.7033 158.156 31.6144 158.291 32.3147C158.426 33.015 161.258 37.3795 161.932 37.7836C162.606 38.1883 167.138 37.7836 167.138 37.7836L172.316 39.7791L173.08 35.9894Z" fill="#EEC1BB"/>
<path d="M201.854 35.478C206.69 37.7037 204.144 56.7611 192.816 61.119C181.489 65.477 170.121 48.2988 170.121 48.2988L173.668 39.4358C173.668 39.4358 184.051 47.6607 188.097 45.7697C192.142 43.8781 198.214 33.8034 201.854 35.478Z" fill="#162A38"/>
<path opacity="0.1" d="M201.854 35.478C206.69 37.7037 204.144 56.7611 192.816 61.119C181.489 65.477 170.121 48.2988 170.121 48.2988L173.668 39.4358C173.668 39.4358 184.051 47.6607 188.097 45.7697C192.142 43.8781 198.214 33.8034 201.854 35.478Z" fill="white"/>
<path d="M171.436 203.786L165.226 204.411L164.913 200.959L164.062 191.566L170.273 190.935L171.214 201.311L171.436 203.786Z" fill="#EEC1BB"/>
<path d="M202.434 203.029H196.416L196.362 201.722L196.354 201.56L196.048 193.188L196.041 193.019L195.918 189.81H201.944L202.434 203.029Z" fill="#EEC1BB"/>
<path opacity="0.2" d="M170.273 190.935L171.214 201.311L164.913 200.959L164.062 191.566L170.273 190.935Z" fill="black"/>
<path opacity="0.2" d="M202.398 202.295H202.391L196.365 201.561H196.357L196.043 193.482H196.05L202.084 193.945L202.391 202.042L202.398 202.295Z" fill="black"/>
<path d="M195.579 202.681H202.891C203.138 202.682 203.351 202.847 203.405 203.078L204.592 208.218C204.693 208.679 204.387 209.131 203.907 209.228C203.843 209.241 203.777 209.248 203.711 209.246C201.345 209.21 199.622 209.07 196.651 209.07C194.822 209.07 189.301 209.254 186.774 209.254C184.246 209.254 183.918 206.86 184.951 206.64C189.591 205.67 193.083 204.327 194.569 203.049C194.843 202.806 195.205 202.674 195.579 202.681Z" fill="#25BAFF"/>
<path d="M164.568 202.496H171.88C172.127 202.498 172.34 202.662 172.393 202.893L173.58 208.034C173.681 208.494 173.375 208.946 172.895 209.043C172.831 209.056 172.765 209.062 172.699 209.062C170.333 209.025 168.61 208.885 165.64 208.885C163.81 208.885 158.289 209.069 155.762 209.069C153.235 209.069 152.906 206.674 153.939 206.455C158.579 205.485 162.071 204.141 163.557 202.864C163.832 202.621 164.194 202.49 164.568 202.496Z" fill="#25BAFF"/>
<path d="M163.497 200.092H172.325C172.325 200.092 171.605 137.047 181.154 112.43C181.827 120.567 182.585 129.011 183.329 136.046C183.795 140.401 184.255 142.081 184.691 144.93C187.471 163.29 194.485 200.827 194.485 200.827H203.206C203.206 200.827 202.173 165.183 201.138 147.14C199.998 127.555 199.508 86.5622 199.461 82.8901H167.516C164.476 98.3114 156.682 150.154 163.497 200.092Z" fill="#162A38"/>
<path d="M179.113 20.2301C179.188 20.51 179.271 20.7846 179.373 21.0468C179.962 22.6324 181.029 23.9375 182.351 24.8523C182.697 25.0948 183.062 25.3106 183.441 25.4983C185.441 26.4856 187.816 26.67 189.962 25.7749C190.84 25.4185 191.69 24.8712 192.451 24.1232C195.467 21.2018 195.387 17.8292 195.727 12.1197C195.82 10.8911 195.618 9.65922 195.118 8.52739C193.391 4.53755 188.614 2.65248 184.462 4.31001C178.623 6.59524 177.822 15.0902 179.113 20.2301Z" fill="#EEC1BB"/>
<path opacity="0.2" d="M182.352 24.8522C182.697 25.0948 183.063 25.3106 183.442 25.4982C185.442 26.4855 187.816 26.6699 189.963 25.7748C189.544 24.6717 188.899 23.8368 188.899 23.8368C188.899 23.8368 185.342 23.3117 182.352 24.8522Z" fill="black"/>
<path d="M194.333 32.2594C191.4 34.8153 184.216 33.8699 184.216 33.8699C184.216 33.8699 179.731 32.6923 180.673 31.3486C183.315 30.9301 184.594 29.7479 185.122 28.2349C185.428 27.3535 185.474 26.3623 185.39 25.3416C185.352 24.8054 185.267 24.2621 185.168 23.7259L194.049 17.4175C192.886 21.5812 191.462 29.2412 194.333 32.2594Z" fill="#EEC1BB"/>
<path d="M182.351 15.032L181.068 15.4982L181.71 12.9802C181.71 12.9802 179.828 10.2687 181.71 7.84742C181.71 7.84742 176.946 5.81065 180.542 0.723633C180.542 0.723633 181.896 3.7098 185.472 2.21378C187.414 1.40168 193.487 1.33826 193.79 3.7098C193.79 3.7098 198.164 3.68365 198.636 10.8499C199.108 18.0162 194.003 22.1427 194.003 22.1427C194.003 22.1427 188.722 23.3425 186.156 21.309C183.591 19.2749 182.351 15.032 182.351 15.032Z" fill="#162A38"/>
<path d="M185.737 15.4397C185.382 16.6821 184.669 17.5942 183.756 17.9767C182.543 18.4704 181.748 16.8318 181.922 15.1148C182.089 13.5932 182.91 11.4518 184.208 11.7343C185.506 12.0174 186.16 13.9045 185.737 15.4397Z" fill="#EEC1BB"/>
<path opacity="0.2" d="M181.152 112.396C181.826 120.533 182.584 128.993 183.327 136.029C184.414 125.872 185.747 118.631 185.747 118.631C185.747 118.631 186.995 117.647 190.425 112.397C193.856 107.139 190.425 97.3418 190.425 97.3418C190.532 106.447 181.152 112.396 181.152 112.396Z" fill="black"/>
<path d="M162.5 197.706L162.931 200.093H173.363V197.89L162.5 197.706Z" fill="#25BAFF"/>
<path d="M193.48 198.624L194.481 200.828H203.229L203.804 198.624H193.48Z" fill="#25BAFF"/>
<path d="M173.078 31.8657C173.078 31.8657 181.019 30.0519 189.724 31.5551C198.43 33.0583 201.846 35.4822 201.846 35.4822L206.341 101.07C206.341 101.07 183.066 106.485 163.508 101.07C163.508 101.07 165.364 40.2854 173.078 31.8657Z" fill="#162A38"/>
<path opacity="0.2" d="M206.342 101.068C206.342 101.068 183.067 106.482 163.508 101.068C163.508 101.068 163.528 100.342 163.583 99.0408C163.767 94.1564 164.34 81.1643 165.567 67.8125C165.621 67.2306 165.676 66.6486 165.73 66.0667C167.182 50.9233 169.507 35.7669 173.08 31.8634C173.08 31.8634 181.022 30.0522 189.728 31.5561C198.434 33.0599 201.849 35.4792 201.849 35.4792L203.915 65.6548L204.072 67.9563L206.185 98.7858L206.342 101.068Z" fill="white"/>
<path opacity="0.2" d="M204.071 67.9555C199.797 66.7786 188.828 65.0131 165.566 67.8116C165.621 67.2297 165.675 66.6478 165.73 66.0658C171.218 65.1962 190.593 62.5154 203.915 65.6539L204.071 67.9555Z" fill="black"/>
<path opacity="0.2" d="M206.342 101.067C206.342 101.067 183.067 106.481 163.508 101.067C163.508 101.067 163.528 100.341 163.583 99.0397C173.352 100.452 192.427 101.557 206.185 98.7847L206.342 101.067Z" fill="black"/>
<path d="M178.555 30.9584C178.555 30.9584 182.047 26.3774 191.948 26.3545C201.849 26.3323 201.779 33.6804 198.668 38.6288C195.555 43.5765 178.555 30.9584 178.555 30.9584Z" fill="#25BAFF"/>
<path d="M149.665 45.7701L148.694 40.5006C148.694 40.5006 150.997 37.1267 150.474 36.3866C149.951 35.647 147.975 29.4707 147.975 29.4707C147.975 29.4707 143.103 34.1981 143.417 35.4816C143.732 36.7651 145.08 39.0367 145.08 39.0367L145.215 49.6664L149.665 45.7701Z" fill="#EEC1BB"/>
<path d="M150.473 45.7691L149.395 41.8374L142.652 47.3834L145.214 52.9288L150.473 45.7691Z" fill="#25BAFF"/>
<path d="M173.082 31.8633C170.743 32.5407 158.574 53.6629 155.888 53.6629C153.788 53.6629 149.861 42.786 149.861 42.786L143.414 50.0752C143.414 50.0752 144.268 68.2701 154.853 68.767C165.439 69.2646 175.377 52.0276 175.377 52.0276C175.377 52.0276 177.037 47.0263 176.031 39.6462C175.233 33.7928 173.082 31.8633 173.082 31.8633Z" fill="#162A38"/>
<path opacity="0.1" d="M173.082 31.8633C170.743 32.5407 158.574 53.6629 155.888 53.6629C153.788 53.6629 149.861 42.786 149.861 42.786L143.414 50.0752C143.414 50.0752 144.268 68.2701 154.853 68.767C165.439 69.2646 175.377 52.0276 175.377 52.0276C175.377 52.0276 177.037 47.0263 176.031 39.6462C175.233 33.7928 173.082 31.8633 173.082 31.8633Z" fill="white"/>
<path d="M159.829 7.13721H151.927C150.736 7.13721 149.77 8.06372 149.77 9.20666V15.1267C149.77 16.2696 150.736 17.1962 151.927 17.1962H154.832L155.879 19.6344L156.925 17.1962H159.83C161.022 17.1962 161.988 16.2696 161.988 15.1267V9.20666C161.987 8.06372 161.021 7.13721 159.829 7.13721Z" fill="#25BAFF"/>
<path opacity="0.6" d="M152.899 10.1174C153.682 8.93003 155.144 9.40734 155.89 10.3456C156.66 9.425 158.133 8.98299 158.886 10.188C160.155 12.2202 157.462 14.0576 156.193 14.7742C156.049 14.8566 155.929 14.9246 155.831 14.9776C155.733 14.922 155.615 14.8514 155.474 14.7657C154.223 14.019 151.579 12.1195 152.899 10.1174Z" fill="white"/>
<path d="M143.069 20.627H139.118C138.522 20.627 138.039 21.0899 138.039 21.6614V24.6214C138.039 25.1929 138.522 25.6558 139.118 25.6558H140.57L141.093 26.8752L141.616 25.6558H143.068C143.663 25.6558 144.147 25.1929 144.147 24.6214V21.662C144.148 21.0905 143.665 20.627 143.069 20.627Z" fill="#25BAFF"/>
<path opacity="0.6" d="M139.602 22.1173C139.993 21.5236 140.724 21.7623 141.098 22.2311C141.483 21.7708 142.219 21.5498 142.596 22.1526C143.23 23.1687 141.884 24.0874 141.249 24.4457C141.178 24.4869 141.118 24.5209 141.068 24.5477C141.019 24.5203 140.96 24.485 140.889 24.4418C140.264 24.0685 138.941 23.1184 139.602 22.1173Z" fill="white"/>
<path opacity="0.3" d="M195.579 202.681H202.891C203.138 202.682 203.351 202.847 203.405 203.078L204.592 208.218C204.693 208.679 204.387 209.131 203.907 209.228C203.843 209.241 203.777 209.248 203.711 209.246C201.345 209.21 199.622 209.07 196.651 209.07C194.822 209.07 189.301 209.254 186.774 209.254C184.246 209.254 183.918 206.86 184.951 206.64C189.591 205.67 193.083 204.327 194.569 203.049C194.843 202.806 195.205 202.674 195.579 202.681Z" fill="white"/>
<path opacity="0.3" d="M164.568 202.496H171.88C172.127 202.498 172.34 202.662 172.393 202.893L173.58 208.034C173.681 208.494 173.375 208.946 172.895 209.043C172.831 209.056 172.765 209.062 172.699 209.062C170.333 209.025 168.61 208.885 165.64 208.885C163.81 208.885 158.289 209.069 155.762 209.069C153.235 209.069 152.906 206.674 153.939 206.455C158.579 205.485 162.071 204.141 163.557 202.864C163.832 202.621 164.194 202.49 164.568 202.496Z" fill="white"/>
<path d="M255.666 153.362C252.333 161.267 243.422 172.958 235.18 182.903C234.464 183.766 233.755 184.616 233.06 185.446C230.694 188.265 228.437 190.887 226.351 193.182C225.308 194.332 224.306 195.405 223.352 196.372V196.379C219.943 199.89 218.348 202.067 218.348 202.067L215.055 200.211C215.055 200.211 218.211 195.483 222.438 188.964C223.331 187.591 224.272 186.139 225.24 184.636C227.722 180.811 230.401 176.645 232.978 172.592C233.469 171.82 233.96 171.048 234.444 170.283C239.243 162.692 243.47 155.82 244.997 152.786C245.113 152.557 245.215 152.342 245.297 152.158C246.142 150.295 243.858 143.135 241.329 136.387C241.138 135.877 240.947 135.367 240.757 134.87C238.357 128.593 235.937 123.062 235.937 123.062L242.665 112.136L245.133 108.121C245.133 108.121 246.463 111.645 248.235 116.719C249.442 120.159 250.86 124.311 252.203 128.561C252.339 128.992 252.476 129.43 252.619 129.862C254.63 136.315 256.348 142.834 256.982 147.255C257.207 148.817 256.703 150.903 255.666 153.362Z" fill="#B97964"/>
<path opacity="0.2" d="M235.369 182.904C231.02 188.148 226.841 192.908 223.732 196.373C223.289 194.242 222.839 191.718 222.484 188.965C226.077 183.433 230.474 176.607 234.469 170.284C234.435 173.632 234.564 178.582 235.369 182.904Z" fill="black"/>
<path d="M233.211 209.698L229.291 210.188C229.291 210.188 227.784 203.08 226.352 193.181C225.964 190.507 225.589 187.63 225.241 184.635C224.403 177.286 223.775 169.237 223.837 161.724C223.837 161.724 223.407 160.299 222.773 157.886C221.717 153.865 220.094 147.117 218.956 139.669C218.949 139.624 218.942 139.584 218.935 139.539C217.572 130.6 216.903 120.675 218.724 113.253L232.359 119.138L232.584 134.922L232.638 138.754L232.829 152.053L232.87 155.1L232.979 172.591L233.061 185.446L233.211 209.698Z" fill="#B97964"/>
<path opacity="0.2" d="M232.359 119.138L232.584 134.922C228.425 137.603 222.691 138.924 218.935 139.539C217.572 130.6 216.903 120.675 218.724 113.253L232.359 119.138Z" fill="black"/>
<path opacity="0.2" d="M252.62 129.862C249.109 133.608 243.348 134.609 240.757 134.87C238.358 128.593 235.938 123.062 235.938 123.062L242.666 112.136C244.507 113.522 246.457 115.085 248.236 116.719C249.443 120.159 250.861 124.311 252.204 128.561C252.34 128.992 252.477 129.43 252.62 129.862Z" fill="black"/>
<path d="M241.977 59.4644C244.561 59.5775 255.395 73.5301 255.395 73.5301L259.418 68.5138C259.418 68.5138 265.622 80.072 262.554 85.5736C259.486 91.0751 243.315 76.0364 243.315 76.0364L241.977 59.4644Z" fill="#25BAFF"/>
<path opacity="0.2" d="M241.977 59.4688L243.043 70.5974L243.316 76.0375C243.316 76.0375 245.975 78.5091 249.336 81.0788C254.272 84.8581 260.728 88.8466 262.555 85.5773C265.623 80.0784 259.419 68.5181 259.419 68.5181L255.397 73.5332L255.369 73.494C254.756 72.6505 244.478 59.5734 241.977 59.4688Z" fill="black"/>
<path opacity="0.2" d="M243.043 70.5956L243.316 76.0357C243.316 76.0357 245.974 78.5073 249.335 81.0769C249.656 74.5449 243.316 65.0312 243.316 65.0312L243.043 70.5956Z" fill="black"/>
<path opacity="0.2" d="M255.399 73.5314L254.82 74.5939L256.507 80.8873C256.507 80.8873 251.856 76.8282 254.82 72.8501L255.399 73.5314Z" fill="black"/>
<path d="M242.444 94.3541L220.628 95.9705C220.628 95.9705 220.332 83.47 218.592 76.9641C218.027 74.8587 217.318 72.4917 216.418 69.7455C216.036 68.5817 215.62 67.3524 215.163 66.0382C214.747 64.8154 214.291 63.5143 213.793 62.1477C216.779 61.2323 219.82 60.5327 222.915 60.0357C226.173 59.48 229.473 59.1465 232.786 59.0353C237.061 59.0026 241.976 59.4669 241.976 59.4669C241.976 59.4669 242.672 59.6304 243.115 63.972C243.517 68.0586 243.33 79.5044 242.444 94.3541Z" fill="#25BAFF"/>
<path opacity="0.2" d="M242.444 94.3525L220.628 95.9675C220.628 95.9675 220.621 95.7125 220.608 95.2483C220.512 92.5086 220.083 82.5373 218.596 76.9664C218.194 75.4625 217.717 73.8213 217.144 72.0101C216.919 71.2844 216.681 70.5324 216.422 69.7478C216.04 68.5839 215.624 67.3547 215.167 66.0404C214.751 64.8177 214.295 63.5165 213.797 62.15C214.983 61.7838 216.183 61.4569 217.39 61.1561C219.21 60.7115 221.057 60.3388 222.919 60.038C226.177 59.4822 229.477 59.1487 232.79 59.0376C235.545 59.018 238.565 59.2011 240.365 59.3384C241.36 59.4103 241.98 59.4691 241.98 59.4691C241.98 59.4691 242.676 59.6326 243.119 63.9742C243.521 68.0608 243.33 79.5034 242.444 94.3525Z" fill="black"/>
<path d="M215.359 198.148C215.76 197.868 219.155 202.746 219.155 202.746C219.155 202.746 218.399 207.83 219.931 211.108C221.463 214.388 218.487 214.108 216.013 211.001C213.539 207.895 211.651 205.524 209.893 203.316C208.135 201.11 211.195 201.053 215.359 198.148Z" fill="#162A38"/>
<path d="M220.305 206.425C219.534 206.252 219.034 204.144 218.941 203.723C218.936 203.702 218.936 203.682 218.94 203.662V203.661C218.944 203.645 218.949 203.629 218.958 203.614C218.967 203.599 218.979 203.586 218.992 203.575C218.993 203.576 218.993 203.574 218.993 203.574L218.994 203.573C219.01 203.56 219.029 203.55 219.05 203.543C219.12 203.522 220.555 203.088 221.329 203.517C221.576 203.654 221.732 203.86 221.792 204.131C221.856 204.42 221.8 204.623 221.627 204.735C221.361 204.907 220.842 204.763 220.331 204.54C220.683 204.903 220.993 205.315 221.042 205.67C221.068 205.858 221.024 206.023 220.911 206.158C220.731 206.377 220.554 206.437 220.414 206.437C220.375 206.438 220.338 206.433 220.305 206.425ZM220.379 206.125C220.41 206.132 220.506 206.155 220.66 205.968C220.716 205.899 220.738 205.815 220.723 205.711C220.657 205.229 219.898 204.522 219.362 204.089C219.605 204.996 220.017 206.044 220.379 206.125ZM219.492 203.751C220.313 204.24 221.219 204.629 221.447 204.48C221.517 204.434 221.496 204.283 221.477 204.196C221.436 204.012 221.335 203.877 221.168 203.785C220.969 203.674 220.705 203.635 220.433 203.635C220.093 203.636 219.741 203.696 219.492 203.751Z" fill="#25BAFF"/>
<path d="M227.907 207.789C227.919 207.313 234.021 207.686 234.021 207.686C234.021 207.686 237.775 211.348 241.421 212.171C245.068 212.994 243.03 215.092 238.955 215.092C234.879 215.092 231.769 215.092 228.873 215.092C225.977 215.092 227.787 212.726 227.907 207.789Z" fill="#162A38"/>
<path d="M234.697 208.441C234.677 208.433 234.66 208.42 234.646 208.405V208.405C234.634 208.392 234.625 208.378 234.618 208.362V208.362C234.611 208.347 234.607 208.33 234.606 208.313L234.606 208.313V208.312C234.604 208.29 234.608 208.269 234.615 208.25C234.641 208.18 235.153 206.825 235.977 206.496C236.239 206.391 236.505 206.399 236.766 206.517C237.044 206.644 237.179 206.809 237.168 207.009C237.149 207.317 236.714 207.625 236.219 207.88C236.733 207.833 237.263 207.846 237.587 208.023C237.759 208.118 237.869 208.251 237.913 208.419C238.005 208.766 237.884 208.95 237.765 209.043C237.638 209.143 237.449 209.183 237.227 209.183C236.374 209.183 235.018 208.588 234.697 208.441ZM235.255 208.343C236.155 208.709 237.272 209.031 237.56 208.804C237.586 208.784 237.661 208.724 237.601 208.495C237.578 208.409 237.521 208.343 237.426 208.29C237.257 208.197 236.999 208.162 236.707 208.162C236.236 208.162 235.677 208.254 235.255 208.343ZM236.1 206.781C235.622 206.971 235.245 207.637 235.054 208.039C235.958 207.709 236.83 207.255 236.846 206.991C236.851 206.909 236.712 206.834 236.628 206.796C236.534 206.753 236.44 206.732 236.347 206.732C236.265 206.732 236.183 206.748 236.1 206.781Z" fill="#25BAFF"/>
<path d="M230.971 63.6969C225.551 63.0299 223.922 60.8068 223.922 60.8068C226.138 58.806 225.735 55.8506 225.169 54.0067C224.863 52.9867 224.501 52.3066 224.501 52.3066L231.026 53.4771C230.855 54.5101 230.78 55.3798 230.773 56.1121C230.76 56.9163 230.835 57.5506 230.957 58.0475C231.401 59.9175 232.512 59.9437 232.512 59.9437C233.657 61.9968 230.971 63.6969 230.971 63.6969Z" fill="#B97964"/>
<path opacity="0.2" d="M230.772 56.1121C230.758 56.9163 230.833 57.5506 230.956 58.0475C228.365 57.7206 226.402 55.7329 225.168 54.0067C224.861 52.9867 224.5 52.3066 224.5 52.3066L231.024 53.4771C230.854 54.5101 230.779 55.3798 230.772 56.1121Z" fill="black"/>
<path d="M238.746 41.6307C238.746 41.6307 241.464 40.9082 240.857 39.0977C240.25 37.2871 239.306 37.2224 239.306 37.2224C239.306 37.2224 240.924 35.0235 239.845 32.5663C238.767 30.1091 235.8 30.8205 235.8 30.8205C235.8 30.8205 236.041 28.1691 233.426 27.4577C230.81 26.7463 229.465 29.0302 229.465 29.0302C229.465 29.0302 227.866 26.6168 225.158 27.0052C222.45 27.3929 221.573 30.8852 221.573 30.8852C221.573 30.8852 219.213 29.8305 217.73 32.2655C216.247 34.7005 217.73 36.7817 217.73 36.7817C217.73 36.7817 216.112 35.8676 215.303 38.4203C214.494 40.9729 217.123 43.5308 217.123 43.5308C217.123 43.5308 215.572 43.5766 216.179 45.5728C216.786 47.569 219.28 47.828 219.28 47.828C219.28 47.828 218.269 48.2157 219.955 49.9622C221.64 51.708 227.763 49.9622 227.763 49.9622L238.746 41.6307Z" fill="#162A38"/>
<path d="M231.913 36.8522C237.532 37.6303 238.906 40.7662 238.482 46.377C237.951 53.3883 235.604 58.0974 228.802 55.6415C219.563 52.3068 222.581 35.5596 231.913 36.8522Z" fill="#B97964"/>
<path d="M234.891 45.5737C234.891 45.5737 235.458 47.0894 236.19 48.0355C236.19 48.0355 235.599 48.7018 234.617 48.4396L234.891 45.5737Z" fill="#A24E3F"/>
<path d="M231.519 44.6588C231.463 45.1027 231.167 45.4342 230.858 45.3983C230.549 45.3623 230.344 44.9733 230.4 44.5293C230.456 44.0853 230.752 43.7538 231.06 43.7898C231.369 43.8251 231.574 44.2141 231.519 44.6588Z" fill="#162A38"/>
<path d="M230.93 43.7949L231.984 43.5327C231.984 43.5327 231.381 44.2873 230.93 43.7949Z" fill="#162A38"/>
<path d="M237.291 45.231C237.235 45.675 236.94 46.0065 236.631 45.9705C236.323 45.9346 236.117 45.5455 236.173 45.1016C236.229 44.6569 236.525 44.3261 236.833 44.362C237.142 44.398 237.347 44.7871 237.291 45.231Z" fill="#162A38"/>
<path d="M236.703 44.3696L237.758 44.1074C237.758 44.1074 237.154 44.862 236.703 44.3696Z" fill="#162A38"/>
<path d="M224.401 45.0878C224.401 45.0878 227.695 41.0241 227.812 37.5508C227.812 37.5508 239.604 34.7307 238.521 45.6462C238.521 45.6462 241.058 36.1718 231.431 34.6189C221.819 33.0686 219.804 46.625 224.184 51.3544C224.184 51.3544 222.359 47.6313 224.401 45.0878Z" fill="#162A38"/>
<path d="M225.149 46.3513C225.242 45.4784 224.529 43.8804 222.821 43.8235C221.052 43.7647 219.706 47.0778 223.913 48.5025C224.516 48.7065 224.955 48.1723 225.149 46.3513Z" fill="#B97964"/>
<path d="M222.518 42.9242C224.502 36.3189 235.406 31.5909 238.553 39.7465C238.553 39.7465 238.026 36.7832 235.406 34.4953C235.406 34.4953 225.158 30.6931 222.223 42.0199L222.518 42.9242Z" fill="#25BAFF"/>
<path d="M245.922 68.6799C245.883 69.0114 246.135 69.2801 246.485 69.2801H252.716C253.067 69.2801 253.382 69.0114 253.422 68.6799L254.813 56.8856C254.853 56.5541 254.601 56.2036 254.25 56.2036H248.019C247.669 56.2036 247.353 56.5541 247.314 56.8856L245.922 68.6799Z" fill="#162A38"/>
<path opacity="0.5" d="M248.005 56.8084L246.595 68.7172C246.555 69.0526 246.738 69.2808 247.086 69.2808H252.369C252.724 69.2808 253.373 69.0938 253.413 68.7577L254.823 56.8084C254.863 56.4724 254.257 56.2036 253.903 56.2036H248.619C248.272 56.2036 248.045 56.4724 248.005 56.8084Z" fill="white"/>
<path opacity="0.6" d="M233.836 97.0298C233.836 97.6143 234.33 98.0884 234.94 98.0884C235.549 98.0884 236.044 97.6143 236.044 97.0298C236.044 96.4452 235.55 95.9712 234.94 95.9712C234.33 95.9712 233.836 96.4446 233.836 97.0298Z" fill="white"/>
<path d="M258.977 69.6635L255.729 64.3784C255.729 64.3784 255.738 61.5995 255.454 60.9456C255.17 60.2918 251.989 58.816 251.364 59.0364C250.738 59.2567 250.511 64.7079 251.079 65.4422C251.647 66.1765 253.636 66.9938 253.636 66.9938L253.5 68.0289L255.397 73.5324L258.977 69.6635Z" fill="#B97964"/>
<path d="M260.283 69.064L259.203 68.0283L254.09 73.5318L254.818 75.7112L260.283 69.064Z" fill="#25BAFF"/>
<path opacity="0.2" d="M234.379 77.8558C234.379 77.8558 228.366 90.9918 220.608 95.2484C220.512 92.5087 220.083 82.5374 218.597 76.9665C218.194 75.4627 217.717 73.8215 217.145 72.0103L219.51 69.2837C219.51 69.2837 221.146 74.1484 220.424 78.3723L229.47 73.0565L234.379 77.8558Z" fill="black"/>
<path d="M228.555 74.8353L235.937 69.2801C235.937 69.2801 237.055 66.2991 237.505 65.7819C237.954 65.2647 244.427 62.9736 244.966 62.9122C245.506 62.8507 244.999 67.9985 244.157 68.874C243.315 69.7496 238.134 71.4751 238.134 71.4751L230.404 78.457L228.555 74.8353Z" fill="#B97964"/>
<path d="M213.792 62.1484C209.457 64.2316 207.529 87.7156 215.058 91.7708C222.586 95.8261 233.836 77.503 233.836 77.503L229.466 73.0548C229.466 73.0548 220.301 80.414 219.195 79.7379C218.088 79.0618 219.347 71.87 219.347 71.87C219.347 71.87 220.635 69.6933 217.923 66.273C215.211 62.8526 213.792 62.1484 213.792 62.1484Z" fill="#25BAFF"/>
<path opacity="0.2" d="M213.792 62.1484C209.457 64.2316 207.529 87.7156 215.058 91.7708C222.586 95.8261 233.836 77.503 233.836 77.503L229.466 73.0548C229.466 73.0548 220.301 80.414 219.195 79.7379C218.088 79.0618 219.347 71.87 219.347 71.87C219.347 71.87 220.635 69.6933 217.923 66.273C215.211 62.8526 213.792 62.1484 213.792 62.1484Z" fill="black"/>
<path d="M233.924 79.1332L235.232 78.3793L230.322 71.4766L228.52 72.4403L233.924 79.1332Z" fill="#25BAFF"/>
<path d="M253.905 126.999C253.916 127.033 253.926 127.068 253.937 127.102C252.756 127.286 251.751 129.353 250.628 130.068C249.261 130.939 247.625 131.44 246.012 131.676C242.937 132.125 239.775 131.799 236.711 132.318C232.909 132.963 229.482 134.868 225.812 136.02C223.209 136.837 218.928 137.7 216.45 136.061C214.662 134.878 214.945 132.778 214.895 130.916C214.734 125.006 214.931 119.119 215.796 113.257C216.56 108.065 217.882 102.462 220.105 97.1721C220.275 96.7667 220.452 96.3679 220.63 95.969L242.446 94.354L242.63 95.361L244 102.874L246.604 109.19L253.033 124.785C253.333 125.516 253.673 126.256 253.905 126.999Z" fill="#25BAFF"/>
<path opacity="0.6" d="M253.905 126.999C253.916 127.033 253.926 127.068 253.937 127.102C252.756 127.286 251.751 129.353 250.628 130.068C249.261 130.939 247.625 131.44 246.012 131.676C242.937 132.125 239.775 131.799 236.711 132.318C232.909 132.963 229.482 134.868 225.812 136.02C223.209 136.837 218.928 137.7 216.45 136.061C214.662 134.878 214.945 132.778 214.895 130.916C214.734 125.006 214.931 119.119 215.796 113.257C216.56 108.065 217.882 102.462 220.105 97.1721C220.275 96.7667 220.452 96.3679 220.63 95.969L242.446 94.354L242.63 95.361L244 102.874L246.604 109.19L253.033 124.785C253.333 125.516 253.673 126.256 253.905 126.999Z" fill="white"/>
<path d="M220.627 95.9694L219.707 98.1461L242.931 97.028L242.443 94.353L220.627 95.9694Z" fill="black"/>
<path d="M227.191 95.4551L226.921 98.3327H226.078L226.213 95.4551H227.191Z" fill="#25BAFF"/>
<path opacity="0.6" d="M227.191 95.4551L226.921 98.3327H226.078L226.213 95.4551H227.191Z" fill="white"/>
<path d="M239.43 94.578L239.767 97.589H240.542L240.273 94.4531L239.43 94.578Z" fill="#25BAFF"/>
<path opacity="0.6" d="M239.43 94.578L239.767 97.589H240.542L240.273 94.4531L239.43 94.578Z" fill="white"/>
<path d="M232.886 95.1599L233.157 97.606C233.187 97.8741 233.434 98.0709 233.714 98.0493L237.114 97.7898C237.403 97.7675 237.617 97.523 237.589 97.2464L237.35 94.8356C237.323 94.5675 237.078 94.3681 236.798 94.3864L233.366 94.6107C233.073 94.6297 232.855 94.8788 232.886 95.1599Z" fill="#25BAFF"/>
<path d="M240.365 59.3389C240.345 60.032 240.134 60.8624 239.466 61.6797C239.118 62.1112 238.647 62.5362 238.013 62.9351C236.616 63.8244 234.421 64.6024 231.032 65.034C228.892 65.3021 227.03 65.289 225.428 65.0798C224.549 64.9621 223.751 64.7921 223.022 64.5763C220.254 63.772 218.475 62.3532 217.391 61.1566C218.59 60.8624 219.804 60.6008 221.024 60.3785C221.338 60.3131 221.652 60.2543 221.965 60.202C222.279 60.1431 222.599 60.0908 222.92 60.0385C226.178 59.4827 229.478 59.1493 232.791 59.0381C233.984 59.0316 235.218 59.0577 236.391 59.1035C236.902 59.1296 237.407 59.1493 237.884 59.182C238.832 59.2277 239.684 59.2866 240.365 59.3389Z" fill="#B97964"/>
<path d="M225.424 65.0775C224.544 64.9598 223.747 64.7898 223.017 64.574C222.669 62.3705 221.674 61.0366 221.02 60.3763C221.333 60.3109 221.647 60.252 221.96 60.1997C223.828 61.4617 224.926 63.7632 225.424 65.0775Z" fill="#162A38"/>
<path d="M239.465 61.6792C239.118 62.1108 238.647 62.5358 238.013 62.9346C238.04 61.3392 237.168 59.9857 236.391 59.103C236.902 59.1292 237.406 59.1488 237.884 59.1815C238.586 59.8942 239.097 60.7965 239.465 61.6792Z" fill="#162A38"/>
<path d="M265.841 35.1582H257.939C256.747 35.1582 255.781 36.0847 255.781 37.2277V43.1477C255.781 44.2906 256.747 45.2172 257.939 45.2172H260.844L261.89 47.6554L262.937 45.2172H265.842C267.033 45.2172 267.999 44.2906 267.999 43.1477V37.2277C267.999 36.0847 267.033 35.1582 265.841 35.1582Z" fill="#25BAFF"/>
<path opacity="0.6" d="M258.915 38.1384C259.698 36.951 261.16 37.4283 261.906 38.3666C262.676 37.446 264.149 37.004 264.901 38.209C266.171 40.2412 263.478 42.0786 262.208 42.7952C262.064 42.8776 261.945 42.9456 261.846 42.9986C261.749 42.943 261.631 42.8724 261.49 42.7867C260.239 42.04 257.594 40.1405 258.915 38.1384Z" fill="white"/>
<path d="M247.897 46.542H243.946C243.35 46.542 242.867 47.0049 242.867 47.5764V50.5364C242.867 51.1079 243.35 51.5715 243.946 51.5715H245.398L245.921 52.7903L246.444 51.5715H247.896C248.492 51.5715 248.974 51.1079 248.974 50.5364V47.5764C248.976 47.0056 248.493 46.542 247.897 46.542Z" fill="#25BAFF"/>
<path opacity="0.6" d="M244.43 48.0343C244.822 47.4406 245.552 47.6793 245.926 48.1481C246.311 47.6878 247.047 47.4668 247.423 48.069C248.058 49.0851 246.712 50.0038 246.077 50.3621C246.005 50.4033 245.945 50.4373 245.896 50.4634C245.847 50.436 245.788 50.4006 245.717 50.3575C245.092 49.9854 243.77 49.0354 244.43 48.0343Z" fill="white"/>
<path d="M157.045 168.168C152.518 177.485 146.553 178.479 146.553 178.479L139.422 170.47C139.422 170.47 144.535 167.514 145.728 163.918C146.921 160.322 144.705 136.946 151.059 132.049C151.059 132.049 151.789 133.906 152.777 136.809V136.815C154.713 142.491 157.645 152.155 158.109 159.818C158.32 163.14 158.054 166.089 157.045 168.168Z" fill="#25BAFF"/>
<path opacity="0.1" d="M158.111 159.817C151.88 149.159 151.233 141.457 152.78 136.814C154.716 142.49 157.648 152.154 158.111 159.817Z" fill="black"/>
<path d="M157.81 183.375C157.81 183.375 112.153 171.154 106.418 186.523C100.682 201.891 142.134 214.142 165.075 214.893C188.016 215.643 197.376 200.214 190.61 185.55L157.81 183.375Z" fill="#162A38"/>
<path opacity="0.2" d="M157.81 183.375C157.81 183.375 112.153 171.154 106.418 186.523C100.682 201.891 142.134 214.142 165.075 214.893C188.016 215.643 197.376 200.214 190.61 185.55L157.81 183.375Z" fill="black"/>
<path d="M194.885 194.419L152.453 187.456C159.884 173.725 157.525 152.84 151.062 132.048C155.555 128.445 173.512 126.013 187.222 129.831C187.222 129.831 188.034 132.721 189.131 137.697C190.447 143.647 192.172 152.579 193.399 163.119C194.51 172.58 195.219 183.349 194.885 194.419Z" fill="#25BAFF"/>
<path opacity="0.6" d="M194.885 194.42L152.453 187.456C158.759 175.805 158.016 159.007 153.694 141.484C157.287 134.88 161.909 134.036 161.909 134.036C166.579 140.333 176.198 134.036 176.198 134.036C185.136 139.215 190.454 149.997 192.158 153.933C193.903 165.284 195.335 179.577 194.885 194.42Z" fill="white"/>
<path opacity="0.1" d="M193.4 163.12C190.257 160.649 187.332 157.321 185.907 152.979C182.458 142.484 187.83 138.489 189.132 137.698C190.448 143.648 192.173 152.58 193.4 163.12Z" fill="black"/>
<path d="M111.653 207.353C111.31 207.102 111.059 206.755 110.934 206.359C110.885 206.093 110.989 205.822 111.207 205.65C111.324 205.531 111.499 205.482 111.665 205.521C112.433 205.742 113.193 207.858 113.267 208.104C113.289 208.152 113.273 208.209 113.227 208.24C113.178 208.275 113.111 208.279 113.059 208.248C112.56 207.996 112.089 207.695 111.653 207.353ZM111.779 205.895C111.727 205.851 111.667 205.817 111.603 205.796C111.537 205.775 111.466 205.795 111.423 205.846C111.264 205.958 111.189 206.147 111.228 206.331C111.569 207.005 112.148 207.541 112.863 207.841C112.627 207.135 112.26 206.475 111.779 205.895Z" fill="#25BAFF"/>
<path d="M113.029 208.25L113.01 208.185C112.738 207.535 112.67 205.819 113.224 205.445C113.417 205.324 113.67 205.346 113.836 205.499C114.028 205.622 114.159 205.813 114.201 206.03C114.376 206.895 113.316 208.178 113.245 208.236C113.211 208.278 113.154 208.295 113.102 208.276C113.076 208.275 113.051 208.266 113.029 208.25ZM113.705 205.763L113.652 205.723C113.488 205.613 113.421 205.663 113.386 205.681C113.061 205.897 113.004 207.101 113.179 207.833C113.466 207.439 113.998 206.618 113.888 206.071C113.865 205.951 113.8 205.843 113.705 205.763Z" fill="#25BAFF"/>
<path d="M159.917 217.617C159.971 218.027 159.888 218.443 159.68 218.805C159.515 219.025 159.241 219.144 158.96 219.115C158.79 219.117 158.631 219.032 158.545 218.891C158.172 218.209 159.217 216.209 159.346 215.986C159.367 215.937 159.421 215.909 159.476 215.918C159.537 215.926 159.586 215.969 159.6 216.028C159.762 216.546 159.867 217.078 159.917 217.617ZM158.743 218.551C158.746 218.618 158.763 218.682 158.793 218.742C158.823 218.801 158.888 218.836 158.956 218.83C159.15 218.861 159.344 218.78 159.453 218.624C159.717 217.919 159.711 217.148 159.435 216.447C159.074 217.103 158.839 217.815 158.743 218.551Z" fill="#25BAFF"/>
<path d="M148.541 201.234L156.62 206.916L160.501 209.644L157.966 213.883L154.028 211.818L144.41 206.773L148.541 201.234Z" fill="#E4897B"/>
<path d="M156.709 213.759L159.146 208.6C159.282 208.312 159.639 208.189 159.935 208.328L162.563 209.562C162.563 209.562 166.222 210.981 166.682 212.121C168.025 215.453 162.938 226.998 161.351 227C160.77 227.001 160.425 226.137 160.344 225.587C160.087 223.839 160.043 219.443 159.81 217.987C159.537 216.285 157.743 214.975 156.915 214.454C156.676 214.304 156.591 214.009 156.709 213.759Z" fill="#162A38"/>
<path d="M159.621 216.049L159.586 216.108C159.292 216.749 158.06 217.996 157.394 217.878C157.17 217.831 157.009 217.641 157.007 217.421C156.964 217.203 157.015 216.98 157.146 216.799C157.668 216.074 159.365 215.902 159.459 215.91C159.514 215.904 159.566 215.932 159.589 215.98C159.607 216 159.618 216.023 159.621 216.049ZM157.296 217.326L157.303 217.39C157.336 217.58 157.419 217.591 157.457 217.602C157.846 217.674 158.782 216.87 159.205 216.238C158.711 216.316 157.727 216.527 157.396 216.985C157.324 217.084 157.289 217.205 157.296 217.326Z" fill="#25BAFF"/>
<path opacity="0.2" d="M148.541 201.234L156.62 206.916L154.028 211.818L144.41 206.773L148.541 201.234Z" fill="black"/>
<path d="M152.18 212.139L149.523 211.573L153.939 203.49L156.402 205.902L152.18 212.139Z" fill="#25BAFF"/>
<path opacity="0.6" d="M152.18 212.139L149.523 211.573L153.939 203.49L156.402 205.902L152.18 212.139Z" fill="white"/>
<path d="M131.818 211.019L121.932 212.58L117.185 213.33L115.801 208.626L120.094 207.374L130.582 204.313L131.818 211.019Z" fill="#E4897B"/>
<path d="M116.772 207.855L118.91 213.135C119.029 213.429 118.871 213.76 118.56 213.866L115.802 214.803C115.802 214.803 112.185 216.317 111.013 215.834C107.592 214.422 102.552 202.859 103.66 201.77C104.066 201.371 104.951 201.739 105.418 202.068C106.9 203.116 110.205 206.161 111.452 207.02C112.911 208.024 115.142 207.711 116.11 207.509C116.39 207.452 116.668 207.599 116.772 207.855Z" fill="#162A38"/>
<path opacity="0.2" d="M131.817 211.019L121.932 212.58L120.094 207.374L130.581 204.313L131.817 211.019Z" fill="black"/>
<path d="M121.797 206.389C121.797 206.389 162.893 183.141 176.799 183.759C190.707 184.378 191.923 197.654 186.185 205.014C180.447 212.373 169.852 214.166 169.852 214.166C169.852 214.166 177.065 204.388 176.023 201.638C174.98 198.888 171.005 208.138 171.005 208.138C171.005 208.138 145.543 211.336 123.361 213.139L121.797 206.389Z" fill="#162A38"/>
<path d="M121.145 205.793L123.426 204.323L126.356 212.958H122.837L121.145 205.793Z" fill="#25BAFF"/>
<path opacity="0.6" d="M121.145 205.793L123.426 204.323L126.356 212.958H122.837L121.145 205.793Z" fill="white"/>
<path d="M168.238 135.422C174.217 135.422 178.109 129.407 178.109 129.407C170.269 126.772 170.242 118.834 170.242 118.834L167.222 121.665L162.92 125.706C166.499 128.138 164.809 130.244 163.67 131.179C163.261 131.525 162.92 131.715 162.92 131.715C162.92 131.715 162.258 135.422 168.238 135.422Z" fill="#E4897B"/>
<path opacity="0.2" d="M163.672 131.178C171.007 131.97 170.51 121.436 170.51 121.436C169.344 121.423 168.246 121.501 167.224 121.665L162.922 125.706C166.5 128.138 164.81 130.243 163.672 131.178Z" fill="black"/>
<path d="M178.872 116.445C179.757 117.271 176.093 119.541 170.244 117.613C164.395 115.684 163.391 110.007 163.391 110.007C163.391 110.007 173.062 111.029 178.872 116.445Z" fill="#25BAFF"/>
<path opacity="0.4" d="M178.872 116.445C179.757 117.271 176.093 119.541 170.244 117.613C164.395 115.684 163.391 110.007 163.391 110.007C163.391 110.007 173.062 111.029 178.872 116.445Z" fill="black"/>
<path d="M157.939 110.934C160.719 112.038 160.187 114.946 155.578 120.245C152.74 117.902 151.203 112.567 152.691 110.855C154.179 109.142 155.518 109.982 157.939 110.934Z" fill="#162A38"/>
<path d="M153.842 122.725C153.842 122.725 153.842 122.731 153.849 122.744C154.115 123.49 154.415 124.189 154.735 124.824C157.476 130.179 165.357 131.218 168.848 125.922C168.861 125.902 168.875 125.889 168.888 125.87C171.193 122.306 170.327 118.978 169.366 113.211C169.175 111.988 168.691 110.831 167.948 109.818C165.316 106.215 160.142 105.339 156.385 107.863C151.811 110.909 152.084 117.801 153.842 122.725Z" fill="#E4897B"/>
<path d="M160.874 116.678C160.982 117.141 160.812 117.572 160.497 117.638C160.182 117.704 159.844 117.388 159.736 116.925C159.629 116.462 159.792 116.035 160.104 115.962C160.416 115.89 160.734 116.23 160.874 116.678Z" fill="#162A38"/>
<path d="M155.389 117.866C155.496 118.329 155.327 118.76 155.011 118.826C154.695 118.892 154.351 118.578 154.24 118.11C154.13 117.641 154.303 117.216 154.618 117.15C154.934 117.084 155.281 117.403 155.389 117.866Z" fill="#162A38"/>
<path d="M157.229 117.699C156.984 119.238 156.519 120.738 155.848 122.155C156.898 122.732 158.254 122.07 158.254 122.07L157.229 117.699Z" fill="#DE5753"/>
<path d="M161.982 114.698C162.047 114.692 162.107 114.665 162.154 114.621C162.258 114.504 162.245 114.329 162.125 114.227C161.426 113.628 160.466 113.394 159.554 113.601C159.404 113.638 159.314 113.785 159.353 113.928C159.355 113.935 159.356 113.94 159.359 113.947C159.409 114.091 159.567 114.173 159.72 114.135C160.441 113.983 161.195 114.175 161.743 114.649C161.812 114.696 161.899 114.715 161.982 114.698Z" fill="#162A38"/>
<path d="M152.473 116.629C152.582 116.604 152.668 116.523 152.696 116.419C152.845 115.724 153.331 115.14 154.005 114.846C154.155 114.792 154.232 114.632 154.178 114.488C154.123 114.346 153.961 114.271 153.811 114.318C152.952 114.677 152.327 115.413 152.133 116.292C152.096 116.44 152.19 116.589 152.345 116.625C152.346 116.625 152.347 116.626 152.349 116.626C152.39 116.634 152.432 116.635 152.473 116.629Z" fill="#162A38"/>
<path d="M165.824 108.683C163.265 110.19 164.275 112.984 169.702 117.506C172.118 114.759 172.752 109.252 170.992 107.799C169.233 106.346 168.061 107.37 165.824 108.683Z" fill="#162A38"/>
<path d="M173.25 117.156C173.159 118.623 172.465 119.996 171.321 120.974C169.794 122.253 168.162 121.143 167.854 119.325C167.579 117.686 168.046 115.043 169.928 114.466C171.81 113.888 173.352 115.356 173.25 117.156Z" fill="#E4897B"/>
<path d="M163.547 109.868C163.547 109.868 161.895 110.432 161.157 111.467C161.157 111.467 160.883 111.079 161.157 110.303C161.157 110.303 159.407 111.193 158.598 112.3C158.598 112.3 158.1 111.338 158.181 110.433C158.181 110.433 157.319 111.791 157.048 112.825C157.048 112.825 155.003 112.114 154.812 110.561C154.812 110.561 154.666 111.402 154.812 112.566C154.812 112.566 153.452 112.178 153.16 110.82C153.16 110.82 152.718 111.944 152.8 113.258C152.8 113.258 151.279 112.566 151.721 110.561C152.163 108.557 158.075 105.456 161.506 106.424C164.936 107.393 163.547 109.868 163.547 109.868Z" fill="#162A38"/>
<path d="M151.535 111.381C151.535 111.381 151.603 105.574 154.054 103.395C156.504 101.216 165.269 100.516 169.605 102.682C173.941 104.847 172.374 112.695 172.374 112.695C172.374 112.695 163.486 108.358 151.535 111.381Z" fill="#25BAFF"/>
<path d="M154.58 109.517C154.58 109.517 156.927 108.747 160.051 109.084C160.051 109.084 161.586 106.496 157.758 106.345C154.976 106.236 154.419 107.648 154.58 109.517Z" fill="#162A38"/>
<path d="M167.738 111.179L172.573 111.213C172.573 111.213 176.399 113.32 178.87 116.445C178.87 116.445 175.15 113.337 167.738 111.179Z" fill="#25BAFF"/>
<path opacity="0.2" d="M167.738 111.179L172.573 111.213C172.573 111.213 176.399 113.32 178.87 116.445C178.87 116.445 175.15 113.337 167.738 111.179Z" fill="black"/>
<path opacity="0.2" d="M184.495 175.361L170.358 190.395C170.358 190.395 154.728 190.062 135.75 198.958C135.75 198.958 115.385 190.89 113.514 184.188C111.644 177.486 156.265 182.227 156.265 182.227L184.495 175.361Z" fill="black"/>
<path d="M180.497 170.947L157.829 178.058C157.829 178.058 149.733 176.342 148.285 176.342C146.836 176.342 141.244 180.703 144.408 182.226C147.573 183.749 156.21 183.943 157.147 183.452C158.085 182.962 183.224 177.32 183.224 177.32L180.497 170.947Z" fill="#E4897B"/>
<path d="M187.221 129.833C182.091 128.879 190.99 158.85 188.813 163.264C186.635 167.677 178.113 170.468 178.113 170.468L182.033 178.766C182.033 178.766 193.623 176.668 199.929 168.985C206.235 161.302 195.591 131.39 187.221 129.833Z" fill="#25BAFF"/>
<path d="M178.115 169.802L182.887 178.766L178.796 179.61L175.047 171.355L178.115 169.802Z" fill="#25BAFF"/>
<path opacity="0.2" d="M178.115 169.802L182.887 178.766L178.796 179.61L175.047 171.355L178.115 169.802Z" fill="white"/>
<path d="M168.74 182.225V183.65C168.74 184.611 167.906 185.494 166.897 185.494H112.091C111.082 185.494 110.109 184.611 110.109 183.65V182.225H168.74Z" fill="#162A38"/>
<path opacity="0.2" d="M168.74 182.225V183.65C168.74 184.611 167.906 185.494 166.897 185.494H112.091C111.082 185.494 110.109 184.611 110.109 183.65V182.225H168.74Z" fill="white"/>
<path opacity="0.2" d="M148.287 182.225V183.65C148.287 184.611 147.44 185.494 146.438 185.494H112.091C111.082 185.494 110.109 184.611 110.109 183.65V182.225H148.287Z" fill="white"/>
<path d="M146.435 184.187H110.228C109.117 184.187 107.937 183.35 107.596 182.323L99.2927 157.343C98.9518 156.316 99.5722 155.417 100.683 155.417H136.891C138.002 155.417 139.182 156.316 139.523 157.343L147.826 182.293C148.166 183.319 147.546 184.187 146.435 184.187Z" fill="#162A38"/>
<path opacity="0.2" d="M146.435 184.187H110.228C109.117 184.187 107.937 183.35 107.596 182.323L99.2927 157.343C98.9518 156.316 99.5722 155.417 100.683 155.417H136.891C138.002 155.417 139.182 156.316 139.523 157.343L147.826 182.293C148.166 183.319 147.546 184.187 146.435 184.187Z" fill="white"/>
<path opacity="0.2" d="M145.072 184.187H110.228C109.117 184.187 107.937 183.35 107.596 182.323L99.2927 157.343C98.9518 156.316 99.5722 155.417 100.683 155.417H135.527C136.639 155.417 137.818 156.316 138.159 157.343L146.463 182.293C146.803 183.319 146.182 184.187 145.072 184.187Z" fill="white"/>
<path opacity="0.2" d="M123.89 170.945C124.337 172.609 123.473 173.959 121.961 173.959C120.449 173.959 118.861 172.609 118.415 170.945C117.968 169.281 118.831 167.932 120.343 167.932C121.856 167.932 123.443 169.281 123.89 170.945Z" fill="white"/>
<path d="M120.72 140.694H112.818C111.626 140.694 110.66 141.621 110.66 142.764V148.684C110.66 149.827 111.626 150.753 112.818 150.753H115.723L116.769 153.192L117.816 150.753H120.721C121.912 150.753 122.878 149.827 122.878 148.684V142.764C122.878 141.621 121.912 140.694 120.72 140.694Z" fill="#25BAFF"/>
<path opacity="0.6" d="M113.786 143.675C114.569 142.488 116.031 142.965 116.777 143.903C117.547 142.983 119.02 142.541 119.773 143.746C121.042 145.778 118.349 147.615 117.08 148.332C116.936 148.414 116.817 148.482 116.718 148.535C116.621 148.48 116.503 148.409 116.361 148.323C115.11 147.577 112.465 145.677 113.786 143.675Z" fill="white"/>
<path d="M141.397 146.187H137.446C136.85 146.187 136.367 146.649 136.367 147.221V150.181C136.367 150.752 136.85 151.215 137.446 151.215H138.898L139.421 152.434L139.944 151.215H141.396C141.992 151.215 142.474 150.752 142.474 150.181V147.221C142.476 146.65 141.993 146.187 141.397 146.187Z" fill="#25BAFF"/>
<path opacity="0.6" d="M137.93 147.679C138.321 147.086 139.052 147.324 139.426 147.793C139.811 147.333 140.547 147.112 140.923 147.714C141.558 148.73 140.212 149.649 139.577 150.007C139.505 150.048 139.445 150.082 139.396 150.109C139.347 150.081 139.288 150.046 139.217 150.003C138.593 149.63 137.27 148.68 137.93 147.679Z" fill="white"/>
<path d="M131.845 127.092H126.542C125.742 127.092 125.094 127.714 125.094 128.481V132.454C125.094 133.221 125.742 133.843 126.542 133.843H128.492L129.194 135.479L129.896 133.843H131.846C132.645 133.843 133.294 133.221 133.294 132.454V128.481C133.293 127.713 132.645 127.092 131.845 127.092Z" fill="#25BAFF"/>
<path opacity="0.6" d="M127.199 129.091C127.724 128.294 128.705 128.614 129.206 129.244C129.723 128.626 130.712 128.329 131.217 129.138C132.068 130.502 130.262 131.735 129.41 132.216C129.313 132.271 129.233 132.316 129.167 132.352C129.101 132.315 129.022 132.267 128.928 132.211C128.088 131.71 126.312 130.435 127.199 129.091Z" fill="white"/>
<path opacity="0.2" d="M156.709 213.759L159.146 208.6C159.282 208.312 159.639 208.189 159.935 208.328L162.563 209.562C162.563 209.562 166.222 210.981 166.682 212.121C168.025 215.453 162.938 226.998 161.351 227C160.77 227.001 160.425 226.137 160.344 225.587C160.087 223.839 160.043 219.443 159.81 217.987C159.537 216.285 157.743 214.975 156.915 214.454C156.676 214.304 156.591 214.009 156.709 213.759Z" fill="white"/>
<path opacity="0.2" d="M116.772 207.855L118.91 213.135C119.029 213.429 118.871 213.76 118.56 213.866L115.802 214.803C115.802 214.803 112.185 216.317 111.013 215.834C107.592 214.422 102.552 202.859 103.66 201.77C104.066 201.371 104.951 201.739 105.418 202.068C106.9 203.116 110.205 206.161 111.452 207.02C112.911 208.024 115.142 207.711 116.11 207.509C116.39 207.452 116.668 207.599 116.772 207.855Z" fill="white"/>
</svg>
