<svg width="268" height="249" viewBox="0 0 268 249" fill="none" xmlns="http://www.w3.org/2000/svg">
<path d="M127.949 248.039C187.879 248.039 236.461 245.273 236.461 241.862C236.461 238.45 187.879 235.685 127.949 235.685C68.0199 235.685 19.4375 238.45 19.4375 241.862C19.4375 245.273 68.0199 248.039 127.949 248.039Z" fill="#F0F8FF"/>
<path d="M243.299 79.4789C242.496 60.8449 235.473 33.2151 211.383 17.1625C180.767 -3.23961 128.807 -14.8793 80.6773 38.0908C73.1124 46.4167 61.5248 49.2194 51.079 51.4182C38.9895 53.9628 29.1283 57.8914 17.8767 68.2406C-3.59539 87.9908 -5.71946 115.246 11.477 142.173C19.4735 154.692 13.3396 181.045 15.4955 188.105C22.6778 211.616 42.349 224.632 89.18 222.859C109.058 222.106 116.365 230.801 128.516 238.048H202.29C219.382 225.477 230.2 204.344 247.399 189.142C295.233 146.864 245.013 119.172 243.299 79.4789Z" fill="url(#paint0_linear_3523_11144)"/>
<path d="M230.541 66.5137H44.0391V199.386H230.541V66.5137Z" fill="#BFEBFF"/>
<path d="M114.46 203.301L111.535 230.519H163.049L160.124 203.301H114.46Z" fill="#33464F"/>
<path opacity="0.4" d="M113.285 214.236L111.535 230.519H163.049L161.3 214.236H113.285Z" fill="#455A64"/>
<path d="M185.814 229.418H88.7719C85.6924 229.418 83.1953 231.915 83.1953 234.994V234.997C83.1953 238.076 85.6917 240.574 88.7714 240.574H185.814C188.894 240.574 191.391 238.076 191.391 234.996C191.391 231.915 188.894 229.418 185.814 229.418Z" fill="#455A64"/>
<path d="M235.034 60.6133H39.5483C37.7731 60.6133 36.332 62.055 36.332 63.8298V202.928C36.332 204.703 37.7731 206.145 39.5483 206.145H235.034C236.809 206.145 238.25 204.703 238.25 202.928V63.8298C238.25 62.055 236.809 60.6133 235.034 60.6133ZM225.068 187.707H49.5141V72.4246H225.068V187.707Z" fill="#455A64"/>
<path d="M87.0298 69.3053C93.1449 63.1902 93.1449 53.2756 87.0298 47.1605C80.9146 41.0454 71.0001 41.0454 64.8849 47.1605C58.7698 53.2756 58.7698 63.1902 64.8849 69.3053C71.0001 75.4205 80.9146 75.4205 87.0298 69.3053Z" fill="#FAA716"/>
<path d="M85.5255 67.8013C90.81 62.5168 90.81 53.949 85.5255 48.6645C80.241 43.38 71.6732 43.38 66.3887 48.6645C61.1042 53.949 61.1042 62.5168 66.3887 67.8013C71.6732 73.0858 80.241 73.0858 85.5255 67.8013Z" fill="#FFCE5C"/>
<path d="M70 50V51.6364H73.25C74.6345 51.6364 76.4512 52.4856 77.085 54.0909H70V55.7273H77.2881C77.0362 57.8627 74.8539 59 73.25 59H70V61.0209L78.3281 68H80.8672L72.0816 60.6364H73.25C75.8776 60.6364 78.6726 58.6809 78.9131 55.7273H83V54.0909H78.7847C78.5394 53.1222 78.0112 52.2942 77.3125 51.6364H83V50H70Z" fill="#FAA716"/>
<path d="M194.154 50.7129H80.4336V179.888H194.154V50.7129Z" fill="#25BAFF"/>
<path d="M129.689 154.128H93.4023V158.454H129.689V154.128Z" fill="white"/>
<path d="M181.178 154.128H141.078V158.454H181.178V154.128Z" fill="white"/>
<path d="M124.945 167.976H181.176V163.649H124.945V167.976Z" fill="white"/>
<path d="M93.3986 167.976H113.555V163.649H93.3986V167.976Z" fill="white"/>
<path d="M152.501 144.607H93.4023V148.934H152.501V144.607Z" fill="white"/>
<path d="M181.182 144.607H163.895V148.934H181.182V144.607Z" fill="white"/>
<path d="M182.543 61.8081H92.0352V130.066H182.543V61.8081Z" fill="white"/>
<path d="M137.272 110.416C132.263 110.415 127.46 108.547 123.749 105.154C120.015 101.741 117.723 97.0847 117.295 92.0424C116.359 81.0156 124.569 71.2831 135.596 70.3471C136.167 70.2986 136.745 70.2739 137.315 70.2739C142.325 70.2739 147.127 72.1422 150.838 75.5345C154.571 78.9471 156.863 83.6038 157.291 88.6473C157.745 93.9883 156.091 99.1867 152.634 103.285C149.177 107.383 144.332 109.889 138.991 110.343C138.42 110.391 137.842 110.416 137.273 110.416H137.272Z" fill="#F26561"/>
<path d="M146.474 90.3449L139.655 94.2819L132.836 98.2189V90.3449V82.4707L139.655 86.4077L146.474 90.3449Z" fill="white"/>
<path d="M123.094 115.201C126.252 119.347 121.565 124.035 117.419 120.876C114.261 116.73 118.948 112.043 123.094 115.201Z" fill="#455A64"/>
<path d="M175.299 116.378H99.2812V119.698H175.299V116.378Z" fill="#455A64"/>
<path d="M140.344 41.5398C146.577 35.307 146.577 25.2018 140.344 18.969C134.112 12.7362 124.006 12.7362 117.774 18.969C111.541 25.2017 111.541 35.307 117.774 41.5398C124.006 47.7725 134.112 47.7725 140.344 41.5398Z" fill="#FAA716"/>
<path d="M142.788 31.591C143.525 24.0096 137.976 17.2666 130.395 16.53C122.813 15.7934 116.07 21.3422 115.334 28.9236C114.597 36.505 120.146 43.248 127.727 43.9846C135.309 44.7212 142.052 39.1724 142.788 31.591Z" fill="#FFCE5C"/>
<path d="M125 24V25.1818H127.25C128.208 25.1818 129.466 25.7952 129.905 26.9545H125V28.1364H130.046C129.871 29.6786 128.36 30.5 127.25 30.5H125V31.9595L130.766 37H132.523L126.441 31.6818H127.25C129.069 31.6818 131.004 30.2695 131.171 28.1364H134V26.9545H131.082C130.912 26.2549 130.546 25.6569 130.062 25.1818H134V24H125Z" fill="#FAA716"/>
<path d="M215.873 113.427C223.828 113.427 230.277 106.978 230.277 99.0226C230.277 91.0675 223.828 84.6187 215.873 84.6187C207.918 84.6187 201.469 91.0675 201.469 99.0226C201.469 106.978 207.918 113.427 215.873 113.427Z" fill="#FAA716"/>
<path d="M224.674 107.825C229.535 102.964 229.535 95.0823 224.674 90.2214C219.813 85.3604 211.932 85.3604 207.071 90.2213C202.21 95.0823 202.21 102.964 207.071 107.825C211.932 112.686 219.813 112.686 224.674 107.825Z" fill="#FFCE5C"/>
<path d="M212 93V94.1818H214.25C215.208 94.1818 216.466 94.7952 216.905 95.9545H212V97.1364H217.046C216.871 98.6786 215.36 99.5 214.25 99.5H212V100.96L217.766 106H219.523L213.441 100.682H214.25C216.069 100.682 218.004 99.2695 218.171 97.1364H221V95.9545H218.082C217.912 95.2549 217.546 94.6569 217.062 94.1818H221V93H212Z" fill="#FAA716"/>
<path d="M195.665 76.3185C206.487 76.3185 215.26 67.5456 215.26 56.7237C215.26 45.9018 206.487 37.1289 195.665 37.1289C184.843 37.1289 176.07 45.9018 176.07 56.7237C176.07 67.5456 184.843 76.3185 195.665 76.3185Z" fill="#FAA716"/>
<path d="M195.664 73.6568C205.016 73.6568 212.597 66.0756 212.597 56.7237C212.597 47.3718 205.016 39.7905 195.664 39.7905C186.312 39.7905 178.73 47.3718 178.73 56.7237C178.73 66.0756 186.312 73.6568 195.664 73.6568Z" fill="#FFCE5C"/>
<path d="M188 46V48H192C193.704 48 195.94 49.038 196.72 51H188V53H196.97C196.66 55.61 193.974 57 192 57H188V59.47L198.25 68H201.375L190.562 59H192C195.234 59 198.674 56.61 198.97 53H204V51H198.812C198.51 49.816 197.86 48.804 197 48H204V46H188Z" fill="#FAA716"/>
<path d="M97.4512 158.557C104.596 151.412 104.596 139.828 97.4512 132.683C90.3064 125.538 78.7223 125.538 71.5775 132.683C64.4326 139.828 64.4327 151.412 71.5775 158.557C78.7223 165.702 90.3064 165.702 97.4512 158.557Z" fill="#FAA716"/>
<path d="M95.691 156.8C101.865 150.625 101.865 140.615 95.691 134.441C89.5167 128.266 79.5062 128.266 73.3319 134.441C67.1576 140.615 67.1576 150.625 73.3319 156.8C79.5062 162.974 89.5167 162.974 95.691 156.8Z" fill="#FFCE5C"/>
<path d="M77 135V137H81C82.704 137 84.94 138.038 85.72 140H77V142H85.97C85.66 144.61 82.974 146 81 146H77V148.47L87.25 157H90.375L79.562 148H81C84.234 148 87.674 145.61 87.97 142H93V140H87.812C87.51 138.816 86.86 137.804 86 137H93V135H77Z" fill="#FAA716"/>
<path d="M216.748 161.617C225.001 153.364 225.001 139.983 216.748 131.731C208.495 123.478 195.114 123.478 186.861 131.731C178.608 139.983 178.608 153.364 186.861 161.617C195.114 169.87 208.495 169.87 216.748 161.617Z" fill="#FAA716"/>
<path d="M201.809 164.936C211.895 164.936 220.072 156.76 220.072 146.674C220.072 136.588 211.895 128.411 201.809 128.411C191.723 128.411 183.547 136.588 183.547 146.674C183.547 156.76 191.723 164.936 201.809 164.936Z" fill="#FFCE5C"/>
<path d="M195 137V139H199C200.704 139 202.94 140.038 203.72 142H195V144H203.97C203.66 146.61 200.974 148 199 148H195V150.47L205.25 159H208.375L197.562 150H199C202.234 150 205.674 147.61 205.97 144H211V142H205.812C205.51 140.816 204.86 139.804 204 139H211V137H195Z" fill="#FAA716"/>
<path d="M62.501 119.788C62.501 119.788 61.5494 123.564 62.6018 124.284C62.8659 124.464 63.3917 124.632 64.2515 124.737C64.2515 124.737 61.7625 128.321 58.8033 128.163C54.5858 127.939 54.1797 124.268 54.1797 124.268C54.1797 124.268 54.5635 124.151 54.8487 122.973C55.2988 121.113 55.0403 119.543 55.0738 117.731C55.1262 114.896 62.1794 117.797 62.501 119.788Z" fill="#B27496"/>
<path d="M54.8613 116.25C54.6764 115.327 54.3784 114.799 54.1592 114.51C54.1592 114.51 53.8755 109.864 58.9096 109.145C61.337 108.798 63.7007 108.955 64.6241 111.031C65.0297 111.943 65.1734 113.955 65.0134 116.183C64.8854 117.964 64.2341 119.785 62.5335 119.919C58.4942 120.239 55.2121 118.001 54.8613 116.25Z" fill="#B27496"/>
<path d="M54.0598 117.993C54.6835 119.04 55.2455 120.437 56.3741 121.805C57.8458 123.588 60.3813 123.391 60.4343 123.385C60.4886 123.386 62.5007 123.379 63.8068 121.471C64.9183 119.847 65.0793 118.374 65.3255 117.109C65.5453 115.978 65.5385 114.886 65.6024 112.139C65.6159 111.557 65.5501 110.881 65.4974 110.164C65.3341 107.94 64.7377 106.544 63.0505 106.211C61.3642 105.877 59.8159 104.897 56.9406 105.855C53.8088 106.9 52.8426 108.628 52.8324 110.68C52.8269 111.79 52.8877 112.946 52.9395 113.72C52.9771 114.28 53.0101 114.641 53.0101 114.641C53.0311 114.637 53.7649 117.498 54.0598 117.993ZM59.4764 118.899C58.515 119.033 56.4294 118.14 55.7893 116.473C55.2705 115.122 55.6038 111.928 55.6038 111.928C55.6038 111.928 56.3411 112.494 59.1341 111.433C61.4266 110.562 63.465 109.082 64.3885 111.157C64.5265 111.468 64.6288 111.803 64.7047 112.138C64.8974 112.992 64.9565 115.39 64.9067 115.853C64.7142 117.628 64.5329 118.763 63.5633 118.716C62.7887 118.679 62.4248 118.28 61.6274 118.316C60.7463 118.355 60.2456 118.793 59.4764 118.899Z" fill="#212168"/>
<path d="M53.171 114.184C53.532 114.163 53.779 114.318 53.9789 114.594C54.3667 115.13 54.7173 117.155 54.4045 117.329C54.3032 117.385 54.1597 117.452 53.9383 117.428C53.3 117.359 52.7911 116.551 52.6752 115.784C52.5374 114.874 52.7086 114.211 53.171 114.184Z" fill="#B27496"/>
<path d="M45.018 168.515H70.5243C73.2198 177.82 76.2517 190.132 75.9534 202.936C75.6251 217.023 71.5351 231.222 66.8299 237.11C65.4128 236.742 62.2576 235.561 61.31 234.941C64.9207 219.925 64.6605 207.602 63.4509 200.84C61.2441 188.502 59.3994 186.234 57.6588 184.271C57.3403 183.912 56.7849 183.892 56.6742 184.419C55.048 192.179 50.805 215.438 49.5577 239.297C48.3956 240.602 46.4405 240.492 45.0265 239.297C40.8381 218.943 39.9004 187.501 42.6544 176.448C43.2582 174.027 44.1257 171.047 45.018 168.515Z" fill="#33464F"/>
<path d="M50.0964 243.585C50.53 242.691 50.1082 240.674 49.5629 239.297C48.3766 239.511 46.4234 239.493 45.0317 239.297C43.2402 240.983 42.3398 243.966 43.3757 244.344C46.7902 245.59 49.5844 244.641 50.0964 243.585Z" fill="#344AA5"/>
<path d="M71.3035 241.543C70.5976 240.415 68.7119 239.114 66.8324 237.11L61.3126 234.941C59.8961 237.195 59.7688 239.825 59.9864 239.91C63.4537 241.261 66.7601 243.333 69.8611 243.333C71.5838 243.333 71.6969 242.173 71.3035 241.543Z" fill="#344AA5"/>
<path d="M64.2641 124.737C58.7227 129.414 54.223 124.244 54.223 124.244C54.223 124.244 53.3482 124.235 52.518 124.235L47.793 171.392C53.5333 171.914 59.0836 173.668 67.4303 170.633C67.6324 170.56 70.3056 158.689 69.5983 147.18C68.7852 133.953 64.2641 124.737 64.2641 124.737Z" fill="white"/>
<path d="M55.5138 151.767C55.0811 141.129 53.0006 124.215 53.0006 124.215C51.3476 124.546 49.9141 124.782 47.2897 125.046L40.6172 135.726C41.2099 138.675 43.0877 153.335 42.4651 159.45C41.5488 168.44 40.6355 174.333 41.1334 174.48C44.8207 175.566 49.1659 176.047 52.494 176.28C54.0759 176.391 55.4241 175.147 55.4487 173.561C55.5392 167.751 55.7094 156.581 55.5138 151.767Z" fill="#F26561"/>
<path d="M72.6617 126.964C71.1069 124.766 64.2539 124.736 64.2539 124.736C64.2539 124.736 66.4216 136.649 67.0704 149.601C67.4988 158.155 65.2272 165.105 65.0943 172.909C65.0367 176.271 66.5043 176.445 67.5942 176.27C69.199 176.011 70.6539 175.682 71.4965 175.375C72.987 174.833 73.4274 174.453 73.2309 171.69C73.0253 168.789 72.7369 164.96 72.573 158.201C72.556 157.501 73.9795 128.826 72.6617 126.964Z" fill="#F26561"/>
<path d="M96.0971 109.001L92.5332 107.828C92.9843 106.895 92.6916 106.929 92.9857 106.316C93.4132 104.441 92.2426 102.931 92.4113 101.106C92.7534 97.4032 98.5064 100.127 98.5919 101.429C98.7132 103.276 97.6358 104.792 96.8114 106.355C96.6587 106.954 96.4124 107.869 96.0971 109.001Z" fill="#B27496"/>
<path d="M83.5253 122.849C81.004 124.445 75.445 125.972 67.3438 124.972L69.1251 141.182C78.7003 139.014 83.6854 135.411 89.6588 130.427C96.2186 124.954 96.9335 109.156 97.3092 107.849C97.5144 107.135 96.5018 107.662 94.4551 106.745C92.8914 106.044 92.7115 105.123 92.3711 105.7C91.6201 106.97 88.7274 119.556 83.5253 122.849Z" fill="#F26561"/>
<path d="M23.1109 100.697L26.8438 100.317C26.6037 99.3096 26.8822 99.4063 26.7267 98.7442C26.7125 96.8204 28.1802 95.5982 28.4079 93.7794C28.8698 90.0895 22.6657 91.5132 22.3024 92.7657C21.7868 94.5437 22.513 96.2554 22.9822 97.9593C23.0024 98.5774 23.0465 99.5236 23.1109 100.697Z" fill="#B27496"/>
<path d="M34.3919 119.779C36.434 121.574 41.0192 124.12 47.544 124.314C48.1776 124.332 52.3346 124.243 53.0042 124.214L46.2236 141.137C37.5784 137.271 32.2681 132.161 27.1483 126.303C21.5256 119.871 22.2487 101.563 22.0823 100.213C21.9159 98.8626 26.7538 97.489 27.296 98.8623C27.8387 100.235 29.7691 115.711 34.3919 119.779Z" fill="#F26561"/>
<defs>
<linearGradient id="paint0_linear_3523_11144" x1="196.644" y1="241.308" x2="76.0933" y2="32.5086" gradientUnits="userSpaceOnUse">
<stop offset="0.0556" stop-color="#D6E2FF"/>
<stop offset="1" stop-color="#F2F7FF"/>
</linearGradient>
</defs>
</svg>
