<svg width="268" height="291" viewBox="0 0 268 291" fill="none" xmlns="http://www.w3.org/2000/svg">
<path d="M173.06 290.766H84.8043C78.37 290.766 73.1055 285.501 73.1055 279.067V104.235C73.1055 97.8006 78.37 92.5361 84.8043 92.5361H173.06C179.494 92.5361 184.759 97.8006 184.759 104.235V279.067C184.759 285.501 179.494 290.766 173.06 290.766Z" fill="url(#paint0_linear_3523_8533)"/>
<path d="M159.035 144.031L178.243 103.027H138.849L124.289 128.24L159.035 144.031Z" fill="#455A64"/>
<path d="M181.716 260.029L123.486 233.565L101.605 280.276H181.716V260.029Z" fill="#455A64"/>
<path d="M76.1406 212.046V212.648L117.589 231.448L94.7204 280.275H95.2139L118.217 231.169L76.1406 212.046Z" fill="#00A651"/>
<path d="M76.1406 113.134V199.953L115.854 131.183L76.1406 113.134Z" fill="#455A64"/>
<path d="M132.113 103.027H76.1406V106.298L118.953 125.815L132.113 103.027Z" fill="url(#paint1_linear_3523_8533)"/>
<path d="M138.361 188.168L156.419 149.618L145.773 144.779L124.48 181.651L138.361 188.168Z" fill="#25BAFF"/>
<path d="M101.406 216.753L122.1 180.917L122.226 180.592L122.275 180.615L143.552 143.77L121.189 133.606L79.043 206.589L101.406 216.753Z" fill="#25BAFF"/>
<path d="M123.771 182.883L103.629 217.762L120.837 225.583L137.762 189.451L123.771 182.883Z" fill="#25BAFF"/>
<path d="M181.721 109.254L164.309 146.427L181.721 154.34V109.254Z" fill="url(#paint2_linear_3523_8533)"/>
<path d="M181.719 253.253L126.105 227.978L161.689 152.014L181.719 161.117V154.341L164.306 146.428L181.719 109.255V103.027H178.242L159.034 144.031L124.288 128.24H124.288L138.848 103.027H132.113L118.953 125.815L76.1408 106.298V113.134L115.854 131.183L76.1406 199.953V212.047L95.2139 280.276H101.608L123.489 233.565L181.719 260.028V253.253ZM156.417 149.618L138.36 188.168L124.479 181.651L145.772 144.78L156.417 149.618ZM101.406 216.754L79.0429 206.59L121.189 133.607L143.551 143.771L122.274 180.616L122.226 180.593L122.1 180.918L101.406 216.754ZM120.833 225.583L103.626 217.763L123.768 182.883L137.759 189.451L120.833 225.583Z" fill="url(#paint3_linear_3523_8533)"/>
<path d="M181.715 161.117L161.685 152.014L126.102 227.978L181.715 253.253V161.117Z" fill="#25BAFF"/>
<path d="M76.1406 212.648V223.773V280.275H92.4278H94.7204L117.589 231.449L76.1406 212.648Z" fill="#25BAFF"/>
<path d="M141.105 99.1174H116.755C116.387 99.1174 116.086 98.8162 116.086 98.4484C116.086 98.0803 116.387 97.7793 116.755 97.7793H141.105C141.473 97.7793 141.774 98.0805 141.774 98.4484C141.774 98.8162 141.473 99.1174 141.105 99.1174Z" fill="url(#paint4_linear_3523_8533)"/>
<path d="M54.6067 184.825L51.0469 181.11L73.2229 159.864L76.7823 163.579L54.6067 184.825Z" fill="url(#paint5_linear_3523_8533)"/>
<path opacity="0.27" d="M73.0057 132.202C66.2655 143.265 69.7722 157.7 80.8378 164.44C91.9017 171.179 106.334 167.672 113.075 156.609C119.815 145.543 116.31 131.111 105.244 124.37C94.1789 117.63 79.7446 121.135 73.0057 132.202Z" fill="#BFE7FB"/>
<path opacity="0.49" d="M106.676 138.558C103.535 130.359 96.1469 125.267 88.8711 125.63C97.2188 122.872 106.775 128.216 110.467 137.851C114.253 147.73 110.436 158.377 101.943 161.632C100.498 162.186 99.0085 162.489 97.5153 162.564C97.7284 162.493 97.9397 162.419 98.1521 162.338C106.646 159.083 110.461 148.437 106.676 138.558Z" fill="white"/>
<path d="M111.018 127.175C101.503 117.244 85.7389 116.907 75.8083 126.422C65.8765 135.938 65.5387 151.702 75.0545 161.633C84.5691 171.564 100.334 171.902 110.265 162.387C120.196 152.871 120.534 137.107 111.018 127.175ZM77.2205 159.556C68.8527 150.822 69.1491 136.957 77.8838 128.589C86.6184 120.22 100.483 120.517 108.852 129.251C117.22 137.986 116.923 151.851 108.189 160.219C99.4544 168.588 85.5898 168.291 77.2205 159.556Z" fill="#2F5B91"/>
<path d="M76.5583 164.862L71.9274 160.03C71.5279 159.612 71.5417 158.949 71.9595 158.549C72.3764 158.15 73.0389 158.164 73.4391 158.581L78.0695 163.414C78.4697 163.832 78.4555 164.494 78.0375 164.894C77.6212 165.295 76.9585 165.28 76.5583 164.862Z" fill="url(#paint6_linear_3523_8533)"/>
<path d="M54.4648 177.259C54.4648 177.259 59.6957 170.784 62.8099 173.168C67.476 176.738 56.6334 180.501 56.6334 180.501L54.4648 177.259Z" fill="url(#paint7_linear_3523_8533)"/>
<path d="M35.3672 277.59L36.748 285.547C36.748 285.547 35.3604 287.099 37.0809 288.251C38.8014 289.404 42.5433 287.756 43.3408 287.369C45.0036 286.564 39.6038 285.843 39.6038 285.843L38.3474 275.974L35.3672 277.59Z" fill="url(#paint8_linear_3523_8533)"/>
<path d="M20.1594 276.781L20.2143 284.452C20.2143 284.452 18.8192 285.886 20.4252 287.062C22.0309 288.238 25.6908 286.806 26.4722 286.467C28.1014 285.761 22.9449 284.851 22.9449 284.851L22.8357 275.362L20.1594 276.781Z" fill="url(#paint9_linear_3523_8533)"/>
<path d="M39.7612 285.411C39.7612 285.411 47.1983 286.46 47.7406 288.019C48.6074 290.512 37.6708 290.516 36.2301 289.219C34.8472 287.974 36.299 285.989 36.299 285.989C36.299 285.989 37.3169 286.361 39.7612 285.411Z" fill="#25BAFF"/>
<path d="M40.5182 285.586C40.5182 285.586 40.1028 285.758 39.9062 286.499C39.927 286.983 41.5167 285.293 40.5182 285.586Z" fill="#E9E9EA"/>
<path d="M41.9995 285.865C41.9995 285.865 41.6447 286.118 41.4531 286.858C41.4759 287.341 42.9899 285.576 41.9995 285.865Z" fill="#E9E9EA"/>
<path d="M43.4193 286.12C43.4193 286.12 43.1778 286.287 43.0234 286.941C43.0512 287.372 44.2737 285.879 43.4193 286.12Z" fill="#E9E9EA"/>
<path d="M23.394 284.198C23.394 284.198 30.8311 285.247 31.3734 286.807C32.2405 289.299 21.3036 289.303 19.8629 288.006C18.48 286.761 19.9318 284.776 19.9318 284.776C19.9318 284.776 20.9495 285.148 23.394 284.198Z" fill="#25BAFF"/>
<path d="M24.1549 284.373C24.1549 284.373 23.7398 284.546 23.543 285.286C23.564 285.77 25.1536 284.08 24.1549 284.373Z" fill="#E9E9EA"/>
<path d="M25.6362 284.652C25.6362 284.652 25.2815 284.905 25.0898 285.645C25.1127 286.128 26.6266 284.363 25.6362 284.652Z" fill="#E9E9EA"/>
<path d="M27.056 284.907C27.056 284.907 26.8145 285.074 26.6602 285.728C26.6879 286.159 27.9104 284.666 27.056 284.907Z" fill="#E9E9EA"/>
<path d="M6.7632 191.773L13.4113 195.06C13.4113 195.06 14.6778 194.226 15.3652 193.806C15.6939 193.606 16.2159 193.651 17.2411 193.796C18.6701 193.998 19.8501 194.518 19.5688 195.934C19.4402 196.581 18.781 198.226 18.1669 198.918C17.0246 200.205 14.9347 199.891 13.9687 199.655C13.6449 199.577 13.3507 199.407 13.1139 199.173L12.5596 198.624L5.87109 193.944L6.7632 191.773Z" fill="url(#paint10_linear_3523_8533)"/>
<path d="M18.1445 174.496C12.2369 176.59 9.52671 181.266 8.87775 183.003C8.56953 183.828 7.65167 191.3 14.3031 194.262C14.365 194.289 13.0084 199.659 13.0084 199.659C13.0084 199.659 0.169355 194.881 0.00123825 182.605C-0.182244 169.213 20.0864 157.381 20.0864 157.381C20.0864 157.381 18.7765 174.272 18.1445 174.496Z" fill="url(#paint11_linear_3523_8533)"/>
<path d="M31.2812 157.527C31.2812 157.527 32.656 158.031 33.4026 158.689C34.3345 159.51 34.1691 160.592 34.3623 161.795C36.0292 164.447 41.9542 192.635 42.1282 192.615C42.3021 192.594 39.8204 198.476 39.8204 198.476L31.2812 157.527Z" fill="#25BAFF"/>
<path d="M20.4817 159.005C20.5981 158.732 21.9826 155.24 22.9298 152.17C21.1205 148.031 22.2585 141.655 23.7308 139.934C25.0787 138.36 26.4392 137.768 29.2859 138.969C32.7183 140.416 34.1787 143.749 33.6425 147.647C33.3185 150.004 32.9235 154.988 29.2807 154.19C29.7245 158.498 32.4232 160.34 32.9822 161.604C34.3475 164.69 21.3121 168.536 17.9844 163.707C17.9844 163.707 19.2861 161.817 20.4817 159.005Z" fill="url(#paint12_linear_3523_8533)"/>
<path d="M35.9229 208.103C35.9179 207.385 33.8445 206.803 33.8445 206.803C32.309 204.181 30.4943 194.814 28.1857 195.113C12.2392 197.178 18.1617 216.165 18.1414 216.528C16.2801 249.809 19.0077 282.034 19.0077 282.034C19.0077 282.034 20.4724 282.741 24.0083 282.388C28.2679 245.897 35.9699 214.557 35.9229 208.103Z" fill="url(#paint13_linear_3523_8533)"/>
<path d="M40.3712 282.337C37.5496 247.577 41.1101 206.762 39.2531 198.751C38.274 194.531 34.0555 192.331 34.0555 192.331C30.6699 190.143 22.6446 182.933 19.3062 201.939C17.5731 210.107 23.8558 219.046 23.8955 219.303C31.4309 268.018 34.4363 280.023 35.5222 283.044C36.436 283.164 37.9466 283.297 40.3712 282.337Z" fill="#25BAFF"/>
<path d="M21.0225 156.397C21.0225 156.397 14.4646 162.118 13.8728 173.214C13.0616 188.43 13.908 195.743 16.9156 203.948C16.8638 207.106 39.1056 204.697 39.995 203.466C40.98 202.102 39.8273 199.029 38.606 186.772C36.9126 169.78 33.196 159.354 30.9285 157.426C30.684 157.218 23.6534 157.42 21.0225 156.397Z" fill="url(#paint14_linear_3523_8533)"/>
<path d="M33.7565 137.951C33.8146 137.396 33.8237 136.853 33.8065 136.356C33.7719 135.335 33.0172 134.564 32.1294 134.699C30.9119 134.883 28.9038 135.139 26.6828 134.315C22.7002 132.839 19.2601 135.8 18.2941 140.094C16.9903 145.89 20.5189 147.993 22.3981 151.413C23.3525 153.149 25.2291 152.319 25.3204 150.53C25.461 147.769 24.4188 145.448 29.8045 143.256C31.8942 142.406 33.4721 140.7 33.7565 137.951Z" fill="#455A64"/>
<path d="M28.6496 144.127C28.6496 144.127 27.851 141.89 26.4555 143.588C25.7349 144.465 26.8893 146.672 26.8893 146.672L28.6496 144.127Z" fill="url(#paint15_linear_3523_8533)"/>
<path d="M30.5237 156.871C30.5237 156.871 25.2707 158.007 21.4533 155.405C21.4259 155.173 19.5744 156.764 19.6383 157.306C19.7023 157.847 23.8058 162.932 33.5037 160.558C33.6885 160.457 31.2974 156.779 30.5237 156.871Z" fill="url(#paint16_linear_3523_8533)"/>
<path d="M25.0501 162.699C23.3143 164.017 22.414 166.161 22.4843 168.339C22.6459 173.336 25.3106 184.693 28.8043 188.186C33.2548 192.637 46.085 191.25 56.9889 181.014C57.8789 180.568 55.7379 178.064 54.5256 176.834C54.0098 177.056 40.3894 182.707 36.6818 180.147C34.8655 178.892 35.8927 170.707 33.6532 164.851C32.6321 162.179 28.4355 160.128 25.0501 162.699Z" fill="url(#paint17_linear_3523_8533)"/>
<path d="M205.386 29.4596C205.149 29.3871 203.122 28.8583 203.122 28.8583C203.122 28.8583 203.485 26.6511 202.608 26.5571C202.415 26.5363 202.242 26.6835 202.201 26.8737C202.076 27.4538 201.787 28.8272 201.799 29.1315C201.814 29.52 201.815 29.7828 201.772 30.1176C201.771 30.1262 201.643 30.2772 201.446 30.5061C201.399 30.5603 191.876 41.5337 172.833 45.7095C172.499 46.0413 169.391 53.1268 171.386 53.8015C171.386 53.8015 196.382 45.9798 203.512 31.7877C204.723 31.926 205.545 29.5082 205.386 29.4596Z" fill="url(#paint18_linear_3523_8533)"/>
<path d="M160.88 23.7251C160.88 23.7251 153.139 21.5771 151.015 28.8947C148.892 36.212 147.324 42.5765 153.326 42.673C160.084 42.7817 164.276 42.203 167.512 37.7133C170.747 33.2234 165.354 23.5583 160.88 23.7251Z" fill="#455A64"/>
<path d="M139.145 67.6312C139.145 67.6312 146.001 70.8708 152.646 60.3873C153.076 57.8551 149.56 53.0478 149.116 53.2095C148.672 53.3713 139.145 67.6312 139.145 67.6312Z" fill="url(#paint19_linear_3523_8533)"/>
<path d="M159.062 45.0801C159.062 45.0801 157.294 44.9997 156.088 46.8487C154.882 48.6978 149.174 54.5667 149.174 54.5667C149.174 54.5667 148.933 60.9179 151.586 63.4102C152.711 64.3749 159.062 45.0801 159.062 45.0801Z" fill="url(#paint20_linear_3523_8533)"/>
<path d="M155.506 40.8287C155.332 40.7996 152.813 40.7544 150.728 44.1029C147.395 47.1367 138.662 56.8423 138.466 65.9479C138.421 68.053 139.561 68.2769 141.858 67.6309C145.639 66.5675 148.141 60.1632 152.229 48.3962C152.601 47.5321 152.971 45.9911 153.545 45.4876C155.24 43.9996 154.945 43.338 155.555 42.408C157.039 40.1465 155.69 40.8594 155.506 40.8287Z" fill="url(#paint21_linear_3523_8533)"/>
<path d="M156.059 34.874L149.312 41.9272C149.242 42.0007 149.223 42.1089 149.263 42.202L150.971 46.141C151.045 46.3116 151.272 46.3464 151.394 46.2054L157.332 39.3248C157.384 39.2647 157.405 39.1836 157.388 39.1058L156.488 34.9942C156.445 34.7972 156.199 34.728 156.059 34.874Z" fill="#25BAFF"/>
<path d="M156.05 35.2889L150.095 41.499C150.046 41.5497 150.033 41.6247 150.062 41.6886L151.591 45.0864C151.642 45.2003 151.794 45.2234 151.876 45.1296L157.036 39.2871C157.072 39.2471 157.086 39.1929 157.076 39.1404L156.342 35.375C156.316 35.2383 156.146 35.1883 156.05 35.2889Z" fill="url(#paint22_linear_3523_8533)"/>
<path d="M154.954 37.4646C154.803 37.2913 154.2 37.0454 153.321 37.0712C152.441 37.0972 151.714 37.917 151.195 38.5246C150.5 39.3394 150.521 40.4704 150.583 40.5576C150.627 40.6191 151.861 39.2678 151.861 39.2678C151.861 39.2678 151.626 39.2201 152.72 39.5141C153.379 39.6917 155.491 38.0808 154.954 37.4646Z" fill="url(#paint23_linear_3523_8533)"/>
<path d="M158.963 37.5159C158.963 37.5159 159.765 40.972 159.452 43.1887C159.22 44.8383 158.538 45.5846 156.888 47.4913C153.27 51.6718 161.39 53.2866 164.319 52.1452C169.789 50.013 168.385 46.1244 168.385 46.1244C168.385 46.1244 165.089 44.5969 164.285 43.2303C163.543 41.969 163.586 39.7717 163.358 38.3414C162.788 34.7782 158.963 37.5159 158.963 37.5159Z" fill="url(#paint24_linear_3523_8533)"/>
<path d="M156.778 39.1415C159.541 44.465 164.198 42.7969 165.208 38.7854C165.37 38.2128 165.485 37.67 165.567 37.1498C165.843 37.2603 166.225 36.6952 166.377 36.3409C166.525 35.997 167.424 33.4533 165.777 33.7642C165.701 33.7785 165.619 33.6171 165.566 33.6567C164.86 29.3846 161.347 27.9362 161.014 27.7448C156.129 24.9395 154.111 34.0031 156.778 39.1415Z" fill="url(#paint25_linear_3523_8533)"/>
<path d="M111.831 105.678L104.918 113.314C104.918 113.314 105.052 115.312 103.065 115.168C101.078 115.023 98.4972 111.71 98.121 110.944C97.3369 109.349 103.036 111.561 103.036 111.561L109.238 103.086L111.831 105.678Z" fill="url(#paint26_linear_3523_8533)"/>
<path d="M102.979 111.381C102.979 111.381 98.4095 108.685 97.3694 109.338C95.707 110.382 102.048 115.441 103.488 115.371C104.946 115.3 105.06 113.41 105.06 113.41C105.06 113.41 103.338 113.353 102.979 111.381Z" fill="#25BAFF"/>
<path d="M102.704 111.422C102.704 111.422 102.803 112.12 102.573 112.64C102.335 112.911 102.261 110.788 102.704 111.422Z" fill="#E9E9EA"/>
<path d="M101.644 110.92C101.644 110.92 101.74 111.612 101.507 112.13C101.269 112.4 101.204 110.294 101.644 110.92Z" fill="#E9E9EA"/>
<path d="M100.691 110.4C100.691 110.4 100.767 110.997 100.552 111.448C100.336 111.685 100.307 109.864 100.691 110.4Z" fill="#E9E9EA"/>
<path d="M143.314 116.235L146.676 123.138C146.676 123.138 148.565 123.803 147.648 125.572C146.731 127.341 142.669 128.406 141.817 128.449C140.042 128.541 144.323 124.176 144.323 124.176L139.32 115.688L143.314 116.235Z" fill="url(#paint27_linear_3523_8533)"/>
<path d="M144.134 124.159C144.134 124.159 139.856 127.295 140.045 128.508C140.348 130.447 147.499 126.616 148.002 125.265C148.512 123.896 146.82 123.046 146.82 123.046C146.82 123.046 146.088 124.606 144.134 124.159Z" fill="#25BAFF"/>
<path d="M144.064 124.428C144.064 124.428 144.744 124.612 145.131 125.029C145.287 125.354 143.307 124.585 144.064 124.428Z" fill="#E9E9EA"/>
<path d="M143.187 125.205C143.187 125.205 143.861 125.389 144.245 125.807C144.399 126.133 142.437 125.362 143.187 125.205Z" fill="#E9E9EA"/>
<path d="M142.335 125.872C142.335 125.872 142.914 126.037 143.243 126.413C143.375 126.705 141.691 126.013 142.335 125.872Z" fill="#E9E9EA"/>
<path d="M158.288 74.0957C158.288 74.0957 126.664 78.3637 123.161 79.8092C120.672 80.8366 118.763 83.7662 118.421 84.5632C118.079 85.3602 107.008 105.557 107.008 105.557C107.008 105.557 108.214 107.487 110.204 108.572C111.478 108.485 127.053 95.9845 128.313 89.4983C130.413 88.8863 159.427 92.0487 162.375 87.2757C165.324 82.5029 158.288 74.0957 158.288 74.0957Z" fill="#25BAFF"/>
<path d="M169.27 82.2227C169.27 82.2227 174.852 97.6185 137.353 94.6037C136.711 94.8789 141.313 96.9955 144.81 117.376C143.346 118.748 142.196 119.235 140.71 119.305C140.71 119.305 127.016 102.208 123.963 93.148C123.167 90.7863 125.27 86.5407 125.916 85.8097C129.04 82.2747 157.533 77.0034 159.136 77.2043C160.739 77.4052 169.27 82.2227 169.27 82.2227Z" fill="#25BAFF"/>
<path d="M165 43.6623C165 43.6623 169.941 42.2627 171.46 45.1876C172.481 47.1519 174.563 53.5213 174.734 60.7255C174.615 74.9576 171.342 87.2054 167.503 89.8594C165.896 91.1532 154.792 92.7888 152.389 83.0258C150.883 76.9092 148.016 74.6808 148.208 74.5843C149.448 73.9608 151.876 72.6995 151.127 60.1362C150.879 55.98 155.118 49.4183 158.379 45.1998C158.374 45.7803 163.433 47.2633 165 43.6623Z" fill="url(#paint28_linear_3523_8533)"/>
<path d="M161.701 28.7431C161.701 28.7431 162.107 31.8736 158.17 34.0957C156.086 35.2725 156.568 38.84 156.568 38.84C156.568 38.84 151.209 33.6533 153.634 28.4792C156.058 23.3048 160.766 22.0191 164.583 25.8535C168.4 29.6878 166.538 33.5324 166.538 33.5324L165.51 33.8957C165.51 33.8957 161.692 32.5689 161.701 28.7431Z" fill="#455A64"/>
<path d="M174.049 54.0747C174.049 54.0747 168.572 43.5245 169.747 43.6086C172.245 43.7871 182.674 42.5728 182.674 42.5728C182.674 42.5728 184.011 44.6631 185.043 48.9216C184.245 49.6741 175.1 54.7666 174.049 54.0747Z" fill="url(#paint29_linear_3523_8533)"/>
<path d="M224.108 149.651C224.671 148.733 225.274 148.011 225.891 147.426C227.186 146.199 228.545 145.627 229.753 145.398C232.596 144.653 235.203 145.736 236.869 147.55C237.783 148.401 238.633 149.602 239.225 151.346C240.803 156 240.152 166.242 234.115 168.702C233.8 168.83 233.475 168.943 233.13 169.027C226.026 170.759 219.264 169.386 212.992 161.845C219.021 160.749 224.108 149.651 224.108 149.651Z" fill="url(#paint30_linear_3523_8533)"/>
<path d="M211.77 286.812C211.331 285.928 210.371 249.504 210.581 247.376C210.89 244.251 223.616 205.887 223.616 205.887C223.616 205.887 224.467 203.565 226.11 200.97C229.244 196.02 235.259 190.077 243.742 197.354C254.168 206.299 233.834 233.687 219.803 249.864C221.842 261.097 214.519 288.223 213.99 289.015C213.664 289.503 211.532 289.453 207.682 288.829C205.476 288.472 207.72 287.459 211.77 286.812Z" fill="url(#paint31_linear_3523_8533)"/>
<path d="M264.098 285.195C263.244 284.701 242.121 254.947 241.12 253.057C239.651 250.282 229.06 211.274 229.06 211.274C229.06 211.274 228.486 208.869 228.422 205.798C228.299 199.941 228.62 197.191 239.711 198.57C253.344 200.264 252.937 228.8 250.18 250.036C258.088 258.271 267.364 285.522 267.36 286.474C267.358 287.062 265.162 287.602 261.608 289.21C259.573 290.131 261.08 287.972 264.098 285.195Z" fill="url(#paint32_linear_3523_8533)"/>
<path d="M243.571 196.321C241.713 195.524 232.618 194.841 228.247 197.438C225.144 197.285 224.945 198.18 224.945 198.18C224.945 198.18 212.747 226.923 209.852 241.957C219.431 245.986 240.114 248.847 254.998 248.05C255.005 248.049 255.012 248.055 255.019 248.053C255.52 247.892 257.607 202.382 243.571 196.321Z" fill="#25BAFF"/>
<path d="M212.03 140.351C212.03 140.351 214.701 137.374 215.812 138.496C216.865 139.558 214.828 141.054 213.505 141.96C212.054 145.293 206.214 157.15 214.049 163.006C221.968 168.925 225.511 167.444 225.892 168.474C227.548 172.938 225.617 177.519 220.92 176.784C216.223 176.049 189.608 161.545 212.03 140.351Z" fill="url(#paint33_linear_3523_8533)"/>
<path d="M214.137 162.368C214.137 162.368 219.058 166.163 225.894 167.024C226.085 167.802 222.416 179.755 222.416 179.755C222.416 179.755 214.159 175.383 211.58 172.368C211.446 172.249 211.692 165.878 214.137 162.368Z" fill="url(#paint34_linear_3523_8533)"/>
<path d="M249.642 138.975C249.642 138.975 246.648 136.323 245.672 137.564C244.748 138.74 246.943 139.993 248.361 140.741C250.184 143.887 257.343 154.997 250.231 161.711C243.042 168.498 239.353 167.433 239.092 168.5C237.959 173.123 240.402 177.454 244.983 176.186C249.565 174.917 274.344 157.461 249.642 138.975Z" fill="url(#paint35_linear_3523_8533)"/>
<path d="M250.069 161.087C250.069 161.087 245.615 165.421 238.923 167.059C238.822 167.853 244.466 179.191 244.466 179.191C244.466 179.191 251.539 174.019 253.755 170.728C253.874 170.595 252.901 164.294 250.069 161.087Z" fill="url(#paint36_linear_3523_8533)"/>
<path d="M231.342 158.531L233.422 166.693C233.422 166.693 233.08 173.066 230.775 173.414C227.803 173.863 228.46 159.102 228.46 159.102L231.342 158.531Z" fill="url(#paint37_linear_3523_8533)"/>
<path d="M243.517 169.444C243.517 169.444 241.155 166.571 236.895 165.83C236.036 165.68 233.415 165.141 233.066 166.235C229.629 177.006 228.606 165.756 228.487 165.671C226.966 164.598 224.606 166.645 224.36 167.348C221.558 175.339 220.746 177.201 224.04 183.392C228.212 190.776 223.833 200.434 223.833 200.434C223.833 200.434 240.601 208.54 250.283 197.851C248.101 197.194 246.432 195.311 244.048 191.689C241.665 188.067 246.622 179.042 243.517 169.444Z" fill="url(#paint38_linear_3523_8533)"/>
<path d="M224.74 156.06C225.811 153.878 230.362 148.731 234.856 156.206C235.171 156.832 235.487 157.698 235.353 159.246C234.035 162.24 231.78 164.534 228.374 162.902C225.419 161.487 224.631 158.779 224.74 156.06Z" fill="url(#paint39_linear_3523_8533)"/>
<path d="M263.542 284.786C263.542 284.786 256.515 287.084 256.258 288.688C255.847 291.253 266.447 289.372 267.62 287.867C268.746 286.423 266.997 284.749 266.997 284.749C266.997 284.749 265.823 286.149 263.542 284.786Z" fill="#25BAFF"/>
<path d="M262.994 285.199C262.994 285.199 263.777 285.71 264.095 286.393C264.158 286.866 261.976 285.087 262.994 285.199Z" fill="#E9E9EA"/>
<path d="M261.57 285.816C261.57 285.816 262.345 286.324 262.658 287.007C262.719 287.48 260.56 285.707 261.57 285.816Z" fill="#E9E9EA"/>
<path d="M260.222 286.307C260.222 286.307 260.884 286.753 261.146 287.36C261.194 287.782 259.352 286.221 260.222 286.307Z" fill="#E9E9EA"/>
<path d="M211.557 285.379C211.557 285.379 204.226 286.334 203.676 287.863C202.797 290.308 213.562 290.425 214.993 289.163C216.368 287.952 214.959 285.983 214.959 285.983C214.959 285.983 213.546 287.142 211.557 285.379Z" fill="#25BAFF"/>
<path d="M210.942 285.685C210.942 285.685 211.617 286.331 211.803 287.062C211.777 287.539 209.963 285.385 210.942 285.685Z" fill="#E9E9EA"/>
<path d="M209.425 286.027C209.425 286.027 210.092 286.67 210.273 287.399C210.245 287.875 208.453 285.732 209.425 286.027Z" fill="#E9E9EA"/>
<path d="M208.014 286.26C208.014 286.26 208.582 286.821 208.727 287.466C208.696 287.89 207.175 286.013 208.014 286.26Z" fill="#E9E9EA"/>
<path d="M214.092 10.1805C214.092 4.55813 209.534 0 203.911 0C198.289 0 193.73 4.55813 193.73 10.1805C193.73 12.7814 196.114 16.9463 196.114 16.9463L200.013 23.6986L203.911 30.451L207.81 23.6986L211.709 16.9463C211.709 16.9463 214.092 12.7814 214.092 10.1805Z" fill="url(#paint40_linear_3523_8533)"/>
<path d="M203.914 16.0949C207.18 16.0949 209.828 13.4472 209.828 10.181C209.828 6.91483 207.18 4.26709 203.914 4.26709C200.648 4.26709 198 6.91483 198 10.181C198 13.4472 200.648 16.0949 203.914 16.0949Z" fill="url(#paint41_linear_3523_8533)"/>
<path d="M205.263 30.3755L205.221 30.5646C205.192 30.6948 205.062 30.7777 204.932 30.7488L203.26 30.3778C203.13 30.3488 203.047 30.2187 203.076 30.0885L203.118 29.8994C203.147 29.7692 203.277 29.6863 203.407 29.7152L205.079 30.0863C205.209 30.1152 205.292 30.2453 205.263 30.3755Z" fill="url(#paint42_linear_3523_8533)"/>
<path d="M205.41 29.7133L205.368 29.9025C205.339 30.0326 205.209 30.1156 205.079 30.0866L203.295 29.6907C203.165 29.6618 203.082 29.5317 203.111 29.4015L203.153 29.2124C203.182 29.0822 203.312 28.9993 203.442 29.0282L205.226 29.4241C205.356 29.4528 205.439 29.583 205.41 29.7133Z" fill="url(#paint43_linear_3523_8533)"/>
<path d="M205.556 29.0508L205.514 29.2399C205.485 29.3701 205.355 29.453 205.225 29.4241L203.553 29.053C203.423 29.0241 203.34 28.894 203.369 28.7638L203.411 28.5747C203.44 28.4445 203.57 28.3616 203.7 28.3905L205.372 28.7616C205.502 28.7905 205.585 28.9206 205.556 29.0508Z" fill="url(#paint44_linear_3523_8533)"/>
<path d="M205.704 28.3885L205.662 28.5776C205.633 28.7078 205.503 28.7907 205.373 28.7618L203.87 28.428C203.739 28.3991 203.657 28.269 203.685 28.1388L203.727 27.9497C203.756 27.8195 203.887 27.7366 204.017 27.7655L205.52 28.0993C205.65 28.1282 205.733 28.2583 205.704 28.3885Z" fill="url(#paint45_linear_3523_8533)"/>
<rect width="68.2496" height="18.241" transform="translate(193.355 120.928)" fill="#25BAFF"/>
<path d="M200.18 127.322H201.332V130.947C201.332 131.421 201.29 131.785 201.207 132.041C201.095 132.374 200.892 132.642 200.598 132.845C200.303 133.046 199.915 133.146 199.434 133.146C198.868 133.146 198.434 132.988 198.129 132.673C197.824 132.356 197.671 131.891 197.668 131.279L198.758 131.154C198.771 131.482 198.819 131.714 198.902 131.849C199.027 132.055 199.217 132.158 199.473 132.158C199.73 132.158 199.913 132.085 200.02 131.939C200.126 131.791 200.18 131.485 200.18 131.021V127.322ZM202.332 130.22C202.332 129.637 202.419 129.147 202.594 128.751C202.724 128.46 202.901 128.198 203.125 127.966C203.352 127.735 203.599 127.563 203.867 127.451C204.224 127.3 204.635 127.224 205.102 127.224C205.945 127.224 206.62 127.486 207.125 128.009C207.633 128.533 207.887 129.261 207.887 130.193C207.887 131.117 207.635 131.841 207.133 132.365C206.63 132.886 205.958 133.146 205.117 133.146C204.266 133.146 203.589 132.887 203.086 132.369C202.583 131.848 202.332 131.132 202.332 130.22ZM203.523 130.181C203.523 130.83 203.673 131.322 203.973 131.658C204.272 131.991 204.652 132.158 205.113 132.158C205.574 132.158 205.952 131.992 206.246 131.662C206.543 131.328 206.691 130.83 206.691 130.166C206.691 129.509 206.547 129.02 206.258 128.697C205.971 128.374 205.59 128.212 205.113 128.212C204.637 128.212 204.253 128.376 203.961 128.705C203.669 129.03 203.523 129.522 203.523 130.181ZM208.797 127.322H211.086C211.539 127.322 211.876 127.341 212.098 127.38C212.322 127.417 212.521 127.495 212.695 127.615C212.872 127.735 213.02 127.895 213.137 128.095C213.254 128.293 213.312 128.516 213.312 128.763C213.312 129.031 213.24 129.278 213.094 129.501C212.951 129.725 212.755 129.893 212.508 130.005C212.857 130.107 213.125 130.28 213.312 130.525C213.5 130.77 213.594 131.057 213.594 131.388C213.594 131.649 213.533 131.903 213.41 132.15C213.29 132.395 213.125 132.591 212.914 132.74C212.706 132.886 212.448 132.975 212.141 133.009C211.948 133.03 211.483 133.043 210.746 133.048H208.797V127.322ZM209.953 128.275V129.599H210.711C211.161 129.599 211.441 129.593 211.551 129.58C211.749 129.556 211.904 129.488 212.016 129.376C212.13 129.262 212.188 129.112 212.188 128.927C212.188 128.75 212.138 128.607 212.039 128.498C211.943 128.386 211.798 128.318 211.605 128.294C211.491 128.281 211.161 128.275 210.617 128.275H209.953ZM209.953 130.552V132.083H211.023C211.44 132.083 211.704 132.072 211.816 132.048C211.988 132.017 212.128 131.942 212.234 131.822C212.344 131.699 212.398 131.537 212.398 131.333C212.398 131.162 212.357 131.016 212.273 130.896C212.19 130.776 212.069 130.689 211.91 130.634C211.754 130.58 211.413 130.552 210.887 130.552H209.953ZM216.832 133.048V127.369H217.988V132.083H220.863V133.048H216.832ZM221.457 130.22C221.457 129.637 221.544 129.147 221.719 128.751C221.849 128.46 222.026 128.198 222.25 127.966C222.477 127.735 222.724 127.563 222.992 127.451C223.349 127.3 223.76 127.224 224.227 127.224C225.07 127.224 225.745 127.486 226.25 128.009C226.758 128.533 227.012 129.261 227.012 130.193C227.012 131.117 226.76 131.841 226.258 132.365C225.755 132.886 225.083 133.146 224.242 133.146C223.391 133.146 222.714 132.887 222.211 132.369C221.708 131.848 221.457 131.132 221.457 130.22ZM222.648 130.181C222.648 130.83 222.798 131.322 223.098 131.658C223.397 131.991 223.777 132.158 224.238 132.158C224.699 132.158 225.077 131.992 225.371 131.662C225.668 131.328 225.816 130.83 225.816 130.166C225.816 129.509 225.672 129.02 225.383 128.697C225.096 128.374 224.715 128.212 224.238 128.212C223.762 128.212 223.378 128.376 223.086 128.705C222.794 129.03 222.648 129.522 222.648 130.181ZM231.582 130.943L232.703 131.298C232.531 131.923 232.245 132.388 231.844 132.693C231.445 132.995 230.939 133.146 230.324 133.146C229.564 133.146 228.939 132.887 228.449 132.369C227.96 131.848 227.715 131.137 227.715 130.236C227.715 129.283 227.961 128.543 228.453 128.017C228.945 127.488 229.592 127.224 230.395 127.224C231.095 127.224 231.664 127.431 232.102 127.845C232.362 128.09 232.557 128.442 232.688 128.9L231.543 129.173C231.475 128.876 231.333 128.642 231.117 128.47C230.904 128.298 230.643 128.212 230.336 128.212C229.911 128.212 229.566 128.365 229.301 128.669C229.038 128.974 228.906 129.468 228.906 130.15C228.906 130.874 229.036 131.389 229.297 131.697C229.557 132.004 229.896 132.158 230.312 132.158C230.62 132.158 230.884 132.06 231.105 131.865C231.327 131.669 231.486 131.362 231.582 130.943ZM238.863 133.048H237.605L237.105 131.748H234.816L234.344 133.048H233.117L235.348 127.322H236.57L238.863 133.048ZM236.734 130.783L235.945 128.658L235.172 130.783H236.734ZM240.176 133.048V128.291H238.477V127.322H243.027V128.291H241.332V133.048H240.176ZM243.742 133.048V127.322H244.898V133.048H243.742ZM245.77 130.22C245.77 129.637 245.857 129.147 246.031 128.751C246.161 128.46 246.339 128.198 246.562 127.966C246.789 127.735 247.036 127.563 247.305 127.451C247.661 127.3 248.073 127.224 248.539 127.224C249.383 127.224 250.057 127.486 250.562 128.009C251.07 128.533 251.324 129.261 251.324 130.193C251.324 131.117 251.073 131.841 250.57 132.365C250.068 132.886 249.396 133.146 248.555 133.146C247.703 133.146 247.026 132.887 246.523 132.369C246.021 131.848 245.77 131.132 245.77 130.22ZM246.961 130.181C246.961 130.83 247.111 131.322 247.41 131.658C247.71 131.991 248.09 132.158 248.551 132.158C249.012 132.158 249.389 131.992 249.684 131.662C249.98 131.328 250.129 130.83 250.129 130.166C250.129 129.509 249.984 129.02 249.695 128.697C249.409 128.374 249.027 128.212 248.551 128.212C248.074 128.212 247.69 128.376 247.398 128.705C247.107 129.03 246.961 129.522 246.961 130.181ZM252.242 133.048V127.322H253.367L255.711 131.146V127.322H256.785V133.048H255.625L253.316 129.314V133.048H252.242Z" fill="white"/>
<defs>
<linearGradient id="paint0_linear_3523_8533" x1="128.932" y1="92.536" x2="128.932" y2="290.766" gradientUnits="userSpaceOnUse">
<stop stop-color="#2F5C91"/>
<stop offset="1" stop-color="#10274A"/>
</linearGradient>
<linearGradient id="paint1_linear_3523_8533" x1="76.1405" y1="114.421" x2="132.113" y2="114.421" gradientUnits="userSpaceOnUse">
<stop stop-color="#A0C4E8"/>
<stop offset="1" stop-color="#67A3D8"/>
</linearGradient>
<linearGradient id="paint2_linear_3523_8533" x1="164.309" y1="131.797" x2="181.721" y2="131.797" gradientUnits="userSpaceOnUse">
<stop stop-color="#A0C4E8"/>
<stop offset="1" stop-color="#67A3D8"/>
</linearGradient>
<linearGradient id="paint3_linear_3523_8533" x1="76.1407" y1="191.651" x2="187.058" y2="191.651" gradientUnits="userSpaceOnUse">
<stop stop-color="#D7EDFA"/>
<stop offset="1" stop-color="#A7CFEE"/>
</linearGradient>
<linearGradient id="paint4_linear_3523_8533" x1="128.93" y1="97.7792" x2="128.93" y2="99.1174" gradientUnits="userSpaceOnUse">
<stop stop-color="#2F5C91"/>
<stop offset="1" stop-color="#10274A"/>
</linearGradient>
<linearGradient id="paint5_linear_3523_8533" x1="61.4489" y1="169.253" x2="66.3805" y2="175.437" gradientUnits="userSpaceOnUse">
<stop stop-color="#2F5B91"/>
<stop offset="1" stop-color="#25BAFF"/>
</linearGradient>
<linearGradient id="paint6_linear_3523_8533" x1="72.2681" y1="158.298" x2="77.7289" y2="165.146" gradientUnits="userSpaceOnUse">
<stop stop-color="#D7EDFA"/>
<stop offset="1" stop-color="#A7CFEE"/>
</linearGradient>
<linearGradient id="paint7_linear_3523_8533" x1="61.2203" y1="178.506" x2="57.5784" y2="174.209" gradientUnits="userSpaceOnUse">
<stop stop-color="#F9D2D9"/>
<stop offset="1" stop-color="#EDB0B9"/>
</linearGradient>
<linearGradient id="paint8_linear_3523_8533" x1="35.2475" y1="282.23" x2="43.7776" y2="282.45" gradientUnits="userSpaceOnUse">
<stop stop-color="#FBD4DA"/>
<stop offset="1" stop-color="#EDB0BA"/>
</linearGradient>
<linearGradient id="paint9_linear_3523_8533" x1="19.8556" y1="281.267" x2="27.0898" y2="281.757" gradientUnits="userSpaceOnUse">
<stop stop-color="#FBD4DA"/>
<stop offset="1" stop-color="#EDB0BA"/>
</linearGradient>
<linearGradient id="paint10_linear_3523_8533" x1="17.1903" y1="191.833" x2="8.93371" y2="198.027" gradientUnits="userSpaceOnUse">
<stop stop-color="#FBD4DA"/>
<stop offset="1" stop-color="#EDB0BA"/>
</linearGradient>
<linearGradient id="paint11_linear_3523_8533" x1="25.8245" y1="173.669" x2="-0.773707" y2="183.039" gradientUnits="userSpaceOnUse">
<stop stop-color="#D7EDFA"/>
<stop offset="1" stop-color="#A7CFEE"/>
</linearGradient>
<linearGradient id="paint12_linear_3523_8533" x1="17.4082" y1="152.577" x2="34.0545" y2="151.715" gradientUnits="userSpaceOnUse">
<stop stop-color="#FBD4DA"/>
<stop offset="1" stop-color="#EDB0BA"/>
</linearGradient>
<linearGradient id="paint13_linear_3523_8533" x1="35.6776" y1="238.881" x2="16.8409" y2="238.73" gradientUnits="userSpaceOnUse">
<stop stop-color="#2F5B91"/>
<stop offset="1" stop-color="#25BAFF"/>
</linearGradient>
<linearGradient id="paint14_linear_3523_8533" x1="42.6118" y1="167.757" x2="13.2182" y2="200.996" gradientUnits="userSpaceOnUse">
<stop stop-color="#D7EDFA"/>
<stop offset="1" stop-color="#A7CFEE"/>
</linearGradient>
<linearGradient id="paint15_linear_3523_8533" x1="26.2043" y1="144.779" x2="28.6246" y2="144.861" gradientUnits="userSpaceOnUse">
<stop stop-color="#FBD4DA"/>
<stop offset="1" stop-color="#EDB0BA"/>
</linearGradient>
<linearGradient id="paint16_linear_3523_8533" x1="33.6518" y1="159.272" x2="19.5849" y2="157.738" gradientUnits="userSpaceOnUse">
<stop stop-color="#D7EDFA"/>
<stop offset="1" stop-color="#A7CFEE"/>
</linearGradient>
<linearGradient id="paint17_linear_3523_8533" x1="52.7603" y1="188.466" x2="20.3995" y2="169.783" gradientUnits="userSpaceOnUse">
<stop stop-color="#D7EDFA"/>
<stop offset="1" stop-color="#A7CFEE"/>
</linearGradient>
<linearGradient id="paint18_linear_3523_8533" x1="170.671" y1="40.2478" x2="205.451" y2="40.0996" gradientUnits="userSpaceOnUse">
<stop stop-color="#FBD4DA"/>
<stop offset="1" stop-color="#EDB0BA"/>
</linearGradient>
<linearGradient id="paint19_linear_3523_8533" x1="143.741" y1="59.5777" x2="148.033" y2="65.8469" gradientUnits="userSpaceOnUse">
<stop stop-color="#FBD4DA"/>
<stop offset="1" stop-color="#EDB0BA"/>
</linearGradient>
<linearGradient id="paint20_linear_3523_8533" x1="160.219" y1="53.5925" x2="148.985" y2="55.1184" gradientUnits="userSpaceOnUse">
<stop stop-color="#A0C4E8"/>
<stop offset="1" stop-color="#67A3D8"/>
</linearGradient>
<linearGradient id="paint21_linear_3523_8533" x1="147.76" y1="40.4882" x2="146.896" y2="68.1663" gradientUnits="userSpaceOnUse">
<stop stop-color="#FBD4DA"/>
<stop offset="1" stop-color="#EDB0BA"/>
</linearGradient>
<linearGradient id="paint22_linear_3523_8533" x1="150.094" y1="40.0911" x2="157.044" y2="40.3081" gradientUnits="userSpaceOnUse">
<stop stop-color="#68A9DC"/>
<stop offset="1" stop-color="#3A6EAE"/>
</linearGradient>
<linearGradient id="paint23_linear_3523_8533" x1="150.602" y1="38.7694" x2="155.003" y2="38.9068" gradientUnits="userSpaceOnUse">
<stop stop-color="#FBD4DA"/>
<stop offset="1" stop-color="#EDB0BA"/>
</linearGradient>
<linearGradient id="paint24_linear_3523_8533" x1="168.602" y1="44.6505" x2="156.083" y2="44.3875" gradientUnits="userSpaceOnUse">
<stop stop-color="#DDBCC2"/>
<stop offset="1" stop-color="#D9A2AB"/>
</linearGradient>
<linearGradient id="paint25_linear_3523_8533" x1="155.468" y1="34.3717" x2="166.677" y2="35.5367" gradientUnits="userSpaceOnUse">
<stop stop-color="#FBD4DA"/>
<stop offset="1" stop-color="#EDB0BA"/>
</linearGradient>
<linearGradient id="paint26_linear_3523_8533" x1="110.129" y1="110.555" x2="99.3828" y2="106.805" gradientUnits="userSpaceOnUse">
<stop stop-color="#FBD4DA"/>
<stop offset="1" stop-color="#EDB0BA"/>
</linearGradient>
<linearGradient id="paint27_linear_3523_8533" x1="145.623" y1="118.349" x2="138.741" y2="125.868" gradientUnits="userSpaceOnUse">
<stop stop-color="#FBD4DA"/>
<stop offset="1" stop-color="#EDB0BA"/>
</linearGradient>
<linearGradient id="paint28_linear_3523_8533" x1="175.674" y1="65.6864" x2="147.508" y2="69.5135" gradientUnits="userSpaceOnUse">
<stop stop-color="#A0C4E8"/>
<stop offset="1" stop-color="#67A3D8"/>
</linearGradient>
<linearGradient id="paint29_linear_3523_8533" x1="169.582" y1="48.3559" x2="185.043" y2="48.3559" gradientUnits="userSpaceOnUse">
<stop stop-color="#A0C4E8"/>
<stop offset="1" stop-color="#67A3D8"/>
</linearGradient>
<linearGradient id="paint30_linear_3523_8533" x1="233.01" y1="169.335" x2="222.17" y2="149.076" gradientUnits="userSpaceOnUse">
<stop stop-color="#365C90"/>
<stop offset="1" stop-color="#082947"/>
</linearGradient>
<linearGradient id="paint31_linear_3523_8533" x1="206.816" y1="241.651" x2="246.608" y2="241.651" gradientUnits="userSpaceOnUse">
<stop stop-color="#FBD4DA"/>
<stop offset="1" stop-color="#EDB0BA"/>
</linearGradient>
<linearGradient id="paint32_linear_3523_8533" x1="225.138" y1="241.827" x2="270.841" y2="245.731" gradientUnits="userSpaceOnUse">
<stop stop-color="#FBD4DA"/>
<stop offset="1" stop-color="#EDB0BA"/>
</linearGradient>
<linearGradient id="paint33_linear_3523_8533" x1="203.191" y1="155.799" x2="228.019" y2="158.663" gradientUnits="userSpaceOnUse">
<stop stop-color="#FBD4DA"/>
<stop offset="1" stop-color="#EDB0BA"/>
</linearGradient>
<linearGradient id="paint34_linear_3523_8533" x1="211.66" y1="170.298" x2="225.358" y2="171.878" gradientUnits="userSpaceOnUse">
<stop stop-color="#E2F1FA"/>
<stop offset="1" stop-color="#B8D5F0"/>
</linearGradient>
<linearGradient id="paint35_linear_3523_8533" x1="237.322" y1="157.673" x2="260.425" y2="155.119" gradientUnits="userSpaceOnUse">
<stop stop-color="#FBD4DA"/>
<stop offset="1" stop-color="#EDB0BA"/>
</linearGradient>
<linearGradient id="paint36_linear_3523_8533" x1="239.355" y1="171.014" x2="253.639" y2="169.434" gradientUnits="userSpaceOnUse">
<stop stop-color="#E2F1FA"/>
<stop offset="1" stop-color="#B8D5F0"/>
</linearGradient>
<linearGradient id="paint37_linear_3523_8533" x1="228.398" y1="165.978" x2="233.422" y2="165.978" gradientUnits="userSpaceOnUse">
<stop stop-color="#DDBCC2"/>
<stop offset="1" stop-color="#D9A2AB"/>
</linearGradient>
<linearGradient id="paint38_linear_3523_8533" x1="221.895" y1="184.372" x2="250.283" y2="184.372" gradientUnits="userSpaceOnUse">
<stop stop-color="#E2F1FA"/>
<stop offset="1" stop-color="#B8D5F0"/>
</linearGradient>
<linearGradient id="paint39_linear_3523_8533" x1="225.027" y1="158.976" x2="238.658" y2="156.041" gradientUnits="userSpaceOnUse">
<stop stop-color="#FBD4DA"/>
<stop offset="1" stop-color="#EDB0BA"/>
</linearGradient>
<linearGradient id="paint40_linear_3523_8533" x1="203.911" y1="0" x2="203.911" y2="30.4511" gradientUnits="userSpaceOnUse">
<stop stop-color="#2F5B91"/>
<stop offset="1" stop-color="#25BAFF"/>
</linearGradient>
<linearGradient id="paint41_linear_3523_8533" x1="203.914" y1="4.26714" x2="203.914" y2="16.0948" gradientUnits="userSpaceOnUse">
<stop stop-color="#D7EDFA"/>
<stop offset="1" stop-color="#A7CFEE"/>
</linearGradient>
<linearGradient id="paint42_linear_3523_8533" x1="203.097" y1="29.9938" x2="205.242" y2="30.4699" gradientUnits="userSpaceOnUse">
<stop stop-color="#FBD4DA"/>
<stop offset="1" stop-color="#EDB0BA"/>
</linearGradient>
<linearGradient id="paint43_linear_3523_8533" x1="203.132" y1="29.3067" x2="205.389" y2="29.8076" gradientUnits="userSpaceOnUse">
<stop stop-color="#FBD4DA"/>
<stop offset="1" stop-color="#EDB0BA"/>
</linearGradient>
<linearGradient id="paint44_linear_3523_8533" x1="203.39" y1="28.6692" x2="205.535" y2="29.1452" gradientUnits="userSpaceOnUse">
<stop stop-color="#FBD4DA"/>
<stop offset="1" stop-color="#EDB0BA"/>
</linearGradient>
<linearGradient id="paint45_linear_3523_8533" x1="203.707" y1="28.0441" x2="205.683" y2="28.4828" gradientUnits="userSpaceOnUse">
<stop stop-color="#FBD4DA"/>
<stop offset="1" stop-color="#EDB0BA"/>
</linearGradient>
</defs>
</svg>
