<svg width="18" height="17" viewBox="0 0 18 17" fill="none" xmlns="http://www.w3.org/2000/svg">
<path d="M14.0002 2.94531H12.9585V1.90365C12.9581 1.51701 12.8043 1.14633 12.5309 0.872936C12.2575 0.599541 11.8868 0.445754 11.5002 0.445312H6.50019C6.11355 0.445754 5.74288 0.599541 5.46948 0.872936C5.19609 1.14633 5.0423 1.51701 5.04186 1.90365V2.94531H4.00019C3.57798 2.89638 3.15016 2.94354 2.74875 3.08329C2.34733 3.22303 1.98271 3.45173 1.68216 3.75228C1.38161 4.05283 1.15291 4.41745 1.01317 4.81887C0.873424 5.22028 0.826256 5.6481 0.875193 6.07031V13.5703C0.826256 13.9925 0.873424 14.4203 1.01317 14.8218C1.15291 15.2232 1.38161 15.5878 1.68216 15.8883C1.98271 16.1889 2.34733 16.4176 2.74875 16.5573C3.15016 16.6971 3.57798 16.7442 4.00019 16.6953H11.5002C11.666 16.6953 11.8249 16.6295 11.9421 16.5123C12.0593 16.395 12.1252 16.2361 12.1252 16.0703C12.1252 15.9046 12.0593 15.7456 11.9421 15.6284C11.8249 15.5112 11.666 15.4453 11.5002 15.4453H4.00019C2.68603 15.4453 2.12519 14.8845 2.12519 13.5703V9.72031C3.3573 10.2378 4.6393 10.6274 5.95103 10.8828C6.24009 10.9373 6.53884 10.9044 6.80912 10.7883C7.07941 10.6723 7.30898 10.4783 7.46853 10.2311C7.63159 9.96912 7.85657 9.75121 8.12367 9.59659C8.39076 9.44198 8.69177 9.3554 9.00019 9.34448C9.30852 9.35532 9.60945 9.44187 9.87642 9.5965C10.1434 9.75113 10.3682 9.96909 10.531 10.2311C10.6656 10.4372 10.8487 10.6071 11.0644 10.7257C11.2801 10.8443 11.5216 10.908 11.7677 10.9111C11.862 10.9112 11.9561 10.9017 12.0485 10.8828C13.3605 10.6275 14.6428 10.2379 15.8752 9.72031V11.0703C15.8752 11.2361 15.941 11.395 16.0583 11.5123C16.1755 11.6295 16.3344 11.6953 16.5002 11.6953C16.666 11.6953 16.8249 11.6295 16.9421 11.5123C17.0593 11.395 17.1252 11.2361 17.1252 11.0703V6.07031C17.1741 5.6481 17.127 5.22028 16.9872 4.81887C16.8475 4.41745 16.6188 4.05283 16.3182 3.75228C16.0177 3.45173 15.6531 3.22303 15.2516 3.08329C14.8502 2.94354 14.4224 2.89638 14.0002 2.94531ZM6.29186 1.90365C6.29186 1.84839 6.31381 1.7954 6.35288 1.75633C6.39195 1.71726 6.44494 1.69531 6.50019 1.69531H11.5002C11.5554 1.69531 11.6084 1.71726 11.6475 1.75633C11.6866 1.7954 11.7085 1.84839 11.7085 1.90365V2.94531H6.29186V1.90365ZM15.5002 8.51948C14.3098 9.03133 13.0676 9.41299 11.7952 9.65781C11.7495 9.66116 11.7039 9.65151 11.6634 9.62997C11.623 9.60844 11.5896 9.57591 11.5669 9.53615C11.2903 9.10353 10.9115 8.74569 10.4639 8.49425C10.0162 8.24281 9.51351 8.1055 9.00019 8.09448C8.48631 8.10496 7.98293 8.242 7.53465 8.49347C7.08637 8.74494 6.70702 9.10307 6.43019 9.53615C6.40781 9.57619 6.37438 9.60895 6.3339 9.63052C6.29341 9.65209 6.24758 9.66157 6.20186 9.65781C4.93058 9.41276 3.6895 9.0311 2.50019 8.51948C2.38902 8.47112 2.29452 8.39115 2.22844 8.28951C2.16236 8.18787 2.12761 8.06904 2.12853 7.94781V6.07031C2.12853 4.75615 2.68936 4.19531 4.00353 4.19531H14.0002C15.3144 4.19531 15.8752 4.75615 15.8752 6.07031V7.94781C15.8758 8.06942 15.8406 8.18851 15.7739 8.29019C15.7072 8.39187 15.612 8.47163 15.5002 8.51948ZM9.01686 10.237C9.23751 10.2381 9.44872 10.3267 9.60415 10.4833C9.75959 10.6399 9.84657 10.8517 9.84602 11.0724C9.84547 11.293 9.75743 11.5045 9.60121 11.6603C9.44499 11.8161 9.23335 11.9036 9.01269 11.9036C8.79204 11.9036 8.58039 11.8161 8.42417 11.6603C8.26795 11.5045 8.17991 11.293 8.17936 11.0724C8.17881 10.8517 8.26579 10.6399 8.42123 10.4833C8.57667 10.3267 8.78788 10.2381 9.00853 10.237H9.01686Z" fill="#303030"/>
<g clip-path="url(#clip0_3178_3459)">
<path d="M14.4998 16.1549C15.6504 16.1549 16.5832 15.2222 16.5832 14.0716C16.5832 12.921 15.6504 11.9883 14.4998 11.9883C13.3492 11.9883 12.4165 12.921 12.4165 14.0716C12.4165 15.2222 13.3492 16.1549 14.4998 16.1549Z" stroke="#303030" stroke-width="0.8" stroke-linecap="round" stroke-linejoin="round"/>
<path d="M13.875 14.069L14.2917 14.4857L15.125 13.6523" stroke="#303030" stroke-width="0.8" stroke-linecap="round" stroke-linejoin="round"/>
</g>
<defs>
<clipPath id="clip0_3178_3459">
<rect width="5" height="5" fill="white" transform="translate(12 11.5703)"/>
</clipPath>
</defs>
</svg>
