<svg width="24" height="24" viewBox="0 0 24 24" fill="none" xmlns="http://www.w3.org/2000/svg">
<path d="M15.1411 18.3261C15.3485 18.3261 15.5252 18.2536 15.6711 18.1086C15.8163 17.9644 15.8889 17.7892 15.8889 17.5832C15.8889 17.3763 15.8163 17.2008 15.6711 17.0566C15.5259 16.9116 15.3493 16.8391 15.1411 16.8391C14.933 16.8391 14.7563 16.9116 14.6111 17.0566C14.4659 17.2016 14.3933 17.3771 14.3933 17.5832C14.3933 17.7892 14.4659 17.9644 14.6111 18.1086C14.7563 18.2536 14.933 18.3261 15.1411 18.3261ZM17.5556 18.3261C17.763 18.3261 17.9396 18.2536 18.0856 18.1086C18.2307 17.9644 18.3033 17.7892 18.3033 17.5832C18.3033 17.3763 18.2307 17.2008 18.0856 17.0566C17.9404 16.9116 17.7637 16.8391 17.5556 16.8391C17.3474 16.8391 17.1707 16.9116 17.0256 17.0566C16.8804 17.2016 16.8078 17.3771 16.8078 17.5832C16.8078 17.7892 16.8804 17.9644 17.0256 18.1086C17.1707 18.2536 17.3474 18.3261 17.5556 18.3261ZM19.97 18.3261C20.1774 18.3261 20.3541 18.2536 20.5 18.1086C20.6452 17.9644 20.7178 17.7892 20.7178 17.5832C20.7178 17.3763 20.6452 17.2008 20.5 17.0566C20.3548 16.9116 20.1781 16.8391 19.97 16.8391C19.7618 16.8391 19.5852 16.9116 19.44 17.0566C19.2948 17.2016 19.2222 17.3771 19.2222 17.5832C19.2222 17.7892 19.2948 17.9644 19.44 18.1086C19.5852 18.2536 19.7618 18.3261 19.97 18.3261ZM3.79556 19.663C3.29778 19.663 2.87407 19.4893 2.52444 19.1419C2.17481 18.7945 2 18.3739 2 17.8801V3.78286C2 3.28976 2.17481 2.86917 2.52444 2.52106C2.87407 2.17369 3.29778 2 3.79556 2H17.9833C18.4796 2 18.903 2.17369 19.2533 2.52106C19.603 2.86843 19.7778 3.2894 19.7778 3.78396V10.3524C19.583 10.2854 19.3963 10.2309 19.2178 10.189C19.04 10.1478 18.8563 10.1066 18.6667 10.0654V3.78396C18.6667 3.61395 18.5956 3.45793 18.4533 3.31589C18.3111 3.17385 18.1541 3.1032 17.9822 3.10394H3.79556C3.62444 3.10394 3.46741 3.17459 3.32444 3.31589C3.18148 3.45719 3.11037 3.61322 3.11111 3.78396V17.8801C3.11111 18.0494 3.18222 18.205 3.32444 18.3471C3.46667 18.4891 3.62333 18.5598 3.79444 18.559H10.09C10.1167 18.7651 10.1511 18.9568 10.1933 19.1342C10.2356 19.3108 10.29 19.4871 10.3567 19.663H3.79556ZM3.11111 17.4551V18.559V3.10394V10.0654V9.98256V17.4551ZM5.88889 15.5453H10.2889C10.3296 15.3561 10.3852 15.1733 10.4556 14.9966L10.6778 14.4402H5.88889V15.5453ZM5.88889 11.3835H13.2C13.5652 11.1288 13.9248 10.9132 14.2789 10.7365C14.633 10.5592 15.013 10.4201 15.4189 10.3193V10.2795H5.88889V11.3835ZM5.88889 7.22161H15.8889V6.11768H5.88889V7.22161ZM17.5556 22C16.3178 22 15.2678 21.5713 14.4056 20.7139C13.5426 19.8565 13.1111 18.8129 13.1111 17.5832C13.1111 16.3534 13.5426 15.3098 14.4056 14.4524C15.2685 13.595 16.3185 13.1667 17.5556 13.1674C18.7926 13.1681 19.843 13.5965 20.7067 14.4524C21.5704 15.3083 22.0015 16.3519 22 17.5832C22 18.8122 21.5689 19.8554 20.7067 20.7128C19.843 21.5702 18.7926 21.9989 17.5556 21.9989" fill="#090707"/>
</svg>
