<svg width="14" height="14" viewBox="0 0 14 14" fill="none" xmlns="http://www.w3.org/2000/svg">
<path d="M6.40979 1.27345L0.838579 6.84466C0.72496 6.95832 0.661133 7.11244 0.661133 7.27315C0.661133 7.43386 0.72496 7.58798 0.838579 7.70163L6.41009 13.2732C6.52375 13.3868 6.67787 13.4506 6.83858 13.4506C6.99928 13.4506 7.15341 13.3868 7.26706 13.2732L12.8383 7.70194C12.9519 7.58828 13.0157 7.43416 13.0157 7.27345C13.0157 7.11275 12.9519 6.95862 12.8383 6.84497L7.26676 1.27315C7.15311 1.15953 6.99898 1.0957 6.83828 1.0957C6.67757 1.0957 6.52344 1.15953 6.40979 1.27315V1.27345Z" stroke="#0085FE" stroke-linejoin="round"/>
<path d="M4.95499 7.27314H8.59135M6.77317 5.45496V9.09132" stroke="#0085FE" stroke-linecap="round"/>
</svg>
