<svg width="268" height="259" viewBox="0 0 268 259" fill="none" xmlns="http://www.w3.org/2000/svg">
<path d="M134 258.074C208.006 258.074 268 257.185 268 256.089C268 254.992 208.006 254.104 134 254.104C59.9938 254.104 0 254.992 0 256.089C0 257.185 59.9938 258.074 134 258.074Z" fill="#EBEFF2"/>
<path d="M257.434 242.385C257.434 241.728 249.968 241.194 240.759 241.194C231.55 241.194 224.084 241.728 224.084 242.385C224.084 243.043 231.55 243.577 240.759 243.577C249.968 243.577 257.434 243.043 257.434 242.385Z" fill="#EBEFF2"/>
<path d="M230.397 226.308C229.28 225.19 228.056 224.101 226.728 223.047C225.272 221.89 223.59 220.659 222.532 218.695C222.03 217.763 221.697 216.696 220.983 215.939C220.464 215.388 219.778 215.043 219.258 214.475C218.397 213.539 218.193 212.235 217.623 211.133C216.91 209.758 215.577 208.703 214.099 207.915C212.624 207.128 210.984 206.555 209.367 205.87C208.211 205.375 206.876 204.624 206.915 203.741C206.952 202.938 208.154 202.499 209.266 202.326C211.501 201.981 213.938 202.22 215.971 203.07C217.915 203.879 219.452 205.202 220.817 206.608C226.074 212.069 229.099 218.473 230.397 226.308Z" fill="#8CC63F"/>
<path d="M229.518 225.538C229.215 228.099 229.086 221.382 227.72 219.195C226.353 217.007 225.397 214.294 223.758 212.302C222.12 210.311 220.775 207.834 221.074 205.272C221.349 202.92 222.983 200.764 222.698 198.413C222.268 194.86 217.838 193.082 216.775 189.665C215.897 186.845 217.572 183.775 216.997 180.878C216.519 178.468 214.568 176.621 212.501 175.292C210.434 173.964 208.137 172.966 206.285 171.351C204.434 169.736 203.056 167.249 203.646 164.864C204.285 162.277 207.172 160.663 209.826 160.907C212.48 161.151 214.808 162.906 216.368 165.067C217.929 167.227 218.839 169.778 219.724 172.291C224.812 186.728 230.783 201.469 230.379 216.771C230.321 218.972 229.818 223.005 229.518 225.538Z" fill="#8CC63F"/>
<path d="M230.348 237.122C230.498 240.364 230.033 230.568 231.611 227.563C233.131 224.538 235.208 222.141 236.981 219.655C238.757 217.153 240.296 214.397 240.348 211.691C240.391 209.219 239.217 206.836 239.875 204.334C240.881 200.561 245.151 199.42 246.669 196.466C247.923 194.052 247.086 190.79 248.194 188.31C249.107 186.273 251.109 185.393 253.047 185.138C254.987 184.879 257.021 185.059 258.785 184.694C260.554 184.315 262.038 183.322 262.024 181.44C262.002 179.413 260.235 176.645 258.269 175.236C256.297 173.844 254.174 173.824 252.444 174.789C250.72 175.742 249.348 177.527 248.01 179.406C240.411 189.827 231.395 206.247 230.167 226.072C229.987 228.861 230.162 233.933 230.348 237.122Z" fill="#8CC63F"/>
<path d="M229.749 227.243C227.934 211.772 227.173 193.925 227.474 178.351C227.715 165.914 228.845 152.834 235.793 142.515C237.001 140.721 238.639 138.89 240.799 138.769C243.709 138.606 245.87 141.825 245.768 144.738C245.666 147.652 244.03 150.254 242.547 152.764C241.064 155.273 239.638 158.069 240.017 160.96C240.318 163.264 241.743 165.317 241.973 167.628C242.305 170.964 240.134 173.971 238.124 176.654C236.113 179.336 234.048 182.467 234.624 185.769C235.097 188.484 237.33 190.998 236.603 193.656C235.991 195.892 233.457 197.237 232.973 199.504C232.564 201.418 233.568 203.32 234.129 205.195C237.353 215.965 229.793 216.928 229.749 227.243Z" fill="#8CC63F"/>
<path d="M231.35 226.585C232.862 221.287 236.459 216.255 240.843 212.515C244.276 209.459 248.854 207.283 252.319 207.554C252.919 207.592 253.513 207.745 253.683 208.316C253.896 209.082 253.339 210.236 252.744 210.739C252.133 211.238 251.408 211.253 250.637 211.299C249.879 211.346 248.973 211.475 248.414 212.16C247.968 212.706 247.869 213.527 247.485 214.067C246.936 214.846 245.8 214.882 244.614 214.946C243.457 215.002 242.019 215.217 241.514 216.175C241.092 216.967 241.519 218.105 240.734 218.601C240.066 219.022 238.663 218.833 237.969 219.357C237.384 219.801 237.595 220.549 237.446 221.145C237.059 223.058 233.335 223.109 231.35 226.585Z" fill="#8CC63F"/>
<path d="M237.721 243.577H224.292C223.261 243.577 222.383 242.827 222.221 241.81L219.345 223.726C219.142 222.453 220.126 221.301 221.415 221.301H240.598C241.887 221.301 242.871 222.453 242.668 223.726L239.791 241.81C239.63 242.827 238.752 243.577 237.721 243.577Z" fill="white"/>
<path d="M237.721 243.828H224.292C223.13 243.828 222.155 242.995 221.972 241.849L219.096 223.765C218.988 223.085 219.182 222.395 219.629 221.872C220.076 221.348 220.727 221.048 221.415 221.048H240.598C241.286 221.048 241.937 221.348 242.384 221.872C242.831 222.395 243.025 223.085 242.917 223.765L240.041 241.849C239.858 242.995 238.883 243.828 237.721 243.828ZM221.415 221.552C220.875 221.552 220.363 221.788 220.013 222.199C219.662 222.61 219.509 223.152 219.594 223.686L222.471 241.769C222.614 242.67 223.38 243.324 224.292 243.324H237.722C238.634 243.324 239.4 242.67 239.543 241.769L242.419 223.686C242.504 223.152 242.352 222.61 242.001 222.199C241.65 221.788 241.139 221.552 240.598 221.552H221.415Z" fill="#777B7F"/>
<path d="M242.053 227.59L241.72 229.686H220.292L219.959 227.59H242.053Z" fill="white"/>
<path d="M241.936 229.938H220.078L219.664 227.337H242.35L241.936 229.938ZM220.508 229.433H241.505L241.759 227.841H220.255L220.508 229.433Z" fill="#777B7F"/>
<path d="M186.882 258.074H85.8796C79.5647 258.074 74.4453 252.955 74.4453 246.64V31.2956C74.4453 24.9807 79.5645 19.8613 85.8796 19.8613H186.882C193.197 19.8613 198.316 24.9805 198.316 31.2956V246.64C198.316 252.955 193.197 258.074 186.882 258.074Z" fill="#777B7F"/>
<path d="M182.118 258.074H81.1159C74.801 258.074 69.6816 252.955 69.6816 246.64V31.2956C69.6816 24.9807 74.8008 19.8613 81.1159 19.8613H182.118C188.433 19.8613 193.552 24.9805 193.552 31.2956V246.64C193.552 252.955 188.433 258.074 182.118 258.074Z" fill="#3D4144"/>
<path d="M82.068 253.31C77.858 253.31 74.4453 249.897 74.4453 245.687V32.2487C74.4453 28.0387 77.8582 24.626 82.068 24.626H181.164C185.374 24.626 188.787 28.0389 188.787 32.2487V245.687C188.787 249.897 185.374 253.31 181.164 253.31L82.068 253.31Z" fill="white"/>
<path d="M29.337 247.923L23.7618 247.599L25.4649 210.325L22.6995 173.788L21.8574 147.144L37.163 147.02L34.6887 206.916C34.5912 209.274 34.3798 211.626 34.055 213.963L29.337 247.923Z" fill="#F5B493"/>
<path d="M41.1366 248.251L35.59 247.6L39.157 207.348L29.4844 146.443L46.6894 147.02L48.6885 154.48V200.857C48.6885 205.059 48.3063 209.252 47.5466 213.385L41.1366 248.251Z" fill="#F5B493"/>
<path d="M42.1902 107.478H23.168L27.5324 83.4941L39.43 83.9341L42.1902 107.478Z" fill="#3D4144"/>
<path d="M49.9611 103.701C49.9611 103.701 52.5946 105.308 53.914 108.996C55.1849 112.549 56.7591 114.917 59.0748 121.956C62.6726 132.893 61.5138 132.669 58.888 133.942C54.2933 136.171 51.1516 131.294 47.365 119.258C47.365 119.258 44.6108 108.531 49.9611 103.701Z" fill="#DAEEFE"/>
<path d="M36.4386 88.105C36.4386 88.105 36.7755 95.404 37.0423 96.4287C37.3099 97.4529 39.4587 98.6535 42.8877 100.382C42.8877 100.382 42.9353 113.688 36.4835 113.554C30.0314 113.42 27.5007 100.506 26.4766 99.0357C26.4766 99.0357 29.2465 97.7376 29.3934 95.993C29.5685 93.9038 30.2933 87.0557 30.2933 87.0557L36.4386 88.105Z" fill="#F5B493"/>
<path d="M28.1726 81.1128C27.2701 87.2697 30.2674 91.0137 32.4705 92.9961C34.2014 94.5533 35.1372 95.313 36.6376 95.1179C40.8006 94.5761 44.07 93.3824 45.4251 84.7409C47.0593 74.3165 43.4587 72.8542 38.4011 72.0254C31.8331 70.9492 29.2136 74.0142 28.1726 81.1128Z" fill="#F5B493"/>
<path d="M37.0364 76.6905C37.0364 76.6905 38.4756 79.1307 39.9302 80.6448C41.2636 82.0328 44.0153 83.4608 45.6513 84.0349C45.6513 84.0349 46.8327 80.8421 46.9659 79.6395C47.3228 76.4193 46.0442 72.7015 43.5799 71.2231C40.194 69.1915 32.5515 68.6112 29.7311 71.3198C27.8049 73.17 25.6887 76.7248 25.3131 81.2485C24.7838 87.6233 30.0055 90.1447 30.0055 90.1447C30.0055 90.1447 29.847 84.3545 31.0056 84.0218C32.0627 83.7181 34.1477 81.6551 37.0364 76.6905Z" fill="#3D4144"/>
<path d="M31.3284 83.4386C31.3284 83.4386 31.6033 82.2326 29.8436 82.1006C28.1421 81.9728 27.486 86.0319 28.8459 86.984C30.2061 87.9361 30.996 86.8023 31.167 86.2155C31.3617 85.5477 31.3284 83.4386 31.3284 83.4386Z" fill="#F5B493"/>
<path d="M18.6753 180.986C18.6753 180.986 26.623 185.664 38.6441 184.972C50.6652 184.281 51.7038 179.03 51.7038 179.03C52.9184 162.389 48.869 142.822 47.3835 139.831C47.1897 139.441 47.0708 138.585 46.9247 138.31C46.6023 137.704 46.3371 137.587 46.3371 137.587C33.3025 138.337 21.7359 139.002 21.7359 139.002C21.4953 139.181 21.1498 139.68 21.1475 140.499C21.1469 140.794 21.2846 141.926 21.1353 142.281C19.4021 146.401 17.9237 167.92 18.6753 180.986Z" fill="#393947"/>
<path d="M39.8673 98.7236C39.8673 98.7236 40.7368 104.23 36.5723 109.493C36.5723 109.493 34.1011 103.514 26.478 99.0361C26.478 99.0361 24.227 100.455 18.2363 103.157C18.2363 103.157 20.7051 111.001 21.3838 122.338C21.6342 126.518 22.3651 130.787 21.9153 135.698C21.849 136.423 20.7133 136.926 20.7133 138.632C20.7133 139.15 21.5373 139.643 22.4521 139.931C29.7173 142.218 39.0867 142.218 45.4068 139.957C45.4068 139.957 47.3507 139.278 47.5404 138.111C47.6167 137.641 47.3941 136.59 47.1329 136.028C43.7126 128.669 47.5557 126.112 48.2466 120.825C49.3063 112.715 50.0352 104.597 49.9606 103.701C49.9606 103.701 46.3164 101.693 39.8673 98.7236Z" fill="#DAEEFE"/>
<path d="M36.5725 109.651C36.5653 109.651 36.558 109.65 36.5506 109.649C36.495 109.642 36.448 109.605 36.4266 109.554C36.4019 109.494 33.8827 103.569 26.3982 99.1718C26.3231 99.1277 26.2979 99.0309 26.342 98.9556C26.3861 98.8804 26.4826 98.8552 26.558 98.8996C33.2747 102.846 36.0454 108.02 36.6072 109.191C40.4972 104.108 39.7198 98.8016 39.7112 98.748C39.6977 98.6618 39.7565 98.581 39.8427 98.5675C39.9296 98.5534 40.0096 98.6126 40.0231 98.6987C40.0318 98.7543 40.8553 104.334 36.6957 109.591C36.6662 109.629 36.6203 109.651 36.5725 109.651Z" fill="#437CEF"/>
<path d="M52.5887 116.972C52.5322 117.259 52.2415 117.49 51.9394 117.488L45.8971 117.851L45.5419 117.531C45.4363 117.434 45.3855 117.288 45.4179 117.124L47.992 104.031C48.0486 103.744 48.3393 103.512 48.6414 103.515L54.9432 103.558C55.0943 103.559 55.2195 103.618 55.2999 103.713C55.3803 103.808 55.688 104.072 55.688 104.072L52.5887 116.972Z" fill="#3D4144"/>
<path d="M53.2179 117.55C53.1613 117.837 52.8707 118.068 52.5686 118.066L46.2668 118.023C45.9646 118.021 45.7655 117.786 45.8221 117.499L48.3963 104.406C48.4529 104.119 48.7435 103.887 49.0456 103.89L55.3474 103.933C55.6496 103.935 55.8487 104.17 55.7921 104.457L53.2179 117.55Z" fill="#777B7F"/>
<path d="M50.1996 105.08C50.265 104.788 50.0789 104.552 49.7841 104.552C49.4893 104.552 49.1973 104.788 49.1322 105.08C49.0669 105.371 49.2529 105.608 49.5477 105.608C49.8425 105.608 50.1345 105.372 50.1996 105.08Z" fill="white"/>
<path d="M50.0413 105.079C50.0873 104.874 49.9561 104.707 49.7483 104.707C49.5404 104.707 49.3346 104.874 49.2885 105.079C49.2424 105.285 49.3737 105.452 49.5815 105.452C49.7894 105.452 49.9952 105.285 50.0413 105.079Z" fill="#20202D"/>
<path d="M57.4936 116.238C57.4936 116.238 58.3649 116.47 58.7927 118.922C60.287 127.482 62.1669 129.138 61.8864 130.76C61.5567 132.667 60.3789 134.354 58.3548 134.826C55.7703 135.427 52.9523 133.533 52.9279 131.778C52.8257 124.416 51.7483 119.287 51.7483 119.287C51.7483 119.287 51.0968 117.055 54.8529 116.219C57.1536 115.707 57.4936 116.238 57.4936 116.238Z" fill="#DAEEFE"/>
<path d="M52.9283 131.936C52.8422 131.936 52.7717 131.866 52.7705 131.78C52.6696 124.52 51.605 119.37 51.5943 119.319C51.5885 119.301 51.3884 118.588 51.8563 117.796C52.3403 116.977 53.3371 116.395 54.819 116.064C54.9034 116.045 54.9885 116.099 55.0074 116.184C55.0263 116.269 54.9727 116.354 54.8877 116.373C53.499 116.682 52.5722 117.212 52.1323 117.95C51.7313 118.622 51.8986 119.237 51.9004 119.243C51.9141 119.305 52.9849 124.483 53.0861 131.775C53.0873 131.862 53.0177 131.934 52.9305 131.935C52.9299 131.936 52.9291 131.936 52.9283 131.936Z" fill="#437CEF"/>
<path d="M54.5794 112.684C54.5794 112.684 53.0915 111.915 51.311 110.693C49.8543 109.693 48.3715 108.475 47.6088 107.919C47.6088 107.919 46.7242 107.106 46.3151 107.689C45.9109 108.264 47.1475 109.198 47.1475 109.198L50.6293 111.956C50.6293 111.956 49.089 111.1 48.448 110.73C47.8071 110.359 45.4779 108.704 44.9937 108.621C44.502 108.536 43.9872 109.446 44.8764 110.05C44.9316 110.088 49.1539 112.95 49.2202 112.985C49.2202 112.985 44.7617 110.625 44.6499 110.615C44.4591 110.599 44.1836 110.63 44.0893 110.921C43.9993 111.199 43.9035 111.514 44.446 111.991C44.446 111.991 45.4354 113.62 46.8376 114.884C48.0328 115.961 52.0753 118.349 53.825 118.349C54.4589 118.349 56.2152 118.236 56.8963 116.364C57.1135 115.768 57.2479 114.406 56.8939 113.713C56.047 112.055 55.9238 109.209 55.9238 109.209C55.9238 109.209 56.0034 108.719 55.574 108.663C55.1446 108.608 54.8744 108.78 54.7154 109.297C54.556 109.813 54.5794 112.684 54.5794 112.684Z" fill="#F5B493"/>
<path d="M18.2353 103.157C18.2353 103.157 16.7161 103.988 16.349 107.047C15.7737 111.841 14.9606 117.387 14.734 118.897C14.5075 120.406 13.5781 126.521 13.1062 129.11C12.9005 130.238 12.6401 134.628 13.7012 135.561C14.7622 136.494 21.604 136.554 23.5624 130.636C25.5207 124.719 24.632 115.968 24.632 115.968C24.632 115.968 23.4639 110.61 18.2353 103.157Z" fill="#DAEEFE"/>
<path d="M27.6987 112.407C27.6987 112.407 28.9901 111.159 29.76 110.623C30.3726 110.197 31.8184 109.578 32.1974 109.514C33.2303 109.34 34.5466 109.198 34.6709 109.692C34.6709 109.692 34.8516 110.404 33.862 110.51C33.2815 110.572 32.7111 110.703 32.3604 110.779C32.1241 110.83 31.0239 111.575 30.8685 111.694C30.6223 111.884 29.7804 112.952 29.7804 112.952C29.7804 112.952 30.7089 112.939 31.1812 112.872C32.1577 112.734 32.5156 114.097 32.516 114.772C32.517 116.424 29.5785 117.81 29.1817 118.178C27.8065 119.451 27.1068 122.401 24.1814 120.483C23.4461 120.001 22.7509 119.161 23.3305 118.178C24.5754 116.065 25.4964 115.169 26.2371 114.083L27.6987 112.407Z" fill="#F5B493"/>
<path d="M23.3289 118.178L20.4355 122.59L24.1885 124.756L26.6244 120.509L23.3289 118.178Z" fill="#F5B493"/>
<path d="M23.1073 119.638C23.7558 120.148 24.6815 120.859 25.6719 121.562C26.1446 121.897 26.3256 122.512 26.1138 123.051C25.0885 125.662 22.2107 132.95 21.5711 134.133C20.7893 135.579 17.1263 138.826 14.7196 137.969C12.3132 137.112 12.5729 132.043 13.3481 130.119C14.187 128.036 19.3703 122.069 21.3845 119.793C21.8278 119.292 22.582 119.224 23.1073 119.638Z" fill="#DAEEFE"/>
<path d="M21.5703 134.291C21.5449 134.291 21.5192 134.285 21.4952 134.272C21.4186 134.231 21.39 134.135 21.4315 134.058C22.0745 132.869 25.0648 125.288 25.9661 122.993C26.1521 122.52 25.9933 121.984 25.5797 121.691C24.5659 120.971 23.622 120.244 23.0087 119.761C22.5508 119.401 21.8887 119.46 21.5018 119.897C19.3679 122.308 14.3162 128.136 13.4937 130.177C13.4612 130.258 13.3695 130.297 13.2883 130.265C13.2075 130.232 13.1684 130.14 13.2009 130.059C14.0418 127.972 19.121 122.111 21.2655 119.688C21.7632 119.126 22.6147 119.049 23.2041 119.513C23.8145 119.994 24.7539 120.717 25.7626 121.433C26.2946 121.81 26.4991 122.499 26.2601 123.108C25.1029 126.055 22.3429 133.036 21.7092 134.208C21.6808 134.261 21.6264 134.291 21.5703 134.291Z" fill="#437CEF"/>
<path d="M23.7625 247.6L23.1816 256.331L26.3812 256.517L26.5525 253.567C26.5525 253.567 27.9209 256.273 34.7632 256.67L41.3246 257.052C42.3043 257.109 42.9138 255.955 42.273 255.211C42.0987 255.009 41.8511 254.837 41.5033 254.726C39.8651 254.202 37.4754 251.695 34.8404 251.24C32.2609 250.794 29.1978 250.331 29.3375 247.924L23.7625 247.6Z" fill="#393947"/>
<path d="M35.5896 247.6L34.4219 256.279L37.6049 256.653L37.9496 253.718C37.9496 253.718 39.1563 256.5 45.9635 257.299L52.4912 258.066C53.466 258.181 54.1421 257.065 53.5461 256.285C53.3842 256.073 53.1471 255.886 52.8065 255.755C51.2019 255.135 48.9637 252.493 46.3602 251.883C43.8114 251.286 40.8549 250.646 41.1362 248.251L35.5896 247.6Z" fill="#393947"/>
<path d="M35.2013 136.185C35.1199 136.185 35.051 136.123 35.044 136.04L35.0184 135.733C34.5045 129.574 33.973 123.206 35.9606 117.796C37.5571 113.451 36.4319 109.577 36.4202 109.538C36.3953 109.455 36.4426 109.367 36.5262 109.342C36.6097 109.317 36.6977 109.364 36.7227 109.447C36.7346 109.487 37.8912 113.458 36.257 117.905C34.2934 123.249 34.8219 129.582 35.3331 135.707L35.3587 136.014C35.3658 136.101 35.3013 136.177 35.2144 136.185C35.21 136.185 35.2056 136.185 35.2013 136.185Z" fill="#437CEF"/>
<path d="M48.7181 114.77C48.6899 114.77 48.6615 114.763 48.6357 114.747L44.3644 112.126C44.2899 112.08 44.2669 111.983 44.3124 111.908C44.358 111.834 44.4551 111.811 44.5295 111.856L48.8009 114.478C48.8753 114.524 48.8983 114.621 48.8529 114.695C48.8229 114.744 48.7711 114.77 48.7181 114.77Z" fill="#D89577"/>
<path d="M31.9331 114.357C31.895 114.357 31.8569 114.343 31.8265 114.316C31.8201 114.31 31.1809 113.735 30.6542 114.046C30.5788 114.09 30.4823 114.065 30.438 113.99C30.3936 113.915 30.4186 113.818 30.4936 113.774C31.2226 113.343 32.0071 114.053 32.0401 114.083C32.1042 114.142 32.1082 114.242 32.0494 114.306C32.0183 114.34 31.9758 114.357 31.9331 114.357Z" fill="#D89577"/>
<path d="M31.7357 115.321C31.7113 115.321 31.6865 115.315 31.6633 115.303C31.6508 115.297 31.005 114.975 30.4569 115.299C30.3814 115.344 30.285 115.319 30.2407 115.244C30.1964 115.169 30.2212 115.072 30.2963 115.028C30.9998 114.612 31.776 115.006 31.8088 115.023C31.8862 115.063 31.9162 115.159 31.8761 115.236C31.8477 115.29 31.7927 115.321 31.7357 115.321Z" fill="#D89577"/>
<path opacity="0.6" d="M193.552 0C180.192 13.1127 150.207 15.1525 150.207 15.1525C150.207 73.1402 193.552 104.028 193.552 104.028C193.552 104.028 236.897 73.1402 236.897 15.1525C236.897 15.1525 206.912 13.1127 193.552 0Z" fill="#DAEEFE"/>
<path opacity="0.4" d="M193.553 91.4309C189.748 87.8889 184.481 82.41 179.271 75.1151C173.6 67.1745 169.091 58.6442 165.868 49.7607C162.82 41.3572 160.917 32.596 160.184 23.6188C162.815 23.1951 165.848 22.6266 169.069 21.8712C178.999 19.5432 187.195 16.3051 193.553 12.2075C199.91 16.3053 208.107 19.5432 218.036 21.8712C221.258 22.6266 224.29 23.1951 226.922 23.6188C226.189 32.5958 224.285 41.3572 221.237 49.7607C218.014 58.644 213.505 67.1745 207.834 75.1151C202.624 82.41 197.357 87.8889 193.553 91.4309Z" fill="white"/>
<path d="M193.552 12.2076C199.91 16.3054 208.106 19.5432 218.036 21.8713C221.258 22.6266 224.29 23.1952 226.921 23.6188C226.188 32.5958 224.285 41.3572 221.236 49.7607C218.014 58.644 213.505 67.1746 207.833 75.1149C202.623 82.4099 197.356 87.8888 193.552 91.4307C189.747 87.8888 184.48 82.4099 179.27 75.1149C173.599 67.1744 169.09 58.644 165.867 49.7607C162.819 41.3574 160.916 32.596 160.183 23.6188C162.814 23.1952 165.847 22.6266 169.068 21.8713C178.998 19.5432 187.194 16.3052 193.552 12.2076ZM193.552 11.0615L193.03 11.3978C186.774 15.4301 178.638 18.6382 168.848 20.9333C166.008 21.5993 163.041 22.1827 160.03 22.6677L159.15 22.8093L159.223 23.697C159.962 32.7485 161.893 41.628 164.962 50.0889C168.214 59.0548 172.765 67.6629 178.487 75.6745C183.853 83.1889 189.285 88.7738 192.896 92.1357L193.552 92.7467L194.208 92.1357C197.82 88.7738 203.251 83.1889 208.617 75.6745C214.339 67.6629 218.89 59.0546 222.142 50.0889C225.211 41.628 227.142 32.7485 227.881 23.697L227.954 22.8093L227.074 22.6677C224.063 22.1829 221.097 21.5995 218.256 20.9335C208.466 18.6382 200.33 15.4299 194.074 11.3978L193.552 11.0615Z" fill="white"/>
<path opacity="0.9" d="M193.553 87.4293C190.218 84.1426 185.901 79.426 181.623 73.4359C176.105 65.709 171.718 57.4121 168.585 48.7756C165.931 41.458 164.161 33.8136 163.314 26.0148C165.497 25.6188 167.646 25.1735 169.729 24.685C179.162 22.4735 187.165 19.4232 193.553 15.6079C199.941 19.4232 207.945 22.4735 217.378 24.685C219.461 25.1735 221.61 25.6188 223.792 26.0148C222.945 33.8136 221.176 41.458 218.522 48.7756C215.389 57.4121 211.002 65.709 205.484 73.4359C201.205 79.4258 196.888 84.1424 193.553 87.4293Z" fill="#4880F4"/>
<path d="M193.555 84.699C193.555 79.3992 193.555 19.9294 193.555 17.8384C199.94 21.4854 207.8 24.4177 216.939 26.5601C218.48 26.9214 220.065 27.2613 221.67 27.5747C220.775 34.6062 219.109 41.5083 216.712 48.1182C213.639 56.5896 209.334 64.7308 203.917 72.3156C200.778 76.711 197.298 80.8694 193.555 84.699Z" fill="#3C79E5"/>
<path d="M202.906 39.8825H201.118V37.722C201.118 33.5519 197.726 30.1562 193.552 30.1562C189.382 30.1562 185.986 33.5517 185.986 37.722V39.8825H184.199C182.612 39.8825 181.322 41.172 181.322 42.7588V60.0253C181.322 61.6163 182.612 62.9059 184.199 62.9059H202.905C204.497 62.9059 205.782 61.6163 205.782 60.0253V42.7588C205.782 41.172 204.497 39.8825 202.906 39.8825ZM194.632 50.3287V53.8582C194.632 54.4569 194.151 54.9383 193.552 54.9383C192.958 54.9383 192.472 54.4569 192.472 53.8582V50.3287C191.831 49.9561 191.396 49.2611 191.396 48.4656C191.396 47.2723 192.363 46.3051 193.552 46.3051C194.745 46.3051 195.712 47.2723 195.712 48.4656C195.713 49.2611 195.277 49.9561 194.632 50.3287ZM188.172 39.8825V37.722C188.172 34.7577 190.584 32.3419 193.552 32.3419C196.521 32.3419 198.936 34.7577 198.936 37.722V39.8825H188.172Z" fill="url(#paint0_linear_3906_3290)"/>
<path d="M193.553 30.1564C197.728 30.1564 201.119 33.5519 201.119 37.7222V39.8827H202.907C204.498 39.8827 205.783 41.1722 205.783 42.759V60.0255C205.783 61.6165 204.498 62.906 202.907 62.906H184.2C182.613 62.906 181.324 61.6165 181.324 60.0255V42.759C181.324 41.1722 182.613 39.8827 184.2 39.8827H185.988V37.7222C185.988 33.5521 189.383 30.1564 193.553 30.1564ZM188.173 39.8825H198.938V37.722C198.938 34.7577 196.522 32.3417 193.553 32.3417C190.585 32.3417 188.173 34.7575 188.173 37.722V39.8825ZM193.553 54.9385C194.152 54.9385 194.633 54.4569 194.633 53.8584V50.3289C195.278 49.9563 195.714 49.2613 195.714 48.4658C195.714 47.2725 194.747 46.3053 193.554 46.3053C192.364 46.3053 191.397 47.2725 191.397 48.4658C191.397 49.2613 191.833 49.9563 192.473 50.3289V53.8584C192.473 54.4569 192.959 54.9385 193.553 54.9385ZM193.553 29.9639C189.275 29.9639 185.795 33.4443 185.795 37.7222V39.6899H184.2C182.508 39.6899 181.131 41.0666 181.131 42.759V60.0255C181.131 61.7201 182.508 63.0988 184.2 63.0988H202.907C204.599 63.0988 205.976 61.7203 205.976 60.0255V42.759C205.976 41.0668 204.599 39.6899 202.907 39.6899H201.312V37.7222C201.312 33.4443 197.831 29.9639 193.553 29.9639ZM188.366 39.6899V37.7222C188.366 34.8617 190.693 32.5347 193.553 32.5347C196.416 32.5347 198.745 34.8617 198.745 37.7222V39.6899H188.366ZM193.553 54.7459C193.064 54.7459 192.666 54.3477 192.666 53.8584V50.3289V50.2181L192.57 50.1623C191.965 49.8108 191.59 49.1606 191.59 48.4658C191.59 47.3807 192.471 46.4981 193.554 46.4981C194.638 46.4981 195.521 47.3807 195.521 48.4658C195.521 49.1614 195.144 49.8114 194.537 50.1621L194.441 50.2177V50.3289V53.8584C194.441 54.3477 194.043 54.7459 193.553 54.7459Z" fill="url(#paint1_linear_3906_3290)"/>
<path d="M98.9765 108.803V111.023H101.397V111.738H98.9765V114.025H101.683V114.74H98.1094V108.089H101.683V108.804H98.9765V108.803Z" fill="#393947"/>
<path d="M107.086 109.999C107.48 110.384 107.677 110.938 107.677 111.662V114.74H106.819V111.786C106.819 111.265 106.689 110.866 106.428 110.59C106.168 110.314 105.812 110.176 105.361 110.176C104.904 110.176 104.54 110.319 104.27 110.605C104 110.89 103.865 111.306 103.865 111.853V114.74H102.998V109.518H103.865V110.261C104.037 109.995 104.27 109.788 104.566 109.642C104.861 109.496 105.186 109.423 105.542 109.423C106.178 109.423 106.692 109.615 107.086 109.999Z" fill="#393947"/>
<path d="M110.153 110.232V113.31C110.153 113.564 110.207 113.744 110.315 113.848C110.423 113.953 110.61 114.006 110.877 114.006H111.516V114.739H110.734C110.251 114.739 109.889 114.628 109.648 114.406C109.407 114.183 109.286 113.818 109.286 113.31V110.232H108.609V109.517H109.286V108.202H110.153V109.517H111.516V110.232H110.153V110.232Z" fill="#393947"/>
<path d="M117.3 112.453H113.126C113.158 112.968 113.334 113.369 113.655 113.658C113.976 113.948 114.365 114.092 114.823 114.092C115.197 114.092 115.51 114.005 115.761 113.83C116.012 113.655 116.188 113.422 116.29 113.13H117.224C117.084 113.632 116.805 114.04 116.385 114.354C115.966 114.669 115.445 114.826 114.823 114.826C114.327 114.826 113.884 114.715 113.493 114.492C113.103 114.27 112.796 113.954 112.574 113.544C112.351 113.135 112.24 112.66 112.24 112.12C112.24 111.58 112.348 111.107 112.564 110.7C112.78 110.293 113.084 109.981 113.474 109.761C113.865 109.542 114.314 109.433 114.823 109.433C115.318 109.433 115.756 109.541 116.138 109.757C116.519 109.973 116.813 110.27 117.019 110.647C117.225 111.025 117.329 111.453 117.329 111.929C117.329 112.094 117.319 112.269 117.3 112.453ZM116.214 110.895C116.068 110.657 115.869 110.476 115.618 110.352C115.367 110.228 115.09 110.166 114.785 110.166C114.346 110.166 113.973 110.306 113.665 110.585C113.357 110.865 113.18 111.252 113.136 111.748H116.433C116.433 111.418 116.36 111.133 116.214 110.895Z" fill="#393947"/>
<path d="M119.992 109.671C120.275 109.506 120.62 109.423 121.026 109.423V110.319H120.798C119.826 110.319 119.34 110.846 119.34 111.901V114.74H118.473V109.518H119.34V110.366C119.492 110.068 119.71 109.836 119.992 109.671Z" fill="#393947"/>
<path d="M129.22 108.098L127.057 112.233V114.739H126.19V112.233L124.018 108.098H124.98L126.619 111.461L128.258 108.098H129.22Z" fill="#393947"/>
<path d="M131.083 114.492C130.686 114.27 130.374 113.954 130.149 113.544C129.923 113.135 129.811 112.66 129.811 112.12C129.811 111.586 129.926 111.114 130.158 110.705C130.39 110.295 130.706 109.981 131.106 109.761C131.507 109.542 131.955 109.433 132.45 109.433C132.946 109.433 133.393 109.542 133.794 109.761C134.194 109.981 134.51 110.293 134.742 110.7C134.974 111.107 135.09 111.58 135.09 112.12C135.09 112.66 134.97 113.135 134.732 113.544C134.494 113.954 134.172 114.27 133.765 114.492C133.358 114.715 132.907 114.826 132.412 114.826C131.923 114.826 131.479 114.715 131.083 114.492ZM133.288 113.844C133.561 113.698 133.782 113.479 133.951 113.187C134.119 112.895 134.203 112.539 134.203 112.119C134.203 111.7 134.121 111.345 133.955 111.052C133.79 110.76 133.574 110.543 133.307 110.4C133.041 110.257 132.751 110.185 132.44 110.185C132.122 110.185 131.832 110.257 131.568 110.4C131.305 110.543 131.093 110.76 130.935 111.052C130.776 111.345 130.697 111.7 130.697 112.119C130.697 112.545 130.774 112.904 130.93 113.196C131.086 113.489 131.294 113.706 131.554 113.849C131.815 113.992 132.1 114.063 132.412 114.063C132.723 114.063 133.015 113.991 133.288 113.844Z" fill="#393947"/>
<path d="M140.866 109.518V114.74H139.999V113.968C139.834 114.234 139.604 114.443 139.308 114.592C139.013 114.741 138.687 114.816 138.331 114.816C137.925 114.816 137.56 114.732 137.236 114.563C136.912 114.395 136.656 114.142 136.469 113.806C136.281 113.469 136.188 113.059 136.188 112.577V109.518H137.045V112.462C137.045 112.977 137.175 113.372 137.436 113.649C137.696 113.925 138.052 114.063 138.503 114.063C138.967 114.063 139.332 113.92 139.599 113.634C139.866 113.349 139.999 112.933 139.999 112.386V109.518H140.866V109.518Z" fill="#393947"/>
<path d="M143.852 109.671C144.134 109.506 144.479 109.423 144.886 109.423V110.319H144.657C143.685 110.319 143.199 110.846 143.199 111.901V114.74H142.332V109.518H143.199V110.366C143.352 110.068 143.569 109.836 143.852 109.671Z" fill="#393947"/>
<path d="M149.756 114.373C149.248 114.084 148.846 113.68 148.551 113.163C148.255 112.645 148.107 112.062 148.107 111.414C148.107 110.766 148.255 110.183 148.551 109.665C148.846 109.147 149.248 108.744 149.756 108.455C150.264 108.166 150.826 108.021 151.443 108.021C152.065 108.021 152.63 108.166 153.139 108.455C153.647 108.744 154.047 109.146 154.339 109.66C154.632 110.175 154.778 110.759 154.778 111.414C154.778 112.068 154.632 112.652 154.339 113.167C154.047 113.682 153.647 114.083 153.139 114.372C152.63 114.661 152.065 114.806 151.443 114.806C150.826 114.806 150.264 114.662 149.756 114.373ZM152.695 113.73C153.067 113.514 153.359 113.205 153.572 112.805C153.785 112.405 153.891 111.941 153.891 111.414C153.891 110.88 153.785 110.415 153.572 110.018C153.359 109.621 153.069 109.315 152.7 109.099C152.332 108.883 151.912 108.774 151.442 108.774C150.972 108.774 150.553 108.883 150.185 109.099C149.816 109.315 149.525 109.621 149.313 110.018C149.1 110.415 148.993 110.881 148.993 111.414C148.993 111.941 149.1 112.405 149.313 112.805C149.525 113.206 149.818 113.514 150.189 113.73C150.561 113.946 150.979 114.053 151.442 114.053C151.906 114.053 152.324 113.946 152.695 113.73Z" fill="#393947"/>
<path d="M160.007 108.098V108.803H158.197V114.739H157.33V108.803H155.51V108.098H160.007Z" fill="#393947"/>
<path d="M164.95 111.418C164.572 111.784 163.995 111.966 163.22 111.966H161.943V114.739H161.076V108.098H163.22C163.97 108.098 164.54 108.279 164.931 108.641C165.321 109.003 165.517 109.47 165.517 110.042C165.517 110.594 165.328 111.053 164.95 111.418ZM164.287 110.937C164.516 110.727 164.63 110.429 164.63 110.042C164.63 109.222 164.16 108.812 163.22 108.812H161.943V111.252H163.22C163.703 111.252 164.059 111.147 164.287 110.937Z" fill="#393947"/>
<path d="M93.25 135H82.75C81.7835 135 81 134.217 81 133.25V122.75C81 121.783 81.7835 121 82.75 121H93.25C94.2165 121 95 121.783 95 122.75V133.25C95 134.216 94.2165 135 93.25 135Z" fill="#DAEEFE" stroke="#4880F4" stroke-miterlimit="10"/>
<path d="M91.1197 125.398L91.9062 126.817L88.8701 128.085L91.9278 129.329L91.0978 130.792L88.4554 128.87L88.8045 132.168H87.1668L87.4943 128.87L84.8514 130.814L84 129.329L87.0358 128.062L84 126.839L84.8078 125.376L87.516 127.32L87.1668 124H88.8264L88.4554 127.32L91.1197 125.398Z" fill="#4880F4"/>
<path d="M110.25 135H99.75C98.7835 135 98 134.217 98 133.25V122.75C98 121.783 98.7835 121 99.75 121H110.25C111.217 121 112 121.783 112 122.75V133.25C112 134.216 111.217 135 110.25 135Z" fill="#DAEEFE" stroke="#4880F4" stroke-miterlimit="10"/>
<path d="M108.12 125.398L108.906 126.817L105.87 128.085L108.928 129.329L108.098 130.792L105.455 128.87L105.805 132.168H104.167L104.494 128.87L101.851 130.814L101 129.329L104.036 128.062L101 126.839L101.808 125.376L104.516 127.32L104.167 124H105.826L105.455 127.32L108.12 125.398Z" fill="#4880F4"/>
<path d="M127.25 135H116.75C115.783 135 115 134.217 115 133.25V122.75C115 121.783 115.783 121 116.75 121H127.25C128.217 121 129 121.783 129 122.75V133.25C129 134.216 128.217 135 127.25 135Z" fill="#DAEEFE" stroke="#4880F4" stroke-miterlimit="10"/>
<path d="M125.12 125.398L125.906 126.817L122.87 128.085L125.928 129.329L125.098 130.792L122.455 128.87L122.805 132.168H121.167L121.494 128.87L118.851 130.814L118 129.329L121.036 128.062L118 126.839L118.808 125.376L121.516 127.32L121.167 124H122.826L122.455 127.32L125.12 125.398Z" fill="#4880F4"/>
<path d="M144.25 135H133.75C132.783 135 132 134.217 132 133.25V122.75C132 121.783 132.783 121 133.75 121H144.25C145.217 121 146 121.783 146 122.75V133.25C146 134.216 145.217 135 144.25 135Z" fill="#DAEEFE" stroke="#4880F4" stroke-miterlimit="10"/>
<path d="M142.12 125.398L142.906 126.817L139.87 128.085L142.928 129.329L142.098 130.792L139.455 128.87L139.805 132.168H138.167L138.494 128.87L135.851 130.814L135 129.329L138.036 128.062L135 126.839L135.808 125.376L138.516 127.32L138.167 124H139.826L139.455 127.32L142.12 125.398Z" fill="#4880F4"/>
<path d="M161.25 135H150.75C149.783 135 149 134.217 149 133.25V122.75C149 121.783 149.783 121 150.75 121H161.25C162.217 121 163 121.783 163 122.75V133.25C163 134.216 162.217 135 161.25 135Z" fill="#DAEEFE" stroke="#4880F4" stroke-miterlimit="10"/>
<path d="M159.12 125.398L159.906 126.817L156.87 128.085L159.928 129.329L159.098 130.792L156.455 128.87L156.805 132.168H155.167L155.494 128.87L152.851 130.814L152 129.329L155.036 128.062L152 126.839L152.808 125.376L155.516 127.32L155.167 124H156.826L156.455 127.32L159.12 125.398Z" fill="#4880F4"/>
<path d="M178.25 135H167.75C166.783 135 166 134.217 166 133.25V122.75C166 121.783 166.783 121 167.75 121H178.25C179.217 121 180 121.783 180 122.75V133.25C180 134.216 179.217 135 178.25 135Z" fill="#DAEEFE" stroke="#4880F4" stroke-miterlimit="10"/>
<path d="M176.12 125.398L176.906 126.817L173.87 128.085L176.928 129.329L176.098 130.792L173.455 128.87L173.805 132.168H172.167L172.494 128.87L169.851 130.814L169 129.329L172.036 128.062L169 126.839L169.808 125.376L172.516 127.32L172.167 124H173.826L173.455 127.32L176.12 125.398Z" fill="#4880F4"/>
<path d="M167.513 231.471H95.7246C94.7171 231.471 93.9004 230.654 93.9004 229.647V217.414C93.9004 216.407 94.7171 215.59 95.7246 215.59H167.513C168.521 215.59 169.337 216.407 169.337 217.414V229.647C169.337 230.654 168.521 231.471 167.513 231.471Z" fill="#4880F4"/>
<path d="M111.331 221.993C111.597 221.541 111.957 221.188 112.412 220.934C112.867 220.68 113.365 220.553 113.907 220.553C114.527 220.553 115.078 220.705 115.561 221.009C116.044 221.314 116.395 221.745 116.612 222.303H115.465C115.314 221.996 115.105 221.767 114.837 221.617C114.569 221.466 114.259 221.39 113.907 221.39C113.522 221.39 113.178 221.477 112.877 221.65C112.575 221.823 112.339 222.072 112.169 222.396C111.998 222.719 111.913 223.096 111.913 223.527C111.913 223.957 111.998 224.334 112.169 224.657C112.339 224.981 112.575 225.231 112.877 225.407C113.178 225.583 113.522 225.671 113.907 225.671C114.259 225.671 114.569 225.596 114.837 225.445C115.105 225.294 115.314 225.065 115.465 224.758H116.612C116.395 225.316 116.044 225.746 115.561 226.048C115.078 226.349 114.527 226.5 113.907 226.5C113.36 226.5 112.86 226.373 112.408 226.119C111.955 225.865 111.597 225.512 111.331 225.059C111.066 224.607 110.934 224.096 110.934 223.527C110.934 222.957 111.066 222.446 111.331 221.993Z" fill="white"/>
<path d="M118.887 226.128C118.431 225.874 118.071 225.519 117.806 225.064C117.541 224.609 117.408 224.097 117.408 223.527C117.408 222.958 117.541 222.447 117.806 221.994C118.071 221.542 118.431 221.189 118.887 220.935C119.342 220.681 119.84 220.554 120.382 220.554C120.929 220.554 121.43 220.681 121.885 220.935C122.34 221.189 122.699 221.542 122.962 221.994C123.224 222.447 123.355 222.958 123.355 223.527C123.355 224.097 123.224 224.609 122.962 225.064C122.699 225.519 122.34 225.874 121.885 226.128C121.43 226.382 120.929 226.509 120.382 226.509C119.84 226.509 119.342 226.382 118.887 226.128ZM121.412 225.416C121.714 225.24 121.95 224.989 122.12 224.662C122.29 224.335 122.375 223.957 122.375 223.527C122.375 223.097 122.29 222.72 122.12 222.396C121.949 222.072 121.714 221.824 121.412 221.651C121.111 221.478 120.767 221.391 120.382 221.391C119.996 221.391 119.653 221.478 119.351 221.651C119.05 221.824 118.814 222.072 118.644 222.396C118.473 222.72 118.388 223.097 118.388 223.527C118.388 223.957 118.473 224.335 118.644 224.662C118.814 224.989 119.05 225.24 119.351 225.416C119.653 225.592 119.996 225.68 120.382 225.68C120.767 225.68 121.111 225.592 121.412 225.416Z" fill="white"/>
<path d="M129.076 226.45H128.121L125.248 222.103V226.45H124.293V220.62H125.248L128.121 224.959V220.62H129.076V226.45Z" fill="white"/>
<path d="M134.094 220.629V221.408H132.544V226.45H131.589V221.408H130.031V220.629H134.094Z" fill="white"/>
<path d="M136.012 220.629V226.45H135.057V220.629H136.012Z" fill="white"/>
<path d="M142.049 226.45H141.094L138.22 222.103V226.45H137.266V220.62H138.22L141.094 224.959V220.62H142.049V226.45Z" fill="white"/>
<path d="M144.254 220.629V224.339C144.254 224.781 144.37 225.113 144.601 225.336C144.833 225.56 145.156 225.671 145.569 225.671C145.988 225.671 146.313 225.56 146.545 225.336C146.776 225.113 146.892 224.781 146.892 224.339V220.629H147.847V224.323C147.847 224.797 147.744 225.2 147.537 225.529C147.331 225.858 147.054 226.104 146.708 226.266C146.362 226.428 145.979 226.509 145.561 226.509C145.142 226.509 144.761 226.428 144.417 226.266C144.074 226.104 143.801 225.858 143.6 225.529C143.399 225.2 143.299 224.797 143.299 224.323V220.629H144.254Z" fill="white"/>
<path d="M150.041 221.399V223.108H152.051V223.887H150.041V225.671H152.302V226.45H149.086V220.62H152.302V221.399H150.041Z" fill="white"/>
<path d="M102.129 51.1582H56.2397C54.1215 51.1582 52.4043 52.8754 52.4043 54.9936V89.512V97.1827L60.0751 89.512H102.129C104.247 89.512 105.964 87.7948 105.964 85.6766V54.9936C105.964 52.8754 104.247 51.1582 102.129 51.1582Z" fill="#FFEB2E"/>
<path d="M78.701 57.8655C78.6295 57.7942 78.5938 57.7069 78.5938 57.6036C78.5938 57.5002 78.6295 57.413 78.701 57.3416C78.7724 57.2701 78.8598 57.2344 78.963 57.2344C79.0621 57.2344 79.1466 57.2701 79.2161 57.3416C79.2856 57.413 79.3203 57.5004 79.3203 57.6036C79.3203 57.7069 79.2856 57.7942 79.2161 57.8655C79.1466 57.9369 79.0623 57.9727 78.963 57.9727C78.8598 57.9727 78.7724 57.9371 78.701 57.8655ZM79.2252 58.5027V61.7664H78.6833V58.5027H79.2252Z" fill="#3D4144"/>
<path d="M80.6318 61.692C80.4332 61.6067 80.2764 61.4876 80.1613 61.3347C80.0459 61.182 79.9826 61.0061 79.9707 60.8076H80.5305C80.5464 60.9704 80.6228 61.1034 80.7598 61.2066C80.8968 61.3101 81.0765 61.3615 81.2988 61.3615C81.5053 61.3615 81.668 61.316 81.7871 61.2245C81.9063 61.1334 81.9658 61.0183 81.9658 60.8793C81.9658 60.7362 81.9023 60.6301 81.7752 60.5605C81.6482 60.491 81.4517 60.4227 81.1856 60.355C80.9434 60.2917 80.7459 60.2272 80.593 60.1614C80.4402 60.0959 80.3092 59.9987 80.2 59.8696C80.0908 59.7406 80.0362 59.5709 80.0362 59.3604C80.0362 59.1937 80.0858 59.041 80.1851 58.9018C80.2844 58.7629 80.4253 58.6527 80.6079 58.5713C80.7904 58.4899 80.999 58.4492 81.2333 58.4492C81.5946 58.4492 81.8864 58.5405 82.1087 58.7232C82.3311 58.9058 82.4502 59.1561 82.4661 59.4736H81.9241C81.9122 59.3029 81.8437 59.1659 81.7187 59.0626C81.5936 58.9594 81.4258 58.9078 81.2154 58.9078C81.0209 58.9078 80.866 58.9495 80.7509 59.0331C80.6357 59.1164 80.5782 59.2256 80.5782 59.3604C80.5782 59.4676 80.6129 59.556 80.6824 59.6255C80.7519 59.6951 80.8392 59.7505 80.9444 59.7922C81.0496 59.8339 81.1956 59.8805 81.3822 59.9322C81.6164 59.9957 81.807 60.0584 81.9539 60.1198C82.1008 60.1815 82.2269 60.2736 82.3321 60.3967C82.4371 60.5198 82.4919 60.6808 82.4959 60.8793C82.4959 61.0578 82.4462 61.2188 82.347 61.3617C82.2477 61.5046 82.1078 61.6168 81.9271 61.6982C81.7462 61.7794 81.539 61.8201 81.3047 61.8201C81.0546 61.8199 80.8303 61.7772 80.6318 61.692Z" fill="#3D4144"/>
<path d="M87.6591 58.5029L85.6937 63.3033H85.1339L85.7771 61.731L84.4609 58.5029H85.0624L86.0868 61.1472L87.0992 58.5029H87.6591Z" fill="#3D4144"/>
<path d="M88.7931 61.6114C88.545 61.4727 88.3502 61.2751 88.2095 61.019C88.0685 60.763 87.998 60.4662 87.998 60.1287C87.998 59.7952 88.0705 59.5004 88.2154 59.2443C88.3603 58.9882 88.5579 58.7917 88.808 58.6547C89.0581 58.5177 89.338 58.4492 89.6477 58.4492C89.9574 58.4492 90.2373 58.5177 90.4875 58.6547C90.7376 58.7915 90.9349 58.9872 91.0801 59.2413C91.225 59.4954 91.2974 59.7912 91.2974 60.1287C91.2974 60.4662 91.223 60.763 91.0741 61.019C90.9252 61.2751 90.7235 61.4727 90.4696 61.6114C90.2155 61.7504 89.9336 61.8199 89.6239 61.8199C89.3182 61.8199 89.0413 61.7506 88.7931 61.6114ZM90.172 61.2064C90.3425 61.1151 90.4807 60.9783 90.5859 60.7957C90.691 60.6131 90.7438 60.3907 90.7438 60.1287C90.7438 59.8666 90.6921 59.6443 90.5889 59.4617C90.4857 59.2792 90.3507 59.1432 90.1839 59.0537C90.0172 58.9644 89.8365 58.9197 89.642 58.9197C89.4435 58.9197 89.2618 58.9644 89.097 59.0537C88.9321 59.143 88.8001 59.2792 88.701 59.4617C88.6017 59.6445 88.5521 59.8666 88.5521 60.1287C88.5521 60.3947 88.6007 60.6192 88.698 60.8017C88.7953 60.9845 88.9253 61.1205 89.0881 61.2098C89.2509 61.299 89.4296 61.3438 89.6241 61.3438C89.8185 61.3436 90.0011 61.298 90.172 61.2064Z" fill="#3D4144"/>
<path d="M94.9066 58.5024V61.766H94.3646V61.2836C94.2612 61.4503 94.1175 61.5804 93.9329 61.6737C93.7482 61.767 93.5448 61.8136 93.3224 61.8136C93.0683 61.8136 92.84 61.761 92.6375 61.6558C92.435 61.5506 92.2752 61.3928 92.1581 61.1821C92.041 60.9717 91.9824 60.7156 91.9824 60.4141V58.5021H92.5184V60.3424C92.5184 60.664 92.5998 60.9112 92.7626 61.0839C92.9254 61.2564 93.1477 61.3429 93.4296 61.3429C93.7195 61.3429 93.9478 61.2536 94.1145 61.0748C94.2813 60.8963 94.3646 60.6362 94.3646 60.2946V58.502H94.9066V58.5024Z" fill="#3D4144"/>
<path d="M96.7722 58.5982C96.9489 58.4952 97.1643 58.4434 97.4184 58.4434V59.0032H97.2754C96.668 59.0032 96.3642 59.3327 96.3642 59.9918V61.7666H95.8223V58.5029H96.3642V59.0332C96.4595 58.8464 96.5955 58.7014 96.7722 58.5982Z" fill="#3D4144"/>
<path d="M60.9737 68.6844C60.656 68.504 60.4049 68.2516 60.2203 67.9281C60.0357 67.6045 59.9434 67.2402 59.9434 66.8352C59.9434 66.4302 60.0357 66.066 60.2203 65.7424C60.4049 65.4188 60.656 65.1667 60.9737 64.9858C61.2913 64.8052 61.6427 64.7148 62.0278 64.7148C62.4169 64.7148 62.7703 64.8052 63.0879 64.9858C63.4055 65.1665 63.6557 65.4176 63.8383 65.7392C64.0207 66.0608 64.1122 66.4263 64.1122 66.8352C64.1122 67.244 64.0209 67.6092 63.8383 67.9308C63.6557 68.2524 63.4055 68.5038 63.0879 68.6842C62.7703 68.8649 62.4169 68.9552 62.0278 68.9552C61.6427 68.9556 61.2913 68.8653 60.9737 68.6844ZM62.811 68.2826C63.0432 68.1476 63.2259 67.9551 63.3589 67.7049C63.4919 67.4548 63.5584 67.165 63.5584 66.8354C63.5584 66.5017 63.4919 66.2109 63.3589 65.9627C63.2259 65.7148 63.0442 65.523 62.8139 65.388C62.5836 65.253 62.3216 65.1853 62.0278 65.1853C61.734 65.1853 61.4719 65.253 61.2417 65.388C61.0114 65.523 60.8297 65.7146 60.6967 65.9627C60.5637 66.2109 60.4972 66.5017 60.4972 66.8354C60.4972 67.165 60.5637 67.4548 60.6967 67.7049C60.8297 67.9551 61.0124 68.1476 61.2446 68.2826C61.4769 68.4176 61.738 68.4849 62.0278 68.4849C62.3176 68.4849 62.5787 68.4176 62.811 68.2826Z" fill="#3D4144"/>
<path d="M67.3835 64.7627V65.2034H66.2519V68.9137H65.7098V65.2034H64.5723V64.7627H67.3835Z" fill="#3D4144"/>
<path d="M70.4717 66.8382C70.2355 67.0665 69.8752 67.1806 69.3908 67.1806H68.5927V68.9137H68.0508V64.7627H69.3908C69.8593 64.7627 70.2156 64.8758 70.4598 65.1022C70.704 65.3287 70.8261 65.6203 70.8261 65.9776C70.8261 66.323 70.708 66.6099 70.4717 66.8382ZM70.0578 66.5375C70.2007 66.4064 70.2722 66.2196 70.2722 65.9776C70.2722 65.4654 69.9784 65.2094 69.3908 65.2094H68.5927V66.734H69.3908C69.6925 66.7338 69.9149 66.6685 70.0578 66.5375Z" fill="#3D4144"/>
<path d="M75.6448 65.9502C75.8909 66.1904 76.014 66.5368 76.014 66.9892V68.9128H75.478V67.0666C75.478 66.741 75.3966 66.4917 75.2338 66.319C75.0711 66.1465 74.8487 66.0599 74.5668 66.0599C74.281 66.0599 74.0537 66.1493 73.8849 66.3281C73.7162 66.5066 73.6318 66.7669 73.6318 67.1083V68.9128H73.0898V65.6492H73.6318V66.1139C73.739 65.947 73.8849 65.8181 74.0695 65.7268C74.2542 65.6355 74.4576 65.5898 74.68 65.5898C75.0768 65.5898 75.3984 65.7099 75.6448 65.9502Z" fill="#3D4144"/>
<path d="M79.7933 65.6498V68.9135H79.2514V68.431C79.1479 68.5978 79.0042 68.7278 78.8196 68.8211C78.635 68.9144 78.4315 68.9611 78.2091 68.9611C77.955 68.9611 77.7268 68.9085 77.5243 68.8033C77.3218 68.6981 77.162 68.5402 77.0448 68.3296C76.9277 68.1192 76.8691 67.8631 76.8691 67.5615V65.6496H77.4051V67.4899C77.4051 67.8115 77.4865 68.0586 77.6493 68.2313C77.8121 68.4039 78.0345 68.4904 78.3163 68.4904C78.606 68.4904 78.8345 68.4011 79.0012 68.2222C79.168 68.0438 79.2514 67.7837 79.2514 67.442V65.6494H79.7933V65.6498Z" fill="#3D4144"/>
<path d="M85.3165 65.7479C85.5151 65.8531 85.6717 66.0109 85.787 66.2215C85.9022 66.432 85.9597 66.6881 85.9597 66.9896V68.9132H85.4237V67.067C85.4237 66.7414 85.3433 66.4921 85.1825 66.3194C85.0217 66.1469 84.8044 66.0603 84.5304 66.0603C84.2485 66.0603 84.0242 66.1507 83.8574 66.3313C83.6907 66.512 83.6073 66.773 83.6073 67.1145V68.913H83.0713V67.0668C83.0713 66.7413 82.9909 66.4919 82.8301 66.3192C82.6693 66.1467 82.4519 66.0601 82.178 66.0601C81.8961 66.0601 81.6717 66.1505 81.505 66.3311C81.3382 66.5118 81.2548 66.7728 81.2548 67.1143V68.9128H80.7129V65.6492H81.2548V66.1197C81.362 65.9492 81.506 65.8181 81.6866 65.7268C81.8673 65.6355 82.0668 65.5898 82.2852 65.5898C82.5591 65.5898 82.8013 65.6514 83.0117 65.7747C83.2222 65.8978 83.379 66.0782 83.4822 66.3164C83.5735 66.0863 83.7244 65.9075 83.9348 65.7804C84.1453 65.6534 84.3795 65.5898 84.6376 65.5898C84.8917 65.5902 85.1178 65.6429 85.3165 65.7479Z" fill="#3D4144"/>
<path d="M87.8741 65.7806C88.0885 65.6577 88.3326 65.5959 88.6066 65.5959C88.9004 65.5959 89.1644 65.6656 89.3987 65.8044C89.6329 65.9433 89.8176 66.1391 89.9526 66.391C90.0875 66.6433 90.155 66.9359 90.155 67.2694C90.155 67.599 90.0875 67.893 89.9526 68.1509C89.8176 68.4089 89.6318 68.6094 89.3957 68.7524C89.1595 68.8953 88.8964 68.9666 88.6066 68.9666C88.3247 68.9666 88.0775 68.905 87.8651 68.782C87.6527 68.6591 87.4929 68.502 87.3857 68.3115V68.913H86.8438V64.5059H87.3857V66.2568C87.4967 66.0626 87.6597 65.9036 87.8741 65.7806ZM89.4523 66.6264C89.3528 66.4438 89.219 66.3048 89.0503 66.2094C88.8816 66.1143 88.6959 66.0664 88.4935 66.0664C88.2949 66.0664 88.1113 66.1151 87.9426 66.2121C87.7736 66.3096 87.6388 66.4504 87.5376 66.6352C87.4363 66.8198 87.3857 67.0332 87.3857 67.2754C87.3857 67.5216 87.4363 67.737 87.5376 67.9216C87.6388 68.1062 87.7738 68.2473 87.9426 68.3444C88.1113 68.4417 88.2947 68.4903 88.4935 68.4903C88.6959 68.4903 88.8816 68.4417 89.0503 68.3444C89.219 68.2473 89.353 68.1062 89.4523 67.9216C89.5513 67.737 89.6012 67.5198 89.6012 67.2694C89.6012 67.0235 89.5513 66.8091 89.4523 66.6264Z" fill="#3D4144"/>
<path d="M93.8304 67.4844H91.2218C91.2417 67.806 91.3519 68.0573 91.5524 68.2378C91.7529 68.4184 91.9961 68.5087 92.2819 68.5087C92.5162 68.5087 92.7117 68.4542 92.8686 68.345C93.0254 68.2358 93.1356 68.0901 93.1991 67.9072H93.7827C93.6954 68.2209 93.5207 68.476 93.2586 68.6727C92.9966 68.8693 92.671 68.9673 92.2819 68.9673C91.9722 68.9673 91.6953 68.8978 91.4511 68.7589C91.2069 68.6201 91.0154 68.4226 90.8764 68.1665C90.7375 67.9104 90.668 67.6136 90.668 67.2761C90.668 66.9389 90.7355 66.6429 90.8705 66.3888C91.0055 66.1347 91.195 65.9389 91.4392 65.8021C91.6834 65.6652 91.9643 65.5967 92.2819 65.5967C92.5916 65.5967 92.8656 65.6642 93.1038 65.7992C93.342 65.9344 93.5257 66.12 93.6547 66.3562C93.7837 66.5924 93.8482 66.8594 93.8482 67.1572C93.8482 67.2601 93.8421 67.369 93.8304 67.4844ZM93.1512 66.5105C93.0599 66.3616 92.9359 66.2486 92.779 66.171C92.6222 66.0936 92.4485 66.0549 92.2579 66.0549C91.984 66.0549 91.7507 66.1422 91.5581 66.3169C91.3656 66.4918 91.2554 66.7338 91.2276 67.0435H93.2882C93.2884 66.8372 93.2426 66.6593 93.1512 66.5105Z" fill="#3D4144"/>
<path d="M95.5144 65.7447C95.691 65.6417 95.9064 65.5898 96.1605 65.5898V66.1497H96.0176C95.4101 66.1497 95.1064 66.4792 95.1064 67.1383V68.913H94.5645V65.6494H95.1064V66.1796C95.2017 65.9928 95.3377 65.8479 95.5144 65.7447Z" fill="#3D4144"/>
<path d="M96.697 68.842C96.6256 68.7708 96.5898 68.6832 96.5898 68.5802C96.5898 68.4768 96.6256 68.3896 96.697 68.3181C96.7685 68.2467 96.8559 68.2109 96.9591 68.2109C97.0583 68.2109 97.1427 68.2467 97.2122 68.3181C97.2817 68.3896 97.3164 68.4769 97.3164 68.5802C97.3164 68.6832 97.2817 68.7708 97.2122 68.842C97.1427 68.9135 97.0583 68.9492 96.9591 68.9492C96.8559 68.9492 96.7685 68.9137 96.697 68.842Z" fill="#3D4144"/>
<path d="M62.6151 72.1621C62.9464 72.3308 63.2007 72.572 63.3774 72.8857C63.554 73.1994 63.6424 73.5686 63.6424 73.9934C63.6424 74.4185 63.554 74.7865 63.3774 75.0984C63.2007 75.4101 62.9466 75.6483 62.6151 75.813C62.2835 75.9778 61.8915 76.0602 61.4388 76.0602H60.1465V71.9092H61.4388C61.8915 71.9088 62.2833 71.9934 62.6151 72.1621ZM62.6655 75.1875C62.9474 74.9036 63.0883 74.5054 63.0883 73.9932C63.0883 73.4771 62.9464 73.0741 62.6625 72.7843C62.3786 72.4944 61.9707 72.3495 61.4386 72.3495H60.6882V75.6131H61.4386C61.9746 75.6133 62.3836 75.4714 62.6655 75.1875Z" fill="#3D4144"/>
<path d="M64.9494 75.9054C64.7012 75.7666 64.5065 75.5691 64.3657 75.313C64.2248 75.0569 64.1543 74.7601 64.1543 74.4226C64.1543 74.0891 64.2268 73.7943 64.3717 73.5382C64.5166 73.2821 64.7141 73.0856 64.9643 72.9486C65.2144 72.8117 65.4943 72.7432 65.804 72.7432C66.1137 72.7432 66.3936 72.8117 66.6437 72.9486C66.8939 73.0854 67.0912 73.2812 67.2363 73.5353C67.3812 73.7894 67.4537 74.0852 67.4537 74.4226C67.4537 74.7601 67.3792 75.0569 67.2303 75.313C67.0815 75.5691 66.8798 75.7666 66.6259 75.9054C66.3718 76.0443 66.0899 76.1138 65.7802 76.1138C65.4742 76.1138 65.1975 76.0445 64.9494 75.9054ZM66.3281 75.5004C66.4986 75.4091 66.6368 75.2723 66.742 75.0897C66.847 74.907 66.8998 74.6847 66.8998 74.4226C66.8998 74.1606 66.8482 73.9383 66.745 73.7556C66.6417 73.5732 66.5067 73.4372 66.34 73.3477C66.1732 73.2583 65.9926 73.2137 65.798 73.2137C65.5995 73.2137 65.4179 73.2583 65.2531 73.3477C65.0881 73.437 64.9561 73.5732 64.8571 73.7556C64.7578 73.9385 64.7082 74.1606 64.7082 74.4226C64.7082 74.6886 64.7568 74.9132 64.8541 75.0956C64.9514 75.2785 65.0814 75.4144 65.2442 75.5038C65.4069 75.5929 65.5856 75.6378 65.7802 75.6378C65.9745 75.6376 66.1574 75.5919 66.3281 75.5004Z" fill="#3D4144"/>
<path d="M72.3127 73.0966C72.5589 73.3368 72.682 73.6833 72.682 74.1357V76.0593H72.146V74.2131C72.146 73.8875 72.0646 73.6382 71.9018 73.4655C71.739 73.293 71.5167 73.2064 71.2348 73.2064C70.9489 73.2064 70.7216 73.2958 70.5529 73.4746C70.3841 73.6531 70.2998 73.9133 70.2998 74.2548V76.0593H69.7578V72.7957H70.2998V73.2604C70.407 73.0935 70.5529 72.9646 70.7375 72.8733C70.9221 72.782 71.1256 72.7363 71.3479 72.7363C71.745 72.7363 72.0664 72.8564 72.3127 73.0966Z" fill="#3D4144"/>
<path d="M74.1642 75.9054C73.9161 75.7666 73.7213 75.5691 73.5806 75.313C73.4396 75.0569 73.3691 74.7601 73.3691 74.4226C73.3691 74.0891 73.4416 73.7943 73.5865 73.5382C73.7314 73.2821 73.929 73.0856 74.1791 72.9486C74.4292 72.8117 74.7091 72.7432 75.0188 72.7432C75.3285 72.7432 75.6084 72.8117 75.8586 72.9486C76.1087 73.0854 76.306 73.2812 76.4511 73.5353C76.5961 73.7894 76.6685 74.0852 76.6685 74.4226C76.6685 74.7601 76.5941 75.0569 76.4452 75.313C76.2963 75.5691 76.0946 75.7666 75.8407 75.9054C75.5866 76.0443 75.3047 76.1138 74.995 76.1138C74.6891 76.1138 74.4124 76.0445 74.1642 75.9054ZM75.5429 75.5004C75.7134 75.4091 75.8516 75.2723 75.9568 75.0897C76.0618 74.907 76.1146 74.6847 76.1146 74.4226C76.1146 74.1606 76.063 73.9383 75.9598 73.7556C75.8566 73.5732 75.7216 73.4372 75.5548 73.3477C75.3881 73.2583 75.2074 73.2137 75.0129 73.2137C74.8143 73.2137 74.6327 73.2583 74.4679 73.3477C74.3032 73.437 74.171 73.5732 74.0719 73.7556C73.9726 73.9385 73.923 74.1606 73.923 74.4226C73.923 74.6886 73.9716 74.9132 74.0689 75.0956C74.1662 75.2785 74.2962 75.4144 74.459 75.5038C74.6218 75.5929 74.8005 75.6378 74.995 75.6378C75.1896 75.6376 75.3722 75.5919 75.5429 75.5004Z" fill="#3D4144"/>
<path d="M78.0429 73.2431V75.1668C78.0429 75.3256 78.0765 75.4378 78.1442 75.5033C78.2117 75.5688 78.3288 75.6015 78.4955 75.6015H78.8946V76.0601H78.4062C78.1043 76.0601 77.8781 75.9906 77.7273 75.8517C77.5764 75.7127 77.501 75.4844 77.501 75.1668V73.2431H77.0781V72.7965H77.501V71.9746H78.0429V72.7965H78.8946V73.2431H78.0429Z" fill="#3D4144"/>
<path d="M81.6239 75.986C81.4254 75.9006 81.2684 75.7815 81.1535 75.6286C81.0381 75.476 80.9748 75.3001 80.9629 75.1016H81.5227C81.5386 75.2644 81.615 75.3974 81.752 75.5006C81.889 75.604 82.0686 75.6554 82.291 75.6554C82.4974 75.6554 82.6602 75.61 82.7793 75.5185C82.8984 75.4273 82.958 75.3122 82.958 75.1732C82.958 75.0301 82.8945 74.9241 82.7674 74.8544C82.6404 74.7849 82.4438 74.7166 82.1778 74.6489C81.9356 74.5856 81.7381 74.5211 81.5852 74.4554C81.4324 74.3899 81.3014 74.2926 81.1922 74.1636C81.083 74.0345 81.0284 73.8648 81.0284 73.6544C81.0284 73.4876 81.078 73.335 81.1773 73.1958C81.2765 73.0568 81.4173 72.9467 81.6001 72.8653C81.7826 72.7839 81.9912 72.7432 82.2255 72.7432C82.5868 72.7432 82.8786 72.8345 83.1009 73.0171C83.3233 73.1998 83.4424 73.4501 83.4583 73.7675H82.9163C82.9044 73.5968 82.8359 73.4598 82.7108 73.3566C82.5858 73.2534 82.418 73.2017 82.2076 73.2017C82.013 73.2017 81.8582 73.2434 81.7431 73.327C81.6279 73.4104 81.5704 73.5196 81.5704 73.6544C81.5704 73.7616 81.6051 73.8499 81.6746 73.9194C81.7441 73.9891 81.8314 74.0445 81.9366 74.0861C82.0418 74.1278 82.1877 74.1745 82.3744 74.2261C82.6086 74.2896 82.7992 74.3524 82.9461 74.4137C83.093 74.4754 83.219 74.5675 83.3243 74.6906C83.4293 74.8137 83.4841 74.9747 83.488 75.1732C83.488 75.3517 83.4384 75.5127 83.3392 75.6556C83.2399 75.7986 83.0999 75.9107 82.9193 75.9921C82.7384 76.0733 82.5312 76.114 82.2969 76.114C82.0468 76.1138 81.8225 76.0711 81.6239 75.986Z" fill="#3D4144"/>
<path d="M86.5369 72.8951C86.7354 73.0003 86.8913 73.1581 87.0044 73.3687C87.1176 73.5791 87.1742 73.8352 87.1742 74.1368V76.0604H86.6382V74.2142C86.6382 73.8886 86.5568 73.6393 86.394 73.4666C86.2312 73.2941 86.0089 73.2075 85.727 73.2075C85.4411 73.2075 85.2138 73.2969 85.0451 73.4757C84.8763 73.6542 84.792 73.9144 84.792 74.2559V76.0604H84.25V71.6533H84.792V73.2615C84.8992 73.0946 85.047 72.9657 85.2356 72.8744C85.4242 72.7831 85.6357 72.7374 85.8699 72.7374C86.1161 72.7374 86.3382 72.79 86.5369 72.8951Z" fill="#3D4144"/>
<path d="M88.0599 73.5382C88.1949 73.2861 88.3805 73.0906 88.6168 72.9516C88.853 72.8129 89.116 72.7432 89.4059 72.7432C89.6917 72.7432 89.9399 72.8049 90.1503 72.9278C90.3607 73.0509 90.5176 73.2057 90.6208 73.3923V72.7968H91.1687V76.0604H90.6208V75.4529C90.5136 75.6435 90.3538 75.8013 90.1414 75.9264C89.929 76.0515 89.6818 76.1138 89.3999 76.1138C89.1099 76.1138 88.848 76.0425 88.6138 75.8996C88.3795 75.7565 88.1949 75.5562 88.0599 75.2981C87.9249 75.04 87.8574 74.7462 87.8574 74.4167C87.8574 74.0832 87.9249 73.7904 88.0599 73.5382ZM90.4719 73.7794C90.3727 73.5968 90.2387 73.457 90.0699 73.3596C89.901 73.2625 89.7156 73.2139 89.5131 73.2139C89.3106 73.2139 89.126 73.2615 88.9592 73.3568C88.7925 73.4521 88.6594 73.5912 88.5602 73.7739C88.4609 73.9565 88.4113 74.1709 88.4113 74.4169C88.4113 74.6672 88.4609 74.8844 88.5602 75.069C88.6594 75.2536 88.7925 75.3948 88.9592 75.4919C89.126 75.5891 89.3106 75.6378 89.5131 75.6378C89.7156 75.6378 89.9012 75.5891 90.0699 75.4919C90.2387 75.3948 90.3727 75.2536 90.4719 75.069C90.571 74.8844 90.6208 74.669 90.6208 74.4228C90.6208 74.1765 90.5712 73.9619 90.4719 73.7794Z" fill="#3D4144"/>
<path d="M93.0358 72.8912C93.2125 72.7881 93.4279 72.7363 93.682 72.7363V73.2962H93.5391C92.9316 73.2962 92.6279 73.6257 92.6279 74.2848V76.0595H92.0859V72.7959H92.6279V73.3261C92.7232 73.1393 92.8592 72.9944 93.0358 72.8912Z" fill="#3D4144"/>
<path d="M97.2679 74.6309H94.6593C94.6792 74.9525 94.7894 75.2038 94.9899 75.3842C95.1904 75.5649 95.4336 75.6552 95.7194 75.6552C95.9537 75.6552 96.1492 75.6006 96.3061 75.4915C96.4629 75.3823 96.5731 75.2366 96.6366 75.0537H97.2202C97.1329 75.3674 96.9582 75.6225 96.6961 75.8192C96.4341 76.0157 96.1085 76.1138 95.7194 76.1138C95.4097 76.1138 95.1328 76.0443 94.8886 75.9054C94.6444 75.7666 94.4529 75.5691 94.3139 75.313C94.1749 75.0569 94.1055 74.7601 94.1055 74.4226C94.1055 74.0853 94.173 73.7894 94.308 73.5353C94.443 73.2811 94.6325 73.0854 94.8767 72.9486C95.1209 72.8116 95.4018 72.7432 95.7194 72.7432C96.0291 72.7432 96.3031 72.8107 96.5413 72.9456C96.7795 73.0808 96.9631 73.2665 97.0922 73.5027C97.2212 73.7389 97.2857 74.0059 97.2857 74.3037C97.2857 74.4065 97.2798 74.5155 97.2679 74.6309ZM96.5889 73.6569C96.4976 73.508 96.3735 73.3951 96.2167 73.3175C96.0599 73.2401 95.8862 73.2013 95.6956 73.2013C95.4216 73.2013 95.1884 73.2887 94.9958 73.4634C94.8033 73.6383 94.6931 73.8803 94.6653 74.19H96.7259C96.7259 73.9837 96.6803 73.8058 96.5889 73.6569Z" fill="#3D4144"/>
<path d="M60.8085 80.3896V82.3133C60.8085 82.4721 60.8421 82.5842 60.9098 82.6498C60.9773 82.7153 61.0944 82.748 61.2612 82.748H61.6602V83.2066H61.1718C60.8699 83.2066 60.6438 83.1371 60.4929 82.9982C60.342 82.8592 60.2666 82.6309 60.2666 82.3133V80.3896H59.8438V79.943H60.2666V79.1211H60.8085V79.943H61.6602V80.3896H60.8085Z" fill="#3D4144"/>
<path d="M62.9064 83.0519C62.6582 82.9131 62.4635 82.7156 62.3228 82.4595C62.1818 82.2034 62.1113 81.9066 62.1113 81.5691C62.1113 81.2356 62.1838 80.9408 62.3287 80.6847C62.4736 80.4286 62.6712 80.2321 62.9213 80.0951C63.1714 79.9581 63.4513 79.8896 63.761 79.8896C64.0707 79.8896 64.3506 79.9581 64.6007 80.0951C64.8509 80.2319 65.0482 80.4276 65.1933 80.6817C65.3383 80.9359 65.4107 81.2316 65.4107 81.5691C65.4107 81.9066 65.3363 82.2034 65.1874 82.4595C65.0385 82.7156 64.8368 82.9131 64.5829 83.0519C64.3288 83.1908 64.0469 83.2603 63.7372 83.2603C63.4315 83.2603 63.1545 83.191 62.9064 83.0519ZM64.2853 82.6469C64.4558 82.5556 64.594 82.4188 64.6992 82.2361C64.8042 82.0535 64.857 81.8312 64.857 81.5691C64.857 81.3071 64.8054 81.0847 64.7022 80.9021C64.599 80.7197 64.464 80.5837 64.2972 80.4941C64.1305 80.4048 63.9498 80.3601 63.7553 80.3601C63.5567 80.3601 63.3751 80.4048 63.2103 80.4941C63.0454 80.5835 62.9133 80.7197 62.8143 80.9021C62.715 81.0849 62.6654 81.3071 62.6654 81.5691C62.6654 81.8351 62.714 82.0597 62.8113 82.2421C62.9086 82.4249 63.0386 82.5609 63.2014 82.6502C63.3642 82.7394 63.5428 82.7842 63.7374 82.7842C63.9317 82.784 64.1144 82.7384 64.2853 82.6469Z" fill="#3D4144"/>
<path d="M67.7162 80.6847C67.8511 80.4326 68.0368 80.2371 68.273 80.0981C68.509 79.9593 68.7723 79.8896 69.0621 79.8896C69.348 79.8896 69.5961 79.9514 69.8066 80.0743C70.017 80.1974 70.1738 80.3522 70.277 80.5388V79.9433H70.825V83.2069H70.277V82.5994C70.1698 82.79 70.01 82.9478 69.7976 83.0729C69.5852 83.198 69.338 83.2603 69.0562 83.2603C68.7661 83.2603 68.5043 83.189 68.27 83.0461C68.0358 82.903 67.8511 82.7027 67.7162 82.4446C67.5812 82.1865 67.5137 81.8927 67.5137 81.5632C67.5137 81.2296 67.5812 80.9368 67.7162 80.6847ZM70.1282 80.9259C70.0289 80.7433 69.8949 80.6035 69.7262 80.5061C69.5572 80.409 69.3718 80.3603 69.1693 80.3603C68.9668 80.3603 68.7822 80.408 68.6154 80.5033C68.4487 80.5986 68.3157 80.7377 68.2164 80.9204C68.1172 81.103 68.0675 81.3174 68.0675 81.5634C68.0675 81.8137 68.1172 82.0309 68.2164 82.2155C68.3157 82.4001 68.4487 82.5413 68.6154 82.6383C68.7822 82.7356 68.9668 82.7842 69.1693 82.7842C69.3718 82.7842 69.5574 82.7356 69.7262 82.6383C69.8949 82.5413 70.0289 82.4001 70.1282 82.2155C70.2274 82.0309 70.277 81.8155 70.277 81.5693C70.277 81.323 70.2274 81.1084 70.1282 80.9259Z" fill="#3D4144"/>
<path d="M74.2971 80.2441C74.5433 80.4843 74.6664 80.8307 74.6664 81.2831V83.2068H74.1304V81.3606C74.1304 81.035 74.049 80.7857 73.8862 80.6129C73.7234 80.4404 73.5011 80.3539 73.2192 80.3539C72.9333 80.3539 72.706 80.4432 72.5373 80.6221C72.3685 80.8005 72.2841 81.0608 72.2841 81.4023V83.2068H71.7422V79.9431H72.2841V80.4079C72.3913 80.2409 72.5373 80.1121 72.7219 80.0208C72.9065 79.9294 73.11 79.8838 73.3323 79.8838C73.7294 79.8838 74.0508 80.0039 74.2971 80.2441Z" fill="#3D4144"/>
<path d="M78.3661 79.9424L76.4008 84.7428H75.8409L76.4841 83.1705L75.168 79.9424H75.7695L76.7938 82.5867L77.8063 79.9424H78.3661Z" fill="#3D4144"/>
<path d="M79.5001 83.0519C79.252 82.9131 79.0574 82.7156 78.9165 82.4595C78.7756 82.2034 78.7051 81.9066 78.7051 81.5691C78.7051 81.2356 78.7775 80.9408 78.9225 80.6847C79.0674 80.4286 79.2649 80.2321 79.515 80.0951C79.7652 79.9581 80.0451 79.8896 80.3548 79.8896C80.6645 79.8896 80.9444 79.9581 81.1945 80.0951C81.4446 80.2319 81.642 80.4276 81.7871 80.6817C81.932 80.9359 82.0045 81.2316 82.0045 81.5691C82.0045 81.9066 81.93 82.2034 81.7811 82.4595C81.6322 82.7156 81.4305 82.9131 81.1766 83.0519C80.9225 83.1908 80.6406 83.2603 80.3309 83.2603C80.025 83.2603 79.7483 83.191 79.5001 83.0519ZM80.8788 82.6469C81.0494 82.5556 81.1875 82.4188 81.2928 82.2361C81.3978 82.0535 81.4506 81.8312 81.4506 81.5691C81.4506 81.3071 81.399 81.0847 81.2957 80.9021C81.1925 80.7197 81.0575 80.5837 80.8908 80.4941C80.724 80.4048 80.5434 80.3601 80.3488 80.3601C80.1503 80.3601 79.9686 80.4048 79.8039 80.4941C79.6389 80.5835 79.5069 80.7197 79.4078 80.9021C79.3086 81.0849 79.2589 81.3071 79.2589 81.5691C79.2589 81.8351 79.3076 82.0597 79.4048 82.2421C79.5021 82.4249 79.632 82.5609 79.7949 82.6502C79.9577 82.7394 80.1364 82.7842 80.3309 82.7842C80.5253 82.784 80.7081 82.7384 80.8788 82.6469Z" fill="#3D4144"/>
<path d="M85.2737 80.2441C85.5198 80.4843 85.6429 80.8307 85.6429 81.2831V83.2068H85.1069V81.3606C85.1069 81.035 85.0255 80.7857 84.8627 80.6129C84.7 80.4404 84.4776 80.3539 84.1957 80.3539C83.9099 80.3539 83.6826 80.4432 83.5138 80.6221C83.3451 80.8005 83.2607 81.0608 83.2607 81.4023V83.2068H82.7188V79.9431H83.2607V80.4079C83.3679 80.2409 83.5138 80.1121 83.6984 80.0208C83.8831 79.9294 84.0865 79.8838 84.3089 79.8838C84.7059 79.8838 85.0273 80.0039 85.2737 80.2441Z" fill="#3D4144"/>
<path d="M89.4905 81.7774H86.882C86.9019 82.099 87.012 82.3503 87.2125 82.5307C87.413 82.7114 87.6562 82.8017 87.9421 82.8017C88.1763 82.8017 88.3719 82.7471 88.5287 82.6379C88.6855 82.5288 88.7957 82.383 88.8592 82.2002H89.4429C89.3555 82.5139 89.1808 82.769 88.9188 82.9657C88.6567 83.1622 88.3312 83.2603 87.9421 83.2603C87.6324 83.2603 87.3555 83.1908 87.1113 83.0518C86.8671 82.9131 86.6755 82.7156 86.5366 82.4595C86.3976 82.2034 86.3281 81.9066 86.3281 81.5691C86.3281 81.2318 86.3956 80.9358 86.5306 80.6817C86.6656 80.4276 86.8552 80.2319 87.0994 80.0951C87.3435 79.9581 87.6245 79.8896 87.9421 79.8896C88.2518 79.8896 88.5257 79.9571 88.764 80.0921C89.0022 80.2273 89.1858 80.4129 89.3148 80.6492C89.4439 80.8854 89.5084 81.1524 89.5084 81.4502C89.5084 81.553 89.5024 81.662 89.4905 81.7774ZM88.8116 80.8034C88.7203 80.6545 88.5962 80.5416 88.4394 80.464C88.2825 80.3865 88.1088 80.3478 87.9183 80.3478C87.6443 80.3478 87.411 80.4352 87.2185 80.6099C87.0259 80.7848 86.9157 81.0268 86.8879 81.3364H88.9486C88.9486 81.1302 88.9029 80.9523 88.8116 80.8034Z" fill="#3D4144"/>
<path d="M90.3943 83.1352C90.3228 83.0639 90.2871 82.9764 90.2871 82.8734C90.2871 82.7699 90.3228 82.6828 90.3943 82.6113C90.4658 82.5399 90.5529 82.5041 90.6564 82.5041C90.7556 82.5041 90.84 82.5399 90.9095 82.6113C90.9789 82.6828 91.0137 82.7701 91.0137 82.8734C91.0137 82.9764 90.9789 83.0639 90.9095 83.1352C90.84 83.2067 90.7556 83.2424 90.6564 83.2424C90.5529 83.2424 90.4656 83.2069 90.3943 83.1352ZM90.9242 79.0557L90.8586 82.0334H90.406L90.3405 79.0557H90.9242Z" fill="#3D4144"/>
<path d="M62.1182 62H61.4321V59.4146C61.1815 59.6489 60.8861 59.8223 60.5459 59.9346V59.312C60.7249 59.2534 60.9194 59.1427 61.1294 58.98C61.3394 58.8156 61.4834 58.6243 61.5615 58.4062H62.1182V62ZM65.4629 61.3628V62H63.0581C63.0841 61.7591 63.1623 61.5312 63.2925 61.3164C63.4227 61.0999 63.6799 60.8135 64.064 60.457C64.3732 60.1689 64.5628 59.9736 64.6328 59.8711C64.7272 59.7295 64.7744 59.5895 64.7744 59.4512C64.7744 59.2982 64.7329 59.181 64.6499 59.0996C64.5685 59.0166 64.4554 58.9751 64.3105 58.9751C64.1673 58.9751 64.0534 59.0182 63.9688 59.1045C63.8841 59.1908 63.8353 59.334 63.8223 59.5342L63.1387 59.4658C63.1794 59.0882 63.3071 58.8172 63.522 58.6528C63.7368 58.4884 64.0054 58.4062 64.3276 58.4062C64.6808 58.4062 64.9583 58.5015 65.1602 58.6919C65.362 58.8823 65.4629 59.1191 65.4629 59.4023C65.4629 59.5635 65.4336 59.7173 65.375 59.8638C65.318 60.0086 65.2269 60.1608 65.1016 60.3203C65.0186 60.4261 64.8688 60.5783 64.6523 60.7769C64.4359 60.9754 64.2983 61.1073 64.2397 61.1724C64.1828 61.2375 64.1364 61.3009 64.1006 61.3628H65.4629ZM65.9048 61.0503L66.5688 60.9697C66.59 61.139 66.647 61.2684 66.7397 61.3579C66.8325 61.4474 66.9448 61.4922 67.0767 61.4922C67.2183 61.4922 67.3371 61.4385 67.4331 61.3311C67.5308 61.2236 67.5796 61.0788 67.5796 60.8965C67.5796 60.724 67.5332 60.5872 67.4404 60.4863C67.3477 60.3854 67.2345 60.335 67.1011 60.335C67.0132 60.335 66.9082 60.3521 66.7861 60.3862L66.8618 59.8271C67.0474 59.832 67.189 59.7922 67.2866 59.7075C67.3843 59.6213 67.4331 59.5073 67.4331 59.3657C67.4331 59.2453 67.3973 59.1493 67.3257 59.0776C67.2541 59.006 67.1589 58.9702 67.04 58.9702C66.9229 58.9702 66.8228 59.0109 66.7397 59.0923C66.6567 59.1737 66.6063 59.2925 66.5884 59.4487L65.9561 59.3413C66 59.1248 66.0659 58.9523 66.1538 58.8237C66.2433 58.6935 66.367 58.5918 66.5249 58.5186C66.6844 58.4437 66.8626 58.4062 67.0596 58.4062C67.3965 58.4062 67.6667 58.5137 67.8701 58.7285C68.0378 58.9043 68.1216 59.1029 68.1216 59.3242C68.1216 59.6383 67.9499 59.889 67.6064 60.0762C67.8115 60.1201 67.9751 60.2186 68.0972 60.3716C68.2209 60.5246 68.2827 60.7093 68.2827 60.9258C68.2827 61.2399 68.168 61.5076 67.9385 61.729C67.709 61.9504 67.4233 62.061 67.0815 62.061C66.7576 62.061 66.4891 61.9683 66.2759 61.7827C66.0627 61.5955 65.939 61.3514 65.9048 61.0503ZM70.0576 62V61.2798H68.5928V60.6792L70.1455 58.4062H70.7217V60.6768H71.166V61.2798H70.7217V62H70.0576ZM70.0576 60.6768V59.4536L69.2349 60.6768H70.0576ZM71.5054 61.0796L72.189 61.0088C72.2085 61.1634 72.2663 61.2863 72.3623 61.3774C72.4583 61.467 72.569 61.5117 72.6943 61.5117C72.8376 61.5117 72.9588 61.4539 73.0581 61.3384C73.1574 61.2212 73.207 61.0454 73.207 60.811C73.207 60.5913 73.1574 60.4269 73.0581 60.3179C72.9604 60.2072 72.8327 60.1519 72.6748 60.1519C72.4779 60.1519 72.3013 60.2389 72.145 60.4131L71.5884 60.3325L71.9399 58.4697H73.7539V59.1118H72.46L72.3525 59.7197C72.5055 59.6432 72.6618 59.605 72.8213 59.605C73.1257 59.605 73.3836 59.7157 73.5952 59.937C73.8068 60.1584 73.9126 60.4456 73.9126 60.7988C73.9126 61.0934 73.8271 61.3563 73.6562 61.5874C73.4235 61.9032 73.1004 62.061 72.687 62.061C72.3566 62.061 72.0872 61.9723 71.8789 61.7949C71.6706 61.6175 71.5461 61.3791 71.5054 61.0796ZM76.603 59.2974L75.939 59.3706C75.9227 59.2339 75.8804 59.133 75.812 59.0679C75.7437 59.0028 75.6549 58.9702 75.5459 58.9702C75.401 58.9702 75.2782 59.0353 75.1772 59.1655C75.078 59.2957 75.0153 59.5667 74.9893 59.9785C75.1602 59.7767 75.3726 59.6758 75.6265 59.6758C75.9129 59.6758 76.1579 59.7848 76.3613 60.0029C76.5664 60.221 76.6689 60.5026 76.6689 60.8477C76.6689 61.2139 76.5615 61.5076 76.3467 61.729C76.1318 61.9504 75.856 62.061 75.519 62.061C75.1577 62.061 74.8607 61.9211 74.6279 61.6411C74.3952 61.3595 74.2788 60.8989 74.2788 60.2593C74.2788 59.6034 74.4001 59.1305 74.6426 58.8408C74.8851 58.5511 75.2 58.4062 75.5874 58.4062C75.8592 58.4062 76.0838 58.4827 76.2612 58.6357C76.4403 58.7871 76.5542 59.0076 76.603 59.2974ZM75.0479 60.7939C75.0479 61.0169 75.0991 61.1895 75.2017 61.3115C75.3042 61.432 75.4214 61.4922 75.5532 61.4922C75.6802 61.4922 75.786 61.4425 75.8706 61.3433C75.9552 61.244 75.9976 61.0812 75.9976 60.855C75.9976 60.6222 75.952 60.4521 75.8608 60.3447C75.7697 60.2357 75.6558 60.1812 75.519 60.1812C75.3872 60.1812 75.2757 60.2332 75.1846 60.3374C75.0934 60.4399 75.0479 60.5921 75.0479 60.7939Z" fill="#3D4144"/>
<defs>
<linearGradient id="paint0_linear_3906_3290" x1="193.552" y1="62.9061" x2="193.552" y2="30.1565" gradientUnits="userSpaceOnUse">
<stop stop-color="white"/>
<stop offset="1" stop-color="white"/>
</linearGradient>
<linearGradient id="paint1_linear_3906_3290" x1="193.553" y1="63.0987" x2="193.553" y2="29.9638" gradientUnits="userSpaceOnUse">
<stop stop-color="white"/>
<stop offset="1" stop-color="white"/>
</linearGradient>
</defs>
</svg>
