<svg width="50" height="50" viewBox="0 0 50 50" fill="none" xmlns="http://www.w3.org/2000/svg">
<path d="M14.8438 17.9688C15.7067 17.9688 16.4062 17.2692 16.4062 16.4062C16.4062 15.5433 15.7067 14.8438 14.8438 14.8438C13.9808 14.8438 13.2812 15.5433 13.2812 16.4062C13.2812 17.2692 13.9808 17.9688 14.8438 17.9688Z" fill="#9F0C36"/>
<path d="M21.0938 17.9688C21.9567 17.9688 22.6562 17.2692 22.6562 16.4062C22.6562 15.5433 21.9567 14.8438 21.0938 14.8438C20.2308 14.8438 19.5312 15.5433 19.5312 16.4062C19.5312 17.2692 20.2308 17.9688 21.0938 17.9688Z" fill="#9F0C36"/>
<path d="M20.5523 21.6797L19.5188 20.5078C19.0852 20.8738 18.5361 21.0745 17.9688 21.0745C17.4014 21.0745 16.8523 20.8738 16.4188 20.5078L15.3852 21.6797C16.0987 22.3089 17.0174 22.6561 17.9688 22.6561C18.9201 22.6561 19.8388 22.3089 20.5523 21.6797Z" fill="#9F0C36"/>
<path d="M29.6328 30.7656C29.5228 30.24 29.2352 29.7682 28.8184 29.4296C28.4015 29.091 27.8808 28.9062 27.3437 28.9062C26.7495 28.905 26.178 29.1347 25.75 29.5469L21.875 28.3359V26.3984C23.1649 25.7372 24.2672 24.7613 25.0798 23.5609C25.8923 22.3605 26.3889 20.9745 26.5234 19.5312H26.5625C27.2892 19.5294 27.9925 19.2743 28.5514 18.81C29.1104 18.3456 29.4901 17.701 29.6251 16.987C29.7601 16.2729 29.6421 15.5342 29.2913 14.8978C28.9405 14.2614 28.3789 13.7671 27.7031 13.5C27.7266 13.4531 27.8672 13.2031 27.8672 13.2031C28.016 12.9078 28.1001 12.5842 28.114 12.2538C28.128 11.9234 28.0713 11.5938 27.9478 11.2871C27.8244 10.9803 27.637 10.7033 27.3981 10.4747C27.1592 10.246 26.8744 10.0709 26.5625 9.96093V6.46875C26.562 5.56604 26.2488 4.69139 25.6762 3.9935C25.1037 3.2956 24.3071 2.81755 23.4219 2.64062L18.7344 1.70312C18.229 1.60156 17.7085 1.60156 17.2031 1.70312L12.5156 2.64062C11.6304 2.81755 10.8338 3.2956 10.2613 3.9935C9.68872 4.69139 9.37555 5.56604 9.375 6.46875V9.96093C9.06313 10.0709 8.77826 10.246 8.53938 10.4747C8.30051 10.7033 8.1131 10.9803 7.98965 11.2871C7.8662 11.5938 7.80955 11.9234 7.82345 12.2538C7.83736 12.5842 7.92152 12.9078 8.07031 13.2031C8.07031 13.2031 8.21094 13.4531 8.23438 13.5C7.55856 13.7671 6.99695 14.2614 6.64617 14.8978C6.29539 15.5342 6.17737 16.2729 6.3124 16.987C6.44744 17.701 6.82709 18.3456 7.38605 18.81C7.94501 19.2743 8.64832 19.5294 9.375 19.5312H9.41406C9.58978 21.5335 10.4669 23.4094 11.8906 24.8281C12.5285 25.4613 13.2613 25.9911 14.0625 26.3984V28.3359L10.1875 29.5469C9.75946 29.1347 9.18798 28.905 8.59375 28.9062C8.0567 28.9062 7.53599 29.091 7.11913 29.4296C6.70227 29.7682 6.41468 30.24 6.30469 30.7656C4.91848 31.2366 3.7151 32.1309 2.86428 33.3223C2.01346 34.5137 1.55813 35.9422 1.5625 37.4062V47.6562C1.5625 47.8634 1.64481 48.0622 1.79132 48.2087C1.93784 48.3552 2.13655 48.4375 2.34375 48.4375H33.5937C33.8009 48.4375 33.9997 48.3552 34.1462 48.2087C34.2927 48.0622 34.375 47.8634 34.375 47.6562V37.4062C34.3794 35.9422 33.924 34.5137 33.0732 33.3223C32.2224 32.1309 31.019 31.2366 29.6328 30.7656ZM26.5625 14.8437C26.9765 14.845 27.3732 15.01 27.666 15.3028C27.9587 15.5955 28.1238 15.9922 28.125 16.4062C28.1219 16.8197 27.9563 17.2153 27.664 17.5077C27.3716 17.8001 26.976 17.9657 26.5625 17.9687V14.8437ZM9.375 17.9687C8.96155 17.9657 8.5659 17.8001 8.27353 17.5077C7.98117 17.2153 7.81557 16.8197 7.8125 16.4062C7.81374 15.9922 7.97875 15.5955 8.27151 15.3028C8.56427 15.01 8.96098 14.845 9.375 14.8437V17.9687ZM10.9375 6.46875C10.9378 5.92734 11.1254 5.40273 11.4687 4.98402C11.8119 4.56532 12.2895 4.27835 12.8203 4.17187L17.5078 3.23437C17.8119 3.17188 18.1256 3.17188 18.4297 3.23437L23.1172 4.17187C23.648 4.27835 24.1256 4.56532 24.4688 4.98402C24.8121 5.40273 24.9997 5.92734 25 6.46875V9.66406L19.9844 8.89844C18.6489 8.6875 17.2886 8.6875 15.9531 8.89844L10.9375 9.66406V6.46875ZM9.54688 12.6641L9.46875 12.5078C9.41409 12.397 9.38631 12.2749 9.38767 12.1514C9.38903 12.0279 9.41948 11.9064 9.47656 11.7969C9.5314 11.6871 9.61186 11.5922 9.71113 11.5202C9.81039 11.4481 9.92556 11.401 10.0469 11.3828L16.1875 10.4375C17.3684 10.2604 18.5691 10.2604 19.75 10.4375L25.8906 11.3828C26.0115 11.402 26.1262 11.4493 26.2254 11.521C26.3247 11.5927 26.4057 11.6866 26.462 11.7953C26.5182 11.904 26.5481 12.0245 26.5493 12.1469C26.5505 12.2693 26.5229 12.3902 26.4688 12.5L26.3906 12.6641C26.3132 12.815 26.1896 12.9374 26.0379 13.0133C25.8861 13.0891 25.7141 13.1146 25.5469 13.0859L19.7891 12.0391C18.5861 11.8125 17.3514 11.8125 16.1484 12.0391L10.3906 13.0859C10.2233 13.1164 10.0506 13.0917 9.89842 13.0157C9.74628 12.9396 9.62292 12.8162 9.54688 12.6641ZM13 23.7187C12.3449 23.068 11.8253 22.2937 11.4713 21.4409C11.1173 20.588 10.9358 19.6734 10.9375 18.75V14.5703L16.4297 13.5703C17.448 13.3893 18.4904 13.392 19.5078 13.5781L25 14.5703V18.75C25.001 20.1407 24.5893 21.5005 23.817 22.6571C23.0447 23.8137 21.9465 24.7151 20.6616 25.2472C19.3766 25.7792 17.9627 25.918 16.5988 25.6459C15.2349 25.3738 13.9824 24.7031 13 23.7187ZM20.3125 27.0078V28.9062C20.3125 29.5278 20.0656 30.124 19.626 30.5635C19.1865 31.0031 18.5904 31.25 17.9688 31.25C17.3471 31.25 16.751 31.0031 16.3115 30.5635C15.8719 30.124 15.625 29.5278 15.625 28.9062V27.0156C17.1569 27.4558 18.7821 27.4531 20.3125 27.0078ZM14.2109 29.9219C14.4311 30.7504 14.919 31.4829 15.5986 32.0055C16.2782 32.528 17.1115 32.8114 17.9688 32.8114C18.826 32.8114 19.6593 32.528 20.3389 32.0055C21.0185 31.4829 21.5063 30.7504 21.7266 29.9219L25.0312 30.9609C25.0127 31.0562 25.0023 31.1529 25 31.25V37.5H10.9375V31.25C10.9352 31.1529 10.9248 31.0562 10.9062 30.9609L14.2109 29.9219ZM7.8125 46.875H3.125V43.75H7.8125V46.875ZM7.8125 42.1875H3.125V37.4062C3.12217 36.3722 3.41478 35.3589 3.9684 34.4856C4.52203 33.6122 5.31362 32.9152 6.25 32.4766V39.0625C6.25249 39.5458 6.40382 40.0165 6.6834 40.4108C6.96298 40.805 7.35723 41.1035 7.8125 41.2656V42.1875ZM8.59375 39.8437C8.38655 39.8437 8.18784 39.7614 8.04132 39.6149C7.89481 39.4684 7.8125 39.2697 7.8125 39.0625V31.25C7.8125 31.0428 7.89481 30.8441 8.04132 30.6976C8.18784 30.5511 8.38655 30.4687 8.59375 30.4687C8.80095 30.4687 8.99966 30.5511 9.14618 30.6976C9.29269 30.8441 9.375 31.0428 9.375 31.25V39.0625C9.375 39.2697 9.29269 39.4684 9.14618 39.6149C8.99966 39.7614 8.80095 39.8437 8.59375 39.8437ZM26.5625 46.875H9.375V41.2656C9.83027 41.1035 10.2245 40.805 10.5041 40.4108C10.7837 40.0165 10.935 39.5458 10.9375 39.0625H25C25.0025 39.5458 25.1538 40.0165 25.4334 40.4108C25.713 40.805 26.1072 41.1035 26.5625 41.2656V46.875ZM27.3437 39.8437C27.1365 39.8437 26.9378 39.7614 26.7913 39.6149C26.6448 39.4684 26.5625 39.2697 26.5625 39.0625V31.25C26.5625 31.0428 26.6448 30.8441 26.7913 30.6976C26.9378 30.5511 27.1365 30.4687 27.3437 30.4687C27.5509 30.4687 27.7497 30.5511 27.8962 30.6976C28.0427 30.8441 28.125 31.0428 28.125 31.25V39.0625C28.125 39.2697 28.0427 39.4684 27.8962 39.6149C27.7497 39.7614 27.5509 39.8437 27.3437 39.8437ZM32.8125 46.875H28.125V43.75H32.8125V46.875ZM32.8125 42.1875H28.125V41.2656C28.5803 41.1035 28.9745 40.805 29.2541 40.4108C29.5337 40.0165 29.685 39.5458 29.6875 39.0625V32.4766C30.6239 32.9152 31.4155 33.6122 31.9691 34.4856C32.5227 35.3589 32.8153 36.3722 32.8125 37.4062V42.1875Z" fill="#9F0C36"/>
<path d="M47.6562 21.0938H32.0312C31.824 21.0938 31.6253 21.1761 31.4788 21.3226C31.3323 21.4691 31.25 21.6678 31.25 21.875V23.4375H28.9062C28.699 23.4375 28.5003 23.5198 28.3538 23.6663C28.2073 23.8128 28.125 24.0115 28.125 24.2188V28.125C28.1251 28.2784 28.1704 28.4283 28.2551 28.5561C28.3399 28.6839 28.4604 28.7839 28.6016 28.8437L39.0625 33.3281V34.375H37.5C37.2928 34.375 37.0941 34.4573 36.9476 34.6038C36.8011 34.7503 36.7188 34.949 36.7188 35.1562V47.6562C36.7188 47.8635 36.8011 48.0622 36.9476 48.2087C37.0941 48.3552 37.2928 48.4375 37.5 48.4375H42.1875C42.3947 48.4375 42.5934 48.3552 42.7399 48.2087C42.8864 48.0622 42.9688 47.8635 42.9688 47.6562V35.1562C42.9688 34.949 42.8864 34.7503 42.7399 34.6038C42.5934 34.4573 42.3947 34.375 42.1875 34.375H40.625V32.8125C40.6249 32.6591 40.5796 32.5092 40.4949 32.3814C40.4101 32.2536 40.2896 32.1536 40.1484 32.0938L29.6875 27.6094V25H31.25V26.5625C31.25 26.7697 31.3323 26.9684 31.4788 27.1149C31.6253 27.2614 31.824 27.3438 32.0312 27.3438H37.5V28.125C37.5 28.7466 37.7469 29.3427 38.1865 29.7823C38.626 30.2218 39.2221 30.4688 39.8438 30.4688C40.4654 30.4688 41.0615 30.2218 41.501 29.7823C41.9406 29.3427 42.1875 28.7466 42.1875 28.125V27.3438H43.75V29.6875C43.75 30.3091 43.9969 30.9052 44.4365 31.3448C44.876 31.7843 45.4721 32.0312 46.0938 32.0312C46.7154 32.0312 47.3115 31.7843 47.751 31.3448C48.1906 30.9052 48.4375 30.3091 48.4375 29.6875V21.875C48.4375 21.6678 48.3552 21.4691 48.2087 21.3226C48.0622 21.1761 47.8635 21.0938 47.6562 21.0938ZM41.4062 46.875H38.2812V39.0625H41.4062V46.875ZM41.4062 35.9375V37.5H38.2812V35.9375H41.4062ZM46.875 29.6875C46.875 29.8947 46.7927 30.0934 46.6462 30.2399C46.4997 30.3864 46.301 30.4688 46.0938 30.4688C45.8865 30.4688 45.6878 30.3864 45.5413 30.2399C45.3948 30.0934 45.3125 29.8947 45.3125 29.6875V27.3438C45.3125 26.7221 45.0656 26.126 44.626 25.6865C44.1865 25.2469 43.5904 25 42.9688 25C42.3471 25 41.751 25.2469 41.3115 25.6865C40.8719 26.126 40.625 26.7221 40.625 27.3438V28.125C40.625 28.3322 40.5427 28.5309 40.3962 28.6774C40.2497 28.8239 40.051 28.9062 39.8438 28.9062C39.6365 28.9062 39.4378 28.8239 39.2913 28.6774C39.1448 28.5309 39.0625 28.3322 39.0625 28.125V26.5625C39.0625 26.3553 38.9802 26.1566 38.8337 26.0101C38.6872 25.8636 38.4885 25.7812 38.2812 25.7812H32.8125V22.6562H46.875V29.6875Z" fill="#9F0C36"/>
</svg>
