<svg width="46" height="46" viewBox="0 0 46 46" fill="none" xmlns="http://www.w3.org/2000/svg">
<path d="M7.66699 23.5805H11.7673C11.8792 23.5767 11.9907 23.5966 12.0945 23.6389C12.1982 23.6812 12.2919 23.7449 12.3693 23.8258C12.4467 23.9068 12.5062 24.0032 12.5437 24.1088C12.5813 24.2143 12.5962 24.3266 12.5873 24.4383V39.8717C12.5964 39.9834 12.5818 40.0957 12.5443 40.2013C12.5068 40.3069 12.4474 40.4033 12.3699 40.4842C12.2923 40.5651 12.1986 40.6287 12.0947 40.6707C11.9908 40.7127 11.8792 40.7322 11.7673 40.7279H7.66699" stroke="white" stroke-width="2" stroke-linecap="round" stroke-linejoin="round"/>
<path d="M19.395 19.9628L16.2427 23.8876C16.0357 24.1456 15.7753 24.3558 15.4795 24.5038C15.1837 24.6519 14.8594 24.7343 14.5288 24.7453H12.5869M12.5869 36.2753C16.1033 38.9405 19.3114 40.7298 21.3828 40.7298H31.6712C32.9177 40.7298 33.7016 40.6413 34.2429 39.0159C35.0695 34.8664 35.6419 30.671 35.9584 26.4527C35.9584 25.5966 35.1007 24.7388 33.3867 24.7388H23.6576M19.7755 22.6214L17.2366 4.85577C17.2185 4.72886 17.2279 4.59954 17.2641 4.47657C17.3003 4.35359 17.3625 4.23982 17.4465 4.14295C17.5304 4.04608 17.6342 3.96837 17.7508 3.91506C17.8674 3.86176 17.9941 3.83411 18.1223 3.83398H30.5116" stroke="white" stroke-width="2" stroke-linecap="round" stroke-linejoin="round"/>
<path d="M25.1632 24.7452L23.6609 9.72344C23.6486 9.60868 23.6608 9.49263 23.6965 9.38287C23.7322 9.27312 23.7906 9.17213 23.868 9.08652C23.9454 9.00091 24.04 8.93261 24.1456 8.88607C24.2513 8.83953 24.3655 8.81581 24.4809 8.81646H35.7977C35.9169 8.81504 36.0349 8.83962 36.1436 8.88849C36.2524 8.93736 36.3491 9.00934 36.4272 9.09942C36.5053 9.18951 36.5627 9.29552 36.5956 9.41009C36.6285 9.52466 36.6361 9.64503 36.6177 9.76281L34.3544 24.8518" stroke="white" stroke-width="2" stroke-linecap="round" stroke-linejoin="round"/>
<path d="M29.8494 17.9723C29.6863 17.9723 29.5299 17.9075 29.4145 17.7921C29.2992 17.6768 29.2344 17.5203 29.2344 17.3572C29.2344 17.1941 29.2992 17.0377 29.4145 16.9223C29.5299 16.807 29.6863 16.7422 29.8494 16.7422M29.8494 17.9723C30.0125 17.9723 30.169 17.9075 30.2843 17.7921C30.3997 17.6768 30.4645 17.5203 30.4645 17.3572C30.4645 17.1941 30.3997 17.0377 30.2843 16.9223C30.169 16.807 30.0125 16.7422 29.8494 16.7422" stroke="white" stroke-width="0.9"/>
</svg>
