<svg width="34" height="35" viewBox="0 0 34 35" fill="none" xmlns="http://www.w3.org/2000/svg">
<g clip-path="url(#clip0_3394_3431)">
<path d="M28.354 34.002H31.8046C32.7421 34.002 33.502 33.242 33.502 32.3046C33.502 31.3671 32.7421 30.6072 31.8046 30.6072H2.19546C1.258 30.6072 0.498047 31.3671 0.498047 32.3046C0.498047 33.242 1.258 34.002 2.19546 34.002H26.3723" stroke="#090707" stroke-width="0.996094" stroke-miterlimit="10" stroke-linecap="round" stroke-linejoin="round"/>
<path d="M9.37019 15.0319H4.3095C3.60427 15.0319 3.03258 14.4602 3.03258 13.755C3.03258 13.0497 3.60427 12.478 4.3095 12.478H9.37019C10.0754 12.478 10.6471 13.0497 10.6471 13.755C10.6471 14.4602 10.0754 15.0319 9.37019 15.0319Z" stroke="#090707" stroke-width="0.996094" stroke-miterlimit="10" stroke-linecap="round" stroke-linejoin="round"/>
<path d="M9.37021 30.6073H4.30952C3.60428 30.6073 3.03259 30.0356 3.03259 29.3304C3.03259 28.6252 3.60428 28.0535 4.30952 28.0535H9.37021C10.0754 28.0535 10.6471 28.6252 10.6471 29.3304C10.6471 30.0356 10.0754 30.6073 9.37021 30.6073Z" stroke="#090707" stroke-width="0.996094" stroke-miterlimit="10" stroke-linecap="round" stroke-linejoin="round"/>
<path d="M29.6905 15.0319H24.6298C23.9246 15.0319 23.3529 14.4602 23.3529 13.755C23.3529 13.0497 23.9246 12.478 24.6298 12.478H29.6905C30.3958 12.478 30.9674 13.0497 30.9674 13.755C30.9674 14.4602 30.3958 15.0319 29.6905 15.0319Z" stroke="#090707" stroke-width="0.996094" stroke-miterlimit="10" stroke-linecap="round" stroke-linejoin="round"/>
<path d="M29.6905 30.6073H24.6298C23.9246 30.6073 23.3529 30.0356 23.3529 29.3304C23.3529 28.6252 23.9246 28.0535 24.6298 28.0535H29.6905C30.3958 28.0535 30.9674 28.6252 30.9674 29.3304C30.9674 30.0356 30.3958 30.6073 29.6905 30.6073Z" stroke="#090707" stroke-width="0.996094" stroke-miterlimit="10" stroke-linecap="round" stroke-linejoin="round"/>
<path d="M8.98704 15.0317H4.69275V28.0533H8.98704V15.0317Z" stroke="#090707" stroke-width="0.996094" stroke-miterlimit="10" stroke-linecap="round" stroke-linejoin="round"/>
<path d="M29.3074 15.0317H25.0131V28.0533H29.3074V15.0317Z" stroke="#090707" stroke-width="0.996094" stroke-miterlimit="10" stroke-linecap="round" stroke-linejoin="round"/>
<path d="M6.83986 17.9583V25.1965" stroke="#090707" stroke-width="0.996094" stroke-miterlimit="10" stroke-linecap="round" stroke-linejoin="round"/>
<path d="M27.1602 17.9583V25.1965" stroke="#090707" stroke-width="0.996094" stroke-miterlimit="10" stroke-linecap="round" stroke-linejoin="round"/>
<path d="M19.5304 15.0319H14.4697C13.7644 15.0319 13.1927 14.4602 13.1927 13.755C13.1927 13.0497 13.7644 12.478 14.4697 12.478H19.5304C20.2356 12.478 20.8073 13.0497 20.8073 13.755C20.8073 14.4602 20.2356 15.0319 19.5304 15.0319Z" stroke="#090707" stroke-width="0.996094" stroke-miterlimit="10" stroke-linecap="round" stroke-linejoin="round"/>
<path d="M19.5304 30.6073H14.4697C13.7644 30.6073 13.1927 30.0356 13.1927 29.3304C13.1927 28.6252 13.7644 28.0535 14.4697 28.0535H19.5304C20.2356 28.0535 20.8073 28.6252 20.8073 29.3304C20.8073 30.0356 20.2356 30.6073 19.5304 30.6073Z" stroke="#090707" stroke-width="0.996094" stroke-miterlimit="10" stroke-linecap="round" stroke-linejoin="round"/>
<path d="M19.1472 15.0317H14.8529V28.0533H19.1472V15.0317Z" stroke="#090707" stroke-width="0.996094" stroke-miterlimit="10" stroke-linecap="round" stroke-linejoin="round"/>
<path d="M17 17.9583V25.1965" stroke="#090707" stroke-width="0.996094" stroke-miterlimit="10" stroke-linecap="round" stroke-linejoin="round"/>
<path d="M8.22052 5.77642L1.15908 9.9727C-0.017237 10.6717 0.477888 12.4779 1.84586 12.4779H32.1543C33.5222 12.4779 34.0173 10.6717 32.841 9.9727L18.3735 1.37542C17.5268 0.872257 16.4732 0.872257 15.6265 1.37542L9.91123 4.77176" stroke="#090707" stroke-width="0.996094" stroke-miterlimit="10" stroke-linecap="round" stroke-linejoin="round"/>
<path d="M14.224 4.95008L16.6566 3.50449C16.8683 3.37871 17.1317 3.37871 17.3434 3.50449L19.7496 4.93435" stroke="#090707" stroke-width="0.996094" stroke-miterlimit="10" stroke-linecap="round" stroke-linejoin="round"/>
<path d="M10.2412 8.43765H11.226C11.6576 8.43765 12.0229 8.83064 12.0341 9.33174C12.0458 9.85024 11.6874 10.2748 11.2436 10.2748C11.2436 10.2748 10.2412 10.2782 10.2412 10.2774V6.86621H11.0794C11.4484 6.86621 11.761 7.20223 11.7704 7.63075C11.7803 8.07388 11.4739 8.43672 11.0946 8.43672" stroke="#090707" stroke-width="0.996094" stroke-miterlimit="10" stroke-linecap="round" stroke-linejoin="round"/>
<path d="M13.5094 10.2527L14.7737 6.93847C14.7996 6.87538 14.889 6.87532 14.915 6.93834L16.1679 10.2527" stroke="#090707" stroke-width="0.996094" stroke-miterlimit="10" stroke-linecap="round" stroke-linejoin="round"/>
<path d="M13.9037 9.42725H15.7799" stroke="#090707" stroke-width="0.996094" stroke-miterlimit="10" stroke-linecap="round" stroke-linejoin="round"/>
<path d="M17.7133 10.2527V6.89742L19.9856 10.1824C20.0277 10.2432 20.0729 10.2134 20.0729 10.1395L20.0414 6.89111" stroke="#090707" stroke-width="0.996094" stroke-miterlimit="10" stroke-linecap="round" stroke-linejoin="round"/>
<path d="M21.8279 6.89111V10.2527" stroke="#090707" stroke-width="0.996094" stroke-miterlimit="10" stroke-linecap="round" stroke-linejoin="round"/>
<path d="M23.6393 6.93359L21.9357 8.49686L23.7588 10.2528" stroke="#090707" stroke-width="0.996094" stroke-miterlimit="10" stroke-linecap="round" stroke-linejoin="round"/>
</g>
<defs>
<clipPath id="clip0_3394_3431">
<rect width="34" height="34" fill="white" transform="translate(0 0.5)"/>
</clipPath>
</defs>
</svg>
