<svg width="10" height="10" viewBox="0 0 10 10" fill="none" xmlns="http://www.w3.org/2000/svg">
<path d="M1.11111 8.88889H1.90278L7.33333 3.45833L6.54166 2.66667L1.11111 8.09722V8.88889ZM0 10V7.63889L7.33333 0.319444C7.44444 0.217593 7.56722 0.138889 7.70166 0.0833334C7.83611 0.0277778 7.97722 0 8.125 0C8.27277 0 8.41629 0.0277778 8.55555 0.0833334C8.69481 0.138889 8.81518 0.222222 8.91666 0.333333L9.68055 1.11111C9.79166 1.21296 9.87277 1.33333 9.92388 1.47222C9.975 1.61111 10.0004 1.75 10 1.88889C10 2.03704 9.97463 2.17833 9.92388 2.31278C9.87314 2.44722 9.79203 2.56981 9.68055 2.68056L2.36111 10H0ZM6.93055 3.06944L6.54166 2.66667L7.33333 3.45833L6.93055 3.06944Z" fill="white"/>
</svg>
