<svg width="18" height="18" viewBox="0 0 18 18" fill="none" xmlns="http://www.w3.org/2000/svg">
<path d="M9 15.0002H15.75" stroke="#303030" stroke-width="1.8" stroke-linecap="round" stroke-linejoin="round"/>
<path d="M12.2817 2.7163C12.5803 2.41773 12.9853 2.25 13.4075 2.25C13.8297 2.25 14.2347 2.41773 14.5332 2.7163C14.8318 3.01487 14.9995 3.41981 14.9995 3.84205C14.9995 4.26429 14.8318 4.66923 14.5332 4.9678L5.52574 13.9761C5.34731 14.1545 5.12676 14.285 4.88449 14.3556L2.73049 14.9841C2.66595 15.0029 2.59754 15.004 2.53242 14.9873C2.4673 14.9706 2.40786 14.9368 2.36032 14.8892C2.31279 14.8417 2.2789 14.7822 2.26222 14.7171C2.24554 14.652 2.24667 14.5836 2.26549 14.5191L2.89399 12.3651C2.96465 12.1231 3.09517 11.9028 3.27349 11.7246L12.2817 2.7163Z" stroke="#303030" stroke-width="1.8" stroke-linecap="round" stroke-linejoin="round"/>
<path d="M11.25 3.75049L13.5 6.00049" stroke="#303030" stroke-width="1.8" stroke-linecap="round" stroke-linejoin="round"/>
</svg>
