<svg width="60" height="60" viewBox="0 0 60 60" fill="none" xmlns="http://www.w3.org/2000/svg">
<path d="M41.5015 21.4686C41.6758 21.569 41.8286 21.7028 41.9511 21.8624C42.0736 22.022 42.1635 22.2042 42.2155 22.3985C42.2675 22.5929 42.2806 22.7956 42.2541 22.995C42.2277 23.1945 42.1621 23.3867 42.0612 23.5608L31.6093 41.6475C31.405 41.9959 31.0713 42.2494 30.6808 42.3526C30.2904 42.4558 29.8749 42.4004 29.5252 42.1985C29.1754 41.9966 28.9197 41.6645 28.8139 41.2747C28.7081 40.885 28.7608 40.4692 28.9604 40.1181L39.4123 22.0283C39.6151 21.6771 39.9492 21.4208 40.341 21.3158C40.7327 21.2108 41.1502 21.2658 41.5015 21.4686Z" fill="#0085FE"/>
<path d="M39.5693 5.97384C38.9378 6.48352 38.3951 7.09439 37.9634 7.7816C37.4954 8.479 36.9846 9.36606 36.3484 10.4611L20.6812 37.5743C19.6886 39.2122 19.1984 41.1052 19.2711 43.019L19.3781 49.4945C19.3996 50.6691 19.4149 51.6571 19.5005 52.434C19.5352 52.7705 19.5933 53.1049 19.6749 53.4373H5.49425C5.08862 53.4373 4.69961 53.5984 4.4128 53.8852C4.12598 54.1721 3.96484 54.5611 3.96484 54.9667C3.96484 55.3723 4.12598 55.7613 4.4128 56.0481C4.69961 56.335 5.08862 56.4961 5.49425 56.4961H23.8471C23.9739 56.4965 24.1003 56.481 24.2233 56.4502C24.7217 56.3577 25.2067 56.2035 25.667 55.9914C26.3828 55.6763 27.2454 55.1961 28.2731 54.6272L33.9442 51.4827C35.6373 50.5898 37.0315 49.2201 37.9543 47.543L53.6245 20.4297C54.2577 19.3347 54.7716 18.4446 55.1417 17.6921C55.5206 16.9748 55.7779 16.1995 55.9033 15.398C56.0258 14.466 55.9635 13.5189 55.72 12.611C55.4765 11.703 55.0565 10.8519 54.484 10.1063C53.9743 9.47475 53.3635 8.9321 52.6763 8.50042C51.9789 8.03242 51.0888 7.5216 49.9937 6.88843L49.9019 6.83337C48.8008 6.2002 47.9137 5.68938 47.1613 5.31926C46.4429 4.94004 45.6667 4.68267 44.8641 4.55762C42.9822 4.30932 41.0756 4.81875 39.5693 5.97384ZM44.4664 7.58889C44.7907 7.63172 45.1822 7.75407 45.8184 8.06606C46.4669 8.38418 47.2683 8.84606 48.4184 9.50982C49.5747 10.1766 50.3761 10.6385 50.9725 11.0392C51.5629 11.4369 51.8626 11.7122 52.0615 11.9691C52.7222 12.8317 53.0158 13.9206 52.872 14.9973C52.8323 15.3185 52.7099 15.71 52.3979 16.3432C51.9421 17.2243 51.4596 18.0914 50.9511 18.9432L50.5535 19.6375C50.37 19.4144 50.176 19.2 49.9723 18.9952C49.0669 18.0775 47.5528 16.8448 45.0232 15.3858C42.5363 13.9481 40.8142 13.1529 39.6825 12.7124C39.3831 12.5948 39.0802 12.4867 38.774 12.3882L38.9728 12.0394C39.6397 10.8863 40.1046 10.0879 40.5053 9.48841C40.9029 8.90112 41.1782 8.60136 41.4352 8.40253C42.2978 7.74183 43.3898 7.44819 44.4695 7.58889M48.8956 22.5128L35.3145 46.0136C34.6698 47.212 33.6769 48.1868 32.4668 48.8093L27.432 51.5989C26.8844 50.7682 26.1424 50.0835 25.2704 49.6044C24.3984 49.1252 23.4226 48.8659 22.4278 48.8491L22.3268 42.967C22.2635 41.6084 22.6133 40.2626 23.3301 39.1068L37.1865 15.1319C37.2619 15.1523 37.3384 15.1696 37.4159 15.1839H37.4251L37.5933 15.2267C37.7707 15.2757 38.0888 15.3735 38.566 15.5632C39.5234 15.9333 41.1048 16.6582 43.4907 18.0347C45.8399 19.3867 47.1184 20.4603 47.7914 21.1424C48.0381 21.3888 48.2595 21.6593 48.4521 21.95C48.5506 22.1691 48.6994 22.3619 48.8864 22.5128" fill="#0085FE"/>
</svg>
