<svg width="28" height="28" viewBox="0 0 28 28" fill="none" xmlns="http://www.w3.org/2000/svg">
<path d="M17.5665 21.462C18.2385 21.7157 19.0767 21.875 20.125 21.875C21.1715 21.875 22.0097 21.7175 22.68 21.4638C25.3715 20.4453 25.3715 17.8938 25.3715 17.8938C25.3715 16.709 24.4107 15.75 23.2277 15.75H17.0188C15.834 15.75 14.875 16.709 14.875 17.8938C14.875 17.8938 14.875 20.4435 17.5665 21.4638" fill="#F8FF26"/>
<path d="M17.5665 21.462C18.2385 21.7157 19.0767 21.875 20.125 21.875C21.1715 21.875 22.0097 21.7175 22.68 21.4638C25.3715 20.4453 25.3715 17.8938 25.3715 17.8938C25.3715 16.709 24.4107 15.75 23.2277 15.75H17.0188C15.834 15.75 14.875 16.709 14.875 17.8938C14.875 17.8938 14.875 20.4435 17.5665 21.4638" fill="url(#paint0_radial_2084_7986)" fill-opacity="0.5"/>
<path d="M16.625 18.375C16.625 17.6788 16.3484 17.0111 15.8562 16.5188C15.3639 16.0266 14.6962 15.75 14 15.75H5.25C4.55381 15.75 3.88613 16.0266 3.39384 16.5188C2.90156 17.0111 2.625 17.6788 2.625 18.375V18.5062C2.625 18.5062 2.625 23.625 9.625 23.625C16.296 23.625 16.6093 18.977 16.625 18.5395V18.375Z" fill="#F8FF26"/>
<path d="M20.125 14C21.0533 14 21.9435 13.6313 22.5999 12.9749C23.2563 12.3185 23.625 11.4283 23.625 10.5C23.625 9.57174 23.2563 8.6815 22.5999 8.02513C21.9435 7.36875 21.0533 7 20.125 7C19.1967 7 18.3065 7.36875 17.6501 8.02513C16.9937 8.6815 16.625 9.57174 16.625 10.5C16.625 11.4283 16.9937 12.3185 17.6501 12.9749C18.3065 13.6313 19.1967 14 20.125 14Z" fill="#F8FF26"/>
<path d="M14 9.625C14 10.7853 13.5391 11.8981 12.7186 12.7186C11.8981 13.5391 10.7853 14 9.625 14C8.46468 14 7.35188 13.5391 6.53141 12.7186C5.71094 11.8981 5.25 10.7853 5.25 9.625C5.25 8.46468 5.71094 7.35188 6.53141 6.53141C7.35188 5.71094 8.46468 5.25 9.625 5.25C10.7853 5.25 11.8981 5.71094 12.7186 6.53141C13.5391 7.35188 14 8.46468 14 9.625Z" fill="#F8FF26"/>
<defs>
<radialGradient id="paint0_radial_2084_7986" cx="0" cy="0" r="1" gradientUnits="userSpaceOnUse" gradientTransform="translate(13.545 18.8125) rotate(-7.36814) scale(6.96511 7.21725)">
<stop offset="0.392" stop-color="#3B148A"/>
<stop offset="1" stop-color="#3B148A" stop-opacity="0"/>
</radialGradient>
</defs>
</svg>
