<svg width="65" height="118" viewBox="0 0 65 118" fill="none" xmlns="http://www.w3.org/2000/svg">
<path fill-rule="evenodd" clip-rule="evenodd" d="M33.4872 26.4863C32.0835 34.7664 29.2924 52.2967 30.8573 58.7267L40.2795 63.9503L47.0096 57.203L38.5551 54.2649L37.9816 37.397C37.6008 30.9998 36.175 28.8801 33.4872 26.4863Z" fill="#0D2F50"/>
<path fill-rule="evenodd" clip-rule="evenodd" d="M23.8088 17.5958C22.633 19.6678 22.1984 23.3472 25.1109 25.8771L19.8586 30.9533L15.8242 25.7782C17.9177 25.0597 17.5913 19.6556 17.7489 15.1885C17.7489 15.1885 23.8088 17.01 23.8088 17.5958Z" fill="#F29C6B"/>
<path fill-rule="evenodd" clip-rule="evenodd" d="M23.8118 17.5958C23.1085 18.8352 22.6704 20.6502 23.0554 22.45C21.2818 21.632 19.4219 21.1376 17.6211 20.4048C17.702 18.7384 17.6916 16.895 17.7519 15.1885C17.7519 15.1885 23.8118 17.0099 23.8118 17.5958Z" fill="#DA383C"/>
<path fill-rule="evenodd" clip-rule="evenodd" d="M27.3406 26.4612L32.4887 27.8105L31.4946 39.4219L30.7595 69.8234L8.93 67.5602C12.1959 55.5992 7.73043 44.1887 5.91992 29.2151L14.4634 25.778L17.186 22.5566C17.998 24.0262 18.8441 24.9101 21.3577 26.4163C22.9456 25.2495 23.3083 23.9363 23.0585 22.4766L27.3462 26.3898L27.3406 26.4612Z" fill="#E4E8EB"/>
<path fill-rule="evenodd" clip-rule="evenodd" d="M22.5646 26.2262C22.2206 26.4594 21.784 26.6044 21.5307 26.6253C21.2773 26.6462 20.3652 26.0387 20.1938 26.0195L20.1562 27.7363L20.367 28.0018C20.367 28.0018 21.5142 50.0478 20.4836 54.4461L26.0493 54.3501C26.0171 51.175 22.5634 28.0549 22.5634 28.0549L22.9988 26.8691L22.5646 26.2262Z" fill="#243A5C"/>
<path fill-rule="evenodd" clip-rule="evenodd" d="M24.6537 30.1285L22.2383 26.4205L20.8163 26.4286L19.2412 29.5893C17.8882 27.7585 17.1521 26.1364 15.4961 24.5551L17.1847 22.5569C17.997 24.0264 18.843 24.4052 21.3566 25.9114C22.9445 24.7446 23.3072 23.9364 23.0574 22.4766L25.5017 24.7076C25.4883 25.1261 25.4693 25.5463 25.4447 25.9677C24.6609 27.1822 25.4715 28.9403 24.6537 30.1285Z" fill="#EBEFF8"/>
<path fill-rule="evenodd" clip-rule="evenodd" d="M27.8579 7.19402C28.3867 10.8777 27.2911 19.4041 23.7543 20.9797C21.1447 21.1184 19.4062 19.857 17.0008 17.2867C14.565 15.4643 14.0568 8.87897 15.8428 8.32259C15.666 6.84631 15.8766 5.81739 16.3637 5.09046C22.8311 -2.1334 27.5048 5.14456 27.8579 7.19402Z" fill="#F29C6B"/>
<path fill-rule="evenodd" clip-rule="evenodd" d="M29.044 3.20999C29.6986 4.58379 28.5801 6.44752 27.8617 7.23615C24.8322 7.48618 21.9229 6.34677 18.4169 7.98603L18.9258 13.8873L18.1088 13.821C17.8752 10.2613 16.527 10.5096 15.574 11.4594C14.966 12.9598 15.9159 14.3136 16.7991 15.0716L17.752 15.4884C17.4256 16.1018 17.0774 16.6108 16.7074 17.0307C14.5305 14.9189 13.0405 9.02385 14.7512 8.4909C14.265 4.43263 17.6048 2.23635 20.6778 1.93165C23.7946 -0.58517 27.7009 0.339904 29.044 3.20999Z" fill="#1E1E1E"/>
<path fill-rule="evenodd" clip-rule="evenodd" d="M33.488 26.4867L33.5282 39.5904L32.3373 75.7356L22.9493 75.8166L22.5809 70.9031L21.5024 75.901C15.7034 76.3865 11.1865 75.5384 6.64205 73.5295C7.93104 59.2591 4.24319 47.15 4.22656 29.7118L13.9241 24.9505L17.185 22.5568C17.252 26.0477 17.3673 28.1209 18.5702 35.1293C21.1394 39.9947 19.9129 39.2537 22.776 45.5151C24.2901 39.9324 23.9031 38.9579 25.1793 34.2137C25.86 30.375 23.8083 23.831 23.0577 22.4766C24.2941 23.2161 24.7816 22.6323 26.0181 23.9692C28.1747 24.6259 31.1952 25.3542 33.488 26.4867Z" fill="#0D2F50"/>
<path fill-rule="evenodd" clip-rule="evenodd" d="M4.22783 29.7119C1.6206 37.992 0.227217 52.0398 0.857451 58.4699L7.73702 64.1287L13.9083 56.8374L8.84976 52.2668L11.6826 39.9695C12.2327 34.5914 7.72442 31.2811 4.22783 29.7119Z" fill="#0D2F50"/>
<path fill-rule="evenodd" clip-rule="evenodd" d="M17.2658 11.8906C17.5372 13.4953 17.8087 14.4073 17.2093 14.2688C16.6097 14.1302 16.8837 12.9583 17.0396 13.2182C17.4885 13.9668 17.2116 11.9459 17.2658 11.8906Z" fill="#DA383C"/>
<path fill-rule="evenodd" clip-rule="evenodd" d="M26.4613 12.2324C26.2023 12.2324 25.9922 12.4584 25.9922 12.737C25.9922 13.0156 26.2023 13.2416 26.4613 13.2416C26.7203 13.2416 26.9303 13.0156 26.9303 12.737C26.9303 12.4584 26.7203 12.2324 26.4613 12.2324Z" fill="#8C2528"/>
<path fill-rule="evenodd" clip-rule="evenodd" d="M21.9359 12.2324C22.1949 12.2324 22.405 12.4584 22.405 12.737C22.405 13.0156 22.1949 13.2416 21.9359 13.2416C21.6769 13.2416 21.4668 13.0156 21.4668 12.737C21.4668 12.4584 21.6769 12.2324 21.9359 12.2324Z" fill="#8C2528"/>
<path fill-rule="evenodd" clip-rule="evenodd" d="M20.907 11.4101C20.795 11.537 20.6083 11.5422 20.4902 11.4215C20.3722 11.301 20.3673 11.1002 20.4795 10.9732C20.8989 10.4978 21.3316 10.2147 21.7773 10.1241C22.2384 10.0302 22.6977 10.141 23.1549 10.4562C23.292 10.5512 23.3316 10.7478 23.2433 10.8953C23.155 11.0428 22.9722 11.0855 22.8351 10.9905C22.5096 10.766 22.1937 10.6849 21.8878 10.7472C21.5663 10.8125 21.2392 11.0335 20.907 11.4101Z" fill="#8C2528"/>
<path fill-rule="evenodd" clip-rule="evenodd" d="M27.2909 11.1762C27.4314 11.2648 27.612 11.2142 27.6944 11.063C27.7768 10.912 27.7297 10.7176 27.5893 10.629C27.0639 10.2971 26.5753 10.154 26.1237 10.1997C25.6565 10.247 25.2436 10.4901 24.8854 10.9292C24.7781 11.0615 24.7907 11.2622 24.9135 11.3776C25.0364 11.493 25.223 11.4794 25.3303 11.3473C25.5853 11.0347 25.868 10.8627 26.1779 10.8313C26.5037 10.7985 26.8748 10.9133 27.2909 11.1762Z" fill="#8C2528"/>
<path fill-rule="evenodd" clip-rule="evenodd" d="M33.4138 22.264L34.5353 23.1944C35.0422 23.6147 35.137 24.4045 34.7462 24.9496L34.7461 24.9498C34.3554 25.4948 33.6211 25.5969 33.1143 25.1766L31.9927 24.2461C31.486 23.8258 31.3911 23.0359 31.7819 22.4909L31.782 22.4908C32.1728 21.9457 32.907 21.8436 33.4138 22.264Z" fill="#2D455D"/>
<path fill-rule="evenodd" clip-rule="evenodd" d="M33.8772 24.4734C33.7476 24.3501 33.7355 24.1369 33.8501 23.9975C33.9649 23.8581 34.163 23.8451 34.2926 23.9684L36.9744 26.5177C37.7273 27.2333 38.3447 27.959 38.8025 28.8767C39.2611 29.7955 39.5551 30.8965 39.659 32.3576L41.0755 52.2727C41.0883 52.4588 40.9584 52.621 40.7854 52.6349C40.6125 52.6487 40.4616 52.509 40.4488 52.3229L39.0324 32.4078C38.9356 31.0476 38.667 30.0331 38.2496 29.1966C37.8316 28.3591 37.2597 27.6886 36.5591 27.0227L33.8772 24.4734Z" fill="#2D455D"/>
<path d="M59.1841 66.6387H8.38867V117.767H59.1841V66.6387Z" fill="#62392C"/>
<path fill-rule="evenodd" clip-rule="evenodd" d="M8.32031 67.4199H59.3483V77.0005L52.4687 81.956H8.32031V67.4199Z" fill="#50291C"/>
<path d="M20.6496 66.6387H8.38867V117.767H20.6496V66.6387Z" fill="#50291C"/>
<path d="M20.5977 67.4199H8.32031V81.9558H20.5977V67.4199Z" fill="#3A1B0E"/>
<path fill-rule="evenodd" clip-rule="evenodd" d="M3.20117 77.0009H62.7584V48.9199L13.1867 48.92L3.20117 62.4649V77.0009Z" fill="#744336"/>
<path d="M62.7589 47.1025H17.4434V53.875H62.7589V47.1025Z" fill="#62392C"/>
<path fill-rule="evenodd" clip-rule="evenodd" d="M3.20117 77.001H17.4429V48.9199L13.1867 48.9201L3.20117 62.4649V77.001Z" fill="#62392C"/>
<path fill-rule="evenodd" clip-rule="evenodd" d="M17.4406 53.8754V48.9199L13.1844 48.9201L9.53125 53.8754H17.4406Z" fill="#472518"/>
<path d="M64.0985 47.1025H8.88477V51.3973H64.0985V47.1025Z" fill="#844E3F"/>
<path d="M16.1763 47.1025H8.88477V51.3973H16.1763V47.1025Z" fill="#744336"/>
<path fill-rule="evenodd" clip-rule="evenodd" d="M19.6892 11.9123C19.117 11.6392 18.3218 11.5608 17.7034 11.7041L17.5527 11.4041C18.2669 11.2044 19.1823 11.2927 19.8461 11.6186C20.0484 11.3438 20.3547 11.1797 20.6838 11.1797H23.011C23.5975 11.1797 24.0787 11.6972 24.0787 12.3282H24.8264C24.8264 11.6973 25.3075 11.1797 25.8941 11.1797H28.2212C28.8078 11.1797 29.2889 11.6972 29.2889 12.3282V13.6344C29.2889 14.2661 28.8084 14.7829 28.2212 14.7829H25.8941C25.3073 14.7829 24.8264 14.2656 24.8264 13.6344V12.6413H24.0787V13.6344C24.0787 14.2661 23.5981 14.7829 23.011 14.7829H20.6838C20.097 14.7829 19.6161 14.2656 19.6161 13.6344V12.3282C19.6161 12.1818 19.6421 12.0415 19.6892 11.9123ZM28.2212 11.5181H25.894C25.4792 11.5181 25.141 11.882 25.141 12.3282V13.6344C25.141 14.0798 25.4797 14.4445 25.894 14.4445H28.2212C28.6358 14.4445 28.9743 14.0803 28.9743 13.6344V12.3282C28.9743 11.882 28.636 11.5181 28.2212 11.5181ZM20.0744 11.8531C19.9812 12.0064 19.9308 12.1394 19.9308 12.3282V13.6344C19.9308 14.0799 20.2695 14.4445 20.6838 14.4445H23.011C23.4257 14.4445 23.7641 14.0803 23.7641 13.6344V12.3282C23.7641 11.882 23.4258 11.5181 23.011 11.5181H20.6838C20.4406 11.5181 20.2161 11.6441 20.0744 11.8531Z" fill="#231F20"/>
</svg>
