<svg width="59" height="59" viewBox="0 0 59 59" fill="none" xmlns="http://www.w3.org/2000/svg">
<path d="M29.5005 32.4579C32.1648 32.4563 34.7882 32.7693 37.3716 33.3974C39.9532 34.0251 42.4972 34.9626 45.0034 36.2119V36.2128C46.1087 36.7845 46.995 37.612 47.6665 38.705C48.335 39.7933 48.668 40.9821 48.6665 42.2822V44.2499C48.6664 45.4684 48.2387 46.4995 47.3696 47.3701C46.501 48.2401 45.4703 48.6674 44.2505 48.666H14.7505C13.532 48.666 12.5012 48.2389 11.6323 47.3701C10.8177 46.5554 10.3898 45.5978 10.3384 44.4755L10.3335 44.249V42.2831L10.3374 42.04C10.3766 40.8324 10.7097 39.7238 11.3364 38.705C12.0067 37.6156 12.8898 36.789 13.9907 36.2158C16.4989 34.9617 19.0448 34.0223 21.6284 33.3974C24.212 32.7725 26.8358 32.4596 29.5005 32.4579ZM29.5005 10.3329C32.0709 10.333 34.2587 11.2425 36.0913 13.0751C37.9239 14.9077 38.8334 17.0956 38.8335 19.666C38.8335 22.2365 37.924 24.4251 36.0913 26.2578C34.2587 28.0902 32.0708 28.9999 29.5005 28.9999C26.93 28.9999 24.7414 28.0904 22.9087 26.2578C21.076 24.4251 20.1665 22.2365 20.1665 19.666C20.1666 17.0957 21.0762 14.9077 22.9087 13.0751C24.7414 11.2425 26.93 10.3329 29.5005 10.3329Z" stroke="#2399F5"/>
</svg>
