<svg width="210" height="208" viewBox="0 0 210 208" fill="none" xmlns="http://www.w3.org/2000/svg">
<path d="M197.639 0H172.406L154.559 204H179.791C186.967 204 193.315 198.162 193.943 190.987L209.514 13.0134C210.141 5.83756 204.814 0 197.639 0Z" fill="#407BFF"/>
<path d="M192.49 0H107.093C99.9172 0 93.569 5.83756 92.9413 13.0134L77.3706 190.987C76.7429 198.162 82.0697 204 89.2456 204H174.642C181.818 204 188.166 198.162 188.794 190.987L204.365 13.0134C204.993 5.83756 199.666 0 192.49 0Z" fill="#407BFF"/>
<path opacity="0.3" d="M192.49 0H107.093C99.9172 0 93.569 5.83756 92.9413 13.0134L77.3706 190.987C76.7429 198.162 82.0697 204 89.2456 204H174.642C181.818 204 188.166 198.162 188.794 190.987L204.365 13.0134C204.993 5.83756 199.666 0 192.49 0Z" fill="white"/>
<path opacity="0.4" d="M192.123 4.17188H169.608C168.28 4.17188 167.033 5.04367 166.541 6.31611C164.721 11.0199 160.112 14.2413 155.202 14.2413H141.888C136.978 14.2413 132.931 11.0192 131.934 6.31611C131.664 5.04367 130.57 4.17264 129.241 4.17264H106.727C101.842 4.17264 97.5366 8.13177 97.1089 13.0162L81.5382 190.989C81.1112 195.874 84.7239 199.833 89.6083 199.833H175.005C179.889 199.833 184.195 195.874 184.623 190.989L200.193 13.0162C200.62 8.13177 197.008 4.17188 192.123 4.17188Z" fill="white"/>
<path d="M170.85 100.84H111.085C109.312 100.84 108.002 99.4034 108.157 97.6319L108.456 94.2121C108.611 92.4398 110.173 91.0039 111.946 91.0039H171.711C173.484 91.0039 174.794 92.4406 174.639 94.2121L174.34 97.6319C174.185 99.4034 172.623 100.84 170.85 100.84Z" fill="white"/>
<path d="M169.561 115.598H109.796C108.023 115.598 106.713 114.161 106.868 112.39L107.167 108.97C107.322 107.198 108.884 105.762 110.657 105.762H170.422C172.195 105.762 173.505 107.198 173.35 108.97L173.051 112.39C172.896 114.161 171.334 115.598 169.561 115.598Z" fill="white"/>
<path opacity="0.1" d="M152.692 7.50303C152.52 9.46825 150.788 11.0607 148.823 11.0607C146.857 11.0607 145.404 9.46825 145.576 7.50303C145.748 5.5378 147.48 3.94531 149.446 3.94531C151.41 3.94531 152.864 5.5378 152.692 7.50303Z" fill="black"/>
<path opacity="0.1" d="M151.079 7.50212C150.985 8.5754 150.039 9.44564 148.965 9.44564C147.892 9.44564 147.097 8.5754 147.191 7.50212C147.285 6.42884 148.231 5.55859 149.305 5.55859C150.379 5.55859 151.173 6.42884 151.079 7.50212Z" fill="black"/>
<g opacity="0.8">
<path d="M181.612 13.4354C181.036 13.4354 180.61 12.9689 180.66 12.3932L180.827 10.4876C180.877 9.91182 181.385 9.44531 181.961 9.44531C182.536 9.44531 182.963 9.91182 182.912 10.4876L182.746 12.3932C182.695 12.9689 182.188 13.4354 181.612 13.4354Z" fill="white"/>
<path d="M189.952 13.4356C189.376 13.4356 188.95 12.9691 189 12.3933L189.391 7.92119C189.442 7.34542 189.949 6.87891 190.525 6.87891C191.101 6.87891 191.527 7.34542 191.477 7.92119L191.085 12.3933C191.035 12.9691 190.528 13.4356 189.952 13.4356Z" fill="white"/>
<path d="M185.784 13.4375C185.208 13.4375 184.782 12.971 184.832 12.3952L185.111 9.20635C185.162 8.63057 185.669 8.16406 186.245 8.16406C186.821 8.16406 187.247 8.63057 187.196 9.20635L186.918 12.3952C186.867 12.971 186.36 13.4375 185.784 13.4375Z" fill="white"/>
</g>
<g opacity="0.8">
<path d="M110.213 13.437H104.978C104.652 13.437 104.411 13.1727 104.44 12.8465L104.685 10.0358C104.714 9.70956 105.002 9.44531 105.327 9.44531H110.562C110.888 9.44531 111.129 9.70956 111.1 10.0358L110.855 12.8465C110.826 13.1727 110.539 13.437 110.213 13.437Z" fill="white"/>
<path d="M112.639 12.6736C112.312 12.6736 112.071 12.4094 112.1 12.0831L112.212 10.7975C112.241 10.4713 112.529 10.207 112.854 10.207C113.18 10.207 113.421 10.4713 113.393 10.7975L113.28 12.0831C113.252 12.4094 112.965 12.6736 112.639 12.6736Z" fill="white"/>
</g>
<path d="M161.014 78.3631C171.442 68.3812 172.481 52.5437 163.335 42.989C154.189 33.4343 138.321 33.7805 127.893 43.7623C117.465 53.7441 116.426 69.5816 125.572 79.1363C134.718 88.6911 150.586 88.3449 161.014 78.3631Z" fill="white"/>
<path d="M144.534 60.0938C137.959 60.0938 132.409 62.5952 131.934 68.0314L131.406 74.0642H155.219L155.747 68.0314C156.222 62.5952 151.11 60.0938 144.534 60.0938Z" fill="#407BFF"/>
<path d="M144.751 57.613C147.803 57.613 149.21 55.1394 149.477 52.0878C149.744 49.0361 148.769 46.5625 145.717 46.5625C142.666 46.5625 141.259 49.0361 140.991 52.0878C140.725 55.1394 141.699 57.613 144.751 57.613Z" fill="#407BFF"/>
<path d="M168.125 95.75C166.501 95.75 165.13 96.3676 165.013 97.7106L164.883 99.2008H170.765L170.895 97.7106C171.012 96.3676 169.749 95.75 168.125 95.75Z" fill="#407BFF"/>
<path d="M168.177 95.1356C168.931 95.1356 169.278 94.5241 169.344 93.7709C169.41 93.0169 169.17 92.4062 168.416 92.4062C167.662 92.4062 167.315 93.0177 167.249 93.7709C167.183 94.5249 167.424 95.1356 168.177 95.1356Z" fill="#407BFF"/>
<path d="M150.016 130.353H126.761C124.045 130.353 122.035 128.151 122.273 125.434C122.511 122.718 124.905 120.516 127.622 120.516H150.877C153.593 120.516 155.602 122.718 155.364 125.434C155.126 128.151 152.732 130.353 150.016 130.353Z" fill="#407BFF"/>
<path d="M147.21 185.204H122.321C119.451 185.204 117.328 182.877 117.579 180.006L119.167 161.854C119.418 158.983 121.948 156.656 124.818 156.656H149.707C152.577 156.656 154.7 158.983 154.449 161.854L152.861 180.006C152.61 182.877 150.08 185.204 147.21 185.204Z" fill="#407BFF"/>
<g opacity="0.6">
<path d="M139.533 166.436C139.684 164.709 138.406 163.309 136.679 163.309C134.951 163.309 133.429 164.709 133.278 166.436C133.188 167.465 133.612 168.37 134.328 168.939L133.781 175.19C133.691 176.216 134.45 177.047 135.476 177.047C136.502 177.047 137.406 176.216 137.496 175.19L138.043 168.939C138.861 168.37 139.443 167.465 139.533 166.436Z" fill="white"/>
</g>
<path d="M149.925 160.434H146.717L147.503 151.453C147.975 146.055 143.969 141.664 138.571 141.664C133.174 141.664 128.399 146.055 127.927 151.453L127.141 160.434H123.934L124.719 151.453C125.346 144.287 131.686 138.457 138.852 138.457C146.018 138.457 151.337 144.287 150.711 151.453L149.925 160.434Z" fill="#407BFF"/>
<path d="M168.519 109.506L168.594 108.644C168.672 107.763 168.018 107.047 167.137 107.047C166.256 107.047 165.477 107.764 165.4 108.644L165.325 109.506C164.973 109.506 164.663 109.791 164.633 110.143L164.432 112.433C164.401 112.785 164.662 113.07 165.013 113.07H168.206C168.558 113.07 168.868 112.785 168.899 112.433L169.1 110.143C169.131 109.791 168.871 109.506 168.519 109.506ZM167.103 107.441C167.766 107.441 168.258 107.98 168.201 108.643L168.126 109.505H165.719L165.795 108.643C165.853 107.98 166.439 107.441 167.103 107.441Z" fill="#407BFF"/>
<path d="M120.453 110.421L119.339 110.191C119.207 110.164 119.139 110.025 119.194 109.895L119.658 108.798C119.758 108.562 119.471 108.388 119.291 108.575L118.448 109.443C118.348 109.546 118.188 109.546 118.106 109.443L117.416 108.575C117.268 108.389 116.951 108.562 117.009 108.798L117.281 109.895C117.314 110.025 117.221 110.164 117.084 110.191L115.93 110.421C115.682 110.471 115.651 110.819 115.891 110.869L117.005 111.099C117.137 111.126 117.205 111.265 117.15 111.395L116.686 112.492C116.586 112.728 116.873 112.902 117.053 112.715L117.896 111.847C117.996 111.744 118.156 111.744 118.237 111.847L118.928 112.715C119.076 112.902 119.393 112.728 119.335 112.492L119.063 111.395C119.03 111.265 119.122 111.126 119.26 111.099L120.414 110.869C120.662 110.819 120.692 110.47 120.453 110.421Z" fill="#263238"/>
<path d="M127.785 110.421L126.671 110.191C126.539 110.164 126.471 110.025 126.526 109.895L126.99 108.798C127.09 108.562 126.803 108.388 126.623 108.575L125.78 109.443C125.68 109.546 125.521 109.546 125.439 109.443L124.748 108.575C124.6 108.389 124.283 108.562 124.341 108.798L124.613 109.895C124.646 110.025 124.553 110.164 124.416 110.191L123.262 110.421C123.014 110.471 122.984 110.819 123.222 110.869L124.337 111.099C124.468 111.126 124.537 111.265 124.482 111.395L124.017 112.492C123.917 112.728 124.204 112.902 124.385 112.715L125.227 111.847C125.327 111.744 125.487 111.744 125.569 111.847L126.259 112.715C126.407 112.902 126.724 112.728 126.666 112.492L126.394 111.395C126.362 111.265 126.455 111.126 126.591 111.099L127.746 110.869C127.994 110.819 128.025 110.47 127.785 110.421Z" fill="#263238"/>
<path d="M135.121 110.421L134.007 110.191C133.875 110.164 133.807 110.025 133.862 109.895L134.326 108.798C134.426 108.562 134.139 108.388 133.959 108.575L133.116 109.443C133.016 109.546 132.856 109.546 132.774 109.443L132.084 108.575C131.936 108.389 131.619 108.562 131.677 108.798L131.949 109.895C131.982 110.025 131.89 110.164 131.752 110.191L130.598 110.421C130.35 110.471 130.32 110.819 130.558 110.869L131.673 111.099C131.804 111.126 131.872 111.265 131.817 111.395L131.353 112.492C131.253 112.728 131.54 112.902 131.721 112.715L132.563 111.847C132.663 111.744 132.823 111.744 132.905 111.847L133.595 112.715C133.743 112.902 134.06 112.728 134.002 112.492L133.73 111.395C133.697 111.265 133.79 111.126 133.927 111.099L135.081 110.869C135.33 110.819 135.36 110.47 135.121 110.421Z" fill="#263238"/>
<path d="M142.453 110.421L141.339 110.191C141.207 110.164 141.139 110.025 141.194 109.895L141.658 108.798C141.758 108.562 141.471 108.388 141.291 108.575L140.448 109.443C140.348 109.546 140.188 109.546 140.106 109.443L139.416 108.575C139.268 108.389 138.951 108.562 139.009 108.798L139.281 109.895C139.314 110.025 139.221 110.164 139.084 110.191L137.93 110.421C137.682 110.471 137.651 110.819 137.891 110.869L139.005 111.099C139.137 111.126 139.205 111.265 139.15 111.395L138.686 112.492C138.586 112.728 138.873 112.902 139.053 112.715L139.896 111.847C139.996 111.744 140.156 111.744 140.237 111.847L140.928 112.715C141.076 112.902 141.393 112.728 141.335 112.492L141.063 111.395C141.03 111.265 141.122 111.126 141.26 111.099L142.414 110.869C142.661 110.819 142.692 110.47 142.453 110.421Z" fill="#263238"/>
<path d="M149.785 110.421L148.671 110.191C148.539 110.164 148.471 110.025 148.526 109.895L148.99 108.798C149.09 108.562 148.803 108.388 148.623 108.575L147.78 109.443C147.68 109.546 147.52 109.546 147.439 109.443L146.748 108.575C146.6 108.389 146.283 108.562 146.341 108.798L146.613 109.895C146.646 110.025 146.554 110.164 146.416 110.191L145.262 110.421C145.014 110.471 144.984 110.819 145.222 110.869L146.337 111.099C146.468 111.126 146.537 111.265 146.482 111.395L146.017 112.492C145.918 112.728 146.204 112.902 146.385 112.715L147.227 111.847C147.327 111.744 147.487 111.744 147.569 111.847L148.259 112.715C148.407 112.902 148.724 112.728 148.666 112.492L148.394 111.395C148.362 111.265 148.454 111.126 148.591 111.099L149.746 110.869C149.994 110.819 150.025 110.47 149.785 110.421Z" fill="#263238"/>
<path d="M157.121 110.421L156.007 110.191C155.875 110.164 155.807 110.025 155.862 109.895L156.326 108.798C156.425 108.562 156.139 108.388 155.959 108.575L155.116 109.443C155.016 109.546 154.857 109.546 154.775 109.443L154.084 108.575C153.936 108.389 153.619 108.562 153.677 108.798L153.949 109.895C153.982 110.025 153.889 110.164 153.752 110.191L152.598 110.421C152.35 110.471 152.32 110.819 152.558 110.869L153.673 111.099C153.804 111.126 153.872 111.265 153.817 111.395L153.353 112.492C153.253 112.728 153.54 112.902 153.721 112.715L154.563 111.847C154.663 111.744 154.823 111.744 154.905 111.847L155.595 112.715C155.743 112.902 156.06 112.728 156.002 112.492L155.73 111.395C155.697 111.265 155.79 111.126 155.927 111.099L157.081 110.869C157.329 110.819 157.36 110.47 157.121 110.421Z" fill="#263238"/>
<path d="M139.444 94.375H125.675C124.82 94.375 124.066 95.0686 123.99 95.9241C123.915 96.7796 124.548 97.4732 125.404 97.4732H139.173C140.028 97.4732 140.782 96.7796 140.858 95.9241C140.933 95.0686 140.3 94.375 139.444 94.375Z" fill="#263238"/>
<path d="M153.422 94.375H145.433C144.577 94.375 143.823 95.0686 143.748 95.9241C143.673 96.7796 144.306 97.4732 145.162 97.4732H153.151C154.007 97.4732 154.761 96.7796 154.836 95.9241C154.911 95.0686 154.278 94.375 153.422 94.375Z" fill="#263238"/>
<path d="M163.969 164.623C158.778 166.696 154.227 169.719 151.112 173.158C149.285 171.603 146.688 170.524 143.575 170.03L143.21 169.972L143.051 171.8L143.255 171.877C146.327 173.038 148.828 175.097 150.487 177.832L150.747 178.262L151.036 177.801C154.228 172.69 158.884 168.407 164.144 165.743L164.323 165.653L164.429 164.438L163.969 164.623Z" fill="#263238"/>
<path d="M46.2003 64.8164C47.9165 66.6827 49.5565 68.6159 51.1756 70.5672C52.7968 72.5165 54.3778 74.5006 55.9394 76.5022C56.0077 76.5892 55.9802 76.5537 55.9963 76.5798C56.0037 76.5912 56.005 76.61 56.0144 76.6193C56.0318 76.6388 56.0412 76.6709 56.0619 76.6883C56.0927 76.7379 56.1376 76.7734 56.1825 76.8202C56.2776 76.9053 56.4075 76.9702 56.5521 76.997C56.6238 77.0077 56.6994 77.0184 56.7764 77.0104C56.818 77.0158 56.8548 77.003 56.8983 77.0017C56.9211 77.0024 56.9378 76.9903 56.9599 76.9876C56.9941 76.9729 56.9726 77.003 57.065 76.9481L58.7425 76.0388C60.9924 74.8475 63.2605 73.683 65.6062 72.6377L67.5669 75.0658C65.6772 76.8048 63.7091 78.9798 61.723 80.5735L60.223 81.7528C60.1849 81.7876 60.0235 81.8934 59.9224 81.961C59.8065 82.0353 59.6934 82.1157 59.5708 82.1813C59.3277 82.3152 59.0826 82.4492 58.8222 82.5523C58.3079 82.7746 57.7588 82.9159 57.2023 83.0016C56.086 83.1677 54.9262 83.0552 53.8434 82.6675C53.3037 82.4733 52.7807 82.2141 52.3046 81.8833C52.0609 81.7253 51.8379 81.5398 51.6156 81.353C51.5037 81.2599 51.404 81.1561 51.2995 81.055L51.033 80.7851C49.2612 78.9678 47.5087 77.133 45.7958 75.2633C44.0815 73.3951 42.3874 71.5101 40.7695 69.5574L46.2003 64.8164Z" fill="#B55B52"/>
<path d="M64.6953 74.119L66.2562 69.1055L70.3651 71.1532C70.3651 71.1532 69.7664 74.8114 66.7752 75.4456L64.6953 74.119Z" fill="#B55B52"/>
<path d="M67.9019 67.7148L71.6076 68.7354L70.3628 71.1527L66.2539 69.105L67.9019 67.7148Z" fill="#B55B52"/>
<path d="M24.5848 66.1831C24.1374 68.3132 23.591 70.4192 23.0185 72.5192C22.4486 74.6198 21.8265 76.7077 21.1797 78.7896L20.9386 79.5704L20.8181 79.9608C20.7926 80.0458 20.7759 80.0673 20.7531 80.1242C20.6795 80.3217 20.6353 80.536 20.6266 80.761C20.6152 81.207 20.721 81.7032 21.0129 82.1344C21.037 82.2041 21.2681 82.4465 21.4482 82.642L22.004 83.246L23.1002 84.4735C23.8221 85.3018 24.5412 86.1328 25.2243 87.0067L22.8906 89.708C21.927 89.1595 21.0002 88.5683 20.0755 87.9743L18.702 87.0683L18.023 86.6056C17.792 86.4449 17.6065 86.337 17.2369 86.031C15.9632 84.9509 15.0117 83.4175 14.6628 81.7146C14.4847 80.8648 14.4412 79.9789 14.5403 79.1017C14.5664 78.8914 14.6059 78.6463 14.638 78.4662L14.709 78.0637L14.851 77.2588C15.2266 75.1113 15.6271 72.9698 16.0791 70.8404C16.5291 68.711 17.0052 66.5876 17.5797 64.4883L24.5848 66.1831Z" fill="#B55B52"/>
<path d="M22.9297 86.8153L25.6926 85.4023L26.9113 90.0985C26.9113 90.0985 24.6942 90.9482 22.9779 89.8567L22.9297 86.8153Z" fill="#B55B52"/>
<path d="M29.5103 83.9023L29.6355 88.2101L26.5505 90.2277L25.4805 85.4954L29.5103 83.9023Z" fill="#B55B52"/>
<path d="M38.5458 44.0419C38.6134 44.374 38.8438 44.607 39.0607 44.5628C39.2777 44.5186 39.3989 44.214 39.3313 43.8818C39.2636 43.5497 39.0333 43.3167 38.8163 43.3608C38.6 43.405 38.4788 43.7097 38.5458 44.0419Z" fill="#324354"/>
<path d="M38.8125 44.6133C38.8125 44.6133 39.9562 46.3744 40.9747 47.1291C40.4986 47.7967 39.45 47.7492 39.45 47.7492L38.8125 44.6133Z" fill="#A02724"/>
<path d="M36.9568 42.4435C36.9086 42.4435 36.8597 42.4261 36.8216 42.3906C36.7412 42.3163 36.7359 42.1904 36.8109 42.1093C37.5575 41.3011 38.4635 41.4451 38.503 41.4511C38.6115 41.4698 38.6838 41.5723 38.6657 41.6808C38.647 41.7886 38.5432 41.8609 38.4374 41.8435C38.4073 41.8388 37.6988 41.735 37.1035 42.3792C37.064 42.4221 37.0104 42.4435 36.9568 42.4435Z" fill="#324354"/>
<path d="M28.8909 48.7109C29.6295 51.7825 30.3668 57.4108 27.7305 59.4599C27.7305 59.4599 28.7604 62.5757 35.7627 62.5757C43.4622 62.5757 39.4423 60.5688 39.4423 60.5688C35.2404 59.7512 35.3482 56.101 36.0801 53.7144L28.8909 48.7109Z" fill="#B55B52"/>
<path d="M26.9092 60.0296C26.4505 59.1758 25.9449 58.1995 26.9902 57.8935C28.14 57.5566 35.5267 56.9325 37.6963 57.5647C37.0294 58.7506 38.1584 60.2084 38.1584 60.2084L26.9092 60.0296Z" fill="#324354"/>
<path d="M33.0234 203.716H37.8548L38.3356 193.992H33.5049L33.0234 203.716Z" fill="#B55B52"/>
<path d="M2.36719 202.377L7.26019 202.635L10.234 193.056L5.34035 192.797L2.36719 202.377Z" fill="#B55B52"/>
<path d="M7.11026 202.245L2.49984 201.247C2.33243 201.21 2.16167 201.295 2.09002 201.451L0.489601 204.923C0.323532 205.284 0.543173 205.706 0.93223 205.783C2.54738 206.104 3.35027 206.179 5.37725 206.618C6.62477 206.888 9.43991 207.574 11.1629 207.947C12.8477 208.312 13.4791 206.665 12.8075 206.359C9.79548 204.982 8.53725 203.77 7.72164 202.641C7.57499 202.438 7.35601 202.299 7.11026 202.245Z" fill="#324354"/>
<path d="M37.5997 203.23H33.0147C32.8433 203.23 32.6946 203.35 32.6571 203.517L31.8275 207.249C31.7418 207.636 32.0351 208.002 32.4315 207.996C34.0855 207.967 36.4754 207.87 38.5546 207.87C40.9854 207.87 43.0847 208.003 45.9353 208.003C47.6589 208.003 48.137 206.261 47.4158 206.103C44.1313 205.384 41.4494 205.307 38.6108 203.557C38.3028 203.367 37.962 203.23 37.5997 203.23Z" fill="#324354"/>
<path d="M18.981 60.8797C15.3348 62.6134 14.3438 73.1233 14.3438 73.1233L23.3637 77.2911C23.3637 77.2911 25.6023 73.9932 25.7737 68.8075C25.9532 63.3748 22.7088 59.1072 18.981 60.8797Z" fill="#324354"/>
<path opacity="0.4" d="M23.8733 67.3594C22.2447 69.8872 22.3987 73.7986 22.9626 77.1039L23.361 77.2907C23.361 77.2907 25.6022 73.9887 25.7743 68.8044C25.7844 68.4803 25.783 68.1583 25.7717 67.8449L23.8733 67.3594Z" fill="black"/>
<path d="M44.1518 60.6261C44.1518 60.6261 48.6209 65.6738 44.4002 96.9168C37.6336 96.9168 25.2353 96.9168 21.9427 96.9168C21.788 93.4696 23.9543 76.6531 20.6289 60.4098C20.6289 60.4098 24.4786 59.637 28.1469 59.4603C31.0163 59.3223 35.1707 59.2306 37.6932 59.4603C41.0192 59.7643 44.1518 60.6261 44.1518 60.6261Z" fill="#407BFF"/>
<path opacity="0.6" d="M44.1518 60.6261C44.1518 60.6261 48.6209 65.6738 44.4002 96.9168C37.6336 96.9168 25.2353 96.9168 21.9427 96.9168C21.788 93.4696 23.9543 76.6531 20.6289 60.4098C20.6289 60.4098 24.4786 59.637 28.1469 59.4603C31.0163 59.3223 35.1707 59.2306 37.6932 59.4603C41.0192 59.7643 44.1518 60.6261 44.1518 60.6261Z" fill="#FAFAFA"/>
<path opacity="0.2" d="M46.113 70.1757L46.0273 70.1014L41.5608 67.7148C41.1068 74.592 44.1811 78.9031 46.0098 80.7888C46.2616 76.3826 46.2556 72.9072 46.113 70.1757Z" fill="black"/>
<path opacity="0.2" d="M38.3344 193.996L38.0873 199.008H33.2539L33.501 193.996H38.3344Z" fill="black"/>
<path opacity="0.2" d="M5.34015 192.801L10.2352 193.06L8.6997 197.997L3.80469 197.739L5.34015 192.801Z" fill="black"/>
<path d="M27.3358 45.5852C28.4146 49.6104 28.8411 52.0211 31.3255 53.6945C35.0613 56.2116 39.7133 53.3228 39.8586 49.0566C39.9898 45.2169 38.2033 39.28 33.8841 38.4684C29.6286 37.6695 26.257 41.5601 27.3358 45.5852Z" fill="#B55B52"/>
<path d="M36.4339 96.9141C36.4339 96.9141 31.6688 129.001 29.0532 141.022C26.1885 154.186 10.8285 197.739 10.8285 197.739L3.3125 196.111C3.3125 196.111 12.9445 160.619 15.3485 142.215C16.2866 135.034 17.419 123.457 18.852 113.805C20.2395 104.457 21.943 96.9141 21.943 96.9141H36.4339Z" fill="#324354"/>
<path d="M12.6265 195.229C12.6587 195.236 11.2257 197.947 11.2257 197.947L2.76953 196.116L3.48269 193.574L12.6265 195.229Z" fill="#407BFF"/>
<path opacity="0.6" d="M12.6265 195.229C12.6587 195.236 11.2257 197.947 11.2257 197.947L2.76953 196.116L3.48269 193.574L12.6265 195.229Z" fill="white"/>
<path opacity="0.6" d="M33.4206 108.347C27.9109 109.428 28.4942 129.974 29.1571 140.542C30.7461 133.072 33.0718 118.698 34.6608 108.496C34.2952 108.313 33.8834 108.256 33.4206 108.347Z" fill="black"/>
<path d="M44.402 96.9141C44.402 96.9141 46.6433 128.306 46.1866 141.11C45.7118 154.428 39.3972 198.035 39.3972 198.035H32.2843C32.2843 198.035 32.0232 155.206 31.7071 142.127C31.3622 127.868 29.6406 96.9141 29.6406 96.9141H44.402Z" fill="#324354"/>
<path d="M40.7637 195.203C40.7965 195.203 40.3626 198.156 40.3626 198.156H31.7103L31.4766 195.521L40.7637 195.203Z" fill="#407BFF"/>
<path opacity="0.6" d="M40.7637 195.203C40.7965 195.203 40.3626 198.156 40.3626 198.156H31.7103L31.4766 195.521L40.7637 195.203Z" fill="white"/>
<path d="M41.5312 66.5032C41.5312 74.9278 46.0144 78.3965 46.0144 78.3965L53.3014 71.273C53.3014 71.273 50.8237 67.004 47.4167 63.0854C43.2067 58.2439 41.5312 61.0858 41.5312 66.5032Z" fill="#324354"/>
<path opacity="0.2" d="M39.6018 50.5859C39.417 51.1022 38.9315 51.9774 37.7121 52.3263C35.9336 52.8352 35.9102 54.3426 35.9102 54.3426L35.9323 54.3707C37.6291 53.8102 39.042 52.408 39.6018 50.5859Z" fill="black"/>
<path d="M37.7116 37.5881C39.2129 35.695 36.9033 35.6046 36.9033 35.6046C37.5033 33.3446 34.802 34.5613 34.802 34.5613C33.1802 32.3261 32.2655 35.0461 32.2655 35.0461C30.5834 33.1524 30.274 36.2475 30.274 36.2475C28.5872 33.8455 27.728 37.3102 27.728 37.3102C26.1745 34.8158 25.2236 38.0655 25.2236 38.0655C22.0161 36.9171 23.5408 40.2505 23.5408 40.2505C20.8027 40.3275 22.9991 42.4456 22.9991 42.4456C19.7192 42.4536 22.6114 44.3319 22.6114 44.3319C20.0065 46.0408 23.2763 46.5009 23.2763 46.5009C21.1509 49.8243 24.8004 48.5915 24.8004 48.5915C23.3219 51.8807 26.6004 50.4316 26.6004 50.4316C26.3874 53.6057 28.2209 52.7418 29.1021 52.1539C29.2722 52.7934 29.5896 53.4704 30.1789 53.5474C31.3226 53.6968 31.5449 51.5378 31.5449 51.5378C31.5449 51.5378 32.6063 52.3635 33.4963 51.9162C34.3862 51.4689 34.0507 50.3365 34.0507 50.3365C34.0507 50.3365 34.7317 50.8448 35.3558 50.36C35.7375 50.0633 35.7395 47.9319 35.2527 47.1826L36.9958 46.5002C36.9958 46.5002 38.2895 46.3181 37.7116 44.6125C37.1344 42.9076 37.6239 41.561 37.6239 41.561C39.5913 40.6389 37.9774 39.53 37.9774 39.53C40.2522 38.0561 37.7116 37.5881 37.7116 37.5881Z" fill="#324354"/>
<path d="M34.1823 45.7589C34.4562 46.8156 35.1506 47.7236 35.8764 48.264C36.9693 49.0769 37.7849 48.2767 37.7072 47.0406C37.6376 45.9276 36.9847 44.1638 35.7794 43.8337C34.5928 43.5083 33.8696 44.5509 34.1823 45.7589Z" fill="#B55B52"/>
</svg>
