<svg width="20" height="20" viewBox="0 0 20 20" fill="none" xmlns="http://www.w3.org/2000/svg">
<g clip-path="url(#clip0_641_10566)">
<path d="M11.5267 13.8067C11.6989 13.8858 11.8927 13.9038 12.0765 13.8579C12.2602 13.8121 12.4229 13.7049 12.5376 13.5542L12.8334 13.1667C12.9887 12.9598 13.19 12.7917 13.4214 12.676C13.6528 12.5603 13.908 12.5001 14.1667 12.5001H16.6667C17.1088 12.5001 17.5327 12.6757 17.8453 12.9882C18.1578 13.3008 18.3334 13.7247 18.3334 14.1667V16.6667C18.3334 17.1088 18.1578 17.5327 17.8453 17.8453C17.5327 18.1578 17.1088 18.3334 16.6667 18.3334C12.6885 18.3334 8.87319 16.7531 6.06015 13.94C3.2471 11.127 1.66675 7.31166 1.66675 3.33341C1.66675 2.89139 1.84234 2.46746 2.1549 2.1549C2.46746 1.84234 2.89139 1.66675 3.33341 1.66675H5.83341C6.27544 1.66675 6.69936 1.84234 7.01193 2.1549C7.32449 2.46746 7.50008 2.89139 7.50008 3.33341V5.83341C7.50008 6.09216 7.43984 6.34734 7.32413 6.57877C7.20841 6.8102 7.04041 7.0115 6.83341 7.16675L6.44341 7.45925C6.29043 7.57606 6.1826 7.74224 6.13824 7.92954C6.09388 8.11684 6.11573 8.31373 6.20008 8.48675C7.33898 10.8 9.2121 12.6707 11.5267 13.8067Z" stroke="#161F28" stroke-width="1.66667" stroke-linecap="round" stroke-linejoin="round"/>
</g>
<defs>
<clipPath id="clip0_641_10566">
<rect width="20" height="20" fill="white"/>
</clipPath>
</defs>
</svg>
