<svg width="20" height="21" viewBox="0 0 20 21" fill="none" xmlns="http://www.w3.org/2000/svg">
<path d="M15.87 14.8259C15.9541 14.5461 16 14.2486 16 13.9412V7.05882C16 6.24757 15.6777 5.46955 15.1041 4.89591C14.5305 4.32227 13.7524 4 12.9412 4H6.05882C5.24757 4 4.46955 4.32227 3.89591 4.89591C3.32227 5.46955 3 6.24757 3 7.05882V13.9947C3.01404 14.7966 3.34249 15.561 3.91462 16.1231C4.48674 16.6852 5.25676 17.0001 6.05882 17H12.9412L13.0306 16.9985M15.87 14.8259L15.8027 14.7464L13.9169 12.4706C13.7739 12.298 13.5946 12.159 13.3918 12.0633C13.189 11.9677 12.9676 11.9178 12.7434 11.9172C12.5192 11.9166 12.2976 11.9654 12.0943 12.0599C11.891 12.1545 11.711 12.2926 11.567 12.4645L10.5637 13.6621L10.4001 13.8616M15.87 14.8259C15.6845 15.4402 15.3105 15.9799 14.8009 16.3699C14.2914 16.7599 13.6721 16.9798 13.0306 16.9985M10.4001 13.8616L12.9595 16.9174L13.0306 16.9985M10.4001 13.8616L7.93235 10.9152C7.7888 10.7439 7.60945 10.6061 7.40691 10.5116C7.20437 10.4171 6.98357 10.3681 6.76006 10.3681C6.53655 10.3681 6.31575 10.4171 6.11321 10.5116C5.91067 10.6061 5.73131 10.7439 5.58776 10.9152L3.13612 13.8418L3.00076 13.9955" stroke="#303030" stroke-linecap="round" stroke-linejoin="round"/>
<path d="M10.4286 8.64218C10.9414 8.64218 11.3571 8.22644 11.3571 7.71361C11.3571 7.20077 10.9414 6.78503 10.4286 6.78503C9.91574 6.78503 9.5 7.20077 9.5 7.71361C9.5 8.22644 9.91574 8.64218 10.4286 8.64218Z" fill="#303030"/>
</svg>
