<svg width="15" height="15" viewBox="0 0 15 15" fill="none" xmlns="http://www.w3.org/2000/svg">
<path d="M8.93169 3.96572L11.2035 1.69324C11.4593 1.44163 11.8041 1.30128 12.1628 1.30275C12.5216 1.30421 12.8653 1.44738 13.119 1.70107C13.3727 1.95476 13.5158 2.29842 13.5173 2.65718C13.5188 3.01595 13.3784 3.36077 13.1268 3.61652L10.8543 5.88834L12.0839 12.0061C12.2411 12.7887 10.7232 13.8792 10.3191 12.8423L8.51961 8.22371L6.1829 10.5604C6.29663 11.9258 6.32138 12.38 5.36409 13.3366L3.90908 10.911L1.4834 9.45595C2.44003 8.49865 2.89426 8.52274 4.25962 8.63713L6.59633 6.30109L1.97777 4.5009C0.940869 4.09684 2.03129 2.57828 2.81398 2.73616L8.93169 3.96572Z" stroke="#0085FE" stroke-width="0.882486" stroke-linecap="round" stroke-linejoin="round"/>
</svg>
