<svg width="15" height="16" viewBox="0 0 15 16" fill="none" xmlns="http://www.w3.org/2000/svg">
<path d="M3 12.9273C3.00323 13.1199 3.0577 13.3079 3.15752 13.4709C3.25733 13.6338 3.39865 13.7656 3.56613 13.8517C3.73337 13.9489 3.92219 14 4.11428 14C4.30637 14 4.4952 13.9489 4.66244 13.8517L12.4355 8.90595C12.6046 8.82213 12.7473 8.69091 12.8472 8.52738C12.947 8.36384 13 8.17464 13 7.98151C13 7.78839 12.947 7.59918 12.8472 7.43565C12.7473 7.27211 12.6046 7.14089 12.4355 7.05707L4.66244 2.1483C4.4952 2.05108 4.30637 2 4.11428 2C3.92219 2 3.73337 2.05108 3.56613 2.1483C3.39865 2.23444 3.25733 2.36617 3.15752 2.52915C3.0577 2.69213 3.00323 2.88014 3 3.07274V12.9273Z" stroke="white" stroke-linecap="round" stroke-linejoin="round"/>
</svg>
