<svg width="50" height="50" viewBox="0 0 50 50" fill="none" xmlns="http://www.w3.org/2000/svg">
<g clip-path="url(#clip0_1775_6351)">
<path d="M36.8318 32.4961H36.8241C36.0964 32.4961 35.4181 32.8198 34.9633 33.3825C33.7068 34.9396 32.2083 37.2429 32.2083 39.375C32.2083 41.9249 34.2834 44 36.8333 44C39.3832 44 41.4583 41.9249 41.4583 39.375C41.4583 37.2891 39.9552 34.972 38.6941 33.3933C38.2409 32.8245 37.5625 32.4976 36.8318 32.4961ZM36.8333 42.4583C35.1329 42.4583 33.75 41.0755 33.75 39.375C33.75 38.0615 34.6072 36.2778 36.1612 34.3523C36.323 34.1518 36.5651 34.0378 36.8241 34.0378H36.8272C37.0877 34.0378 37.3282 34.1534 37.4901 34.3553C39.0564 36.3148 39.9167 38.097 39.9167 39.375C39.9167 41.0755 38.5338 42.4583 36.8333 42.4583ZM42.2292 27.0417H41.4583V17.7917C41.4583 11.8424 36.616 7 30.6667 7C24.7174 7 19.875 11.8424 19.875 17.7917V33.2083C19.875 34.0593 19.1843 34.75 18.3333 34.75C17.4823 34.75 16.7917 34.0593 16.7917 33.2083V27.0417H17.5625C17.988 27.0417 18.3333 26.6963 18.3333 26.2708C18.3333 25.8453 17.988 25.5 17.5625 25.5H6.77083C6.34533 25.5 6 25.8453 6 26.2708C6 26.6963 6.34533 27.0417 6.77083 27.0417H7.54167V33.2083C7.54167 39.1576 12.384 44 18.3333 44C24.2826 44 29.125 39.1576 29.125 33.2083V17.7917C29.125 16.9407 29.8157 16.25 30.6667 16.25C31.5177 16.25 32.2083 16.9407 32.2083 17.7917V27.0417H31.4375C31.012 27.0417 30.6667 27.387 30.6667 27.8125C30.6667 28.238 31.012 28.5833 31.4375 28.5833H42.2292C42.6547 28.5833 43 28.238 43 27.8125C43 27.387 42.6547 27.0417 42.2292 27.0417ZM18.3333 42.4583C13.232 42.4583 9.08333 38.3097 9.08333 33.2083V27.0417H15.25V33.2083C15.25 34.9088 16.6329 36.2917 18.3333 36.2917C20.0338 36.2917 21.4167 34.9088 21.4167 33.2083V25.5H27.5833V33.2083C27.5833 38.3097 23.4347 42.4583 18.3333 42.4583ZM30.6667 14.7083C28.9662 14.7083 27.5833 16.0912 27.5833 17.7917V23.9583H21.4167V17.7917C21.4167 12.6903 25.5653 8.54167 30.6667 8.54167C35.768 8.54167 39.9167 12.6903 39.9167 17.7917V27.0417H33.75V17.7917C33.75 16.0912 32.3671 14.7083 30.6667 14.7083ZM6 13.1667C6 11.2858 6.83404 9.21846 8.02883 8.13929C8.49287 7.71996 9.13112 7.61821 9.70463 7.87104C10.272 8.12388 10.625 8.66808 10.625 9.28938V11.625C10.608 12.493 11.3804 13.2052 12.2422 13.1651C13.05 13.1266 13.7083 12.4066 13.7083 11.5602V9.28938C13.7083 8.66808 14.0614 8.12388 14.6287 7.87104C15.2007 7.61975 15.842 7.71996 16.3045 8.13929C17.4993 9.21846 18.3333 11.2858 18.3333 13.1667C18.3333 15.3882 17.1632 17.3862 15.25 18.4885V21.6458C15.25 22.0713 14.9047 22.4167 14.4792 22.4167C14.0537 22.4167 13.7083 22.0713 13.7083 21.6458V18.0229C13.7083 17.7269 13.8779 17.4556 14.1462 17.3276C15.7788 16.5475 16.7917 14.9535 16.7917 13.1667C16.7917 11.7129 16.1519 10.0802 15.2716 9.28321L15.25 11.5602C15.25 13.2453 13.9612 14.6266 12.3147 14.7037C10.6142 14.844 9.04171 13.3285 9.08333 11.625V9.28938C8.18146 10.0803 7.54167 11.7113 7.54167 13.1667C7.54167 14.9535 8.55454 16.5475 10.1872 17.3276C10.4554 17.4556 10.625 17.7269 10.625 18.0229V21.6458C10.625 22.0713 10.2797 22.4167 9.85417 22.4167C9.42867 22.4167 9.08333 22.0713 9.08333 21.6458V18.4885C7.17012 17.3862 6 15.3882 6 13.1667Z" fill="#0C9F9A" stroke="#0C9F9A" stroke-width="0.2"/>
</g>
<defs>
<clipPath id="clip0_1775_6351">
<rect width="37" height="37" fill="white" transform="translate(6 7)"/>
</clipPath>
</defs>
</svg>
