<svg width="24" height="24" viewBox="0 0 24 24" fill="none" xmlns="http://www.w3.org/2000/svg">
<g clip-path="url(#clip0_7796_9071)">
<path d="M18.6659 19.9998H10.6659V14.6665H9.33254V19.9998H5.33254V14.6665H3.99921V19.9998C3.99921 20.3535 4.13968 20.6926 4.38973 20.9426C4.63978 21.1927 4.97892 21.3332 5.33254 21.3332H18.6659C19.0195 21.3332 19.3586 21.1927 19.6087 20.9426C19.8587 20.6926 19.9992 20.3535 19.9992 19.9998V14.6665H18.6659V19.9998Z" fill="#090707"/>
<path d="M22.5265 8.84602L19.8065 3.40602C19.6961 3.18387 19.5259 2.99693 19.3151 2.8662C19.1043 2.73547 18.8612 2.66615 18.6131 2.66602H5.38647C5.13842 2.66615 4.89532 2.73547 4.6845 2.8662C4.47369 2.99693 4.30353 3.18387 4.19314 3.40602L1.47314 8.84602C1.38027 9.03234 1.33232 9.23783 1.33314 9.44602V11.4993C1.33253 11.8109 1.44103 12.1128 1.63981 12.3527C1.93358 12.6894 2.29641 12.959 2.70363 13.1431C3.11085 13.3271 3.55293 13.4213 3.99981 13.4193C4.72899 13.4205 5.43593 13.1683 5.99981 12.706C6.56368 13.1686 7.27047 13.4214 7.99981 13.4214C8.72915 13.4214 9.43594 13.1686 9.99981 12.706C10.5637 13.1686 11.2705 13.4214 11.9998 13.4214C12.7291 13.4214 13.4359 13.1686 13.9998 12.706C14.5637 13.1686 15.2705 13.4214 15.9998 13.4214C16.7291 13.4214 17.4359 13.1686 17.9998 12.706C18.6292 13.2228 19.4345 13.4755 20.2464 13.4108C21.0583 13.3462 21.8134 12.9693 22.3531 12.3593C22.5543 12.1204 22.6652 11.8184 22.6665 11.506V9.44602C22.6673 9.23783 22.6193 9.03234 22.5265 8.84602ZM9.99981 9.59935V10.6127L9.45314 11.3327C9.28533 11.5614 9.06601 11.7474 8.81294 11.8756C8.55987 12.0038 8.28016 12.0706 7.99647 12.0706C7.71278 12.0706 7.43308 12.0038 7.18001 11.8756C6.92694 11.7474 6.70762 11.5614 6.53981 11.3327L5.99981 10.586V9.59935L7.72647 3.99935H10.6665L9.99981 9.59935ZM17.9998 10.586L17.4598 11.3327C17.292 11.5614 17.0727 11.7474 16.8196 11.8756C16.5665 12.0038 16.2868 12.0706 16.0031 12.0706C15.7195 12.0706 15.4397 12.0038 15.1867 11.8756C14.9336 11.7474 14.7143 11.5614 14.5465 11.3327L13.9998 10.586V9.59935L13.3331 3.99935H16.2998L17.9998 9.59935V10.586Z" fill="#090707"/>
</g>
<defs>
<clipPath id="clip0_7796_9071">
<rect width="24" height="24" fill="white"/>
</clipPath>
</defs>
</svg>
