<svg width="34" height="35" viewBox="0 0 34 35" fill="none" xmlns="http://www.w3.org/2000/svg">
<g clip-path="url(#clip0_1028_3278)">
<path d="M3.1875 0.75H28.6875C30.3026 0.75 31.625 2.07245 31.625 3.6875V31.3125C31.625 32.9276 30.3026 34.25 28.6875 34.25H3.1875C1.57245 34.25 0.25 32.9276 0.25 31.3125V3.6875C0.25 2.07245 1.57245 0.75 3.1875 0.75ZM4 30.5H27.875V4.5H4V30.5ZM23.125 24.125V25.75H8.75V24.125H23.125ZM23.125 19.875V21.5H8.75V19.875H23.125ZM11.6875 13.5H13.7266C13.7551 13.5007 13.7838 13.5019 13.8125 13.502C13.8412 13.502 13.8698 13.5007 13.8984 13.5H15.9375C16.771 13.5 17.5182 13.7277 18.0498 14.082C18.5836 14.4379 18.875 14.9009 18.875 15.375V17.25H8.75V15.375C8.75 14.9009 9.04144 14.4379 9.5752 14.082C10.1068 13.7277 10.854 13.5 11.6875 13.5ZM13.8145 7.125C14.2004 7.12513 14.583 7.20084 14.9395 7.34863C15.2958 7.49643 15.6199 7.71342 15.8926 7.98633C16.1652 8.25919 16.3818 8.58306 16.5293 8.93945C16.6768 9.296 16.7521 9.67859 16.752 10.0645C16.7517 10.8438 16.4419 11.5917 15.8906 12.1426C15.3493 12.6834 14.6186 12.9894 13.8545 13H13.7734C13.0083 12.9896 12.277 12.6826 11.7354 12.1406C11.1844 11.5894 10.8747 10.8419 10.875 10.0625C10.8751 9.6768 10.951 9.29479 11.0986 8.93848C11.2464 8.58209 11.4635 8.25809 11.7363 7.98535C12.0092 7.7127 12.3331 7.49619 12.6895 7.34863C13.046 7.20109 13.4286 7.12488 13.8145 7.125Z" fill="#161F28" stroke="white" stroke-width="0.5"/>
</g>
<defs>
<clipPath id="clip0_1028_3278">
<rect width="34" height="34" fill="white" transform="translate(0 0.5)"/>
</clipPath>
</defs>
</svg>
