<svg width="24" height="24" viewBox="0 0 24 24" fill="none" xmlns="http://www.w3.org/2000/svg">
<path d="M20.918 13.9448C21.447 12.9948 21.711 12.5188 21.711 11.9998C21.711 11.4808 21.447 11.0058 20.918 10.0558L19.57 7.62977L18.144 5.24877C17.585 4.31577 17.306 3.84877 16.857 3.58877C16.407 3.32977 15.864 3.32177 14.777 3.30377L12 3.25977L9.225 3.30377C8.137 3.32177 7.594 3.32977 7.145 3.58977C6.696 3.84977 6.415 4.31577 5.857 5.24877L4.43 7.62977L3.08 10.0558C2.552 11.0058 2.288 11.4808 2.288 11.9998C2.288 12.5188 2.552 12.9938 3.081 13.9438L4.43 16.3698L5.856 18.7508C6.415 19.6838 6.694 20.1508 7.143 20.4108C7.593 20.6698 8.136 20.6778 9.223 20.6958L12 20.7398L14.775 20.6958C15.863 20.6778 16.406 20.6698 16.855 20.4098C17.304 20.1498 17.585 19.6838 18.143 18.7508L19.57 16.3698L20.918 13.9448Z" stroke="#414042" stroke-width="2"/>
<path d="M12 15C10.3431 15 9 13.6569 9 12C9 10.3431 10.3431 9 12 9C13.6569 9 15 10.3431 15 12C15 13.6569 13.6569 15 12 15Z" stroke="#414042" stroke-width="2"/>
</svg>
