<svg width="11" height="11" viewBox="0 0 11 11" fill="none" xmlns="http://www.w3.org/2000/svg">
<path d="M5.5 8.25C5.65583 8.25 5.78655 8.1972 5.89215 8.0916C5.99775 7.986 6.05036 7.85546 6.05 7.7C6.04963 7.54453 5.99683 7.414 5.8916 7.3084C5.78636 7.2028 5.65583 7.15 5.5 7.15C5.34416 7.15 5.21363 7.2028 5.1084 7.3084C5.00316 7.414 4.95036 7.54453 4.95 7.7C4.94963 7.85546 5.00243 7.98618 5.1084 8.09215C5.21436 8.19811 5.3449 8.25073 5.5 8.25ZM4.95 6.05H6.05V2.75H4.95V6.05ZM5.5 11C4.73916 11 4.02417 10.8555 3.355 10.5666C2.68583 10.2777 2.10375 9.88588 1.60875 9.39125C1.11375 8.89661 0.721967 8.31453 0.4334 7.645C0.144834 6.97546 0.000367363 6.26046 6.96202e-07 5.5C-0.00036597 4.73953 0.144101 4.02453 0.4334 3.355C0.7227 2.68547 1.11448 2.10338 1.60875 1.60875C2.10302 1.11412 2.6851 0.722333 3.355 0.4334C4.0249 0.144467 4.7399 0 5.5 0C6.2601 0 6.9751 0.144467 7.645 0.4334C8.31489 0.722333 8.89698 1.11412 9.39125 1.60875C9.88551 2.10338 10.2775 2.68547 10.5671 3.355C10.8568 4.02453 11.0011 4.73953 11 5.5C10.9989 6.26046 10.8544 6.97546 10.5666 7.645C10.2788 8.31453 9.88698 8.89661 9.39125 9.39125C8.89551 9.88588 8.31343 10.2778 7.645 10.5671C6.97656 10.8564 6.26156 11.0007 5.5 11ZM5.5 9.9C6.72833 9.9 7.76875 9.47375 8.62124 8.62125C9.47374 7.76875 9.89999 6.72833 9.89999 5.5C9.89999 4.27167 9.47374 3.23125 8.62124 2.37875C7.76875 1.52625 6.72833 1.1 5.5 1.1C4.27166 1.1 3.23125 1.52625 2.37875 2.37875C1.52625 3.23125 1.1 4.27167 1.1 5.5C1.1 6.72833 1.52625 7.76875 2.37875 8.62125C3.23125 9.47375 4.27166 9.9 5.5 9.9Z" fill="#FF0E0E"/>
</svg>
