<svg width="17" height="16" viewBox="0 0 17 16" fill="none" xmlns="http://www.w3.org/2000/svg">
<g clip-path="url(#clip0_1028_2500)">
<path d="M11.6641 12.1094C11.5547 11.5156 11.3516 10.9688 11.0547 10.4688C10.7578 9.96875 10.3906 9.53646 9.95312 9.17188C9.51562 8.80729 9.02344 8.52083 8.47656 8.3125C7.92969 8.10417 7.35417 8 6.75 8C6.29167 8 5.84896 8.0599 5.42188 8.17969C4.99479 8.29948 4.59635 8.46615 4.22656 8.67969C3.85677 8.89323 3.52083 9.15365 3.21875 9.46094C2.91667 9.76823 2.65625 10.1068 2.4375 10.4766C2.21875 10.8464 2.04948 11.2448 1.92969 11.6719C1.8099 12.099 1.75 12.5417 1.75 13H0.75C0.75 12.3906 0.841146 11.7943 1.02344 11.2109C1.20573 10.6276 1.46875 10.0885 1.8125 9.59375C2.15625 9.09896 2.5651 8.65885 3.03906 8.27344C3.51302 7.88802 4.04167 7.59375 4.625 7.39062C4.33333 7.20312 4.07292 6.98698 3.84375 6.74219C3.61458 6.4974 3.41667 6.22917 3.25 5.9375C3.08333 5.64583 2.96094 5.33594 2.88281 5.00781C2.80469 4.67969 2.76042 4.34375 2.75 4C2.75 3.44792 2.85417 2.92969 3.0625 2.44531C3.27083 1.96094 3.55469 1.53646 3.91406 1.17188C4.27344 0.807292 4.69792 0.520833 5.1875 0.3125C5.67708 0.104167 6.19792 0 6.75 0C7.30208 0 7.82031 0.104167 8.30469 0.3125C8.78906 0.520833 9.21354 0.804688 9.57812 1.16406C9.94271 1.52344 10.2292 1.94792 10.4375 2.4375C10.6458 2.92708 10.75 3.44792 10.75 4C10.75 4.34375 10.7083 4.67969 10.625 5.00781C10.5417 5.33594 10.4167 5.64583 10.25 5.9375C10.0833 6.22917 9.88802 6.4974 9.66406 6.74219C9.4401 6.98698 9.17708 7.20312 8.875 7.39062C9.39062 7.58854 9.86719 7.84896 10.3047 8.17188C10.7422 8.49479 11.125 8.86719 11.4531 9.28906C11.7812 9.71094 12.0547 10.1719 12.2734 10.6719C12.4922 11.1719 12.6328 11.6979 12.6953 12.25L12.25 12.7031L11.6641 12.1094ZM3.75 4C3.75 4.41667 3.82812 4.80469 3.98438 5.16406C4.14062 5.52344 4.35417 5.84115 4.625 6.11719C4.89583 6.39323 5.21354 6.60938 5.57812 6.76562C5.94271 6.92188 6.33333 7 6.75 7C7.16146 7 7.54948 6.92188 7.91406 6.76562C8.27865 6.60938 8.59635 6.39583 8.86719 6.125C9.13802 5.85417 9.35417 5.53646 9.51562 5.17188C9.67708 4.80729 9.75521 4.41667 9.75 4C9.75 3.58854 9.67188 3.20052 9.51562 2.83594C9.35938 2.47135 9.14583 2.15365 8.875 1.88281C8.60417 1.61198 8.28385 1.39583 7.91406 1.23438C7.54427 1.07292 7.15625 0.994792 6.75 1C6.33333 1 5.94531 1.07812 5.58594 1.23438C5.22656 1.39062 4.90885 1.60417 4.63281 1.875C4.35677 2.14583 4.14062 2.46615 3.98438 2.83594C3.82812 3.20573 3.75 3.59375 3.75 4ZM16.6016 11.3516L12.25 15.7109L10.1484 13.6016L10.8516 12.8984L12.25 14.2891L15.8984 10.6484L16.6016 11.3516Z" fill="white"/>
</g>
<defs>
<clipPath id="clip0_1028_2500">
<rect width="16" height="16" fill="white" transform="translate(0.75)"/>
</clipPath>
</defs>
</svg>
