<svg width="34" height="35" viewBox="0 0 34 35" fill="none" xmlns="http://www.w3.org/2000/svg">
<g clip-path="url(#clip0_1028_3254)">
<path d="M4.85709 13.8575V27.2147M12.9515 13.8575V27.2147M21.0484 13.8575V27.2147M29.1428 13.8575V27.2147M31.3528 13.8575H2.64709C1.28709 13.8575 0.704233 12.3761 1.7728 11.6718L16.1257 2.27324C16.3907 2.11736 16.6925 2.03516 16.9999 2.03516C17.3074 2.03516 17.6092 2.11736 17.8742 2.27324L32.2271 11.6718C33.2957 12.3761 32.7128 13.8575 31.3528 13.8575ZM31.5714 27.2147H2.42852C2.10647 27.2147 1.79761 27.3426 1.56989 27.5703C1.34217 27.7981 1.21423 28.1069 1.21423 28.429V32.0718C1.21423 32.3939 1.34217 32.7027 1.56989 32.9304C1.79761 33.1582 2.10647 33.2861 2.42852 33.2861H31.5714C31.8934 33.2861 32.2023 33.1582 32.43 32.9304C32.6577 32.7027 32.7857 32.3939 32.7857 32.0718V28.429C32.7857 28.1069 32.6577 27.7981 32.43 27.5703C32.2023 27.3426 31.8934 27.2147 31.5714 27.2147Z" stroke="#161F28" stroke-width="2.42857" stroke-linecap="round" stroke-linejoin="round"/>
</g>
<defs>
<clipPath id="clip0_1028_3254">
<rect width="34" height="34" fill="white" transform="translate(0 0.5)"/>
</clipPath>
</defs>
</svg>
