<svg width="34" height="35" viewBox="0 0 34 35" fill="none" xmlns="http://www.w3.org/2000/svg">
<path d="M5.4584 29.063C5.9695 29.063 6.38383 28.7805 6.38383 28.4319C6.38383 28.0833 5.9695 27.8008 5.4584 27.8008C4.94729 27.8008 4.53296 28.0833 4.53296 28.4319C4.53296 28.7805 4.94729 29.063 5.4584 29.063Z" fill="#161F28"/>
<mask id="path-2-inside-1_1028_3244" fill="white">
<path d="M32.568 25.2929L32.2206 25.0889C32.194 25.0735 29.5393 23.4983 28.8795 21.5869L28.7324 21.1635L28.4604 21.5189C28.4519 21.5301 28.0747 21.9965 27.0191 22.5437C26.2376 18.0955 23.5792 12.7852 20.0857 10.521C21.0845 10.6017 22.0864 10.5188 23.0533 10.1672C23.6356 9.95572 23.3843 9.00691 22.7967 9.22153C22.0041 9.51 21.2099 9.58862 20.4172 9.54825C22.3632 7.76484 23.8911 5.03156 23.8911 3.033C23.8911 2.55275 23.8911 1.65866 23.1792 1.65866C22.8934 1.65866 22.6623 1.83716 22.343 2.08366C21.8532 2.46137 21.1137 3.033 20.0273 3.033C19.6135 3.033 18.8559 2.59631 18.2471 2.24569C17.5113 1.82228 17.0411 1.5625 16.6459 1.5625C15.9914 1.5625 15.0293 2.09162 14.1804 2.55859C13.8351 2.74825 13.3628 3.00856 13.265 3.03353C12.0346 3.03353 11.3201 2.46616 10.8462 2.09056C10.57 1.87062 10.3697 1.71125 10.1025 1.71125C9.40231 1.71125 9.40231 2.55116 9.40231 3.52387C9.40231 5.40131 10.8324 7.87959 12.7051 9.54506C11.5252 9.62953 10.3617 9.986 9.54415 10.7781C9.09259 11.2148 9.77684 11.9075 10.2268 11.4719C10.9063 10.8132 11.7972 10.5311 12.7502 10.4763C12.7772 10.5734 12.8106 10.669 12.8506 10.7632C8.85777 13.6325 6.02143 20.4458 6.02143 25.0453C6.02143 25.499 6.05649 25.9097 6.11068 26.2964C5.08112 25.839 4.70552 25.4379 4.69809 25.4289L4.42396 25.1128L4.28902 25.5113C3.69243 27.2665 1.09887 28.7891 1.07284 28.8045L0.692993 29.0249L1.07921 29.2337C1.21468 29.307 1.34909 29.3713 1.48456 29.4409L1.24018 29.6104L1.36927 31.2254L11.4912 33.4375L15.3289 30.9826C15.716 30.9847 16.1088 30.9858 16.5072 30.9858L20.9931 33.4375L31.1341 30.25V28.5452L30.8659 28.3842C30.9997 28.2992 31.1334 28.2123 31.267 28.1234L31.6224 27.8859L31.5443 27.8477L31.9964 27.7239L32.0729 25.9517L31.8115 25.7663C31.9507 25.683 32.0897 25.5975 32.2285 25.5097L32.568 25.2929ZM10.3686 3.52387C10.3686 3.288 10.3718 3.10419 10.3766 2.96128C10.4579 3.02503 10.5525 3.09462 10.6534 3.16634C10.9631 3.90797 11.5491 4.97578 12.5425 5.64834C13.7495 6.46647 13.5891 5.52616 14.233 4.66766C14.8768 3.80969 15.3125 3.36025 16.3909 5.56706C16.8611 6.52916 17.6446 3.8405 18.3895 3.44791C18.5866 3.55522 18.7831 3.65509 18.976 3.74009C20.3115 5.91184 20.9304 5.2345 22.1167 3.42931C22.4429 3.23806 22.7106 3.033 22.9237 2.86884C22.9247 2.91807 22.9255 2.97315 22.9258 3.03406C22.9258 4.73938 21.5323 7.18525 19.826 8.78059C19.7453 8.57589 19.6299 8.38665 19.4849 8.22119C18.7959 7.44078 17.719 8.30619 17.2085 8.87409C16.3027 8.58297 14.8269 7.78131 13.8653 8.24031C13.6258 8.35132 13.4059 8.50041 13.214 8.68178C11.6415 7.24847 10.3686 5.17925 10.3686 3.52387ZM18.977 9.35381C18.7389 9.30318 18.502 9.2465 18.2667 9.18381C18.5632 8.92828 18.8352 8.83903 18.9494 9.21888C18.9616 9.26031 18.9691 9.30759 18.977 9.35381ZM14.9395 9.68372C14.7639 9.64972 14.5831 9.6205 14.3971 9.59606C14.2561 9.50775 14.1181 9.41473 13.9833 9.31716C14.4688 8.9915 15.3061 9.16469 16.1061 9.43616C15.7114 9.476 15.322 9.56206 14.9395 9.68372ZM15.1807 11.0862C14.8832 11.1606 14.5591 11.1308 14.2792 11.0193C14.3929 10.9593 14.5076 10.9072 14.6224 10.8546C14.8083 10.9444 14.9942 11.0193 15.1807 11.0862ZM5.35418 30.4513C4.08706 30.0845 2.85756 29.5983 1.68218 28.9994C2.40309 28.5256 3.97346 27.3797 4.61202 26.0027C5.04977 26.3464 6.06021 26.9732 8.02796 27.4546C7.99449 27.5087 7.95359 27.5667 7.91427 27.6235C6.23446 27.1836 5.27927 26.6274 5.26387 26.6178L5.03224 26.4797L4.92121 26.7278C4.77512 27.0529 4.43246 27.1018 4.24174 27.1018C4.18862 27.1018 4.15302 27.0981 4.14824 27.0976L3.95859 27.0699L3.88952 27.2516C3.74821 27.6224 3.16809 28.1069 2.95559 28.2626L2.60071 28.5229L3.00659 28.6892C3.15746 28.7508 3.19837 28.8077 3.20049 28.8225C3.20581 28.8592 3.14152 28.9559 3.07299 29.0117L2.76381 29.2608L3.12346 29.4271C3.86031 29.7671 4.6949 30.0487 5.52949 30.2808C5.46362 30.3456 5.40518 30.4025 5.35418 30.4513ZM9.63818 28.4719C10.3809 28.576 11.2038 28.6419 12.1026 28.6419H12.1032C12.2898 28.6419 12.4798 28.6389 12.6732 28.6329C12.6869 28.6726 12.7053 28.7106 12.7279 28.746C12.775 28.8179 12.839 28.8771 12.9197 28.9235L11.564 30.0821L11.4864 30.0805C10.8824 30.0805 10.4319 30.3026 10.2156 30.6978C9.39647 30.5931 8.58107 30.4608 7.77084 30.301C8.42235 29.7217 9.04552 29.1113 9.63818 28.4719ZM3.60902 29.1078C3.66215 29.0074 3.69668 28.8857 3.67809 28.7529C3.66108 28.6329 3.60353 28.5223 3.51499 28.4395C3.75352 28.235 4.08237 27.9194 4.26299 27.5927C4.67365 27.5868 5.01259 27.4312 5.22615 27.156C5.58581 27.3441 6.39596 27.7239 7.59287 28.0533C7.10359 28.6669 6.44431 29.3628 5.93165 29.8803C5.13265 29.6688 4.32781 29.4138 3.60902 29.1078ZM11.1799 31.3438L11.071 31.3444C10.6136 31.3444 9.0979 31.3072 7.09562 30.8902C7.16574 30.8307 7.23852 30.7696 7.30599 30.7111C8.93056 31.0506 10.2406 31.1962 10.3389 31.2073L10.5333 31.228L10.5934 31.0394C10.7246 30.6325 11.2086 30.5725 11.4859 30.5725C11.5618 30.5725 11.6123 30.5772 11.6181 30.5778L11.7212 30.5889L14.0762 28.5766L13.4467 28.5558C13.2363 28.5484 13.1476 28.5011 13.1258 28.4687L13.2592 28.1197L12.8905 28.1351C12.6217 28.1468 12.3591 28.1526 12.1026 28.1526C11.361 28.1526 10.6725 28.1037 10.0366 28.0267L10.1843 27.8525C11.4678 28.0241 13.0047 28.1298 14.8604 28.1165C14.4173 28.7381 13.3123 30.0593 11.1799 31.3438ZM16.5051 29.0356V30.0051C16.203 30.0051 15.9082 30.004 15.6206 30.0019L15.534 28.9107L14.8147 28.9692C15.2992 28.3965 15.5058 28.0145 15.5244 27.98L15.7194 27.6113L15.3077 27.6187C11.3669 27.691 8.79668 27.2213 7.17424 26.6997C7.05577 26.2205 6.98724 25.6786 6.98724 25.0459C6.98724 20.7305 9.74496 14.2078 13.4063 11.5643C14.055 12.1917 15.0389 12.4664 15.9739 11.856C16.1789 11.7221 16.3574 11.5468 16.5248 11.3603C16.5646 11.3614 16.6055 11.3704 16.6459 11.3704C16.7798 11.3704 16.9158 11.3593 17.0512 11.3423C17.2228 11.4108 17.3907 11.4799 17.5464 11.5484C18.2917 11.8767 18.9282 11.6727 19.3627 11.2201C22.7165 13.2495 25.4036 18.6178 26.1106 22.957C24.5775 23.5701 22.1454 24.1682 18.4128 24.2734C19.1491 23.8527 19.7017 23.1451 19.503 22.2154C19.2942 21.2326 18.4729 20.9563 17.6223 20.9112C17.6199 20.45 17.6202 19.9887 17.6234 19.5273C17.8842 19.6425 18.1345 19.7753 18.3618 19.9172C18.7635 20.1695 19.1268 19.5156 18.7279 19.2632C18.3819 19.0458 18.0127 18.8678 17.6271 18.7325C17.6324 18.1984 17.6351 17.6647 17.6351 17.1313C17.6356 16.6426 16.9094 16.6426 16.9094 17.1313C16.909 17.6006 16.9066 18.0691 16.902 18.537C16.5154 18.4696 16.1207 18.463 15.7321 18.5173C15.6687 18.1658 15.5922 17.8167 15.5027 17.4708C15.3826 17.0001 14.6813 17.1993 14.803 17.6716C14.8922 18.0111 14.965 18.3489 15.0251 18.6916C14.9942 18.7033 14.9608 18.7091 14.9305 18.7229C13.9466 19.1123 13.3463 20.1052 14.0661 21.0312C14.4014 21.4626 14.8396 21.6368 15.3194 21.6947C15.3454 22.3338 15.3619 22.9735 15.3805 23.612C15.0591 23.4032 14.7663 23.1355 14.5012 22.8523C14.1729 22.506 13.6603 23.0409 13.9881 23.3868C14.4338 23.8612 14.9018 24.2198 15.4091 24.4493C15.432 24.9949 15.4644 25.5421 15.5175 26.085C15.5643 26.5668 16.291 26.5695 16.2437 26.085C16.199 25.6154 16.1659 25.1447 16.1444 24.6735C16.4206 24.7213 16.7107 24.7335 17.0188 24.7043C17.0534 25.2068 17.0937 25.7094 17.1511 26.212C17.1841 26.4999 17.4592 26.6131 17.6622 26.5546L17.617 27.598C17.2972 27.6267 16.971 27.6532 16.631 27.6756L16.2262 27.7021L16.4419 28.0506C16.4637 28.0857 16.7086 28.473 17.2552 29.0366H16.5051V29.0356ZM29.7269 25.5389C29.0591 25.8528 28.2144 26.1408 27.3538 26.3921C26.8246 25.8454 26.1478 25.116 25.6426 24.4689C26.7683 24.1279 27.3984 23.7762 27.6826 23.5865C27.9073 23.7847 28.2048 23.8877 28.5571 23.8872C28.6739 23.8872 28.7775 23.8761 28.8572 23.8633C29.1122 24.1938 29.5234 24.5752 29.7805 24.8031C29.6587 24.9281 29.6001 25.0655 29.6047 25.2153C29.6089 25.3428 29.6599 25.4512 29.7269 25.5389ZM25.9258 27.2846C26.0345 27.3802 26.1461 27.4776 26.2605 27.5767C24.1068 28.1478 22.504 28.21 22.155 28.2158C19.9248 26.8553 18.7688 25.4156 18.3231 24.7675C20.1893 24.7208 21.7321 24.5518 23.0188 24.3191C23.0711 24.3834 23.1241 24.4471 23.1776 24.5104C22.1435 24.6716 21.1011 24.775 20.0555 24.8201L19.6267 24.8382L19.8626 25.1989C19.8621 25.1994 19.8143 25.2887 19.4976 25.3503L18.9829 25.4507L21.5137 27.4997L21.6317 27.4678C21.6343 27.4673 21.8575 27.4073 22.1273 27.4073C22.5167 27.4073 22.7829 27.5257 22.9168 27.7574L23.0018 27.904L23.167 27.8748C24.0924 27.7062 25.0124 27.5093 25.9258 27.2846ZM18.4367 25.7232L17.8322 25.6903C17.804 25.3885 17.7759 25.0868 17.7546 24.785C17.8609 24.9614 18.0787 25.2929 18.4367 25.7232ZM17.6887 23.7783C17.6539 23.0632 17.6328 22.3475 17.6255 21.6315C17.7134 21.6351 17.7984 21.6427 17.8805 21.6544C18.8198 21.7967 19.0652 22.8412 18.3321 23.4287C18.1408 23.5802 17.9204 23.6912 17.6887 23.7783ZM23.2345 27.3653C22.9965 27.0715 22.6177 26.9175 22.1279 26.9175C21.9233 26.9175 21.7432 26.9451 21.6296 26.9674L20.0385 25.6781C20.1702 25.6023 20.2603 25.5056 20.3089 25.388C20.3208 25.3586 20.33 25.3282 20.3365 25.2972C21.5977 25.2281 22.6602 25.1022 23.5585 24.9481C23.9942 25.4342 24.6343 26.1047 25.4832 26.884C24.4404 27.1321 23.5707 27.3021 23.2345 27.3653ZM16.8988 21.6507C16.9089 22.4204 16.928 23.1923 16.9689 23.9616C16.9004 23.9722 16.8329 23.9855 16.7654 23.9924C16.537 24.0184 16.3202 23.9993 16.1141 23.9473C16.0881 23.2035 16.0711 22.4582 16.0429 21.7139C16.3287 21.7006 16.6183 21.6724 16.8988 21.6507ZM16.0063 20.9786C15.9732 20.3949 15.9183 19.8126 15.8416 19.2329C16.1937 19.184 16.5519 19.2022 16.8972 19.2866C16.8934 19.8297 16.8925 20.3728 16.8945 20.9159C16.6613 20.9287 16.4398 20.951 16.2448 20.9685C16.1654 20.9749 16.0859 20.9782 16.0063 20.9786ZM15.2774 20.8857C15.2322 20.8734 15.1876 20.8639 15.1414 20.8485C14.9291 20.7759 14.7368 20.6545 14.5799 20.4941C14.1262 20.0707 14.7488 19.6553 15.1414 19.4582C15.203 19.931 15.2455 20.4081 15.2774 20.8857ZM21.1408 31.227C18.8347 30.0487 17.5974 28.7391 17.106 28.1324C17.4592 28.1059 17.7934 28.074 18.1244 28.0405L21.9058 30.4949L30.1986 28.2169C25.9221 30.7945 21.697 31.1871 21.1408 31.227ZM27.9897 27.0354L27.7442 26.7894C28.6877 26.5036 29.6004 26.1721 30.281 25.8077L30.6948 25.5851L30.2751 25.3715C30.1811 25.3232 30.0892 25.2345 30.0876 25.201C30.0886 25.1882 30.1258 25.1202 30.2868 25.0278L30.5939 24.8514L30.3208 24.6241C30.3123 24.6172 29.4607 23.9101 29.1616 23.4548L29.0628 23.306L28.8933 23.3554C28.8917 23.3554 28.7462 23.3974 28.5571 23.3974C28.2649 23.3979 28.046 23.3023 27.9057 23.1143L27.7506 22.9087L27.5562 23.076C27.5461 23.0845 26.9442 23.578 25.3297 24.0445C25.2765 23.9679 25.2253 23.89 25.1762 23.8107C27.1338 23.2173 28.1342 22.4991 28.5677 22.1059C29.2636 23.6115 30.9206 24.8243 31.6399 25.2998C30.4843 25.999 29.2614 26.5804 27.9897 27.0354Z"/>
</mask>
<path d="M32.568 25.2929L32.2206 25.0889C32.194 25.0735 29.5393 23.4983 28.8795 21.5869L28.7324 21.1635L28.4604 21.5189C28.4519 21.5301 28.0747 21.9965 27.0191 22.5437C26.2376 18.0955 23.5792 12.7852 20.0857 10.521C21.0845 10.6017 22.0864 10.5188 23.0533 10.1672C23.6356 9.95572 23.3843 9.00691 22.7967 9.22153C22.0041 9.51 21.2099 9.58862 20.4172 9.54825C22.3632 7.76484 23.8911 5.03156 23.8911 3.033C23.8911 2.55275 23.8911 1.65866 23.1792 1.65866C22.8934 1.65866 22.6623 1.83716 22.343 2.08366C21.8532 2.46137 21.1137 3.033 20.0273 3.033C19.6135 3.033 18.8559 2.59631 18.2471 2.24569C17.5113 1.82228 17.0411 1.5625 16.6459 1.5625C15.9914 1.5625 15.0293 2.09162 14.1804 2.55859C13.8351 2.74825 13.3628 3.00856 13.265 3.03353C12.0346 3.03353 11.3201 2.46616 10.8462 2.09056C10.57 1.87062 10.3697 1.71125 10.1025 1.71125C9.40231 1.71125 9.40231 2.55116 9.40231 3.52387C9.40231 5.40131 10.8324 7.87959 12.7051 9.54506C11.5252 9.62953 10.3617 9.986 9.54415 10.7781C9.09259 11.2148 9.77684 11.9075 10.2268 11.4719C10.9063 10.8132 11.7972 10.5311 12.7502 10.4763C12.7772 10.5734 12.8106 10.669 12.8506 10.7632C8.85777 13.6325 6.02143 20.4458 6.02143 25.0453C6.02143 25.499 6.05649 25.9097 6.11068 26.2964C5.08112 25.839 4.70552 25.4379 4.69809 25.4289L4.42396 25.1128L4.28902 25.5113C3.69243 27.2665 1.09887 28.7891 1.07284 28.8045L0.692993 29.0249L1.07921 29.2337C1.21468 29.307 1.34909 29.3713 1.48456 29.4409L1.24018 29.6104L1.36927 31.2254L11.4912 33.4375L15.3289 30.9826C15.716 30.9847 16.1088 30.9858 16.5072 30.9858L20.9931 33.4375L31.1341 30.25V28.5452L30.8659 28.3842C30.9997 28.2992 31.1334 28.2123 31.267 28.1234L31.6224 27.8859L31.5443 27.8477L31.9964 27.7239L32.0729 25.9517L31.8115 25.7663C31.9507 25.683 32.0897 25.5975 32.2285 25.5097L32.568 25.2929ZM10.3686 3.52387C10.3686 3.288 10.3718 3.10419 10.3766 2.96128C10.4579 3.02503 10.5525 3.09462 10.6534 3.16634C10.9631 3.90797 11.5491 4.97578 12.5425 5.64834C13.7495 6.46647 13.5891 5.52616 14.233 4.66766C14.8768 3.80969 15.3125 3.36025 16.3909 5.56706C16.8611 6.52916 17.6446 3.8405 18.3895 3.44791C18.5866 3.55522 18.7831 3.65509 18.976 3.74009C20.3115 5.91184 20.9304 5.2345 22.1167 3.42931C22.4429 3.23806 22.7106 3.033 22.9237 2.86884C22.9247 2.91807 22.9255 2.97315 22.9258 3.03406C22.9258 4.73938 21.5323 7.18525 19.826 8.78059C19.7453 8.57589 19.6299 8.38665 19.4849 8.22119C18.7959 7.44078 17.719 8.30619 17.2085 8.87409C16.3027 8.58297 14.8269 7.78131 13.8653 8.24031C13.6258 8.35132 13.4059 8.50041 13.214 8.68178C11.6415 7.24847 10.3686 5.17925 10.3686 3.52387ZM18.977 9.35381C18.7389 9.30318 18.502 9.2465 18.2667 9.18381C18.5632 8.92828 18.8352 8.83903 18.9494 9.21888C18.9616 9.26031 18.9691 9.30759 18.977 9.35381ZM14.9395 9.68372C14.7639 9.64972 14.5831 9.6205 14.3971 9.59606C14.2561 9.50775 14.1181 9.41473 13.9833 9.31716C14.4688 8.9915 15.3061 9.16469 16.1061 9.43616C15.7114 9.476 15.322 9.56206 14.9395 9.68372ZM15.1807 11.0862C14.8832 11.1606 14.5591 11.1308 14.2792 11.0193C14.3929 10.9593 14.5076 10.9072 14.6224 10.8546C14.8083 10.9444 14.9942 11.0193 15.1807 11.0862ZM5.35418 30.4513C4.08706 30.0845 2.85756 29.5983 1.68218 28.9994C2.40309 28.5256 3.97346 27.3797 4.61202 26.0027C5.04977 26.3464 6.06021 26.9732 8.02796 27.4546C7.99449 27.5087 7.95359 27.5667 7.91427 27.6235C6.23446 27.1836 5.27927 26.6274 5.26387 26.6178L5.03224 26.4797L4.92121 26.7278C4.77512 27.0529 4.43246 27.1018 4.24174 27.1018C4.18862 27.1018 4.15302 27.0981 4.14824 27.0976L3.95859 27.0699L3.88952 27.2516C3.74821 27.6224 3.16809 28.1069 2.95559 28.2626L2.60071 28.5229L3.00659 28.6892C3.15746 28.7508 3.19837 28.8077 3.20049 28.8225C3.20581 28.8592 3.14152 28.9559 3.07299 29.0117L2.76381 29.2608L3.12346 29.4271C3.86031 29.7671 4.6949 30.0487 5.52949 30.2808C5.46362 30.3456 5.40518 30.4025 5.35418 30.4513ZM9.63818 28.4719C10.3809 28.576 11.2038 28.6419 12.1026 28.6419H12.1032C12.2898 28.6419 12.4798 28.6389 12.6732 28.6329C12.6869 28.6726 12.7053 28.7106 12.7279 28.746C12.775 28.8179 12.839 28.8771 12.9197 28.9235L11.564 30.0821L11.4864 30.0805C10.8824 30.0805 10.4319 30.3026 10.2156 30.6978C9.39647 30.5931 8.58107 30.4608 7.77084 30.301C8.42235 29.7217 9.04552 29.1113 9.63818 28.4719ZM3.60902 29.1078C3.66215 29.0074 3.69668 28.8857 3.67809 28.7529C3.66108 28.6329 3.60353 28.5223 3.51499 28.4395C3.75352 28.235 4.08237 27.9194 4.26299 27.5927C4.67365 27.5868 5.01259 27.4312 5.22615 27.156C5.58581 27.3441 6.39596 27.7239 7.59287 28.0533C7.10359 28.6669 6.44431 29.3628 5.93165 29.8803C5.13265 29.6688 4.32781 29.4138 3.60902 29.1078ZM11.1799 31.3438L11.071 31.3444C10.6136 31.3444 9.0979 31.3072 7.09562 30.8902C7.16574 30.8307 7.23852 30.7696 7.30599 30.7111C8.93056 31.0506 10.2406 31.1962 10.3389 31.2073L10.5333 31.228L10.5934 31.0394C10.7246 30.6325 11.2086 30.5725 11.4859 30.5725C11.5618 30.5725 11.6123 30.5772 11.6181 30.5778L11.7212 30.5889L14.0762 28.5766L13.4467 28.5558C13.2363 28.5484 13.1476 28.5011 13.1258 28.4687L13.2592 28.1197L12.8905 28.1351C12.6217 28.1468 12.3591 28.1526 12.1026 28.1526C11.361 28.1526 10.6725 28.1037 10.0366 28.0267L10.1843 27.8525C11.4678 28.0241 13.0047 28.1298 14.8604 28.1165C14.4173 28.7381 13.3123 30.0593 11.1799 31.3438ZM16.5051 29.0356V30.0051C16.203 30.0051 15.9082 30.004 15.6206 30.0019L15.534 28.9107L14.8147 28.9692C15.2992 28.3965 15.5058 28.0145 15.5244 27.98L15.7194 27.6113L15.3077 27.6187C11.3669 27.691 8.79668 27.2213 7.17424 26.6997C7.05577 26.2205 6.98724 25.6786 6.98724 25.0459C6.98724 20.7305 9.74496 14.2078 13.4063 11.5643C14.055 12.1917 15.0389 12.4664 15.9739 11.856C16.1789 11.7221 16.3574 11.5468 16.5248 11.3603C16.5646 11.3614 16.6055 11.3704 16.6459 11.3704C16.7798 11.3704 16.9158 11.3593 17.0512 11.3423C17.2228 11.4108 17.3907 11.4799 17.5464 11.5484C18.2917 11.8767 18.9282 11.6727 19.3627 11.2201C22.7165 13.2495 25.4036 18.6178 26.1106 22.957C24.5775 23.5701 22.1454 24.1682 18.4128 24.2734C19.1491 23.8527 19.7017 23.1451 19.503 22.2154C19.2942 21.2326 18.4729 20.9563 17.6223 20.9112C17.6199 20.45 17.6202 19.9887 17.6234 19.5273C17.8842 19.6425 18.1345 19.7753 18.3618 19.9172C18.7635 20.1695 19.1268 19.5156 18.7279 19.2632C18.3819 19.0458 18.0127 18.8678 17.6271 18.7325C17.6324 18.1984 17.6351 17.6647 17.6351 17.1313C17.6356 16.6426 16.9094 16.6426 16.9094 17.1313C16.909 17.6006 16.9066 18.0691 16.902 18.537C16.5154 18.4696 16.1207 18.463 15.7321 18.5173C15.6687 18.1658 15.5922 17.8167 15.5027 17.4708C15.3826 17.0001 14.6813 17.1993 14.803 17.6716C14.8922 18.0111 14.965 18.3489 15.0251 18.6916C14.9942 18.7033 14.9608 18.7091 14.9305 18.7229C13.9466 19.1123 13.3463 20.1052 14.0661 21.0312C14.4014 21.4626 14.8396 21.6368 15.3194 21.6947C15.3454 22.3338 15.3619 22.9735 15.3805 23.612C15.0591 23.4032 14.7663 23.1355 14.5012 22.8523C14.1729 22.506 13.6603 23.0409 13.9881 23.3868C14.4338 23.8612 14.9018 24.2198 15.4091 24.4493C15.432 24.9949 15.4644 25.5421 15.5175 26.085C15.5643 26.5668 16.291 26.5695 16.2437 26.085C16.199 25.6154 16.1659 25.1447 16.1444 24.6735C16.4206 24.7213 16.7107 24.7335 17.0188 24.7043C17.0534 25.2068 17.0937 25.7094 17.1511 26.212C17.1841 26.4999 17.4592 26.6131 17.6622 26.5546L17.617 27.598C17.2972 27.6267 16.971 27.6532 16.631 27.6756L16.2262 27.7021L16.4419 28.0506C16.4637 28.0857 16.7086 28.473 17.2552 29.0366H16.5051V29.0356ZM29.7269 25.5389C29.0591 25.8528 28.2144 26.1408 27.3538 26.3921C26.8246 25.8454 26.1478 25.116 25.6426 24.4689C26.7683 24.1279 27.3984 23.7762 27.6826 23.5865C27.9073 23.7847 28.2048 23.8877 28.5571 23.8872C28.6739 23.8872 28.7775 23.8761 28.8572 23.8633C29.1122 24.1938 29.5234 24.5752 29.7805 24.8031C29.6587 24.9281 29.6001 25.0655 29.6047 25.2153C29.6089 25.3428 29.6599 25.4512 29.7269 25.5389ZM25.9258 27.2846C26.0345 27.3802 26.1461 27.4776 26.2605 27.5767C24.1068 28.1478 22.504 28.21 22.155 28.2158C19.9248 26.8553 18.7688 25.4156 18.3231 24.7675C20.1893 24.7208 21.7321 24.5518 23.0188 24.3191C23.0711 24.3834 23.1241 24.4471 23.1776 24.5104C22.1435 24.6716 21.1011 24.775 20.0555 24.8201L19.6267 24.8382L19.8626 25.1989C19.8621 25.1994 19.8143 25.2887 19.4976 25.3503L18.9829 25.4507L21.5137 27.4997L21.6317 27.4678C21.6343 27.4673 21.8575 27.4073 22.1273 27.4073C22.5167 27.4073 22.7829 27.5257 22.9168 27.7574L23.0018 27.904L23.167 27.8748C24.0924 27.7062 25.0124 27.5093 25.9258 27.2846ZM18.4367 25.7232L17.8322 25.6903C17.804 25.3885 17.7759 25.0868 17.7546 24.785C17.8609 24.9614 18.0787 25.2929 18.4367 25.7232ZM17.6887 23.7783C17.6539 23.0632 17.6328 22.3475 17.6255 21.6315C17.7134 21.6351 17.7984 21.6427 17.8805 21.6544C18.8198 21.7967 19.0652 22.8412 18.3321 23.4287C18.1408 23.5802 17.9204 23.6912 17.6887 23.7783ZM23.2345 27.3653C22.9965 27.0715 22.6177 26.9175 22.1279 26.9175C21.9233 26.9175 21.7432 26.9451 21.6296 26.9674L20.0385 25.6781C20.1702 25.6023 20.2603 25.5056 20.3089 25.388C20.3208 25.3586 20.33 25.3282 20.3365 25.2972C21.5977 25.2281 22.6602 25.1022 23.5585 24.9481C23.9942 25.4342 24.6343 26.1047 25.4832 26.884C24.4404 27.1321 23.5707 27.3021 23.2345 27.3653ZM16.8988 21.6507C16.9089 22.4204 16.928 23.1923 16.9689 23.9616C16.9004 23.9722 16.8329 23.9855 16.7654 23.9924C16.537 24.0184 16.3202 23.9993 16.1141 23.9473C16.0881 23.2035 16.0711 22.4582 16.0429 21.7139C16.3287 21.7006 16.6183 21.6724 16.8988 21.6507ZM16.0063 20.9786C15.9732 20.3949 15.9183 19.8126 15.8416 19.2329C16.1937 19.184 16.5519 19.2022 16.8972 19.2866C16.8934 19.8297 16.8925 20.3728 16.8945 20.9159C16.6613 20.9287 16.4398 20.951 16.2448 20.9685C16.1654 20.9749 16.0859 20.9782 16.0063 20.9786ZM15.2774 20.8857C15.2322 20.8734 15.1876 20.8639 15.1414 20.8485C14.9291 20.7759 14.7368 20.6545 14.5799 20.4941C14.1262 20.0707 14.7488 19.6553 15.1414 19.4582C15.203 19.931 15.2455 20.4081 15.2774 20.8857ZM21.1408 31.227C18.8347 30.0487 17.5974 28.7391 17.106 28.1324C17.4592 28.1059 17.7934 28.074 18.1244 28.0405L21.9058 30.4949L30.1986 28.2169C25.9221 30.7945 21.697 31.1871 21.1408 31.227ZM27.9897 27.0354L27.7442 26.7894C28.6877 26.5036 29.6004 26.1721 30.281 25.8077L30.6948 25.5851L30.2751 25.3715C30.1811 25.3232 30.0892 25.2345 30.0876 25.201C30.0886 25.1882 30.1258 25.1202 30.2868 25.0278L30.5939 24.8514L30.3208 24.6241C30.3123 24.6172 29.4607 23.9101 29.1616 23.4548L29.0628 23.306L28.8933 23.3554C28.8917 23.3554 28.7462 23.3974 28.5571 23.3974C28.2649 23.3979 28.046 23.3023 27.9057 23.1143L27.7506 22.9087L27.5562 23.076C27.5461 23.0845 26.9442 23.578 25.3297 24.0445C25.2765 23.9679 25.2253 23.89 25.1762 23.8107C27.1338 23.2173 28.1342 22.4991 28.5677 22.1059C29.2636 23.6115 30.9206 24.8243 31.6399 25.2998C30.4843 25.999 29.2614 26.5804 27.9897 27.0354Z" fill="#161F28" stroke="black" stroke-width="2" mask="url(#path-2-inside-1_1028_3244)"/>
<path d="M23.2071 25.5312C22.6775 25.3872 22.0798 25.4855 21.8705 25.7485C21.6628 26.0125 21.9252 26.3451 22.4544 26.4901C22.9845 26.6341 23.5817 26.5353 23.791 26.2718C23.9987 26.0077 23.7373 25.6762 23.2071 25.5312Z" fill="#161F28"/>
</svg>
