<svg width="31" height="31" viewBox="0 0 31 31" fill="none" xmlns="http://www.w3.org/2000/svg">
<rect x="0.5" y="0.5" width="30" height="30" rx="15" fill="#25BAFF" fill-opacity="0.1"/>
<rect x="0.5" y="0.5" width="30" height="30" rx="15" stroke="#2399F5"/>
<path d="M8.375 18.5208V12.5833C8.375 12.1634 8.54181 11.7607 8.83875 11.4637C9.13568 11.1668 9.53841 11 9.95833 11H16.6875C17.1074 11 17.5102 11.1668 17.8071 11.4637C18.104 11.7607 18.2708 12.1634 18.2708 12.5833V18.5208C18.2708 18.9408 18.104 19.3435 17.8071 19.6404C17.5102 19.9374 17.1074 20.1042 16.6875 20.1042H9.95833C9.53841 20.1042 9.13568 19.9374 8.83875 19.6404C8.54181 19.3435 8.375 18.9408 8.375 18.5208ZM21.9663 11.5866L18.7997 14.4073C18.7579 14.4444 18.7245 14.4899 18.7016 14.5408C18.6787 14.5916 18.6668 14.6468 18.6667 14.7026V16.1102C18.6668 16.166 18.6787 16.2212 18.7016 16.2721C18.7245 16.323 18.7579 16.3684 18.7997 16.4055L21.9663 19.2262C22.0234 19.2769 22.0939 19.31 22.1693 19.3215C22.2447 19.3331 22.3219 19.3225 22.3915 19.2913C22.4611 19.26 22.5201 19.2093 22.5616 19.1452C22.603 19.0811 22.625 19.0064 22.625 18.9301V11.8827C22.625 11.8064 22.603 11.7317 22.5616 11.6677C22.5201 11.6036 22.4611 11.5529 22.3915 11.5216C22.3219 11.4903 22.2447 11.4798 22.1693 11.4913C22.0939 11.5029 22.0234 11.536 21.9663 11.5866Z" stroke="#2399F5" stroke-linecap="round" stroke-linejoin="round"/>
</svg>
