<svg width="14" height="25" viewBox="0 0 14 25" fill="none" xmlns="http://www.w3.org/2000/svg">
<g clip-path="url(#clip0_1022_3339)">
<rect y="0.5" width="14" height="24" rx="7" fill="white"/>
<path d="M3.2665 7.67302C4.26005 6.69934 5.5977 6.1571 6.98879 6.16413C8.37988 6.17116 9.71199 6.72688 10.6956 7.71054C11.6793 8.6942 12.235 10.0263 12.2421 11.4174C12.2491 12.8085 11.7068 14.1461 10.7332 15.1397L7.9425 17.9304C7.69246 18.1803 7.35339 18.3207 6.99983 18.3207C6.64628 18.3207 6.3072 18.1803 6.05717 17.9304L3.2665 15.1397C2.27643 14.1495 1.72021 12.8066 1.72021 11.4064C1.72021 10.0061 2.27643 8.66319 3.2665 7.67302Z" stroke="#2399F5" stroke-linejoin="round"/>
<path d="M7 13.4062C8.10457 13.4062 9 12.5108 9 11.4062C9 10.3017 8.10457 9.40625 7 9.40625C5.89543 9.40625 5 10.3017 5 11.4062C5 12.5108 5.89543 13.4062 7 13.4062Z" stroke="#2399F5" stroke-linecap="round" stroke-linejoin="round"/>
</g>
<defs>
<clipPath id="clip0_1022_3339">
<rect y="0.5" width="14" height="24" rx="7" fill="white"/>
</clipPath>
</defs>
</svg>
