<svg width="20" height="20" viewBox="0 0 20 20" fill="none" xmlns="http://www.w3.org/2000/svg">
<path d="M17.4983 8.33268C17.4883 6.52018 17.4083 5.53852 16.7675 4.89852C16.0358 4.16602 14.8567 4.16602 12.5 4.16602H10C7.64333 4.16602 6.46417 4.16602 5.7325 4.89852C5 5.63018 5 6.80935 5 9.16602V13.3327C5 15.6893 5 16.8685 5.7325 17.6002C6.46417 18.3327 7.64333 18.3327 10 18.3327H12.5C14.8567 18.3327 16.0358 18.3327 16.7675 17.6002C17.5 16.8685 17.5 15.6893 17.5 13.3327V12.4993" stroke="#4E506A" stroke-linecap="round"/>
<path d="M2.5 8.33268V13.3327C2.5 13.9957 2.76339 14.6316 3.23223 15.1005C3.70107 15.5693 4.33696 15.8327 5 15.8327M15 4.16602C15 3.50297 14.7366 2.86709 14.2678 2.39825C13.7989 1.92941 13.163 1.66602 12.5 1.66602H9.16667C6.02417 1.66602 4.4525 1.66602 3.47667 2.64268C2.93167 3.18685 2.69083 3.91602 2.585 4.99935" stroke="#4E506A" stroke-linecap="round"/>
</svg>
