<svg width="24" height="25" viewBox="0 0 24 25" fill="none" xmlns="http://www.w3.org/2000/svg">
<path d="M9.74879 2.90039C9.41524 2.9004 9.08825 2.99309 8.80432 3.16811C8.52038 3.34314 8.29066 3.59361 8.14079 3.89159L7.43279 5.30039H5.40479C4.60914 5.30039 3.84607 5.61646 3.28346 6.17907C2.72086 6.74168 2.40479 7.50474 2.40479 8.30039V17.9004C2.40479 18.696 2.72086 19.4591 3.28346 20.0217C3.84607 20.5843 4.60914 20.9004 5.40479 20.9004H11.52C11.324 20.5167 11.166 20.1148 11.0484 19.7004H5.40599C4.9286 19.7004 4.47076 19.5107 4.13319 19.1732C3.79563 18.8356 3.60599 18.3778 3.60599 17.9004V8.30039C3.60599 7.823 3.79563 7.36516 4.13319 7.0276C4.47076 6.69003 4.9286 6.50039 5.40599 6.50039H7.80359C7.91471 6.50016 8.0236 6.46908 8.1181 6.4106C8.2126 6.35212 8.289 6.26855 8.33879 6.16919L9.21239 4.43039C9.26243 4.33108 9.33909 4.24763 9.43381 4.18936C9.52853 4.13108 9.63758 4.10028 9.74879 4.10039H14.2656C14.3771 4.10017 14.4865 4.13105 14.5815 4.18955C14.6764 4.24806 14.7532 4.33187 14.8032 4.43159L15.6708 6.16799C15.7207 6.26753 15.7973 6.35122 15.892 6.40971C15.9867 6.46821 16.0959 6.49919 16.2072 6.49919H18.606C19.0834 6.49919 19.5412 6.68883 19.8788 7.0264C20.2163 7.36396 20.406 7.8218 20.406 8.29919V12.0228C20.8364 12.2436 21.2364 12.5072 21.606 12.8136V8.29919C21.606 7.50354 21.2899 6.74048 20.7273 6.17787C20.1647 5.61526 19.4016 5.29919 18.606 5.29919H16.578L15.876 3.89519C15.7264 3.59618 15.4965 3.34472 15.2121 3.16901C14.9277 2.99331 14.5999 2.90029 14.2656 2.90039H9.74879ZM12 7.70039C13.0716 7.70002 14.1126 8.05826 14.957 8.71807C15.8014 9.37787 16.4008 10.3013 16.6596 11.3412C16.2606 11.386 15.8666 11.4672 15.4824 11.5836C15.3211 10.971 15.0011 10.4117 14.5547 9.96226C14.1082 9.51282 13.5511 9.1891 12.9396 9.02378C12.328 8.85846 11.6837 8.85739 11.0716 9.02067C10.4595 9.18395 9.90131 9.50581 9.45336 9.95376C9.0054 10.4017 8.68355 10.9599 8.52026 11.572C8.35698 12.1841 8.35806 12.8284 8.52338 13.44C8.68869 14.0515 9.01241 14.6086 9.46185 15.0551C9.91129 15.5015 10.4706 15.8215 11.0832 15.9828C10.9668 16.3666 10.8857 16.7602 10.8408 17.1588C9.70693 16.8723 8.71659 16.1818 8.0556 15.217C7.39461 14.2522 7.1084 13.0794 7.25066 11.9186C7.39293 10.7577 7.9539 9.68873 8.82831 8.91211C9.70273 8.13548 10.8305 7.70463 12 7.70039ZM22.8 17.9004C22.8 19.3326 22.2311 20.7061 21.2184 21.7188C20.2057 22.7315 18.8322 23.3004 17.4 23.3004C15.9678 23.3004 14.5943 22.7315 13.5816 21.7188C12.5689 20.7061 12 19.3326 12 17.9004C12 16.4682 12.5689 15.0947 13.5816 14.082C14.5943 13.0693 15.9678 12.5004 17.4 12.5004C18.8322 12.5004 20.2057 13.0693 21.2184 14.082C22.2311 15.0947 22.8 16.4682 22.8 17.9004ZM18 15.5004C18 15.3413 17.9368 15.1886 17.8243 15.0761C17.7117 14.9636 17.5591 14.9004 17.4 14.9004C17.2409 14.9004 17.0882 14.9636 16.9757 15.0761C16.8632 15.1886 16.8 15.3413 16.8 15.5004V17.3004H15C14.8409 17.3004 14.6882 17.3636 14.5757 17.4761C14.4632 17.5886 14.4 17.7413 14.4 17.9004C14.4 18.0595 14.4632 18.2121 14.5757 18.3247C14.6882 18.4372 14.8409 18.5004 15 18.5004H16.8V20.3004C16.8 20.4595 16.8632 20.6121 16.9757 20.7247C17.0882 20.8372 17.2409 20.9004 17.4 20.9004C17.5591 20.9004 17.7117 20.8372 17.8243 20.7247C17.9368 20.6121 18 20.4595 18 20.3004V18.5004H19.8C19.9591 18.5004 20.1117 18.4372 20.2243 18.3247C20.3368 18.2121 20.4 18.0595 20.4 17.9004C20.4 17.7413 20.3368 17.5886 20.2243 17.4761C20.1117 17.3636 19.9591 17.3004 19.8 17.3004H18V15.5004Z" fill="#263238"/>
</svg>
