<svg width="17" height="16" viewBox="0 0 17 16" fill="none" xmlns="http://www.w3.org/2000/svg">
<path d="M12.75 2.5H3.75C3.21957 2.5 2.71086 2.71071 2.33579 3.08579C1.96071 3.46086 1.75 3.96957 1.75 4.5V9.5C1.75 10.0304 1.96071 10.5391 2.33579 10.9142C2.71086 11.2893 3.21957 11.5 3.75 11.5H9.25L12.25 13.5V11.5H12.75C13.2804 11.5 13.7891 11.2893 14.1642 10.9142C14.5393 10.5391 14.75 10.0304 14.75 9.5V4.5C14.75 3.96957 14.5393 3.46086 14.1642 3.08579C13.7891 2.71071 13.2804 2.5 12.75 2.5Z" stroke="#2399F5" stroke-linecap="round" stroke-linejoin="round"/>
<path d="M5.25 7.5C5.25 7.63261 5.19732 7.75979 5.10355 7.85355C5.00979 7.94732 4.88261 8 4.75 8C4.61739 8 4.49021 7.94732 4.39645 7.85355C4.30268 7.75979 4.25 7.63261 4.25 7.5C4.25 7.36739 4.30268 7.24021 4.39645 7.14645C4.49021 7.05268 4.61739 7 4.75 7C4.88261 7 5.00979 7.05268 5.10355 7.14645C5.19732 7.24021 5.25 7.36739 5.25 7.5ZM8.25 7.5C8.25 7.63261 8.19732 7.75979 8.10355 7.85355C8.00979 7.94732 7.88261 8 7.75 8C7.61739 8 7.49021 7.94732 7.39645 7.85355C7.30268 7.75979 7.25 7.63261 7.25 7.5C7.25 7.36739 7.30268 7.24021 7.39645 7.14645C7.49021 7.05268 7.61739 7 7.75 7C7.88261 7 8.00979 7.05268 8.10355 7.14645C8.19732 7.24021 8.25 7.36739 8.25 7.5ZM11.25 7.5C11.25 7.63261 11.1973 7.75979 11.1036 7.85355C11.0098 7.94732 10.8826 8 10.75 8C10.6174 8 10.4902 7.94732 10.3964 7.85355C10.3027 7.75979 10.25 7.63261 10.25 7.5C10.25 7.36739 10.3027 7.24021 10.3964 7.14645C10.4902 7.05268 10.6174 7 10.75 7C10.8826 7 11.0098 7.05268 11.1036 7.14645C11.1973 7.24021 11.25 7.36739 11.25 7.5Z" stroke="#2399F5" stroke-linecap="round" stroke-linejoin="round"/>
</svg>
