<svg width="18" height="18" viewBox="0 0 18 18" fill="none" xmlns="http://www.w3.org/2000/svg">
<path fill-rule="evenodd" clip-rule="evenodd" d="M6 5.25C6 4.45435 6.31607 3.69129 6.87868 3.12868C7.44129 2.56607 8.20435 2.25 9 2.25C9.79565 2.25 10.5587 2.56607 11.1213 3.12868C11.6839 3.69129 12 4.45435 12 5.25C12 6.04565 11.6839 6.80871 11.1213 7.37132C10.5587 7.93393 9.79565 8.25 9 8.25C8.20435 8.25 7.44129 7.93393 6.87868 7.37132C6.31607 6.80871 6 6.04565 6 5.25ZM6 9.75C5.00544 9.75 4.05161 10.1451 3.34835 10.8483C2.64509 11.5516 2.25 12.5054 2.25 13.5C2.25 14.0967 2.48705 14.669 2.90901 15.091C3.33097 15.5129 3.90326 15.75 4.5 15.75H13.5C14.0967 15.75 14.669 15.5129 15.091 15.091C15.5129 14.669 15.75 14.0967 15.75 13.5C15.75 12.5054 15.3549 11.5516 14.6517 10.8483C13.9484 10.1451 12.9946 9.75 12 9.75H6Z" fill="#FCFCFE"/>
</svg>
