<svg width="34" height="35" viewBox="0 0 34 35" fill="none" xmlns="http://www.w3.org/2000/svg">
<path d="M7.26039 6.16602C6.08625 6.16602 4.96021 6.63244 4.12997 7.46268C3.29973 8.29292 2.8333 9.41896 2.8333 10.5931V18.6468C3.36783 18.1333 3.96241 17.6862 4.60414 17.3152V10.5931C4.60414 9.88862 4.88399 9.21299 5.38214 8.71485C5.88028 8.2167 6.55591 7.93685 7.26039 7.93685H18.2396C18.944 7.93685 19.6197 8.2167 20.1178 8.71485C20.616 9.21299 20.8958 9.88862 20.8958 10.5931V21.5723C20.8957 22.2566 20.6316 22.9145 20.1583 23.4088C19.6851 23.9031 19.0394 24.1958 18.3557 24.2257C18.4239 24.8135 18.4353 25.4065 18.3897 25.9965C19.5371 25.9576 20.6246 25.4744 21.4225 24.649C22.2205 23.8235 22.6666 22.7204 22.6666 21.5723V20.7924L27.5591 24.1704C29.0863 25.2244 31.1688 24.1315 31.1688 22.2756V9.88902C31.1688 8.03318 29.0863 6.94022 27.5591 7.99422L22.6666 11.373V10.5931C22.6666 9.41896 22.2002 8.29292 21.37 7.46268C20.5397 6.63244 19.4137 6.16602 18.2396 6.16602H7.26039ZM22.6666 13.5242L28.5649 9.45127C28.6447 9.39621 28.738 9.36403 28.8348 9.35821C28.9315 9.35239 29.028 9.37314 29.1138 9.41823C29.1996 9.46332 29.2714 9.53102 29.3215 9.614C29.3716 9.69699 29.398 9.79209 29.3979 9.88902V22.2756C29.3979 22.3725 29.3714 22.4675 29.3212 22.5504C29.2711 22.6333 29.1993 22.7009 29.1135 22.7459C29.0277 22.7909 28.9313 22.8116 28.8346 22.8057C28.7379 22.7999 28.6446 22.7677 28.5649 22.7127L22.6666 18.6398V13.5242ZM4.88322 21.5956C4.94043 21.7818 4.95864 21.9777 4.93673 22.1712C4.91482 22.3647 4.85326 22.5516 4.75588 22.7202C4.6585 22.8889 4.5274 23.0356 4.37076 23.1513C4.21413 23.267 4.03532 23.3492 3.84551 23.3927L1.53635 23.9225C1.38622 24.7651 1.37593 25.6266 1.50589 26.4725L3.95955 27.0873C4.14387 27.1336 4.317 27.2164 4.46864 27.3309C4.62028 27.4454 4.74733 27.5893 4.84223 27.7539C4.93713 27.9185 4.99795 28.1006 5.02105 28.2892C5.04416 28.4778 5.02908 28.6691 4.97672 28.8518L4.27051 31.3182C4.92555 31.8557 5.66389 32.2828 6.45643 32.5826L8.24001 30.736C8.37208 30.5993 8.5303 30.4905 8.70527 30.4162C8.88023 30.3419 9.06836 30.3036 9.25845 30.3035C9.44853 30.3035 9.63668 30.3417 9.8117 30.4158C9.98672 30.49 10.145 30.5986 10.2772 30.7353L12.0367 32.5536C12.8341 32.2423 13.5748 31.8017 14.229 31.2495L13.5341 28.9864C13.4769 28.8003 13.4586 28.6044 13.4805 28.411C13.5024 28.2175 13.5639 28.0306 13.6612 27.862C13.7585 27.6934 13.8895 27.5466 14.0461 27.4309C14.2026 27.3152 14.3813 27.2329 14.5711 27.1893L16.8803 26.6595C17.0304 25.817 17.0407 24.9554 16.9107 24.1095L14.4578 23.4947C14.2734 23.4485 14.1002 23.3657 13.9485 23.2513C13.7967 23.1368 13.6696 22.9929 13.5746 22.8283C13.4797 22.6637 13.4188 22.4816 13.3956 22.293C13.3725 22.1043 13.3875 21.9129 13.4399 21.7302L14.1468 19.2638C13.4915 18.7262 12.753 18.2992 11.9602 17.9994L10.1766 19.8461C10.0445 19.9827 9.88622 20.0914 9.71123 20.1656C9.53624 20.2399 9.3481 20.2781 9.15801 20.2781C8.96793 20.2781 8.77979 20.2399 8.6048 20.1656C8.4298 20.0914 8.27154 19.9827 8.13943 19.8461L6.37993 18.0285C5.58254 18.3396 4.84186 18.7799 4.18764 19.3318L4.88322 21.5956ZM9.2083 27.416C8.64472 27.416 8.10422 27.1921 7.7057 26.7936C7.30719 26.3951 7.0833 25.8546 7.0833 25.291C7.0833 24.7274 7.30719 24.1869 7.7057 23.7884C8.10422 23.3899 8.64472 23.166 9.2083 23.166C9.77189 23.166 10.3124 23.3899 10.7109 23.7884C11.1094 24.1869 11.3333 24.7274 11.3333 25.291C11.3333 25.8546 11.1094 26.3951 10.7109 26.7936C10.3124 27.1921 9.77189 27.416 9.2083 27.416Z" fill="#161F28"/>
</svg>
