<svg width="20" height="20" viewBox="0 0 20 20" fill="none" xmlns="http://www.w3.org/2000/svg">
<path d="M10.0025 17.5C8.96583 17.5 7.99083 17.3033 7.0775 16.91C6.16472 16.5161 5.37056 15.9817 4.695 15.3067C4.01944 14.6317 3.48472 13.8383 3.09083 12.9267C2.69694 12.015 2.5 11.0403 2.5 10.0025C2.5 8.96472 2.69694 7.98972 3.09083 7.0775C3.48417 6.16472 4.01778 5.37056 4.69167 4.695C5.36556 4.01944 6.15917 3.48472 7.0725 3.09083C7.98583 2.69694 8.96083 2.5 9.9975 2.5C11.0342 2.5 12.0092 2.69694 12.9225 3.09083C13.8353 3.48417 14.6294 4.01806 15.305 4.6925C15.9806 5.36694 16.5153 6.16056 16.9092 7.07333C17.3031 7.98611 17.5 8.96083 17.5 9.9975C17.5 11.0342 17.3033 12.0092 16.91 12.9225C16.5167 13.8358 15.9822 14.63 15.3067 15.305C14.6311 15.98 13.8378 16.5147 12.9267 16.9092C12.0156 17.3036 11.0408 17.5006 10.0025 17.5ZM10 16.6667C10.8139 16.6667 11.5972 16.5239 12.35 16.2383C13.1039 15.9522 13.7886 15.5372 14.4042 14.9933L5.00667 5.59667C4.47333 6.21167 4.06111 6.89583 3.77 7.64917C3.47889 8.4025 3.33333 9.18611 3.33333 10C3.33333 11.8611 3.97917 13.4375 5.27083 14.7292C6.5625 16.0208 8.13889 16.6667 10 16.6667ZM14.9933 14.4033C15.5378 13.7883 15.9525 13.1042 16.2375 12.3508C16.5236 11.5975 16.6667 10.8139 16.6667 10C16.6667 8.13889 16.0208 6.5625 14.7292 5.27083C13.4375 3.97917 11.8611 3.33333 10 3.33333C9.18278 3.33333 8.39556 3.47361 7.63833 3.75417C6.88167 4.03417 6.20111 4.45167 5.59667 5.00667L14.9933 14.4033Z" fill="#505050" stroke="#505050" stroke-width="0.5"/>
</svg>
