<svg width="34" height="35" viewBox="0 0 34 35" fill="none" xmlns="http://www.w3.org/2000/svg">
<g clip-path="url(#clip0_1028_3270)">
<path d="M29.2842 0.5C30.9502 0.5 32.3 1.8838 32.3 3.5906V31.4094C32.3 33.1162 30.9502 34.5 29.2842 34.5H7.72143C6.05543 34.5 4.70563 33.1162 4.70563 31.4094L4.70393 28.5432H2.83053C2.52753 28.5392 2.23847 28.4153 2.0266 28.1986C1.81473 27.982 1.69731 27.6902 1.70003 27.3872C1.70003 26.7463 2.20663 26.2278 2.83053 26.2278H4.70393V22.1155H2.83053C2.52694 22.1115 2.23736 21.9871 2.02539 21.7697C1.81342 21.5523 1.6964 21.2597 1.70003 20.9561C1.70003 20.3152 2.20663 19.7967 2.83053 19.7967L4.70393 19.795V15.6623H2.83053C2.52753 15.6583 2.23847 15.5344 2.0266 15.3177C1.81473 15.1011 1.69731 14.8093 1.70003 14.5063C1.70003 13.8654 2.20663 13.3469 2.83053 13.3469L4.70393 13.3452V9.2074H2.83053C2.52724 9.20337 2.23791 9.07923 2.02599 8.86222C1.81408 8.6452 1.69686 8.35301 1.70003 8.0497C1.70003 7.4088 2.20663 6.8903 2.83053 6.8903L4.70393 6.8886L4.70563 3.5906C4.70563 1.8838 6.05543 0.5 7.72143 0.5H29.2842ZM23.7626 2.8188H7.59223C7.51245 2.82155 7.4341 2.84079 7.36213 2.87531C7.29015 2.90984 7.22611 2.9589 7.17403 3.0194C7.05468 3.14262 6.98247 3.3039 6.97003 3.475V6.8886H8.40483C8.55557 6.8897 8.70459 6.9207 8.84325 6.97982C8.98192 7.03894 9.10747 7.125 9.21262 7.233C9.31778 7.341 9.40045 7.46881 9.45585 7.609C9.51125 7.74919 9.53826 7.89899 9.53533 8.0497C9.53851 8.35301 9.42129 8.6452 9.20937 8.86222C8.99745 9.07923 8.70813 9.20337 8.40483 9.2074H6.97003V13.3401H8.45413L8.53063 13.352L8.40483 13.3452C8.59082 13.345 8.77384 13.3918 8.93693 13.4812L8.97093 13.4999C9.04996 13.5455 9.12113 13.6034 9.18173 13.6716L9.08823 13.5815C9.2206 13.6848 9.32887 13.8158 9.40549 13.9652C9.48212 14.1147 9.52527 14.279 9.53193 14.4468L9.52003 14.3108C9.53137 14.3731 9.53703 14.4377 9.53703 14.5046C9.53984 14.7907 9.43581 15.0676 9.24528 15.2811C9.05475 15.4946 8.79143 15.6293 8.50683 15.6589L8.45583 15.6606L8.42863 15.6623H6.97003V19.795H8.40483C8.58765 19.7952 8.76756 19.8408 8.92843 19.9276C9.0327 19.9775 9.1177 20.0404 9.18343 20.1163L9.13243 20.067C9.29796 20.2103 9.42008 20.3971 9.48498 20.6062C9.54987 20.8153 9.55495 21.0384 9.49963 21.2502L9.48433 21.3012L9.45883 21.376C9.36835 21.6083 9.20721 21.8063 8.99813 21.9421L8.98113 21.9523C8.80791 22.059 8.60825 22.1149 8.40483 22.1138H6.97003V26.2261H8.45413C8.46773 26.2261 8.48077 26.2284 8.49323 26.2329L8.40483 26.2261C9.02873 26.2261 9.53533 26.7446 9.53533 27.3855C9.53533 27.7629 9.35853 28.0995 9.08483 28.3103L9.06273 28.3273L8.95733 28.3953L8.94373 28.4021C8.80147 28.4857 8.64105 28.5335 8.47623 28.5415H8.45413L8.42863 28.5449H8.40483L6.97003 28.5432V31.542C6.98023 31.6553 7.02103 31.763 7.09243 31.865L7.17403 31.9636C7.2987 32.0939 7.4517 32.1676 7.63303 32.1846H23.7626V2.8188ZM29.3114 2.8154H26.0168V32.1812H29.3726C29.5268 32.1823 29.6718 32.1087 29.8078 31.9602C29.9311 31.8377 30.0111 31.6783 30.0356 31.5063V3.5498C30.0186 3.36019 29.9384 3.18179 29.8078 3.0432C29.6791 2.90448 29.5006 2.82254 29.3114 2.8154Z" fill="#161F28"/>
</g>
<defs>
<clipPath id="clip0_1028_3270">
<rect width="34" height="34" fill="white" transform="translate(0 0.5)"/>
</clipPath>
</defs>
</svg>
