<svg width="34" height="35" viewBox="0 0 34 35" fill="none" xmlns="http://www.w3.org/2000/svg">
<path d="M24.0833 15.8076C24.0833 15.3174 24.0833 15.0724 24.157 14.8542C24.3709 14.2195 24.9362 13.9744 25.5028 13.7166C26.1375 13.4262 26.4548 13.2817 26.7707 13.2562C27.1277 13.2279 27.4862 13.3044 27.7922 13.4758C28.1973 13.7024 28.4807 14.1359 28.7697 14.4873C30.1056 16.1108 30.7742 16.9225 31.0179 17.8164C31.2162 18.5389 31.2162 19.2954 31.0179 20.0165C30.6623 21.3227 29.5361 22.4164 28.7017 23.4307C28.2752 23.9478 28.0613 24.207 27.7922 24.3586C27.4809 24.5312 27.1254 24.6076 26.7707 24.5782C26.4548 24.5527 26.1375 24.4082 25.5014 24.1178C24.9347 23.8599 24.3709 23.6149 24.157 22.9802C24.0833 22.762 24.0833 22.5169 24.0833 22.0268V15.8076ZM9.91666 15.8076C9.91666 15.1899 9.89966 14.636 9.40099 14.2025C9.21966 14.0453 8.97882 13.9362 8.49857 13.7166C7.86249 13.4276 7.54516 13.2817 7.22924 13.2562C6.28433 13.1797 5.77574 13.8257 5.23174 14.4887C3.89441 16.1108 3.22574 16.9225 2.98066 17.8179C2.78347 18.538 2.78347 19.2978 2.98066 20.0179C3.33766 21.3227 4.46532 22.4178 5.29832 23.4307C5.82391 24.0682 6.32683 24.6504 7.22924 24.5782C7.54516 24.5527 7.86249 24.4082 8.49857 24.1178C8.98024 23.8996 9.21966 23.7891 9.40099 23.6318C9.89966 23.1983 9.91666 22.6444 9.91666 22.0282V15.8076Z" stroke="#161F28" stroke-width="3" stroke-linecap="round" stroke-linejoin="round"/>
<path d="M7.08337 13.25C7.08337 8.55517 11.5232 4.75 17 4.75C22.4769 4.75 26.9167 8.55517 26.9167 13.25M26.9167 24.5833V25.7167C26.9167 28.2199 24.3809 30.25 21.25 30.25H18.4167" stroke="#161F28" stroke-width="3" stroke-linecap="round" stroke-linejoin="round"/>
</svg>
