<svg width="44" height="44" viewBox="0 0 44 44" fill="none" xmlns="http://www.w3.org/2000/svg">
<path d="M21.9998 10.4257C21.7622 10.4257 21.5343 10.3314 21.3663 10.1634C21.1983 9.99535 21.1039 9.76749 21.1039 9.5299V4.88949C21.1039 4.6519 21.1983 4.42404 21.3663 4.25604C21.5343 4.08803 21.7622 3.99365 21.9998 3.99365C22.2373 3.99365 22.4652 4.08803 22.6332 4.25604C22.8012 4.42404 22.8956 4.6519 22.8956 4.88949V9.45824C22.9055 9.58176 22.8897 9.706 22.8491 9.8231C22.8086 9.9402 22.7441 10.0476 22.66 10.1385C22.5758 10.2295 22.4736 10.3019 22.36 10.3514C22.2463 10.4008 22.1237 10.4261 21.9998 10.4257ZM22.8956 39.0924V34.5416C22.8956 34.304 22.8012 34.0761 22.6332 33.9081C22.4652 33.7401 22.2373 33.6457 21.9998 33.6457C21.7622 33.6457 21.5343 33.7401 21.3663 33.9081C21.1983 34.0761 21.1039 34.304 21.1039 34.5416V39.0386C21.1039 39.2762 21.1983 39.5041 21.3663 39.6721C21.5343 39.8401 21.7622 39.9345 21.9998 39.9345C22.2373 39.9345 22.4652 39.8401 22.6332 39.6721C22.8012 39.5041 22.8956 39.2762 22.8956 39.0386V39.0924ZM40.0239 21.9999C40.0239 21.7623 39.9295 21.5345 39.7615 21.3665C39.5935 21.1985 39.3657 21.1041 39.1281 21.1041H34.5414C34.3038 21.1041 34.076 21.1985 33.908 21.3665C33.74 21.5345 33.6456 21.7623 33.6456 21.9999C33.6456 22.2375 33.74 22.4654 33.908 22.6334C34.076 22.8014 34.3038 22.8957 34.5414 22.8957H39.1102C39.2293 22.8981 39.3477 22.8767 39.4585 22.8328C39.5693 22.7888 39.6701 22.7232 39.7552 22.6398C39.8403 22.5563 39.9079 22.4568 39.9541 22.3469C40.0002 22.237 40.0239 22.1191 40.0239 21.9999ZM10.3718 21.9999C10.3718 21.7623 10.2775 21.5345 10.1095 21.3665C9.94145 21.1985 9.71359 21.1041 9.476 21.1041H4.87142C4.63383 21.1041 4.40597 21.1985 4.23797 21.3665C4.06997 21.5345 3.97559 21.7623 3.97559 21.9999C3.97559 22.2375 4.06997 22.4654 4.23797 22.6334C4.40597 22.8014 4.63383 22.8957 4.87142 22.8957H9.45809C9.57723 22.8981 9.69565 22.8767 9.80641 22.8328C9.91717 22.7888 10.0181 22.7232 10.1031 22.6398C10.1882 22.5563 10.2558 22.4568 10.302 22.3469C10.3481 22.237 10.3719 22.1191 10.3718 21.9999ZM13.4714 13.5432C13.5554 13.46 13.622 13.3609 13.6675 13.2517C13.713 13.1425 13.7364 13.0255 13.7364 12.9072C13.7364 12.7889 13.713 12.6718 13.6675 12.5627C13.622 12.4535 13.5554 12.3544 13.4714 12.2712L10.5331 9.33282C10.4527 9.24712 10.3555 9.17882 10.2477 9.13213C10.1398 9.08544 10.0235 9.06135 9.906 9.06135C9.78848 9.06135 9.67219 9.08544 9.56434 9.13213C9.45649 9.17882 9.35935 9.24712 9.27892 9.33282C9.19495 9.4161 9.12831 9.51518 9.08283 9.62434C9.03735 9.73351 9.01393 9.8506 9.01393 9.96886C9.01393 10.0871 9.03735 10.2042 9.08283 10.3134C9.12831 10.4225 9.19495 10.5216 9.27892 10.6049L12.2173 13.5432C12.3875 13.7023 12.6113 13.7918 12.8443 13.7941C13.0781 13.7955 13.3031 13.7055 13.4714 13.5432ZM10.5689 34.7924L13.6864 31.657C13.7688 31.5746 13.8341 31.4769 13.8787 31.3693C13.9232 31.2617 13.9462 31.1464 13.9462 31.0299C13.9462 30.9134 13.9232 30.7981 13.8787 30.6905C13.8341 30.5829 13.7688 30.4852 13.6864 30.4028C13.6041 30.3205 13.5063 30.2551 13.3987 30.2106C13.2911 30.166 13.1758 30.1431 13.0593 30.1431C12.9429 30.1431 12.8276 30.166 12.72 30.2106C12.6124 30.2551 12.5146 30.3205 12.4323 30.4028L9.29683 33.5203C9.21287 33.6036 9.14623 33.7027 9.10075 33.8118C9.05526 33.921 9.03185 34.0381 9.03185 34.1564C9.03185 34.2746 9.05526 34.3917 9.10075 34.5009C9.14623 34.61 9.21287 34.7091 9.29683 34.7924C9.37814 34.8768 9.47551 34.944 9.5832 34.9902C9.6909 35.0363 9.80675 35.0605 9.92392 35.0611C10.166 35.0606 10.398 34.9639 10.5689 34.7924ZM34.7385 34.7924C34.9038 34.6219 34.9962 34.3938 34.9962 34.1564C34.9962 33.9189 34.9038 33.6908 34.7385 33.5203L31.6031 30.4028C31.5207 30.3205 31.423 30.2551 31.3154 30.2106C31.2078 30.166 31.0925 30.1431 30.976 30.1431C30.8595 30.1431 30.7442 30.166 30.6366 30.2106C30.529 30.2551 30.4313 30.3205 30.3489 30.4028C30.2666 30.4852 30.2012 30.5829 30.1567 30.6905C30.1121 30.7981 30.0892 30.9134 30.0892 31.0299C30.0892 31.1464 30.1121 31.2617 30.1567 31.3693C30.2012 31.4769 30.2666 31.5746 30.3489 31.657L33.4664 34.7924C33.6373 34.9639 33.8693 35.0606 34.1114 35.0611C34.3477 35.0578 34.5731 34.9612 34.7385 34.7924ZM31.6031 13.7403L34.7564 10.6049C34.9251 10.4362 35.0199 10.2074 35.0199 9.96886C35.0199 9.7303 34.9251 9.50151 34.7564 9.33282C34.5877 9.16413 34.3589 9.06936 34.1204 9.06936C33.8818 9.06936 33.653 9.16413 33.4843 9.33282L30.3489 12.4862C30.2632 12.5666 30.1949 12.6637 30.1482 12.7716C30.1015 12.8794 30.0774 12.9957 30.0774 13.1132C30.0774 13.2308 30.1015 13.347 30.1482 13.4549C30.1949 13.5628 30.2632 13.6599 30.3489 13.7403C30.4293 13.826 30.5265 13.8943 30.6343 13.941C30.7422 13.9877 30.8585 14.0118 30.976 14.0118C31.0935 14.0118 31.2098 13.9877 31.3177 13.941C31.4255 13.8943 31.5227 13.826 31.6031 13.7403ZM38.6085 29.0232C38.6937 28.8016 38.6912 28.5558 38.6012 28.336C38.5113 28.1162 38.3409 27.9391 38.1247 27.8407L33.8247 26.0491C33.6117 25.9842 33.3821 26.001 33.1808 26.0962C32.9794 26.1914 32.8208 26.3582 32.7358 26.564C32.6507 26.7699 32.6454 27 32.7209 27.2096C32.7964 27.4191 32.9472 27.593 33.1439 27.6974L37.426 29.4891C37.5441 29.5142 37.6662 29.5142 37.7843 29.4891C37.9511 29.4941 38.1162 29.4533 38.2614 29.3712C38.4067 29.2891 38.5268 29.1687 38.6085 29.0232ZM6.5735 29.6324L11.0527 27.7512C11.1627 27.7061 11.2627 27.6396 11.3468 27.5555C11.4309 27.4714 11.4974 27.3714 11.5424 27.2613C11.5874 27.1512 11.6101 27.0333 11.6091 26.9144C11.608 26.7955 11.5833 26.6779 11.5364 26.5687C11.4416 26.3495 11.2648 26.1762 11.0438 26.0858C10.8228 25.9953 10.5751 25.995 10.3539 26.0849L5.87475 27.9841C5.65861 28.0824 5.48817 28.2596 5.39826 28.4793C5.30835 28.6991 5.30575 28.9449 5.391 29.1666C5.46094 29.3268 5.57624 29.4631 5.72268 29.5586C5.86913 29.6541 6.04033 29.7047 6.21517 29.7041C6.33852 29.7079 6.46112 29.6834 6.5735 29.6324ZM28.8618 38.752C29.0842 38.6605 29.2616 38.4851 29.3555 38.2638C29.4494 38.0424 29.4523 37.7929 29.3635 37.5695L27.5718 33.1978C27.5284 33.0883 27.4638 32.9885 27.3817 32.904C27.2997 32.8195 27.2017 32.7521 27.0936 32.7055C26.9854 32.6589 26.8691 32.6341 26.7513 32.6325C26.6336 32.6309 26.5166 32.6525 26.4073 32.6961C26.2978 32.7393 26.1982 32.8041 26.1143 32.8865C26.0304 32.9689 25.9639 33.0674 25.9188 33.176C25.8736 33.2846 25.8508 33.4012 25.8516 33.5188C25.8524 33.6365 25.8769 33.7527 25.9235 33.8607L27.7152 38.2503C27.7843 38.4126 27.8989 38.5513 28.0451 38.6499C28.1914 38.7484 28.363 38.8026 28.5393 38.8057C28.649 38.8049 28.7578 38.7868 28.8618 38.752ZM16.3202 38.2682L18.1118 33.8786C18.1632 33.7696 18.1919 33.6512 18.1964 33.5307C18.2009 33.4103 18.181 33.2901 18.138 33.1775C18.095 33.0649 18.0296 32.9621 17.9459 32.8753C17.8622 32.7886 17.7618 32.7196 17.6508 32.6725C17.5398 32.6255 17.4205 32.6013 17.2999 32.6015C17.1794 32.6017 17.0601 32.6262 16.9492 32.6736C16.8383 32.7209 16.7382 32.7902 16.6547 32.8772C16.5713 32.9642 16.5062 33.0672 16.4635 33.1799L14.6718 37.5695C14.5816 37.7859 14.5798 38.0292 14.6669 38.2469C14.754 38.4646 14.923 38.6396 15.1377 38.7341C15.2558 38.7592 15.3779 38.7592 15.496 38.7341C15.6541 38.7313 15.8087 38.6868 15.944 38.605C16.0793 38.5231 16.1905 38.407 16.2664 38.2682H16.3202ZM27.8227 11.1424L29.7218 6.69907C29.767 6.58529 29.7884 6.46345 29.7847 6.34108C29.7809 6.21871 29.7521 6.09841 29.7001 5.98759C29.648 5.87678 29.5738 5.77781 29.482 5.6968C29.3903 5.61579 29.2828 5.55445 29.1664 5.51657C28.9473 5.43213 28.7041 5.43527 28.4873 5.52534C28.2705 5.61542 28.0966 5.7855 28.0018 6.00032L26.1743 10.4257C26.1274 10.535 26.1027 10.6525 26.1017 10.7715C26.1007 10.8904 26.1233 11.0083 26.1684 11.1184C26.2134 11.2284 26.2799 11.3285 26.364 11.4126C26.448 11.4967 26.548 11.5632 26.6581 11.6082C26.7701 11.6336 26.8864 11.6336 26.9985 11.6082C27.166 11.6175 27.3327 11.5785 27.4788 11.4959C27.6248 11.4134 27.7442 11.2907 27.8227 11.1424ZM11.2498 17.5924C11.2926 17.4831 11.3132 17.3664 11.3102 17.2491C11.3071 17.1317 11.2806 17.0162 11.2322 16.9093C11.1837 16.8024 11.1144 16.7063 11.0281 16.6267C10.9419 16.5471 10.8406 16.4855 10.7302 16.4457L6.44809 14.8332C6.33758 14.7901 6.2196 14.7693 6.10099 14.7721C5.98239 14.7749 5.86552 14.8012 5.75718 14.8496C5.64884 14.8979 5.55117 14.9673 5.46986 15.0537C5.38855 15.1401 5.3252 15.2417 5.2835 15.3528C5.22026 15.5809 5.24618 15.8244 5.35599 16.0341C5.4658 16.2437 5.65127 16.4037 5.87475 16.4816L10.2285 18.112H10.551C10.7032 18.0954 10.8482 18.0385 10.971 17.9472C11.0938 17.8558 11.1901 17.7334 11.2498 17.5924ZM34.0039 18.0224L38.071 16.2307C38.2858 16.1359 38.4559 15.9621 38.546 15.7453C38.636 15.5284 38.6392 15.2852 38.5547 15.0662C38.5097 14.9561 38.4432 14.8561 38.3591 14.772C38.275 14.6879 38.175 14.6215 38.0649 14.5764C37.9548 14.5314 37.8369 14.5087 37.718 14.5098C37.599 14.5108 37.4815 14.5355 37.3722 14.5824L33.3052 16.2845C33.0892 16.3826 32.9199 16.5608 32.833 16.7815C32.7461 17.0021 32.7483 17.248 32.8393 17.467C32.9065 17.6306 33.0207 17.7706 33.1673 17.8695C33.314 17.9683 33.4866 18.0215 33.6635 18.0224C33.7939 18.0448 33.9272 18.0448 34.0577 18.0224H34.0039Z" fill="white"/>
</svg>
