<svg width="20" height="21" viewBox="0 0 20 21" fill="none" xmlns="http://www.w3.org/2000/svg">
<path d="M10.5 4C6.9625 4 4 6.6416 4 9.98C4 11.5556 4.6795 12.969 5.75 14.0261C5.61984 14.3799 5.43508 14.7092 5.203 15.0011C4.8954 15.3891 4.55559 15.7483 4.1875 16.0744C4.10676 16.1418 4.04811 16.2335 4.01965 16.337C3.9912 16.4406 3.99433 16.5507 4.02863 16.6523C4.06292 16.7538 4.12668 16.8419 4.21111 16.9041C4.29555 16.9664 4.39648 16.9999 4.5 17C5.6075 17 6.404 16.987 7.125 16.7889C7.77 16.611 8.3245 16.2387 8.8905 15.7161C9.4055 15.8446 9.937 15.96 10.5 15.96C14.0375 15.96 17 13.3184 17 9.98C17 6.6416 14.0375 4 10.5 4ZM10.5 5.04C13.5625 5.04 16 7.2864 16 9.98C16 12.6736 13.5625 14.92 10.5 14.92C9.9555 14.92 9.39 14.8222 8.875 14.6761C8.79264 14.6546 8.70637 14.6552 8.62431 14.678C8.54226 14.7007 8.46713 14.7448 8.406 14.8061C7.8435 15.3672 7.429 15.6288 6.875 15.7811C6.62 15.8513 6.128 15.8347 5.781 15.8628C5.851 15.7806 5.9165 15.7369 5.9845 15.6511C6.3775 15.1519 6.736 14.6241 6.844 14.0261C6.85888 13.9364 6.85082 13.8441 6.82063 13.7586C6.79045 13.6731 6.73919 13.5973 6.672 13.5389C5.6245 12.6393 5 11.3783 5 9.98C5 7.2864 7.4375 5.04 10.5 5.04ZM9.547 7.07112C9.45899 7.09166 9.37796 7.13658 9.3125 7.20112L8.5625 7.93276L9.2345 8.69612L9.828 8.11112H11.031L11.5 8.6644V9.42828L10.2185 10.3216C10.15 10.3702 10.0942 10.4356 10.056 10.5121C10.0179 10.5886 9.99864 10.6738 10 10.76V11.8H11V11.0522L12.2815 10.1589C12.3501 10.1103 12.4059 10.0448 12.4441 9.96816C12.4822 9.89155 12.5014 9.80626 12.5 9.72V8.46888C12.4993 8.3432 12.4549 8.22202 12.375 8.12776L11.625 7.25C11.5783 7.19415 11.5207 7.14931 11.4561 7.11846C11.3914 7.08761 11.3211 7.07147 11.25 7.07112H9.656C9.61978 7.06699 9.58322 7.06699 9.547 7.07112ZM10 12.32V13.36H11V12.32H10Z" fill="#303030"/>
</svg>
