<svg width="20" height="20" viewBox="0 0 20 20" fill="none" xmlns="http://www.w3.org/2000/svg">
<g clip-path="url(#clip0_4557_36734)">
<path d="M3.10764 2.22266C2.87189 2.22266 2.6458 2.31631 2.4791 2.48301C2.3124 2.6497 2.21875 2.8758 2.21875 3.11155V6.6671H6.66319V2.22266H3.10764ZM5.55208 5.55599H3.32986V3.33377H5.55208V5.55599Z" fill="white"/>
<path d="M2.21875 16.8876C2.21875 17.1233 2.3124 17.3494 2.4791 17.5161C2.6458 17.6828 2.87189 17.7765 3.10764 17.7765H6.66319V13.332H2.21875V16.8876ZM3.32986 14.4431H5.55208V16.6654H3.32986V14.4431Z" fill="white"/>
<path d="M13.3359 17.7765H16.8915C17.1272 17.7765 17.3533 17.6828 17.52 17.5161C17.6867 17.3494 17.7804 17.1233 17.7804 16.8876V13.332H13.3359V17.7765ZM14.447 14.4431H16.6693V16.6654H14.447V14.4431Z" fill="white"/>
<path d="M16.8915 2.22266H13.3359V6.6671H17.7804V3.11155C17.7804 2.8758 17.6867 2.6497 17.52 2.48301C17.3533 2.31631 17.1272 2.22266 16.8915 2.22266ZM16.6693 5.55599H14.447V3.33377H16.6693V5.55599Z" fill="white"/>
<path d="M11.1128 5.55642V4.44531H8.89062V6.66753H10.0017V5.55642H11.1128Z" fill="white"/>
<path d="M6.66406 6.66797H7.77517V7.77908H6.66406V6.66797Z" fill="white"/>
<path d="M7.78125 7.77734H10.0035V8.88845H7.78125V7.77734Z" fill="white"/>
<path d="M11.1146 3.33377V4.44488H12.2257V2.22266H7.78125V4.44488H8.89236V3.33377H11.1146Z" fill="white"/>
<path d="M2.21875 7.77734H3.32986V9.99957H2.21875V7.77734Z" fill="white"/>
<path d="M6.66319 8.88845V9.99957H5.55208V7.77734H4.44097V9.99957H3.32986V11.1107H2.21875V12.2218H4.44097V11.1107H5.55208V12.2218H6.66319V11.1107H7.77431V8.88845H6.66319Z" fill="white"/>
<path d="M11.1111 8.88802H12.2222V9.99913H13.3333V8.88802H14.4444V7.77691H12.2222V5.55469H11.1111V6.6658H10V7.77691H11.1111V8.88802Z" fill="white"/>
<path d="M10.0035 16.6658H7.78125V17.7769H12.2257V16.6658H11.1146V15.5547H10.0035V16.6658Z" fill="white"/>
<path d="M12.224 11.1128V10.0017H11.1128V8.89062H10.0017V10.0017H8.89062V11.1128H10.0017V12.224H11.1128V11.1128H12.224Z" fill="white"/>
<path d="M16.6641 11.1094H17.7752V12.2205H16.6641V11.1094Z" fill="white"/>
<path d="M12.2188 11.1094H15.5521V12.2205H12.2188V11.1094Z" fill="white"/>
<path d="M16.6675 7.77734H15.5564V8.88845H14.4453V9.99957H15.5564V11.1107H16.6675V9.99957H17.7786V8.88845H16.6675V7.77734Z" fill="white"/>
<path d="M11.1094 12.2227H12.2205V15.556H11.1094V12.2227Z" fill="white"/>
<path d="M7.78125 15.5538H8.89236V14.4427H10.0035V13.3316H8.89236V11.1094H7.78125V15.5538Z" fill="white"/>
</g>
<defs>
<clipPath id="clip0_4557_36734">
<rect width="20" height="20" fill="white"/>
</clipPath>
</defs>
</svg>
