<svg width="24" height="24" viewBox="0 0 24 24" fill="none" xmlns="http://www.w3.org/2000/svg">
<path d="M21.3654 20.234L16.5938 15.4624C17.7237 14.082 18.4038 12.32 18.4038 10.4019C18.4038 5.9896 14.8142 2.3999 10.4019 2.3999C5.98967 2.3999 2.40001 5.9896 2.40001 10.4019C2.40001 14.8142 5.98967 18.4039 10.4019 18.4039C12.3208 18.4039 14.0828 17.7237 15.4623 16.5939L20.2339 21.3654C20.3899 21.5215 20.5948 21.5999 20.7996 21.5999C21.0045 21.5999 21.2093 21.5215 21.3654 21.3654C21.6782 21.0526 21.6782 20.5468 21.3654 20.234ZM4.00039 10.4019C4.00039 6.87222 6.87228 4.0003 10.4019 4.0003C13.9316 4.0003 16.8035 6.87222 16.8035 10.4019C16.8035 13.9316 13.9316 16.8035 10.4019 16.8035C6.87228 16.8035 4.00039 13.9316 4.00039 10.4019ZM11.5974 13.998C11.5974 14.6606 11.0597 15.1983 10.3971 15.1983C9.73457 15.1983 9.19684 14.6606 9.19684 13.998C9.19684 13.3354 9.73457 12.7977 10.3971 12.7977C11.0597 12.7977 11.5974 13.3354 11.5974 13.998ZM12.7977 7.9965C12.7977 8.89673 12.3008 9.71373 11.5006 10.129C11.3614 10.2011 11.2573 10.3587 11.2165 10.5595C11.2037 10.6188 11.1981 10.6796 11.1981 10.7412V11.1981C11.1981 11.6398 10.8404 11.9983 10.3979 11.9983C9.95542 11.9983 9.59773 11.6398 9.59773 11.1981V10.7412C9.59773 10.5707 9.61454 10.4003 9.64975 10.2347C9.78898 9.56089 10.1955 9.00395 10.7644 8.70868C11.0325 8.57025 11.1981 8.29738 11.1981 7.9973C11.1981 7.55639 10.8396 7.1971 10.3979 7.1971C9.95622 7.1971 9.59773 7.55639 9.59773 7.9973C9.59773 8.43821 9.24005 8.7975 8.79754 8.7975C8.35504 8.7975 7.99735 8.43901 7.99735 7.9973C7.99735 6.67377 9.07441 5.5967 10.3979 5.5967C11.7214 5.5967 12.7985 6.67377 12.7985 7.9973L12.7977 7.9965Z" fill="#0085FE"/>
</svg>
