<svg width="17" height="17" viewBox="0 0 17 17" fill="none" xmlns="http://www.w3.org/2000/svg">
<path d="M13 3.31934H4C3.46957 3.31934 2.96086 3.53005 2.58579 3.90512C2.21071 4.2802 2 4.7889 2 5.31934V10.3193C2 10.8498 2.21071 11.3585 2.58579 11.7335C2.96086 12.1086 3.46957 12.3193 4 12.3193H9.5L12.5 14.3193V12.3193H13C13.5304 12.3193 14.0391 12.1086 14.4142 11.7335C14.7893 11.3585 15 10.8498 15 10.3193V5.31934C15 4.7889 14.7893 4.2802 14.4142 3.90512C14.0391 3.53005 13.5304 3.31934 13 3.31934Z" stroke="#191A33" stroke-linecap="round" stroke-linejoin="round"/>
<path d="M5.5 8.31934C5.5 8.45194 5.44732 8.57912 5.35355 8.67289C5.25979 8.76666 5.13261 8.81934 5 8.81934C4.86739 8.81934 4.74021 8.76666 4.64645 8.67289C4.55268 8.57912 4.5 8.45194 4.5 8.31934C4.5 8.18673 4.55268 8.05955 4.64645 7.96578C4.74021 7.87201 4.86739 7.81934 5 7.81934C5.13261 7.81934 5.25979 7.87201 5.35355 7.96578C5.44732 8.05955 5.5 8.18673 5.5 8.31934ZM8.5 8.31934C8.5 8.45194 8.44732 8.57912 8.35355 8.67289C8.25979 8.76666 8.13261 8.81934 8 8.81934C7.86739 8.81934 7.74021 8.76666 7.64645 8.67289C7.55268 8.57912 7.5 8.45194 7.5 8.31934C7.5 8.18673 7.55268 8.05955 7.64645 7.96578C7.74021 7.87201 7.86739 7.81934 8 7.81934C8.13261 7.81934 8.25979 7.87201 8.35355 7.96578C8.44732 8.05955 8.5 8.18673 8.5 8.31934ZM11.5 8.31934C11.5 8.45194 11.4473 8.57912 11.3536 8.67289C11.2598 8.76666 11.1326 8.81934 11 8.81934C10.8674 8.81934 10.7402 8.76666 10.6464 8.67289C10.5527 8.57912 10.5 8.45194 10.5 8.31934C10.5 8.18673 10.5527 8.05955 10.6464 7.96578C10.7402 7.87201 10.8674 7.81934 11 7.81934C11.1326 7.81934 11.2598 7.87201 11.3536 7.96578C11.4473 8.05955 11.5 8.18673 11.5 8.31934Z" stroke="#191A33" stroke-linecap="round" stroke-linejoin="round"/>
</svg>
