<svg width="30" height="30" viewBox="0 0 30 30" fill="none" xmlns="http://www.w3.org/2000/svg">
<path d="M4.375 12.6748C3.77778 12.6748 3.29983 13.1559 3.2998 13.7412V24.9385C3.2998 25.5238 3.77776 26.0049 4.375 26.0049H8.02148V12.6748H4.375Z" stroke="white" stroke-width="1.6"/>
<path d="M20 11.25H24.375C26.1009 11.25 27.5 12.6491 27.5 14.375C27.5 15.5483 26.8533 16.5707 25.897 17.105" stroke="white" stroke-width="1.6" stroke-linecap="round"/>
<path d="M24.375 22.5C25.8014 22.2105 26.875 20.8869 26.875 19.375C26.875 18.5009 26.5161 17.7107 25.9375 17.1436" stroke="white" stroke-width="1.6" stroke-linecap="round"/>
<path d="M8 13.1911C8 12.6964 9.09946 10.7254 9.375 10.3161L14.4613 3.39589C14.6773 3.07505 15.1296 3.03178 15.4016 3.30595L16.3885 4.30077C17.3448 5.26486 17.6989 6.68045 17.3102 7.98638L16.2255 11.25H21.25M8.5 26H23C23.6768 26 24.2255 25.4469 24.2255 24.7646L24.375 22.5438" stroke="white" stroke-width="1.6"/>
</svg>
