<svg width="30" height="30" viewBox="0 0 30 30" fill="none" xmlns="http://www.w3.org/2000/svg">
<path d="M7.5 12.5H5C3.96447 12.5 3.125 13.3395 3.125 14.375V25C3.125 26.0355 3.96447 26.875 5 26.875H7.5V12.5Z" fill="white"/>
<path d="M9.375 11.25H22.6293C24.3552 11.25 25.7543 12.6491 25.7543 14.375V25.625C25.7543 26.3154 25.1947 26.875 24.5043 26.875H10.625C9.93464 26.875 9.375 26.3154 9.375 25.625V11.25Z" fill="white"/>
<path d="M17.2371 14.0625C17.2371 12.5092 18.4963 11.25 20.0496 11.25H25.5625C27.1158 11.25 28.375 12.5092 28.375 14.0625V14.0625C28.375 15.6158 27.1158 16.875 25.5625 16.875H20.0496C18.4963 16.875 17.2371 15.6158 17.2371 14.0625V14.0625Z" fill="white"/>
<rect x="16.5819" y="16.875" width="11.1379" height="5.625" rx="2.8125" fill="white"/>
<path d="M15.1807 3.0882L9.375 11.25L16.9095 11.875L18.1747 7.85199C18.6034 6.48863 18.2199 5.0001 17.1858 4.0136L16.1214 2.99824C15.8459 2.73543 15.4014 2.77793 15.1807 3.0882Z" fill="white"/>
</svg>
