<svg width="20" height="20" viewBox="0 0 20 20" fill="none" xmlns="http://www.w3.org/2000/svg">
<path d="M3.6001 18V3.6C3.6001 3.4758 3.62901 3.35331 3.68456 3.24223C3.7401 3.13114 3.82074 3.03452 3.9201 2.96C4.75096 2.33685 5.76152 2 6.8001 2C9.2001 2 10.8001 3.6 12.6665 3.6C13.7332 3.6 14.551 3.38667 15.1201 2.96C15.239 2.87086 15.3803 2.81657 15.5283 2.80323C15.6762 2.78989 15.825 2.81802 15.9579 2.88446C16.0908 2.9509 16.2025 3.05303 16.2806 3.17942C16.3587 3.3058 16.4001 3.45143 16.4001 3.6V11.6C16.4001 11.7242 16.3712 11.8467 16.3156 11.9578C16.2601 12.0689 16.1795 12.1655 16.0801 12.24C15.2492 12.8631 14.2387 13.2 13.2001 13.2C10.8001 13.2 9.2001 11.6 6.8001 11.6C5.61939 11.6 4.48012 12.0352 3.6001 12.8224" stroke="#505050" stroke-width="1.5" stroke-linecap="round" stroke-linejoin="round"/>
</svg>
