<svg width="11" height="11" viewBox="0 0 11 11" fill="none" xmlns="http://www.w3.org/2000/svg">
<path d="M10.0397 7.54028L9.01419 8.49449C8.80038 8.7083 8.49947 8.83104 8.18272 8.83104C7.86597 8.83104 7.56902 8.7083 7.34333 8.48262L6.32973 7.53632C6.17136 7.38587 6.15948 7.13643 6.30993 6.97805C6.46039 6.81968 6.70983 6.81176 6.86821 6.95826L7.78678 7.81348V4.47969C7.78678 3.82639 7.25226 3.29188 6.59897 3.29188H5.01522C4.79745 3.29188 4.61928 3.1137 4.61928 2.89594C4.61928 2.67817 4.79745 2.5 5.01522 2.5H6.59897C7.69176 2.5 8.57866 3.3869 8.57866 4.47969V7.81744L9.49723 6.96222C9.65561 6.81176 9.90901 6.82364 10.0555 6.98201C10.206 7.14039 10.1941 7.39379 10.0357 7.54028H10.0397ZM5.81105 8.04313H4.2273C3.57401 8.04313 3.03949 7.50861 3.03949 6.85531V3.51756L3.95806 4.37278C4.03329 4.44405 4.13228 4.47969 4.2273 4.47969C4.33421 4.47969 4.43715 4.43613 4.51634 4.35299C4.66679 4.19461 4.65491 3.94121 4.49654 3.79472L3.48294 2.84843C3.03553 2.40102 2.24366 2.40893 1.81208 2.84051L0.790565 3.79472C0.63219 3.94517 0.620312 4.19461 0.770768 4.35299C0.921225 4.51532 1.17067 4.52324 1.32904 4.37278L2.24762 3.51756V6.85531C2.24762 7.9481 3.13451 8.835 4.2273 8.835H5.81105C6.02882 8.835 6.20699 8.65683 6.20699 8.43906C6.20699 8.2213 6.02882 8.04313 5.81105 8.04313Z" fill="#505050"/>
</svg>
