<svg width="16" height="14" viewBox="0 0 16 14" fill="none" xmlns="http://www.w3.org/2000/svg">
<path d="M13.0962 1H3.40385C2.83261 1 2.28477 1.22692 1.88085 1.63085C1.47692 2.03477 1.25 2.58261 1.25 3.15385V8.53846C1.25 9.1097 1.47692 9.65754 1.88085 10.0615C2.28477 10.4654 2.83261 10.6923 3.40385 10.6923H9.32692L12.5577 12.8462V10.6923H13.0962C13.6674 10.6923 14.2152 10.4654 14.6192 10.0615C15.0231 9.65754 15.25 9.1097 15.25 8.53846V3.15385C15.25 2.58261 15.0231 2.03477 14.6192 1.63085C14.2152 1.22692 13.6674 1 13.0962 1Z" stroke="#0085FE" stroke-width="1.2" stroke-linecap="round" stroke-linejoin="round"/>
<path d="M5.55764 6.38416C5.55764 6.52697 5.50091 6.66393 5.39992 6.76491C5.29894 6.8659 5.16198 6.92263 5.01917 6.92263C4.87637 6.92263 4.73941 6.8659 4.63842 6.76491C4.53744 6.66393 4.48071 6.52697 4.48071 6.38416C4.48071 6.24136 4.53744 6.1044 4.63842 6.00341C4.73941 5.90243 4.87637 5.8457 5.01917 5.8457C5.16198 5.8457 5.29894 5.90243 5.39992 6.00341C5.50091 6.1044 5.55764 6.24136 5.55764 6.38416ZM8.78841 6.38416C8.78841 6.52697 8.73167 6.66393 8.63069 6.76491C8.52971 6.8659 8.39275 6.92263 8.24994 6.92263C8.10713 6.92263 7.97018 6.8659 7.86919 6.76491C7.76821 6.66393 7.71148 6.52697 7.71148 6.38416C7.71148 6.24136 7.76821 6.1044 7.86919 6.00341C7.97018 5.90243 8.10713 5.8457 8.24994 5.8457C8.39275 5.8457 8.52971 5.90243 8.63069 6.00341C8.73167 6.1044 8.78841 6.24136 8.78841 6.38416ZM12.0192 6.38416C12.0192 6.52697 11.9624 6.66393 11.8615 6.76491C11.7605 6.8659 11.6235 6.92263 11.4807 6.92263C11.3379 6.92263 11.2009 6.8659 11.1 6.76491C10.999 6.66393 10.9423 6.52697 10.9423 6.38416C10.9423 6.24136 10.999 6.1044 11.1 6.00341C11.2009 5.90243 11.3379 5.8457 11.4807 5.8457C11.6235 5.8457 11.7605 5.90243 11.8615 6.00341C11.9624 6.1044 12.0192 6.24136 12.0192 6.38416Z" stroke="#0085FE" stroke-width="1.2" stroke-linecap="round" stroke-linejoin="round"/>
</svg>
