<svg width="24" height="24" viewBox="0 0 24 24" fill="none" xmlns="http://www.w3.org/2000/svg">
<path d="M12 6.75C12.4973 6.75 12.9742 6.55246 13.3258 6.20083C13.6775 5.84919 13.875 5.37228 13.875 4.875C13.875 4.37772 13.6775 3.90081 13.3258 3.54917C12.9742 3.19754 12.4973 3 12 3C11.5027 3 11.0258 3.19754 10.6742 3.54917C10.3225 3.90081 10.125 4.37772 10.125 4.875C10.125 5.37228 10.3225 5.84919 10.6742 6.20083C11.0258 6.55246 11.5027 6.75 12 6.75Z" fill="#414042"/>
<path d="M12 6.75C12.8955 6.75 13.695 7.323 13.98 8.1735L14.1105 8.5635C14.1275 8.61339 14.1323 8.66662 14.1245 8.71875C14.1168 8.77088 14.0966 8.82038 14.0658 8.86312C14.0349 8.90586 13.9943 8.94059 13.9473 8.96441C13.9002 8.98822 13.8482 9.00043 13.7955 9H10.2105C10.158 8.99976 10.1063 8.98713 10.0597 8.96312C10.013 8.93912 9.97268 8.90443 9.94198 8.86187C9.91127 8.81932 9.89105 8.77011 9.88297 8.71826C9.8749 8.66641 9.87919 8.61338 9.8955 8.5635L10.026 8.1735C10.1649 7.75843 10.4308 7.39759 10.7862 7.1421C11.1416 6.88661 11.5683 6.74943 12.006 6.75H12ZM7.5 12.75C7.5 12.5511 7.57902 12.3603 7.71967 12.2197C7.86032 12.079 8.05109 12 8.25 12H15.75C15.9489 12 16.1397 12.079 16.2803 12.2197C16.421 12.3603 16.5 12.5511 16.5 12.75C16.5 12.9489 16.421 13.1397 16.2803 13.2803C16.1397 13.421 15.9489 13.5 15.75 13.5H8.25C8.05109 13.5 7.86032 13.421 7.71967 13.2803C7.57902 13.1397 7.5 12.9489 7.5 12.75ZM7.5 15.75C7.5 15.5511 7.57902 15.3603 7.71967 15.2197C7.86032 15.079 8.05109 15 8.25 15H15.75C15.9489 15 16.1397 15.079 16.2803 15.2197C16.421 15.3603 16.5 15.5511 16.5 15.75C16.5 15.9489 16.421 16.1397 16.2803 16.2803C16.1397 16.421 15.9489 16.5 15.75 16.5H8.25C8.05109 16.5 7.86032 16.421 7.71967 16.2803C7.57902 16.1397 7.5 15.9489 7.5 15.75ZM8.25 18C8.05109 18 7.86032 18.079 7.71967 18.2197C7.57902 18.3603 7.5 18.5511 7.5 18.75C7.5 18.9489 7.57902 19.1397 7.71967 19.2803C7.86032 19.421 8.05109 19.5 8.25 19.5H11.25C11.4489 19.5 11.6397 19.421 11.7803 19.2803C11.921 19.1397 12 18.9489 12 18.75C12 18.5511 11.921 18.3603 11.7803 18.2197C11.6397 18.079 11.4489 18 11.25 18H8.25Z" fill="#414042"/>
<path fill-rule="evenodd" clip-rule="evenodd" d="M3.49489 2.45941C3.00439 3.42241 3.00439 4.67941 3.00439 7.19941V16.7994C3.00439 19.3194 3.00439 20.5794 3.49489 21.5394C3.92785 22.3841 4.6152 23.0714 5.45989 23.5044C6.42289 23.9949 7.67989 23.9949 10.1999 23.9949H13.7999C16.3199 23.9949 17.5799 23.9949 18.5399 23.5044C19.3858 23.0731 20.0736 22.3853 20.5049 21.5394C20.9954 20.5764 20.9954 19.3194 20.9954 16.7994V7.19941C20.9954 4.67941 20.9954 3.41941 20.5049 2.45941C20.0736 1.6135 19.3858 0.925694 18.5399 0.494406C17.5769 0.00390629 16.3199 0.00390625 13.7999 0.00390625H10.1999C7.67989 0.00390625 6.41989 0.00390629 5.45989 0.494406C4.6152 0.927364 3.92785 1.61472 3.49489 2.45941ZM13.7999 1.50241H10.1999C8.91439 1.50241 8.03989 1.50241 7.36489 1.55941C6.70789 1.61191 6.37039 1.70941 6.13639 1.82941C5.57193 2.11702 5.11301 2.57595 4.82539 3.14041C4.70539 3.37441 4.60789 3.71041 4.55539 4.36891C4.49989 5.04391 4.49839 5.91391 4.49839 7.20391V16.8039C4.49839 18.0894 4.49989 18.9639 4.55539 19.6389C4.60939 20.2959 4.70689 20.6334 4.82539 20.8674C5.11339 21.4314 5.57239 21.8904 6.13639 22.1784C6.37039 22.2984 6.70789 22.3959 7.36489 22.4484C8.03989 22.5024 8.90989 22.5039 10.1999 22.5039H13.7999C15.0854 22.5039 15.9599 22.5039 16.6349 22.4484C17.2919 22.3944 17.6294 22.2969 17.8634 22.1784C18.4274 21.8904 18.8864 21.4314 19.1744 20.8674C19.2944 20.6334 19.3919 20.2959 19.4444 19.6374C19.4999 18.9624 19.5014 18.0924 19.5014 16.8024V7.20241C19.5014 5.91841 19.4999 5.04241 19.4444 4.36741C19.3904 3.71191 19.2929 3.37441 19.1744 3.14041C18.8868 2.57595 18.4279 2.11702 17.8634 1.82941C17.6294 1.70941 17.2919 1.61191 16.6349 1.55941C15.9599 1.50391 15.0899 1.50241 13.7999 1.50241Z" fill="#414042"/>
</svg>
