<svg width="13" height="13" viewBox="0 0 13 13" fill="none" xmlns="http://www.w3.org/2000/svg">
<path d="M6.26269 6.57721L7.12274 7.10045C7.1969 7.14714 7.2714 7.14336 7.34625 7.08912C7.42075 7.03453 7.44856 6.9614 7.42968 6.86973L7.20153 5.89792L7.95858 5.24748C8.03068 5.18327 8.053 5.10911 8.02553 5.025C7.99806 4.94088 7.93729 4.89453 7.84322 4.88595L6.84618 4.79582L6.45478 3.87861C6.41839 3.79518 6.35436 3.75346 6.26269 3.75346C6.17102 3.75346 6.10698 3.79518 6.07059 3.87861L5.67919 4.79531L4.68215 4.88595C4.58842 4.89453 4.52765 4.94088 4.49984 5.025C4.47203 5.10911 4.49435 5.18327 4.56679 5.24748L5.32384 5.89792L5.09621 6.86921C5.07698 6.96122 5.10462 7.03453 5.17913 7.08912C5.25363 7.14371 5.3283 7.14748 5.40315 7.10045L6.26269 6.57721ZM3.21234 9.0662L2.33478 9.94376C2.20466 10.0739 2.05428 10.1038 1.88364 10.0334C1.713 9.96299 1.62769 9.8351 1.62769 9.6497V2.68844C1.62769 2.4512 1.70717 2.25327 1.86613 2.09465C2.02509 1.93603 2.22303 1.85654 2.45993 1.8562H10.066C10.3029 1.8562 10.5008 1.93568 10.6598 2.09465C10.8187 2.25361 10.898 2.45154 10.8977 2.68844V8.23448C10.8977 8.47138 10.8184 8.66931 10.6598 8.82827C10.5011 8.98723 10.3032 9.06654 10.066 9.0662H3.21234ZM2.99244 8.5512H10.066C10.1449 8.5512 10.2175 8.51824 10.2838 8.45232C10.3501 8.3864 10.383 8.31379 10.3827 8.23448V2.68793C10.3827 2.60896 10.3497 2.53634 10.2838 2.47008C10.2179 2.40382 10.1453 2.37086 10.066 2.3712H2.45941C2.38044 2.3712 2.30783 2.40416 2.24157 2.47008C2.1753 2.536 2.14234 2.60862 2.14269 2.68793V9.39838L2.99244 8.5512Z" fill="#191A33"/>
<path d="M2.14269 8.5512V2.3712M6.26269 6.57721L7.12274 7.10045C7.1969 7.14714 7.2714 7.14336 7.34625 7.08912C7.42075 7.03453 7.44856 6.9614 7.42968 6.86973L7.20153 5.89792L7.95858 5.24748C8.03068 5.18327 8.053 5.10911 8.02553 5.025C7.99806 4.94088 7.93729 4.89453 7.84322 4.88595L6.84618 4.79582L6.45478 3.87861C6.41839 3.79518 6.35436 3.75346 6.26269 3.75346C6.17102 3.75346 6.10698 3.79518 6.07059 3.87861L5.67919 4.79531L4.68215 4.88595C4.58842 4.89453 4.52765 4.94088 4.49984 5.025C4.47203 5.10911 4.49435 5.18327 4.56679 5.24748L5.32384 5.89792L5.09621 6.86921C5.07698 6.96122 5.10462 7.03453 5.17913 7.08912C5.25363 7.14371 5.3283 7.14748 5.40315 7.10045L6.26269 6.57721ZM3.21234 9.0662L2.33478 9.94376C2.20466 10.0739 2.05428 10.1038 1.88364 10.0334C1.713 9.96299 1.62769 9.8351 1.62769 9.6497V2.68844C1.62769 2.4512 1.70717 2.25327 1.86613 2.09465C2.02509 1.93603 2.22303 1.85654 2.45993 1.8562H10.066C10.3029 1.8562 10.5008 1.93568 10.6598 2.09465C10.8187 2.25361 10.898 2.45154 10.8977 2.68844V8.23448C10.8977 8.47138 10.8184 8.66931 10.6598 8.82827C10.5011 8.98723 10.3032 9.06654 10.066 9.0662H3.21234ZM2.99244 8.5512H10.066C10.1449 8.5512 10.2175 8.51824 10.2838 8.45232C10.3501 8.3864 10.383 8.31379 10.3827 8.23448V2.68793C10.3827 2.60896 10.3497 2.53634 10.2838 2.47008C10.2179 2.40382 10.1453 2.37086 10.066 2.3712H2.45941C2.38044 2.3712 2.30783 2.40416 2.24157 2.47008C2.1753 2.536 2.14234 2.60862 2.14269 2.68793V9.39838L2.99244 8.5512Z" stroke="#191A33" stroke-width="0.2"/>
</svg>
