<svg width="31" height="30" viewBox="0 0 31 30" fill="none" xmlns="http://www.w3.org/2000/svg">
<rect x="0.0830078" width="30" height="30" rx="15" fill="#090707" fill-opacity="0.8"/>
<path d="M15.082 20.3752H20.707" stroke="white" stroke-width="1.125" stroke-linecap="round" stroke-linejoin="round"/>
<path d="M17.8174 10.1386C18.0662 9.88978 18.4036 9.75 18.7555 9.75C19.1074 9.75 19.4448 9.88978 19.6936 10.1386C19.9424 10.3874 20.0822 10.7248 20.0822 11.0767C20.0822 11.4286 19.9424 11.766 19.6936 12.0148L12.1874 19.5217C12.0387 19.6704 11.8549 19.7792 11.653 19.838L9.85801 20.3617C9.80423 20.3774 9.74722 20.3783 9.69295 20.3644C9.63868 20.3505 9.58915 20.3223 9.54954 20.2827C9.50992 20.2431 9.48169 20.1935 9.46778 20.1393C9.45388 20.085 9.45482 20.028 9.47051 19.9742L9.99426 18.1792C10.0531 17.9775 10.1619 17.794 10.3105 17.6455L17.8174 10.1386Z" stroke="white" stroke-width="1.125" stroke-linecap="round" stroke-linejoin="round"/>
<path d="M16.957 11.0002L18.832 12.8752" stroke="white" stroke-width="1.125" stroke-linecap="round" stroke-linejoin="round"/>
</svg>
