<svg width="38" height="39" viewBox="0 0 38 39" fill="none" xmlns="http://www.w3.org/2000/svg">
<path d="M18.9976 1.80664C19.8719 1.80665 20.8894 2.47718 21.7241 4.15527V4.15625L24.9487 10.6055V10.6064C25.2136 11.1472 25.6801 11.6451 26.1968 12.0264C26.6492 12.3602 27.1754 12.6294 27.6968 12.7578L27.9194 12.8047L33.7681 13.7764C35.5515 14.0737 36.4813 14.8386 36.7495 15.6729C37.0172 16.5061 36.7072 17.6653 35.4224 18.9414L30.8745 23.4893C30.4146 23.9492 30.0817 24.5959 29.8931 25.2549C29.7044 25.914 29.6449 26.6379 29.7866 27.2705L29.7876 27.2734L31.0894 32.9023C31.5928 35.0873 31.2019 36.3467 30.5054 36.8545C29.808 37.3629 28.485 37.3511 26.5513 36.209L21.0688 32.9639C20.478 32.614 19.7287 32.4541 19.0063 32.4541C18.2833 32.4542 17.5311 32.614 16.9331 32.9619L16.9302 32.9639L11.4487 36.209L11.4478 36.21C9.52569 37.3505 8.20195 37.3588 7.50146 36.8477C6.80136 36.3368 6.40771 35.0758 6.91064 32.9023L8.2124 27.2734V27.2705C8.35419 26.6379 8.29557 25.914 8.10693 25.2549C7.9183 24.5959 7.58533 23.9492 7.12549 23.4893L2.57861 18.9424C1.30242 17.6662 0.990996 16.5063 1.25732 15.6719C1.50699 14.89 2.33569 14.1688 3.90771 13.8369L4.23193 13.7764L10.0806 12.8047L10.0815 12.8037C10.6654 12.7046 11.2738 12.4063 11.7876 12.0254C12.3005 11.6451 12.7648 11.1479 13.0298 10.6084L13.0308 10.6094L16.2573 4.15625L16.2563 4.15527C17.1001 2.47752 18.1225 1.80664 18.9976 1.80664Z" fill="#F5F5F5" stroke="#999999" stroke-linecap="round" stroke-linejoin="round"/>
<path d="M14.671 18.6174C15.3587 18.6174 15.9162 18.0599 15.9162 17.3722C15.9162 16.6844 15.3587 16.127 14.671 16.127C13.9834 16.127 13.4259 16.6844 13.4259 17.3722C13.4259 18.0599 13.9834 18.6174 14.671 18.6174Z" fill="#999999"/>
<path d="M23.3879 18.6174C24.0756 18.6174 24.6331 18.0599 24.6331 17.3722C24.6331 16.6844 24.0756 16.127 23.3879 16.127C22.7002 16.127 22.1427 16.6844 22.1427 17.3722C22.1427 18.0599 22.7002 18.6174 23.3879 18.6174Z" fill="#999999"/>
<path d="M14.0233 26.311C14.0286 26.2878 14.03 26.279 14.0321 26.2674L14.0381 26.2354L14.049 26.1772C14.0564 26.1394 14.0645 26.1044 14.0722 26.0687C14.0886 25.9992 14.1083 25.9313 14.1283 25.8643C14.1696 25.7326 14.2184 25.6034 14.2743 25.4772C14.3868 25.2256 14.5251 24.9864 14.6869 24.7633C15.017 24.3133 15.4293 23.9299 15.9019 23.6331C16.1363 23.4867 16.382 23.3593 16.6367 23.252C16.8872 23.148 17.1452 23.0628 17.4083 22.9971C17.9173 22.8708 18.4397 22.8067 18.9641 22.8061C19.4816 22.8004 19.998 22.8544 20.5032 22.9669L20.6965 23.0133C20.7607 23.0286 20.8249 23.0497 20.8891 23.0678C21.0173 23.103 21.1441 23.1496 21.2711 23.195C21.5264 23.2905 21.7738 23.4061 22.0107 23.5408C22.2508 23.6771 22.4787 23.8338 22.6917 24.0093C22.905 24.1865 23.1009 24.3835 23.2768 24.5978C23.4521 24.8118 23.6042 25.0439 23.7304 25.2902C23.7941 25.414 23.8502 25.5417 23.8984 25.6724C23.9216 25.7387 23.9448 25.8061 23.9652 25.8761C23.9751 25.912 23.9849 25.9457 23.9944 25.9848L24.0081 26.0435L24.0155 26.0759C24.0185 26.0884 24.0199 26.0961 24.0268 26.1207C24.0603 26.2081 24.0759 26.3014 24.0726 26.395C24.0693 26.4886 24.0473 26.5806 24.0079 26.6656C23.9684 26.7505 23.9123 26.8267 23.8429 26.8895C23.7735 26.9524 23.6922 27.0007 23.6037 27.0316C23.5153 27.0625 23.4216 27.0753 23.3281 27.0693C23.2347 27.0633 23.1434 27.0386 23.0596 26.9966C22.9759 26.9547 22.9014 26.8964 22.8406 26.8252C22.7798 26.7539 22.7339 26.6712 22.7056 26.5819C22.7077 26.5935 22.7042 26.5884 22.7022 26.5882C22.7001 26.5879 22.6971 26.5847 22.694 26.5824C22.691 26.5801 22.6825 26.5719 22.6755 26.565L22.6354 26.5242C22.6069 26.4952 22.5784 26.4653 22.548 26.4359C22.4891 26.3763 22.4247 26.3181 22.361 26.2616C22.2333 26.1496 22.098 26.0466 21.9563 25.9531C21.8171 25.8607 21.6721 25.7776 21.5221 25.7041C21.3721 25.6319 21.2182 25.5679 21.0611 25.5124L20.9424 25.4719L20.821 25.4359C20.7816 25.4225 20.7396 25.4128 20.6983 25.4021C20.6571 25.3914 20.6172 25.3789 20.5748 25.3708C20.4907 25.353 20.4081 25.3323 20.3217 25.3184C20.2788 25.3108 20.2371 25.3015 20.1935 25.2953L20.063 25.276C19.7027 25.2264 19.3392 25.2032 18.9755 25.2065C18.2363 25.21 17.5497 25.3103 16.9422 25.5542C16.6357 25.6774 16.3465 25.8398 16.0818 26.0374C15.9453 26.1403 15.8157 26.252 15.6938 26.3717C15.6333 26.4326 15.5721 26.495 15.5153 26.559L15.4726 26.6067L15.4319 26.6531L15.3931 26.6976C15.3864 26.705 15.3806 26.7108 15.3751 26.7166C15.3728 26.7193 15.3701 26.7216 15.3672 26.7235C15.3649 26.7235 15.3616 26.7291 15.363 26.7191C15.3089 26.8968 15.1865 27.0456 15.0227 27.133C14.8589 27.2204 14.667 27.2391 14.4894 27.185C14.3118 27.131 14.1629 27.0085 14.0755 26.8447C13.9881 26.6809 13.9694 26.489 14.0235 26.3114L14.0233 26.311Z" fill="#999999"/>
</svg>
