<svg width="25" height="24" viewBox="0 0 25 24" fill="none" xmlns="http://www.w3.org/2000/svg">
<path d="M3.95107 22V4.08516C3.95107 3.49075 4.18256 2.99484 4.64556 2.59742C5.10856 2.2 5.68507 2.00086 6.37506 2H19.5286C20.2186 2 20.7951 2.19914 21.2581 2.59742C21.7211 2.9957 21.9521 3.49161 21.9511 4.08516V22L12.9511 18.6748L3.95107 22ZM5.45106 20L12.9511 17.2258L20.4511 20V4.08516C20.4511 3.88645 20.3551 3.70409 20.1631 3.53806C19.9711 3.37204 19.7591 3.28946 19.5271 3.29032H6.37506C6.14406 3.29032 5.93206 3.3729 5.73906 3.53806C5.54606 3.70323 5.45006 3.88559 5.45106 4.08516V20Z" fill="#505050"/>
<path d="M5.45106 3.29032H20.4511M3.95107 22V4.08516C3.95107 3.49075 4.18256 2.99484 4.64556 2.59742C5.10856 2.2 5.68507 2.00086 6.37506 2H19.5286C20.2186 2 20.7951 2.19914 21.2581 2.59742C21.7211 2.9957 21.9521 3.49161 21.9511 4.08516V22L12.9511 18.6748L3.95107 22ZM5.45106 20L12.9511 17.2258L20.4511 20V4.08516C20.4511 3.88645 20.3551 3.70409 20.1631 3.53806C19.9711 3.37204 19.7591 3.28946 19.5271 3.29032H6.37506C6.14406 3.29032 5.93206 3.3729 5.73906 3.53806C5.54606 3.70323 5.45006 3.88559 5.45106 4.08516V20Z" stroke="#505050" stroke-width="0.5"/>
</svg>
