<svg width="20" height="20" viewBox="0 0 20 20" fill="none" xmlns="http://www.w3.org/2000/svg">
<path d="M3 18V3.66813C3 3.1926 3.18006 2.79587 3.54017 2.47794C3.90028 2.16 4.34867 2.00069 4.88533 2H15.1158C15.6525 2 16.1009 2.15931 16.461 2.47794C16.8211 2.79656 17.0008 3.19329 17 3.66813V18L10 15.3399L3 18ZM4.16667 16.4L10 14.1806L15.8333 16.4V3.66813C15.8333 3.50916 15.7587 3.36327 15.6093 3.23045C15.46 3.09763 15.2951 3.03157 15.1147 3.03226H4.88533C4.70567 3.03226 4.54078 3.09832 4.39067 3.23045C4.24056 3.36258 4.16589 3.50847 4.16667 3.66813V16.4Z" fill="#505050"/>
<path d="M4.16667 3.03226H15.8333M3 18V3.66813C3 3.1926 3.18006 2.79587 3.54017 2.47794C3.90028 2.16 4.34867 2.00069 4.88533 2H15.1158C15.6525 2 16.1009 2.15931 16.461 2.47794C16.8211 2.79656 17.0008 3.19329 17 3.66813V18L10 15.3399L3 18ZM4.16667 16.4L10 14.1806L15.8333 16.4V3.66813C15.8333 3.50916 15.7587 3.36327 15.6093 3.23045C15.46 3.09763 15.2951 3.03157 15.1147 3.03226H4.88533C4.70567 3.03226 4.54078 3.09832 4.39067 3.23045C4.24056 3.36258 4.16589 3.50847 4.16667 3.66813V16.4Z" stroke="#505050" stroke-width="0.5"/>
</svg>
