<svg width="30" height="30" viewBox="0 0 30 30" fill="none" xmlns="http://www.w3.org/2000/svg">
<path d="M26.25 26.25L20.8212 20.8212M20.8212 20.8212C21.7499 19.8926 22.4865 18.7902 22.989 17.5769C23.4916 16.3636 23.7503 15.0633 23.7503 13.75C23.7503 12.4367 23.4916 11.1364 22.989 9.92307C22.4865 8.70978 21.7499 7.60736 20.8212 6.67875C19.8926 5.75014 18.7902 5.01352 17.5769 4.51096C16.3636 4.0084 15.0633 3.74974 13.75 3.74974C12.4367 3.74974 11.1364 4.0084 9.92307 4.51096C8.70978 5.01352 7.60736 5.75014 6.67875 6.67875C4.80334 8.55416 3.74974 11.0978 3.74974 13.75C3.74974 16.4022 4.80334 18.9458 6.67875 20.8212C8.55416 22.6967 11.0978 23.7503 13.75 23.7503C16.4022 23.7503 18.9458 22.6967 20.8212 20.8212Z" stroke="#505050" stroke-width="2" stroke-linecap="round" stroke-linejoin="round"/>
</svg>
