<svg width="32" height="32" viewBox="0 0 32 32" fill="none" xmlns="http://www.w3.org/2000/svg">
<g clip-path="url(#clip0_787_6899)">
<path d="M29.8667 2.13333C29.8667 1.56754 29.6419 1.02492 29.2418 0.624839C28.8417 0.224761 28.2991 0 27.7333 0L2.13333 0C1.56754 0 1.02492 0.224761 0.624839 0.624839C0.224761 1.02492 0 1.56754 0 2.13333L0 21.3333C0 21.8991 0.224761 22.4418 0.624839 22.8418C1.02492 23.2419 1.56754 23.4667 2.13333 23.4667H16.0272C16.0155 23.6437 16 23.8197 16 24C15.997 25.3036 16.3127 26.5881 16.9195 27.7419C17.5262 28.8956 18.4058 29.8836 19.4815 30.6199C20.5572 31.3562 21.7966 31.8184 23.0918 31.9664C24.3869 32.1144 25.6986 31.9437 26.9127 31.469C28.1268 30.9944 29.2065 30.2303 30.058 29.2432C30.9094 28.256 31.5066 27.0758 31.7978 25.8052C32.089 24.5345 32.0653 23.212 31.7287 21.9526C31.3922 20.6932 30.7529 19.5352 29.8667 18.5792V2.13333ZM17.6149 19.2H1.06667V4.26667H28.8V17.6149C27.963 16.9808 27.0087 16.5186 25.9923 16.2549C24.9758 15.9913 23.9172 15.9314 22.8775 16.0787C21.8377 16.2261 20.8374 16.5777 19.9342 17.1134C19.0311 17.6491 18.2428 18.3583 17.6149 19.2ZM2.13333 1.06667H27.7333C28.0162 1.06667 28.2875 1.17905 28.4876 1.37909C28.6876 1.57912 28.8 1.85044 28.8 2.13333V3.2H1.06667V2.13333C1.06667 1.85044 1.17905 1.57912 1.37909 1.37909C1.57912 1.17905 1.85044 1.06667 2.13333 1.06667ZM2.13333 22.4C1.85044 22.4 1.57912 22.2876 1.37909 22.0876C1.17905 21.8875 1.06667 21.6162 1.06667 21.3333V20.2667H16.9296C16.5724 20.9373 16.3132 21.6558 16.16 22.4H2.13333ZM24 30.9333C22.6287 30.9333 21.2882 30.5267 20.148 29.7649C19.0079 29.003 18.1192 27.9202 17.5944 26.6533C17.0697 25.3864 16.9324 23.9923 17.1999 22.6474C17.4674 21.3024 18.1277 20.067 19.0974 19.0974C20.067 18.1278 21.3024 17.4674 22.6474 17.1999C23.9923 16.9324 25.3864 17.0697 26.6533 17.5944C27.9202 18.1192 29.003 19.0079 29.7649 20.148C30.5267 21.2882 30.9333 22.6287 30.9333 24C30.9312 25.8382 30.2001 27.6005 28.9003 28.9003C27.6005 30.2001 25.8382 30.9312 24 30.9333Z" fill="#303030"/>
<path d="M19.7333 11.7331C19.7354 11.4207 19.6625 11.1123 19.5207 10.8339C19.3789 10.5555 19.1723 10.3151 18.9184 10.1331L14.0965 6.73364C13.8283 6.54022 13.5115 6.4256 13.1816 6.4027C12.8518 6.3798 12.5221 6.44954 12.2298 6.60404C11.9156 6.76968 11.6533 7.01879 11.4716 7.32395C11.2899 7.62912 11.1959 7.9785 11.2 8.33364V15.1326C11.1959 15.4875 11.2897 15.8367 11.4712 16.1418C11.6527 16.4468 11.9149 16.6959 12.2288 16.8616C12.521 17.0165 12.8507 17.0864 13.1806 17.0635C13.5105 17.0406 13.8274 16.9258 14.0954 16.732L18.9184 13.3331C19.1723 13.1511 19.3789 12.9108 19.5207 12.6323C19.6625 12.3539 19.7354 12.0456 19.7333 11.7331ZM18.3034 12.4606L13.4821 15.86C13.3731 15.9401 13.2436 15.9876 13.1087 15.997C12.9738 16.0064 12.839 15.9774 12.72 15.9134C12.5792 15.8383 12.4622 15.7255 12.3821 15.5875C12.3021 15.4496 12.262 15.292 12.2666 15.1326V8.33364C12.2617 8.17394 12.3016 8.01605 12.3817 7.87779C12.4618 7.73954 12.579 7.62644 12.72 7.55124C12.839 7.48711 12.9738 7.45808 13.1087 7.46752C13.2437 7.47696 13.3731 7.52449 13.4821 7.60458L18.3034 11.004C18.4162 11.0889 18.5077 11.1988 18.5707 11.325C18.6337 11.4513 18.6664 11.5904 18.6664 11.7315C18.6664 11.8726 18.6337 12.0118 18.5707 12.138C18.5077 12.2643 18.4162 12.3741 18.3034 12.459V12.4606Z" fill="#303030"/>
<path d="M24.377 19.3563C24.277 19.2564 24.1414 19.2002 24 19.2002C23.8585 19.2002 23.7229 19.2564 23.6229 19.3563L21.4896 21.4897C21.3924 21.5903 21.3386 21.725 21.3399 21.8648C21.3411 22.0047 21.3972 22.1384 21.4961 22.2373C21.5949 22.3362 21.7287 22.3923 21.8685 22.3935C22.0084 22.3947 22.1431 22.341 22.2437 22.2438L23.4666 21.0209V28.2667C23.4666 28.4082 23.5228 28.5439 23.6228 28.6439C23.7229 28.7439 23.8585 28.8001 24 28.8001C24.1414 28.8001 24.2771 28.7439 24.3771 28.6439C24.4771 28.5439 24.5333 28.4082 24.5333 28.2667V21.0209L25.7562 22.2438C25.8568 22.341 25.9915 22.3947 26.1314 22.3935C26.2712 22.3923 26.405 22.3362 26.5039 22.2373C26.6027 22.1384 26.6588 22.0047 26.6601 21.8648C26.6613 21.725 26.6075 21.5903 26.5104 21.4897L24.377 19.3563Z" fill="#303030"/>
</g>
<defs>
<clipPath id="clip0_787_6899">
<rect width="32" height="32" fill="white"/>
</clipPath>
</defs>
</svg>
