<svg width="25" height="24" viewBox="0 0 25 24" fill="none" xmlns="http://www.w3.org/2000/svg">
<path d="M2.26554 2.17811C2.37757 2.08306 2.51506 2.023 2.66092 2.0054C2.80679 1.9878 2.95461 2.01343 3.08604 2.07911L22.586 11.8291C22.7105 11.8915 22.8151 11.9872 22.8882 12.1056C22.9613 12.224 23 12.3604 23 12.4996C23 12.6388 22.9613 12.7752 22.8882 12.8936C22.8151 13.012 22.7105 13.1078 22.586 13.1701L3.08604 22.9201C2.9547 22.986 2.80692 23.0118 2.66103 22.9944C2.51514 22.977 2.37758 22.9171 2.26542 22.8222C2.15326 22.7273 2.07145 22.6015 2.03014 22.4606C1.98883 22.3196 1.98984 22.1695 2.03304 22.0291L4.96554 12.4996L2.03304 2.97011C1.99008 2.82983 1.98921 2.68002 2.03054 2.53925C2.07186 2.39848 2.15357 2.27291 2.26554 2.17811ZM6.30354 13.2496L3.98304 20.7946L20.573 12.4996L3.98304 4.20461L6.30354 11.7496H14.75C14.949 11.7496 15.1397 11.8286 15.2804 11.9693C15.421 12.1099 15.5 12.3007 15.5 12.4996C15.5 12.6985 15.421 12.8893 15.2804 13.0299C15.1397 13.1706 14.949 13.2496 14.75 13.2496H6.30354Z" fill="white"/>
</svg>
