<svg width="24" height="24" viewBox="0 0 24 24" fill="none" xmlns="http://www.w3.org/2000/svg">
<path fill-rule="evenodd" clip-rule="evenodd" d="M16.0895 4.0779C16.1045 4.09624 16.1183 4.11524 16.131 4.1349L16.1315 4.1359L16.133 4.1384L16.1375 4.1459L16.1535 4.1724C16.1682 4.19574 16.188 4.22874 16.213 4.2714C16.52 4.79965 16.7964 5.34504 17.041 5.9049C17.487 6.9299 17.958 8.3134 17.958 9.6314C17.958 11.1229 16.9505 11.9499 16.0645 12.3769C15.6228 12.5868 15.1565 12.7405 14.6765 12.8344C13.9377 13.5205 12.9663 13.9011 11.958 13.8994C11.3568 13.8999 10.7632 13.7647 10.2215 13.5038C9.67984 13.243 9.20401 12.8632 8.82951 12.3929L8.80651 12.3909C8.6978 12.381 8.58954 12.3667 8.48201 12.3479C8.14198 12.2898 7.8109 12.188 7.49701 12.0449C7.13201 11.8749 6.74401 11.6139 6.44701 11.2134C6.14551 10.8069 5.95801 10.2839 5.95801 9.6314C5.95801 8.3979 6.55901 6.9964 7.11101 5.9554C7.44282 5.3311 7.81112 4.72688 8.21401 4.1459L8.23001 4.1234L8.23601 4.1139L8.28001 4.0489C8.31751 3.9954 8.37101 3.9239 8.44301 3.8399C8.63816 3.6149 8.85976 3.41428 9.10301 3.2424C9.70901 2.8104 10.644 2.3999 11.985 2.3999C13.3225 2.3999 14.341 2.8084 15.027 3.2214C15.3695 3.4279 15.629 3.6349 15.8055 3.7934C15.9016 3.88056 15.9934 3.97233 16.0805 4.0684L16.0855 4.0744L16.088 4.0769L16.0895 4.0779ZM9.07651 4.6559L9.05251 4.6929L9.05151 4.6939L9.04751 4.6989L9.03101 4.7229C9.01567 4.7439 8.99367 4.77557 8.96501 4.8179C8.61202 5.33495 8.28786 5.8711 7.99401 6.4239C7.45201 7.4469 6.95801 8.6609 6.95801 9.6309C6.95801 10.0804 7.08301 10.3919 7.25001 10.6174C7.42201 10.8484 7.65951 11.0174 7.91951 11.1384C8.04301 11.1959 8.16801 11.2414 8.28701 11.2769C8.19175 10.8478 8.12015 10.4138 8.07251 9.9769C8.01601 9.4399 7.99951 8.8444 8.10051 8.3179C8.20001 7.8019 8.43451 7.2474 8.97151 6.9589C9.68601 6.5754 10.895 6.0624 11.961 5.7089C12.4925 5.5324 13.011 5.3879 13.4255 5.3219C13.629 5.2899 13.838 5.2719 14.022 5.2904C14.166 5.3054 14.4645 5.3599 14.6295 5.6304C15.9695 7.5649 15.9895 9.3374 15.65 10.6319C15.552 11.0064 15.425 11.3379 15.294 11.6199C15.405 11.5779 15.517 11.5299 15.63 11.4759C16.355 11.1259 16.958 10.5689 16.958 9.6309C16.958 8.5199 16.553 7.2879 16.124 6.3039C15.8956 5.78112 15.6375 5.27179 15.351 4.7784L15.304 4.6989L15.292 4.6864L15.2865 4.6804C15.2385 4.63087 15.1888 4.58301 15.1375 4.5369C14.9436 4.36468 14.7341 4.21101 14.5115 4.0779C13.953 3.7414 13.1105 3.3999 11.9855 3.3999C10.8635 3.3999 10.1295 3.7394 9.68251 4.0574C9.50554 4.18212 9.34422 4.32766 9.20201 4.4909C9.15831 4.54246 9.11726 4.59619 9.07901 4.6519L9.07651 4.6559ZM9.32951 11.3469L9.29201 11.1884C9.19162 10.7548 9.1165 10.3157 9.06701 9.8734C9.01501 9.3769 9.00851 8.8934 9.08301 8.5069C9.15901 8.1109 9.29801 7.9194 9.44451 7.8404C10.098 7.4894 11.2525 6.9979 12.276 6.6584C12.789 6.4884 13.247 6.3634 13.582 6.3104C13.7085 6.2904 13.8015 6.2829 13.8645 6.2834C14.9635 7.9174 14.952 9.3519 14.6825 10.3789C14.5653 10.8205 14.3882 11.2439 14.156 11.6374C14.0707 11.7822 13.9763 11.9215 13.8735 12.0544L13.87 12.0589L13.8595 12.0719L13.8575 12.0739L13.857 12.0744C13.7995 12.1416 13.7609 12.2229 13.745 12.3099C13.4012 12.565 13.0069 12.7436 12.5883 12.8336C12.1698 12.9236 11.7369 12.923 11.3187 12.8317C10.9004 12.7405 10.5065 12.5608 10.1635 12.3047C9.82052 12.0486 9.53581 11.722 9.32951 11.3469Z" fill="#090707"/>
<path fill-rule="evenodd" clip-rule="evenodd" d="M8.91501 14.3277C8.80901 14.1167 8.67851 13.8562 8.45801 13.9067C5.75601 14.5217 2.95801 16.2977 2.95801 18.1852V20.9002H20.958V18.1852C20.958 16.6982 19.222 15.2812 17.1645 14.4452L17.1575 14.4317L17.155 14.4267L17.1385 14.4347C16.592 14.2147 16.023 14.0347 15.458 13.9067C15.2065 13.8492 14.9465 14.1952 14.833 14.4117H8.95801L8.91501 14.3277ZM15.6595 14.9882C15.8782 15.0486 16.095 15.1164 16.31 15.1917C16.316 15.3627 16.303 15.5642 16.275 15.7702C16.2467 15.9836 16.2012 16.1942 16.139 16.4002H15.458C15.3652 16.4003 15.2742 16.4262 15.1952 16.475C15.1163 16.5239 15.0525 16.5937 15.011 16.6767L14.511 17.6767C14.4762 17.7461 14.4581 17.8226 14.458 17.9002V18.9002C14.458 19.0329 14.5107 19.16 14.6045 19.2538C14.6982 19.3476 14.8254 19.4002 14.958 19.4002H15.958V18.4002H15.458V18.0182L15.767 17.4002H17.149L17.458 18.0182V18.4002H16.958V19.4002H17.958C18.0906 19.4002 18.2178 19.3476 18.3116 19.2538C18.4053 19.16 18.458 19.0329 18.458 18.9002V17.9002C18.4579 17.8226 18.4398 17.7461 18.405 17.6767L17.905 16.6767C17.8635 16.5937 17.7997 16.5239 17.7208 16.475C17.6418 16.4262 17.5508 16.4003 17.458 16.4002H17.175C17.2361 16.1357 17.2776 15.8669 17.299 15.5962C17.7865 15.8262 18.2395 16.0902 18.632 16.3762C19.593 17.0782 19.958 17.7342 19.958 18.1852V19.9002H3.95801V18.1852C3.95801 17.7337 4.32301 17.0777 5.28401 16.3767C5.76701 16.0242 6.34351 15.7052 6.96151 15.4412C6.97877 15.8397 7.04271 16.2347 7.15201 16.6182L7.15601 16.6322C6.85709 16.8214 6.63461 17.11 6.52788 17.4472C6.42114 17.7845 6.437 18.1485 6.57267 18.4752C6.70834 18.8019 6.95508 19.0701 7.26931 19.2325C7.58355 19.3948 7.94506 19.441 8.28999 19.3627C8.63493 19.2844 8.9411 19.0867 9.15443 18.8046C9.36776 18.5224 9.47452 18.174 9.45586 17.8207C9.4372 17.4675 9.29431 17.1323 9.05244 16.8742C8.81057 16.6161 8.48528 16.4518 8.13401 16.4102L8.11201 16.3382C8.05915 16.152 8.01988 15.9622 7.99451 15.7702C7.96648 15.5764 7.95477 15.3806 7.95951 15.1847C7.96118 15.1427 7.96367 15.1054 7.96701 15.0727C8.02701 15.0541 8.08701 15.0362 8.14701 15.0192L8.35451 15.4122H15.4365L15.6595 14.9882ZM7.95801 18.4077C8.22701 18.4077 8.45801 18.1877 8.45801 17.9002C8.45801 17.6132 8.22701 17.3927 7.95801 17.3927C7.68901 17.3927 7.45801 17.6127 7.45801 17.9002C7.45801 18.1872 7.68901 18.4077 7.95801 18.4077Z" fill="#090707"/>
</svg>
