<svg width="36" height="36" viewBox="0 0 36 36" fill="none" xmlns="http://www.w3.org/2000/svg">
<path fill-rule="evenodd" clip-rule="evenodd" d="M24.1973 6.267C24.2198 6.2945 24.2405 6.323 24.2595 6.3525L24.2603 6.354L24.2625 6.35775L24.2693 6.369L24.2933 6.40875C24.3153 6.44375 24.345 6.49325 24.3825 6.55725C24.8429 7.34962 25.2576 8.16771 25.6245 9.0075C26.2935 10.545 27 12.6203 27 14.5973C27 16.8345 25.4888 18.075 24.1598 18.7155C23.4972 19.0304 22.7977 19.2609 22.0778 19.4018C20.9695 20.4309 19.5124 21.0018 18 20.9993C17.0982 21 16.2078 20.7972 15.3953 20.4059C14.5827 20.0146 13.869 19.445 13.3073 18.7395L13.2728 18.7365C13.1097 18.7217 12.9473 18.7001 12.786 18.672C12.276 18.5848 11.7793 18.4321 11.3085 18.2175C10.761 17.9625 10.179 17.571 9.7335 16.9703C9.28125 16.3605 9 15.576 9 14.5973C9 12.747 9.9015 10.6448 10.7295 9.08325C11.2272 8.14679 11.7797 7.24047 12.384 6.369L12.408 6.33525L12.417 6.321L12.483 6.2235C12.5393 6.14325 12.6195 6.036 12.7275 5.91C13.0202 5.57249 13.3526 5.27156 13.7175 5.01375C14.6265 4.36575 16.029 3.75 18.0405 3.75C20.0468 3.75 21.5745 4.36275 22.6035 4.98225C23.1173 5.292 23.5065 5.6025 23.7713 5.84025C23.9154 5.97098 24.053 6.10864 24.1838 6.25275L24.1913 6.26175L24.195 6.2655L24.1973 6.267ZM13.6778 7.134L13.6418 7.1895L13.6403 7.191L13.6343 7.1985L13.6095 7.2345C13.5865 7.266 13.5535 7.3135 13.5105 7.377C12.981 8.15257 12.4948 8.9568 12.054 9.786C11.241 11.3205 10.5 13.1415 10.5 14.5965C10.5 15.2708 10.6875 15.738 10.938 16.0763C11.196 16.4228 11.5523 16.6763 11.9423 16.8578C12.1275 16.944 12.315 17.0123 12.4935 17.0655C12.3506 16.4219 12.2432 15.7709 12.1718 15.1155C12.087 14.31 12.0623 13.4168 12.2138 12.627C12.363 11.853 12.7148 11.0213 13.5203 10.5885C14.592 10.0133 16.4055 9.24375 18.0045 8.7135C18.8018 8.44875 19.5795 8.232 20.2013 8.133C20.5065 8.085 20.82 8.058 21.096 8.08575C21.312 8.10825 21.7598 8.19 22.0073 8.59575C24.0173 11.4975 24.0473 14.1563 23.538 16.098C23.391 16.6598 23.2005 17.157 23.004 17.58C23.1705 17.517 23.3385 17.445 23.508 17.364C24.5955 16.839 25.5 16.0035 25.5 14.5965C25.5 12.93 24.8925 11.082 24.249 9.606C23.9063 8.82182 23.5192 8.05783 23.0895 7.31775L23.019 7.1985L23.001 7.17975L22.9928 7.17075C22.9207 7.09645 22.8462 7.02466 22.7693 6.9555C22.4785 6.69717 22.1641 6.46666 21.8303 6.267C20.9925 5.76225 19.7288 5.25 18.0413 5.25C16.3583 5.25 15.2573 5.75925 14.5868 6.23625C14.3213 6.42332 14.0793 6.64164 13.866 6.8865C13.8005 6.96383 13.7389 7.04444 13.6815 7.128L13.6778 7.134ZM14.0573 17.1705L14.001 16.9328C13.8504 16.2823 13.7377 15.6237 13.6635 14.9603C13.5855 14.2155 13.5758 13.4903 13.6875 12.9105C13.8015 12.3165 14.01 12.0293 14.2298 11.9108C15.21 11.3843 16.9418 10.647 18.477 10.1378C19.2465 9.88275 19.9335 9.69525 20.436 9.61575C20.6258 9.58575 20.7653 9.5745 20.8598 9.57525C22.5083 12.0263 22.491 14.178 22.0868 15.7185C21.911 16.3809 21.6453 17.016 21.297 17.6063C21.169 17.8234 21.0275 18.0324 20.8733 18.2318L20.868 18.2385L20.8523 18.258L20.8493 18.261L20.8485 18.2618C20.7622 18.3626 20.7043 18.4845 20.6805 18.615C20.1649 18.9977 19.5733 19.2655 18.9455 19.4005C18.3177 19.5355 17.6684 19.5346 17.041 19.3977C16.4136 19.2609 15.8228 18.9913 15.3083 18.6072C14.7938 18.223 14.3667 17.7331 14.0573 17.1705Z" fill="white"/>
<path fill-rule="evenodd" clip-rule="evenodd" d="M13.4355 21.641C13.2765 21.3245 13.0808 20.9338 12.75 21.0095C8.697 21.932 4.5 24.596 4.5 27.4273V31.4998H31.5V27.4273C31.5 25.1968 28.896 23.0713 25.8098 21.8173L25.7993 21.797L25.7955 21.7895L25.7708 21.8015C24.951 21.4715 24.0975 21.2015 23.25 21.0095C22.8728 20.9233 22.4828 21.4423 22.3125 21.767H13.5L13.4355 21.641ZM23.5523 22.6318C23.8803 22.7223 24.2055 22.824 24.528 22.937C24.537 23.1935 24.5175 23.4958 24.4755 23.8048C24.433 24.1248 24.3648 24.4408 24.2715 24.7498H23.25C23.1108 24.7499 22.9743 24.7887 22.8559 24.862C22.7374 24.9352 22.6417 25.04 22.5795 25.1645L21.8295 26.6645C21.7773 26.7686 21.7501 26.8834 21.75 26.9998V28.4998C21.75 28.6987 21.829 28.8895 21.9697 29.0301C22.1103 29.1708 22.3011 29.2498 22.5 29.2498H24V27.7498H23.25V27.1768L23.7135 26.2498H25.7865L26.25 27.1768V27.7498H25.5V29.2498H27C27.1989 29.2498 27.3897 29.1708 27.5303 29.0301C27.671 28.8895 27.75 28.6987 27.75 28.4998V26.9998C27.7499 26.8834 27.7227 26.7686 27.6705 26.6645L26.9205 25.1645C26.8583 25.04 26.7626 24.9352 26.6441 24.862C26.5257 24.7887 26.3893 24.7499 26.25 24.7498H25.8255C25.9172 24.3529 25.9794 23.9498 26.0115 23.5438C26.7428 23.8888 27.4223 24.2848 28.011 24.7138C29.4525 25.7668 30 26.7508 30 27.4273V29.9998H6V27.4273C6 26.75 6.5475 25.766 7.989 24.7145C8.7135 24.1858 9.57825 23.7073 10.5053 23.3113C10.5311 23.9089 10.627 24.5015 10.791 25.0768L10.797 25.0978C10.3486 25.3814 10.0149 25.8144 9.8548 26.3203C9.6947 26.8261 9.71849 27.3722 9.92199 27.8622C10.1255 28.3522 10.4956 28.7545 10.967 28.9981C11.4383 29.2417 11.9806 29.3109 12.498 29.1934C13.0154 29.076 13.4746 28.7795 13.7946 28.3562C14.1146 27.933 14.2748 27.4104 14.2468 26.8805C14.2188 26.3507 14.0045 25.8478 13.6417 25.4607C13.2788 25.0735 12.7909 24.8271 12.264 24.7648L12.231 24.6568C12.1517 24.3774 12.0928 24.0927 12.0548 23.8048C12.0127 23.514 11.9951 23.2202 12.0023 22.9265C12.0048 22.8635 12.0085 22.8075 12.0135 22.7585C12.1035 22.7305 12.1935 22.7038 12.2835 22.6783L12.5948 23.2678H23.2178L23.5523 22.6318ZM12 27.761C12.4035 27.761 12.75 27.431 12.75 26.9998C12.75 26.5693 12.4035 26.2385 12 26.2385C11.5965 26.2385 11.25 26.5685 11.25 26.9998C11.25 27.4303 11.5965 27.761 12 27.761Z" fill="white"/>
</svg>
