<svg width="14" height="15" viewBox="0 0 14 15" fill="none" xmlns="http://www.w3.org/2000/svg">
<path d="M11.6167 15C11.0783 15 10.6214 14.8069 10.246 14.4208C9.8712 14.0342 9.68378 13.5647 9.68378 13.0125C9.68378 12.9292 9.71953 12.7189 9.79103 12.3817L3.94347 8.82083C3.76797 9.02861 3.5532 9.19167 3.29916 9.31C3.04511 9.42833 2.77239 9.4875 2.48097 9.4875C1.94689 9.4875 1.49297 9.2925 1.11922 8.9025C0.745469 8.5125 0.558594 8.045 0.558594 7.5C0.558594 6.955 0.745469 6.4875 1.11922 6.0975C1.49297 5.7075 1.94689 5.5125 2.48097 5.5125C2.77184 5.5125 3.04457 5.57167 3.29916 5.69C3.55374 5.80833 3.76851 5.97167 3.94347 6.18L9.79184 2.63417C9.75393 2.52639 9.72657 2.41944 9.70978 2.31333C9.69245 2.20667 9.68378 2.09778 9.68378 1.98667C9.68378 1.435 9.87255 0.965833 10.2501 0.579167C10.6276 0.193055 11.0859 0 11.6248 0C12.1638 0 12.621 0.193611 12.9963 0.580833C13.3717 0.968055 13.5591 1.43806 13.5586 1.99083C13.5581 2.54361 13.3698 3.0125 12.9939 3.3975C12.618 3.7825 12.1603 3.97472 11.6208 3.97417C11.3272 3.97417 11.0564 3.9125 10.8083 3.78917C10.5602 3.66583 10.3489 3.5 10.1745 3.29167L4.32534 6.8525C4.36326 6.96028 4.39061 7.0675 4.40741 7.17417C4.42474 7.28028 4.43341 7.38889 4.43341 7.5C4.43341 7.61111 4.42474 7.71972 4.40741 7.82583C4.39007 7.93194 4.36299 8.03917 4.32616 8.1475L10.1745 11.7083C10.3495 11.5 10.5607 11.3342 10.8083 11.2108C11.0564 11.0875 11.3272 11.0258 11.6208 11.0258C12.1592 11.0258 12.6169 11.2192 12.9939 11.6058C13.3704 11.9936 13.5586 12.4639 13.5586 13.0167C13.5586 13.5694 13.3698 14.0383 12.9923 14.4233C12.6147 14.8083 12.1557 15.0006 11.6167 15ZM11.6208 14.1667C11.9398 14.1667 12.2071 14.0561 12.4227 13.835C12.6383 13.6139 12.7461 13.34 12.7461 13.0133C12.7461 12.6867 12.6383 12.4125 12.4227 12.1908C12.2071 11.9692 11.9401 11.8586 11.6216 11.8592C11.3031 11.8597 11.0358 11.9703 10.8197 12.1908C10.6035 12.4114 10.4957 12.6853 10.4963 13.0125C10.4968 13.3397 10.6046 13.6139 10.8197 13.835C11.0347 14.0561 11.3012 14.1667 11.6208 14.1667ZM2.48097 8.65333C2.8038 8.65333 3.07464 8.54278 3.29347 8.32167C3.51176 8.10055 3.62091 7.82667 3.62091 7.5C3.62091 7.17333 3.51176 6.89944 3.29347 6.67833C3.07518 6.45722 2.80434 6.34667 2.48097 6.34667C2.16626 6.34667 1.90274 6.45722 1.69041 6.67833C1.47807 6.89944 1.37164 7.17333 1.37109 7.5C1.37055 7.82667 1.47699 8.10083 1.69041 8.3225C1.90382 8.54417 2.16734 8.65444 2.48097 8.65333ZM11.6216 3.14083C11.9401 3.14083 12.2071 3.03028 12.4227 2.80917C12.6383 2.58806 12.7461 2.31389 12.7461 1.98667C12.7461 1.65944 12.6383 1.38556 12.4227 1.165C12.2071 0.944444 11.9401 0.833889 11.6216 0.833333C11.3031 0.832778 11.0358 0.943333 10.8197 1.165C10.6035 1.38667 10.4957 1.66083 10.4963 1.9875C10.4968 2.31417 10.6046 2.58806 10.8197 2.80917C11.0347 3.03028 11.302 3.14083 11.6216 3.14083Z" fill="white"/>
</svg>
