<svg width="24" height="25" viewBox="0 0 24 25" fill="none" xmlns="http://www.w3.org/2000/svg">
<path d="M14.6978 23.2487H9.29781C4.35781 23.2487 2.25781 21.1388 2.25781 16.2087V11.7188C2.25781 11.3088 2.59781 10.9688 3.00781 10.9688C3.41781 10.9688 3.75781 11.3088 3.75781 11.7188V16.2087C3.75781 20.2987 5.20781 21.7487 9.29781 21.7487H14.6878C18.7778 21.7487 20.2278 20.2987 20.2278 16.2087V11.7188C20.2278 11.3088 20.5678 10.9688 20.9778 10.9688C21.3878 10.9688 21.7278 11.3088 21.7278 11.7188V16.2087C21.7378 21.1388 19.6278 23.2487 14.6978 23.2487Z" fill="#F1EEEE"/>
<path d="M12.0029 13.25C10.9029 13.25 9.90293 12.82 9.19293 12.03C8.48293 11.24 8.15293 10.21 8.26293 9.11L8.93293 2.43C8.97293 2.05 9.29293 1.75 9.68293 1.75H14.3529C14.7429 1.75 15.0629 2.04 15.1029 2.43L15.7729 9.11C15.8829 10.21 15.5529 11.24 14.8429 12.03C14.1029 12.82 13.1029 13.25 12.0029 13.25ZM10.3529 3.25L9.75293 9.26C9.68293 9.93 9.88293 10.56 10.3029 11.02C11.1529 11.96 12.8529 11.96 13.7029 11.02C14.1229 10.55 14.3229 9.92 14.2529 9.26L13.6529 3.25H10.3529Z" fill="#F1EEEE"/>
<path d="M18.308 13.25C16.278 13.25 14.468 11.61 14.258 9.59L13.558 2.58C13.538 2.37 13.608 2.16 13.748 2C13.888 1.84 14.088 1.75 14.308 1.75H17.358C20.298 1.75 21.668 2.98 22.078 6L22.358 8.78C22.478 9.96 22.118 11.08 21.348 11.93C20.578 12.78 19.498 13.25 18.308 13.25ZM15.138 3.25L15.758 9.44C15.888 10.69 17.048 11.75 18.308 11.75C19.068 11.75 19.748 11.46 20.238 10.93C20.718 10.4 20.938 9.69 20.868 8.93L20.588 6.18C20.278 3.92 19.548 3.25 17.358 3.25H15.138Z" fill="#F1EEEE"/>
<path d="M5.64295 13.25C4.45295 13.25 3.37295 12.78 2.60295 11.93C1.83295 11.08 1.47295 9.96 1.59295 8.78L1.86295 6.03C2.28295 2.98 3.65295 1.75 6.59295 1.75H9.64295C9.85295 1.75 10.053 1.84 10.203 2C10.353 2.16 10.413 2.37 10.393 2.58L9.69295 9.59C9.48295 11.61 7.67295 13.25 5.64295 13.25ZM6.59295 3.25C4.40295 3.25 3.67295 3.91 3.35295 6.2L3.08295 8.93C3.00295 9.69 3.23295 10.4 3.71295 10.93C4.19295 11.46 4.87295 11.75 5.64295 11.75C6.90295 11.75 8.07295 10.69 8.19295 9.44L8.81295 3.25H6.59295Z" fill="#F1EEEE"/>
<path d="M14.5 23.25H9.5C9.09 23.25 8.75 22.91 8.75 22.5V20C8.75 17.9 9.9 16.75 12 16.75C14.1 16.75 15.25 17.9 15.25 20V22.5C15.25 22.91 14.91 23.25 14.5 23.25ZM10.25 21.75H13.75V20C13.75 18.74 13.26 18.25 12 18.25C10.74 18.25 10.25 18.74 10.25 20V21.75Z" fill="#F1EEEE"/>
</svg>
