<svg width="34" height="33" viewBox="0 0 34 33" fill="none" xmlns="http://www.w3.org/2000/svg">
<path d="M17.2381 24.3158C17.2381 24.7989 17.2971 25.2679 17.371 25.7368H3.95238C3.16936 25.7368 2.41841 25.4374 1.86473 24.9044C1.31105 24.3714 1 23.6485 1 22.8947V5.84211C1 5.08833 1.31105 4.36543 1.86473 3.83243C2.41841 3.29944 3.16936 3 3.95238 3H5.42857L8.38095 8.68421H12.8095L9.85714 3H12.8095L15.7619 8.68421H20.1905L17.2381 3H20.1905L23.1429 8.68421H27.5714L24.619 3H30.5238V16.9405C29.6233 16.4432 28.6343 16.1021 27.5714 15.9174V11.5263H6.55048L3.95238 6.51V22.8947H17.371C17.2971 23.3637 17.2381 23.8326 17.2381 24.3158ZM27.5714 22.8947V18.6316H24.619V22.8947H20.1905V25.7368H24.619V30H27.5714V25.7368H32V22.8947H27.5714Z" fill="#25BAFF"/>
</svg>
