<svg width="20" height="21" viewBox="0 0 20 21" fill="none" xmlns="http://www.w3.org/2000/svg">
<path d="M14.9167 3.5H4.08333C3.79602 3.5 3.52047 3.61414 3.3173 3.8173C3.11414 4.02047 3 4.29602 3 4.58333V15.4167C3 15.704 3.11414 15.9795 3.3173 16.1827C3.52047 16.3859 3.79602 16.5 4.08333 16.5H14.9167C15.204 16.5 15.4795 16.3859 15.6827 16.1827C15.8859 15.9795 16 15.704 16 15.4167V4.58333C16 4.29602 15.8859 4.02047 15.6827 3.8173C15.4795 3.61414 15.204 3.5 14.9167 3.5Z" stroke="#303030" stroke-width="0.9" stroke-linecap="round" stroke-linejoin="round"/>
<path d="M3 6.68323H16M12.75 3.43323L10.5833 6.68323M8.41667 3.43323L6.25 6.68323M8.23611 11.3777V9.18862L10.1319 10.2828L12.0278 11.3777L10.1319 12.4722L8.23611 13.5667V11.3777Z" stroke="#303030" stroke-width="0.9" stroke-linecap="round" stroke-linejoin="round"/>
</svg>
