<svg width="21" height="20" viewBox="0 0 21 20" fill="none" xmlns="http://www.w3.org/2000/svg">
<path d="M18.9617 7.57104H17.974C17.8202 7.05333 17.6125 6.55208 17.3542 6.07667L18.0532 5.37792C18.3277 5.10312 18.3277 4.65625 18.0532 4.38167L15.9098 2.23792C15.635 1.96312 15.1882 1.96312 14.9134 2.23792L14.214 2.93729C13.7382 2.67896 13.2371 2.47104 12.72 2.31771V1.32958C12.7202 0.941042 12.4042 0.625 12.0157 0.625H8.9844C8.59586 0.625 8.27982 0.941042 8.27982 1.32958V2.31771C7.76273 2.47125 7.26169 2.67896 6.78586 2.93729L6.08648 2.23792C5.8119 1.96333 5.36482 1.96333 5.09003 2.23792L2.9469 4.38146C2.67211 4.65625 2.67211 5.10312 2.9469 5.37771L3.64607 6.07688C3.38773 6.5525 3.17982 7.05375 3.02648 7.57104H2.03857C1.65003 7.57104 1.33398 7.88708 1.33398 8.27562V11.3069C1.33398 11.6954 1.65003 12.0115 2.03857 12.0115H3.02628C3.17982 12.5292 3.38773 13.0302 3.64586 13.5058L2.9469 14.2048C2.67211 14.4796 2.67211 14.9265 2.9469 15.201L5.09023 17.3444C5.22753 17.4817 5.40794 17.5504 5.58836 17.5504C5.76878 17.5504 5.94919 17.4817 6.08648 17.3444L6.78586 16.645C6.99898 16.7606 7.21836 16.8662 7.44086 16.9615C7.44044 16.9735 7.44003 16.9854 7.44003 16.9977C7.44003 17.6575 7.9769 18.1942 8.63669 18.1942H9.0969C9.21274 18.8638 9.79753 19.375 10.5 19.375C11.2025 19.375 11.7875 18.8638 11.9034 18.194H12.3636C13.0234 18.194 13.5602 17.6573 13.5602 16.9975C13.5602 16.9856 13.5596 16.9737 13.5594 16.9619C13.7821 16.8667 14.0015 16.761 14.2146 16.6452L14.9136 17.344C15.0463 17.4767 15.2232 17.5498 15.4117 17.5498C15.6002 17.5498 15.7771 17.4767 15.9098 17.344L18.0532 15.2006C18.3277 14.9258 18.3277 14.479 18.0532 14.2042L17.3538 13.5048C17.6121 13.029 17.82 12.5279 17.9734 12.0108H18.9615C19.35 12.0108 19.6661 11.6948 19.6661 11.3062V8.275C19.6661 7.88708 19.35 7.57104 18.9617 7.57104ZM13.3588 14.0556C13.1827 13.9535 12.9786 13.8948 12.7609 13.8948H8.23919C8.02148 13.8948 7.81732 13.9535 7.64128 14.0556C6.21378 13.0983 5.36648 11.516 5.36648 9.79104C5.36648 6.96042 7.6694 4.6575 10.5 4.6575C13.3307 4.6575 15.6336 6.96042 15.6336 9.79104C15.6336 11.516 14.7861 13.0983 13.3588 14.0556ZM8.23919 14.3819H12.7609C13.1521 14.3819 13.4704 14.7002 13.4704 15.0915C13.4704 15.4827 13.1521 15.8008 12.7609 15.8008H8.23919C7.84794 15.8008 7.52961 15.4825 7.52961 15.0913C7.52961 14.7 7.84794 14.3819 8.23919 14.3819ZM10.5 18.8879C10.0673 18.8879 9.70232 18.5931 9.59482 18.194H11.4054C11.2979 18.5931 10.9327 18.8879 10.5 18.8879ZM12.3636 17.7069H8.63649C8.24523 17.7069 7.9269 17.3885 7.9269 16.9973C7.9269 16.606 8.24523 16.2877 8.63649 16.2877H12.3634C12.7546 16.2877 13.0729 16.606 13.0729 16.9973C13.0732 17.3888 12.7548 17.7069 12.3636 17.7069ZM19.1792 11.3067C19.1792 11.4267 19.0817 11.5242 18.9617 11.5242H17.7896C17.6796 11.5242 17.5834 11.5979 17.5546 11.7042C17.3921 12.3046 17.1519 12.8837 16.8404 13.4258C16.7857 13.5212 16.8017 13.6415 16.8794 13.7194L17.709 14.5487C17.7938 14.6335 17.7938 14.7717 17.709 14.8565L15.5654 16.9998C15.5248 17.0404 15.47 17.0629 15.4117 17.0629C15.3532 17.0629 15.2986 17.0404 15.2579 16.9998L14.4288 16.1706C14.3511 16.0929 14.2307 16.0769 14.1352 16.1317C13.9115 16.2602 13.6796 16.3775 13.4432 16.4817C13.3911 16.3731 13.3232 16.2737 13.2423 16.1862C13.6629 16.0006 13.9573 15.5798 13.9573 15.0913C13.9573 14.8298 13.8727 14.5877 13.7298 14.3906C15.2319 13.3367 16.1204 11.6387 16.1204 9.79083C16.1204 6.69167 13.599 4.17021 10.4998 4.17021C7.40065 4.17021 4.87961 6.69187 4.87961 9.79104C4.87961 11.6388 5.76815 13.3369 7.27024 14.3908C7.12732 14.5879 7.04273 14.83 7.04273 15.0915C7.04273 15.58 7.33711 16.0008 7.75794 16.1865C7.67732 16.2737 7.6094 16.3731 7.55732 16.4815C7.32107 16.3773 7.08919 16.26 6.86544 16.1315C6.77003 16.0767 6.64982 16.0925 6.5719 16.1704L5.74253 17C5.65773 17.0848 5.51961 17.0848 5.43482 17L3.29128 14.8565C3.20648 14.7717 3.20648 14.6335 3.29128 14.5487L4.12044 13.7196C4.19815 13.6419 4.21419 13.5215 4.1594 13.426C3.84815 12.8846 3.60794 12.305 3.44523 11.704C3.41648 11.5979 3.32023 11.5242 3.21023 11.5242H2.03857C1.91857 11.5242 1.82107 11.4267 1.82107 11.3067V8.27542C1.82107 8.15542 1.91857 8.05792 2.03857 8.05792H3.21065C3.32065 8.05792 3.4169 7.98417 3.44565 7.87792C3.60815 7.27729 3.84836 6.69792 4.15982 6.15604C4.21461 6.06062 4.19878 5.94042 4.12086 5.8625L3.29148 5.03312C3.20669 4.94833 3.20669 4.81021 3.29148 4.72542L5.43482 2.58208C5.51961 2.49729 5.65773 2.49729 5.74253 2.58208L6.5719 3.41146C6.64961 3.48937 6.77003 3.50521 6.86544 3.45042C7.40753 3.13896 7.98669 2.89875 8.58711 2.73646C8.69336 2.70771 8.76711 2.61146 8.76711 2.50146V1.32958C8.76711 1.20958 8.86461 1.11208 8.98461 1.11208H12.0159C12.1359 1.11208 12.2334 1.20958 12.2334 1.32958V2.50167C12.2334 2.61167 12.3071 2.70792 12.4134 2.73667C13.0138 2.89896 13.5929 3.13937 14.135 3.45083C14.2304 3.50562 14.3507 3.48979 14.4286 3.41188L15.2579 2.58229C15.3427 2.4975 15.4809 2.4975 15.5657 2.58229L17.709 4.72563C17.7938 4.81042 17.7938 4.94854 17.709 5.03333L16.8798 5.86229C16.8021 5.94021 16.7861 6.06042 16.8409 6.15583C17.1519 6.69729 17.3923 7.27667 17.555 7.87792C17.5838 7.98417 17.68 8.05771 17.79 8.05771H18.9617C19.0817 8.05771 19.1792 8.15521 19.1792 8.27521V11.3067ZM11.1579 9.75854C11.8019 9.50104 12.2579 8.87083 12.2579 8.13604C12.2579 7.17313 11.4744 6.38958 10.5115 6.38958C9.54857 6.38958 8.76503 7.17292 8.76503 8.13604C8.76503 8.86792 9.21753 9.49604 9.85732 9.75542C8.36794 10.0546 7.24273 11.3729 7.24273 12.9492C7.24273 13.0835 7.35169 13.1927 7.48628 13.1927H13.514C13.6484 13.1927 13.7575 13.0837 13.7575 12.9492C13.7573 11.3783 12.6398 10.0635 11.1579 9.75854ZM9.2519 8.13604C9.2519 7.44167 9.8169 6.87667 10.5113 6.87667C11.2057 6.87667 11.7707 7.44167 11.7707 8.13604C11.7707 8.83042 11.2057 9.39542 10.5113 9.39542C9.8169 9.39542 9.2519 8.83042 9.2519 8.13604ZM7.74023 12.7056C7.86398 11.2917 9.05461 10.1788 10.5 10.1788C11.9457 10.1788 13.1361 11.2917 13.2598 12.7056H7.74023Z" fill="white" stroke="white" stroke-width="0.5"/>
</svg>
