<svg width="19" height="19" viewBox="0 0 19 19" fill="none" xmlns="http://www.w3.org/2000/svg">
<path d="M11 10.25V8.75L9.5 9.5L8 8.75V10.25L6.5 11L8 11.75V13.25L9.5 12.5L11 13.25V11.75L12.5 11M11 2H5.75C5.35218 2 4.97064 2.15804 4.68934 2.43934C4.40804 2.72064 4.25 3.10218 4.25 3.5V14C4.25 14.3978 4.40804 14.7794 4.68934 15.0607C4.97064 15.342 5.35218 15.5 5.75 15.5H6.5V14H5.75V3.5H10.25V6.5H13.25V14H12.5V15.5H13.25C13.6478 15.5 14.0294 15.342 14.3107 15.0607C14.592 14.7794 14.75 14.3978 14.75 14V5.75M11 10.25V8.75L9.5 9.5L8 8.75V10.25L6.5 11L8 11.75V13.25L9.5 12.5L11 13.25V11.75L12.5 11M8 17.75L9.5 17L11 17.75V14H8M11 10.25V8.75L9.5 9.5L8 8.75V10.25L6.5 11L8 11.75V13.25L9.5 12.5L11 13.25V11.75L12.5 11L11 10.25Z" fill="#25BAFF"/>
</svg>
