<svg width="26" height="26" viewBox="0 0 26 26" fill="none" xmlns="http://www.w3.org/2000/svg">
<path d="M24.7609 7.53124C24.7609 7.53124 24.5266 5.47265 23.8047 4.56873C22.8906 3.37906 21.8688 3.37323 21.4 3.30325C18.0438 3 13.0047 3 13.0047 3H12.9953C12.9953 3 7.95625 3 4.6 3.30325C4.13125 3.37323 3.10938 3.37906 2.19531 4.56873C1.47344 5.47265 1.24375 7.53124 1.24375 7.53124C1.24375 7.53124 1 9.9514 1 12.3657V14.6284C1 17.0428 1.23906 19.4629 1.23906 19.4629C1.23906 19.4629 1.47344 21.5215 2.19062 22.4254C3.10469 23.6151 4.30469 23.5743 4.83906 23.7026C6.76094 23.93 13 24 13 24C13 24 18.0438 23.9883 21.4 23.6909C21.8688 23.6209 22.8906 23.6151 23.8047 22.4254C24.5266 21.5215 24.7609 19.4629 24.7609 19.4629C24.7609 19.4629 25 17.0486 25 14.6284V12.3657C25 9.9514 24.7609 7.53124 24.7609 7.53124ZM10.5203 17.3752V8.98334L17.0031 13.1938L10.5203 17.3752Z" stroke="white" stroke-width="1.5"/>
</svg>
