<svg width="34" height="33" viewBox="0 0 34 33" fill="none" xmlns="http://www.w3.org/2000/svg">
<path d="M14.6934 3.30371C15.4394 1.0967 18.5606 1.0967 19.3066 3.30371L20.9678 8.21875C21.6079 10.1128 23.3845 11.3877 25.3838 11.3877H30.4531C32.8349 11.3879 33.8002 14.4553 31.8477 15.8193L27.9893 18.5146C26.2911 19.701 25.579 21.8657 26.2422 23.8281L27.7725 28.3555C28.5245 30.582 25.997 32.4768 24.0703 31.1309L19.6699 28.0566C18.0665 26.9365 15.9335 26.9365 14.3301 28.0566L9.92969 31.1309C8.003 32.4768 5.47548 30.582 6.22754 28.3555L7.75781 23.8281C8.42096 21.8657 7.70889 19.701 6.01074 18.5146L2.15234 15.8193C0.19978 14.4553 1.16512 11.3879 3.54688 11.3877H8.61621C10.6155 11.3877 12.3921 10.1128 13.0322 8.21875L14.6934 3.30371Z" stroke="#505050" stroke-width="2.2263"/>
</svg>
