<svg width="21" height="20" viewBox="0 0 21 20" fill="none" xmlns="http://www.w3.org/2000/svg">
<path d="M17.1667 5H3.83341C2.91294 5 2.16675 5.74619 2.16675 6.66667V13.3333C2.16675 14.2538 2.91294 15 3.83341 15H17.1667C18.0872 15 18.8334 14.2538 18.8334 13.3333V6.66667C18.8334 5.74619 18.0872 5 17.1667 5Z" stroke="white" stroke-width="1.5" stroke-linecap="round" stroke-linejoin="round"/>
<path d="M10.4999 11.6666C11.4204 11.6666 12.1666 10.9205 12.1666 9.99998C12.1666 9.07951 11.4204 8.33331 10.4999 8.33331C9.57944 8.33331 8.83325 9.07951 8.83325 9.99998C8.83325 10.9205 9.57944 11.6666 10.4999 11.6666Z" stroke="white" stroke-width="2" stroke-linecap="round" stroke-linejoin="round"/>
<path d="M5.5 10H5.50833M15.5 10H15.5083" stroke="white" stroke-width="2" stroke-linecap="round" stroke-linejoin="round"/>
</svg>
