<svg width="33" height="34" viewBox="0 0 33 34" fill="none" xmlns="http://www.w3.org/2000/svg">
<g clip-path="url(#clip0_3010_23366)">
<path d="M18.2188 4.28125H21.6562C22.2033 4.28125 22.7279 4.49855 23.1147 4.88534C23.5015 5.27214 23.7188 5.79674 23.7188 6.34375M17.9438 26.8175L12.8287 27.5463L13.5575 22.5L26.6887 9.3825C27.2752 8.83602 28.0509 8.53851 28.8524 8.55265C29.6539 8.56679 30.4186 8.89148 30.9854 9.45831C31.5523 10.0251 31.877 10.7899 31.8911 11.5913C31.9052 12.3928 31.6077 13.1685 31.0613 13.755L17.9438 26.8175ZM7.5625 1.53125H17.1875C17.1875 1.53125 18.2188 1.53125 18.2188 2.5625V6C18.2188 6 18.2188 7.03125 17.1875 7.03125H7.5625C7.5625 7.03125 6.53125 7.03125 6.53125 6V2.5625C6.53125 2.5625 6.53125 1.53125 7.5625 1.53125Z" stroke="#25BAFF" stroke-width="2" stroke-linecap="round" stroke-linejoin="round"/>
<path d="M23.7188 26.2812V30.4062C23.7188 30.9533 23.5015 31.4779 23.1147 31.8647C22.7279 32.2515 22.2033 32.4688 21.6562 32.4688H3.09375C2.54674 32.4688 2.02214 32.2515 1.63534 31.8647C1.24855 31.4779 1.03125 30.9533 1.03125 30.4062V6.34375C1.03125 5.79674 1.24855 5.27214 1.63534 4.88534C2.02214 4.49855 2.54674 4.28125 3.09375 4.28125H6.53125M7.21875 12.5312H16.8438M7.21875 18.7188H10.6562" stroke="#25BAFF" stroke-width="2" stroke-linecap="round" stroke-linejoin="round"/>
</g>
<defs>
<clipPath id="clip0_3010_23366">
<rect width="33" height="33" fill="white" transform="translate(0 0.5)"/>
</clipPath>
</defs>
</svg>
