<svg width="79" height="37" viewBox="0 0 79 37" fill="none" xmlns="http://www.w3.org/2000/svg">
<g clip-path="url(#clip0_1290_7291)">
<path d="M28.297 29.8022H16.576V21.9883H14.6225V29.8022H8.76208V21.9883H6.80859V29.8022C6.80859 30.3203 7.01441 30.8172 7.38076 31.1836C7.74711 31.5499 8.24398 31.7557 8.76208 31.7557H28.297C28.8151 31.7557 29.3119 31.5499 29.6783 31.1836C30.0446 30.8172 30.2505 30.3203 30.2505 29.8022V21.9883H28.297V29.8022Z" fill="white"/>
<path d="M33.9531 13.4607L29.9679 5.49044C29.8062 5.16497 29.5569 4.89108 29.248 4.69955C28.9392 4.50802 28.583 4.40644 28.2196 4.40625H8.84096C8.47753 4.40644 8.12136 4.50802 7.8125 4.69955C7.50363 4.89108 7.25432 5.16497 7.09259 5.49044L3.10748 13.4607C2.97141 13.7337 2.90116 14.0347 2.90236 14.3397V17.3481C2.90147 17.8045 3.06043 18.2469 3.35166 18.5983C3.78207 19.0917 4.31366 19.4867 4.91028 19.7563C5.50691 20.026 6.1546 20.1641 6.80934 20.1611C7.87767 20.1628 8.91342 19.7934 9.73957 19.116C10.5657 19.7938 11.6012 20.1642 12.6698 20.1642C13.7384 20.1642 14.7739 19.7938 15.6 19.116C16.4262 19.7938 17.4617 20.1642 18.5303 20.1642C19.5988 20.1642 20.6344 19.7938 21.4605 19.116C22.2866 19.7938 23.3222 20.1642 24.3907 20.1642C25.4593 20.1642 26.4948 19.7938 27.321 19.116C28.2432 19.8732 29.423 20.2434 30.6125 20.1486C31.802 20.0539 32.9084 19.5017 33.6991 18.6081C33.9938 18.258 34.1563 17.8155 34.1582 17.3579V14.3397C34.1594 14.0347 34.0891 13.7337 33.9531 13.4607ZM15.6 14.5644V16.049L14.7991 17.1039C14.5532 17.439 14.2319 17.7116 13.8611 17.8994C13.4904 18.0872 13.0806 18.1851 12.6649 18.1851C12.2493 18.1851 11.8395 18.0872 11.4687 17.8994C11.0979 17.7116 10.7766 17.439 10.5307 17.1039L9.73957 16.01V14.5644L12.2693 6.35974H16.5768L15.6 14.5644ZM27.321 16.01L26.5298 17.1039C26.2839 17.439 25.9626 17.7116 25.5918 17.8994C25.221 18.0872 24.8113 18.1851 24.3956 18.1851C23.98 18.1851 23.5702 18.0872 23.1994 17.8994C22.8286 17.7116 22.5073 17.439 22.2614 17.1039L21.4605 16.01V14.5644L20.4838 6.35974H24.8303L27.321 14.5644V16.01Z" fill="white"/>
</g>
<path fill-rule="evenodd" clip-rule="evenodd" d="M66.3105 6.767C66.333 6.7945 66.3538 6.823 66.3728 6.8525L66.3735 6.854L66.3758 6.85775L66.3825 6.869L66.4065 6.90875C66.4285 6.94375 66.4583 6.99325 66.4958 7.05725C66.9562 7.84962 67.3709 8.66771 67.7378 9.5075C68.4068 11.045 69.1133 13.1203 69.1133 15.0973C69.1133 17.3345 67.602 18.575 66.273 19.2155C65.6104 19.5304 64.911 19.7609 64.191 19.9018C63.0828 20.9309 61.6257 21.5018 60.1133 21.4993C59.2115 21.5 58.3211 21.2972 57.5086 20.9059C56.696 20.5146 55.9823 19.945 55.4205 19.2395L55.386 19.2365C55.223 19.2217 55.0606 19.2001 54.8993 19.172C54.3892 19.0848 53.8926 18.9321 53.4218 18.7175C52.8743 18.4625 52.2923 18.071 51.8468 17.4703C51.3945 16.8605 51.1133 16.076 51.1133 15.0973C51.1133 13.247 52.0148 11.1448 52.8428 9.58325C53.3405 8.64679 53.893 7.74047 54.4973 6.869L54.5213 6.83525L54.5303 6.821L54.5963 6.7235C54.6525 6.64325 54.7328 6.536 54.8408 6.41C55.1335 6.07249 55.4659 5.77156 55.8308 5.51375C56.7398 4.86575 58.1423 4.25 60.1538 4.25C62.16 4.25 63.6878 4.86275 64.7168 5.48225C65.2305 5.792 65.6198 6.1025 65.8845 6.34025C66.0286 6.47098 66.1663 6.60864 66.297 6.75275L66.3045 6.76175L66.3083 6.7655L66.3105 6.767ZM55.791 7.634L55.755 7.6895L55.7535 7.691L55.7475 7.6985L55.7228 7.7345C55.6998 7.766 55.6668 7.8135 55.6238 7.877C55.0943 8.65257 54.6081 9.4568 54.1673 10.286C53.3543 11.8205 52.6133 13.6415 52.6133 15.0965C52.6133 15.7708 52.8008 16.238 53.0513 16.5763C53.3093 16.9228 53.6655 17.1763 54.0555 17.3578C54.2408 17.444 54.4283 17.5123 54.6068 17.5655C54.4639 16.9219 54.3565 16.2709 54.285 15.6155C54.2003 14.81 54.1755 13.9168 54.327 13.127C54.4763 12.353 54.828 11.5213 55.6335 11.0885C56.7053 10.5133 58.5188 9.74375 60.1178 9.2135C60.915 8.94875 61.6928 8.732 62.3145 8.633C62.6198 8.585 62.9333 8.558 63.2093 8.58575C63.4253 8.60825 63.873 8.69 64.1205 9.09575C66.1305 11.9975 66.1605 14.6563 65.6513 16.598C65.5043 17.1598 65.3138 17.657 65.1173 18.08C65.2838 18.017 65.4518 17.945 65.6213 17.864C66.7088 17.339 67.6133 16.5035 67.6133 15.0965C67.6133 13.43 67.0058 11.582 66.3623 10.106C66.0196 9.32182 65.6325 8.55783 65.2028 7.81775L65.1323 7.6985L65.1143 7.67975L65.106 7.67075C65.034 7.59645 64.9595 7.52466 64.8825 7.4555C64.5917 7.19717 64.2774 6.96666 63.9435 6.767C63.1058 6.26225 61.842 5.75 60.1545 5.75C58.4715 5.75 57.3705 6.25925 56.7 6.73625C56.4346 6.92332 56.1926 7.14164 55.9793 7.3865C55.9137 7.46383 55.8522 7.54444 55.7948 7.628L55.791 7.634ZM56.1705 17.6705L56.1143 17.4328C55.9637 16.7823 55.851 16.1237 55.7768 15.4603C55.6988 14.7155 55.689 13.9903 55.8008 13.4105C55.9148 12.8165 56.1233 12.5293 56.343 12.4108C57.3233 11.8843 59.055 11.147 60.5903 10.6378C61.3598 10.3828 62.0468 10.1953 62.5493 10.1158C62.739 10.0858 62.8785 10.0745 62.973 10.0753C64.6215 12.5263 64.6043 14.678 64.2 16.2185C64.0243 16.8809 63.7585 17.516 63.4103 18.1063C63.2823 18.3234 63.1408 18.5324 62.9865 18.7318L62.9813 18.7385L62.9655 18.758L62.9625 18.761L62.9618 18.7618C62.8755 18.8626 62.8176 18.9845 62.7938 19.115C62.2781 19.4977 61.6866 19.7655 61.0588 19.9005C60.431 20.0355 59.7816 20.0346 59.1543 19.8977C58.5269 19.7609 57.9361 19.4913 57.4216 19.1072C56.907 18.723 56.48 18.2331 56.1705 17.6705Z" fill="white"/>
<path fill-rule="evenodd" clip-rule="evenodd" d="M55.5488 22.141C55.3898 21.8245 55.194 21.4338 54.8633 21.5095C50.8103 22.432 46.6133 25.096 46.6133 27.9273V31.9998H73.6133V27.9273C73.6133 25.6968 71.0093 23.5713 67.923 22.3173L67.9125 22.297L67.9088 22.2895L67.884 22.3015C67.0643 21.9715 66.2108 21.7015 65.3633 21.5095C64.986 21.4233 64.596 21.9423 64.4258 22.267H55.6133L55.5488 22.141ZM65.6655 23.1318C65.9935 23.2223 66.3188 23.324 66.6413 23.437C66.6503 23.6935 66.6308 23.9958 66.5888 24.3048C66.5463 24.6248 66.4781 24.9408 66.3848 25.2498H65.3633C65.224 25.2499 65.0876 25.2887 64.9691 25.362C64.8507 25.4352 64.755 25.54 64.6928 25.6645L63.9428 27.1645C63.8906 27.2686 63.8634 27.3834 63.8633 27.4998V28.9998C63.8633 29.1987 63.9423 29.3895 64.083 29.5301C64.2236 29.6708 64.4144 29.7498 64.6133 29.7498H66.1133V28.2498H65.3633V27.6768L65.8268 26.7498H67.8998L68.3633 27.6768V28.2498H67.6133V29.7498H69.1133C69.3122 29.7498 69.503 29.6708 69.6436 29.5301C69.7843 29.3895 69.8633 29.1987 69.8633 28.9998V27.4998C69.8632 27.3834 69.8359 27.2686 69.7838 27.1645L69.0338 25.6645C68.9715 25.54 68.8759 25.4352 68.7574 25.362C68.639 25.2887 68.5025 25.2499 68.3633 25.2498H67.9388C68.0305 24.8529 68.0926 24.4498 68.1248 24.0438C68.856 24.3888 69.5355 24.7848 70.1243 25.2138C71.5658 26.2668 72.1133 27.2508 72.1133 27.9273V30.4998H48.1133V27.9273C48.1133 27.25 48.6608 26.266 50.1023 25.2145C50.8268 24.6858 51.6915 24.2073 52.6185 23.8113C52.6444 24.4089 52.7403 25.0015 52.9043 25.5768L52.9103 25.5978C52.4619 25.8814 52.1282 26.3144 51.9681 26.8203C51.808 27.3261 51.8318 27.8722 52.0353 28.3622C52.2388 28.8522 52.6089 29.2545 53.0802 29.4981C53.5516 29.7417 54.0939 29.8109 54.6113 29.6934C55.1287 29.576 55.5879 29.2795 55.9079 28.8562C56.2279 28.433 56.3881 27.9104 56.3601 27.3805C56.3321 26.8507 56.1177 26.3478 55.7549 25.9607C55.3921 25.5735 54.9042 25.3271 54.3773 25.2648L54.3443 25.1568C54.265 24.8774 54.2061 24.5927 54.168 24.3048C54.126 24.014 54.1084 23.7202 54.1155 23.4265C54.118 23.3635 54.1218 23.3075 54.1268 23.2585C54.2168 23.2305 54.3068 23.2038 54.3968 23.1783L54.708 23.7678H65.331L65.6655 23.1318ZM54.1133 28.261C54.5168 28.261 54.8633 27.931 54.8633 27.4998C54.8633 27.0693 54.5168 26.7385 54.1133 26.7385C53.7098 26.7385 53.3633 27.0685 53.3633 27.4998C53.3633 27.9303 53.7098 28.261 54.1133 28.261Z" fill="white"/>
<defs>
<clipPath id="clip0_1290_7291">
<rect width="35.1628" height="35.1628" fill="white" transform="translate(0.949219 0.5)"/>
</clipPath>
</defs>
</svg>
