<svg width="36" height="36" viewBox="0 0 36 36" fill="none" xmlns="http://www.w3.org/2000/svg">
<g clip-path="url(#clip0_1290_7272)">
<path d="M27.7657 29.3022H16.0448V21.4883H14.0913V29.3022H8.23083V21.4883H6.27734V29.3022C6.27734 29.8203 6.48316 30.3172 6.84951 30.6836C7.21586 31.0499 7.71273 31.2557 8.23083 31.2557H27.7657C28.2838 31.2557 28.7807 31.0499 29.147 30.6836C29.5134 30.3172 29.7192 29.8203 29.7192 29.3022V21.4883H27.7657V29.3022Z" fill="white"/>
<path d="M33.4218 12.9607L29.4367 4.99044C29.275 4.66497 29.0257 4.39108 28.7168 4.19955C28.4079 4.00802 28.0517 3.90644 27.6883 3.90625H8.30971C7.94628 3.90644 7.59011 4.00802 7.28125 4.19955C6.97238 4.39108 6.72307 4.66497 6.56134 4.99044L2.57623 12.9607C2.44016 13.2337 2.36991 13.5347 2.37111 13.8397V16.8481C2.37022 17.3045 2.52918 17.7469 2.82041 18.0983C3.25082 18.5917 3.78241 18.9867 4.37903 19.2563C4.97566 19.526 5.62335 19.6641 6.27809 19.6611C7.34642 19.6628 8.38217 19.2934 9.20832 18.616C10.0345 19.2938 11.07 19.6642 12.1385 19.6642C13.2071 19.6642 14.2426 19.2938 15.0688 18.616C15.8949 19.2938 16.9304 19.6642 17.999 19.6642C19.0676 19.6642 20.1031 19.2938 20.9292 18.616C21.7554 19.2938 22.7909 19.6642 23.8595 19.6642C24.928 19.6642 25.9636 19.2938 26.7897 18.616C27.7119 19.3732 28.8918 19.7434 30.0812 19.6486C31.2707 19.5539 32.3771 19.0017 33.1678 18.1081C33.4626 17.758 33.6251 17.3155 33.6269 16.8579V13.8397C33.6281 13.5347 33.5579 13.2337 33.4218 12.9607ZM15.0688 14.0644V15.549L14.2679 16.6039C14.022 16.939 13.7007 17.2116 13.3299 17.3994C12.9591 17.5872 12.5493 17.6851 12.1337 17.6851C11.718 17.6851 11.3082 17.5872 10.9375 17.3994C10.5667 17.2116 10.2453 16.939 9.99948 16.6039L9.20832 15.51V14.0644L11.7381 5.85974H16.0455L15.0688 14.0644ZM26.7897 15.51L25.9985 16.6039C25.7527 16.939 25.4313 17.2116 25.0606 17.3994C24.6898 17.5872 24.28 17.6851 23.8644 17.6851C23.4487 17.6851 23.0389 17.5872 22.6682 17.3994C22.2974 17.2116 21.976 16.939 21.7302 16.6039L20.9292 15.51V14.0644L19.9525 5.85974H24.299L26.7897 14.0644V15.51Z" fill="white"/>
</g>
<defs>
<clipPath id="clip0_1290_7272">
<rect width="35.1628" height="35.1628" fill="white" transform="translate(0.417969)"/>
</clipPath>
</defs>
</svg>
