<svg width="34" height="35" viewBox="0 0 34 35" fill="none" xmlns="http://www.w3.org/2000/svg">
<g clip-path="url(#clip0_3394_3403)">
<path d="M0.498047 9.08766V2.08113C0.498047 1.48281 0.982812 0.998047 1.58113 0.998047H32.4189C33.0172 0.998047 33.502 1.48281 33.502 2.08113V20.0082M0.498047 11.4119V28.8508C0.498047 29.4491 0.982812 29.9339 1.58113 29.9339H8.82207M21.1942 29.9339H11.1463" stroke="#090707" stroke-width="0.996094" stroke-miterlimit="10" stroke-linecap="round" stroke-linejoin="round"/>
<path d="M33.3218 5.22461H0.678131" stroke="#090707" stroke-width="0.996094" stroke-miterlimit="10" stroke-linecap="round" stroke-linejoin="round"/>
<circle cx="7.32529" cy="3.11133" r="0.498047" fill="#090707"/>
<circle cx="5.05948" cy="3.11133" r="0.498047" fill="#090707"/>
<circle cx="2.7937" cy="3.11133" r="0.498047" fill="#090707"/>
<path d="M28.0978 8.67676H29.4645C29.8835 8.67676 30.2228 9.01676 30.2228 9.43578V13.3889C30.2228 13.808 29.8835 14.1473 29.4645 14.1473H25.0146" stroke="#090707" stroke-width="0.996094" stroke-miterlimit="10" stroke-linecap="round" stroke-linejoin="round"/>
<path d="M21.845 14.1473H17.7896C17.3706 14.1473 17.0312 13.808 17.0312 13.3889V9.43578C17.0312 9.01676 17.3706 8.67676 17.7896 8.67676H25.7736" stroke="#090707" stroke-width="0.996094" stroke-miterlimit="10" stroke-linecap="round" stroke-linejoin="round"/>
<path d="M21.8173 22.0642L21.2272 22.4777C20.4789 23.0021 20.0332 23.8585 20.0332 24.7723V26.6124C20.0332 27.7927 20.4754 28.9302 21.2725 29.8006L21.5328 30.1332C22.0657 30.8144 22.3553 31.6543 22.3553 32.5193V34.0019" stroke="#090707" stroke-width="0.996094" stroke-miterlimit="10" stroke-linecap="round" stroke-linejoin="round"/>
<path d="M27.7453 18.9198C27.7453 18.1251 28.3895 17.481 29.1842 17.481H29.1843C29.979 17.481 30.6231 18.1252 30.6231 18.9198V21.4715" stroke="#090707" stroke-width="0.996094" stroke-miterlimit="10" stroke-linecap="round" stroke-linejoin="round"/>
<path d="M24.8675 18.2226C24.8675 17.4279 25.5117 16.7837 26.3064 16.7837C27.1011 16.7837 27.7453 17.4279 27.7453 18.2226V21.0789" stroke="#090707" stroke-width="0.996094" stroke-miterlimit="10" stroke-linecap="round" stroke-linejoin="round"/>
<path d="M30.6232 20.0095C30.6232 19.2145 31.2676 18.5701 32.0626 18.5701C32.8572 18.5701 33.5015 19.2139 33.502 20.0084V24.8043C33.502 25.9125 33.2084 27.001 32.6511 27.9589C32.647 27.966 32.6428 27.9731 32.6387 27.9803C32.0649 28.974 31.7761 30.1067 31.7761 31.2542V34.0019" stroke="#090707" stroke-width="0.996094" stroke-miterlimit="10" stroke-linecap="round" stroke-linejoin="round"/>
<path d="M24.8678 21.0787V18.2226V12.4087C24.8678 12.0116 24.7065 11.6517 24.4461 11.3914C24.1858 11.1311 23.8259 10.9697 23.4288 10.9697C22.6339 10.9697 21.9898 11.6145 21.9898 12.4087V16.5133" stroke="#090707" stroke-width="0.996094" stroke-miterlimit="10" stroke-linecap="round" stroke-linejoin="round"/>
<path d="M21.9898 25.0378V18.8374" stroke="#090707" stroke-width="0.996094" stroke-miterlimit="10" stroke-linecap="round" stroke-linejoin="round"/>
<path d="M9.654 12.2027C9.59251 12.1376 9.12295 11.6751 8.39102 11.8955C7.66892 12.1131 7.44553 12.9815 7.95361 13.5669C8.21691 13.8703 8.65931 13.9696 9.23066 14.1715C10.5094 14.6236 10.0367 16.427 8.73594 16.4357C8.22833 16.439 7.99099 16.4068 7.54507 16.1151" stroke="#090707" stroke-width="0.996094" stroke-miterlimit="10" stroke-linecap="round" stroke-linejoin="round"/>
<path d="M8.7645 16.5132V17.2601" stroke="#090707" stroke-width="0.996094" stroke-miterlimit="10" stroke-linecap="round" stroke-linejoin="round"/>
<path d="M8.7645 11.0129V11.7599" stroke="#090707" stroke-width="0.996094" stroke-miterlimit="10" stroke-linecap="round" stroke-linejoin="round"/>
<path d="M8.76449 19.5959C11.7797 19.5959 14.2241 17.1516 14.2241 14.1363C14.2241 11.1211 11.7797 8.67676 8.76449 8.67676C5.74924 8.67676 3.3049 11.1211 3.3049 14.1363C3.3049 17.1516 5.74924 19.5959 8.76449 19.5959Z" stroke="#090707" stroke-width="0.996094" stroke-miterlimit="10" stroke-linecap="round" stroke-linejoin="round"/>
<path d="M14.2241 21.8911H3.30498V20.2598C3.30498 19.893 3.60228 19.5957 3.96904 19.5957H13.56C13.9268 19.5957 14.2241 19.893 14.2241 20.2598V21.8911Z" stroke="#090707" stroke-width="0.996094" stroke-miterlimit="10" stroke-linecap="round" stroke-linejoin="round"/>
<path d="M14.2241 21.8911H3.30498V24.1864H14.2241V21.8911Z" stroke="#090707" stroke-width="0.996094" stroke-miterlimit="10" stroke-linecap="round" stroke-linejoin="round"/>
<path d="M13.56 26.4819H3.96904C3.60228 26.4819 3.30498 26.1846 3.30498 25.8178V24.1865H14.2241V25.8178C14.2241 26.1846 13.9267 26.4819 13.56 26.4819Z" stroke="#090707" stroke-width="0.996094" stroke-miterlimit="10" stroke-linecap="round" stroke-linejoin="round"/>
</g>
<defs>
<clipPath id="clip0_3394_3403">
<rect width="34" height="34" fill="white" transform="translate(0 0.5)"/>
</clipPath>
</defs>
</svg>
