<svg width="24" height="24" viewBox="0 0 24 24" fill="none" xmlns="http://www.w3.org/2000/svg">
<circle cx="12" cy="12" r="11.5" fill="#BBA9D1" stroke="#493D57"/>
<path d="M6.70948 13.4281C6.41885 12.8031 6.77823 12.4375 7.20323 12.4375C7.62823 12.4375 7.95323 12.9 8.56885 13.3219C9.26476 13.7626 9.98347 14.1663 10.722 14.5313" fill="#BBA9D1"/>
<path d="M6.70948 13.4281C6.41885 12.8031 6.77823 12.4375 7.20323 12.4375C7.62823 12.4375 7.95323 12.9 8.56885 13.3219C9.26476 13.7626 9.98347 14.1663 10.722 14.5313" stroke="#493D57" stroke-width="0.625"/>
<path d="M18.6405 14.7248C18.9862 15.1687 19.1514 15.7268 19.103 16.2873C19.0211 16.8931 18.7747 17.4649 18.3905 17.9404C18.2624 18.0654 13.6436 17.4779 12.5624 17.2654C11.4811 17.0529 6.26552 14.7592 6.06552 14.6248C5.86552 14.4904 5.84677 13.6498 6.41864 13.4717C6.99052 13.2936 8.24989 14.1436 9.39677 14.3311C10.7105 14.5088 12.0337 14.6069 13.3593 14.6248C14.1343 14.6248 12.5218 13.9498 12.1405 13.7998C11.7593 13.6498 11.1405 13.5279 11.0124 13.1248C10.8843 12.7217 11.2999 12.4248 11.6374 12.4248C12.2648 12.5172 12.8814 12.6721 13.478 12.8873C14.3189 12.8617 15.1561 13.0095 15.9374 13.3217C16.5785 13.596 17.0975 14.0949 17.3968 14.7248C17.4999 14.9373 18.528 14.6248 18.6405 14.7248Z" fill="white" stroke="#493D57" stroke-width="0.625"/>
<path d="M9.48743 7.32161C9.16392 7.00388 8.72761 6.82741 8.27418 6.83093C7.82075 6.83444 7.38722 7.01765 7.06868 7.34036C6.7478 7.66523 6.56579 8.10214 6.56113 8.55874C6.55646 9.01534 6.7295 9.45588 7.04368 9.78724L9.68743 12.4372L12.3218 9.78411C12.515 9.58623 12.6586 9.34553 12.7412 9.08162C12.8237 8.81771 12.8428 8.53803 12.7968 8.26536C12.7531 7.99362 12.6453 7.73621 12.4823 7.51447C12.3192 7.29273 12.1057 7.11306 11.8593 6.99036C11.6215 6.86897 11.3575 6.8078 11.0906 6.81224C10.8644 6.81387 10.6408 6.86027 10.4327 6.94877C10.2246 7.03727 10.0361 7.16611 9.87805 7.32786L9.67806 7.51849L9.48743 7.32161Z" fill="#DF704D" stroke="#77280C" stroke-width="0.625" stroke-linecap="round" stroke-linejoin="round"/>
</svg>
