<svg width="50" height="51" viewBox="0 0 50 51" fill="none" xmlns="http://www.w3.org/2000/svg">
<g clip-path="url(#clip0_1775_6370)">
<path d="M12.5 14.5625C12.9315 14.5625 13.2812 14.0378 13.2812 13.3906C13.2812 12.7434 12.9315 12.2188 12.5 12.2188C12.0685 12.2188 11.7188 12.7434 11.7188 13.3906C11.7188 14.0378 12.0685 14.5625 12.5 14.5625Z" fill="#0C6E9F"/>
<path d="M18.75 14.5625C19.1815 14.5625 19.5312 14.0378 19.5312 13.3906C19.5312 12.7434 19.1815 12.2188 18.75 12.2188C18.3185 12.2188 17.9688 12.7434 17.9688 13.3906C17.9688 14.0378 18.3185 14.5625 18.75 14.5625Z" fill="#0C6E9F"/>
<path d="M17.1875 6.74999C17.3947 6.74994 17.5934 6.6676 17.7399 6.52108L18.5211 5.73983C18.5957 5.66776 18.6552 5.58156 18.6962 5.48624C18.7371 5.39092 18.7587 5.28841 18.7596 5.18468C18.7605 5.08094 18.7407 4.97807 18.7014 4.88205C18.6622 4.78604 18.6041 4.69881 18.5308 4.62546C18.4574 4.55211 18.3702 4.4941 18.2742 4.45481C18.1782 4.41553 18.0753 4.39577 17.9716 4.39667C17.8678 4.39757 17.7653 4.41912 17.67 4.46006C17.5747 4.50101 17.4885 4.56053 17.4164 4.63514L16.6352 5.41639C16.5259 5.52565 16.4516 5.66484 16.4214 5.81637C16.3913 5.96789 16.4068 6.12495 16.4659 6.26769C16.525 6.41042 16.6251 6.53242 16.7536 6.61827C16.882 6.70412 17.033 6.74995 17.1875 6.74999Z" fill="#0C6E9F"/>
<path d="M49.2188 0.5H28.125C27.7106 0.5 27.3132 0.66462 27.0201 0.957646C26.7271 1.25067 26.5625 1.6481 26.5625 2.0625V22.375C26.5625 22.7894 26.7271 23.1868 27.0201 23.4799C27.3132 23.7729 27.7106 23.9375 28.125 23.9375H37.2398L37.1516 27.15C36.575 27.1856 36.031 27.4297 35.6211 27.8367L34.65 28.8078L30.0594 32.0891L27.8125 27.1531C27.5968 26.6807 27.2895 26.2559 26.9083 25.9032C26.5272 25.5505 26.0798 25.2769 25.5922 25.0984L18.75 22.6094V20.8516C19.6813 20.3875 20.4983 19.7231 21.1424 18.9059C21.7864 18.0886 22.2415 17.139 22.475 16.125H22.6563C23.2067 16.1266 23.74 15.934 24.1624 15.5811C24.5848 15.2281 24.8691 14.7375 24.9653 14.1956C25.0616 13.6536 24.9636 13.0951 24.6885 12.6183C24.4135 12.1415 23.979 11.7771 23.4617 11.5891C23.6997 11.3713 23.8898 11.1065 24.0202 10.8115C24.1505 10.5164 24.2181 10.1975 24.2188 9.875V8.38125C24.2207 6.65365 23.7092 4.96444 22.7492 3.52813C22.1643 2.65298 21.3347 1.96935 20.3639 1.56244C19.3931 1.15553 18.324 1.04333 17.2898 1.23984L15.9742 0.582032C15.8658 0.527971 15.7462 0.499887 15.625 0.5H14.2234C12.1094 0.502482 10.0826 1.34344 8.58783 2.83838C7.09304 4.33332 6.25227 6.36016 6.25 8.47422V10.6562C6.25 10.8635 6.33231 11.0622 6.47882 11.2087C6.62534 11.3552 6.82405 11.4375 7.03125 11.4375H8.59375C7.97215 11.4375 7.37601 11.6844 6.93647 12.124C6.49693 12.5635 6.25 13.1596 6.25 13.7812C6.25 14.4029 6.49693 14.999 6.93647 15.4385C7.37601 15.8781 7.97215 16.125 8.59375 16.125H8.775C9.00849 17.139 9.46359 18.0886 10.1076 18.9059C10.7517 19.7231 11.5687 20.3875 12.5 20.8516V22.6094L5.65391 25.0984C5.16626 25.2769 4.71889 25.5505 4.33776 25.9032C3.95662 26.2559 3.64929 26.6807 3.43359 27.1531L0.210938 34.2438C0.0716823 34.548 -0.000268387 34.8787 7.52273e-07 35.2133V42.6875C7.52273e-07 43.3091 0.246931 43.9052 0.686469 44.3448C1.12601 44.7843 1.72215 45.0312 2.34375 45.0312H3.68125L3.13438 49.6258C3.12127 49.7351 3.13143 49.846 3.16418 49.9511C3.19693 50.0563 3.25155 50.1533 3.32443 50.2358C3.39732 50.3184 3.48683 50.3846 3.5871 50.4301C3.68737 50.4756 3.79613 50.4995 3.90625 50.5H27.3438C27.4542 50.5 27.5634 50.4766 27.6641 50.4313C27.7649 50.386 27.8549 50.3199 27.9282 50.2373C28.0015 50.1547 28.0564 50.0575 28.0894 49.9521C28.1224 49.8467 28.1327 49.7354 28.1195 49.6258L27.1586 41.6156C27.6128 42.1306 28.2408 42.4602 28.9227 42.5414C29.0347 42.5545 29.1474 42.561 29.2602 42.5609C29.921 42.5619 30.561 42.3301 31.068 41.9062L38.782 35.4773C38.7922 35.4688 38.7969 35.4563 38.807 35.4477C38.8172 35.4391 38.8258 35.4375 38.8336 35.4297L42.3492 31.9141C42.8075 31.456 43.0808 30.8451 43.1167 30.1981C43.1526 29.5512 42.9486 28.9137 42.5438 28.4078L41.5898 27.2156C41.5259 27.142 41.4573 27.0725 41.3844 27.0078L41.1977 23.9375H49.2188C49.4259 23.9375 49.6247 23.8552 49.7712 23.7087C49.9177 23.5622 50 23.3635 50 23.1562C50 22.949 49.9177 22.7503 49.7712 22.6038C49.6247 22.4573 49.4259 22.375 49.2188 22.375H41.1023L40.6703 15.282C40.6466 14.8703 40.4647 14.4838 40.1625 14.2031C39.8604 13.9225 39.4614 13.7696 39.0491 13.7764C38.6368 13.7831 38.2431 13.949 37.9503 14.2394C37.6575 14.5298 37.4883 14.9221 37.4781 15.3344L37.2836 22.375H28.125V2.0625H49.2188C49.4259 2.0625 49.6247 1.98019 49.7712 1.83368C49.9177 1.68716 50 1.48845 50 1.28125C50 1.07405 49.9177 0.875336 49.7712 0.728823C49.6247 0.58231 49.4259 0.5 49.2188 0.5ZM19.5313 45.8125H14.0625C13.8553 45.8125 13.6566 45.8948 13.5101 46.0413C13.3636 46.1878 13.2813 46.3866 13.2813 46.5938C13.2813 46.8009 13.3636 46.9997 13.5101 47.1462C13.6566 47.2927 13.8553 47.375 14.0625 47.375H19.5313V48.9375H11.7188V45.0312C12.1332 45.0312 12.5306 44.8666 12.8236 44.5736C13.1166 44.2806 13.2813 43.8832 13.2813 43.4688V39.5625C13.2813 39.1481 13.1166 38.7507 12.8236 38.4576C12.5306 38.1646 12.1332 38 11.7188 38V34.1898L13.1109 28.5891L13.1242 28.593L12.5039 34.7969C12.489 34.9438 12.5161 35.092 12.582 35.2242L14.9258 39.9117C14.9906 40.0417 15.0903 40.1511 15.2138 40.2275C15.3374 40.304 15.4797 40.3445 15.625 40.3445C15.7703 40.3445 15.9126 40.304 16.0362 40.2275C16.1597 40.1511 16.2594 40.0417 16.3242 39.9117L18.668 35.2242C18.7352 35.0924 18.7637 34.9442 18.75 34.7969L18.125 28.593L18.1383 28.5891L19.5313 34.1898V45.8125ZM8.59375 39.5625H11.7188V43.4688H8.59375V39.5625ZM14.1344 25.8859L13.3461 26.6719L11.6664 24.5727L12.693 24.1992C12.951 24.9188 13.4638 25.5189 14.1344 25.8859ZM17.1695 34.7281L15.625 37.8156L14.0805 34.7281L14.8125 27.4172L15.625 26.6047L16.4375 27.4172L17.1695 34.7281ZM17.9039 26.6742L17.1156 25.8859C17.7858 25.5195 18.2986 24.9203 18.557 24.2016L19.5836 24.575L17.9039 26.6742ZM22.6563 14.5625V13C22.8635 13 23.0622 13.0823 23.2087 13.2288C23.3552 13.3753 23.4375 13.574 23.4375 13.7812C23.4375 13.9885 23.3552 14.1872 23.2087 14.3337C23.0622 14.4802 22.8635 14.5625 22.6563 14.5625ZM7.8125 9.875V8.47422C7.81457 6.7745 8.49064 5.14497 9.69246 3.94301C10.8943 2.74105 12.5237 2.06477 14.2234 2.0625H15.4406L16.8383 2.76563C17.0051 2.84817 17.1959 2.86893 17.3766 2.82422C18.1349 2.63598 18.9328 2.68613 19.6616 2.96783C20.3904 3.24954 21.0146 3.7491 21.4492 4.39844C22.2368 5.57734 22.6569 6.96345 22.6563 8.38125V9.875C22.6563 10.0822 22.5739 10.2809 22.4274 10.4274C22.2809 10.5739 22.0822 10.6562 21.875 10.6562H20.8414L20.2945 9.29219C20.0759 8.74798 19.6526 8.31122 19.1154 8.07574C18.5783 7.84026 17.9702 7.82485 17.4219 8.03281C17.2353 7.76901 16.9932 7.54929 16.7126 7.38908C16.432 7.22887 16.1197 7.13206 15.7977 7.10547C15.4585 7.07603 15.1171 7.12403 14.7992 7.24583C14.4813 7.36764 14.1952 7.56006 13.9625 7.80859C13.2622 8.50978 12.4225 9.05605 11.4976 9.41202C10.5728 9.76799 9.58344 9.92573 8.59375 9.875H7.8125ZM7.8125 13.7812C7.8125 13.574 7.89481 13.3753 8.04132 13.2288C8.18784 13.0823 8.38655 13 8.59375 13V14.5625C8.38655 14.5625 8.18784 14.4802 8.04132 14.3337C7.89481 14.1872 7.8125 13.9885 7.8125 13.7812ZM10.1563 14.5625V11.318C12.0321 11.0948 13.7746 10.235 15.093 8.88203C15.1643 8.80383 15.2528 8.74324 15.3514 8.70501C15.4501 8.66679 15.5563 8.65197 15.6617 8.66172C15.7614 8.66977 15.8579 8.7005 15.9439 8.75154C16.0298 8.80259 16.103 8.87261 16.1578 8.95625L16.5375 9.52656C16.6015 9.6228 16.6861 9.70364 16.7851 9.76324C16.8842 9.82285 16.9952 9.85974 17.1102 9.87124C17.2252 9.88275 17.3414 9.8686 17.4502 9.8298C17.5591 9.791 17.658 9.72852 17.7398 9.64688C17.8189 9.5676 17.9165 9.50924 18.0237 9.47706C18.1309 9.44487 18.2445 9.43987 18.3542 9.46249C18.4638 9.48512 18.5661 9.53467 18.6519 9.60668C18.7376 9.67869 18.8041 9.7709 18.8453 9.875L19.5867 11.7297C19.6451 11.8743 19.7454 11.9982 19.8747 12.0854C20.004 12.1725 20.1565 12.219 20.3125 12.2188H21.0938V14.5625C21.0938 16.0129 20.5176 17.4039 19.492 18.4295C18.4664 19.4551 17.0754 20.0312 15.625 20.0312C14.1746 20.0312 12.7836 19.4551 11.758 18.4295C10.7324 17.4039 10.1563 16.0129 10.1563 14.5625ZM15.625 21.5938C16.151 21.5922 16.6751 21.5314 17.1875 21.4125V23.1562C17.1875 23.5707 17.0229 23.9681 16.7299 24.2611C16.4368 24.5541 16.0394 24.7188 15.625 24.7188C15.2106 24.7188 14.8132 24.5541 14.5201 24.2611C14.2271 23.9681 14.0625 23.5707 14.0625 23.1562V21.4125C14.5749 21.5314 15.099 21.5922 15.625 21.5938ZM1.5625 42.6875V35.2133C1.56278 35.1017 1.58675 34.9915 1.63281 34.8898L4.85547 27.7992C4.985 27.5159 5.16952 27.261 5.39831 27.0495C5.6271 26.838 5.89562 26.6741 6.18828 26.5672L10.1164 25.1383L11.8266 27.2766L10.1789 33.9055C10.1639 33.9671 10.1563 34.0303 10.1563 34.0938V38H6.09922L7.02578 30.2805C7.05044 30.0747 6.99235 29.8676 6.8643 29.7047C6.73625 29.5418 6.54872 29.4364 6.34297 29.4117C6.13722 29.3871 5.9301 29.4451 5.76718 29.5732C5.60426 29.7013 5.49888 29.8888 5.47422 30.0945L4.73281 36.2664L4.55625 36.0008C4.44125 35.8284 4.26249 35.7087 4.05927 35.6682C3.85606 35.6276 3.64505 35.6694 3.47266 35.7844C3.30027 35.8994 3.18062 36.0781 3.14003 36.2814C3.09945 36.4846 3.14125 36.6956 3.25625 36.868L4.81875 39.2117C4.88976 39.3193 4.98627 39.4076 5.09968 39.4688C5.21309 39.53 5.33988 39.5622 5.46875 39.5625H7.03125V43.4688H2.34375C2.13655 43.4688 1.93784 43.3864 1.79132 43.2399C1.64481 43.0934 1.5625 42.8947 1.5625 42.6875ZM5.25547 45.0312H10.1563V48.9375H4.78672L5.25547 45.0312ZM30.0672 40.7031C29.9354 40.8153 29.7817 40.8987 29.6158 40.9481C29.4499 40.9975 29.2756 41.0117 29.1039 40.9898C28.9324 40.9703 28.7668 40.9157 28.6172 40.8296C28.4677 40.7435 28.3374 40.6276 28.2344 40.4891L26.7969 38.568L25.7812 30.0945C25.7566 29.8888 25.6512 29.7013 25.4883 29.5732C25.3254 29.4451 25.1183 29.3871 24.9125 29.4117C24.7068 29.4364 24.5192 29.5418 24.3912 29.7047C24.2631 29.8676 24.205 30.0747 24.2297 30.2805L26.4633 48.9375H21.0938V34.0938C21.0937 34.0303 21.0861 33.9671 21.0711 33.9055L19.4234 27.2766L21.1336 25.1383L25.0617 26.5672C25.3544 26.6741 25.6229 26.838 25.8517 27.0495C26.0805 27.261 26.265 27.5159 26.3945 27.7992L29.7578 35.1984C29.7988 35.2941 29.8584 35.3806 29.9333 35.4529C30.0082 35.5252 30.0967 35.5818 30.1937 35.6194C30.2908 35.657 30.3944 35.6749 30.4984 35.6719C30.6024 35.6689 30.7048 35.6452 30.7995 35.6021C30.8943 35.559 30.9794 35.4974 31.05 35.4209C31.1206 35.3445 31.1752 35.2547 31.2106 35.1568C31.2461 35.0589 31.2616 34.955 31.2562 34.8511C31.2509 34.7471 31.2249 34.6453 31.1797 34.5516L30.718 33.5359L34.907 30.5438L37.2781 34.6938L30.0672 40.7031ZM41.2445 30.807L38.4523 33.5992L36.1305 29.5367L36.7258 28.9414C36.8102 28.8539 36.9132 28.7864 37.0272 28.7439C37.1412 28.7015 37.2632 28.6851 37.3844 28.6961C37.5055 28.7038 37.6235 28.7379 37.7301 28.7959C37.8367 28.8539 37.9293 28.9345 38.0016 29.032L38.8125 30.1141L38.5102 30.4164C38.4355 30.4885 38.376 30.5747 38.3351 30.67C38.2941 30.7653 38.2726 30.8678 38.2717 30.9716C38.2708 31.0753 38.2905 31.1782 38.3298 31.2742C38.3691 31.3702 38.4271 31.4574 38.5005 31.5308C38.5738 31.6041 38.6611 31.6621 38.7571 31.7014C38.8531 31.7407 38.956 31.7605 39.0597 31.7596C39.1634 31.7587 39.2659 31.7371 39.3613 31.6962C39.4566 31.6552 39.5428 31.5957 39.6148 31.5211L40.3961 30.7398C40.5291 30.6069 40.6096 30.4304 40.623 30.2429C40.6363 30.0553 40.5816 29.8692 40.4688 29.7188L39.2508 28.0945C39.2391 28.0789 39.2234 28.0672 39.2109 28.0516C39.3635 27.9239 39.5593 27.8598 39.7578 27.8727C39.8767 27.8785 39.993 27.9098 40.0988 27.9643C40.2046 28.0189 40.2974 28.0956 40.3711 28.1891L41.325 29.3812C41.4894 29.5871 41.5722 29.8464 41.5573 30.1095C41.5425 30.3726 41.4311 30.621 41.2445 30.807ZM39.1109 15.3766L39.7773 26.3141C39.4205 26.3045 39.0662 26.3755 38.7406 26.5219L39.1109 15.3766Z" fill="#0C6E9F"/>
<path d="M49.2188 3.625H30.4688C30.2615 3.625 30.0628 3.70731 29.9163 3.85382C29.7698 4.00034 29.6875 4.19905 29.6875 4.40625V20.0312C29.6875 20.2385 29.7698 20.4372 29.9163 20.5837C30.0628 20.7302 30.2615 20.8125 30.4688 20.8125H35.0055C35.2127 20.8125 35.4114 20.7302 35.5579 20.5837C35.7044 20.4372 35.7867 20.2385 35.7867 20.0312C35.7867 19.824 35.7044 19.6253 35.5579 19.4788C35.4114 19.3323 35.2127 19.25 35.0055 19.25H31.25V5.1875H49.2188C49.426 5.1875 49.6247 5.10519 49.7712 4.95868C49.9177 4.81216 50 4.61345 50 4.40625C50 4.19905 49.9177 4.00034 49.7712 3.85382C49.6247 3.70731 49.426 3.625 49.2188 3.625Z" fill="#0C6E9F"/>
<path d="M43.3024 20.8125H49.2188C49.426 20.8125 49.6247 20.7302 49.7712 20.5837C49.9177 20.4372 50 20.2385 50 20.0312C50 19.824 49.9177 19.6253 49.7712 19.4788C49.6247 19.3323 49.426 19.25 49.2188 19.25H43.3024C43.0952 19.25 42.8965 19.3323 42.7499 19.4788C42.6034 19.6253 42.5211 19.824 42.5211 20.0312C42.5211 20.2385 42.6034 20.4372 42.7499 20.5837C42.8965 20.7302 43.0952 20.8125 43.3024 20.8125Z" fill="#0C6E9F"/>
<path d="M33.5938 8.3125H46.0938C46.301 8.3125 46.4997 8.23019 46.6462 8.08368C46.7927 7.93716 46.875 7.73845 46.875 7.53125C46.875 7.32405 46.7927 7.12534 46.6462 6.97882C46.4997 6.83231 46.301 6.75 46.0938 6.75H33.5938C33.3865 6.75 33.1878 6.83231 33.0413 6.97882C32.8948 7.12534 32.8125 7.32405 32.8125 7.53125C32.8125 7.73845 32.8948 7.93716 33.0413 8.08368C33.1878 8.23019 33.3865 8.3125 33.5938 8.3125Z" fill="#0C6E9F"/>
<path d="M33.5938 11.4375H46.0938C46.301 11.4375 46.4997 11.3552 46.6462 11.2087C46.7927 11.0622 46.875 10.8635 46.875 10.6562C46.875 10.449 46.7927 10.2503 46.6462 10.1038C46.4997 9.95731 46.301 9.875 46.0938 9.875H33.5938C33.3865 9.875 33.1878 9.95731 33.0413 10.1038C32.8948 10.2503 32.8125 10.449 32.8125 10.6562C32.8125 10.8635 32.8948 11.0622 33.0413 11.2087C33.1878 11.3552 33.3865 11.4375 33.5938 11.4375Z" fill="#0C6E9F"/>
</g>
<defs>
<clipPath id="clip0_1775_6370">
<rect width="50" height="50" fill="white" transform="translate(0 0.5)"/>
</clipPath>
</defs>
</svg>
