<svg width="37" height="36" viewBox="0 0 37 36" fill="none" xmlns="http://www.w3.org/2000/svg">
<rect x="1" y="0.5" width="35" height="35" rx="17.5" fill="#1D2935"/>
<rect x="1" y="0.5" width="35" height="35" rx="17.5" stroke="#25BAFF"/>
<path d="M27.5006 9L21.0006 27C20.9567 27.0957 20.8862 27.1769 20.7976 27.2338C20.709 27.2906 20.6059 27.3209 20.5006 27.3209C20.3952 27.3209 20.2921 27.2906 20.2035 27.2338C20.1149 27.1769 20.0444 27.0957 20.0006 27L16.5006 20L9.50056 16.5C9.40482 16.4561 9.32369 16.3857 9.2668 16.2971C9.20992 16.2084 9.17969 16.1053 9.17969 16C9.17969 15.8947 9.20992 15.7916 9.2668 15.7029C9.32369 15.6143 9.40482 15.5439 9.50056 15.5L27.5006 9Z" stroke="#25BAFF" stroke-linecap="round" stroke-linejoin="round"/>
</svg>
