<svg width="20" height="21" viewBox="0 0 20 21" fill="none" xmlns="http://www.w3.org/2000/svg">
<g clip-path="url(#clip0_36_2822)">
<path d="M2 18L6.53333 6.66667M17.8667 18L15.6 12.3333M9.93333 18V16.8667M9.93333 13.4667V12.3333M9.93333 8.93333V7.8M15.6 1C16.5017 1 17.3665 1.35821 18.0042 1.99584C18.6418 2.63346 19 3.49826 19 4.4C19 5.85142 16.9691 8.61373 16.0465 9.79316C15.9935 9.86099 15.9258 9.91586 15.8484 9.95359C15.771 9.99133 15.6861 10.0109 15.6 10.0109C15.5139 10.0109 15.429 9.99133 15.3516 9.95359C15.2742 9.91586 15.2065 9.86099 15.1535 9.79316C14.2309 8.61298 12.2 5.85142 12.2 4.4C12.2 3.49826 12.5582 2.63346 13.1958 1.99584C13.8335 1.35821 14.6983 1 15.6 1Z" stroke="#303030" stroke-linecap="round" stroke-linejoin="round"/>
<path d="M15.625 5.1875C15.5421 5.1875 15.4626 5.15458 15.404 5.09597C15.3454 5.03737 15.3125 4.95788 15.3125 4.875C15.3125 4.79212 15.3454 4.71263 15.404 4.65403C15.4626 4.59542 15.5421 4.5625 15.625 4.5625M15.625 5.1875C15.7079 5.1875 15.7874 5.15458 15.846 5.09597C15.9046 5.03737 15.9375 4.95788 15.9375 4.875C15.9375 4.79212 15.9046 4.71263 15.846 4.65403C15.7874 4.59542 15.7079 4.5625 15.625 4.5625" stroke="#303030" stroke-width="1.5"/>
</g>
<defs>
<clipPath id="clip0_36_2822">
<rect width="20" height="20" fill="white" transform="translate(0 0.5)"/>
</clipPath>
</defs>
</svg>
