<svg width="33" height="33" viewBox="0 0 33 33" fill="none" xmlns="http://www.w3.org/2000/svg">
<path d="M8.16624 30.038H6.83398V28.7636M18.8243 30.038H20.1565M14.8275 30.038H16.1598M10.8308 30.038H12.163M6.83398 21.1169V22.3913M6.83398 24.9402V26.2147M25.4856 31.3125L30.8146 23.0286V17.9308L25.4856 14.7446L20.1565 17.9308V23.0286L25.4856 31.3125Z" stroke="#25BAFF" stroke-width="1.375" stroke-miterlimit="10" stroke-linecap="round" stroke-linejoin="round"/>
<path d="M28.1451 22.0726L25.4806 23.6657L22.8161 22.0726V19.5237L25.4806 17.9306L28.1451 19.5237V22.0726ZM6.82902 18.5679L12.158 10.2839V5.18613L6.82902 2L1.5 5.18613V10.2839L6.82902 18.5679Z" stroke="#25BAFF" stroke-width="1.375" stroke-miterlimit="10" stroke-linecap="round" stroke-linejoin="round"/>
<path d="M9.48332 9.328L6.81881 10.9211L4.1543 9.328V6.7791L6.81881 5.18604L9.48332 6.7791V9.328Z" stroke="#25BAFF" stroke-width="1.375" stroke-miterlimit="10" stroke-linecap="round" stroke-linejoin="round"/>
</svg>
