<svg width="24" height="24" viewBox="0 0 24 24" fill="none" xmlns="http://www.w3.org/2000/svg">
<path d="M3.00041 9.08281C3.00041 9.32248 3.04761 9.55979 3.13933 9.78121C3.23104 10.0026 3.36547 10.2038 3.53494 10.3733C3.7044 10.5427 3.90559 10.6772 4.12701 10.7689C4.34843 10.8606 4.58574 10.9078 4.82541 10.9078C5.06507 10.9078 5.30238 10.8606 5.5238 10.7689C5.74522 10.6772 5.94641 10.5427 6.11588 10.3733C6.28534 10.2038 6.41977 10.0026 6.51149 9.78121C6.6032 9.55979 6.65041 9.32248 6.65041 9.08281C6.65041 8.59879 6.45813 8.1346 6.11588 7.79234C5.77362 7.45009 5.30943 7.25781 4.82541 7.25781C4.34139 7.25781 3.87719 7.45009 3.53494 7.79234C3.19268 8.1346 3.00041 8.59879 3.00041 9.08281ZM3.00041 15.7307C2.99529 15.9735 3.03869 16.215 3.12809 16.4408C3.21748 16.6667 3.35106 16.8724 3.521 17.0459C3.69094 17.2195 3.89381 17.3574 4.11773 17.4515C4.34164 17.5457 4.5821 17.5942 4.825 17.5942C5.0679 17.5942 5.30836 17.5457 5.53227 17.4515C5.75619 17.3574 5.95906 17.2195 6.129 17.0459C6.29894 16.8724 6.43252 16.6667 6.52191 16.4408C6.61131 16.215 6.65472 15.9735 6.64959 15.7307C6.63953 15.2534 6.44288 14.7991 6.1018 14.4652C5.76071 14.1312 5.30236 13.9442 4.825 13.9442C4.34764 13.9442 3.88929 14.1312 3.5482 14.4652C3.20712 14.7991 3.01047 15.2534 3.00041 15.7307Z" stroke="white" stroke-linecap="round" stroke-linejoin="round"/>
<path d="M4.28125 10.8248L10.2762 14.3783L13.6837 16.3971M4.28125 13.9906L7.78282 11.9149M10.281 12.125V4.21667C10.281 3.89399 10.4092 3.58452 10.6374 3.35635C10.8656 3.12818 11.175 3 11.4977 3H21.231V13.95M10.281 16.9917V20.0333C10.281 20.356 10.4092 20.6655 10.6374 20.8936C10.8656 21.1218 11.175 21.25 11.4977 21.25H21.231V13.95M13.931 10.3V3M13.931 21.25V18.8167M10.281 6.65H13.931M21.231 13.95H15.1477M10.281 10.3H21.231" stroke="white" stroke-linecap="round" stroke-linejoin="round"/>
</svg>
