<svg width="20" height="21" viewBox="0 0 20 21" fill="none" xmlns="http://www.w3.org/2000/svg">
<path d="M9.31201 3.59961H10.688C11.2092 3.59961 11.7092 3.80573 12.0776 4.17188C12.446 4.53811 12.6528 5.03505 12.6528 5.55273V6.33691H14.8179C15.3391 6.33697 15.8392 6.54297 16.2075 6.90918C16.5756 7.27529 16.7826 7.77167 16.7827 8.28906V14.4473C16.7827 14.9649 16.5759 15.4619 16.2075 15.8281C15.8392 16.1943 15.3391 16.4003 14.8179 16.4004H5.18213C4.66096 16.4003 4.16083 16.1943 3.79248 15.8281C3.42415 15.4619 3.21729 14.9649 3.21729 14.4473V8.28906C3.21739 7.77168 3.42439 7.27529 3.79248 6.90918C4.16083 6.54298 4.66096 6.33698 5.18213 6.33691H7.34717V5.55273C7.34717 5.03505 7.55397 4.53811 7.92236 4.17188C8.29076 3.80571 8.79082 3.59961 9.31201 3.59961ZM4.39404 14.4473C4.39404 14.6554 4.4776 14.8549 4.62549 15.002C4.77329 15.1489 4.97338 15.2314 5.18213 15.2314H14.8179C15.0266 15.2314 15.2267 15.1489 15.3745 15.002C15.5224 14.8549 15.606 14.6554 15.606 14.4473V10.8926H13.3413V11.7109C13.3412 11.8654 13.2794 12.0136 13.1694 12.123C13.0593 12.2326 12.9095 12.2948 12.7534 12.2949C12.5972 12.2949 12.4467 12.2327 12.3364 12.123C12.2265 12.0136 12.1647 11.8654 12.1646 11.7109V10.8926H7.83545V11.7109C7.83534 11.8654 7.77351 12.0136 7.66357 12.123C7.55341 12.2326 7.40359 12.2948 7.24756 12.2949C7.09136 12.2949 6.94084 12.2327 6.83057 12.123C6.72064 12.0136 6.6588 11.8654 6.65869 11.7109V10.8926H4.39404V14.4473ZM5.18213 7.50488C4.97351 7.50495 4.77327 7.58763 4.62549 7.73438C4.4777 7.8813 4.39415 8.08104 4.39404 8.28906V9.75781H15.606V8.28906C15.6058 8.08104 15.5223 7.8813 15.3745 7.73438C15.2267 7.58763 15.0265 7.50493 14.8179 7.50488H5.18213ZM9.31201 4.76855C9.10315 4.76855 8.90226 4.85104 8.75439 4.99805C8.60663 5.14505 8.52393 5.34465 8.52393 5.55273V6.33691H11.4761V5.55273C11.4761 5.34464 11.3934 5.14505 11.2456 4.99805C11.0977 4.85104 10.8969 4.76855 10.688 4.76855H9.31201Z" fill="#303030" stroke="white" stroke-width="0.2"/>
</svg>
