<svg width="18" height="12" viewBox="0 0 18 12" fill="none" xmlns="http://www.w3.org/2000/svg">
<path d="M16.9682 5.81831C16.3409 4.19567 15.2519 2.79242 13.8358 1.78197C12.4196 0.771527 10.7384 0.198187 9 0.132812C7.26156 0.198187 5.58038 0.771527 4.16424 1.78197C2.7481 2.79242 1.65908 4.19567 1.03177 5.81831C0.989409 5.93549 0.989409 6.0638 1.03177 6.18098C1.65908 7.80362 2.7481 9.20687 4.16424 10.2173C5.58038 11.2278 7.26156 11.8011 9 11.8665C10.7384 11.8011 12.4196 11.2278 13.8358 10.2173C15.2519 9.20687 16.3409 7.80362 16.9682 6.18098C17.0106 6.0638 17.0106 5.93549 16.9682 5.81831ZM9 10.7998C6.17325 10.7998 3.1865 8.70372 2.1038 5.99965C3.1865 3.29557 6.17325 1.19951 9 1.19951C11.8267 1.19951 14.8135 3.29557 15.8962 5.99965C14.8135 8.70372 11.8267 10.7998 9 10.7998Z" fill="#303030" stroke="#303030" stroke-width="0.2"/>
<path d="M8.9999 2.80078C8.36698 2.80078 7.74827 2.98846 7.22202 3.34009C6.69577 3.69172 6.28561 4.19151 6.0434 4.77625C5.80119 5.36099 5.73782 6.00442 5.86129 6.62518C5.98477 7.24594 6.28955 7.81614 6.73709 8.26368C7.18463 8.71122 7.75483 9.016 8.37559 9.13947C8.99635 9.26295 9.63978 9.19958 10.2245 8.95737C10.8093 8.71516 11.309 8.305 11.6607 7.77875C12.0123 7.2525 12.2 6.63379 12.2 6.00087C12.2 5.15216 11.8628 4.3382 11.2627 3.73807C10.6626 3.13793 9.84861 2.80078 8.9999 2.80078ZM8.9999 8.13427C8.57795 8.13427 8.16548 8.00914 7.81465 7.77472C7.46381 7.5403 7.19037 7.20711 7.0289 6.81729C6.86743 6.42746 6.82518 5.99851 6.9075 5.58467C6.98981 5.17083 7.193 4.7907 7.49136 4.49233C7.78972 4.19397 8.16985 3.99079 8.58369 3.90847C8.99753 3.82615 9.42648 3.8684 9.81631 4.02987C10.2061 4.19134 10.5393 4.46479 10.7737 4.81562C11.0082 5.16646 11.1333 5.57893 11.1333 6.00087C11.1333 6.56668 10.9085 7.10932 10.5084 7.50941C10.1083 7.9095 9.56571 8.13427 8.9999 8.13427Z" fill="#303030"/>
</svg>
