<svg width="24" height="24" viewBox="0 0 24 24" fill="none" xmlns="http://www.w3.org/2000/svg">
<path d="M20.9 8.31579H15.0074L16.1865 4.77158C16.3986 4.13158 16.2915 3.42211 15.8978 2.87474C15.504 2.32737 14.8656 2 14.1926 2H12.5C12.1881 2 11.8931 2.13895 11.6925 2.37895L6.75755 8.31579H4.1C2.94185 8.31579 2 9.26 2 10.4211V19.8947C2 21.0558 2.94185 22 4.1 22H18.0723C18.4996 21.9986 18.9163 21.8672 19.2675 21.6232C19.6186 21.3793 19.8877 21.0342 20.039 20.6337L22.9338 12.8958C22.9778 12.7776 23.0002 12.6525 23 12.5263V10.4211C23 9.26 22.0581 8.31579 20.9 8.31579ZM4.1 10.4211H6.2V19.8947H4.1V10.4211ZM20.9 12.3358L18.0723 19.8947H8.3V9.74947L12.9914 4.10526H14.1947L12.5546 9.03474C12.5014 9.19296 12.4865 9.36164 12.5113 9.52677C12.5361 9.6919 12.5997 9.84873 12.697 9.98426C12.7944 10.1198 12.9225 10.2301 13.0708 10.3061C13.2192 10.382 13.3834 10.4214 13.55 10.4211H20.9V12.3358Z" fill="white"/>
</svg>
