<svg width="22" height="26" viewBox="0 0 22 26" fill="none" xmlns="http://www.w3.org/2000/svg">
<path d="M0.5 25V3.50219C0.5 2.7889 0.770083 2.19381 1.31025 1.7169C1.85042 1.24 2.523 1.00103 3.328 1H18.6737C19.4787 1 20.1513 1.23897 20.6915 1.7169C21.2317 2.19484 21.5012 2.78994 21.5 3.50219V25L11 21.0098L0.5 25ZM2.25 22.6L11 19.271L19.75 22.6V3.50219C19.75 3.26374 19.638 3.0449 19.414 2.84568C19.19 2.64645 18.9427 2.54735 18.672 2.54839H3.328C3.0585 2.54839 2.81117 2.64748 2.586 2.84568C2.36083 3.04387 2.24883 3.26271 2.25 3.50219V22.6Z" fill="#505050"/>
<path d="M2.25 2.54839H19.75M0.5 25V3.50219C0.5 2.7889 0.770083 2.19381 1.31025 1.7169C1.85042 1.24 2.523 1.00103 3.328 1H18.6737C19.4787 1 20.1513 1.23897 20.6915 1.7169C21.2317 2.19484 21.5012 2.78994 21.5 3.50219V25L11 21.0098L0.5 25ZM2.25 22.6L11 19.271L19.75 22.6V3.50219C19.75 3.26374 19.638 3.0449 19.414 2.84568C19.19 2.64645 18.9427 2.54735 18.672 2.54839H3.328C3.0585 2.54839 2.81117 2.64748 2.586 2.84568C2.36083 3.04387 2.24883 3.26271 2.25 3.50219V22.6Z" stroke="#505050" stroke-width="0.5"/>
</svg>
