<svg width="25" height="25" viewBox="0 0 25 25" fill="none" xmlns="http://www.w3.org/2000/svg">
<path d="M12.3833 16.077V7.427L10.0533 9.757L9.3453 9.039L12.8833 5.5L16.4223 9.039L15.7143 9.758L13.3833 7.427V16.077H12.3833ZM7.4993 19.5C7.03863 19.5 6.6543 19.346 6.3463 19.038C6.0383 18.73 5.88397 18.3453 5.8833 17.884V15.461H6.8833V17.884C6.8833 18.038 6.9473 18.1793 7.0753 18.308C7.2033 18.4367 7.3443 18.5007 7.4983 18.5H18.2683C18.4216 18.5 18.5626 18.436 18.6913 18.308C18.82 18.18 18.884 18.0387 18.8833 17.884V15.461H19.8833V17.884C19.8833 18.3447 19.7293 18.729 19.4213 19.037C19.1133 19.345 18.7286 19.4993 18.2673 19.5H7.4993Z" fill="white"/>
</svg>
