<svg width="42" height="42" viewBox="0 0 42 42" fill="none" xmlns="http://www.w3.org/2000/svg">
<path d="M35.56 6.43995C35.56 5.84587 35.324 5.27611 34.9039 4.85603C34.4838 4.43595 33.9141 4.19995 33.32 4.19995H6.44C5.84591 4.19995 5.27616 4.43595 4.85608 4.85603C4.436 5.27611 4.2 5.84587 4.2 6.43995V26.6C4.2 27.194 4.436 27.7638 4.85608 28.1839C5.27616 28.604 5.84591 28.84 6.44 28.84H21.0286C21.0162 29.0259 21 29.2107 21 29.4C20.9969 30.7687 21.3283 32.1175 21.9654 33.3289C22.6025 34.5404 23.526 35.5778 24.6556 36.3508C25.7851 37.1239 27.0864 37.6093 28.4463 37.7647C29.8062 37.9201 31.1835 37.7408 32.4583 37.2424C33.7331 36.7441 34.8669 35.9418 35.7608 34.9053C36.6548 33.8688 37.282 32.6295 37.5877 31.2954C37.8935 29.9612 37.8686 28.5725 37.5152 27.2502C37.1618 25.9278 36.4906 24.7119 35.56 23.7081V6.43995ZM22.6957 24.36H5.32V8.67995H34.44V22.6956C33.5611 22.0298 32.5592 21.5445 31.4919 21.2676C30.4246 20.9908 29.313 20.9279 28.2213 21.0826C27.1296 21.2373 26.0793 21.6066 25.131 22.169C24.1826 22.7315 23.3549 23.4761 22.6957 24.36ZM6.44 5.31995H33.32C33.617 5.31995 33.9019 5.43795 34.112 5.64799C34.322 5.85803 34.44 6.14291 34.44 6.43995V7.55995H5.32V6.43995C5.32 6.14291 5.438 5.85803 5.64804 5.64799C5.85808 5.43795 6.14295 5.31995 6.44 5.31995ZM6.44 27.72C6.14295 27.72 5.85808 27.602 5.64804 27.3919C5.438 27.1819 5.32 26.897 5.32 26.6V25.48H21.9761C21.601 26.1841 21.3289 26.9385 21.168 27.72H6.44ZM29.4 36.68C27.9601 36.68 26.5526 36.253 25.3554 35.4531C24.1583 34.6531 23.2252 33.5161 22.6742 32.1859C22.1231 30.8556 21.979 29.3919 22.2599 27.9797C22.5408 26.5675 23.2341 25.2703 24.2523 24.2522C25.2704 23.2341 26.5676 22.5407 27.9797 22.2598C29.3919 21.9789 30.8557 22.1231 32.1859 22.6741C33.5162 23.2251 34.6532 24.1582 35.4531 25.3554C36.253 26.5526 36.68 27.9601 36.68 29.4C36.6778 31.33 35.9101 33.1805 34.5453 34.5452C33.1805 35.91 31.3301 36.6777 29.4 36.68Z" fill="#505050" stroke="#505050" stroke-width="1.05"/>
<path d="M24.92 16.52C24.9222 16.1919 24.8456 15.8681 24.6967 15.5758C24.5478 15.2835 24.3309 15.0311 24.0643 14.84L19.0013 11.2705C18.7198 11.0675 18.3871 10.9471 18.0408 10.9231C17.6944 10.899 17.3483 10.9722 17.0413 11.1345C16.7115 11.3084 16.436 11.5699 16.2452 11.8904C16.0544 12.2108 15.9557 12.5776 15.96 12.9505V20.0894C15.9557 20.4621 16.0543 20.8288 16.2448 21.1491C16.4354 21.4694 16.7106 21.7309 17.0402 21.9049C17.3471 22.0675 17.6933 22.1409 18.0397 22.1169C18.3861 22.0928 18.7188 21.9723 19.0002 21.7689L24.0643 18.2C24.3309 18.0089 24.5478 17.7565 24.6967 17.4642C24.8456 17.1718 24.9222 16.848 24.92 16.52ZM23.4186 17.2838L18.3562 20.8533C18.2418 20.9373 18.1059 20.9872 17.9642 20.9971C17.8226 21.007 17.681 20.9765 17.556 20.9093C17.4082 20.8304 17.2854 20.7119 17.2013 20.5671C17.1172 20.4223 17.0752 20.2568 17.08 20.0894V12.9505C17.0749 12.7829 17.1167 12.6171 17.2008 12.4719C17.2849 12.3267 17.408 12.208 17.556 12.129C17.681 12.0617 17.8226 12.0312 17.9642 12.0411C18.1059 12.051 18.2418 12.1009 18.3562 12.185L23.4186 15.7545C23.537 15.8435 23.6331 15.9589 23.6992 16.0915C23.7654 16.224 23.7998 16.3702 23.7998 16.5183C23.7998 16.6665 23.7654 16.8126 23.6992 16.9451C23.6331 17.0777 23.537 17.1931 23.4186 17.2821V17.2838Z" fill="#505050" stroke="#505050" stroke-width="1.05"/>
<path d="M29.7959 24.5242C29.6909 24.4192 29.5485 24.3602 29.4 24.3602C29.2515 24.3602 29.1091 24.4192 29.0041 24.5242L26.7641 26.7642C26.6621 26.8698 26.6056 27.0113 26.6069 27.1581C26.6082 27.3049 26.6671 27.4454 26.7709 27.5492C26.8747 27.653 27.0152 27.7119 27.162 27.7132C27.3088 27.7145 27.4503 27.658 27.5559 27.556L28.84 26.272V33.8801C28.84 34.0286 28.899 34.1711 29.004 34.2761C29.109 34.3811 29.2515 34.4401 29.4 34.4401C29.5485 34.4401 29.691 34.3811 29.796 34.2761C29.901 34.1711 29.96 34.0286 29.96 33.8801V26.272L31.2441 27.556C31.3497 27.658 31.4911 27.7145 31.638 27.7132C31.7848 27.7119 31.9253 27.653 32.0291 27.5492C32.1329 27.4454 32.1918 27.3049 32.1931 27.1581C32.1944 27.0113 32.1379 26.8698 32.0359 26.7642L29.7959 24.5242Z" fill="#505050" stroke="#505050" stroke-width="1.05"/>
</svg>
