<svg width="40" height="40" viewBox="0 0 40 40" fill="none" xmlns="http://www.w3.org/2000/svg">
<path d="M20.0008 22.1665C21.7942 22.1654 23.5598 22.3766 25.2986 22.7993C27.038 23.2222 28.7529 23.8539 30.4432 24.6968C31.163 25.0704 31.7404 25.6099 32.1795 26.3247C32.6169 27.0367 32.8347 27.8135 32.8338 28.6655V29.9995C32.8338 30.7825 32.561 31.4412 32.0018 32.0015C31.4429 32.5613 30.7847 32.8344 30.0008 32.8335H9.99982C9.21697 32.8334 8.55976 32.5603 8.00079 32.0015C7.44173 31.4424 7.16782 30.784 7.16681 29.9995V28.6665C7.16681 27.8129 7.38571 27.0356 7.82306 26.3247C8.2634 25.6091 8.84158 25.0677 9.56329 24.6929C11.2513 23.8494 12.9641 23.2194 14.701 22.7993C16.4403 22.3786 18.2069 22.1676 20.0008 22.1665ZM19.9998 7.1665C21.6995 7.1665 23.1428 7.76549 24.3553 8.97803C25.5678 10.1906 26.1668 11.6338 26.1668 13.3335C26.1667 15.0329 25.5676 16.4756 24.3553 17.688C23.1428 18.9005 21.6995 19.4995 19.9998 19.4995C18.3003 19.4994 16.8578 18.9004 15.6453 17.688C14.4329 16.4755 13.8339 15.033 13.8338 13.3335C13.8338 11.6338 14.4328 10.1906 15.6453 8.97803C16.8577 7.76568 18.3004 7.16658 19.9998 7.1665Z" stroke="#2399F5"/>
</svg>
