<svg width="21" height="24" viewBox="0 0 21 24" fill="none" xmlns="http://www.w3.org/2000/svg">
<path d="M17.5 14C18.2956 14 19.0587 14.3161 19.6213 14.8787C20.1839 15.4413 20.5 16.2044 20.5 17V17.715C20.5 21.292 16.29 24 10.5 24C4.71 24 0.5 21.433 0.5 17.715V17C0.5 16.2044 0.816071 15.4413 1.37868 14.8787C1.94129 14.3161 2.70435 14 3.5 14H17.5ZM17.5 15.5H3.5C3.12727 15.5 2.7679 15.6388 2.49189 15.8892C2.21589 16.1397 2.04303 16.484 2.007 16.855L2 17V17.715C2 20.389 5.389 22.5 10.5 22.5C15.426 22.5 18.855 20.395 18.996 17.876L19 17.715V17C19 16.6273 18.8612 16.2679 18.6108 15.9919C18.3603 15.7159 18.016 15.543 17.645 15.507L17.5 15.5ZM10.5 0C11.2879 -1.17411e-08 12.0681 0.155195 12.7961 0.456723C13.5241 0.758251 14.1855 1.20021 14.7426 1.75736C15.2998 2.31451 15.7417 2.97595 16.0433 3.7039C16.3448 4.43185 16.5 5.21207 16.5 6C16.5 6.78793 16.3448 7.56815 16.0433 8.2961C15.7417 9.02405 15.2998 9.68549 14.7426 10.2426C14.1855 10.7998 13.5241 11.2417 12.7961 11.5433C12.0681 11.8448 11.2879 12 10.5 12C8.9087 12 7.38258 11.3679 6.25736 10.2426C5.13214 9.11742 4.5 7.5913 4.5 6C4.5 4.4087 5.13214 2.88258 6.25736 1.75736C7.38258 0.632141 8.9087 2.37122e-08 10.5 0ZM10.5 1.5C9.30653 1.5 8.16193 1.97411 7.31802 2.81802C6.47411 3.66193 6 4.80653 6 6C6 7.19347 6.47411 8.33807 7.31802 9.18198C8.16193 10.0259 9.30653 10.5 10.5 10.5C11.6935 10.5 12.8381 10.0259 13.682 9.18198C14.5259 8.33807 15 7.19347 15 6C15 4.80653 14.5259 3.66193 13.682 2.81802C12.8381 1.97411 11.6935 1.5 10.5 1.5Z" fill="#FFC300"/>
</svg>
