<svg width="4" height="16" viewBox="0 0 4 16" fill="none" xmlns="http://www.w3.org/2000/svg">
<path d="M1.84809 4.44423C2.82587 4.44423 3.62587 3.64423 3.62587 2.66645C3.62587 1.68867 2.82587 0.888672 1.84809 0.888672C0.870312 0.888672 0.0703125 1.68867 0.0703125 2.66645C0.0703125 3.64423 0.870312 4.44423 1.84809 4.44423ZM1.84809 6.22201C0.870312 6.22201 0.0703125 7.02201 0.0703125 7.99978C0.0703125 8.97756 0.870312 9.77756 1.84809 9.77756C2.82587 9.77756 3.62587 8.97756 3.62587 7.99978C3.62587 7.02201 2.82587 6.22201 1.84809 6.22201ZM1.84809 11.5553C0.870312 11.5553 0.0703125 12.3553 0.0703125 13.3331C0.0703125 14.3109 0.870312 15.1109 1.84809 15.1109C2.82587 15.1109 3.62587 14.3109 3.62587 13.3331C3.62587 12.3553 2.82587 11.5553 1.84809 11.5553Z" fill="white"/>
</svg>
