<svg width="25" height="26" viewBox="0 0 25 26" fill="none" xmlns="http://www.w3.org/2000/svg">
<g filter="url(#filter0_d_20_9447)">
<path d="M19.5992 9L20.6714 10.3623C20.7752 10.4971 20.8559 10.6436 20.9135 10.8018C20.9712 10.96 21 11.127 21 11.3027C21 11.4785 20.9741 11.6455 20.9222 11.8037C20.8703 11.9619 20.7954 12.1055 20.6974 12.2344C20.5994 12.3633 20.4812 12.4746 20.3428 12.5684C20.2045 12.6621 20.0546 12.7324 19.8932 12.7793L18.2416 13.2451C18.2531 13.5439 18.2675 13.8457 18.2848 14.1504C18.3021 14.4551 18.3137 14.7598 18.3194 15.0645C18.3194 15.2754 18.282 15.4717 18.207 15.6533C18.1321 15.835 18.0254 15.9932 17.8871 16.1279C17.7487 16.2627 17.5902 16.3711 17.4115 16.4531C17.2328 16.5352 17.0368 16.5762 16.8235 16.5762C16.6448 16.5762 16.469 16.5439 16.296 16.4795L14.6963 15.8643L13.7538 17.3145C13.6155 17.5312 13.4368 17.6982 13.2177 17.8154C12.9986 17.9326 12.7594 17.9941 12.5 18C12.2464 18 12.01 17.9414 11.7909 17.8242C11.5719 17.707 11.3903 17.5371 11.2462 17.3145L10.3037 15.8643L8.70397 16.4795C8.53103 16.5439 8.35521 16.5762 8.1765 16.5762C7.96897 16.5762 7.77586 16.5381 7.59715 16.4619C7.41845 16.3857 7.25992 16.2773 7.12157 16.1367C6.98321 15.9961 6.87657 15.835 6.80163 15.6533C6.72669 15.4717 6.68633 15.2754 6.68057 15.0645C6.68057 14.7598 6.68922 14.4551 6.70651 14.1504C6.7238 13.8457 6.7411 13.5439 6.75839 13.2451L5.10682 12.7793C4.93964 12.7324 4.78976 12.6621 4.65717 12.5684C4.52458 12.4746 4.40929 12.3633 4.31129 12.2344C4.21329 12.1055 4.13835 11.9619 4.08647 11.8037C4.03459 11.6455 4.00576 11.4785 4 11.3027C4 11.1328 4.02882 10.9688 4.08647 10.8105C4.14412 10.6523 4.22482 10.5029 4.32859 10.3623L5.40081 9L4.32859 7.6377C4.10953 7.3623 4 7.04883 4 6.69727C4 6.52148 4.02594 6.35449 4.07782 6.19629C4.1297 6.03809 4.20465 5.89453 4.30264 5.76562C4.40064 5.63672 4.51594 5.52539 4.64852 5.43164C4.78111 5.33789 4.93388 5.26758 5.10682 5.2207L6.75839 4.75488C6.74686 4.45605 6.73245 4.1543 6.71516 3.84961C6.69786 3.54492 6.68633 3.24023 6.68057 2.93555C6.68057 2.72461 6.71804 2.52832 6.79298 2.34668C6.86792 2.16504 6.97457 2.00684 7.11292 1.87207C7.25127 1.7373 7.4098 1.62891 7.5885 1.54688C7.76721 1.46484 7.96321 1.42383 8.1765 1.42383C8.35521 1.42383 8.53103 1.45605 8.70397 1.52051L10.3037 2.13574L11.2462 0.685547C11.3845 0.46875 11.5632 0.301758 11.7823 0.18457C12.0014 0.0673828 12.2406 0.00585938 12.5 0C12.7536 0 12.99 0.0585938 13.2091 0.175781C13.4281 0.292969 13.6097 0.462891 13.7538 0.685547L14.6963 2.13574L16.296 1.52051C16.469 1.45605 16.6448 1.42383 16.8235 1.42383C17.031 1.42383 17.2241 1.46191 17.4028 1.53809C17.5816 1.61426 17.7401 1.72266 17.8784 1.86328C18.0168 2.00391 18.1234 2.16504 18.1984 2.34668C18.2733 2.52832 18.3137 2.72461 18.3194 2.93555C18.3194 3.24023 18.3108 3.54492 18.2935 3.84961C18.2762 4.1543 18.2589 4.45605 18.2416 4.75488L19.8932 5.2207C20.0546 5.26758 20.2045 5.33789 20.3428 5.43164C20.4812 5.52539 20.5965 5.63672 20.6887 5.76562C20.7809 5.89453 20.8559 6.03809 20.9135 6.19629C20.9712 6.35449 21 6.52148 21 6.69727C21 7.04883 20.8905 7.3623 20.6714 7.6377L19.5992 9ZM11.3932 12.2432L16.3133 7.25098L15.3276 6.24902L11.3932 10.2568L9.67243 8.49902L8.68667 9.50098L11.3932 12.2432Z" fill="url(#paint0_linear_20_9447)"/>
</g>
<defs>
<filter id="filter0_d_20_9447" x="0" y="0" width="25" height="26" filterUnits="userSpaceOnUse" color-interpolation-filters="sRGB">
<feFlood flood-opacity="0" result="BackgroundImageFix"/>
<feColorMatrix in="SourceAlpha" type="matrix" values="0 0 0 0 0 0 0 0 0 0 0 0 0 0 0 0 0 0 127 0" result="hardAlpha"/>
<feOffset dy="4"/>
<feGaussianBlur stdDeviation="2"/>
<feComposite in2="hardAlpha" operator="out"/>
<feColorMatrix type="matrix" values="0 0 0 0 0 0 0 0 0 0 0 0 0 0 0 0 0 0 0.25 0"/>
<feBlend mode="normal" in2="BackgroundImageFix" result="effect1_dropShadow_20_9447"/>
<feBlend mode="normal" in="SourceGraphic" in2="effect1_dropShadow_20_9447" result="shape"/>
</filter>
<linearGradient id="paint0_linear_20_9447" x1="13.9613" y1="5.0625" x2="30.2527" y2="19.9852" gradientUnits="userSpaceOnUse">
<stop stop-color="#26BAFF"/>
<stop offset="1" stop-color="#177099"/>
</linearGradient>
</defs>
</svg>
