<svg width="20" height="21" viewBox="0 0 20 21" fill="none" xmlns="http://www.w3.org/2000/svg">
<path d="M2 13.916V7.666C2 7.22397 2.17559 6.80004 2.48816 6.48748C2.80072 6.17492 3.22464 5.99933 3.66667 5.99933H10.75C11.192 5.99933 11.616 6.17492 11.9285 6.48748C12.2411 6.80004 12.4167 7.22397 12.4167 7.666V13.916C12.4167 14.358 12.2411 14.7819 11.9285 15.0945C11.616 15.4071 11.192 15.5827 10.75 15.5827H3.66667C3.22464 15.5827 2.80072 15.4071 2.48816 15.0945C2.17559 14.7819 2 14.358 2 13.916ZM16.3067 6.61683L12.9733 9.586C12.9294 9.62501 12.8942 9.67287 12.8701 9.72644C12.846 9.78001 12.8334 9.83808 12.8333 9.89683V11.3785C12.8334 11.4372 12.846 11.4953 12.8701 11.5489C12.8942 11.6025 12.9294 11.6503 12.9733 11.6893L16.3067 14.6585C16.3667 14.7118 16.4409 14.7467 16.5203 14.7588C16.5997 14.771 16.6809 14.7599 16.7542 14.727C16.8274 14.694 16.8896 14.6406 16.9332 14.5732C16.9768 14.5058 17 14.4271 17 14.3468V6.9285C17 6.84818 16.9768 6.76957 16.9332 6.70212C16.8896 6.63468 16.8274 6.58128 16.7542 6.54835C16.6809 6.51542 16.5997 6.50436 16.5203 6.51651C16.4409 6.52866 16.3667 6.5635 16.3067 6.61683Z" stroke="#303030" stroke-linecap="round" stroke-linejoin="round"/>
</svg>
