<svg width="33" height="33" viewBox="0 0 33 33" fill="none" xmlns="http://www.w3.org/2000/svg">
<path d="M11.5 8C11.5 9.32608 10.9732 10.5979 10.0355 11.5355C9.09785 12.4732 7.82608 13 6.5 13C5.17392 13 3.90215 12.4732 2.96447 11.5355C2.02678 10.5979 1.5 9.32608 1.5 8C1.5 6.67392 2.02678 5.40215 2.96447 4.46447C3.90215 3.52678 5.17392 3 6.5 3C7.82608 3 9.09785 3.52678 10.0355 4.46447C10.9732 5.40215 11.5 6.67392 11.5 8ZM3.16667 8C3.16667 8.88405 3.51786 9.7319 4.14298 10.357C4.7681 10.9821 5.61594 11.3333 6.5 11.3333C7.38405 11.3333 8.2319 10.9821 8.85702 10.357C9.48214 9.7319 9.83333 8.88405 9.83333 8C9.83333 7.11594 9.48214 6.2681 8.85702 5.64298C8.2319 5.01786 7.38405 4.66667 6.5 4.66667C5.61594 4.66667 4.7681 5.01786 4.14298 5.64298C3.51786 6.2681 3.16667 7.11594 3.16667 8Z" fill="#25BAFF"/>
<path d="M17.1406 12.6504H18.0469C18.9261 12.6503 19.7754 12.9675 20.4366 13.5431C21.0978 14.1186 21.5259 14.9131 21.6411 15.7788L27.2779 13.2912C27.5539 13.1691 27.8561 13.1174 28.1572 13.1409C28.4584 13.1643 28.7488 13.2621 29.0022 13.4254C29.2556 13.5887 29.4639 13.8123 29.6081 14.0759C29.7524 14.3394 29.828 14.6346 29.8281 14.9346V28.3662C29.8279 28.6659 29.7522 28.9609 29.6081 29.2242C29.464 29.4876 29.2559 29.711 29.0027 29.8743C28.7496 30.0375 28.4594 30.1354 28.1585 30.159C27.8576 30.1826 27.5556 30.1313 27.2797 30.0096L21.6411 27.522C21.5259 28.3876 21.0978 29.1822 20.4366 29.7577C19.7754 30.3332 18.9261 30.6505 18.0469 30.6504H4.45312C3.49172 30.6504 2.56968 30.2711 1.88986 29.596C1.21004 28.9208 0.828125 28.0052 0.828125 27.0504V16.2504C0.828125 15.2956 1.21004 14.3799 1.88986 13.7048C2.56968 13.0297 3.49172 12.6504 4.45312 12.6504H17.1406ZM28.0156 28.3644V14.9364L21.6719 17.7354V25.5654L28.0156 28.3644ZM2.64062 16.2504V27.0504C2.64062 27.5278 2.83158 27.9856 3.17149 28.3232C3.5114 28.6607 3.97242 28.8504 4.45312 28.8504H18.0469C18.5276 28.8504 18.9886 28.6607 19.3285 28.3232C19.6684 27.9856 19.8594 27.5278 19.8594 27.0504V16.2504C19.8594 15.773 19.6684 15.3152 19.3285 14.9776C18.9886 14.64 18.5276 14.4504 18.0469 14.4504H4.45312C3.97242 14.4504 3.5114 14.64 3.17149 14.9776C2.83158 15.3152 2.64062 15.773 2.64062 16.2504Z" fill="#25BAFF"/>
<path d="M16.5 13C17.8261 13 19.0979 12.4732 20.0355 11.5355C20.9732 10.5979 21.5 9.32608 21.5 8C21.5 6.67392 20.9732 5.40215 20.0355 4.46447C19.0979 3.52678 17.8261 3 16.5 3C15.1739 3 13.9021 3.52678 12.9645 4.46447C12.0268 5.40215 11.5 6.67392 11.5 8C11.5 9.32608 12.0268 10.5979 12.9645 11.5355C13.9021 12.4732 15.1739 13 16.5 13ZM13.1667 8C13.1667 7.11594 13.5179 6.2681 14.143 5.64298C14.7681 5.01786 15.6159 4.66667 16.5 4.66667C17.3841 4.66667 18.2319 5.01786 18.857 5.64298C19.4821 6.2681 19.8333 7.11594 19.8333 8C19.8333 8.88405 19.4821 9.7319 18.857 10.357C18.2319 10.9821 17.3841 11.3333 16.5 11.3333C15.6159 11.3333 14.7681 10.9821 14.143 10.357C13.5179 9.7319 13.1667 8.88405 13.1667 8Z" fill="#25BAFF"/>
</svg>
