<svg width="19" height="19" viewBox="0 0 19 19" fill="none" xmlns="http://www.w3.org/2000/svg">
<path d="M2.375 12.5208V6.58333C2.375 6.16341 2.54181 5.76068 2.83875 5.46375C3.13568 5.16681 3.53841 5 3.95833 5H10.6875C11.1074 5 11.5102 5.16681 11.8071 5.46375C12.104 5.76068 12.2708 6.16341 12.2708 6.58333V12.5208C12.2708 12.9408 12.104 13.3435 11.8071 13.6404C11.5102 13.9374 11.1074 14.1042 10.6875 14.1042H3.95833C3.53841 14.1042 3.13568 13.9374 2.83875 13.6404C2.54181 13.3435 2.375 12.9408 2.375 12.5208ZM15.9663 5.58663L12.7997 8.40733C12.7579 8.44439 12.7245 8.48986 12.7016 8.54075C12.6787 8.59165 12.6668 8.64681 12.6667 8.70263V10.1102C12.6668 10.166 12.6787 10.2212 12.7016 10.2721C12.7245 10.323 12.7579 10.3684 12.7997 10.4055L15.9663 13.2262C16.0234 13.2769 16.0939 13.31 16.1693 13.3215C16.2447 13.3331 16.3219 13.3225 16.3915 13.2913C16.4611 13.26 16.5201 13.2093 16.5616 13.1452C16.603 13.0811 16.625 13.0064 16.625 12.9301V5.88271C16.625 5.80641 16.603 5.73173 16.5616 5.66765C16.5201 5.60358 16.4611 5.55285 16.3915 5.52157C16.3219 5.49029 16.2447 5.47978 16.1693 5.49132C16.0939 5.50287 16.0234 5.53596 15.9663 5.58663Z" stroke="#25BAFF" stroke-linecap="round" stroke-linejoin="round"/>
</svg>
