<svg width="24" height="24" viewBox="0 0 24 24" fill="none" xmlns="http://www.w3.org/2000/svg">
<path d="M20.9489 9.55273L16.0469 14.4547M16.0469 9.55273L20.9489 14.4547" stroke="white" stroke-width="1.5" stroke-miterlimit="10" stroke-linecap="round"/>
<path d="M3.04696 14.0868V9.91079C3.04696 9.49479 3.18896 9.09679 3.44196 8.80279C3.69496 8.50979 4.03896 8.34479 4.39696 8.34479H6.28696C6.52296 8.34379 6.75596 8.27179 6.96196 8.13479L10.931 5.50479C11.136 5.36979 11.368 5.29979 11.603 5.30079C11.838 5.30179 12.07 5.37479 12.274 5.51279C12.478 5.64979 12.648 5.84679 12.766 6.08279C12.884 6.31979 12.946 6.58879 12.946 6.86279V17.1358C12.946 17.4088 12.884 17.6778 12.766 17.9138C12.6532 18.1429 12.4839 18.3394 12.274 18.4848C12.071 18.6218 11.839 18.6948 11.604 18.6968C11.3643 18.6975 11.1299 18.6265 10.931 18.4928L6.96096 15.8618C6.76153 15.7278 6.52722 15.6551 6.28696 15.6528H4.39696C4.03896 15.6528 3.69496 15.4878 3.44196 15.1938C3.18287 14.8835 3.04282 14.491 3.04696 14.0868Z" stroke="white" stroke-width="1.5" stroke-linecap="round" stroke-linejoin="round"/>
</svg>
