<svg width="20" height="20" viewBox="0 0 20 20" fill="none" xmlns="http://www.w3.org/2000/svg">
<path d="M1.95808 11.8657V8.13426C1.95808 7.76254 2.08496 7.40691 2.31103 7.1442C2.53799 6.88239 2.84448 6.73496 3.16437 6.73496H4.85317C5.06494 6.73406 5.27314 6.66973 5.45631 6.54731L9.0037 4.19728C9.18598 4.07665 9.39328 4.0141 9.60416 4.01499C9.81504 4.01589 10.0214 4.08112 10.2028 4.20443C10.386 4.32684 10.537 4.50287 10.6425 4.71375C10.7479 4.92552 10.8033 5.16588 10.8042 5.41072V14.5901C10.8042 14.8341 10.7479 15.0745 10.6425 15.2853C10.542 15.4899 10.391 15.6656 10.2037 15.7955C10.0214 15.918 9.81504 15.9832 9.60416 15.985C9.39 15.9856 9.18055 15.9221 9.0028 15.8027L5.45631 13.4518C5.27786 13.3319 5.06816 13.2669 4.85317 13.265H3.16437C2.84448 13.265 2.53799 13.1176 2.31103 12.8549C2.07971 12.5778 1.95459 12.2266 1.95808 11.8657Z" stroke="white" stroke-width="1.5" stroke-linecap="round" stroke-linejoin="round"/>
<path d="M13.778 13.3195C14.2216 12.8761 14.5735 12.3496 14.8135 11.7701C15.0536 11.1907 15.1772 10.5696 15.1772 9.94236C15.1772 9.31513 15.0536 8.69404 14.8135 8.11458C14.5735 7.53511 14.2216 7.00863 13.778 6.56519M15.8036 15.397C16.5132 14.6876 17.0762 13.8453 17.4602 12.9183C17.8443 11.9912 18.0419 10.9976 18.0419 9.99418C18.0419 8.99075 17.8443 7.99714 17.4602 7.07011C17.0762 6.14308 16.5132 5.30079 15.8036 4.59134" stroke="white" stroke-width="1.5" stroke-miterlimit="10" stroke-linecap="round"/>
</svg>
