<svg width="27" height="27" viewBox="0 0 27 27" fill="none" xmlns="http://www.w3.org/2000/svg">
<g clip-path="url(#clip0_3380_3080)">
<path d="M24.9785 13.193V10.0688C24.9785 8.53386 23.7572 7.2795 22.2354 7.22475V5.30707C22.2354 4.30819 21.4227 3.49554 20.4238 3.49554H15.4365L14.7925 1.7054C14.6283 1.24889 14.2959 0.884103 13.8566 0.678262C13.4173 0.47237 12.9242 0.450424 12.4684 0.61636L3.41828 3.91028C2.96292 4.07601 2.59963 4.40928 2.39529 4.8487C2.19095 5.28812 2.17019 5.7807 2.33691 6.23576L2.7005 7.22821C1.21324 7.32019 0.03125 8.55875 0.03125 10.0688V24.1469C0.03125 25.7166 1.30827 26.9936 2.87793 26.9936H22.1318C23.7015 26.9936 24.9785 25.7166 24.9785 24.1469V20.9191C25.8552 20.7932 26.5312 20.0374 26.5312 19.1264V14.9858C26.5312 14.0748 25.8552 13.319 24.9785 13.193ZM24.9785 19.1264C24.9785 19.2691 24.8624 19.3852 24.7197 19.3852H20.5791C19.2948 19.3852 18.25 18.3404 18.25 17.0561C18.25 15.7718 19.2948 14.727 20.5791 14.727H24.7197C24.8624 14.727 24.9785 14.8431 24.9785 14.9858V19.1264ZM3.79487 5.70162C3.76273 5.61389 3.78628 5.53982 3.8032 5.50344C3.82013 5.4671 3.86159 5.40132 3.94937 5.36938L12.9994 2.07546C13.0873 2.04353 13.1614 2.06729 13.1978 2.08431C13.2341 2.10134 13.2998 2.14306 13.3315 2.23105L13.7864 3.49559H13.4365C12.4376 3.49559 11.625 4.30824 11.625 5.30712V7.22216H4.35194L3.79487 5.70162ZM20.6826 5.30707V7.22211H13.1777V5.30707C13.1777 5.16437 13.2938 5.04828 13.4365 5.04828H20.4238C20.5665 5.04828 20.6826 5.16437 20.6826 5.30707ZM22.1318 25.4409H2.87793C2.16445 25.4409 1.58398 24.8604 1.58398 24.1469V10.0688C1.58398 9.3553 2.16445 8.77484 2.87793 8.77484H22.1318C22.8453 8.77484 23.4258 9.3553 23.4258 10.0688V13.1743H20.5791C18.4387 13.1743 16.6973 14.9156 16.6973 17.0561C16.6973 19.1965 18.4387 20.9379 20.5791 20.9379H23.4258V24.1469C23.4258 24.8604 22.8453 25.4409 22.1318 25.4409Z" fill="black"/>
<path d="M20.5791 17.8328C21.0079 17.8328 21.3555 17.4852 21.3555 17.0564C21.3555 16.6276 21.0079 16.28 20.5791 16.28C20.1503 16.28 19.8027 16.6276 19.8027 17.0564C19.8027 17.4852 20.1503 17.8328 20.5791 17.8328Z" fill="black"/>
</g>
<defs>
<clipPath id="clip0_3380_3080">
<rect width="26.5" height="26.5" fill="white" transform="translate(0.03125 0.5)"/>
</clipPath>
</defs>
</svg>
