<svg width="25" height="25" viewBox="0 0 25 25" fill="none" xmlns="http://www.w3.org/2000/svg">
<path fill-rule="evenodd" clip-rule="evenodd" d="M3.66333 17.708L11.0154 5.43403C11.1702 5.17899 11.3881 4.96815 11.6481 4.82182C11.9081 4.6755 12.2014 4.59863 12.4998 4.59863C12.7981 4.59863 13.0914 4.6755 13.3514 4.82182C13.6114 4.96815 13.8294 5.17899 13.9842 5.43403L21.3362 17.708C21.4877 17.9705 21.5679 18.2681 21.5686 18.5712C21.5694 18.8743 21.4909 19.1724 21.3408 19.4357C21.1907 19.699 20.9743 19.9185 20.7131 20.0722C20.4519 20.226 20.155 20.3087 19.8519 20.3122H5.14771C4.8445 20.309 4.5474 20.2265 4.28601 20.0728C4.02462 19.9191 3.80806 19.6996 3.6579 19.4362C3.50774 19.1728 3.42923 18.8746 3.43018 18.5714C3.43114 18.2682 3.51152 17.9705 3.66333 17.708ZM12.4998 9.37465C12.7761 9.37465 13.041 9.4844 13.2364 9.67975C13.4317 9.8751 13.5415 10.1401 13.5415 10.4163V13.5413C13.5415 13.8176 13.4317 14.0825 13.2364 14.2779C13.041 14.4732 12.7761 14.583 12.4998 14.583C12.2235 14.583 11.9586 14.4732 11.7632 14.2779C11.5679 14.0825 11.4581 13.8176 11.4581 13.5413V10.4163C11.4581 10.1401 11.5679 9.8751 11.7632 9.67975C11.9586 9.4844 12.2235 9.37465 12.4998 9.37465ZM11.4581 16.6663C11.4581 16.3901 11.5679 16.1251 11.7632 15.9297C11.9586 15.7344 12.2235 15.6247 12.4998 15.6247H12.5081C12.7844 15.6247 13.0493 15.7344 13.2447 15.9297C13.44 16.1251 13.5498 16.3901 13.5498 16.6663C13.5498 16.9426 13.44 17.2075 13.2447 17.4029C13.0493 17.5982 12.7844 17.708 12.5081 17.708H12.4998C12.2235 17.708 11.9586 17.5982 11.7632 17.4029C11.5679 17.2075 11.4581 16.9426 11.4581 16.6663Z" fill="#D82202"/>
</svg>
