<svg width="15" height="17" viewBox="0 0 15 17" fill="none" xmlns="http://www.w3.org/2000/svg">
<path fill-rule="evenodd" clip-rule="evenodd" d="M0.859375 4.81521L7.61937 0.912109L14.3794 4.81521V12.621L7.61937 16.5241L0.859375 12.621V4.81521Z" fill="#090707"/>
<path fill-rule="evenodd" clip-rule="evenodd" d="M0.859375 4.81521L7.61937 0.912109L14.3794 4.81521V12.621L7.61937 16.5241L0.859375 12.621V4.81521Z" fill="url(#paint0_linear_5317_9550)"/>
<path fill-rule="evenodd" clip-rule="evenodd" d="M6.54569 5.3888C5.85735 5.58931 5.24541 5.99264 4.78973 6.54615C4.33405 7.09967 4.05577 7.77768 3.99121 8.49172H5.61924C5.71414 7.40514 6.02918 6.34923 6.54518 5.38829L6.54569 5.3888ZM5.61924 9.12767H3.99121C4.05564 9.84174 4.3338 10.5198 4.78939 11.0734C5.24498 11.627 5.85686 12.0305 6.54518 12.2311C6.02918 11.2702 5.71414 10.2143 5.61924 9.12767ZM7.36123 12.3669C6.7444 11.3887 6.36622 10.279 6.25723 9.12767H8.81883C8.70983 10.279 8.33165 11.3887 7.71482 12.3669C7.59703 12.3728 7.47902 12.3728 7.36123 12.3669ZM8.53138 12.2306C9.21963 12.03 9.83145 11.6266 10.287 11.0731C10.7426 10.5196 11.0208 9.84165 11.0854 9.12767H9.45732C9.36242 10.2143 9.04738 11.2702 8.53138 12.2311V12.2306ZM9.45732 8.49172H11.0854C11.0209 7.77765 10.7428 7.09958 10.2872 6.54597C9.83158 5.99236 9.21971 5.58892 8.53138 5.38829C9.04738 6.34923 9.36242 7.40514 9.45732 8.49172ZM7.36123 5.25245C7.47919 5.24658 7.59737 5.24658 7.71533 5.25245C8.33198 6.23079 8.70998 7.3404 8.81883 8.49172H6.25773C6.36813 7.33328 6.74716 6.22265 7.36123 5.25245Z" fill="white"/>
<defs>
<linearGradient id="paint0_linear_5317_9550" x1="11.6754" y1="0.91211" x2="5.25276" y2="16.4607" gradientUnits="userSpaceOnUse">
<stop stop-color="#2BC7CF"/>
<stop offset="1" stop-color="#3F60F3"/>
</linearGradient>
</defs>
</svg>
