<svg width="20" height="20" viewBox="0 0 20 20" fill="none" xmlns="http://www.w3.org/2000/svg">
<path d="M1 10C1 12.3869 1.94821 14.6761 3.63604 16.364C5.32387 18.0518 7.61305 19 10 19C12.3869 19 14.6761 18.0518 16.364 16.364C18.0518 14.6761 19 12.3869 19 10C19 7.61305 18.0518 5.32387 16.364 3.63604C14.6761 1.94821 12.3869 1 10 1C7.61305 1 5.32387 1.94821 3.63604 3.63604C1.94821 5.32387 1 7.61305 1 10Z" stroke="#7A8B9A" stroke-linejoin="round"/>
<path d="M6.14282 10C6.14282 7.61305 6.5492 5.32387 7.27255 3.63604C7.99591 1.94821 8.97699 1 9.99997 1C11.0229 1 12.004 1.94821 12.7274 3.63604C13.4507 5.32387 13.8571 7.61305 13.8571 10C13.8571 12.3869 13.4507 14.6761 12.7274 16.364C12.004 18.0518 11.0229 19 9.99997 19C8.97699 19 7.99591 18.0518 7.27255 16.364C6.5492 14.6761 6.14282 12.3869 6.14282 10Z" stroke="#7A8B9A" stroke-linejoin="round"/>
<path d="M1.64282 13H18.3571M1.64282 7H18.3571" stroke="#7A8B9A" stroke-linecap="round"/>
</svg>
