<svg width="44" height="44" viewBox="0 0 44 44" fill="none" xmlns="http://www.w3.org/2000/svg">
<g filter="url(#filter0_d_2798_3823)">
<path d="M10.0919 21.8967C10.0913 23.8978 10.5965 25.8517 11.557 27.574L10 33.4583L15.8176 31.8793C17.4267 32.786 19.2296 33.2612 21.0617 33.2613H21.0665C27.1145 33.2613 32.0377 28.1671 32.0403 21.9057C32.0415 18.8716 30.901 16.0185 28.8289 13.872C26.7571 11.7257 24.0018 10.543 21.066 10.5416C15.0173 10.5416 10.0944 15.6356 10.0919 21.8967" fill="url(#paint0_linear_2798_3823)"/>
<path d="M10.0965 21.8968C10.0959 23.8981 10.625 25.8519 11.6311 27.574L10 33.4583L16.0945 31.8794C17.7738 32.784 19.6645 33.261 21.5883 33.2617H21.5933C27.9293 33.2617 33.0871 28.1669 33.0898 21.9059C33.0909 18.8716 31.896 16.0183 29.7256 13.8718C27.5549 11.7257 24.6686 10.5429 21.5933 10.5416C15.2562 10.5416 10.099 15.6357 10.0965 21.8968ZM13.726 27.2774L13.4985 26.9205C12.5419 25.4176 12.037 23.6809 12.0377 21.8975C12.0397 16.6934 16.3261 12.4595 21.5969 12.4595C24.1494 12.4605 26.5482 13.4437 28.3525 15.2275C30.1566 17.0115 31.1494 19.3829 31.1488 21.9052C31.1464 27.1093 26.8599 31.3438 21.5933 31.3438H21.5895C19.8746 31.3429 18.1927 30.8878 16.726 30.0279L16.3769 29.8234L12.7603 30.7603L13.726 27.2774Z" fill="url(#paint1_linear_2798_3823)"/>
<path d="M18.1828 17.2755C17.97 16.8154 17.7461 16.8061 17.5437 16.7981C17.378 16.7911 17.1886 16.7916 16.9993 16.7916C16.8099 16.7916 16.5021 16.861 16.2419 17.1373C15.9815 17.4139 15.2477 18.0824 15.2477 19.4419C15.2477 20.8015 16.2656 22.1155 16.4075 22.3C16.5495 22.4842 18.3725 25.3635 21.2597 26.4712C23.6591 27.3917 24.1474 27.2086 24.6682 27.1624C25.1891 27.1165 26.3488 26.4942 26.5855 25.8489C26.8222 25.2037 26.8222 24.6506 26.7513 24.5351C26.6803 24.4199 26.4908 24.3508 26.2068 24.2126C25.9227 24.0745 24.5261 23.4059 24.2658 23.3136C24.0054 23.2215 23.816 23.1755 23.6266 23.4522C23.4372 23.7285 22.8932 24.3508 22.7274 24.5351C22.5618 24.7198 22.396 24.7428 22.112 24.6046C21.8278 24.4659 20.913 24.1744 19.8277 23.2331C18.9833 22.5006 18.4132 21.5961 18.2475 21.3194C18.0818 21.0431 18.2297 20.8934 18.3722 20.7557C18.4998 20.6318 18.6563 20.433 18.7985 20.2717C18.9401 20.1103 18.9874 19.9952 19.0821 19.8109C19.1769 19.6264 19.1294 19.465 19.0585 19.3268C18.9874 19.1886 18.4354 17.8219 18.1828 17.2755Z" fill="white"/>
</g>
<defs>
<filter id="filter0_d_2798_3823" x="0" y="0.541626" width="43.0898" height="42.9166" filterUnits="userSpaceOnUse" color-interpolation-filters="sRGB">
<feFlood flood-opacity="0" result="BackgroundImageFix"/>
<feColorMatrix in="SourceAlpha" type="matrix" values="0 0 0 0 0 0 0 0 0 0 0 0 0 0 0 0 0 0 127 0" result="hardAlpha"/>
<feOffset/>
<feGaussianBlur stdDeviation="5"/>
<feComposite in2="hardAlpha" operator="out"/>
<feColorMatrix type="matrix" values="0 0 0 0 0.372549 0 0 0 0 0.835294 0 0 0 0 0.407843 0 0 0 1 0"/>
<feBlend mode="normal" in2="BackgroundImageFix" result="effect1_dropShadow_2798_3823"/>
<feBlend mode="normal" in="SourceGraphic" in2="effect1_dropShadow_2798_3823" result="shape"/>
</filter>
<linearGradient id="paint0_linear_2798_3823" x1="1112.02" y1="2302.21" x2="1112.02" y2="10.5416" gradientUnits="userSpaceOnUse">
<stop stop-color="#1FAF38"/>
<stop offset="1" stop-color="#60D669"/>
</linearGradient>
<linearGradient id="paint1_linear_2798_3823" x1="1164.49" y1="2302.21" x2="1164.49" y2="10.5416" gradientUnits="userSpaceOnUse">
<stop stop-color="#F9F9F9"/>
<stop offset="1" stop-color="white"/>
</linearGradient>
</defs>
</svg>
