<svg width="23" height="24" viewBox="0 0 23 24" fill="none" xmlns="http://www.w3.org/2000/svg">
<path d="M19.6053 7.36842H20.7632C21.7209 7.36842 22.5 6.58933 22.5 5.63158V2.73684C22.5 1.77909 21.7209 1 20.7632 1H19.6053C18.6475 1 17.8684 1.77909 17.8684 2.73684V3.31579H14.3947C14.075 3.31579 13.8158 3.57501 13.8158 3.89474V11.4211H8.9782C8.58379 11.1024 8.14219 10.841 7.66557 10.6472C8.23943 10.1179 8.60526 9.36665 8.60526 8.52632C8.60526 6.93025 7.30659 5.63158 5.71053 5.63158C4.11446 5.63158 2.81579 6.93025 2.81579 8.52632C2.81579 9.36665 3.18163 10.1179 3.75548 10.6472C1.84906 11.4224 0.5 13.2922 0.5 15.4737V16.6316C0.5 16.9513 0.759224 17.2105 1.07895 17.2105H10.3421C10.6618 17.2105 10.9211 16.9513 10.9211 16.6316V15.4737C10.9211 14.4032 10.5958 13.4075 10.0399 12.5789H13.8158V20.1053C13.8158 20.425 14.075 20.6842 14.3947 20.6842H17.8684V21.2632C17.8684 22.2209 18.6475 23 19.6053 23H20.7632C21.7209 23 22.5 22.2209 22.5 21.2632V18.3684C22.5 17.4107 21.7209 16.6316 20.7632 16.6316H19.6053C18.6475 16.6316 17.8684 17.4107 17.8684 18.3684V19.5263H14.9737V12.5789H17.8684V13.7368C17.8684 14.6946 18.6475 15.4737 19.6053 15.4737H20.7632C21.7209 15.4737 22.5 14.6946 22.5 13.7368V10.2632C22.5 9.30541 21.7209 8.52632 20.7632 8.52632H19.6053C18.6475 8.52632 17.8684 9.30541 17.8684 10.2632V11.4211H14.9737V4.47368H17.8684V5.63158C17.8684 6.58933 18.6475 7.36842 19.6053 7.36842ZM19.0263 2.73684C19.0263 2.41769 19.2861 2.15789 19.6053 2.15789H20.7632C21.0823 2.15789 21.3421 2.41769 21.3421 2.73684V5.63158C21.3421 5.95074 21.0823 6.21053 20.7632 6.21053H19.6053C19.2861 6.21053 19.0263 5.95074 19.0263 5.63158V2.73684ZM5.71053 6.78947C6.66828 6.78947 7.44737 7.56856 7.44737 8.52632C7.44737 9.48407 6.66828 10.2632 5.71053 10.2632C4.75277 10.2632 3.97368 9.48407 3.97368 8.52632C3.97368 7.56856 4.75277 6.78947 5.71053 6.78947ZM9.76316 16.0526H1.65789V15.4737C1.65789 13.239 3.47587 11.4211 5.71053 11.4211C7.94518 11.4211 9.76316 13.239 9.76316 15.4737V16.0526ZM19.0263 18.3684C19.0263 18.0493 19.2861 17.7895 19.6053 17.7895H20.7632C21.0823 17.7895 21.3421 18.0493 21.3421 18.3684V21.2632C21.3421 21.5823 21.0823 21.8421 20.7632 21.8421H19.6053C19.2861 21.8421 19.0263 21.5823 19.0263 21.2632V18.3684ZM19.0263 10.2632C19.0263 9.944 19.2861 9.68421 19.6053 9.68421H20.7632C21.0823 9.68421 21.3421 9.944 21.3421 10.2632V13.7368C21.3421 14.056 21.0823 14.3158 20.7632 14.3158H19.6053C19.2861 14.3158 19.0263 14.056 19.0263 13.7368V10.2632Z" fill="white" stroke="white" stroke-width="0.5"/>
</svg>
