<svg width="26" height="23" viewBox="0 0 26 23" fill="none" xmlns="http://www.w3.org/2000/svg">
<path d="M24.7609 5.53124C24.7609 5.53124 24.5266 3.47265 23.8047 2.56873C22.8906 1.37906 21.8688 1.37323 21.4 1.30325C18.0438 1 13.0047 1 13.0047 1H12.9953C12.9953 1 7.95625 1 4.6 1.30325C4.13125 1.37323 3.10938 1.37906 2.19531 2.56873C1.47344 3.47265 1.24375 5.53124 1.24375 5.53124C1.24375 5.53124 1 7.9514 1 10.3657V12.6284C1 15.0428 1.23906 17.4629 1.23906 17.4629C1.23906 17.4629 1.47344 19.5215 2.19062 20.4254C3.10469 21.6151 4.30469 21.5743 4.83906 21.7026C6.76094 21.93 13 22 13 22C13 22 18.0438 21.9883 21.4 21.6909C21.8688 21.6209 22.8906 21.6151 23.8047 20.4254C24.5266 19.5215 24.7609 17.4629 24.7609 17.4629C24.7609 17.4629 25 15.0486 25 12.6284V10.3657C25 7.9514 24.7609 5.53124 24.7609 5.53124ZM10.5203 15.3752V6.98334L17.0031 11.1938L10.5203 15.3752Z" stroke="#7A8B9A" stroke-width="1.5"/>
</svg>
