<svg width="210" height="208" viewBox="0 0 210 208" fill="none" xmlns="http://www.w3.org/2000/svg">
<path d="M197.64 0H172.408L154.56 204H179.793C186.968 204 193.317 198.162 193.944 190.987L209.515 13.0134C210.143 5.83756 204.816 0 197.64 0Z" fill="#407BFF"/>
<path d="M192.491 0H107.095C99.9187 0 93.5704 5.83756 92.9427 13.0134L77.372 190.987C76.7443 198.162 82.0712 204 89.2471 204H174.644C181.82 204 188.168 198.162 188.796 190.987L204.366 13.0134C204.994 5.83756 199.667 0 192.491 0Z" fill="#407BFF"/>
<path opacity="0.3" d="M192.491 0H107.095C99.9187 0 93.5704 5.83756 92.9427 13.0134L77.372 190.987C76.7443 198.162 82.0712 204 89.2471 204H174.644C181.82 204 188.168 198.162 188.796 190.987L204.366 13.0134C204.994 5.83756 199.667 0 192.491 0Z" fill="white"/>
<path opacity="0.4" d="M192.126 4.17188H169.611C168.283 4.17188 167.036 5.04367 166.544 6.31611C164.724 11.0199 160.115 14.2413 155.205 14.2413H141.89C136.98 14.2413 132.934 11.0192 131.936 6.31611C131.667 5.04367 130.573 4.17264 129.244 4.17264H106.729C101.845 4.17264 97.5396 8.13177 97.1118 13.0162L81.5411 190.989C81.1141 195.874 84.7269 199.833 89.6112 199.833H175.008C179.892 199.833 184.198 195.874 184.626 190.989L200.196 13.0162C200.623 8.13177 197.011 4.17188 192.126 4.17188Z" fill="white"/>
<path d="M170.853 100.84H111.087C109.315 100.84 108.004 99.4034 108.159 97.6319L108.459 94.2121C108.614 92.4398 110.176 91.0039 111.948 91.0039H171.714C173.486 91.0039 174.797 92.4406 174.642 94.2121L174.342 97.6319C174.187 99.4034 172.625 100.84 170.853 100.84Z" fill="white"/>
<path d="M169.562 115.598H109.796C108.024 115.598 106.713 114.161 106.868 112.39L107.168 108.97C107.323 107.198 108.885 105.762 110.657 105.762H170.423C172.195 105.762 173.506 107.198 173.351 108.97L173.051 112.39C172.896 114.161 171.334 115.598 169.562 115.598Z" fill="white"/>
<path opacity="0.1" d="M152.694 7.50303C152.522 9.46825 150.79 11.0607 148.824 11.0607C146.859 11.0607 145.406 9.46825 145.578 7.50303C145.75 5.5378 147.482 3.94531 149.448 3.94531C151.412 3.94531 152.866 5.5378 152.694 7.50303Z" fill="black"/>
<path opacity="0.1" d="M151.079 7.50212C150.986 8.5754 150.039 9.44564 148.965 9.44564C147.892 9.44564 147.098 8.5754 147.192 7.50212C147.285 6.42884 148.232 5.55859 149.306 5.55859C150.38 5.55859 151.173 6.42884 151.079 7.50212Z" fill="black"/>
<g opacity="0.8">
<path d="M181.613 13.4354C181.038 13.4354 180.611 12.9689 180.662 12.3932L180.828 10.4876C180.879 9.91182 181.386 9.44531 181.962 9.44531C182.538 9.44531 182.964 9.91182 182.914 10.4876L182.747 12.3932C182.697 12.9689 182.189 13.4354 181.613 13.4354Z" fill="white"/>
<path d="M189.953 13.4356C189.377 13.4356 188.951 12.9691 189.002 12.3933L189.393 7.92119C189.443 7.34542 189.951 6.87891 190.527 6.87891C191.102 6.87891 191.529 7.34542 191.478 7.92119L191.087 12.3933C191.037 12.9691 190.529 13.4356 189.953 13.4356Z" fill="white"/>
<path d="M185.783 13.4375C185.208 13.4375 184.781 12.971 184.832 12.3952L185.111 9.20635C185.161 8.63057 185.669 8.16406 186.244 8.16406C186.82 8.16406 187.246 8.63057 187.196 9.20635L186.917 12.3952C186.867 12.971 186.359 13.4375 185.783 13.4375Z" fill="white"/>
</g>
<g opacity="0.8">
<path d="M110.216 13.437H104.981C104.655 13.437 104.414 13.1727 104.443 12.8465L104.688 10.0358C104.717 9.70956 105.005 9.44531 105.33 9.44531H110.565C110.891 9.44531 111.132 9.70956 111.103 10.0358L110.858 12.8465C110.829 13.1727 110.542 13.437 110.216 13.437Z" fill="white"/>
<path d="M112.643 12.6736C112.317 12.6736 112.076 12.4094 112.104 12.0831L112.217 10.7975C112.245 10.4713 112.533 10.207 112.858 10.207C113.185 10.207 113.426 10.4713 113.397 10.7975L113.285 12.0831C113.257 12.4094 112.969 12.6736 112.643 12.6736Z" fill="white"/>
</g>
<path d="M161.015 78.3631C171.443 68.3812 172.482 52.5437 163.336 42.989C154.19 33.4343 138.322 33.7805 127.894 43.7623C117.466 53.7441 116.427 69.5816 125.573 79.1363C134.719 88.6911 150.587 88.3449 161.015 78.3631Z" fill="white"/>
<path d="M144.534 60.0938C137.959 60.0938 132.409 62.5952 131.934 68.0314L131.406 74.0642H155.219L155.747 68.0314C156.222 62.5952 151.11 60.0938 144.534 60.0938Z" fill="#407BFF"/>
<path d="M144.752 57.613C147.804 57.613 149.211 55.1394 149.478 52.0878C149.745 49.0361 148.77 46.5625 145.718 46.5625C142.667 46.5625 141.259 49.0361 140.992 52.0878C140.726 55.1394 141.7 57.613 144.752 57.613Z" fill="#407BFF"/>
<path d="M168.125 95.75C166.501 95.75 165.13 96.3676 165.013 97.7106L164.883 99.2008H170.765L170.895 97.7106C171.012 96.3676 169.749 95.75 168.125 95.75Z" fill="#407BFF"/>
<path d="M168.178 95.1356C168.932 95.1356 169.28 94.5241 169.346 93.7709C169.411 93.0169 169.171 92.4062 168.417 92.4062C167.663 92.4062 167.316 93.0177 167.25 93.7709C167.184 94.5249 167.425 95.1356 168.178 95.1356Z" fill="#407BFF"/>
<path d="M150.016 130.353H126.761C124.045 130.353 122.035 128.151 122.273 125.434C122.511 122.718 124.905 120.516 127.622 120.516H150.877C153.593 120.516 155.602 122.718 155.364 125.434C155.126 128.151 152.732 130.353 150.016 130.353Z" fill="#407BFF"/>
<path d="M147.21 185.204H122.322C119.451 185.204 117.328 182.877 117.579 180.006L119.167 161.854C119.418 158.983 121.948 156.656 124.819 156.656H149.707C152.577 156.656 154.701 158.983 154.45 161.854L152.862 180.006C152.611 182.877 150.081 185.204 147.21 185.204Z" fill="#407BFF"/>
<g opacity="0.6">
<path d="M139.535 166.436C139.686 164.709 138.408 163.309 136.681 163.309C134.953 163.309 133.431 164.709 133.28 166.436C133.19 167.465 133.614 168.37 134.33 168.939L133.783 175.19C133.693 176.216 134.452 177.047 135.478 177.047C136.504 177.047 137.408 176.216 137.498 175.19L138.045 168.939C138.863 168.37 139.445 167.465 139.535 166.436Z" fill="white"/>
</g>
<path d="M149.928 160.434H146.721L147.507 151.453C147.978 146.055 143.972 141.664 138.575 141.664C133.177 141.664 128.402 146.055 127.93 151.453L127.144 160.434H123.937L124.723 151.453C125.35 144.287 131.689 138.457 138.855 138.457C146.021 138.457 151.341 144.287 150.714 151.453L149.928 160.434Z" fill="#407BFF"/>
<path d="M168.519 109.506L168.594 108.644C168.671 107.763 168.017 107.047 167.136 107.047C166.255 107.047 165.476 107.764 165.4 108.644L165.324 109.506C164.973 109.506 164.663 109.791 164.632 110.143L164.432 112.433C164.401 112.785 164.661 113.07 165.013 113.07H168.206C168.557 113.07 168.867 112.785 168.898 112.433L169.099 110.143C169.13 109.791 168.871 109.506 168.519 109.506ZM167.102 107.441C167.765 107.441 168.258 107.98 168.2 108.643L168.125 109.505H165.719L165.794 108.643C165.852 107.98 166.439 107.441 167.102 107.441Z" fill="#407BFF"/>
<path d="M120.454 110.421L119.34 110.191C119.208 110.164 119.14 110.025 119.195 109.895L119.659 108.798C119.759 108.562 119.473 108.388 119.292 108.575L118.45 109.443C118.35 109.546 118.189 109.546 118.108 109.443L117.417 108.575C117.269 108.389 116.952 108.562 117.011 108.798L117.283 109.895C117.315 110.025 117.223 110.164 117.086 110.191L115.931 110.421C115.683 110.471 115.653 110.819 115.892 110.869L117.007 111.099C117.138 111.126 117.207 111.265 117.152 111.395L116.687 112.492C116.587 112.728 116.874 112.902 117.055 112.715L117.897 111.847C117.997 111.744 118.157 111.744 118.239 111.847L118.929 112.715C119.077 112.902 119.394 112.728 119.336 112.492L119.064 111.395C119.032 111.265 119.124 111.126 119.261 111.099L120.416 110.869C120.664 110.819 120.694 110.47 120.454 110.421Z" fill="#263238"/>
<path d="M127.788 110.421L126.673 110.191C126.541 110.164 126.473 110.025 126.528 109.895L126.992 108.798C127.092 108.562 126.806 108.388 126.625 108.575L125.783 109.443C125.683 109.546 125.523 109.546 125.441 109.443L124.751 108.575C124.603 108.389 124.286 108.562 124.344 108.798L124.616 109.895C124.648 110.025 124.555 110.164 124.419 110.191L123.264 110.421C123.016 110.471 122.986 110.819 123.225 110.869L124.339 111.099C124.471 111.126 124.539 111.265 124.484 111.395L124.02 112.492C123.92 112.728 124.207 112.902 124.387 112.715L125.229 111.847C125.329 111.744 125.489 111.744 125.571 111.847L126.262 112.715C126.41 112.902 126.727 112.728 126.669 112.492L126.397 111.395C126.364 111.265 126.457 111.126 126.593 111.099L127.748 110.869C127.997 110.819 128.027 110.47 127.788 110.421Z" fill="#263238"/>
<path d="M135.121 110.421L134.006 110.191C133.874 110.164 133.806 110.025 133.861 109.895L134.325 108.798C134.425 108.562 134.139 108.388 133.958 108.575L133.116 109.443C133.016 109.546 132.855 109.546 132.774 109.443L132.084 108.575C131.936 108.389 131.619 108.562 131.677 108.798L131.949 109.895C131.981 110.025 131.889 110.164 131.752 110.191L130.597 110.421C130.349 110.471 130.319 110.819 130.558 110.869L131.672 111.099C131.804 111.126 131.872 111.265 131.817 111.395L131.353 112.492C131.253 112.728 131.54 112.902 131.72 112.715L132.562 111.847C132.662 111.744 132.823 111.744 132.904 111.847L133.595 112.715C133.743 112.902 134.06 112.728 134.002 112.492L133.73 111.395C133.697 111.265 133.789 111.126 133.926 111.099L135.081 110.869C135.33 110.819 135.36 110.47 135.121 110.421Z" fill="#263238"/>
<path d="M142.455 110.421L141.341 110.191C141.209 110.164 141.141 110.025 141.196 109.895L141.66 108.798C141.76 108.562 141.473 108.388 141.292 108.575L140.45 109.443C140.35 109.546 140.19 109.546 140.108 109.443L139.418 108.575C139.27 108.389 138.953 108.562 139.011 108.798L139.283 109.895C139.316 110.025 139.223 110.164 139.086 110.191L137.932 110.421C137.684 110.471 137.653 110.819 137.893 110.869L139.007 111.099C139.139 111.126 139.207 111.265 139.152 111.395L138.688 112.492C138.588 112.728 138.875 112.902 139.055 112.715L139.898 111.847C139.998 111.744 140.158 111.744 140.239 111.847L140.93 112.715C141.078 112.902 141.395 112.728 141.337 112.492L141.065 111.395C141.032 111.265 141.124 111.126 141.261 111.099L142.416 110.869C142.663 110.819 142.694 110.47 142.455 110.421Z" fill="#263238"/>
<path d="M149.788 110.421L148.674 110.191C148.542 110.164 148.474 110.025 148.529 109.895L148.993 108.798C149.093 108.562 148.806 108.388 148.626 108.575L147.783 109.443C147.683 109.546 147.523 109.546 147.441 109.443L146.751 108.575C146.603 108.389 146.286 108.562 146.344 108.798L146.616 109.895C146.649 110.025 146.557 110.164 146.419 110.191L145.265 110.421C145.017 110.471 144.987 110.819 145.225 110.869L146.34 111.099C146.471 111.126 146.539 111.265 146.484 111.395L146.02 112.492C145.921 112.728 146.207 112.902 146.388 112.715L147.23 111.847C147.33 111.744 147.49 111.744 147.572 111.847L148.262 112.715C148.41 112.902 148.727 112.728 148.669 112.492L148.397 111.395C148.364 111.265 148.457 111.126 148.594 111.099L149.748 110.869C149.996 110.819 150.027 110.47 149.788 110.421Z" fill="#263238"/>
<path d="M157.121 110.421L156.007 110.191C155.875 110.164 155.807 110.025 155.862 109.895L156.326 108.798C156.425 108.562 156.139 108.388 155.959 108.575L155.116 109.443C155.016 109.546 154.857 109.546 154.775 109.443L154.084 108.575C153.936 108.389 153.619 108.562 153.677 108.798L153.949 109.895C153.982 110.025 153.889 110.164 153.752 110.191L152.598 110.421C152.35 110.471 152.32 110.819 152.558 110.869L153.673 111.099C153.804 111.126 153.872 111.265 153.817 111.395L153.353 112.492C153.253 112.728 153.54 112.902 153.721 112.715L154.563 111.847C154.663 111.744 154.823 111.744 154.905 111.847L155.595 112.715C155.743 112.902 156.06 112.728 156.002 112.492L155.73 111.395C155.697 111.265 155.79 111.126 155.927 111.099L157.081 110.869C157.329 110.819 157.36 110.47 157.121 110.421Z" fill="#263238"/>
<path d="M139.445 94.375H125.676C124.82 94.375 124.066 95.0686 123.991 95.9241C123.916 96.7796 124.549 97.4732 125.404 97.4732H139.173C140.029 97.4732 140.783 96.7796 140.858 95.9241C140.933 95.0686 140.3 94.375 139.445 94.375Z" fill="#263238"/>
<path d="M153.422 94.375H145.432C144.577 94.375 143.823 95.0686 143.748 95.9241C143.673 96.7796 144.306 97.4732 145.161 97.4732H153.151C154.006 97.4732 154.76 96.7796 154.835 95.9241C154.911 95.0686 154.278 94.375 153.422 94.375Z" fill="#263238"/>
<path d="M163.97 164.623C158.779 166.696 154.227 169.719 151.112 173.158C149.286 171.603 146.689 170.524 143.576 170.03L143.211 169.972L143.051 171.8L143.255 171.877C146.328 173.038 148.828 175.097 150.488 177.832L150.748 178.262L151.036 177.801C154.229 172.69 158.885 168.407 164.145 165.743L164.323 165.653L164.429 164.438L163.97 164.623Z" fill="#263238"/>
<path d="M46.2012 64.8164C47.9175 66.6827 49.5574 68.6159 51.1766 70.5672C52.7978 72.5165 54.3788 74.5006 55.9404 76.5022C56.0087 76.5892 55.9812 76.5537 55.9973 76.5798C56.0047 76.5912 56.006 76.61 56.0154 76.6193C56.0328 76.6388 56.0422 76.6709 56.0629 76.6883C56.0937 76.7379 56.1386 76.7734 56.1835 76.8202C56.2785 76.9053 56.4084 76.9702 56.5531 76.997C56.6247 77.0077 56.7004 77.0184 56.7774 77.0104C56.8189 77.0158 56.8558 77.003 56.8993 77.0017C56.9221 77.0024 56.9388 76.9903 56.9609 76.9876C56.995 76.9729 56.9736 77.003 57.066 76.9481L58.7435 76.0388C60.9934 74.8475 63.2615 73.683 65.6072 72.6377L67.5679 75.0658C65.6782 76.8048 63.7101 78.9798 61.724 80.5735L60.224 81.7528C60.1858 81.7876 60.0245 81.8934 59.9233 81.961C59.8075 82.0353 59.6943 82.1157 59.5718 82.1813C59.3287 82.3152 59.0836 82.4492 58.8231 82.5523C58.3089 82.7746 57.7598 82.9159 57.2033 83.0016C56.087 83.1677 54.9272 83.0552 53.8444 82.6675C53.3047 82.4733 52.7817 82.2141 52.3056 81.8833C52.0619 81.7253 51.8389 81.5398 51.6166 81.353C51.5047 81.2599 51.4049 81.1561 51.3005 81.055L51.034 80.7851C49.2621 78.9678 47.5097 77.133 45.7968 75.2633C44.0825 73.3951 42.3883 71.5101 40.7705 69.5574L46.2012 64.8164Z" fill="#B55B52"/>
<path d="M64.6953 74.119L66.2562 69.1055L70.3651 71.1532C70.3651 71.1532 69.7664 74.8114 66.7752 75.4456L64.6953 74.119Z" fill="#B55B52"/>
<path d="M67.9048 67.7148L71.6105 68.7354L70.3657 71.1527L66.2568 69.105L67.9048 67.7148Z" fill="#B55B52"/>
<path d="M24.5867 66.1831C24.1394 68.3132 23.593 70.4192 23.0204 72.5192C22.4506 74.6198 21.8285 76.7077 21.1816 78.7896L20.9406 79.5704L20.82 79.9608C20.7946 80.0458 20.7778 80.0673 20.7551 80.1242C20.6814 80.3217 20.6372 80.536 20.6285 80.761C20.6171 81.207 20.7229 81.7032 21.0149 82.1344C21.039 82.2041 21.27 82.4465 21.4502 82.642L22.006 83.246L23.1021 84.4735C23.824 85.3018 24.5432 86.1328 25.2262 87.0067L22.8925 89.708C21.9289 89.1595 21.0022 88.5683 20.0774 87.9743L18.704 87.0683L18.025 86.6056C17.794 86.4449 17.6085 86.337 17.2388 86.031C15.9652 84.9509 15.0136 83.4175 14.6648 81.7146C14.4866 80.8648 14.4431 79.9789 14.5422 79.1017C14.5683 78.8914 14.6079 78.6463 14.64 78.4662L14.711 78.0637L14.8529 77.2588C15.2286 75.1113 15.629 72.9698 16.081 70.8404C16.531 68.711 17.0071 66.5876 17.5817 64.4883L24.5867 66.1831Z" fill="#B55B52"/>
<path d="M22.9336 86.8153L25.6965 85.4023L26.9152 90.0985C26.9152 90.0985 24.6981 90.9482 22.9818 89.8567L22.9336 86.8153Z" fill="#B55B52"/>
<path d="M29.5137 83.9023L29.639 88.2101L26.554 90.2277L25.4839 85.4954L29.5137 83.9023Z" fill="#B55B52"/>
<path d="M38.5472 44.0419C38.6149 44.374 38.8452 44.607 39.0622 44.5628C39.2792 44.5186 39.4004 44.214 39.3327 43.8818C39.2651 43.5497 39.0347 43.3167 38.8178 43.3608C38.6015 43.405 38.4803 43.7097 38.5472 44.0419Z" fill="#324354"/>
<path d="M38.8149 44.6133C38.8149 44.6133 39.9587 46.3744 40.9772 47.1291C40.5011 47.7967 39.4524 47.7492 39.4524 47.7492L38.8149 44.6133Z" fill="#A02724"/>
<path d="M36.9573 42.4435C36.9091 42.4435 36.8602 42.4261 36.8221 42.3906C36.7417 42.3163 36.7364 42.1904 36.8114 42.1093C37.558 41.3011 38.464 41.4451 38.5035 41.4511C38.612 41.4698 38.6843 41.5723 38.6662 41.6808C38.6475 41.7886 38.5437 41.8609 38.4379 41.8435C38.4078 41.8388 37.6993 41.735 37.104 42.3792C37.0645 42.4221 37.0109 42.4435 36.9573 42.4435Z" fill="#324354"/>
<path d="M28.8905 48.7109C29.6291 51.7825 30.3663 57.4108 27.73 59.4599C27.73 59.4599 28.7599 62.5757 35.7622 62.5757C43.4617 62.5757 39.4419 60.5688 39.4419 60.5688C35.2399 59.7512 35.3477 56.101 36.0796 53.7144L28.8905 48.7109Z" fill="#B55B52"/>
<path d="M26.9097 60.0296C26.451 59.1758 25.9454 58.1995 26.9907 57.8935C28.1405 57.5566 35.5272 56.9325 37.6968 57.5647C37.0299 58.7506 38.1589 60.2084 38.1589 60.2084L26.9097 60.0296Z" fill="#324354"/>
<path d="M33.0254 203.716H37.8568L38.3376 193.992H33.5069L33.0254 203.716Z" fill="#B55B52"/>
<path d="M2.36768 202.377L7.26068 202.635L10.2345 193.056L5.34084 192.797L2.36768 202.377Z" fill="#B55B52"/>
<path d="M7.11124 202.245L2.50081 201.247C2.33341 201.21 2.16265 201.295 2.091 201.451L0.490577 204.923C0.324508 205.284 0.54415 205.706 0.933207 205.783C2.54836 206.104 3.35125 206.179 5.37822 206.618C6.62575 206.888 9.44089 207.574 11.1639 207.947C12.8487 208.312 13.4801 206.665 12.8085 206.359C9.79646 204.982 8.53823 203.77 7.72261 202.641C7.57596 202.438 7.35699 202.299 7.11124 202.245Z" fill="#324354"/>
<path d="M37.6012 203.23H33.0162C32.8448 203.23 32.6961 203.35 32.6586 203.517L31.8289 207.249C31.7432 207.636 32.0365 208.002 32.4329 207.996C34.0869 207.967 36.4769 207.87 38.5561 207.87C40.9868 207.87 43.0861 208.003 45.9368 208.003C47.6604 208.003 48.1385 206.261 47.4173 206.103C44.1328 205.384 41.4509 205.307 38.6123 203.557C38.3043 203.367 37.9634 203.23 37.6012 203.23Z" fill="#324354"/>
<path d="M18.9824 60.8797C15.3363 62.6134 14.3452 73.1233 14.3452 73.1233L23.3652 77.2911C23.3652 77.2911 25.6037 73.9932 25.7752 68.8075C25.9546 63.3748 22.7103 59.1072 18.9824 60.8797Z" fill="#324354"/>
<path opacity="0.4" d="M23.8752 67.3594C22.2467 69.8872 22.4007 73.7986 22.9645 77.1039L23.3629 77.2907C23.3629 77.2907 25.6042 73.9887 25.7763 68.8044C25.7863 68.4803 25.785 68.1583 25.7736 67.8449L23.8752 67.3594Z" fill="black"/>
<path d="M44.1527 60.6261C44.1527 60.6261 48.6219 65.6738 44.4012 96.9168C37.6345 96.9168 25.2363 96.9168 21.9437 96.9168C21.789 93.4696 23.9553 76.6531 20.6299 60.4098C20.6299 60.4098 24.4796 59.637 28.1479 59.4603C31.0172 59.3223 35.1716 59.2306 37.6941 59.4603C41.0202 59.7643 44.1527 60.6261 44.1527 60.6261Z" fill="#407BFF"/>
<path opacity="0.6" d="M44.1527 60.6261C44.1527 60.6261 48.6219 65.6738 44.4012 96.9168C37.6345 96.9168 25.2363 96.9168 21.9437 96.9168C21.789 93.4696 23.9553 76.6531 20.6299 60.4098C20.6299 60.4098 24.4796 59.637 28.1479 59.4603C31.0172 59.3223 35.1716 59.2306 37.6941 59.4603C41.0202 59.7643 44.1527 60.6261 44.1527 60.6261Z" fill="#FAFAFA"/>
<path opacity="0.2" d="M46.1154 70.1757L46.0297 70.1014L41.5632 67.7148C41.1092 74.592 44.1835 78.9031 46.0123 80.7888C46.2641 76.3826 46.258 72.9072 46.1154 70.1757Z" fill="black"/>
<path opacity="0.2" d="M38.3369 193.996L38.0898 199.008H33.2563L33.5034 193.996H38.3369Z" fill="black"/>
<path opacity="0.2" d="M5.33918 192.801L10.2342 193.06L8.69872 197.997L3.80371 197.739L5.33918 192.801Z" fill="black"/>
<path d="M27.3353 45.5852C28.4141 49.6104 28.8406 52.0211 31.325 53.6945C35.0609 56.2116 39.7128 53.3228 39.8581 49.0566C39.9894 45.2169 38.2028 39.28 33.8836 38.4684C29.6281 37.6695 26.2565 41.5601 27.3353 45.5852Z" fill="#B55B52"/>
<path d="M36.4344 96.9141C36.4344 96.9141 31.6693 129.001 29.0537 141.022C26.189 154.186 10.8289 197.739 10.8289 197.739L3.31299 196.111C3.31299 196.111 12.945 160.619 15.349 142.215C16.2871 135.034 17.4195 123.457 18.8525 113.805C20.24 104.457 21.9435 96.9141 21.9435 96.9141H36.4344Z" fill="#324354"/>
<path d="M12.6285 195.229C12.6606 195.236 11.2276 197.947 11.2276 197.947L2.77148 196.116L3.48464 193.574L12.6285 195.229Z" fill="#407BFF"/>
<path opacity="0.6" d="M12.6285 195.229C12.6606 195.236 11.2276 197.947 11.2276 197.947L2.77148 196.116L3.48464 193.574L12.6285 195.229Z" fill="white"/>
<path opacity="0.6" d="M33.4231 108.347C27.9133 109.428 28.4966 129.974 29.1595 140.542C30.7486 133.072 33.0742 118.698 34.6632 108.496C34.2976 108.313 33.8858 108.256 33.4231 108.347Z" fill="black"/>
<path d="M44.401 96.9141C44.401 96.9141 46.6423 128.306 46.1856 141.11C45.7108 154.428 39.3962 198.035 39.3962 198.035H32.2834C32.2834 198.035 32.0222 155.206 31.7061 142.127C31.3613 127.868 29.6396 96.9141 29.6396 96.9141H44.401Z" fill="#324354"/>
<path d="M40.7642 195.203C40.797 195.203 40.3631 198.156 40.3631 198.156H31.7108L31.4771 195.521L40.7642 195.203Z" fill="#407BFF"/>
<path opacity="0.6" d="M40.7642 195.203C40.797 195.203 40.3631 198.156 40.3631 198.156H31.7108L31.4771 195.521L40.7642 195.203Z" fill="white"/>
<path d="M41.5317 66.5032C41.5317 74.9278 46.0149 78.3965 46.0149 78.3965L53.3019 71.273C53.3019 71.273 50.8242 67.004 47.4171 63.0854C43.2072 58.2439 41.5317 61.0858 41.5317 66.5032Z" fill="#324354"/>
<path opacity="0.2" d="M39.6033 50.5859C39.4185 51.1022 38.933 51.9774 37.7136 52.3263C35.9351 52.8352 35.9116 54.3426 35.9116 54.3426L35.9337 54.3707C37.6306 53.8102 39.0435 52.408 39.6033 50.5859Z" fill="black"/>
<path d="M37.714 37.5881C39.2153 35.695 36.9058 35.6046 36.9058 35.6046C37.5058 33.3446 34.8045 34.5613 34.8045 34.5613C33.1826 32.3261 32.2679 35.0461 32.2679 35.0461C30.5858 33.1524 30.2764 36.2475 30.2764 36.2475C28.5896 33.8455 27.7305 37.3102 27.7305 37.3102C26.1769 34.8158 25.2261 38.0655 25.2261 38.0655C22.0185 36.9171 23.5433 40.2505 23.5433 40.2505C20.8051 40.3275 23.0015 42.4456 23.0015 42.4456C19.7217 42.4536 22.6138 44.3319 22.6138 44.3319C20.0089 46.0408 23.2788 46.5009 23.2788 46.5009C21.1534 49.8243 24.8029 48.5915 24.8029 48.5915C23.3243 51.8807 26.6028 50.4316 26.6028 50.4316C26.3899 53.6057 28.2233 52.7418 29.1046 52.1539C29.2747 52.7934 29.5921 53.4704 30.1813 53.5474C31.3251 53.6968 31.5474 51.5378 31.5474 51.5378C31.5474 51.5378 32.6088 52.3635 33.4987 51.9162C34.3886 51.4689 34.0532 50.3365 34.0532 50.3365C34.0532 50.3365 34.7342 50.8448 35.3583 50.36C35.74 50.0633 35.742 47.9319 35.2551 47.1826L36.9982 46.5002C36.9982 46.5002 38.2919 46.3181 37.714 44.6125C37.1368 42.9076 37.6263 41.561 37.6263 41.561C39.5937 40.6389 37.9799 39.53 37.9799 39.53C40.2546 38.0561 37.714 37.5881 37.714 37.5881Z" fill="#324354"/>
<path d="M34.1833 45.7589C34.4571 46.8156 35.1515 47.7236 35.8774 48.264C36.9703 49.0769 37.7859 48.2767 37.7082 47.0406C37.6386 45.9276 36.9857 44.1638 35.7803 43.8337C34.5937 43.5083 33.8705 44.5509 34.1833 45.7589Z" fill="#B55B52"/>
</svg>
