<svg width="30" height="30" viewBox="0 0 30 30" fill="none" xmlns="http://www.w3.org/2000/svg">
<g clip-path="url(#clip0_14125_12833)">
<path d="M26 27.8027H0.498047V26.0449H29.5016V27.8027H27.3043" stroke="#505050" stroke-width="0.7" stroke-miterlimit="22.9256" stroke-linecap="round"/>
<path d="M19.3943 27.8027C20.3611 27.8027 21.1521 28.5938 21.1521 29.5605H22.91C22.91 28.5938 23.701 27.8027 24.6678 27.8027M10.6055 27.8027C9.63873 27.8027 8.84771 28.5938 8.84771 29.5605H7.08984C7.08984 28.5938 6.29883 27.8027 5.33203 27.8027" stroke="#505050" stroke-width="0.7" stroke-miterlimit="22.9256"/>
<path d="M27.3044 19.0137V26.0449M2.69531 19.0137V26.0449M5.33203 19.0137V26.0449M24.6677 19.0137V26.0449" stroke="#505050" stroke-width="0.7" stroke-miterlimit="22.9256"/>
<path d="M9.36306 3.32647C9.49178 3.18227 9.47923 2.96102 9.33503 2.83229C9.19082 2.70357 8.96957 2.71612 8.84085 2.86032L9.10195 3.0934L9.36306 3.32647ZM9.76691 1.93618C9.62271 2.06491 9.61018 2.28616 9.73891 2.43036C9.86764 2.57455 10.0889 2.58709 10.2331 2.45836L10 2.19727L9.76691 1.93618ZM21.1522 26.0449H21.5022V19.0137H21.1522H20.8022V26.0449H21.1522ZM21.1522 17.2559H21.5022V8.34949H21.1522H20.8022V17.2559H21.1522ZM21.1522 8.34949H21.5022C21.5022 4.77592 18.5735 1.84727 14.9999 1.84727V2.19727V2.54727C18.1869 2.54727 20.8022 5.16252 20.8022 8.34949H21.1522ZM14.9999 2.19727V1.84727C11.4264 1.84727 8.49766 4.77591 8.49766 8.34949H8.84766H9.19766C9.19766 5.16252 11.813 2.54727 14.9999 2.54727V2.19727ZM8.84766 8.34949H8.49766V17.2559H8.84766H9.19766V8.34949H8.84766ZM8.84766 19.0137H8.49766V26.0449H8.84766H9.19766V19.0137H8.84766ZM7.08984 26.0449H7.43984V19.0137H7.08984H6.73984V26.0449H7.08984ZM7.08984 17.2559H7.43984V8.34949H7.08984H6.73984V17.2559H7.08984ZM7.08984 8.34949H7.43984C7.43984 6.42664 8.16781 4.66546 9.36306 3.32647L9.10195 3.0934L8.84085 2.86032C7.5366 4.32141 6.73984 6.2466 6.73984 8.34949H7.08984ZM10 2.19727L10.2331 2.45836C11.5571 1.27634 13.0558 0.789453 14.9999 0.789453V0.439453V0.0894531C12.9183 0.0894531 11.2428 0.618579 9.76691 1.93618L10 2.19727ZM14.9999 0.439453V0.789453C19.1572 0.789453 22.56 4.19226 22.56 8.34949H22.91H23.26C23.26 3.80567 19.5438 0.0894531 14.9999 0.0894531V0.439453ZM22.91 8.34949H22.56V17.2559H22.91H23.26V8.34949H22.91ZM22.91 19.0137H22.56V26.0449H22.91H23.26V19.0137H22.91Z" fill="#505050"/>
<path d="M29.5016 17.2559H0.498047V19.0137H29.5016V17.2559Z" stroke="#505050" stroke-width="0.7" stroke-miterlimit="22.9256"/>
<path d="M8.84766 8.34961H21.1522" stroke="#505050" stroke-width="0.7" stroke-miterlimit="22.9256"/>
<path d="M11.498 3.30176L15.0011 8.3499" stroke="#505050" stroke-width="0.7" stroke-miterlimit="22.9256"/>
<path d="M18.503 3.30176L15 8.3499" stroke="#505050" stroke-width="0.7" stroke-miterlimit="22.9256"/>
<path d="M15 8.34961V17.256M15 19.0138V26.045" stroke="#505050" stroke-width="0.7" stroke-miterlimit="22.9256"/>
<path d="M11.4844 19.0137V26.0449" stroke="#505050" stroke-width="0.7" stroke-miterlimit="22.9256"/>
<path d="M18.5156 19.0137V26.0449" stroke="#505050" stroke-width="0.7" stroke-miterlimit="22.9256"/>
<path d="M19.3945 10.5469V9.66797M19.3945 12.3047V11.4258" stroke="#505050" stroke-width="0.7" stroke-miterlimit="22.9256"/>
<path fill-rule="evenodd" clip-rule="evenodd" d="M25.3262 14.6191H27.5234V16.1572C27.5234 16.7614 27.0291 17.2559 26.4248 17.2559C25.8205 17.2559 25.3262 16.7615 25.3262 16.1572V14.6191Z" stroke="#505050" stroke-width="0.7" stroke-miterlimit="22.9256"/>
<path d="M26.4258 14.6191V9.3457" stroke="#505050" stroke-width="0.7" stroke-miterlimit="22.9256"/>
<path d="M26.4258 14.6191C26.4258 12.8613 27.3135 11.5166 28.2715 10.5586" stroke="#505050" stroke-width="0.7" stroke-miterlimit="22.9256" stroke-linecap="round"/>
<path d="M26.4258 14.6191C26.4258 12.8613 25.5381 11.5166 24.5801 10.5586" stroke="#505050" stroke-width="0.7" stroke-miterlimit="22.9256" stroke-linecap="round"/>
<path fill-rule="evenodd" clip-rule="evenodd" d="M25.5469 7.58789H27.3047V8.4668C27.3047 8.9502 26.9092 9.3457 26.4258 9.3457C25.9424 9.3457 25.5469 8.9502 25.5469 8.4668V7.58789Z" stroke="#505050" stroke-width="0.7" stroke-miterlimit="22.9256"/>
<path fill-rule="evenodd" clip-rule="evenodd" d="M4.67383 14.6191H2.47656V16.1572C2.47656 16.7614 2.97092 17.2559 3.5752 17.2559C4.17947 17.2559 4.67383 16.7615 4.67383 16.1572V14.6191Z" stroke="#505050" stroke-width="0.7" stroke-miterlimit="22.9256"/>
<path d="M3.57422 14.6191V9.3457" stroke="#505050" stroke-width="0.7" stroke-miterlimit="22.9256"/>
<path d="M3.57422 14.6191C3.57422 12.8613 2.68652 11.5166 1.72852 10.5586" stroke="#505050" stroke-width="0.7" stroke-miterlimit="22.9256" stroke-linecap="round"/>
<path d="M3.57422 14.6191C3.57422 12.8613 4.46191 11.5166 5.41992 10.5586" stroke="#505050" stroke-width="0.7" stroke-miterlimit="22.9256" stroke-linecap="round"/>
<path fill-rule="evenodd" clip-rule="evenodd" d="M4.45312 7.58789H2.69531V8.4668C2.69531 8.9502 3.09082 9.3457 3.57422 9.3457C4.05762 9.3457 4.45312 8.9502 4.45312 8.4668V7.58789Z" stroke="#505050" stroke-width="0.7" stroke-miterlimit="22.9256"/>
</g>
<defs>
<clipPath id="clip0_14125_12833">
<rect width="30" height="30" fill="white"/>
</clipPath>
</defs>
</svg>
